<svg xmlns="http://www.w3.org/2000/svg" xmlns:xlink="http://www.w3.org/1999/xlink" width="119" height="147.5" viewBox="0 0 119 147.5">
  <defs>
    <filter id="Trazado_836181" x="0" y="0" width="119" height="119" filterUnits="userSpaceOnUse">
      <feOffset input="SourceAlpha"/>
      <feGaussianBlur stdDeviation="5.5" result="blur"/>
      <feFlood flood-color="#fff" flood-opacity="0.659"/>
      <feComposite operator="in" in2="blur"/>
      <feComposite in="SourceGraphic"/>
    </filter>
  </defs>
  <g id="Grupo_1105984" data-name="Grupo 1105984" transform="translate(-6098.5 10979.5)">
    <g id="Grupo_1105250" data-name="Grupo 1105250" transform="translate(4986 -15803)">
      <g transform="matrix(1, 0, 0, 1, 1112.5, 4823.5)" filter="url(#Trazado_836181)">
        <path id="Trazado_836181-2" data-name="Trazado 836181" d="M43,0A43,43,0,1,1,0,43,43,43,0,0,1,43,0Z" transform="translate(16.5 16.5)" fill="#4df5df"/>
      </g>
      <g id="vertical_4598303_1_" data-name="vertical_4598303 (1)" transform="translate(1137.068 4854.905)">
        <g id="Grupo_1105265" data-name="Grupo 1105265" transform="translate(31.07 34.518)">
          <path id="Trazado_890715" data-name="Trazado 890715" d="M369.6,344.447V338.3a.744.744,0,0,1,.744-.744h1.012a.744.744,0,0,0,.587-1.2l-3.972-5.087a.744.744,0,0,0-1.173,0l-3.972,5.087a.744.744,0,0,0,.587,1.2h1.13a.744.744,0,0,1,.744.744v6.149a.757.757,0,0,0,.757.757h2.8A.757.757,0,0,0,369.6,344.447Z" transform="translate(-362.665 -330.978)" fill="#f8e883"/>
        </g>
        <g id="Grupo_1105266" data-name="Grupo 1105266" transform="translate(34.299 34.518)">
          <path id="Trazado_890716" data-name="Trazado 890716" d="M406.406,336.351l-3.972-5.087a.744.744,0,0,0-1.173,0l-.9,1.155,3.07,3.932a.744.744,0,0,1-.587,1.2h-1.012a.744.744,0,0,0-.744.744v6.149a.757.757,0,0,1-.668.751.787.787,0,0,0,.089.006h2.8a.757.757,0,0,0,.757-.757V338.3a.744.744,0,0,1,.744-.744h1.012A.745.745,0,0,0,406.406,336.351Z" transform="translate(-400.358 -330.978)" fill="#ffd549"/>
        </g>
        <g id="Grupo_1105269" data-name="Grupo 1105269" transform="translate(27.336 7.384)">
          <path id="Trazado_890719" data-name="Trazado 890719" d="M331.852,14.243a2.093,2.093,0,0,0-2.007,1.5,7.434,7.434,0,1,0,0,13.283,2.093,2.093,0,0,0,4.1-.592v-12.1A2.093,2.093,0,0,0,331.852,14.243ZM326.513,25a2.615,2.615,0,1,1,2.614-2.615A2.618,2.618,0,0,1,326.513,25Z" transform="translate(-319.079 -14.243)" fill="#f94374"/>
        </g>
        <g id="Grupo_1105270" data-name="Grupo 1105270" transform="translate(38.249 7.384)">
          <path id="Trazado_890720" data-name="Trazado 890720" d="M450.419,16.335a2.092,2.092,0,0,0-3.954-.955,2.082,2.082,0,0,1,.232.955v12.1a2.081,2.081,0,0,1-.232.956,2.092,2.092,0,0,0,3.954-.956Z" transform="translate(-446.465 -14.242)" fill="#d4335f"/>
        </g>
        <g id="Grupo_1105271" data-name="Grupo 1105271" transform="translate(30.427 33.876)">
          <path id="Trazado_890721" data-name="Trazado 890721" d="M361.982,338.989h-2.8a1.4,1.4,0,0,1-1.4-1.4v-6.149a.1.1,0,0,0-.1-.1h-1.13a1.387,1.387,0,0,1-1.093-2.24l3.972-5.087a1.387,1.387,0,0,1,2.186,0l3.972,5.087a1.387,1.387,0,0,1-1.093,2.24h-1.012a.1.1,0,0,0-.1.1v6.149A1.4,1.4,0,0,1,361.982,338.989Zm-1.459-14.226a.1.1,0,0,0-.08.039l-3.972,5.087a.1.1,0,0,0,.08.164h1.13a1.388,1.388,0,0,1,1.387,1.387v6.149a.114.114,0,0,0,.114.114h2.8a.114.114,0,0,0,.114-.114v-6.149a1.388,1.388,0,0,1,1.387-1.387h1.012a.1.1,0,0,0,.08-.164L360.6,324.8a.1.1,0,0,0-.08-.039Z" transform="translate(-355.162 -323.478)"/>
        </g>
        <g id="Grupo_1105273" data-name="Grupo 1105273" transform="translate(26.173 27.963)">
          <path id="Trazado_890723" data-name="Trazado 890723" d="M322.556,255.741H306.151a.643.643,0,1,1,0-1.285h16.405a.643.643,0,1,1,0,1.285Z" transform="translate(-305.508 -254.456)"/>
        </g>
        <g id="Grupo_1105275" data-name="Grupo 1105275" transform="translate(26.693 6.741)">
          <path id="Trazado_890725" data-name="Trazado 890725" d="M325,24.314a2.753,2.753,0,0,1-2.324-1.3,7.968,7.968,0,0,1-3.016.586,8.076,8.076,0,1,1,0-16.153h0a7.969,7.969,0,0,1,3.015.585A2.753,2.753,0,0,1,325,6.741h0a2.736,2.736,0,0,1,2.736,2.736v4.409a.643.643,0,0,1-1.285,0V9.477A1.451,1.451,0,0,0,325,8.026,1.458,1.458,0,0,0,323.6,9.067a.642.642,0,0,1-.905.393,6.7,6.7,0,0,0-3.043-.723h0a6.791,6.791,0,0,0,0,13.582h0A6.7,6.7,0,0,0,322.7,21.6a.642.642,0,0,1,.905.392,1.451,1.451,0,0,0,2.842-.41V16.456a.643.643,0,1,1,1.285,0v5.121A2.739,2.739,0,0,1,325,24.314Zm-5.341-5.529a3.26,3.26,0,1,1,2.3-.955,3.261,3.261,0,0,1-2.3.955Zm0-1.285a1.972,1.972,0,1,0-1.972-1.972A1.958,1.958,0,0,0,319.656,17.5Z" transform="translate(-311.58 -6.741)"/>
        </g>
      </g>
    </g>
    <rect id="Rectángulo_405326" data-name="Rectángulo 405326" width="30" height="30" rx="3" transform="translate(6143 -10862)" fill="#f0c518"/>
    <path id="Trazado_891284" data-name="Trazado 891284" d="M8.75,10.3a5.762,5.762,0,0,1-.977,3.609,3.409,3.409,0,0,1-2.859,1.25A3.433,3.433,0,0,1,2.07,13.93a5.594,5.594,0,0,1-1.008-3.516V8.32A5.687,5.687,0,0,1,2.051,4.7,3.434,3.434,0,0,1,4.9,3.469,3.437,3.437,0,0,1,7.742,4.691,5.576,5.576,0,0,1,8.75,8.2Zm-2.258-2.3a4.165,4.165,0,0,0-.387-2.061A1.307,1.307,0,0,0,4.9,5.289,1.284,1.284,0,0,0,3.723,5.9a3.9,3.9,0,0,0-.4,1.92v2.768A4.372,4.372,0,0,0,3.7,12.659a1.29,1.29,0,0,0,1.215.676,1.268,1.268,0,0,0,1.2-.649A4.268,4.268,0,0,0,6.492,10.7ZM16.4,3.508V5.367H16.18a3.836,3.836,0,0,0-2.465.8,3.238,3.238,0,0,0-1.121,2.148,3.075,3.075,0,0,1,2.289-.922,2.9,2.9,0,0,1,2.359,1.063,4.259,4.259,0,0,1,.875,2.8,4.19,4.19,0,0,1-.48,2.008,3.446,3.446,0,0,1-1.359,1.4,3.949,3.949,0,0,1-1.988.5,3.689,3.689,0,0,1-2.9-1.25,4.852,4.852,0,0,1-1.105-3.336V9.758a7.3,7.3,0,0,1,.7-3.27,5.127,5.127,0,0,1,2.008-2.2,5.884,5.884,0,0,1,3.035-.785Zm-2.2,5.7A1.8,1.8,0,0,0,13.2,9.5a1.715,1.715,0,0,0-.656.753v.686a3.04,3.04,0,0,0,.445,1.766,1.439,1.439,0,0,0,1.25.635,1.423,1.423,0,0,0,1.176-.573,2.337,2.337,0,0,0,.449-1.485,2.333,2.333,0,0,0-.453-1.5A1.477,1.477,0,0,0,14.2,9.211Z" transform="translate(6149 -10857)" fill="#12263f"/>
  </g>
</svg>
