<svg xmlns="http://www.w3.org/2000/svg" xmlns:xlink="http://www.w3.org/1999/xlink" width="119" height="147.5" viewBox="0 0 119 147.5">
  <defs>
    <filter id="Trazado_836181" x="0" y="0" width="119" height="119" filterUnits="userSpaceOnUse">
      <feOffset input="SourceAlpha"/>
      <feGaussianBlur stdDeviation="5.5" result="blur"/>
      <feFlood flood-color="#fff" flood-opacity="0.659"/>
      <feComposite operator="in" in2="blur"/>
      <feComposite in="SourceGraphic"/>
    </filter>
  </defs>
  <g id="Grupo_1105949" data-name="Grupo 1105949" transform="translate(-6422.5 10666.5)">
    <g id="Grupo_1105253" data-name="Grupo 1105253" transform="translate(5310 -15490)">
      <g transform="matrix(1, 0, 0, 1, 1112.5, 4823.5)" filter="url(#Trazado_836181)">
        <path id="Trazado_836181-2" data-name="Trazado 836181" d="M43,0A43,43,0,1,1,0,43,43,43,0,0,1,43,0Z" transform="translate(16.5 16.5)" fill="#4df5df"/>
      </g>
      <g id="remove_2807423" transform="translate(1149.974 4858.972)">
        <path id="Trazado_890775" data-name="Trazado 890775" d="M39.794,5.994A5.094,5.094,0,0,0,34.7.9H7.844A5.094,5.094,0,0,0,2.75,5.994V40.258a5.094,5.094,0,0,0,5.094,5.094H34.7a5.094,5.094,0,0,0,5.094-5.094Z" transform="translate(0.752 0.902)" fill="#eceff1"/>
        <circle id="Elipse_11914" data-name="Elipse 11914" cx="11.714" cy="11.714" r="11.714" transform="translate(21.323 23.327)" fill="#f44336"/>
        <path id="Trazado_890776" data-name="Trazado 890776" d="M24.015,37.031A13.015,13.015,0,1,1,37.031,24.015,13.03,13.03,0,0,1,24.015,37.031Zm0-23.027A10.012,10.012,0,1,0,34.027,24.015,10.023,10.023,0,0,0,24.015,14Z" transform="translate(9.021 11.026)"/>
        <path id="Trazado_890777" data-name="Trazado 890777" d="M16.5,25.013a1.5,1.5,0,0,1-1.061-2.565l7.008-7.008a1.5,1.5,0,0,1,2.124,2.124l-7.008,7.008a1.5,1.5,0,0,1-1.063.441Z" transform="translate(13.031 15.035)"/>
        <path id="Trazado_890778" data-name="Trazado 890778" d="M23.51,25.013a1.49,1.49,0,0,1-1.061-.441L15.44,17.564a1.5,1.5,0,1,1,2.124-2.124l7.008,7.008a1.5,1.5,0,0,1-1.063,2.565Z" transform="translate(13.031 15.035)"/>
        <path id="Trazado_890779" data-name="Trazado 890779" d="M12.508,15.014h-3A3.508,3.508,0,0,1,6,11.51V6.5A3.508,3.508,0,0,1,9.5,3h3a1.5,1.5,0,0,1,0,3h-3a.5.5,0,0,0-.5.5V11.51a.5.5,0,0,0,.5.5h3a1.5,1.5,0,0,1,0,3Z" transform="translate(4.009 3.007)"/>
        <path id="Trazado_890780" data-name="Trazado 890780" d="M14.5,15.014a1.5,1.5,0,0,1-1.5-1.5V4.5a1.5,1.5,0,0,1,3,0v9.011A1.5,1.5,0,0,1,14.5,15.014Z" transform="translate(11.026 3.007)"/>
        <path id="Trazado_890781" data-name="Trazado 890781" d="M17,15.014a1.5,1.5,0,0,1-1.5-1.5V4.5a1.5,1.5,0,0,1,3,0v9.011A1.5,1.5,0,0,1,17,15.014Z" transform="translate(13.532 3.007)"/>
        <path id="Trazado_890782" data-name="Trazado 890782" d="M22.512,9.5H13.5a1.5,1.5,0,1,1,0-3h9.011a1.5,1.5,0,1,1,0,3Z" transform="translate(10.024 6.515)"/>
        <path id="Trazado_890783" data-name="Trazado 890783" d="M22.512,7H13.5a1.5,1.5,0,1,1,0-3h9.011a1.5,1.5,0,1,1,0,3Z" transform="translate(10.024 4.009)"/>
        <path id="Trazado_890784" data-name="Trazado 890784" d="M18.519,48.056H7.506A5.511,5.511,0,0,1,2,42.55V5.506A5.511,5.511,0,0,1,7.506,0H36.541a5.511,5.511,0,0,1,5.506,5.506V18.522a1.5,1.5,0,1,1-3,0V5.506a2.506,2.506,0,0,0-2.5-2.5H7.506A2.506,2.506,0,0,0,5,5.506V42.55a2.506,2.506,0,0,0,2.5,2.5H18.519a1.5,1.5,0,1,1,0,3Z" transform="translate(0)"/>
      </g>
    </g>
    <rect id="Rectángulo_405331" data-name="Rectángulo 405331" width="30" height="30" rx="3" transform="translate(6467 -10549)" fill="#f0c518"/>
    <path id="Trazado_891251" data-name="Trazado 891251" d="M8.75,10.3a5.762,5.762,0,0,1-.977,3.609,3.409,3.409,0,0,1-2.859,1.25A3.433,3.433,0,0,1,2.07,13.93a5.594,5.594,0,0,1-1.008-3.516V8.32A5.687,5.687,0,0,1,2.051,4.7,3.434,3.434,0,0,1,4.9,3.469,3.437,3.437,0,0,1,7.742,4.691,5.576,5.576,0,0,1,8.75,8.2Zm-2.258-2.3a4.165,4.165,0,0,0-.387-2.061A1.307,1.307,0,0,0,4.9,5.289,1.284,1.284,0,0,0,3.723,5.9a3.9,3.9,0,0,0-.4,1.92v2.768A4.372,4.372,0,0,0,3.7,12.659a1.29,1.29,0,0,0,1.215.676,1.268,1.268,0,0,0,1.2-.649A4.268,4.268,0,0,0,6.492,10.7ZM16.4,3.508V5.367H16.18a3.836,3.836,0,0,0-2.465.8,3.238,3.238,0,0,0-1.121,2.148,3.075,3.075,0,0,1,2.289-.922,2.9,2.9,0,0,1,2.359,1.063,4.259,4.259,0,0,1,.875,2.8,4.19,4.19,0,0,1-.48,2.008,3.446,3.446,0,0,1-1.359,1.4,3.949,3.949,0,0,1-1.988.5,3.689,3.689,0,0,1-2.9-1.25,4.852,4.852,0,0,1-1.105-3.336V9.758a7.3,7.3,0,0,1,.7-3.27,5.127,5.127,0,0,1,2.008-2.2,5.884,5.884,0,0,1,3.035-.785Zm-2.2,5.7A1.8,1.8,0,0,0,13.2,9.5a1.715,1.715,0,0,0-.656.753v.686a3.04,3.04,0,0,0,.445,1.766,1.439,1.439,0,0,0,1.25.635,1.423,1.423,0,0,0,1.176-.573,2.337,2.337,0,0,0,.449-1.485,2.333,2.333,0,0,0-.453-1.5A1.477,1.477,0,0,0,14.2,9.211Z" transform="translate(6473 -10544)" fill="#12263f"/>
  </g>
</svg>
