<svg xmlns="http://www.w3.org/2000/svg" xmlns:xlink="http://www.w3.org/1999/xlink" width="119" height="147.5" viewBox="0 0 119 147.5">
  <defs>
    <filter id="Trazado_836181" x="0" y="0" width="119" height="119" filterUnits="userSpaceOnUse">
      <feOffset input="SourceAlpha"/>
      <feGaussianBlur stdDeviation="5.5" result="blur"/>
      <feFlood flood-color="#fff" flood-opacity="0.659"/>
      <feComposite operator="in" in2="blur"/>
      <feComposite in="SourceGraphic"/>
    </filter>
  </defs>
  <g id="Grupo_1105951" data-name="Grupo 1105951" transform="translate(-6099.5 10353.5)">
    <g id="Grupo_1105254" data-name="Grupo 1105254" transform="translate(4987 -15177)">
      <g transform="matrix(1, 0, 0, 1, 1112.5, 4823.5)" filter="url(#Trazado_836181)">
        <path id="Trazado_836181-2" data-name="Trazado 836181" d="M43,0A43,43,0,1,1,0,43,43,43,0,0,1,43,0Z" transform="translate(16.5 16.5)" fill="#4df5df"/>
      </g>
      <g id="fingerprint-scan_3924692" transform="translate(1144.87 4857.292)">
        <path id="Trazado_890785" data-name="Trazado 890785" d="M31.985,21.782H28V20.188h3.188V17h1.594v3.985A.8.8,0,0,1,31.985,21.782Z" transform="translate(-4.059 -3.247)" fill="#1a489c"/>
        <path id="Trazado_890786" data-name="Trazado 890786" d="M34.505,45.069l.022-.042a30,30,0,0,0,2.758-18.349L36.9,24.347a2.391,2.391,0,1,0-4.782,0V21.158a2.391,2.391,0,0,0-4.782,0V19.564a2.391,2.391,0,0,0-4.782,0V12.391a2.391,2.391,0,1,0-4.782,0V28.332l-1.005-2.01a4.958,4.958,0,0,0-1.685-1.913,5.155,5.155,0,0,0-4.477-.6L9,24.347l3.387,5.646a9.784,9.784,0,0,1,1.395,5.034,9.784,9.784,0,0,0,6.441,9.2l2.327.847Z" transform="translate(-0.203 -1.827)" fill="#eeb8ab"/>
        <path id="Trazado_890787" data-name="Trazado 890787" d="M35.691,25.085,35.3,22.753a2.377,2.377,0,0,0-.112-.685,2.359,2.359,0,0,0-3.077,2.28V21.158a2.354,2.354,0,0,0-.092-.622,2.386,2.386,0,0,0-4.69.622V19.564a2.391,2.391,0,0,0-4.782,0V12.391a2.391,2.391,0,1,0-4.782,0V28.332l-1.005-2.01a5.256,5.256,0,0,0-1.685-1.913c-.045-.029-.093-.05-.139-.08a5.1,5.1,0,0,0-4.339-.521L9,24.347l3.387,5.646a9.784,9.784,0,0,1,1.395,5.034A9.772,9.772,0,0,0,15.9,41.1a9.766,9.766,0,0,0,2.724,1.524l2.327.847h1.3A13.746,13.746,0,0,0,36.083,30.62c.01-.207.016-.409.016-.6a29.992,29.992,0,0,0-.408-4.934Z" transform="translate(-0.203 -1.827)" fill="#ffe1d3"/>
        <path id="Trazado_890788" data-name="Trazado 890788" d="M21,54H38.535v6.376H21Z" transform="translate(-2.639 -10.757)" fill="#2b66b9"/>
        <path id="Trazado_890789" data-name="Trazado 890789" d="M28.188,57.188H39.347V54H25A3.188,3.188,0,0,0,28.188,57.188Z" transform="translate(-3.45 -10.757)" fill="#3e88de"/>
        <g id="Grupo_1105278" data-name="Grupo 1105278" transform="translate(16.767 17.738)">
          <path id="Trazado_890790" data-name="Trazado 890790" d="M25,22h1.594v8.767H25Z" transform="translate(-20.218 -22)" fill="#eeb8ab"/>
          <path id="Trazado_890791" data-name="Trazado 890791" d="M19,33h1.594v3.985H19Z" transform="translate(-19 -24.233)" fill="#eeb8ab"/>
          <path id="Trazado_890792" data-name="Trazado 890792" d="M31,24h1.594v7.173H31Z" transform="translate(-21.436 -22.406)" fill="#eeb8ab"/>
          <path id="Trazado_890793" data-name="Trazado 890793" d="M37,28h1.594v5.579H37Z" transform="translate(-22.653 -23.218)" fill="#eeb8ab"/>
        </g>
        <path id="Trazado_890794" data-name="Trazado 890794" d="M16.782,21.782H12.8a.8.8,0,0,1-.8-.8V17h1.594v3.188h3.188Z" transform="translate(-0.812 -3.247)" fill="#1a489c"/>
        <path id="Trazado_890795" data-name="Trazado 890795" d="M13.594,5.782H12V1.8a.8.8,0,0,1,.8-.8h3.985V2.594H13.594Z" transform="translate(-0.812 0)" fill="#1a489c"/>
        <path id="Trazado_890796" data-name="Trazado 890796" d="M32.782,5.782H31.188V2.594H28V1h3.985a.8.8,0,0,1,.8.8Z" transform="translate(-4.059)" fill="#1a489c"/>
        <circle id="Elipse_11915" data-name="Elipse 11915" cx="9.5" cy="9.5" r="9.5" transform="translate(26.128 30.708)" fill="#747574"/>
        <path id="Trazado_890797" data-name="Trazado 890797" d="M41.173,38a9.509,9.509,0,0,0-5.457,1.716A9.557,9.557,0,0,0,49.021,53.022,9.557,9.557,0,0,0,41.173,38Z" transform="translate(-5.277 -7.51)" fill="#9d9e9d"/>
        <path id="Trazado_890798" data-name="Trazado 890798" d="M46.984,44.42l-1.127-1.127-4.219,4.219L37.42,43.293,36.293,44.42l4.219,4.219-4.219,4.219,1.127,1.127,4.219-4.219,4.219,4.219,1.127-1.127-4.219-4.219Z" transform="translate(-5.743 -8.584)" fill="#bcbdbc"/>
        <path id="Trazado_890799" data-name="Trazado 890799" d="M46.984,52.857l-4.219-4.219,4.219-4.219-1.127-1.127-4.219,4.219L37.42,43.293,36.293,44.42l4.219,4.219L36.73,52.421a9.773,9.773,0,0,0,1.127,1.127l3.782-3.782,4.219,4.219Z" transform="translate(-5.743 -8.584)" fill="#dfe0df"/>
        <path id="Trazado_890800" data-name="Trazado 890800" d="M11.5,30.2a8.991,8.991,0,0,1,1.281,4.623,10.619,10.619,0,0,0,5.473,9.266.787.787,0,0,0-.691.776v6.376a.8.8,0,0,0,.8.8H35.9a10.356,10.356,0,0,0,2.391-20.434v-.2a30.93,30.93,0,0,0-.418-5.063l-.379-2.272a3.188,3.188,0,0,0-4.782-2.69v-.428a3.177,3.177,0,0,0-3.985-3.084v-2.5H27.129v1.9a3.159,3.159,0,0,0-3.985-.673V12.188a3.188,3.188,0,1,0-6.376,0V24.935a5.777,5.777,0,0,0-1.451-1.388,5.983,5.983,0,0,0-5.173-.693l-1.6.533a.8.8,0,0,0-.431,1.167Zm7.657,20.245V45.663h7.173A10.409,10.409,0,0,0,30.4,50.446Zm25.505-8.767A8.767,8.767,0,1,1,35.9,32.911a8.767,8.767,0,0,1,8.767,8.767ZM10.649,24.367a4.384,4.384,0,0,1,3.784.507,4.172,4.172,0,0,1,1.415,1.6l.921,1.842v3.8h1.594V12.188a1.594,1.594,0,0,1,3.188,0V28.129h1.594V19.361a1.594,1.594,0,1,1,3.188,0v8.767h1.594V20.955a1.594,1.594,0,0,1,3.188,0v8.767h1.594V24.144a1.594,1.594,0,1,1,3.188,0,.814.814,0,0,0,.011.132l.389,2.333a29.33,29.33,0,0,1,.4,4.75c-.264-.021-.528-.041-.8-.041A10.326,10.326,0,0,0,25.824,44.069H22.488l-2.2-.8a9.011,9.011,0,0,1-5.916-8.449,10.578,10.578,0,0,0-1.509-5.446L9.993,24.586Z" transform="translate(0 -1.624)"/>
        <path id="Trazado_890801" data-name="Trazado 890801" d="M12,20.985a.8.8,0,0,0,.8.8h3.985V20.188H13.594V17H12Z" transform="translate(-0.812 -3.247)"/>
        <path id="Trazado_890802" data-name="Trazado 890802" d="M13.594,2.594h3.188V1H12.8a.8.8,0,0,0-.8.8V5.782h1.594Z" transform="translate(-0.812)"/>
        <path id="Trazado_890803" data-name="Trazado 890803" d="M32.782,5.782V1.8a.8.8,0,0,0-.8-.8H28V2.594h3.188V5.782Z" transform="translate(-4.059)"/>
        <path id="Trazado_890804" data-name="Trazado 890804" d="M37.42,43.293,36.293,44.42l4.219,4.219-4.219,4.219,1.127,1.127,4.219-4.219,4.219,4.219,1.127-1.127-4.219-4.219,4.219-4.219-1.127-1.127-4.219,4.219Z" transform="translate(-5.743 -8.584)"/>
      </g>
    </g>
    <rect id="Rectángulo_405336" data-name="Rectángulo 405336" width="30" height="30" rx="3" transform="translate(6144 -10236)" fill="#f0c518"/>
    <path id="Trazado_891252" data-name="Trazado 891252" d="M8.75,10.3a5.762,5.762,0,0,1-.977,3.609,3.409,3.409,0,0,1-2.859,1.25A3.433,3.433,0,0,1,2.07,13.93a5.594,5.594,0,0,1-1.008-3.516V8.32A5.687,5.687,0,0,1,2.051,4.7,3.434,3.434,0,0,1,4.9,3.469,3.437,3.437,0,0,1,7.742,4.691,5.576,5.576,0,0,1,8.75,8.2Zm-2.258-2.3a4.165,4.165,0,0,0-.387-2.061A1.307,1.307,0,0,0,4.9,5.289,1.284,1.284,0,0,0,3.723,5.9a3.9,3.9,0,0,0-.4,1.92v2.768A4.372,4.372,0,0,0,3.7,12.659a1.29,1.29,0,0,0,1.215.676,1.268,1.268,0,0,0,1.2-.649A4.268,4.268,0,0,0,6.492,10.7Zm11.516-3.11L13.609,15H11.227l4.406-9.555H9.977V3.625h8.031Z" transform="translate(6149 -10231)" fill="#12263f"/>
  </g>
</svg>
