<svg xmlns="http://www.w3.org/2000/svg" width="400" height="403.001" viewBox="0 0 400 403.001">
  <g id="Grupo_1104757" data-name="Grupo 1104757" transform="translate(-1020 -530)">
    <rect id="Rectángulo_404069" data-name="Rectángulo 404069" width="400" height="403" rx="15" transform="translate(1020 530)" fill="#3a1d71"/>
    <g id="_2781687" data-name="2781687" transform="translate(986.04 509.598)">
      <g id="BACKGROUND" transform="translate(36.84 38.71)">
        <g id="Grupo_1104714" data-name="Grupo 1104714" transform="translate(22.107 38.605)" opacity="0.84">
          <rect id="Rectángulo_405142" data-name="Rectángulo 405142" width="354.964" height="23.661" rx="10.78" fill="#fff5de"/>
          <rect id="Rectángulo_405143" data-name="Rectángulo 405143" width="354.964" height="23.661" rx="10.78" transform="translate(0 62.435)" fill="#fff5de"/>
          <rect id="Rectángulo_405144" data-name="Rectángulo 405144" width="354.964" height="23.661" rx="10.78" transform="translate(0 124.86)" fill="#fff5de"/>
          <rect id="Rectángulo_405145" data-name="Rectángulo 405145" width="354.964" height="23.661" rx="10.78" transform="translate(0 187.295)" fill="#fff5de"/>
          <rect id="Rectángulo_405146" data-name="Rectángulo 405146" width="354.964" height="23.661" rx="10.78" transform="translate(0 249.72)" fill="#fff5de"/>
        </g>
        <g id="Grupo_1104720" data-name="Grupo 1104720">
          <text id="HTML" transform="translate(163.915 30.737)" fill="#fc0" font-size="25" font-family="SegoeUI, Segoe UI"><tspan x="0" y="0">HTML</tspan></text>
          <g id="Grupo_1104715" data-name="Grupo 1104715" transform="translate(7.163 2.912)">
            <path id="Trazado_889090" data-name="Trazado 889090" d="M61.2,41.829h33.97A16.776,16.776,0,0,1,111.9,58.552V73.178a2.137,2.137,0,0,0,.637,1.536L123.1,85.285a2.172,2.172,0,0,1-1.536,3.708H61.213A16.776,16.776,0,0,1,44.49,72.27V58.543A16.776,16.776,0,0,1,61.213,41.82Z" transform="translate(-44.49 -41.82)" fill="#ffb603"/>
            <text id="_" data-name="&lt;/&gt;" transform="translate(13.109 31.938)" fill="#fff" font-size="23" font-family="SegoeUI, Segoe UI"><tspan x="0" y="0">&lt;/&gt;</tspan></text>
          </g>
          <text id="PHP" transform="translate(21.311 280.82)" fill="#fc0" font-size="25" font-family="SegoeUI, Segoe UI"><tspan x="0" y="0">PHP</tspan></text>
          <text id="CSS" transform="translate(319.599 94.734)" fill="#fc0" font-size="25" font-family="SegoeUI, Segoe UI"><tspan x="0" y="0">CSS</tspan></text>
          <text id="JAVA" transform="translate(333.307 212.888)" fill="#fc0" font-size="25" font-family="SegoeUI, Segoe UI"><tspan x="0" y="0">J</tspan><tspan y="0" letter-spacing="-0.05em">A</tspan><tspan y="0" letter-spacing="-0.06em">V</tspan><tspan y="0">A</tspan></text>
          <g id="Grupo_1104716" data-name="Grupo 1104716" transform="translate(327.131 231.295)">
            <path id="Trazado_889091" data-name="Trazado 889091" d="M412.849,297.3l-24.785-11.451a1.083,1.083,0,0,0-.412-.112,1.3,1.3,0,0,0-1.4,1.582l6.049,26.629a1.312,1.312,0,0,0,1.049,1,.259.259,0,0,1,.084.009,1.317,1.317,0,0,0,1.236-.6l4.766-7.444,5.337,6.592a1.308,1.308,0,0,0,1.835.2l3.043-2.463a1.308,1.308,0,0,0,.2-1.835l-5.3-6.545,8.24-3.155a1.323,1.323,0,0,0,.843-1.18,1.3,1.3,0,0,0-.758-1.227Z" transform="translate(-386.215 -285.732)" fill="#b4eefa"/>
            <path id="Trazado_889092" data-name="Trazado 889092" d="M412.394,298.571,387.6,287.12l6.049,26.629,5.74-8.97,6.47,8,3.043-2.453-6.433-7.949Z" transform="translate(-386.303 -285.82)" fill="#ffb603"/>
          </g>
          <g id="Grupo_1104718" data-name="Grupo 1104718" transform="translate(325.119 1.076)">
            <path id="Trazado_889093" data-name="Trazado 889093" d="M389.725,45.515a19.313,19.313,0,1,0,27.313,0A19.3,19.3,0,0,0,389.725,45.515Zm22.753,22.753a12.864,12.864,0,1,1,0-18.193A12.857,12.857,0,0,1,412.478,68.268Z" transform="translate(-384.065 -39.859)" fill="#beb4d0"/>
            <g id="Grupo_1104717" data-name="Grupo 1104717" transform="translate(26.224 26.218)">
              <rect id="Rectángulo_405147" data-name="Rectángulo 405147" width="8.876" height="33.081" transform="translate(0 6.277) rotate(-45)" fill="#beb4d0"/>
              <rect id="Rectángulo_405148" data-name="Rectángulo 405148" width="8.876" height="12.753" transform="translate(14.379 20.658) rotate(-45)" fill="#8971b5"/>
            </g>
          </g>
          <path id="Trazado_889094" data-name="Trazado 889094" d="M361.891,190.912H357.65l3-3a.788.788,0,1,0-1.114-1.114l-3,3v-4.242a.787.787,0,0,0-1.573,0V189.8l-3-3a.788.788,0,1,0-1.114,1.114l3,3h-4.242a.787.787,0,0,0,0,1.573h4.242l-3,3a.788.788,0,0,0,1.114,1.114l3-3v4.242a.787.787,0,0,0,1.573,0V193.6l3,3a.788.788,0,0,0,1.114-1.114l-3-3h4.242a.787.787,0,0,0,0-1.573Z" transform="translate(-56.702 -48.009)" fill="#e7c8eb"/>
          <path id="Trazado_889095" data-name="Trazado 889095" d="M169,129.142H164.76l3-3a.788.788,0,1,0-1.114-1.114l-3,3v-4.242a.787.787,0,0,0-1.573,0v4.242l-3-3a.788.788,0,0,0-1.114,1.114l3,3h-4.242a.787.787,0,1,0,0,1.573h4.242l-3,3a.788.788,0,1,0,1.114,1.114l3-3v4.242a.787.787,0,0,0,1.573,0V131.83l3,3a.788.788,0,1,0,1.114-1.114l-3-3H169a.787.787,0,1,0,0-1.573Z" transform="translate(-44.422 -44.076)" fill="#e7c8eb"/>
          <path id="Trazado_889096" data-name="Trazado 889096" d="M448.481,326.152H444.24l3-3a.788.788,0,0,0-1.114-1.114l-3,3V320.8a.787.787,0,1,0-1.573,0v4.242l-3-3a.788.788,0,0,0-1.114,1.114l3,3H436.2a.787.787,0,0,0,0,1.573h4.242l-3,3a.788.788,0,0,0,1.114,1.114l3-3v4.242a.787.787,0,0,0,1.573,0V328.84l3,3a.788.788,0,0,0,1.114-1.114l-3-3h4.242a.787.787,0,0,0,0-1.573Z" transform="translate(-62.215 -56.619)" fill="#e7c8eb"/>
          <path id="Trazado_889097" data-name="Trazado 889097" d="M357.271,44.852H353.03l3-3a.788.788,0,1,0-1.114-1.114l-3,3V39.5a.786.786,0,1,0-1.573,0v4.242l-3-3a.788.788,0,1,0-1.114,1.114l3,3h-4.242a.787.787,0,1,0,0,1.573h4.242l-3,3a.788.788,0,1,0,1.114,1.114l3-3v4.242a.786.786,0,1,0,1.573,0V47.54l3,3a.788.788,0,1,0,1.114-1.114l-3-3h4.242a.787.787,0,1,0,0-1.573Z" transform="translate(-56.408 -38.71)" fill="#e7c8eb"/>
          <path id="Trazado_889098" data-name="Trazado 889098" d="M119.661,397.162H115.42l3-3a.788.788,0,0,0-1.114-1.114l-3,3v-4.242a.787.787,0,0,0-1.573,0v4.242l-3-3a.788.788,0,1,0-1.114,1.114l3,3h-4.242a.787.787,0,1,0,0,1.573h4.242l-3,3a.788.788,0,1,0,1.114,1.114l3-3v4.242a.787.787,0,1,0,1.573,0V399.85l3,3a.788.788,0,0,0,1.114-1.114l-3-3h4.242a.787.787,0,1,0,0-1.573Z" transform="translate(-41.281 -61.14)" fill="#e7c8eb"/>
          <path id="Trazado_889099" data-name="Trazado 889099" d="M67.341,258.172H63.1l3-3a.788.788,0,0,0-1.114-1.114l-3,3v-4.242a.787.787,0,0,0-1.573,0v4.242l-3-3a.788.788,0,1,0-1.114,1.114l3,3H55.057a.787.787,0,1,0,0,1.573H59.3l-3,3a.788.788,0,0,0,1.114,1.114l3-3V265.1a.787.787,0,1,0,1.573,0V260.86l3,3a.788.788,0,0,0,1.114-1.114l-3-3h4.242a.787.787,0,1,0,0-1.573Z" transform="translate(-37.95 -52.291)" fill="#e7c8eb"/>
          <g id="Grupo_1104719" data-name="Grupo 1104719" transform="translate(7.2 116.305)">
            <path id="Trazado_889100" data-name="Trazado 889100" d="M75.1,197.521H72.442a10.97,10.97,0,0,0-.646-1.526l1.966-1.966a2.17,2.17,0,0,0,0-3.062l-2.4-2.4a2.17,2.17,0,0,0-3.062,0l-2,2A10.763,10.763,0,0,0,64.9,190v-2.959a2.17,2.17,0,0,0-2.163-2.163h-3.39a2.17,2.17,0,0,0-2.163,2.163V190a10.944,10.944,0,0,0-1.33.534l-2.163-2.163a2.17,2.17,0,0,0-3.062,0l-2.4,2.4a2.17,2.17,0,0,0,0,3.062l2.088,2.088a11.251,11.251,0,0,0-.59,1.33H46.693a2.17,2.17,0,0,0-2.163,2.163v3.39a2.17,2.17,0,0,0,2.163,2.163h2.818a11.3,11.3,0,0,0,.552,1.451l-2.041,2.041a2.17,2.17,0,0,0,0,3.062l2.4,2.4a2.17,2.17,0,0,0,3.062,0l1.863-1.863a12.735,12.735,0,0,0,1.545.693v2.7a2.17,2.17,0,0,0,2.163,2.163h3.39a2.17,2.17,0,0,0,2.163-2.163v-2.509a12.706,12.706,0,0,0,1.657-.655l1.835,1.835a2.17,2.17,0,0,0,3.062,0l2.4-2.4a2.17,2.17,0,0,0,0-3.062l-1.788-1.788a12.468,12.468,0,0,0,.684-1.629h2.631a2.17,2.17,0,0,0,2.163-2.163v-3.39a2.17,2.17,0,0,0-2.163-2.163Zm-14.195,9.541a5.815,5.815,0,1,1,5.815-5.815A5.814,5.814,0,0,1,60.906,207.062Z" transform="translate(-44.53 -164.321)" fill="#c067c9"/>
            <path id="Trazado_889101" data-name="Trazado 889101" d="M110.152,176.825l-3.137.215a14.57,14.57,0,0,0-.88-1.751l2.163-2.481a2.552,2.552,0,0,0-.253-3.6l-3.024-2.631a2.552,2.552,0,0,0-3.6.253l-2.2,2.528a13.441,13.441,0,0,0-1.7-.562l-.243-3.493a2.55,2.55,0,0,0-2.725-2.369l-4,.281a2.55,2.55,0,0,0-2.369,2.725l.243,3.493a15.277,15.277,0,0,0-1.526.74l-2.725-2.378a2.552,2.552,0,0,0-3.6.253l-2.631,3.024a2.552,2.552,0,0,0,.253,3.6l2.631,2.294a13.737,13.737,0,0,0-.581,1.61l-3.567.243a2.55,2.55,0,0,0-2.369,2.725l.281,4a2.55,2.55,0,0,0,2.725,2.369l3.324-.234a14.251,14.251,0,0,0,.777,1.667l-2.238,2.575a2.552,2.552,0,0,0,.253,3.6l3.024,2.631a2.552,2.552,0,0,0,3.6-.253l2.051-2.35a14.591,14.591,0,0,0,1.882.693l.225,3.184a2.55,2.55,0,0,0,2.725,2.369l4-.281a2.55,2.55,0,0,0,2.369-2.725l-.206-2.959a13.629,13.629,0,0,0,1.9-.908l2.313,2.013a2.552,2.552,0,0,0,3.6-.253l2.631-3.024a2.552,2.552,0,0,0-.253-3.6l-2.247-1.957a14.022,14.022,0,0,0,.674-1.976l3.1-.215a2.55,2.55,0,0,0,2.369-2.725l-.281-4a2.55,2.55,0,0,0-2.725-2.369ZM94.2,189.222a6.871,6.871,0,1,1,6.376-7.331A6.874,6.874,0,0,1,94.2,189.222Z" transform="translate(-46.425 -162.923)" fill="#c067c9"/>
          </g>
          <circle id="Elipse_11878" data-name="Elipse 11878" cx="3.277" cy="3.277" r="3.277" transform="translate(278.99 75.815)" fill="#ffb603"/>
          <circle id="Elipse_11879" data-name="Elipse 11879" cx="3.277" cy="3.277" r="3.277" transform="translate(384.075 137.463)" fill="#ffb603"/>
          <circle id="Elipse_11880" data-name="Elipse 11880" cx="3.277" cy="3.277" r="3.277" transform="translate(386.566 332.38)" fill="#ffb603"/>
          <circle id="Elipse_11881" data-name="Elipse 11881" cx="3.277" cy="3.277" r="3.277" transform="translate(0 274.468)" fill="#ffb603"/>
          <circle id="Elipse_11882" data-name="Elipse 11882" cx="3.277" cy="3.277" r="3.277" transform="translate(81.583 199.111)" fill="#ffb603"/>
          <circle id="Elipse_11883" data-name="Elipse 11883" cx="3.277" cy="3.277" r="3.277" transform="translate(17.444 77.678)" fill="#ffb603"/>
          <circle id="Elipse_11884" data-name="Elipse 11884" cx="3.277" cy="3.277" r="3.277" transform="translate(171.883 3.736)" fill="#ffb603"/>
        </g>
      </g>
      <g id="OBJECTS" transform="translate(43.338 139.76)">
        <rect id="Rectángulo_405149" data-name="Rectángulo 405149" width="33.624" height="18.68" rx="9.34" transform="translate(96.218 283.643) rotate(180)" fill="#539fb0"/>
        <g id="Grupo_1104725" data-name="Grupo 1104725" transform="translate(0 246.358)">
          <g id="Grupo_1104721" data-name="Grupo 1104721" transform="translate(0 0)">
            <rect id="Rectángulo_405150" data-name="Rectángulo 405150" width="30.515" height="37.285" transform="translate(42.659 37.285) rotate(180)" fill="#e3dfeb"/>
            <path id="Trazado_889102" data-name="Trazado 889102" d="M43.78,424.982V434.6a7.2,7.2,0,0,0,7.182,7.182h8.68a7.2,7.2,0,0,0,7.182-7.182v-9.616a7.2,7.2,0,0,0-7.182-7.182h-8.68A7.2,7.2,0,0,0,43.78,424.982Zm6.7,1.882a3.069,3.069,0,0,1,3.062-3.062H58.93a3.069,3.069,0,0,1,3.062,3.062v5.852a3.069,3.069,0,0,1-3.062,3.062H53.546a3.069,3.069,0,0,1-3.062-3.062Z" transform="translate(-43.78 -410.253)" fill="#e3dfeb"/>
          </g>
          <g id="Grupo_1104724" data-name="Grupo 1104724" transform="translate(17.538 9.345)">
            <circle id="Elipse_11885" data-name="Elipse 11885" cx="9.757" cy="9.757" r="9.757" fill="#c067c9"/>
            <g id="Grupo_1104723" data-name="Grupo 1104723" transform="translate(2.949 8.043)">
              <g id="Grupo_1104722" data-name="Grupo 1104722">
                <path id="Trazado_889103" data-name="Trazado 889103" d="M66.868,428.31a1.251,1.251,0,0,0,0,2.5A1.251,1.251,0,0,0,66.868,428.31Z" transform="translate(-65.66 -428.31)" fill="#fff"/>
                <path id="Trazado_889104" data-name="Trazado 889104" d="M78.668,428.31a1.251,1.251,0,0,0,0,2.5A1.251,1.251,0,0,0,78.668,428.31Z" transform="translate(-66.411 -428.31)" fill="#fff"/>
              </g>
              <path id="Trazado_889105" data-name="Trazado 889105" d="M75.2,430.6c-.122-.29-.524-.206-.674,0-.178.262-.243.571-.4.843a1.505,1.505,0,0,1-1.816.627,4.812,4.812,0,0,1-1.91-1.386.222.222,0,0,0-.365.094c-.506,1.273,1.713,2.238,2.678,2.3a2.008,2.008,0,0,0,2.069-.871,1.735,1.735,0,0,0,.412-1.611Z" transform="translate(-65.934 -428.444)" fill="#fff"/>
            </g>
          </g>
        </g>
        <g id="Grupo_1104753" data-name="Grupo 1104753" transform="translate(86.929 0)">
          <path id="Trazado_889106" data-name="Trazado 889106" d="M322.02,439.158H166.925L163.18,425.45H325.765Z" transform="translate(-138.311 -164.382)" fill="#c067c9"/>
          <g id="Grupo_1104751" data-name="Grupo 1104751" transform="translate(13.435)">
            <g id="Grupo_1104727" data-name="Grupo 1104727" transform="translate(9.348)">
              <path id="Trazado_889107" data-name="Trazado 889107" d="M318.751,256.546c-.243-1.648-.983-.028.412-1.9.375-.506.758-1.011,1.124-1.517,4.157-5.655,7.818-11.376,7.032-18.67-.637-5.861-2.079-10.974-5.047-14.85,3.1-7.978-2.706-18.68-8.727-23.614-.992-.815-2.21-1.339-3.193-2.107-1.891-1.489-2.051-3.184-2.547-5.262a32.631,32.631,0,0,0-2.743-8.146c-4.644-8.689-16.685-23.745-28.212-21.339-5.084-8.783-17.4-13.221-26.657-12.416-6.049.524-16.049,4.476-18.062,11.536.365-1.311-9.794-1.976-10.665-2.032a29.1,29.1,0,0,0-16.442,3.39c-.2.1-.4.187-.6.29-5.5,2.856-11.1,9.569-11.891,15.665-.112.824.478,4.307.1,4.934-.449.73-3.427.346-4.813.534-8.68,1.2-20.89,11.367-18.521,20.9a17.766,17.766,0,0,0,3.6,7.022c-1.245-1.442-7.528,5.768-8.109,6.648a23.007,23.007,0,0,0-3.745,14.607c.094.908,4.71,12.547,6.536,10.1-6.994,9.345-2.257,30.627,10.412,27.2a11.958,11.958,0,0,0,.524,8.4,12.8,12.8,0,0,0,7.088,6.835c3.455,1.489,7.669,2.753,11.442,2.6a14.393,14.393,0,0,0,5.534-1.311c.5-.234,1.554-1.152,2.425-1.77a6.672,6.672,0,0,0,.918,3.015,10,10,0,0,0,3.558,3.006,35.859,35.859,0,0,0,13.118,4.307c7.388.8,19.457-.384,23.259-8.5,2.968,2.172,6.826,2.987,10.243,3.923a51.53,51.53,0,0,0,16.966,2.051c3.989-.272,9.073-1.5,12.3-4.129a13.784,13.784,0,0,0,3.577-4.307c.637-1.255.581-2.828.9-4.129a26.578,26.578,0,0,0,23.081.328c4.888-2.4,8.951-8.942,8.315-14.288-.3-2.537-2.135-4.6-2.491-6.976Z" transform="translate(-160.952 -146.631)" fill="#bd7800"/>
              <g id="Grupo_1104726" data-name="Grupo 1104726" transform="translate(14.167 42.415)">
                <path id="Trazado_889108" data-name="Trazado 889108" d="M197.866,192.745c-5.29-2.022-8.174-.112-11.835,3.858-3.511,3.8-3.9,8.876-2.378,13.7a.8.8,0,0,0,1.536-.421c-.974-4.232-.871-8.661,2.06-12.06,2.978-3.455,5.646-5.749,10.5-4.635a.228.228,0,0,0,.122-.44Z" transform="translate(-176.511 -191.929)" fill="#9c6300"/>
                <path id="Trazado_889109" data-name="Trazado 889109" d="M197.33,221.058a.6.6,0,0,0,0-1.2c-4.363-.215-7.079,5.412-7.622,8.97-.815,5.384,1.208,10.459,6.779,12.013a.8.8,0,0,0,.618-1.461c-3.783-2.378-5.88-4.485-5.562-9.214.206-3.146,2.051-8.652,5.787-9.111Z" transform="translate(-176.939 -193.707)" fill="#9c6300"/>
                <path id="Trazado_889110" data-name="Trazado 889110" d="M183.309,244.961c-2.416-2.06-4.56-4-5.346-7.21-.89-3.652.14-7.022,1.161-10.515.15-.515-.6-.693-.787-.215-1.564,3.914-2.931,7.435-1.891,11.714a11.4,11.4,0,0,0,5.955,7.416c.721.365,1.6-.6.918-1.18Z" transform="translate(-176.082 -194.146)" fill="#9c6300"/>
                <path id="Trazado_889111" data-name="Trazado 889111" d="M198.921,269.332a13.977,13.977,0,0,1-8.024-3.867c-2.35-2.463-2.856-5.515-3.258-8.755-.066-.562-.964-.59-.908,0,.309,3.361.506,6.854,2.706,9.6a11.966,11.966,0,0,0,9.27,4.6c.871,0,1.124-1.423.215-1.564Z" transform="translate(-176.76 -196.026)" fill="#9c6300"/>
                <path id="Trazado_889112" data-name="Trazado 889112" d="M222.792,260.5c-7.013-1-15.384-10.581-9.466-17.332.075-.084-.047-.206-.122-.122-1.8,1.751-2.893,2.228-3.127,4.785a12.083,12.083,0,0,0,1.217,6.367c2.069,4.373,6.217,8.23,11.311,7.659.693-.075,1.021-1.227.187-1.348Z" transform="translate(-178.243 -195.182)" fill="#9c6300"/>
                <path id="Trazado_889113" data-name="Trazado 889113" d="M216.867,274.341c-3.212-.365-6.582-.936-8.9-3.352a14.471,14.471,0,0,1-2.491-3.38c-.225-.44-1.8-4.841-1.18-5.243a.4.4,0,0,0-.094-.712c-.075-.019-.15-.047-.225-.066a.506.506,0,0,0-.618.346c-1.133,3.839.5,7.257,2.968,10.14,2.669,3.109,6.517,4.167,10.534,3.8a.768.768,0,0,0,0-1.536Z" transform="translate(-177.796 -196.363)" fill="#9c6300"/>
                <path id="Trazado_889114" data-name="Trazado 889114" d="M288.477,248.654a.189.189,0,0,0-.328.187c1.685,3.09,1.264,8.3-.159,11.423-1.732,3.773-5.066,4.963-8.9,5.524-.871.131-.543,1.339.2,1.423,10.15,1.133,14.054-11.1,9.195-18.568Z" transform="translate(-182.607 -195.535)" fill="#9c6300"/>
                <path id="Trazado_889115" data-name="Trazado 889115" d="M317.428,263.287c-.066-.084-.2-.028-.225.056-.5,1.629.318,2.809.14,4.485a11.106,11.106,0,0,1-3.67,6.489c-2.622,2.509-5.955,3.979-9.223,5.449-.9.4-.253,1.807.655,1.564,6.573-1.779,18.68-10.019,12.322-18.043Z" transform="translate(-184.227 -196.47)" fill="#9c6300"/>
                <path id="Trazado_889116" data-name="Trazado 889116" d="M323.867,235.555c-.73,4.588-1.582,10.281-4.869,13.83-2.978,3.221-9.663,5.019-13.689,2.772-.1-.056-.234.094-.131.169,3.689,3.1,9.626,2.472,13.53-.234,4.822-3.343,6.676-10.852,6.582-16.339C325.281,234.974,324,234.721,323.867,235.555Z" transform="translate(-184.299 -194.674)" fill="#9c6300"/>
                <path id="Trazado_889117" data-name="Trazado 889117" d="M310.868,213.244c-.73-.721-1.695.328-1.1,1.1,2.491,3.184,4.738,5.824,3.727,10.112-.992,4.232-3.371,7.051-7.069,9.317a.3.3,0,0,0,.3.515c4.607-2.64,7.463-5.066,8.633-10.412,1.03-4.7-1.217-7.4-4.5-10.627Z" transform="translate(-184.372 -193.271)" fill="#9c6300"/>
              </g>
            </g>
            <g id="Grupo_1104728" data-name="Grupo 1104728" transform="translate(38.139 96.891)">
              <path id="Trazado_889118" data-name="Trazado 889118" d="M261.187,271.075V250.11H231.065v20.965c-2.116,1.058-38.9,9.42-38.9,9.42l13.361,128.69,79.785.309,15.178-129s-36.76-8.165-39.289-9.42Z" transform="translate(-191.729 -250.11)" fill="#ffb273"/>
              <path id="Trazado_889119" data-name="Trazado 889119" d="M248.744,264.945c-6.929,0-14.878-6.217-15.094-6.339V253.1h30.187v5.506c-.169.262-8.155,6.339-15.094,6.339Z" transform="translate(-194.371 -250.3)" fill="#ff7142"/>
              <path id="Trazado_889120" data-name="Trazado 889120" d="M300.53,281.862c-.131-.028-9.064-2.013-18.361-4.157,0,0-22.509,14.26-36.367,14.26s-35.4-14.345-35.4-14.345c-9.279,2.182-18.24,4.223-18.362,4.251l-.337.075,13.427,129.392,80.5.318L300.839,282.3l.037-.356-.346-.075Z" transform="translate(-191.7 -251.861)" fill="#4c122f"/>
            </g>
            <g id="Grupo_1104739" data-name="Grupo 1104739" transform="translate(43.721 8.952)">
              <path id="Trazado_889121" data-name="Trazado 889121" d="M274.873,173.51c-7.79-7.528-19.532-10.74-26.62-10.74h-1.1c-7.088,0-18.83,3.212-26.62,10.74-6.9,6.667-7.594,17.238-5.805,28.174,3.39,20.712,2.566,29.195,5.871,36.264,2.8,5.974,13.287,15.965,26.667,16.714h.852c13.38-.74,23.867-10.73,26.667-16.714,3.315-7.069,2.491-15.553,5.871-36.264,1.788-10.936,1.1-21.508-5.805-28.174Z" transform="translate(-198.694 -156.61)" fill="#ffb273"/>
              <g id="Grupo_1104738" data-name="Grupo 1104738">
                <g id="Grupo_1104732" data-name="Grupo 1104732" transform="translate(24.31 40.756)">
                  <g id="Grupo_1104731" data-name="Grupo 1104731">
                    <g id="Grupo_1104729" data-name="Grupo 1104729" transform="translate(30.932 0)">
                      <path id="Trazado_889122" data-name="Trazado 889122" d="M269.385,201.312a22.421,22.421,0,0,0-8.09-1.592c-1.4-.019-4.6.3-4.635,2.547a2.688,2.688,0,0,0,1.058,2.1c1.854,1.423,4.466.777,6.545.833a20.743,20.743,0,0,1,5.131.768c1.442.421,2.631,1.929,4.195,1.807a1.64,1.64,0,0,0,1.433-1.086,2.241,2.241,0,0,0-.515-2.144C273.261,202.95,270.452,201.742,269.385,201.312Z" transform="translate(-256.659 -199.719)" fill="#bd7800"/>
                      <path id="Trazado_889123" data-name="Trazado 889123" d="M270.776,211.333a.539.539,0,0,0-.88-.272c-.693.646-1.086,1.292-2.088,1.517-.037,0-.075.019-.112.019a3.71,3.71,0,0,0-1.4-.815,3.64,3.64,0,1,0,2.425,4.541,3.582,3.582,0,0,0,.028-1.985,3.193,3.193,0,0,0,2.032-3.015Z" transform="translate(-256.974 -200.433)" fill="#4c122f"/>
                    </g>
                    <g id="Grupo_1104730" data-name="Grupo 1104730">
                      <path id="Trazado_889124" data-name="Trazado 889124" d="M224.238,204.542a2.247,2.247,0,0,0-.515,2.144,1.655,1.655,0,0,0,1.433,1.086c1.564.122,2.753-1.386,4.195-1.807a20.743,20.743,0,0,1,5.131-.768c2.079-.066,4.691.59,6.545-.833a2.66,2.66,0,0,0,1.058-2.1c-.037-2.247-3.23-2.566-4.635-2.547a22.382,22.382,0,0,0-8.09,1.592c-1.067.431-3.867,1.639-5.122,3.23Z" transform="translate(-223.624 -199.719)" fill="#bd7800"/>
                      <path id="Trazado_889125" data-name="Trazado 889125" d="M228.6,211.333a.539.539,0,0,1,.88-.272c.693.646,1.086,1.292,2.088,1.517.037,0,.075.019.112.019a3.71,3.71,0,0,1,1.4-.815,3.64,3.64,0,1,1-2.425,4.541,3.582,3.582,0,0,1-.028-1.985,3.193,3.193,0,0,1-2.032-3.015Z" transform="translate(-223.939 -200.433)" fill="#4c122f"/>
                    </g>
                  </g>
                  <path id="Trazado_889126" data-name="Trazado 889126" d="M260.016,237.263c-3.858,2.1-6.423,5.721-11.227,5.721-4.288,0-7.36-2.65-10.927-4.541-.552-.29-1.264.318-.9.9,5.768,9.082,18.717,7.444,24.354-.777.562-.824-.515-1.723-1.292-1.292Z" transform="translate(-224.467 -202.103)" fill="#ff4a6b"/>
                  <path id="Trazado_889127" data-name="Trazado 889127" d="M253.8,227.553a.444.444,0,0,0-.375.665c.571.927,1.62,1.358,1.5,2.64-.122,1.311-1.311,1.6-2.4,1.713h-.019a.458.458,0,0,0-.3.056c-.8.571-.955,1.573-2.144,1.657-.955.066-1.479-.581-2.144-1.077a.365.365,0,0,0-.309-.225c-3.258-.262-3.614-2.172-2.79-4.157a44.479,44.479,0,0,0,1.873-4.279,32.271,32.271,0,0,0,.543-10.936c-.019-.14-.234-.206-.272-.037-.684,3.305-.543,7.594-1.479,10.815-.627,2.163-2.275,3.287-2.65,5.449a3.535,3.535,0,0,0,4.3,4.251c.421,1.161,2.079,1.751,3.212,1.639a3.347,3.347,0,0,0,2.669-1.957,3.179,3.179,0,0,0,3.221-2.228c.421-1.423-.581-4.232-2.425-3.989Z" transform="translate(-224.843 -200.595)" fill="#ff7142"/>
                </g>
                <g id="Grupo_1104735" data-name="Grupo 1104735" transform="translate(0 48.465)">
                  <g id="Grupo_1104733" data-name="Grupo 1104733">
                    <path id="Trazado_889128" data-name="Trazado 889128" d="M198.55,213.474a8.452,8.452,0,0,1,2.743-4.064,7.6,7.6,0,0,1,3.118-1.264c.066-.009.122-.028.187-.037a11.3,11.3,0,0,1,2.313-.15,11.69,11.69,0,0,1,4.86,1.255,10.787,10.787,0,0,1,1.985,1.292,9.562,9.562,0,0,1,1.919,2.06L217,226.649a8.346,8.346,0,0,1-3.933,4.223,11.208,11.208,0,0,1-5.7,1.161,8,8,0,0,1-3.333-.8,8.424,8.424,0,0,1-2.275-1.835,16.046,16.046,0,0,1-3.221-15.918Z" transform="translate(-197.661 -207.952)" fill="#ffb273"/>
                    <path id="Trazado_889129" data-name="Trazado 889129" d="M201.01,218.385c.112,2.9,1.339,7.032,4.457,9.1a6.048,6.048,0,0,0,3.249,1.058,3.722,3.722,0,0,0,.983-.122,3.572,3.572,0,0,0,2.3-1.854c.1-.187,0-.375-.225-.749-.3-.524-.815-1.4-.468-2.022a2.146,2.146,0,0,1,1.461-.918c.328-.084.59-.159.627-.412a14.951,14.951,0,0,0-1.021-6.882c-1.077-2.313-4.139-3.773-6.91-3.38C202.639,212.636,200.888,215.061,201.01,218.385Zm5.375-.215a9.811,9.811,0,0,0-2.575,3.165,4.151,4.151,0,0,0-.328,1.152,11.742,11.742,0,0,1-.918-3.361,5.632,5.632,0,0,1,.964-4.279,3.808,3.808,0,0,1,2.856-1.264,5.739,5.739,0,0,1,2.65.524c-.262,1.873-1.423,2.94-2.659,4.064Zm-.215,7.809a6.021,6.021,0,0,1-1.17-2.294c-.225-1.695.59-2.491,1.62-3.5l.318-.318c.253-.253.515-.506.777-.749a16.754,16.754,0,0,0,1.826-1.91,4.033,4.033,0,0,0,.918-2.172,3.429,3.429,0,0,1,.89,1.283,20.011,20.011,0,0,1,.777,5.356,3.039,3.039,0,0,0-2.2,1.985,4.053,4.053,0,0,0,.515,2.678l.028.056a2.157,2.157,0,0,1-1.227.655,3,3,0,0,1-3.081-1.058Z" transform="translate(-197.874 -208.218)" fill="#ff7142"/>
                  </g>
                  <g id="Grupo_1104734" data-name="Grupo 1104734" transform="translate(78.66)">
                    <path id="Trazado_889130" data-name="Trazado 889130" d="M300.135,213.474a8.452,8.452,0,0,0-2.743-4.064,7.6,7.6,0,0,0-3.118-1.264c-.066-.009-.122-.028-.187-.037a11.3,11.3,0,0,0-2.313-.15,11.69,11.69,0,0,0-4.86,1.255,11.184,11.184,0,0,0-1.994,1.292,9.561,9.561,0,0,0-1.919,2.06l-1.33,14.082a8.345,8.345,0,0,0,3.933,4.223,11.208,11.208,0,0,0,5.7,1.161,8,8,0,0,0,3.333-.8A8.243,8.243,0,0,0,296.9,229.4a16.046,16.046,0,0,0,3.221-15.918Z" transform="translate(-281.67 -207.952)" fill="#ffb273"/>
                    <path id="Trazado_889131" data-name="Trazado 889131" d="M293.685,212.206a6.787,6.787,0,0,0-6.91,3.38,14.973,14.973,0,0,0-1.021,6.882c.037.253.3.328.627.412a2.146,2.146,0,0,1,1.461.918c.337.627-.169,1.5-.468,2.022-.215.375-.328.552-.225.749a3.572,3.572,0,0,0,2.3,1.854,4.282,4.282,0,0,0,.983.122,5.97,5.97,0,0,0,3.249-1.058c3.118-2.069,4.345-6.2,4.457-9.1C298.264,215.061,296.522,212.636,293.685,212.206Zm-3.577,1.891a5.762,5.762,0,0,1,2.65-.524,3.841,3.841,0,0,1,2.856,1.264,5.571,5.571,0,0,1,.964,4.279,11.446,11.446,0,0,1-.918,3.361,4.242,4.242,0,0,0-.328-1.152,9.81,9.81,0,0,0-2.575-3.165c-1.227-1.133-2.388-2.191-2.659-4.064Zm-.206,12.94a2.1,2.1,0,0,1-1.227-.655c0-.019.019-.037.028-.056a4.155,4.155,0,0,0,.515-2.678,3.055,3.055,0,0,0-2.2-1.985,19.7,19.7,0,0,1,.777-5.356,3.358,3.358,0,0,1,.89-1.283,4.033,4.033,0,0,0,.918,2.172,18.55,18.55,0,0,0,1.826,1.91c.262.253.524.5.777.749l.318.318c1.039,1.011,1.854,1.807,1.62,3.5a5.945,5.945,0,0,1-1.17,2.294,3.007,3.007,0,0,1-3.081,1.058Z" transform="translate(-281.925 -208.218)" fill="#ff7142"/>
                  </g>
                </g>
                <g id="Grupo_1104737" data-name="Grupo 1104737" transform="translate(2.065)">
                  <path id="Trazado_889132" data-name="Trazado 889132" d="M291.488,184.87c-.946-9.214-7.144-16.086-14.569-20.965a43.993,43.993,0,0,0-26.751-7.706c-3.773.056-16.8,1.255-15.215,7.285-2.107-1.451-4.916-1.1-8.071.084-5.122,1.919-8.1,5.309-10.805,9.869a31.154,31.154,0,0,0-4.532,18.034c.328,3.942,1.5,9.532,5.187,11.714a1.057,1.057,0,0,0,1.573-.9c.365-5.871,1.423-10.1,5.768-14.42,2.575-2.556,5.6-4.616,8-7.369,3.436-3.942,4.766-7.687,4.448-12.444a1.014,1.014,0,0,0,.169,0c1.6,6.021,5.2,12.575,10.449,14.729,2.706,1.1,6.676,1.17,8.717-1.367a35.2,35.2,0,0,0,2.94,3.717c2.172,2.519,5.075,4.869,8.558,4.953a7.525,7.525,0,0,0,4.56-2.172c1.442,2.3,3.9,4.279,5.29,6.311a30.84,30.84,0,0,1,3.155,6.433c.693,1.845.618,3.511,2.1,4.766a1.029,1.029,0,0,0,.983.262c7.247-2.921,8.717-14.2,8.034-20.824Z" transform="translate(-200.605 -156.192)" fill="#bd7800"/>
                  <g id="Grupo_1104736" data-name="Grupo 1104736" transform="translate(0 3.617)">
                    <path id="Trazado_889133" data-name="Trazado 889133" d="M240.475,167.229A11.463,11.463,0,0,1,239,165.1a4.772,4.772,0,0,1-.215-2.406c0-.684-1.133-.9-1.255-.169a5.015,5.015,0,0,0,.066,3.165,6.129,6.129,0,0,0,2.088,2.537c.627.478,1.2-.5.777-1.011Z" transform="translate(-202.251 -160.183)" fill="#9c6300"/>
                    <path id="Trazado_889134" data-name="Trazado 889134" d="M230.99,170.365c-.047-.384-.637-.543-.73-.1-1.582,7.4-7.875,9.935-12.828,14.9a17.559,17.559,0,0,0-5.552,14.157c.028.74,1.2.974,1.348.187.824-4.335.992-7.875,3.951-11.367a55.9,55.9,0,0,1,7.247-6.629c3.633-3.034,7.154-5.983,6.573-11.142Z" transform="translate(-200.631 -160.687)" fill="#9c6300"/>
                    <path id="Trazado_889135" data-name="Trazado 889135" d="M258.94,173.772c-2.416.019-4.326,1.423-6.9.768a7.442,7.442,0,0,1-5.206-4.6.362.362,0,0,0-.693,0c-.787,2.257,1.835,4.56,3.624,5.515,3.287,1.751,6.376,1.152,9.494-.524A.628.628,0,0,0,258.94,173.772Z" transform="translate(-202.804 -160.667)" fill="#9c6300"/>
                    <path id="Trazado_889136" data-name="Trazado 889136" d="M277.669,179.427c-1.236.908-4.017.468-5.309.047-2.135-.693-4.4-2.247-4.775-4.588-.084-.543-1.03-.421-.964.131a7.482,7.482,0,0,0,4.963,6.021c1.91.768,5.8,1.573,6.994-.712.281-.534-.328-1.32-.9-.9Z" transform="translate(-204.117 -160.976)" fill="#9c6300"/>
                    <path id="Trazado_889137" data-name="Trazado 889137" d="M281.592,169.376c-2.968-4.972-6.582-7.509-12.219-8.839-5.487-1.292-9.382.178-14.373,2.406-.337.15-.047.637.29.5,9.794-4.176,18.614-1.264,25.206,6.788.515.627,1.508-.178,1.1-.852Z" transform="translate(-203.368 -160.054)" fill="#9c6300"/>
                    <path id="Trazado_889138" data-name="Trazado 889138" d="M293.932,196.38a25.078,25.078,0,0,1-4.082-2.594c-1.929-1.47-2.547-3.361-3.446-5.552-.159-.393-.8-.253-.665.187.674,2.163.955,4.316,2.631,5.964a14.6,14.6,0,0,0,4.972,3.408c.805.318,1.367-1.021.59-1.4Z" transform="translate(-205.333 -161.834)" fill="#9c6300"/>
                    <path id="Trazado_889139" data-name="Trazado 889139" d="M301.949,184.013c-3.511-4.391-7.154-5.655-12.481-6.573-.328-.056-.478.421-.14.506,4.934,1.3,8.783,3.2,11.62,7.669,2.21,3.474,3.408,8.146,3.961,12.191.112.833,1.32.552,1.376-.187a20.857,20.857,0,0,0-4.345-13.6Z" transform="translate(-205.551 -161.161)" fill="#9c6300"/>
                    <path id="Trazado_889140" data-name="Trazado 889140" d="M225.263,166.347c-5.674-1.863-11.461-.234-16.32,3.127-5.169,3.577-7.191,7.313-9.045,13.184-.234.749.936,1.264,1.283.543,2-4.2,3.418-7.884,7.154-10.946,4.438-3.633,10.946-6.826,16.76-5.29a.32.32,0,0,0,.169-.618Z" transform="translate(-199.867 -160.405)" fill="#9c6300"/>
                  </g>
                </g>
              </g>
            </g>
            <g id="Grupo_1104750" data-name="Grupo 1104750" transform="translate(0 125.238)">
              <g id="Grupo_1104744" data-name="Grupo 1104744">
                <path id="Trazado_889141" data-name="Trazado 889141" d="M199.654,404.8c-3.53-1.873-8.876-4.981-11.676-6.33-12.088-5.824-32.7-14.935-36.077-3.034-3.146,11.086,4.747,17.528,11.208,20.094,6.283,2.491,18.811,4.466,31.423,5.974C196.293,414.461,197.941,411.848,199.654,404.8Z" transform="translate(-150.982 -287.339)" fill="#ffb273"/>
                <g id="Grupo_1104740" data-name="Grupo 1104740">
                  <path id="Trazado_889142" data-name="Trazado 889142" d="M164.631,404.621l-5.318-1.536a11.6,11.6,0,0,1-7.893-14.317l28.53-98.6a11.6,11.6,0,0,1,14.317-7.893l5.318,1.536a11.6,11.6,0,0,1,7.893,14.317l-28.53,98.6a11.6,11.6,0,0,1-14.317,7.893Z" transform="translate(-150.968 -280.476)" fill="#ffb273"/>
                  <path id="Trazado_889143" data-name="Trazado 889143" d="M196.374,280.5c-12.051-1.414-20.6,10.262-23.23,15.29-3.212,6.152-7.743,25.347-7.088,27.275.571,1.713,2.884,2.051,4.345,2.612,7.875,3.034,15.59,5.1,23.708,7.35,3.155.871,6.161,3.1,8.315.056,2.865-4.054,7.06-23.174,7.556-34.719.281-6.526-1.564-16.451-13.614-17.865Z" transform="translate(-151.925 -280.384)" fill="#4c122f"/>
                </g>
                <g id="Grupo_1104743" data-name="Grupo 1104743" transform="translate(39.09 117.365)">
                  <path id="Trazado_889144" data-name="Trazado 889144" d="M225.559,424.138c-.581-3.661-3.343-6.442-6.554-8.614a170.66,170.66,0,0,0-16.863-9.794c-.1-.056-10.309,11.91-9.326,14.794a.21.21,0,0,0,.262.131,10.972,10.972,0,0,1,.056,1.358c-.019.618-.094,1.236-.15,1.854a.135.135,0,0,0-.169.122,7.333,7.333,0,0,0,.14,1.423A12.092,12.092,0,0,0,194,429.279a6.292,6.292,0,0,0,1.948,3.034,2.33,2.33,0,0,0,3.155-.665.056.056,0,0,1,.009-.037,14.768,14.768,0,0,0,1.311,2.64,8.144,8.144,0,0,0,2.987,3.352,2.192,2.192,0,0,0,2.968-.5,2.625,2.625,0,0,0,.5-2.1c.206.187.861.655,1.086.805a1.207,1.207,0,0,0,1.489.094,1.722,1.722,0,0,0,1.33-.936,4.691,4.691,0,0,0-.253-3.848c0-.066.29-.365.29-.431.318-.253.393-.2.768-.309a6.127,6.127,0,0,0,.562,1.227c.693,1.1,2.846,3.408,4.3,2.1.637-.571.393-1.685.384-2.435a19.033,19.033,0,0,0-.552-4.036,4.539,4.539,0,0,1,.412-.281,2.128,2.128,0,0,1,2.575.412,4.771,4.771,0,0,0-.1,1.039,2.91,2.91,0,0,0,.684,2.144,1.865,1.865,0,0,0,.515.5,2.45,2.45,0,0,0,1.479.7c2.191.309,3.9-2.35,4.082-4.242a8.221,8.221,0,0,0-.346-3.39Z" transform="translate(-192.719 -405.73)" fill="#ffb273"/>
                  <g id="Grupo_1104742" data-name="Grupo 1104742" transform="translate(0 10.954)">
                    <path id="Trazado_889145" data-name="Trazado 889145" d="M225.93,428.187a1.187,1.187,0,0,0,.618.59c.225.075.506-.178.412-.412a2.4,2.4,0,0,0-1.067-1.33.843.843,0,0,0-1.124.581,2.353,2.353,0,0,0-.037,1.62,2.779,2.779,0,0,0,.655.749,6.232,6.232,0,0,0,.936.861.276.276,0,0,0,.375-.375,4.653,4.653,0,0,0-.777-1.03c-.375-.375-.543-.571-.5-1.1a.917.917,0,0,1,.066-.393c.178-.262.3.037.431.243Z" transform="translate(-194.747 -418.037)" fill="#ff7142"/>
                    <path id="Trazado_889146" data-name="Trazado 889146" d="M222.128,425.142c-.768,1.011-1.536,2.846-1.067,4.12.037.094.2.15.253.037a17.856,17.856,0,0,0,.571-1.985c.206-.665.562-1.283.74-1.957a.272.272,0,0,0-.5-.206Z" transform="translate(-194.512 -417.913)" fill="#ff7142"/>
                    <path id="Trazado_889147" data-name="Trazado 889147" d="M195.964,417.5a11.926,11.926,0,0,0-1.985,2.968,5.956,5.956,0,0,0-1.049,2.706.2.2,0,0,0,.384.056c.571-2,2.322-3.549,3.062-5.487.094-.234-.253-.412-.412-.243Z" transform="translate(-192.73 -417.429)" fill="#ff7142"/>
                    <g id="Grupo_1104741" data-name="Grupo 1104741" transform="translate(0 0.758)">
                      <path id="Trazado_889148" data-name="Trazado 889148" d="M198.8,429.138a21.236,21.236,0,0,0-1.564-4.054.213.213,0,0,0-.393.1,14.216,14.216,0,0,0,1.2,3.979,10.551,10.551,0,0,1,.7,2.3c.122,1.273-1.1,2.434-2.266,1.751-.281-.169-.543-.431-.824-.618-.14-.094-.281.084-.215.215.758,1.536,3.24,2.163,3.961.243.478-1.273-.215-2.743-.6-3.933Z" transform="translate(-192.889 -418.668)" fill="#ff7142"/>
                      <path id="Trazado_889149" data-name="Trazado 889149" d="M211.324,429.785c-.618-2.987-1.264-5.936-1.957-8.9-.047-.187-.365-.206-.393,0-.318,2.228.758,4.719,1.2,6.929.309,1.536.712,3.062.88,4.616a5.8,5.8,0,0,1,.009,2.659,2.483,2.483,0,0,1-3.53.5.046.046,0,0,1-.028-.009,25.382,25.382,0,0,0-1.723-4.691c-1.152-2.828-1.807-5.684-2.809-8.53a.278.278,0,0,0-.543.075c-.169,2.865,1.517,6.189,2.575,8.792.431,1.067.89,2.125,1.236,3.23a5.831,5.831,0,0,1-.159,2.987s-.918,1.507-1.948.627a4.564,4.564,0,0,0-1.32-.73c-.037-.019-.094.019-.066.066,1.751,2.678,4.906,2.294,4.86-.89a2.45,2.45,0,0,0,4.139-.8c.59-1.835-.047-4.129-.421-5.927Z" transform="translate(-193.334 -418.398)" fill="#ff7142"/>
                      <path id="Trazado_889150" data-name="Trazado 889150" d="M214.874,419.607a2.541,2.541,0,0,0-3.315-1.18,2.255,2.255,0,0,0-1.4,2.612c.009.028.056.047.075.009a3.421,3.421,0,0,1,1.489-2.013,2.521,2.521,0,0,1,1.9.084c.365.2.646.524,1,.749.169.1.318-.094.253-.253Z" transform="translate(-193.822 -418.238)" fill="#ff7142"/>
                      <path id="Trazado_889151" data-name="Trazado 889151" d="M207.956,420.731c-.178-.178-.243-.478-.44-.646a2.881,2.881,0,0,0-.73-.337,2.583,2.583,0,0,0-1.554-.122c-.89.159-2.247,1.124-2.022,2.154a.182.182,0,0,0,.328.047,2.642,2.642,0,0,1,2.622-1.5,3.4,3.4,0,0,1,1.114.571.849.849,0,0,0,.552.178.2.2,0,0,0,.14-.337Z" transform="translate(-193.383 -418.323)" fill="#ff7142"/>
                      <path id="Trazado_889152" data-name="Trazado 889152" d="M201.075,422.627a1.787,1.787,0,0,0-1.1-.73,2.931,2.931,0,0,0-1.685.272c-.534.215-1.311,1.18-1.077,1.826a.171.171,0,0,0,.253.1c.009,0,.019,0,.028-.019.384-.487.468-1.03,1.114-1.283a1.758,1.758,0,0,1,1.695.009c.243.169.318.328.655.243a.258.258,0,0,0,.112-.421Z" transform="translate(-193 -418.469)" fill="#ff7142"/>
                      <path id="Trazado_889153" data-name="Trazado 889153" d="M196.053,424.123a2.088,2.088,0,0,0-2.322-.534c-.7.328-1.461,1.507-.693,2.154.028.019.047.019.066,0,.215-.29.112-.646.29-.964a1.218,1.218,0,0,1,1.086-.674c.487.009.992.655,1.461.468a.276.276,0,0,0,.122-.449Z" transform="translate(-192.716 -418.569)" fill="#ff7142"/>
                    </g>
                    <path id="Trazado_889154" data-name="Trazado 889154" d="M197.805,431.1a.367.367,0,0,0-.431-.243,1.785,1.785,0,0,0-1.1.955.139.139,0,0,0,.066.159c.29.2.618-.122.927-.309a1.153,1.153,0,0,1,.047.655c-.084.225-.318.356-.478.515-.14.14,0,.328.178.3.225-.037.384.009.571-.131a1.3,1.3,0,0,0,.393-.506,2.132,2.132,0,0,0-.178-1.4Z" transform="translate(-192.943 -418.284)" fill="#ff7142"/>
                    <path id="Trazado_889155" data-name="Trazado 889155" d="M205.794,436.554a.44.44,0,0,0-.749-.262,7.708,7.708,0,0,0-.609.627c-.112.1-.206.281-.318.375-.066.056.019.15.084.112a1.757,1.757,0,0,0,.375-.009,2.8,2.8,0,0,0,.6-.4c.037.206.066.421.084.6.047.412-.234.552-.5.815a.174.174,0,0,0,.169.29c.281-.066.393-.019.637-.206a1.006,1.006,0,0,0,.356-.459,3.319,3.319,0,0,0-.14-1.479Z" transform="translate(-193.441 -418.622)" fill="#ff7142"/>
                    <path id="Trazado_889156" data-name="Trazado 889156" d="M210.188,434.1a.3.3,0,0,0-.365-.047,6.736,6.736,0,0,0-.955.749.088.088,0,0,0,.084.15,7.335,7.335,0,0,0,.843-.272,5.326,5.326,0,0,1,0,.552c-.019.262-.243.29-.449.421a.223.223,0,0,0,.112.412c.459,0,.936-.056,1-.609a1.875,1.875,0,0,0-.272-1.367Z" transform="translate(-193.743 -418.485)" fill="#ff7142"/>
                    <path id="Trazado_889157" data-name="Trazado 889157" d="M215.149,433c.431.206,1.152-.3,1.517-.5l-.478-.2c.075.29.29.833.159,1.124a1.281,1.281,0,0,1-.365.346c-.2.1-.29.056-.478-.028a.241.241,0,0,0-.356.206.528.528,0,0,0,.468.543,1.1,1.1,0,0,0,.88-.29,1.26,1.26,0,0,0,.534-.777,3.543,3.543,0,0,0-.206-1.283.33.33,0,0,0-.478-.2c-.375.206-1.161.524-1.217,1a.107.107,0,0,0,.028.056h0Z" transform="translate(-194.143 -418.351)" fill="#ff7142"/>
                    <path id="Trazado_889158" data-name="Trazado 889158" d="M211.27,428.374c.487,1.976,2.949,9.017,6.367,6.929,1.124-.684.946-2.285.787-3.38a28.66,28.66,0,0,0-2.079-7.35c-.112-.253-.449-.056-.412.178a27.7,27.7,0,0,0,.974,3.858,19.641,19.641,0,0,1,1.086,4.513,1.575,1.575,0,0,1-1.957,1.62,2.7,2.7,0,0,1-1.255-.73,5.417,5.417,0,0,1-1.236-1.695,32.032,32.032,0,0,0-2.144-3.989c-.047-.056-.14-.028-.122.047h0Z" transform="translate(-193.898 -417.876)" fill="#ff7142"/>
                  </g>
                </g>
              </g>
              <g id="Grupo_1104749" data-name="Grupo 1104749" transform="translate(113.124 0.001)">
                <path id="Trazado_889159" data-name="Trazado 889159" d="M297.05,404.8c3.53-1.873,8.876-4.981,11.676-6.33,12.088-5.824,32.7-14.935,36.077-3.034,3.146,11.086-4.747,17.528-11.208,20.094-6.283,2.491-18.811,4.466-31.423,5.974C300.411,414.461,298.763,411.848,297.05,404.8Z" transform="translate(-273.392 -287.34)" fill="#ffb273"/>
                <g id="Grupo_1104745" data-name="Grupo 1104745" transform="translate(14.231)">
                  <path id="Trazado_889160" data-name="Trazado 889160" d="M331.5,404.621l5.318-1.536a11.6,11.6,0,0,0,7.893-14.317l-28.53-98.6a11.6,11.6,0,0,0-14.317-7.893l-5.318,1.536a11.6,11.6,0,0,0-7.893,14.317l28.53,98.6a11.6,11.6,0,0,0,14.317,7.893Z" transform="translate(-287.06 -280.477)" fill="#ffb273"/>
                  <path id="Trazado_889161" data-name="Trazado 889161" d="M287.018,298.367c.5,11.545,4.7,30.665,7.556,34.719,2.154,3.043,5.159.815,8.315-.056,8.118-2.247,15.833-4.326,23.708-7.35,1.461-.562,3.773-.9,4.345-2.612.646-1.938-3.876-21.124-7.088-27.275-2.631-5.028-11.18-16.695-23.23-15.29s-13.9,11.339-13.614,17.865Z" transform="translate(-286.982 -280.386)" fill="#4c122f"/>
                </g>
                <g id="Grupo_1104748" data-name="Grupo 1104748" transform="translate(0 117.364)">
                  <path id="Trazado_889162" data-name="Trazado 889162" d="M272.183,424.138c.581-3.661,3.343-6.442,6.554-8.614A170.664,170.664,0,0,1,295.6,405.73c.1-.056,10.309,11.91,9.326,14.794a.21.21,0,0,1-.262.131,10.975,10.975,0,0,0-.056,1.358c.019.618.094,1.236.15,1.854a.135.135,0,0,1,.169.122,7.332,7.332,0,0,1-.14,1.423,12.091,12.091,0,0,1-1.039,3.867,6.292,6.292,0,0,1-1.948,3.034,2.33,2.33,0,0,1-3.155-.665.056.056,0,0,0-.009-.037,14.764,14.764,0,0,1-1.311,2.64,8.143,8.143,0,0,1-2.987,3.352,2.192,2.192,0,0,1-2.968-.5,2.625,2.625,0,0,1-.5-2.1c-.206.187-.861.655-1.086.805a1.207,1.207,0,0,1-1.489.094,1.722,1.722,0,0,1-1.33-.936,4.691,4.691,0,0,1,.253-3.848c0-.066-.29-.365-.29-.431-.318-.253-.393-.2-.768-.309a6.129,6.129,0,0,1-.562,1.227c-.693,1.1-2.846,3.408-4.3,2.1-.637-.571-.393-1.685-.384-2.435a19.032,19.032,0,0,1,.552-4.036,4.537,4.537,0,0,0-.412-.281,2.128,2.128,0,0,0-2.575.412,4.775,4.775,0,0,1,.1,1.039,2.91,2.91,0,0,1-.684,2.144,1.866,1.866,0,0,1-.515.5,2.45,2.45,0,0,1-1.479.7c-2.191.309-3.9-2.35-4.082-4.242a8.221,8.221,0,0,1,.346-3.39Z" transform="translate(-271.784 -405.73)" fill="#ffb273"/>
                  <g id="Grupo_1104747" data-name="Grupo 1104747" transform="translate(1.008 10.954)">
                    <path id="Trazado_889163" data-name="Trazado 889163" d="M273.909,428.187a1.187,1.187,0,0,1-.618.59c-.225.075-.506-.178-.412-.412a2.4,2.4,0,0,1,1.067-1.33.843.843,0,0,1,1.124.581,2.353,2.353,0,0,1,.037,1.62,2.779,2.779,0,0,1-.655.749,6.233,6.233,0,0,1-.936.861.276.276,0,0,1-.375-.375,4.653,4.653,0,0,1,.777-1.03c.375-.375.543-.571.5-1.1a.916.916,0,0,0-.066-.393c-.178-.262-.3.037-.431.243Z" transform="translate(-272.86 -418.037)" fill="#ff7142"/>
                    <path id="Trazado_889164" data-name="Trazado 889164" d="M277.755,425.142c.768,1.011,1.536,2.846,1.067,4.12-.037.094-.2.15-.253.037a17.853,17.853,0,0,1-.571-1.985c-.206-.665-.562-1.283-.74-1.957a.272.272,0,0,1,.5-.206Z" transform="translate(-273.14 -417.913)" fill="#ff7142"/>
                    <path id="Trazado_889165" data-name="Trazado 889165" d="M303.8,417.5a11.925,11.925,0,0,1,1.985,2.968,5.955,5.955,0,0,1,1.049,2.706.2.2,0,0,1-.384.056c-.571-2-2.322-3.549-3.062-5.487-.094-.234.253-.412.412-.243Z" transform="translate(-274.803 -417.429)" fill="#ff7142"/>
                    <g id="Grupo_1104746" data-name="Grupo 1104746" transform="translate(11.155 0.758)">
                      <path id="Trazado_889166" data-name="Trazado 889166" d="M300.918,429.138a21.238,21.238,0,0,1,1.564-4.054.213.213,0,0,1,.393.1,14.218,14.218,0,0,1-1.2,3.979,10.548,10.548,0,0,0-.7,2.3c-.122,1.273,1.1,2.434,2.266,1.751.281-.169.543-.431.824-.618.14-.094.281.084.215.215-.758,1.536-3.24,2.163-3.961.243-.478-1.273.215-2.743.6-3.933Z" transform="translate(-285.753 -418.668)" fill="#ff7142"/>
                      <path id="Trazado_889167" data-name="Trazado 889167" d="M288.025,429.785c.618-2.987,1.264-5.936,1.957-8.9.047-.187.365-.206.393,0,.318,2.228-.758,4.719-1.2,6.929-.309,1.536-.712,3.062-.88,4.616a5.8,5.8,0,0,0-.009,2.659,2.483,2.483,0,0,0,3.53.5.046.046,0,0,0,.028-.009,25.383,25.383,0,0,1,1.723-4.691c1.152-2.828,1.807-5.684,2.809-8.53a.278.278,0,0,1,.543.075c.169,2.865-1.517,6.189-2.575,8.792-.431,1.067-.89,2.125-1.236,3.23a5.831,5.831,0,0,0,.159,2.987s.918,1.507,1.948.627a4.565,4.565,0,0,1,1.32-.73c.037-.019.094.019.066.066-1.751,2.678-4.906,2.294-4.86-.89a2.451,2.451,0,0,1-4.139-.8c-.59-1.835.047-4.129.421-5.927Z" transform="translate(-284.938 -418.398)" fill="#ff7142"/>
                      <path id="Trazado_889168" data-name="Trazado 889168" d="M284.8,419.607a2.541,2.541,0,0,1,3.315-1.18,2.255,2.255,0,0,1,1.4,2.612c-.009.028-.056.047-.075.009a3.421,3.421,0,0,0-1.489-2.013,2.521,2.521,0,0,0-1.9.084c-.365.2-.646.524-1,.749-.169.1-.318-.094-.253-.253Z" transform="translate(-284.773 -418.238)" fill="#ff7142"/>
                      <path id="Trazado_889169" data-name="Trazado 889169" d="M291.716,420.731c.178-.178.243-.478.44-.646a2.882,2.882,0,0,1,.73-.337,2.583,2.583,0,0,1,1.554-.122c.89.159,2.247,1.124,2.022,2.154a.182.182,0,0,1-.328.047,2.642,2.642,0,0,0-2.622-1.5,3.4,3.4,0,0,0-1.114.571.849.849,0,0,1-.552.178.2.2,0,0,1-.14-.337Z" transform="translate(-285.211 -418.323)" fill="#ff7142"/>
                      <path id="Trazado_889170" data-name="Trazado 889170" d="M298.656,422.627a1.787,1.787,0,0,1,1.1-.73,2.931,2.931,0,0,1,1.685.272c.534.215,1.311,1.18,1.077,1.826a.171.171,0,0,1-.253.1c-.009,0-.019,0-.028-.019-.384-.487-.468-1.03-1.114-1.283a1.758,1.758,0,0,0-1.695.009c-.243.169-.318.328-.655.243a.258.258,0,0,1-.112-.421Z" transform="translate(-285.653 -418.469)" fill="#ff7142"/>
                      <path id="Trazado_889171" data-name="Trazado 889171" d="M303.715,424.123a2.088,2.088,0,0,1,2.322-.534c.7.328,1.461,1.507.693,2.154-.028.019-.047.019-.066,0-.215-.29-.112-.646-.29-.964a1.218,1.218,0,0,0-1.086-.674c-.487.009-.992.655-1.461.468a.276.276,0,0,1-.122-.449Z" transform="translate(-285.974 -418.569)" fill="#ff7142"/>
                    </g>
                    <path id="Trazado_889172" data-name="Trazado 889172" d="M302.074,431.1a.367.367,0,0,1,.431-.243,1.785,1.785,0,0,1,1.1.955.138.138,0,0,1-.066.159c-.29.2-.618-.122-.927-.309a1.154,1.154,0,0,0-.047.655c.084.225.318.356.478.515.14.14,0,.328-.178.3-.225-.037-.384.009-.571-.131a1.3,1.3,0,0,1-.393-.506,2.132,2.132,0,0,1,.178-1.4Z" transform="translate(-274.705 -418.284)" fill="#ff7142"/>
                    <path id="Trazado_889173" data-name="Trazado 889173" d="M294.078,436.554a.44.44,0,0,1,.749-.262,7.719,7.719,0,0,1,.609.627c.112.1.206.281.318.375.066.056-.019.15-.084.112a1.757,1.757,0,0,1-.374-.009,2.8,2.8,0,0,1-.6-.4c-.037.206-.066.421-.084.6-.047.412.234.552.5.815a.174.174,0,0,1-.169.29c-.281-.066-.393-.019-.637-.206a1.006,1.006,0,0,1-.356-.459,3.319,3.319,0,0,1,.14-1.479Z" transform="translate(-274.2 -418.622)" fill="#ff7142"/>
                    <path id="Trazado_889174" data-name="Trazado 889174" d="M289.7,434.1a.3.3,0,0,1,.365-.047,6.734,6.734,0,0,1,.955.749.088.088,0,0,1-.084.15,7.339,7.339,0,0,1-.843-.272,5.344,5.344,0,0,0,0,.552c.019.262.243.29.449.421a.223.223,0,0,1-.112.412c-.459,0-.936-.056-1-.609a1.875,1.875,0,0,1,.272-1.367Z" transform="translate(-273.914 -418.485)" fill="#ff7142"/>
                    <path id="Trazado_889175" data-name="Trazado 889175" d="M284.721,433c-.431.206-1.152-.3-1.517-.5l.478-.2c-.075.29-.29.833-.159,1.124a1.281,1.281,0,0,0,.365.346c.2.1.29.056.478-.028a.241.241,0,0,1,.356.206.528.528,0,0,1-.468.543,1.1,1.1,0,0,1-.88-.29,1.26,1.26,0,0,1-.534-.777,3.544,3.544,0,0,1,.206-1.283.33.33,0,0,1,.478-.2c.375.206,1.161.524,1.217,1a.107.107,0,0,1-.028.056h0Z" transform="translate(-273.495 -418.351)" fill="#ff7142"/>
                    <path id="Trazado_889176" data-name="Trazado 889176" d="M288.236,428.374c-.487,1.976-2.949,9.017-6.367,6.929-1.124-.684-.946-2.285-.787-3.38a28.659,28.659,0,0,1,2.079-7.35c.112-.253.449-.056.412.178a27.694,27.694,0,0,1-.974,3.858,19.642,19.642,0,0,0-1.086,4.513,1.575,1.575,0,0,0,1.957,1.62,2.7,2.7,0,0,0,1.255-.73,5.418,5.418,0,0,0,1.236-1.695,32.026,32.026,0,0,1,2.144-3.989c.047-.056.14-.028.122.047h0Z" transform="translate(-273.376 -417.876)" fill="#ff7142"/>
                  </g>
                </g>
              </g>
            </g>
          </g>
          <g id="Grupo_1104752" data-name="Grupo 1104752" transform="translate(0 116.742)">
            <rect id="Rectángulo_405151" data-name="Rectángulo 405151" width="38.324" height="27.163" transform="translate(87.004 133.334)" fill="#539fb0"/>
            <path id="Trazado_889177" data-name="Trazado 889177" d="M278.345,449.071H217.006a3.6,3.6,0,0,1-3.6-3.6h0a3.6,3.6,0,0,1,3.6-3.6h61.339a3.6,3.6,0,0,1,3.6,3.6h0A3.6,3.6,0,0,1,278.345,449.071Z" transform="translate(-141.509 -282.17)" fill="#71d2e6"/>
            <path id="Trazado_889178" data-name="Trazado 889178" d="M338.466,271.31H147.1a10.508,10.508,0,0,0-10.478,10.478V399.372A10.508,10.508,0,0,0,147.1,409.85H338.466a10.508,10.508,0,0,0,10.478-10.478V281.788A10.508,10.508,0,0,0,338.466,271.31Z" transform="translate(-136.62 -271.31)" fill="#71d2e6"/>
            <path id="Trazado_889179" data-name="Trazado 889179" d="M284.172,361.221h-74.1a5.291,5.291,0,0,1-5.29-5.29h0a5.291,5.291,0,0,1,5.29-5.29h74.1a5.291,5.291,0,0,1,5.29,5.29h0A5.291,5.291,0,0,1,284.172,361.221Z" transform="translate(-140.959 -276.361)" fill="#539fb0"/>
          </g>
        </g>
        <g id="Grupo_1104756" data-name="Grupo 1104756" transform="translate(320.676 201.677)">
          <g id="Grupo_1104754" data-name="Grupo 1104754" transform="translate(8.769)">
            <path id="Trazado_889180" data-name="Trazado 889180" d="M418.69,404.8c-1.714-.964-4.251.328-5.637,1.545-.019-3.68-.122-7.35-.393-11.021-.234-3.193-.112-6.657-1.685-9.5-.019-.037-.075-.019-.084.019-.964,3.062-.281,6.451-.159,9.625v.075a9.889,9.889,0,0,0-3.1-2.809c-1.3-.833-3.848-2.36-4.888-.3-.861,1.7.89,3.53,2.125,4.448a8.678,8.678,0,0,0,5.955,1.76c.075,2.669.131,5.337.122,8.006,0,.543-.019,1.077-.028,1.62-1.657-1.386-4.7-2.856-6.592-1.667a2.022,2.022,0,0,0,.169,3.474c1.536,1.011,4.56.843,6.367.159-.234,6.245-.889,12.453-1.1,18.708-.037,1.1,1.723,1.17,1.919.122a106.427,106.427,0,0,0,1.376-19.045,9.39,9.39,0,0,0,5.637-1.938c.983-.89,1.33-2.519,0-3.277Z" transform="translate(-396.064 -363.534)" fill="#71d2e6"/>
            <path id="Trazado_889181" data-name="Trazado 889181" d="M423.841,372.235c-1.845-4.064-5.693-3.184-9.036-.993a7.8,7.8,0,0,0-.169-2.331c-.646-2.781-2.509-6.339-5.627-6.826-2.884-.459-4.607,1.554-4.7,4.27a14.587,14.587,0,0,0,1.217,6.245,8.084,8.084,0,0,0,.524.983c-3.979-2.809-9.775-5.066-10.384.178-.515,4.448,3.764,6.245,7.94,6.451a13.186,13.186,0,0,0-4.644,5.178c-1,2.154-1.667,5.524,1.067,6.639,4.56,1.863,8.567-2.575,10.272-7.163a9.817,9.817,0,0,0,2.322,2.912c.037.047.075.1.112.15,1.826,2.266,5.581,3.951,7.884,1.273a6.525,6.525,0,0,0-.215-8.464,11,11,0,0,0-2.631-1.976c4.232-.4,8.081-2.051,6.049-6.526Z" transform="translate(-395.625 -362.02)" fill="#ffb603"/>
            <path id="Trazado_889182" data-name="Trazado 889182" d="M414.571,375.607a4.414,4.414,0,0,0-3.464-1.507,2.84,2.84,0,0,0-2.247,1.2,4.307,4.307,0,0,0-1.657,5.131,4.374,4.374,0,0,0,6.5,2.125,4.529,4.529,0,0,0,.861-6.957Z" transform="translate(-396.345 -362.789)" fill="#ff771c"/>
          </g>
          <g id="Grupo_1104755" data-name="Grupo 1104755" transform="translate(0 50.112)">
            <path id="Trazado_889183" data-name="Trazado 889183" d="M4.373,0h28.09a4.372,4.372,0,0,1,4.373,4.373v16.2a4.372,4.372,0,0,1-4.373,4.373H4.373A4.372,4.372,0,0,1,0,20.571V4.373A4.372,4.372,0,0,1,4.373,0Z" transform="translate(41.189 31.854) rotate(180)" fill="#e3dfeb"/>
            <path id="Trazado_889184" data-name="Trazado 889184" d="M390.2,425.746h37.659c2.172,0,3.942-2.285,3.942-5.1h0c0-2.818-1.76-5.1-3.942-5.1H390.2c-2.172,0-3.942,2.285-3.942,5.1h0C386.26,423.461,388.02,425.746,390.2,425.746Z" transform="translate(-386.26 -415.54)" fill="#beb4d0"/>
            <rect id="Rectángulo_405152" data-name="Rectángulo 405152" width="36.807" height="8.099" transform="translate(41.18 25.262) rotate(180)" fill="#beb4d0"/>
          </g>
        </g>
      </g>
    </g>
  </g>
</svg>
