<svg xmlns="http://www.w3.org/2000/svg" width="78" height="78" viewBox="0 0 78 78">
  <g id="Grupo_1105070" data-name="Grupo 1105070" transform="translate(-205 -6106.379)">
    <g id="Grupo_1104707" data-name="Grupo 1104707" transform="translate(-4.897 -13939.523)">
      <g id="Grupo_1095345" data-name="Grupo 1095345" transform="translate(209.994 20046)">
        <path id="Trazado_875520" data-name="Trazado 875520" d="M39,0A39,39,0,1,1,0,39,39,39,0,0,1,39,0Z" transform="translate(-0.097 -0.097)" fill="#a854f3"/>
      </g>
    </g>
    <g id="Layer_x0020_1" transform="translate(223 6102.609)">
      <g id="_560757672" transform="translate(0 25)">
        <g id="Grupo_1105069" data-name="Grupo 1105069" transform="translate(0 0)">
          <g id="Grupo_1105042" data-name="Grupo 1105042">
            <path id="Trazado_890625" data-name="Trazado 890625" d="M38.924,56.076H3.051A3.05,3.05,0,0,1,0,53.025V28.051A3.066,3.066,0,0,1,3.051,25H38.924A3.072,3.072,0,0,1,42,28.051V53.025A3.056,3.056,0,0,1,38.924,56.076ZM3.051,25.984A2.079,2.079,0,0,0,.984,28.051V53.025a2.063,2.063,0,0,0,2.067,2.067H38.924a2.069,2.069,0,0,0,2.091-2.067V28.051a2.085,2.085,0,0,0-2.091-2.067Z" transform="translate(0 -25)" fill="#1a1a1a" fill-rule="evenodd"/>
          </g>
          <g id="Grupo_1105043" data-name="Grupo 1105043" transform="translate(0 24.801)">
            <path id="Trazado_890626" data-name="Trazado 890626" d="M41.508,1033.984H.492a.492.492,0,0,1,0-.984H41.508a.492.492,0,0,1,0,.984Z" transform="translate(0 -1033)" fill="#1a1a1a" fill-rule="evenodd"/>
          </g>
          <g id="Grupo_1105044" data-name="Grupo 1105044" transform="translate(24.565 30.097)">
            <path id="Trazado_890627" data-name="Trazado 890627" d="M999.479,1255.582a.514.514,0,0,1-.443-.3,10.963,10.963,0,0,1-.172-6.693.492.492,0,0,1,.615-.344.5.5,0,0,1,.32.615c0,.025-.984,3.4.148,6.028a.5.5,0,0,1-.271.64A.463.463,0,0,1,999.479,1255.582Z" transform="translate(-998.406 -1248.23)" fill="#1a1a1a" fill-rule="evenodd"/>
          </g>
          <g id="Grupo_1105045" data-name="Grupo 1105045" transform="translate(15.857 30.097)">
            <path id="Trazado_890628" data-name="Trazado 890628" d="M644.964,1255.582a.455.455,0,0,1-.172-.049.479.479,0,0,1-.271-.64,10.065,10.065,0,0,0,.123-6.028.492.492,0,0,1,.344-.615.5.5,0,0,1,.615.344,11.174,11.174,0,0,1-.172,6.693A.522.522,0,0,1,644.964,1255.582Z" transform="translate(-644.484 -1248.23)" fill="#1a1a1a" fill-rule="evenodd"/>
          </g>
          <g id="Grupo_1105046" data-name="Grupo 1105046" transform="translate(12.105 36.464)">
            <path id="Trazado_890629" data-name="Trazado 890629" d="M509.3,1511.306h-16.8a.494.494,0,0,1-.492-.492v-3.322a.493.493,0,0,1,.492-.492h16.8a.493.493,0,0,1,.492.492v3.322A.494.494,0,0,1,509.3,1511.306Zm-16.313-.984H508.8v-2.337H492.984Z" transform="translate(-492 -1507)" fill="#1a1a1a" fill-rule="evenodd"/>
          </g>
          <g id="Grupo_1105047" data-name="Grupo 1105047" transform="translate(18.601 27.459)">
            <path id="Trazado_890630" data-name="Trazado 890630" d="M760.306,1141.984h-3.814a.492.492,0,1,1,0-.984h3.814a.492.492,0,1,1,0,.984Z" transform="translate(-756 -1141)" fill="#1a1a1a" fill-rule="evenodd"/>
          </g>
          <g id="Grupo_1105068" data-name="Grupo 1105068" transform="translate(3.494 3.715)">
            <g id="Grupo_1105055" data-name="Grupo 1105055" transform="translate(7.406)">
              <g id="Grupo_1105048" data-name="Grupo 1105048">
                <path id="Trazado_890631" data-name="Trazado 890631" d="M447.6,185.2a4.6,4.6,0,1,1,4.626-4.6A4.61,4.61,0,0,1,447.6,185.2Zm0-8.218a3.617,3.617,0,1,0,3.642,3.617A3.623,3.623,0,0,0,447.6,176.984Z" transform="translate(-443 -176)" fill="#1a1a1a" fill-rule="evenodd"/>
              </g>
              <g id="Grupo_1105049" data-name="Grupo 1105049" transform="translate(8.046 2.928)">
                <path id="Trazado_890632" data-name="Trazado 890632" d="M777.627,295.984h-7.135a.492.492,0,0,1,0-.984h7.135a.492.492,0,0,1,0,.984Z" transform="translate(-770 -295)" fill="#1a1a1a" fill-rule="evenodd"/>
              </g>
              <g id="Grupo_1105050" data-name="Grupo 1105050" transform="translate(15.181 0.91)">
                <path id="Trazado_890633" data-name="Trazado 890633" d="M1064.527,218.019h-4.035a.494.494,0,0,1-.492-.492v-4.035a.494.494,0,0,1,.492-.492h4.035a.494.494,0,0,1,.492.492v4.035A.494.494,0,0,1,1064.527,218.019Zm-3.543-.984h3.051v-3.051h-3.051Z" transform="translate(-1060 -213)" fill="#1a1a1a" fill-rule="evenodd"/>
              </g>
              <g id="Grupo_1105051" data-name="Grupo 1105051" transform="translate(7.184 6.852)">
                <path id="Trazado_890634" data-name="Trazado 890634" d="M742.728,461.969a.579.579,0,0,1-.32-.123l-7.258-6.5a.506.506,0,0,1-.049-.714.476.476,0,0,1,.689-.025l7.283,6.5a.476.476,0,0,1,.025.689A.523.523,0,0,1,742.728,461.969Z" transform="translate(-734.977 -454.477)" fill="#1a1a1a" fill-rule="evenodd"/>
              </g>
              <g id="Grupo_1105052" data-name="Grupo 1105052" transform="translate(3.1 8.095)">
                <path id="Trazado_890635" data-name="Trazado 890635" d="M569.492,511.25a.494.494,0,0,1-.492-.492v-5.265a.492.492,0,0,1,.984,0v5.265A.494.494,0,0,1,569.492,511.25Z" transform="translate(-569 -505)" fill="#1a1a1a" fill-rule="evenodd"/>
              </g>
              <g id="Grupo_1105053" data-name="Grupo 1105053" transform="translate(14.443 13.36)">
                <path id="Trazado_890636" data-name="Trazado 890636" d="M1034.527,723.995h-4.035a.494.494,0,0,1-.492-.492v-4.01a.494.494,0,0,1,.492-.492h4.035a.494.494,0,0,1,.492.492v4.01A.494.494,0,0,1,1034.527,723.995Zm-3.543-.984h3.051v-3.026h-3.051Z" transform="translate(-1030 -719)" fill="#1a1a1a" fill-rule="evenodd"/>
              </g>
              <g id="Grupo_1105054" data-name="Grupo 1105054" transform="translate(1.107 13.36)">
                <path id="Trazado_890637" data-name="Trazado 890637" d="M492.5,723.995h-4.011A.494.494,0,0,1,488,723.5v-4.01a.494.494,0,0,1,.492-.492H492.5a.494.494,0,0,1,.492.492v4.01A.494.494,0,0,1,492.5,723.995Zm-3.518-.984h3.026v-3.026h-3.026Z" transform="translate(-488 -719)" fill="#1a1a1a" fill-rule="evenodd"/>
              </g>
            </g>
            <g id="Grupo_1105061" data-name="Grupo 1105061" transform="translate(0 0.837)">
              <g id="Grupo_1105056" data-name="Grupo 1105056">
                <path id="Trazado_890638" data-name="Trazado 890638" d="M146.4,210.984h-3.912a.492.492,0,0,1,0-.984H146.4a.492.492,0,0,1,0,.984Z" transform="translate(-142 -210)" fill="#1a1a1a" fill-rule="evenodd"/>
              </g>
              <g id="Grupo_1105057" data-name="Grupo 1105057" transform="translate(0 3.912)">
                <path id="Trazado_890639" data-name="Trazado 890639" d="M146.4,369.984h-3.912a.478.478,0,0,1-.492-.492.494.494,0,0,1,.492-.492H146.4a.494.494,0,0,1,.492.492A.478.478,0,0,1,146.4,369.984Z" transform="translate(-142 -369)" fill="#1a1a1a" fill-rule="evenodd"/>
              </g>
              <g id="Grupo_1105058" data-name="Grupo 1105058" transform="translate(0 7.849)">
                <path id="Trazado_890640" data-name="Trazado 890640" d="M146.4,529.984h-3.912a.492.492,0,1,1,0-.984H146.4a.492.492,0,0,1,0,.984Z" transform="translate(-142 -529)" fill="#1a1a1a" fill-rule="evenodd"/>
              </g>
              <g id="Grupo_1105059" data-name="Grupo 1105059" transform="translate(0 11.786)">
                <path id="Trazado_890641" data-name="Trazado 890641" d="M146.4,689.984h-3.912a.492.492,0,1,1,0-.984H146.4a.492.492,0,1,1,0,.984Z" transform="translate(-142 -689)" fill="#1a1a1a" fill-rule="evenodd"/>
              </g>
              <g id="Grupo_1105060" data-name="Grupo 1105060" transform="translate(0 15.698)">
                <path id="Trazado_890642" data-name="Trazado 890642" d="M146.4,848.984h-3.912a.492.492,0,1,1,0-.984H146.4a.492.492,0,0,1,0,.984Z" transform="translate(-142 -848)" fill="#1a1a1a" fill-rule="evenodd"/>
              </g>
            </g>
            <g id="Grupo_1105067" data-name="Grupo 1105067" transform="translate(30.091 0.837)">
              <g id="Grupo_1105062" data-name="Grupo 1105062">
                <path id="Trazado_890643" data-name="Trazado 890643" d="M1369.429,210.984h-3.937a.492.492,0,0,1,0-.984h3.937a.492.492,0,1,1,0,.984Z" transform="translate(-1365 -210)" fill="#1a1a1a" fill-rule="evenodd"/>
              </g>
              <g id="Grupo_1105063" data-name="Grupo 1105063" transform="translate(0 3.912)">
                <path id="Trazado_890644" data-name="Trazado 890644" d="M1369.429,369.984h-3.937a.478.478,0,0,1-.492-.492.494.494,0,0,1,.492-.492h3.937a.494.494,0,0,1,.492.492A.478.478,0,0,1,1369.429,369.984Z" transform="translate(-1365 -369)" fill="#1a1a1a" fill-rule="evenodd"/>
              </g>
              <g id="Grupo_1105064" data-name="Grupo 1105064" transform="translate(0 7.849)">
                <path id="Trazado_890645" data-name="Trazado 890645" d="M1369.429,529.984h-3.937a.492.492,0,0,1,0-.984h3.937a.492.492,0,1,1,0,.984Z" transform="translate(-1365 -529)" fill="#1a1a1a" fill-rule="evenodd"/>
              </g>
              <g id="Grupo_1105065" data-name="Grupo 1105065" transform="translate(0 11.786)">
                <path id="Trazado_890646" data-name="Trazado 890646" d="M1369.429,689.984h-3.937a.492.492,0,1,1,0-.984h3.937a.492.492,0,1,1,0,.984Z" transform="translate(-1365 -689)" fill="#1a1a1a" fill-rule="evenodd"/>
              </g>
              <g id="Grupo_1105066" data-name="Grupo 1105066" transform="translate(0 15.698)">
                <path id="Trazado_890647" data-name="Trazado 890647" d="M1369.429,848.984h-3.937a.492.492,0,0,1,0-.984h3.937a.492.492,0,1,1,0,.984Z" transform="translate(-1365 -848)" fill="#1a1a1a" fill-rule="evenodd"/>
              </g>
            </g>
          </g>
        </g>
      </g>
      <path id="Trazado_890648" data-name="Trazado 890648" d="M486.617,223.234a3.565,3.565,0,1,0-.886-.1A3.644,3.644,0,0,0,486.617,223.234Z" transform="translate(-471.116 -186.301)" fill="#414952" fill-rule="evenodd"/>
      <path id="Trazado_890649" data-name="Trazado 890649" d="M531.026,759H528v3.026h3.026Z" transform="translate(-515.009 -715.94)" fill="#ef423b" fill-rule="evenodd"/>
      <path id="Trazado_890650" data-name="Trazado 890650" d="M1100,254.526v1.525h3.051V253H1100Z" transform="translate(-1072.935 -222.39)" fill="#ffb751" fill-rule="evenodd"/>
      <path id="Trazado_890651" data-name="Trazado 890651" d="M1073.051,759H1070v3.026h3.051Z" transform="translate(-1043.673 -715.94)" fill="#38a0ea" fill-rule="evenodd"/>
      <path id="Trazado_890652" data-name="Trazado 890652" d="M65.047,81.091h3.838a.494.494,0,0,1,.492.492v4.011a.494.494,0,0,1-.492.492H64.851a.494.494,0,0,1-.492-.492V81.8l-6.742-6.053a4.667,4.667,0,0,1-3.1,1.181A3.634,3.634,0,0,1,54,76.909v4.183h1.525a.494.494,0,0,1,.492.492v4.011a.494.494,0,0,1-.492.492H51.515a.494.494,0,0,1-.492-.492V81.583a.494.494,0,0,1,.492-.492h1.5v-4.4a4.606,4.606,0,1,1,5.807-6.028H65.1V69.134a.494.494,0,0,1,.492-.492h4.035a.494.494,0,0,1,.492.492v4.035a.494.494,0,0,1-.492.492H65.589a.494.494,0,0,1-.492-.492V71.643H59.069a3.279,3.279,0,0,1,.074.689,4.388,4.388,0,0,1-.886,2.682ZM40,88.817H80.032V67.067A2.085,2.085,0,0,0,77.94,65H42.067A2.079,2.079,0,0,0,40,67.067Zm33.093-4.552H77.03a.492.492,0,1,1,0,.984H73.093a.492.492,0,0,1,0-.984Zm-.492-3.42a.494.494,0,0,1,.492-.492H77.03a.492.492,0,1,1,0,.984H73.093A.494.494,0,0,1,72.6,80.845ZM77.03,77.4H73.093a.492.492,0,0,1,0-.984H77.03a.492.492,0,1,1,0,.984Zm0-3.937H73.093a.478.478,0,0,1-.492-.492.494.494,0,0,1,.492-.492H77.03a.494.494,0,0,1,.492.492A.478.478,0,0,1,77.03,73.464Zm0-3.912H73.093a.492.492,0,0,1,0-.984H77.03a.492.492,0,1,1,0,.984ZM46.914,84.265a.492.492,0,0,1,0,.984H43a.492.492,0,0,1,0-.984Zm.492-3.42a.494.494,0,0,1-.492.492H43a.492.492,0,0,1,0-.984h3.912A.494.494,0,0,1,47.406,80.845ZM46.914,77.4H43a.492.492,0,0,1,0-.984h3.912a.492.492,0,1,1,0,.984Zm0-3.937H43a.478.478,0,0,1-.492-.492A.494.494,0,0,1,43,72.48h3.912a.494.494,0,0,1,.492.492A.478.478,0,0,1,46.914,73.464Zm0-3.912H43a.492.492,0,0,1,0-.984h3.912a.492.492,0,1,1,0,.984Z" transform="translate(-39.016 -39.016)" fill="#fff" fill-rule="evenodd"/>
      <path id="Trazado_890653" data-name="Trazado 890653" d="M80.032,1073H40v2.239a2.063,2.063,0,0,0,2.067,2.067H77.94a2.069,2.069,0,0,0,2.091-2.067Zm-17.617,2.165a.494.494,0,0,1-.492.492H58.109a.492.492,0,0,1,0-.984h3.814A.494.494,0,0,1,62.415,1075.165Z" transform="translate(-39.016 -1022.215)" fill="#414952" fill-rule="evenodd"/>
      <path id="Trazado_890654" data-name="Trazado 890654" d="M700.824,1288h-7.75a11.051,11.051,0,0,1-.074,5.389h7.9A11.05,11.05,0,0,1,700.824,1288Z" transform="translate(-675.949 -1231.925)" fill="#30353c" fill-rule="evenodd"/>
      <path id="Trazado_890655" data-name="Trazado 890655" d="M544.548,1547H532v2.337h15.821V1547Z" transform="translate(-518.91 -1484.552)" fill="#414952" fill-rule="evenodd"/>
    </g>
  </g>
</svg>
