<svg id="Grupo_1104545" data-name="Grupo 1104545" xmlns="http://www.w3.org/2000/svg" width="98.145" height="98.145" viewBox="0 0 98.145 98.145">
  <path id="Trazado_879586" data-name="Trazado 879586" d="M49.072,0A49.072,49.072,0,1,1,0,49.072,49.072,49.072,0,0,1,49.072,0Z" transform="translate(0 0)" fill="#f0c52c"/>
  <g id="bar-graphic_1721619" transform="translate(19.19 16.043)">
    <path id="Trazado_885169" data-name="Trazado 885169" d="M338.594,189.343h8.472V154.507a3.123,3.123,0,0,0-3.123-3.123h-2.226a3.123,3.123,0,0,0-3.123,3.123Zm0,0" transform="translate(-297.295 -132.919)" fill="#ffd4a3"/>
    <path id="Trazado_885170" data-name="Trazado 885170" d="M220.949,253.847h8.471V227.971a3.123,3.123,0,0,0-3.123-3.123h-2.226a3.123,3.123,0,0,0-3.123,3.123Zm0,0" transform="translate(-194 -197.424)" fill="#ffb39d"/>
    <path id="Trazado_885171" data-name="Trazado 885171" d="M103.3,319.524h8.471V302.771a3.122,3.122,0,0,0-3.123-3.123h-2.226a3.122,3.122,0,0,0-3.123,3.123Zm0,0" transform="translate(-90.701 -263.1)" fill="#ff8a98"/>
    <path id="Trazado_885172" data-name="Trazado 885172" d="M344.637,151.461a3.143,3.143,0,0,0-.694-.079h-2.226a3.123,3.123,0,0,0-3.123,3.123v34.836h3.615V154.506A3.123,3.123,0,0,1,344.637,151.461Zm0,0" transform="translate(-297.296 -132.918)" fill="#ffbe73"/>
    <path id="Trazado_885173" data-name="Trazado 885173" d="M226.992,224.926a3.119,3.119,0,0,0-.695-.079h-2.226a3.123,3.123,0,0,0-3.123,3.123v25.876h3.615V227.97A3.123,3.123,0,0,1,226.992,224.926Zm0,0" transform="translate(-194 -197.423)" fill="#ff8f71"/>
    <path id="Trazado_885174" data-name="Trazado 885174" d="M109.344,299.727a3.145,3.145,0,0,0-.695-.078h-2.226a3.122,3.122,0,0,0-3.123,3.123v16.753h3.615V302.771A3.123,3.123,0,0,1,109.344,299.727Zm0,0" transform="translate(-90.701 -263.1)" fill="#fd5c6f"/>
    <path id="Trazado_885175" data-name="Trazado 885175" d="M61.949,128.943H13.523v-42.3a3.009,3.009,0,1,0-6.019,0V130.5a4.461,4.461,0,0,0,4.461,4.461H61.95a3.01,3.01,0,0,0,0-6.019Zm0,0" transform="translate(-6.589 -73.428)" fill="#6a829a"/>
    <path id="Trazado_885176" data-name="Trazado 885176" d="M108.668,88a2.043,2.043,0,0,0-1.547-.817l-7.066-.3a2.04,2.04,0,1,0-.174,4.076l1.518.065L84.909,103.861a2.04,2.04,0,1,0,2.507,3.22l16.215-12.623-.282,1.135a2.017,2.017,0,0,0,1.487,2.472,2.051,2.051,0,0,0,2.472-1.488l1.706-6.863A2.038,2.038,0,0,0,108.668,88Zm0,0" transform="translate(-73.859 -76.283)" fill="#b0f0ef"/>
    <path id="Trazado_885177" data-name="Trazado 885177" d="M331.181,8.478l.927,1.878,2.073.3a1.752,1.752,0,0,1,.971,2.989l-1.5,1.462.354,2.064a1.752,1.752,0,0,1-2.542,1.847l-1.853-.975-1.854.975a1.752,1.752,0,0,1-2.542-1.847l.354-2.064-1.5-1.462a1.752,1.752,0,0,1,.971-2.989l2.073-.3.927-1.878A1.752,1.752,0,0,1,331.181,8.478Zm0,0" transform="translate(-284.076 -6.586)" fill="#f9ee80"/>
    <path id="Trazado_885178" data-name="Trazado 885178" d="M55.36,121.443H42.213V88.43a2.211,2.211,0,0,1,2.208-2.208h2.226a2.211,2.211,0,0,1,2.208,2.208v30a.915.915,0,0,0,1.83,0v-30a4.043,4.043,0,0,0-4.038-4.038H44.421a4.042,4.042,0,0,0-4.037,4.038v33.012H36.335V97.39A4.042,4.042,0,0,0,32.3,93.353H30.072a4.042,4.042,0,0,0-4.038,4.037v24.052H21.985V106.514a4.042,4.042,0,0,0-4.037-4.037H15.722a4.042,4.042,0,0,0-4.038,4.037v14.929H7.849V80.053a3.924,3.924,0,1,0-7.849,0v28.289a.915.915,0,0,0,1.83,0V80.053a2.095,2.095,0,1,1,4.19,0v42.3a.914.914,0,0,0,.915.915H55.36a2.095,2.095,0,0,1,0,4.19H5.376a3.551,3.551,0,0,1-3.547-3.547V112.331a.915.915,0,0,0-1.83,0v11.585a5.383,5.383,0,0,0,5.377,5.376H55.36a3.924,3.924,0,0,0,0-7.849ZM27.863,97.39a2.211,2.211,0,0,1,2.208-2.208H32.3a2.21,2.21,0,0,1,2.208,2.208v24.052H27.863Zm-14.349,9.123a2.21,2.21,0,0,1,2.208-2.208h2.226a2.21,2.21,0,0,1,2.208,2.208v14.929H13.514Zm0,0" transform="translate(0 -66.843)"/>
    <path id="Trazado_885179" data-name="Trazado 885179" d="M81.1,101.215l2.035-1.584a.915.915,0,0,0-1.124-1.444l-2.035,1.584a1.1,1.1,0,0,1-1.584-.2,1.19,1.19,0,0,1,.2-1.574L95.081,85.157a.915.915,0,0,0-.523-1.636l-1.518-.065a1.125,1.125,0,0,1,.1-2.249l7.066.3a1.126,1.126,0,0,1,1.044,1.4L99.54,89.769a1.151,1.151,0,0,1-1.393.814,1.059,1.059,0,0,1-.791-1.357l.283-1.136a.915.915,0,0,0-1.45-.942l-11.046,8.6a.915.915,0,1,0,1.123,1.444l9.265-7.213a2.64,2.64,0,0,0,2.234,2.394,2.922,2.922,0,0,0,3.551-2.162l1.706-6.863a2.954,2.954,0,0,0-2.741-3.665l-7.067-.3a2.955,2.955,0,0,0-1.076,5.751L77.467,96.552a2.861,2.861,0,0,0-.512,4.153,2.81,2.81,0,0,0,4.143.511Zm0,0" transform="translate(-66.979 -69.695)"/>
    <path id="Trazado_885180" data-name="Trazado 885180" d="M318,8.84l-.273,1.59a2.667,2.667,0,0,0,3.87,2.812l1.428-.751,1.428.751a2.875,2.875,0,0,0,2.808-.2,2.623,2.623,0,0,0,1.061-2.608l-.273-1.59L329.2,7.714a2.666,2.666,0,0,0-1.478-4.549l-1.6-.232-.714-1.446a2.667,2.667,0,0,0-4.783,0l-.714,1.447-1.6.232a2.667,2.667,0,0,0-1.478,4.549Zm-.091-3.295a.823.823,0,0,1,.676-.57l2.073-.3a.914.914,0,0,0,.688-.5l.927-1.878a.837.837,0,0,1,1.5,0l.927,1.878a.916.916,0,0,0,.689.5l2.073.3a.837.837,0,0,1,.464,1.428l-1.5,1.462a.913.913,0,0,0-.263.809l.354,2.064a.837.837,0,0,1-1.215.882l-1.854-.974a.855.855,0,0,0-.851,0l-1.854.974a.837.837,0,0,1-1.215-.882l.354-2.064a.913.913,0,0,0-.263-.809l-1.5-1.462a.822.822,0,0,1-.212-.859Zm0,0" transform="translate(-277.49 0)"/>
  </g>
</svg>
