<svg xmlns="http://www.w3.org/2000/svg" width="98.145" height="98.145" viewBox="0 0 98.145 98.145">
  <g id="Grupo_1104990" data-name="Grupo 1104990" transform="translate(-750.928 -838)">
    <g id="Grupo_1104546" data-name="Grupo 1104546" transform="translate(750.928 838)">
      <path id="Trazado_879587" data-name="Trazado 879587" d="M49.072,0A49.072,49.072,0,1,1,0,49.072,49.072,49.072,0,0,1,49.072,0Z" transform="translate(0 0)" fill="#f0c52c"/>
    </g>
    <g id="gears_586172" transform="translate(764.314 851.386)">
      <path id="Trazado_888982" data-name="Trazado 888982" d="M317.7,33.7q.469-.469.879-.972l1.889-.048a14.377,14.377,0,0,0,1.1-1.9l-.9-1.664a12.991,12.991,0,0,0,.675-2.525l1.613-.987a14.571,14.571,0,0,0,0-2.2l-1.613-.987a12.99,12.99,0,0,0-.675-2.525l.9-1.663a14.385,14.385,0,0,0-1.1-1.9l-1.889-.048q-.411-.5-.879-.972t-.972-.879l-.048-1.889a14.4,14.4,0,0,0-1.9-1.1l-1.663.9a12.994,12.994,0,0,0-2.525-.675l-.987-1.613a14.576,14.576,0,0,0-2.2,0l-.987,1.613a13,13,0,0,0-2.525.675l-1.664-.9a14.4,14.4,0,0,0-1.9,1.1l-.048,1.889q-.5.411-.972.879t-.879.972l-1.889.048a14.4,14.4,0,0,0-1.1,1.9l.9,1.664a13,13,0,0,0-.675,2.525l-1.613.987a14.571,14.571,0,0,0,0,2.2l1.613.987a13,13,0,0,0,.675,2.525l-.9,1.664a14.385,14.385,0,0,0,1.1,1.9l1.889.048q.411.5.879.972t.972.879l.048,1.889a14.4,14.4,0,0,0,1.9,1.1l1.664-.9a13,13,0,0,0,2.525.675l.987,1.613a14.575,14.575,0,0,0,2.2,0l.987-1.613a13,13,0,0,0,2.525-.675l1.664.9a14.387,14.387,0,0,0,1.9-1.1l.048-1.889Q317.229,34.164,317.7,33.7Z" transform="translate(-253.021 -8.603)" fill="#d0e6ef"/>
      <circle id="Elipse_11737" data-name="Elipse 11737" cx="6.055" cy="6.055" r="6.055" transform="translate(49.308 9.949)" fill="#f4f4f4"/>
      <path id="Trazado_888983" data-name="Trazado 888983" d="M55.123,189.413c0-.329-.009-.655-.023-.98l1.734-1.445a23.481,23.481,0,0,0-.395-2.5l-2.092-.837q-.262-.954-.608-1.872l1.2-1.908a23.444,23.444,0,0,0-1.152-2.256l-2.252-.15q-.542-.82-1.154-1.586l.553-2.185a23.662,23.662,0,0,0-1.8-1.8l-2.185.553q-.765-.612-1.586-1.154l-.15-2.252a23.492,23.492,0,0,0-2.256-1.152l-1.908,1.2q-.917-.345-1.872-.608l-.837-2.092a23.481,23.481,0,0,0-2.5-.395L34.4,167.73c-.325-.015-.651-.023-.98-.023s-.655.009-.98.023L30.992,166a23.481,23.481,0,0,0-2.5.395l-.837,2.092q-.954.262-1.872.608l-1.908-1.2a23.441,23.441,0,0,0-2.256,1.152l-.15,2.252q-.82.542-1.586,1.154l-2.185-.553a23.666,23.666,0,0,0-1.8,1.8l.553,2.185q-.612.765-1.154,1.586l-2.252.15a23.49,23.49,0,0,0-1.152,2.256l1.2,1.908q-.345.917-.608,1.872l-2.092.837a23.48,23.48,0,0,0-.395,2.5l1.734,1.445c-.014.325-.023.651-.023.98s.009.655.023.98L10,191.838a23.482,23.482,0,0,0,.395,2.5l2.092.837q.262.954.608,1.872l-1.2,1.908a23.443,23.443,0,0,0,1.152,2.256l2.252.15q.542.82,1.154,1.586l-.553,2.185a23.667,23.667,0,0,0,1.8,1.8l2.185-.553q.765.612,1.586,1.154l.15,2.252a23.491,23.491,0,0,0,2.256,1.152l1.908-1.2q.917.345,1.872.608l.837,2.092a23.485,23.485,0,0,0,2.5.395l1.445-1.734c.325.014.651.023.98.023s.655-.009.98-.023l1.446,1.734a23.481,23.481,0,0,0,2.5-.395l.837-2.092q.954-.262,1.872-.608l1.908,1.2a23.441,23.441,0,0,0,2.256-1.152l.15-2.252q.82-.542,1.586-1.154l2.185.553a23.661,23.661,0,0,0,1.8-1.8l-.553-2.185q.612-.765,1.154-1.586l2.252-.15a23.5,23.5,0,0,0,1.152-2.256l-1.2-1.908q.345-.917.608-1.872l2.092-.837a23.484,23.484,0,0,0,.395-2.5L55.1,190.393C55.114,190.068,55.123,189.741,55.123,189.413Z" transform="translate(-8.606 -142.858)" fill="#f25353"/>
      <circle id="Elipse_11738" data-name="Elipse 11738" cx="11.029" cy="11.029" r="11.029" transform="translate(13.841 35.468)" fill="#f4f4f4"/>
      <path id="Trazado_888984" data-name="Trazado 888984" d="M225.989,270.242a1.382,1.382,0,0,1-.985-.41l-.006-.007-.012-.012a1.394,1.394,0,0,1,1.957-1.985l.034.034a1.4,1.4,0,0,1-.989,2.38Z" transform="translate(-193.268 -230.15)"/>
      <path id="Trazado_888985" data-name="Trazado 888985" d="M100.581,269.1a12.545,12.545,0,1,1,3.285-24.654,1.394,1.394,0,0,1-.728,2.691,9.758,9.758,0,1,0-2.557,19.175A9.759,9.759,0,0,0,110,253.988a1.394,1.394,0,1,1,2.69-.731,12.547,12.547,0,0,1-12.1,15.845Z" transform="translate(-75.77 -210.003)"/>
      <path id="Trazado_888986" data-name="Trazado 888986" d="M254.983,240.97h0a1.394,1.394,0,0,1-1.391-1.4v-.034a1.394,1.394,0,0,1,1.394-1.391h0a1.394,1.394,0,0,1,1.391,1.4v.034A1.394,1.394,0,0,1,254.983,240.97Z" transform="translate(-218.242 -204.953)"/>
      <path id="Trazado_888987" data-name="Trazado 888987" d="M255.017,412.39h-.034a1.394,1.394,0,1,1,0-2.788h.034a1.394,1.394,0,0,1,0,2.788Z" transform="translate(-218.242 -352.508)"/>
      <path id="Trazado_888988" data-name="Trazado 888988" d="M83.772,412.424h0a1.394,1.394,0,0,1-1.391-1.4v-.034a1.394,1.394,0,0,1,1.394-1.391h0a1.394,1.394,0,0,1,1.391,1.4v.034A1.394,1.394,0,0,1,83.772,412.424Z" transform="translate(-70.896 -352.508)"/>
      <path id="Trazado_888989" data-name="Trazado 888989" d="M83.563,241.179h-.034a1.394,1.394,0,1,1,0-2.788h.034a1.394,1.394,0,1,1,0,2.788Z" transform="translate(-70.686 -205.162)"/>
      <path id="Trazado_888990" data-name="Trazado 888990" d="M290.442,326.636a1.394,1.394,0,0,1-.983-2.382l.024-.024a1.394,1.394,0,1,1,1.966,1.977l-.024.024A1.39,1.39,0,0,1,290.442,326.636Z" transform="translate(-248.759 -278.687)"/>
      <path id="Trazado_888991" data-name="Trazado 888991" d="M169.4,447.871a1.389,1.389,0,0,1-.988-.411l-.024-.024a1.394,1.394,0,1,1,1.977-1.966l.024.024a1.394,1.394,0,0,1-.988,2.377Z" transform="translate(-144.569 -383.023)"/>
      <path id="Trazado_888992" data-name="Trazado 888992" d="M48.141,326.807a1.394,1.394,0,0,1-.983-2.382l.024-.024a1.394,1.394,0,1,1,1.965,1.977l-.024.024A1.389,1.389,0,0,1,48.141,326.807Z" transform="translate(-40.231 -278.834)"/>
      <path id="Trazado_888993" data-name="Trazado 888993" d="M169.23,205.571a1.389,1.389,0,0,1-.988-.411l-.024-.024a1.394,1.394,0,1,1,1.977-1.966l.024.024a1.394,1.394,0,0,1-.988,2.377Z" transform="translate(-144.421 -174.496)"/>
      <path id="Trazado_888994" data-name="Trazado 888994" d="M27.236,205.621a1.394,1.394,0,0,1-1.071-.5l-1.011-1.212c-.233,0-.455,0-.688,0l-1.011,1.212a1.4,1.4,0,0,1-1.213.494,24.971,24.971,0,0,1-2.653-.418,1.394,1.394,0,0,1-1-.845L18,202.888q-.332-.1-.661-.215l-1.334.839a1.4,1.4,0,0,1-1.308.094,24.954,24.954,0,0,1-2.39-1.22,1.394,1.394,0,0,1-.691-1.113l-.1-1.576q-.281-.2-.556-.4l-1.527.386a1.394,1.394,0,0,1-1.273-.314,25.214,25.214,0,0,1-1.9-1.9,1.394,1.394,0,0,1-.314-1.273l.386-1.527q-.206-.275-.4-.557L4.346,194a1.394,1.394,0,0,1-1.113-.691,24.952,24.952,0,0,1-1.22-2.39,1.394,1.394,0,0,1,.094-1.308l.84-1.334q-.112-.329-.215-.661l-1.462-.585a1.394,1.394,0,0,1-.845-1,25,25,0,0,1-.418-2.652A1.394,1.394,0,0,1,.5,182.165l1.212-1.011c0-.116,0-.231,0-.344s0-.228,0-.344L.5,179.456a1.394,1.394,0,0,1-.494-1.213,24.988,24.988,0,0,1,.418-2.652,1.394,1.394,0,0,1,.845-1L2.733,174q.1-.332.215-.661l-.84-1.334a1.4,1.4,0,0,1-.094-1.308,24.973,24.973,0,0,1,1.22-2.39,1.394,1.394,0,0,1,1.113-.691l1.576-.1q.2-.281.4-.556l-.386-1.527a1.394,1.394,0,0,1,.314-1.273,25.22,25.22,0,0,1,1.9-1.9,1.4,1.4,0,0,1,1.273-.314l1.527.386q.275-.206.556-.4l.1-1.576a1.394,1.394,0,0,1,.691-1.113,24.954,24.954,0,0,1,2.39-1.22,1.394,1.394,0,0,1,1.308.094l1.334.839q.329-.112.661-.215l.585-1.462a1.393,1.393,0,0,1,1-.845,24.98,24.98,0,0,1,2.652-.418,1.4,1.4,0,0,1,1.213.494l1.011,1.212c.232,0,.456,0,.688,0l1.011-1.212a1.392,1.392,0,0,1,1.213-.494,24.972,24.972,0,0,1,2.652.418,1.394,1.394,0,0,1,1,.845l.585,1.462q.332.1.661.215l1.334-.839a1.394,1.394,0,0,1,1.308-.094,24.953,24.953,0,0,1,2.39,1.22A1.394,1.394,0,0,1,38,160.347l.1,1.576q.281.2.556.4l1.527-.386a1.4,1.4,0,0,1,1.273.314,25.22,25.22,0,0,1,1.9,1.9,1.394,1.394,0,0,1,.314,1.273l-.386,1.527q.206.275.4.556l1.576.1a1.394,1.394,0,0,1,1.113.691,24.939,24.939,0,0,1,1.22,2.39,1.394,1.394,0,0,1-.094,1.308l-.84,1.334q.112.329.215.661l1.462.585a1.394,1.394,0,0,1,.845,1,24.994,24.994,0,0,1,.418,2.652,1.394,1.394,0,0,1-.494,1.213l-1.212,1.011c0,.116,0,.231,0,.344s0,.228,0,.344l1.212,1.011a1.394,1.394,0,0,1,.494,1.213,24.99,24.99,0,0,1-.418,2.652,1.394,1.394,0,0,1-.845,1l-1.462.585q-.1.332-.215.661l.84,1.334a1.394,1.394,0,0,1,.094,1.308,24.97,24.97,0,0,1-1.22,2.39,1.394,1.394,0,0,1-1.113.691l-1.576.1q-.2.281-.4.557l.386,1.527a1.394,1.394,0,0,1-.314,1.273,25.213,25.213,0,0,1-1.9,1.9,1.4,1.4,0,0,1-1.273.314l-1.527-.386q-.275.206-.556.4l-.1,1.576a1.394,1.394,0,0,1-.691,1.113,24.955,24.955,0,0,1-2.39,1.22,1.393,1.393,0,0,1-1.308-.094l-1.334-.839q-.329.112-.661.215l-.585,1.462a1.393,1.393,0,0,1-1,.845,24.971,24.971,0,0,1-2.653.418A1.411,1.411,0,0,1,27.236,205.621ZM25.791,201.1a1.394,1.394,0,0,1,1.071.5l.961,1.153q.452-.062.905-.143l.555-1.388a1.394,1.394,0,0,1,.925-.826c.588-.162,1.177-.353,1.75-.568a1.394,1.394,0,0,1,1.233.125l1.266.8q.412-.2.815-.416l.1-1.5a1.394,1.394,0,0,1,.622-1.07c.51-.337,1.01-.7,1.484-1.08a1.4,1.4,0,0,1,1.212-.263l1.451.367q.332-.319.651-.651l-.367-1.451a1.394,1.394,0,0,1,.262-1.212c.381-.476.744-.976,1.08-1.484a1.394,1.394,0,0,1,1.07-.622l1.5-.1q.216-.4.416-.815l-.8-1.266a1.394,1.394,0,0,1-.125-1.233c.215-.572.406-1.161.568-1.751a1.394,1.394,0,0,1,.826-.925l1.388-.555q.081-.452.143-.905l-1.153-.961a1.394,1.394,0,0,1-.5-1.133c.014-.328.022-.628.022-.918s-.007-.59-.022-.918a1.393,1.393,0,0,1,.5-1.133l1.153-.961q-.062-.452-.143-.905l-1.388-.555a1.394,1.394,0,0,1-.826-.925c-.162-.59-.353-1.179-.568-1.751a1.394,1.394,0,0,1,.125-1.233l.8-1.266q-.2-.412-.416-.815l-1.5-.1a1.393,1.393,0,0,1-1.07-.622c-.336-.508-.7-1.008-1.08-1.484a1.394,1.394,0,0,1-.262-1.212l.367-1.451q-.319-.332-.651-.651l-1.451.367a1.4,1.4,0,0,1-1.212-.263c-.475-.379-.974-.743-1.484-1.08a1.394,1.394,0,0,1-.622-1.07l-.1-1.5q-.4-.216-.815-.416l-1.266.8a1.393,1.393,0,0,1-1.233.125c-.573-.215-1.162-.407-1.751-.568a1.394,1.394,0,0,1-.925-.826l-.555-1.388q-.452-.081-.905-.143l-.961,1.153a1.4,1.4,0,0,1-1.133.5c-.653-.029-1.182-.029-1.835,0a1.39,1.39,0,0,1-1.133-.5l-.961-1.153q-.452.062-.905.143l-.555,1.388a1.394,1.394,0,0,1-.925.826c-.588.162-1.177.353-1.751.568a1.393,1.393,0,0,1-1.233-.125l-1.266-.8q-.412.2-.815.416l-.1,1.5a1.394,1.394,0,0,1-.622,1.07c-.51.337-1.01.7-1.484,1.08a1.4,1.4,0,0,1-1.212.263l-1.451-.367q-.332.319-.651.651l.367,1.451a1.394,1.394,0,0,1-.262,1.212c-.381.476-.744.976-1.08,1.484a1.394,1.394,0,0,1-1.07.622l-1.5.1q-.216.4-.416.815l.8,1.266a1.394,1.394,0,0,1,.125,1.233c-.215.571-.406,1.16-.568,1.751a1.394,1.394,0,0,1-.826.925l-1.388.555q-.081.452-.143.905l1.153.961a1.394,1.394,0,0,1,.5,1.133c-.014.328-.022.628-.022.918s.007.59.022.918a1.393,1.393,0,0,1-.5,1.133l-1.153.961q.062.452.143.905l1.388.555a1.394,1.394,0,0,1,.826.925c.162.589.353,1.178.568,1.75a1.394,1.394,0,0,1-.125,1.233l-.8,1.266q.2.412.416.815l1.5.1a1.393,1.393,0,0,1,1.07.622c.336.508.7,1.008,1.08,1.484A1.394,1.394,0,0,1,9.2,194.69l-.367,1.451q.319.332.651.651l1.451-.367a1.4,1.4,0,0,1,1.212.263c.475.38.974.743,1.484,1.08a1.394,1.394,0,0,1,.622,1.07l.1,1.5q.4.216.815.416l1.266-.8a1.394,1.394,0,0,1,1.233-.125c.573.215,1.162.407,1.75.568a1.394,1.394,0,0,1,.925.826l.555,1.388q.452.081.905.143l.961-1.153a1.394,1.394,0,0,1,1.133-.5c.66.029,1.176.029,1.836,0Z" transform="translate(0 -134.255)"/>
      <path id="Trazado_888995" data-name="Trazado 888995" d="M352.287,75.022a1.394,1.394,0,0,1-.134-2.781,4.739,4.739,0,1,0-5.182-5.159,1.394,1.394,0,1,1-2.776-.258,7.527,7.527,0,1,1,8.228,8.192Q352.355,75.022,352.287,75.022Z" transform="translate(-296.214 -51.633)"/>
      <path id="Trazado_888996" data-name="Trazado 888996" d="M358.328,137.943a1.39,1.39,0,0,1-.965-.388l-.011-.011-.043-.042-.014-.014a1.394,1.394,0,1,1,1.971-1.971l.026.026a1.394,1.394,0,0,1-.965,2.4Z" transform="translate(-307.142 -116.276)"/>
      <path id="Trazado_888997" data-name="Trazado 888997" d="M299.89,31.78c-.4,0-.807-.015-1.207-.045a1.394,1.394,0,0,1-1.084-.662l-.663-1.083a14.447,14.447,0,0,1-1.539-.411l-1.119.609a1.393,1.393,0,0,1-1.269.032,15.816,15.816,0,0,1-2.088-1.208,1.393,1.393,0,0,1-.605-1.114l-.033-1.27q-.3-.267-.58-.548t-.549-.58l-1.27-.032a1.393,1.393,0,0,1-1.114-.606,15.824,15.824,0,0,1-1.208-2.088,1.394,1.394,0,0,1,.032-1.269l.609-1.119a14.432,14.432,0,0,1-.411-1.539l-1.083-.663a1.393,1.393,0,0,1-.662-1.083,16.013,16.013,0,0,1,0-2.414,1.394,1.394,0,0,1,.662-1.083l1.083-.663A14.41,14.41,0,0,1,286.2,11.4l-.609-1.119a1.393,1.393,0,0,1-.032-1.269,15.815,15.815,0,0,1,1.208-2.088,1.394,1.394,0,0,1,1.114-.606l1.27-.032q.267-.3.548-.58t.58-.549l.033-1.27a1.394,1.394,0,0,1,.606-1.114,15.822,15.822,0,0,1,2.088-1.208,1.393,1.393,0,0,1,1.269.032L295.4,2.2a14.415,14.415,0,0,1,1.539-.411L297.6.709a1.394,1.394,0,0,1,1.084-.662,16.008,16.008,0,0,1,2.414,0,1.394,1.394,0,0,1,1.084.662l.663,1.083a14.439,14.439,0,0,1,1.539.411l1.119-.609a1.393,1.393,0,0,1,1.269-.032,15.828,15.828,0,0,1,2.088,1.208,1.394,1.394,0,0,1,.606,1.114l.032,1.27q.3.267.58.548t.549.58l1.27.032a1.394,1.394,0,0,1,1.114.606,15.823,15.823,0,0,1,1.208,2.088,1.394,1.394,0,0,1-.032,1.269l-.609,1.119a14.412,14.412,0,0,1,.411,1.539l1.083.663a1.393,1.393,0,0,1,.662,1.083,16.005,16.005,0,0,1,0,2.414,1.394,1.394,0,0,1-.662,1.083l-1.083.663a14.4,14.4,0,0,1-.411,1.539l.609,1.119a1.394,1.394,0,0,1,.032,1.269,15.835,15.835,0,0,1-1.208,2.088,1.394,1.394,0,0,1-1.114.606l-1.27.032c-.178.2-.362.393-.548.58h0q-.281.281-.58.548l-.032,1.27a1.394,1.394,0,0,1-.606,1.114,15.823,15.823,0,0,1-2.088,1.208,1.393,1.393,0,0,1-1.269-.032l-1.119-.609a14.426,14.426,0,0,1-1.539.411l-.663,1.083a1.394,1.394,0,0,1-1.084.662C300.7,31.765,300.293,31.78,299.89,31.78Zm-.3-2.791q.3.006.595,0l.6-.985a1.394,1.394,0,0,1,.966-.648,11.655,11.655,0,0,0,2.255-.6,1.394,1.394,0,0,1,1.159.079l1.016.553q.258-.142.511-.3l.03-1.154a1.394,1.394,0,0,1,.511-1.043c.3-.247.595-.512.869-.786s.538-.566.786-.869a1.394,1.394,0,0,1,1.043-.511l1.154-.03q.154-.252.3-.511l-.553-1.016a1.394,1.394,0,0,1-.079-1.159,11.634,11.634,0,0,0,.6-2.254A1.394,1.394,0,0,1,312,16.79l.985-.6q.007-.3,0-.595l-.985-.6a1.394,1.394,0,0,1-.648-.966,11.634,11.634,0,0,0-.6-2.254,1.394,1.394,0,0,1,.079-1.159l.553-1.016q-.142-.258-.3-.511l-1.154-.03a1.394,1.394,0,0,1-1.043-.511c-.248-.3-.513-.6-.786-.869s-.566-.539-.869-.786a1.394,1.394,0,0,1-.511-1.043l-.03-1.154q-.252-.154-.511-.3l-1.016.553a1.394,1.394,0,0,1-1.159.079,11.63,11.63,0,0,0-2.254-.6,1.394,1.394,0,0,1-.966-.648l-.6-.985q-.3-.006-.595,0l-.6.985a1.393,1.393,0,0,1-.966.648,11.645,11.645,0,0,0-2.254.6,1.4,1.4,0,0,1-1.159-.079L293.594,4.4q-.258.142-.511.3l-.03,1.154a1.394,1.394,0,0,1-.511,1.043c-.3.247-.595.512-.869.786s-.538.566-.786.869a1.394,1.394,0,0,1-1.043.511l-1.154.03q-.154.252-.3.511l.553,1.016a1.394,1.394,0,0,1,.079,1.159,11.632,11.632,0,0,0-.6,2.254,1.394,1.394,0,0,1-.648.966l-.985.6q-.007.3,0,.595l.985.6a1.394,1.394,0,0,1,.648.966,11.628,11.628,0,0,0,.6,2.255,1.394,1.394,0,0,1-.079,1.159l-.553,1.016q.142.258.3.511l1.154.03a1.394,1.394,0,0,1,1.043.511c.248.3.513.6.786.869s.566.539.869.786a1.394,1.394,0,0,1,.511,1.043l.03,1.154q.252.154.511.3l1.016-.553a1.393,1.393,0,0,1,1.159-.079,11.633,11.633,0,0,0,2.255.6,1.394,1.394,0,0,1,.966.648Zm9.5-3.9h0Z" transform="translate(-244.414)"/>
    </g>
  </g>
</svg>
