<svg xmlns="http://www.w3.org/2000/svg" width="78" height="78" viewBox="0 0 78 78">
  <g id="Grupo_1100505" data-name="Grupo 1100505" transform="translate(-209.897 -20045.903)">
    <g id="Grupo_1095345" data-name="Grupo 1095345" transform="translate(209.994 20046)">
      <path id="Trazado_875520" data-name="Trazado 875520" d="M39,0A39,39,0,1,1,0,39,39,39,0,0,1,39,0Z" transform="translate(-0.097 -0.097)" fill="#a854f3"/>
    </g>
    <g id="light-bulb_3409564" transform="translate(215.277 20059.799)">
      <g id="Grupo_1104994" data-name="Grupo 1104994" transform="translate(18.092 1.035)">
        <path id="Trazado_890511" data-name="Trazado 890511" d="M101.818,45.2H114.24c0-6.522,9.317-6.315,9.317-19.669a15.528,15.528,0,0,0-31.056,0C92.5,38.883,101.818,38.676,101.818,45.2Z" transform="translate(-92.501 -10.001)" fill="#ffc144" fill-rule="evenodd"/>
        <path id="Trazado_890512" data-name="Trazado 890512" d="M174.753,350H162.33a2.329,2.329,0,1,0,0,4.658h12.423a2.329,2.329,0,0,0,0-4.658Z" transform="translate(-153.013 -314.805)" fill="#6d91ac" fill-rule="evenodd"/>
        <path id="Trazado_890513" data-name="Trazado 890513" d="M182.5,395h12.423v4.141H182.5Z" transform="translate(-173.184 -355.146)" fill="#a7bdcd" fill-rule="evenodd"/>
        <path id="Trazado_890514" data-name="Trazado 890514" d="M194.924,435H182.5v2.07a2.077,2.077,0,0,0,2.07,2.07h8.282a2.077,2.077,0,0,0,2.07-2.07Z" transform="translate(-173.184 -391.006)" fill="#a7bdcd" fill-rule="evenodd"/>
        <g id="Grupo_1104993" data-name="Grupo 1104993" transform="translate(8.799 6.892)">
          <path id="Trazado_890515" data-name="Trazado 890515" d="M184.23,93.847a2.07,2.07,0,0,0,2.07-2.07,2.209,2.209,0,0,1,.456-1.2,18.453,18.453,0,0,1,2.211-2.492,6.834,6.834,0,0,0,1.472-2.2A6.726,6.726,0,1,0,177.5,83.3a2.07,2.07,0,1,0,4.141,0,2.588,2.588,0,1,1,4.98.994,2.677,2.677,0,0,1-.582.856,21.514,21.514,0,0,0-2.729,3.139,6.07,6.07,0,0,0-1.152,3.484A2.07,2.07,0,0,0,184.23,93.847Z" transform="translate(-177.501 -76.575)" fill="#fff" fill-rule="evenodd"/>
          <path id="Trazado_890516" data-name="Trazado 890516" d="M226.642,245.489a2.07,2.07,0,0,0-4.141,0h0a2.07,2.07,0,1,0,4.141,0Z" transform="translate(-217.843 -226.147)" fill="#fff" fill-rule="evenodd"/>
        </g>
      </g>
      <g id="Grupo_1104995" data-name="Grupo 1104995" transform="translate(9.5)">
        <path id="Trazado_890517" data-name="Trazado 890517" d="M99.064,0A16.6,16.6,0,0,0,94.7.584a1.035,1.035,0,1,0,.545,2,14.5,14.5,0,0,1,18.316,13.982c0,7.425-2.961,10.326-5.573,12.884-1.7,1.666-3.318,3.252-3.672,5.75h-10.5c-.353-2.5-1.97-4.083-3.672-5.75-2.612-2.559-5.573-5.459-5.573-12.884A14.5,14.5,0,0,1,88,7.209a1.035,1.035,0,0,0-1.581-1.337A16.571,16.571,0,0,0,82.5,16.563c0,8.3,3.435,11.66,6.2,14.364,1.571,1.539,2.764,2.708,3.054,4.457a3.364,3.364,0,0,0,.068,6.378V44h-.259a1.035,1.035,0,0,0,0,2.07h.259V47.1a3.109,3.109,0,0,0,3.106,3.106h8.282a3.109,3.109,0,0,0,3.106-3.106V46.067h.259a1.035,1.035,0,0,0,0-2.07h-.259V41.763a3.364,3.364,0,0,0,.068-6.378c.29-1.749,1.482-2.918,3.054-4.457,2.76-2.7,6.2-6.068,6.2-14.364A16.582,16.582,0,0,0,99.064,0Zm5.176,47.1a1.036,1.036,0,0,1-1.035,1.035H94.924A1.036,1.036,0,0,1,93.888,47.1V46.067H104.24ZM93.888,44V41.926H104.24V44Zm11.387-4.141H92.853a1.294,1.294,0,0,1,0-2.588h12.423a1.294,1.294,0,1,1,0,2.588Z" transform="translate(-74.944)"/>
        <path id="Trazado_890518" data-name="Trazado 890518" d="M12.916,152.07a1.035,1.035,0,1,0,0-2.07H10.535a1.035,1.035,0,1,0,0,2.07Z" transform="translate(-9.5 -134.472)"/>
        <path id="Trazado_890519" data-name="Trazado 890519" d="M24.1,250.138l-4.124,2.381a1.035,1.035,0,1,0,1.035,1.793l4.124-2.381a1.035,1.035,0,0,0-1.035-1.793Z" transform="translate(-18.426 -224.119)"/>
        <path id="Trazado_890520" data-name="Trazado 890520" d="M411.383,252.518l-4.124-2.381a1.035,1.035,0,1,0-1.035,1.793l4.124,2.381a1.035,1.035,0,0,0,1.035-1.793Z" transform="translate(-364.691 -224.118)"/>
        <path id="Trazado_890521" data-name="Trazado 890521" d="M435.919,150h-2.381a1.035,1.035,0,0,0,0,2.07h2.381a1.035,1.035,0,1,0,0-2.07Z" transform="translate(-388.713 -134.472)"/>
        <path id="Trazado_890522" data-name="Trazado 890522" d="M406.743,31.45a1.03,1.03,0,0,0,.517-.139l4.124-2.381a1.035,1.035,0,0,0-1.035-1.793l-4.124,2.381a1.035,1.035,0,0,0,.519,1.932Z" transform="translate(-364.69 -24.203)"/>
        <path id="Trazado_890523" data-name="Trazado 890523" d="M25.133,29.517l-4.124-2.381a1.035,1.035,0,0,0-1.035,1.793L24.1,31.31a1.035,1.035,0,0,0,1.035-1.793Z" transform="translate(-18.426 -24.202)"/>
        <path id="Trazado_890524" data-name="Trazado 890524" d="M178.653,82.181a18.545,18.545,0,0,1,2.081-2.333,7.829,7.829,0,0,0,1.695-2.532A7.762,7.762,0,1,0,167.5,74.338a3.106,3.106,0,1,0,6.211,0,1.553,1.553,0,1,1,2.99.595,1.635,1.635,0,0,1-.359.523,21.916,21.916,0,0,0-2.859,3.3,7.093,7.093,0,0,0-1.325,4.058,3.093,3.093,0,0,0,.793,2.071,3.105,3.105,0,1,0,5.418,2.071h0a3.093,3.093,0,0,0-.793-2.071,3.093,3.093,0,0,0,.793-2.071A1.316,1.316,0,0,1,178.653,82.181ZM175.208,79.9a20.14,20.14,0,0,1,2.6-2.98,3.691,3.691,0,0,0,.8-1.189,3.624,3.624,0,1,0-6.971-1.393,1.035,1.035,0,1,1-2.07,0,5.694,5.694,0,1,1,10.948,2.18,5.772,5.772,0,0,1-1.248,1.866,18.693,18.693,0,0,0-2.341,2.65,3.178,3.178,0,0,0-.63,1.777,1.035,1.035,0,1,1-2.07,0A5.056,5.056,0,0,1,175.208,79.9Zm1.092,7.052a1.035,1.035,0,1,1-1.035-1.036,1.036,1.036,0,0,1,1.035,1.036Z" transform="translate(-151.144 -59.682)"/>
        <path id="Trazado_890525" data-name="Trazado 890525" d="M152.833,25.607a1.035,1.035,0,1,0,0-2.07h0a1.035,1.035,0,1,0,0,2.07Z" transform="translate(-137.066 -21.1)"/>
      </g>
    </g>
  </g>
</svg>
