<svg xmlns="http://www.w3.org/2000/svg" xmlns:xlink="http://www.w3.org/1999/xlink" width="530.273" height="415" viewBox="0 0 530.273 415">
  <defs>
    <clipPath id="clip-path">
      <rect id="Rectángulo_405217" data-name="Rectángulo 405217" width="240" height="415" transform="translate(0.256 0.002)" fill="#fff" stroke="#707070" stroke-width="1"/>
    </clipPath>
    <filter id="Elipse_11898" x="222" y="26" width="108" height="107" filterUnits="userSpaceOnUse">
      <feOffset dy="3" input="SourceAlpha"/>
      <feGaussianBlur stdDeviation="3" result="blur"/>
      <feFlood flood-opacity="0.161"/>
      <feComposite operator="in" in2="blur"/>
      <feComposite in="SourceGraphic"/>
    </filter>
    <filter id="Elipse_11900" x="258" y="158" width="108" height="108" filterUnits="userSpaceOnUse">
      <feOffset dy="3" input="SourceAlpha"/>
      <feGaussianBlur stdDeviation="3" result="blur-2"/>
      <feFlood flood-opacity="0.161"/>
      <feComposite operator="in" in2="blur-2"/>
      <feComposite in="SourceGraphic"/>
    </filter>
    <filter id="Elipse_11901" x="229" y="286" width="108" height="107" filterUnits="userSpaceOnUse">
      <feOffset dy="3" input="SourceAlpha"/>
      <feGaussianBlur stdDeviation="3" result="blur-3"/>
      <feFlood flood-opacity="0.161"/>
      <feComposite operator="in" in2="blur-3"/>
      <feComposite in="SourceGraphic"/>
    </filter>
  </defs>
  <g id="Grupo_1105002" data-name="Grupo 1105002" transform="translate(-631 -2484.002)">
    <g id="Grupo_1105001" data-name="Grupo 1105001" transform="translate(647 2484)">
      <ellipse id="Elipse_11897" data-name="Elipse 11897" cx="119" cy="119.5" rx="119" ry="119.5" transform="translate(-16 86.002)" fill="#3a1d71"/>
      <g id="Enmascarar_grupo_1098785" data-name="Enmascarar grupo 1098785" transform="translate(111.744)" clip-path="url(#clip-path)">
        <g id="Elipse_11899" data-name="Elipse 11899" transform="translate(-213.744 -1.998)" fill="none" stroke="#3a1d71" stroke-width="13" stroke-dasharray="9">
          <circle cx="207" cy="207" r="207" stroke="none"/>
          <circle cx="207" cy="207" r="200.5" fill="none"/>
        </g>
      </g>
      <g transform="matrix(1, 0, 0, 1, -16, 0)" filter="url(#Elipse_11898)">
        <ellipse id="Elipse_11898-2" data-name="Elipse 11898" cx="45" cy="44.5" rx="45" ry="44.5" transform="translate(231 32)" fill="#f0c518"/>
      </g>
      <g transform="matrix(1, 0, 0, 1, -16, 0)" filter="url(#Elipse_11900)">
        <circle id="Elipse_11900-2" data-name="Elipse 11900" cx="45" cy="45" r="45" transform="translate(267 164)" fill="#f0c518"/>
      </g>
      <g transform="matrix(1, 0, 0, 1, -16, 0)" filter="url(#Elipse_11901)">
        <ellipse id="Elipse_11901-2" data-name="Elipse 11901" cx="45" cy="44.5" rx="45" ry="44.5" transform="translate(238 292)" fill="#f0c518"/>
      </g>
      <g id="connectivity_8083296" transform="translate(231.991 49.818)">
        <path id="Trazado_889008" data-name="Trazado 889008" d="M79.783,452.55H41.295A2.3,2.3,0,0,1,39,450.255v-2.92a.834.834,0,0,1,.834-.834H81.243a.834.834,0,0,1,.834.834v2.92A2.3,2.3,0,0,1,79.783,452.55Z" transform="translate(-34.932 -399.928)" fill="#a8d3d8"/>
        <path id="Trazado_889009" data-name="Trazado 889009" d="M404.589,446.5H401.46a.834.834,0,0,1,.834.834v2.92A2.3,2.3,0,0,1,400,452.55h3.129a2.3,2.3,0,0,0,2.295-2.295v-2.92A.834.834,0,0,0,404.589,446.5Z" transform="translate(-358.278 -399.928)" fill="#8ebac5"/>
        <path id="Trazado_889010" data-name="Trazado 889010" d="M200.5,446.7h9.387V448.6a1.026,1.026,0,0,1-1.026,1.026h-7.336A1.026,1.026,0,0,1,200.5,448.6V446.7Z" transform="translate(-179.587 -400.11)" fill="#fdb441"/>
        <path id="Trazado_889011" data-name="Trazado 889011" d="M104.921,243.177H72.586a2.086,2.086,0,0,1-2.086-2.086v-19.5a2.086,2.086,0,0,1,2.086-2.086h32.334a2.086,2.086,0,0,1,2.086,2.086v19.5A2.086,2.086,0,0,1,104.921,243.177Z" transform="translate(-63.147 -196.605)" fill="#3692bc"/>
        <path id="Trazado_889012" data-name="Trazado 889012" d="M373.629,219.5H370.5a2.086,2.086,0,0,1,2.086,2.086v19.5a2.086,2.086,0,0,1-2.086,2.086h3.129a2.086,2.086,0,0,0,2.086-2.086v-19.5A2.086,2.086,0,0,0,373.629,219.5Z" transform="translate(-331.855 -196.605)" fill="#0681af"/>
        <path id="Trazado_889013" data-name="Trazado 889013" d="M100.5,266.629V249.79a.29.29,0,0,1,.29-.29h29.669a.29.29,0,0,1,.29.29v16.84a.29.29,0,0,1-.29.29H100.79A.29.29,0,0,1,100.5,266.629Z" transform="translate(-90.017 -223.476)" fill="#edf9d9"/>
        <path id="Trazado_889014" data-name="Trazado 889014" d="M360.853,249.5h-3.129a.29.29,0,0,1,.29.29v16.84a.29.29,0,0,1-.29.29h3.129a.29.29,0,0,0,.29-.29V249.79A.29.29,0,0,0,360.853,249.5Z" transform="translate(-320.412 -223.476)" fill="#d5efc8"/>
        <path id="Trazado_889015" data-name="Trazado 889015" d="M366.859,35.349H354a1.5,1.5,0,0,1-1.495-1.495V8.995A1.5,1.5,0,0,1,354,7.5h12.864a1.5,1.5,0,0,1,1.495,1.495V33.854A1.5,1.5,0,0,1,366.859,35.349Z" transform="translate(-315.733 -6.718)" fill="#edf9d9"/>
        <path id="Trazado_889016" data-name="Trazado 889016" d="M463.3,7.5h-3.129a1.5,1.5,0,0,1,1.495,1.495V33.854a1.5,1.5,0,0,1-1.495,1.495H463.3a1.5,1.5,0,0,0,1.495-1.495V8.995A1.5,1.5,0,0,0,463.3,7.5Z" transform="translate(-412.17 -6.718)" fill="#d5efc8"/>
        <path id="Trazado_889017" data-name="Trazado 889017" d="M366.859,235.985H354a1.5,1.5,0,0,1-1.495-1.495V231.5h15.854v2.99A1.5,1.5,0,0,1,366.859,235.985Z" transform="translate(-315.733 -207.354)" fill="#3692bc"/>
        <path id="Trazado_889018" data-name="Trazado 889018" d="M461.662,231.5v2.99a1.5,1.5,0,0,1-1.495,1.495H463.3a1.5,1.5,0,0,0,1.495-1.495V231.5Z" transform="translate(-412.17 -207.354)" fill="#0681af"/>
        <path id="Trazado_889019" data-name="Trazado 889019" d="M9.728,86H30.305a2.237,2.237,0,0,1,2.228,2.246v16.312a2.237,2.237,0,0,1-2.228,2.246H25.567a.46.46,0,0,0-.382.205l-2.474,3.714a.228.228,0,0,1-.381,0l-2.474-3.714a.46.46,0,0,0-.382-.205H9.728A2.237,2.237,0,0,1,7.5,104.557V88.246A2.237,2.237,0,0,1,9.728,86Z" transform="translate(-6.718 -77.03)" fill="#eaf6ff"/>
        <g id="Grupo_1104574" data-name="Grupo 1104574" transform="translate(14.238 8.97)">
          <path id="Trazado_889020" data-name="Trazado 889020" d="M137.6,285.649l-1.1,1.651,1.374,2.063a.228.228,0,0,0,.381,0l2.474-3.714a.46.46,0,0,1,.382-.205h-3.129A.46.46,0,0,0,137.6,285.649Z" transform="translate(-136.5 -264.641)" fill="#d8ecfe"/>
          <path id="Trazado_889021" data-name="Trazado 889021" d="M199.268,86h-3.129a2.237,2.237,0,0,1,2.228,2.246v16.312a2.237,2.237,0,0,1-2.228,2.246h3.129a2.237,2.237,0,0,0,2.228-2.246V88.246A2.237,2.237,0,0,0,199.268,86Z" transform="translate(-189.918 -86)" fill="#d8ecfe"/>
        </g>
        <g id="Grupo_1104575" data-name="Grupo 1104575" transform="translate(6.589 12.995)">
          <circle id="Elipse_11873" data-name="Elipse 11873" cx="1.773" cy="1.773" r="1.773" transform="translate(4.433 4.485)" fill="#eaf6ff"/>
          <path id="Trazado_889022" data-name="Trazado 889022" d="M75.48,129.058l-.991-2a.953.953,0,0,0-1.278-.43l-1.468.728a.209.209,0,0,1-.3-.187v-1.637a.952.952,0,0,0-.952-.952H68.259a.953.953,0,0,0-.953.953v1.637a.209.209,0,0,1-.3.187l-1.468-.728a.953.953,0,0,0-1.278.43l-.991,2a.952.952,0,0,0,.43,1.277l.647.321a.209.209,0,0,1,0,.374l-.647.321a.952.952,0,0,0-.43,1.277l.991,2a.953.953,0,0,0,1.277.43L67,134.324a.209.209,0,0,1,.3.187v1.637a.953.953,0,0,0,.953.953H70.49a.952.952,0,0,0,.952-.952v-1.637a.209.209,0,0,1,.3-.187l1.469.728a.953.953,0,0,0,1.277-.43l.992-2a.952.952,0,0,0-.43-1.276l-.648-.321a.209.209,0,0,1,0-.374l.647-.321A.952.952,0,0,0,75.48,129.058Z" transform="translate(-63.168 -124.584)" fill="#eaf6ff"/>
          <circle id="Elipse_11874" data-name="Elipse 11874" cx="1.773" cy="1.773" r="1.773" transform="translate(4.433 4.485)" fill="#eaf6ff"/>
        </g>
        <path id="Trazado_889023" data-name="Trazado 889023" d="M75.48,129.058l-.991-2a.953.953,0,0,0-1.278-.43l-1.468.728a.209.209,0,0,1-.3-.187v-1.637a.952.952,0,0,0-.952-.952H68.259a.953.953,0,0,0-.953.953v1.637a.209.209,0,0,1-.3.187l-1.468-.728a.953.953,0,0,0-1.278.43l-.991,2a.952.952,0,0,0,.43,1.277l.647.321a.209.209,0,0,1,0,.374l-.647.321a.952.952,0,0,0-.43,1.277l.991,2a.953.953,0,0,0,1.277.43L67,134.324a.209.209,0,0,1,.3.187v1.637a.953.953,0,0,0,.953.953H70.49a.952.952,0,0,0,.952-.952v-1.637a.209.209,0,0,1,.3-.187l1.469.728a.953.953,0,0,0,1.277-.43l.992-2a.952.952,0,0,0-.43-1.276l-.648-.321a.209.209,0,0,1,0-.374l.647-.321A.952.952,0,0,0,75.48,129.058Z" transform="translate(-56.579 -111.589)" fill="#a8d3d8"/>
        <circle id="Elipse_11875" data-name="Elipse 11875" cx="1.773" cy="1.773" r="1.773" transform="translate(11.021 17.48)" fill="#fdb441"/>
        <path id="Trazado_889024" data-name="Trazado 889024" d="M253.072,330.758H243.99a.346.346,0,0,1-.346-.346v-5.566a.346.346,0,0,1,.346-.346h9.082a.346.346,0,0,1,.346.346v5.566A.346.346,0,0,1,253.072,330.758Z" transform="translate(-218.231 -290.653)" fill="#fe7ab6"/>
        <path id="Trazado_889025" data-name="Trazado 889025" d="M307.164,324.5h-3.129a.346.346,0,0,1,.346.346v5.566a.346.346,0,0,1-.346.346h3.129a.346.346,0,0,0,.346-.346v-5.566A.346.346,0,0,0,307.164,324.5Z" transform="translate(-272.323 -290.653)" fill="#fe5ca7"/>
        <g id="Grupo_1104576" data-name="Grupo 1104576" transform="translate(0 0)">
          <path id="Trazado_889026" data-name="Trazado 889026" d="M83.21,468a.782.782,0,0,0,0,1.565h1.4a.782.782,0,0,0,0-1.565Z" transform="translate(-73.836 -419.186)"/>
          <path id="Trazado_889027" data-name="Trazado 889027" d="M123.4,468a.782.782,0,0,0,0,1.565h1.4a.782.782,0,0,0,0-1.565Z" transform="translate(-109.83 -419.186)"/>
          <path id="Trazado_889028" data-name="Trazado 889028" d="M51.127,0H38.262a2.28,2.28,0,0,0-2.277,2.277V22.113H26.6v-10.9a3.023,3.023,0,0,0-3.01-3.028H8.623a.782.782,0,0,0,0,1.565H23.587a1.456,1.456,0,0,1,1.446,1.463V27.527a1.456,1.456,0,0,1-1.446,1.463H18.849a1.24,1.24,0,0,0-1.034.554L15.8,32.567l-2.014-3.022a1.24,1.24,0,0,0-1.034-.554H3.01a1.456,1.456,0,0,1-1.446-1.463V11.216A1.456,1.456,0,0,1,3.01,9.752h1.9a.782.782,0,0,0,0-1.565H3.01A3.023,3.023,0,0,0,0,11.216V27.527a3.023,3.023,0,0,0,3.01,3.028H6.571V44.486a2.849,2.849,0,0,0,.315,1.3H4.9a1.619,1.619,0,0,0-1.617,1.617v2.921A3.081,3.081,0,0,0,6.363,53.4H34.316a.782.782,0,0,0,0-1.565H6.363A1.514,1.514,0,0,1,4.85,50.327V47.406a.052.052,0,0,1,.052-.052H20.131v1.134A1.81,1.81,0,0,0,21.939,50.3h7.336a1.81,1.81,0,0,0,1.808-1.808V47.354H46.311a.052.052,0,0,1,.052.052v2.921a1.514,1.514,0,0,1-1.512,1.512H38A.782.782,0,0,0,38,53.4h6.849a3.081,3.081,0,0,0,3.077-3.077v-.083h1.846A2.547,2.547,0,0,0,52.317,47.7v-9.43a2.527,2.527,0,0,0-.745-1.8l-1.217-1.217a3.044,3.044,0,0,1-.9-2.167V29.414h1.669A2.28,2.28,0,0,0,53.4,27.137V2.277A2.28,2.28,0,0,0,51.127,0ZM29.518,48.488a.244.244,0,0,1-.243.243H21.939a.244.244,0,0,1-.243-.243V47.375h7.823v1.113ZM38.262,1.565H51.127a.713.713,0,0,1,.713.713V23.364H37.55V2.277a.713.713,0,0,1,.713-.713ZM35.985,23.677v1.565H26.6V23.677ZM14.961,34.126a1.017,1.017,0,0,0,1.683,0l2.379-3.571h4.565a3.023,3.023,0,0,0,3.01-3.028v-.721h9.387v.33a2.28,2.28,0,0,0,2.277,2.277h1.686V42.661H11.265V30.555h1.317ZM9.44,45.79a1.305,1.305,0,0,1-1.3-1.3V30.555H9.7v12.6a1.073,1.073,0,0,0,1.072,1.072H40.442a1.073,1.073,0,0,0,1.072-1.072V29.414h1.565V44.486a1.305,1.305,0,0,1-1.3,1.3Zm39.809-9.429,1.217,1.217a.973.973,0,0,1,.287.692V47.7a.98.98,0,0,1-.979.979H47.928V47.406a1.619,1.619,0,0,0-1.617-1.617H44.328a2.85,2.85,0,0,0,.315-1.3V29.414h3.251v3.674A4.6,4.6,0,0,0,49.249,36.361Zm1.878-8.512H38.262a.713.713,0,0,1-.713-.713V24.929h14.29v2.208a.713.713,0,0,1-.713.713Z" transform="translate(0 0)"/>
          <path id="Trazado_889029" data-name="Trazado 889029" d="M390.765,46.458l3.245,2.6a.782.782,0,0,0,1.127-.157l3.552-5A.782.782,0,0,0,397.414,43l-3.072,4.326-2.6-2.084a.782.782,0,0,0-.979,1.22Z" transform="translate(-349.742 -38.216)"/>
          <path id="Trazado_889030" data-name="Trazado 889030" d="M388.331,135.065h3.494a.782.782,0,0,0,0-1.565h-3.494A.782.782,0,0,0,388.331,135.065Z" transform="translate(-347.131 -119.575)"/>
          <path id="Trazado_889031" data-name="Trazado 889031" d="M388.331,159.065h6.832a.782.782,0,0,0,0-1.565h-6.832A.782.782,0,0,0,388.331,159.065Z" transform="translate(-347.131 -141.072)"/>
          <path id="Trazado_889032" data-name="Trazado 889032" d="M388.331,183.065h6.832a.782.782,0,0,0,0-1.565h-6.832A.782.782,0,0,0,388.331,183.065Z" transform="translate(-347.131 -162.569)"/>
          <path id="Trazado_889033" data-name="Trazado 889033" d="M100.721,165.337a2.555,2.555,0,1,0-2.555-2.555A2.558,2.558,0,0,0,100.721,165.337Zm0-3.546a.991.991,0,1,1-.991.991A.992.992,0,0,1,100.721,161.791Z" transform="translate(-87.927 -143.529)"/>
          <path id="Trazado_889034" data-name="Trazado 889034" d="M55.753,124.932a1.723,1.723,0,0,0,.09,1.325l.991,2a1.738,1.738,0,0,0,2.325.783l.64-.317v.712a1.737,1.737,0,0,0,1.735,1.735h2.231a1.736,1.736,0,0,0,1.734-1.734v-.713l.64.317a1.738,1.738,0,0,0,2.325-.783l.992-2a1.736,1.736,0,0,0-.477-2.132,1.736,1.736,0,0,0,.477-2.132l-.991-2a1.738,1.738,0,0,0-2.326-.783l-.64.317v-.713a1.736,1.736,0,0,0-1.734-1.734H61.535a1.737,1.737,0,0,0-1.735,1.735v.712l-.64-.317a1.738,1.738,0,0,0-2.326.783l-.991,2a1.736,1.736,0,0,0,.477,2.133A1.721,1.721,0,0,0,55.753,124.932Zm2.215-1.7-.647-.321a.17.17,0,0,1-.077-.228l.991-2a.171.171,0,0,1,.229-.077l1.468.728a.991.991,0,0,0,1.431-.888v-1.637a.171.171,0,0,1,.171-.171h2.231a.17.17,0,0,1,.17.17v1.637a.991.991,0,0,0,1.431.888l1.468-.728a.171.171,0,0,1,.229.077l.991,2a.17.17,0,0,1-.077.228l-.647.321a1,1,0,0,0,0,1.775l.648.321a.165.165,0,0,1,.076.227l-.992,2a.171.171,0,0,1-.229.077l-1.469-.728a.991.991,0,0,0-1.431.888v1.637a.17.17,0,0,1-.17.17H61.535a.171.171,0,0,1-.171-.171v-1.637a.991.991,0,0,0-1.431-.888l-1.469.728a.171.171,0,0,1-.229-.077l-.991-2a.17.17,0,0,1,.077-.228l.647-.321a1,1,0,0,0,0-1.775Z" transform="translate(-49.856 -104.872)"/>
          <path id="Trazado_889035" data-name="Trazado 889035" d="M237.274,324.823h9.082a1.13,1.13,0,0,0,1.129-1.129v-5.566A1.13,1.13,0,0,0,246.355,317h-9.082a1.13,1.13,0,0,0-1.129,1.129v5.566A1.13,1.13,0,0,0,237.274,324.823Zm.436-6.258h8.21v4.694h-8.21Z" transform="translate(-211.514 -283.935)"/>
        </g>
      </g>
      <g id="search_3449662" transform="translate(271.169 182.408)">
        <g id="Grupo_1104583" data-name="Grupo 1104583" transform="translate(0.777 0.777)">
          <g id="Grupo_1104579" data-name="Grupo 1104579" transform="translate(0 4.457)">
            <g id="Grupo_1104578" data-name="Grupo 1104578">
              <path id="Trazado_889036" data-name="Trazado 889036" d="M55.851,86H10.606A3.106,3.106,0,0,1,7.5,82.891V53.651a3.106,3.106,0,0,1,3.106-3.106H55.851a3.106,3.106,0,0,1,3.106,3.106v29.24A3.106,3.106,0,0,1,55.851,86Z" transform="translate(-7.5 -50.545)" fill="#506d90"/>
              <path id="Trazado_889037" data-name="Trazado 889037" d="M447.606,50.545H444.5a3.106,3.106,0,0,1,3.106,3.106v29.24A3.106,3.106,0,0,1,444.5,86h3.106a3.106,3.106,0,0,0,3.106-3.106V53.651A3.106,3.106,0,0,0,447.606,50.545Z" transform="translate(-399.255 -50.545)" fill="#455f7e"/>
              <path id="Trazado_889038" data-name="Trazado 889038" d="M37.5,107.818V80.959a.414.414,0,0,1,.414-.414H82.331a.414.414,0,0,1,.414.414v26.859a.414.414,0,0,1-.414.414H37.914A.414.414,0,0,1,37.5,107.818Z" transform="translate(-34.394 -77.439)" fill="#ecf5ff"/>
              <path id="Trazado_889039" data-name="Trazado 889039" d="M37.5,107.818V80.959a.414.414,0,0,1,.414-.414H82.331a.414.414,0,0,1,.414.414v26.859a.414.414,0,0,1-.414.414H37.914A.414.414,0,0,1,37.5,107.818Z" transform="translate(-34.394 -77.439)" fill="#ecf5ff"/>
              <path id="Trazado_889040" data-name="Trazado 889040" d="M443.606,80.545H440.5a.414.414,0,0,1,.414.414v26.859a.414.414,0,0,1-.414.414h3.106a.414.414,0,0,0,.414-.414V80.959A.414.414,0,0,0,443.606,80.545Z" transform="translate(-395.669 -77.439)" fill="#dbeafd"/>
              <path id="Trazado_889041" data-name="Trazado 889041" d="M216.716,404.51H206.457l1.553-11.548h7.153Z" transform="translate(-185.858 -357.51)" fill="#455f7e"/>
              <path id="Trazado_889042" data-name="Trazado 889042" d="M263.649,392.962h-3.106L262.1,404.51H265.2Z" transform="translate(-234.344 -357.51)" fill="#405972"/>
              <path id="Trazado_889043" data-name="Trazado 889043" d="M194.809,451.022l1.094,3.943a.828.828,0,0,1-.8,1.05H181.076a.828.828,0,0,1-.8-1.05l1.094-3.943a.828.828,0,0,1,.8-.607h11.842A.828.828,0,0,1,194.809,451.022Z" transform="translate(-162.362 -409.014)" fill="#506d90"/>
              <path id="Trazado_889044" data-name="Trazado 889044" d="M288.184,454.965l-1.094-3.943a.828.828,0,0,0-.8-.607h-3.106a.828.828,0,0,1,.8.607l1.094,3.943a.828.828,0,0,1-.8,1.05h3.106A.828.828,0,0,0,288.184,454.965Z" transform="translate(-254.643 -409.014)" fill="#455f7e"/>
            </g>
          </g>
          <path id="Trazado_889045" data-name="Trazado 889045" d="M112.01,67.5h29.816V96.538H112.01Z" transform="translate(-101.19 -61.288)" fill="#f7f6f7"/>
          <path id="Trazado_889046" data-name="Trazado 889046" d="M369.99,67.5H373.1V96.538H369.99Z" transform="translate(-332.459 -61.288)" fill="#e2d8ec"/>
          <path id="Trazado_889047" data-name="Trazado 889047" d="M140.584,7.5H113.252a1.242,1.242,0,0,0-1.242,1.242v4.97h29.816V8.742A1.242,1.242,0,0,0,140.584,7.5Z" transform="translate(-101.189 -7.5)" fill="#455f7e"/>
          <path id="Trazado_889048" data-name="Trazado 889048" d="M361.1,7.5H357.99a1.242,1.242,0,0,1,1.242,1.242v4.97h3.106V8.742A1.242,1.242,0,0,0,361.1,7.5Z" transform="translate(-321.702 -7.5)" fill="#405972"/>
          <g id="Grupo_1104582" data-name="Grupo 1104582" transform="translate(0 6.183)">
            <g id="Grupo_1104580" data-name="Grupo 1104580" transform="translate(0 20.906)">
              <path id="Trazado_889049" data-name="Trazado 889049" d="M0,0H4.025V8.46H0Z" transform="matrix(-0.866, -0.5, 0.5, -0.866, 11.187, 9.339)" fill="#506d90"/>
              <path id="Trazado_889050" data-name="Trazado 889050" d="M9.246,338a3.491,3.491,0,0,0,4.769-1.278L20.2,326.013a1.478,1.478,0,0,0-.541-2.02l-3.486-2.013a1.478,1.478,0,0,0-2.02.541L7.968,333.227A3.491,3.491,0,0,0,9.246,338Z" transform="translate(-7.5 -316.332)" fill="#e3a76a"/>
              <path id="Trazado_889051" data-name="Trazado 889051" d="M36.444,323.994l-3.486-2.013a1.478,1.478,0,0,0-2.02.541l-.037.065,2.437,1.407a1.478,1.478,0,0,1,.541,2.02L27.7,336.718a3.474,3.474,0,0,1-1.47,1.381,3.491,3.491,0,0,0,4.576-1.381l6.181-10.705A1.478,1.478,0,0,0,36.444,323.994Z" transform="translate(-24.29 -316.332)" fill="#d79956"/>
            </g>
            <g id="Grupo_1104581" data-name="Grupo 1104581" transform="translate(3.305 0)">
              <circle id="Elipse_11876" data-name="Elipse 11876" cx="11.094" cy="11.094" r="11.094" transform="translate(0 20.369) rotate(-66.613)" fill="#cae0ff"/>
              <path id="Trazado_889052" data-name="Trazado 889052" d="M166.878,101.095a11.139,11.139,0,0,0-1.553.109,11.094,11.094,0,0,1,0,21.97,11.094,11.094,0,1,0,1.553-22.08Z" transform="translate(-152.29 -97.588)" fill="#bcd7fd"/>
              <circle id="Elipse_11877" data-name="Elipse 11877" cx="6.859" cy="6.859" r="6.859" transform="translate(6.291 9.594) rotate(-13.939)" fill="#ecf5ff"/>
              <path id="Trazado_889053" data-name="Trazado 889053" d="M166.878,142a6.844,6.844,0,0,0-1.553.18,6.858,6.858,0,0,1,0,13.36A6.859,6.859,0,1,0,166.878,142Z" transform="translate(-152.29 -134.257)" fill="#dbeafd"/>
            </g>
          </g>
        </g>
        <path id="Trazado_889054" data-name="Trazado 889054" d="M20.915,3.106a.777.777,0,1,0,.777.777A.777.777,0,0,0,20.915,3.106Zm28.212,1.35H42.19V2.019A2.021,2.021,0,0,0,40.171,0H12.839A2.021,2.021,0,0,0,10.82,2.019V4.456H3.883A3.887,3.887,0,0,0,0,8.339v29.24a3.858,3.858,0,0,0,2.416,3.6L.572,44.372A4.268,4.268,0,0,0,7.964,48.64l4.144-7.178h9.933l-.591,4.4h-.865a1.609,1.609,0,0,0-1.547,1.176l-1.094,3.943a1.6,1.6,0,0,0,1.546,2.034H33.519a1.6,1.6,0,0,0,1.547-2.034l-1.094-3.943a1.609,1.609,0,0,0-1.547-1.176H31.56l-.591-4.4H49.127a3.887,3.887,0,0,0,3.883-3.883V8.339a3.887,3.887,0,0,0-3.883-3.883ZM42.19,9.115h6.161V35.25H42.19Zm-29.816-7.1a.466.466,0,0,1,.466-.466H40.171a.466.466,0,0,1,.466.466V6.212H12.373Zm6.3,9.224A10.318,10.318,0,1,1,8.618,19.228a.776.776,0,1,0-1.513-.351,11.982,11.982,0,0,0,3.383,11.278l-1.4,2.42a2.265,2.265,0,0,0-2.338,1.093L5.839,35.25H4.659V9.115H10.82v3.539A12.018,12.018,0,0,0,8.6,15.282a.777.777,0,1,0,1.317.824,10.256,10.256,0,0,1,8.754-4.862ZM13.838,32.4l-1.191,2.063L10.505,33.23,11.7,31.164A11.886,11.886,0,0,0,13.838,32.4ZM1.553,37.579V8.339a2.332,2.332,0,0,1,2.33-2.33H10.82V7.562H4.3A1.192,1.192,0,0,0,3.106,8.753V35.612A1.192,1.192,0,0,0,4.3,36.8h.646l-1.735,3a2.347,2.347,0,0,1-1.655-2.228ZM12.8,37.158,6.619,47.863a2.714,2.714,0,1,1-4.7-2.714L8.1,34.444a.7.7,0,0,1,.954-.259l0,0,.007,0,3.47,2,.009.005,0,0a.7.7,0,0,1,.253.956ZM32.426,47.41a.052.052,0,0,1,.05.038h0l1.094,3.943a.058.058,0,0,1-.05.066H19.491a.057.057,0,0,1-.05-.066l1.094-3.943a.052.052,0,0,1,.05-.038H32.426Zm-9.409-1.553.591-4.4H29.4l.591,4.4Zm28.441-8.278a2.332,2.332,0,0,1-2.33,2.33H13l1.14-1.974a2.233,2.233,0,0,0,.3-1.132H33.209a.777.777,0,1,0,0-1.553H13.987l1.328-2.3a11.87,11.87,0,1,0-2.942-21.456V7.765H40.637V35.25h-3.8a.777.777,0,1,0,0,1.553h11.88A1.192,1.192,0,0,0,49.9,35.612V8.753a1.192,1.192,0,0,0-1.191-1.191H42.19V6.009h6.938a2.332,2.332,0,0,1,2.33,2.33ZM14.7,3.106a.777.777,0,1,0,.777.777A.777.777,0,0,0,14.7,3.106Zm3.106,0a.777.777,0,1,0,.777.777A.777.777,0,0,0,17.809,3.106Zm20.5,12.966h-6a.777.777,0,0,0,0,1.553h6a.777.777,0,1,0,0-1.553Zm0,4.659H33.028a.777.777,0,1,0,0,1.553h5.279a.777.777,0,1,0,0-1.553ZM18.67,29.2a7.636,7.636,0,1,0-7.636-7.636A7.645,7.645,0,0,0,18.67,29.2Zm0-13.719a6.083,6.083,0,1,1-6.083,6.083,6.09,6.09,0,0,1,6.083-6.083ZM38.307,25.39H32.2a.777.777,0,0,0,0,1.553h6.108a.777.777,0,1,0,0-1.553Zm.777-13.2a.776.776,0,0,0-.777-.777h-8.85a.777.777,0,0,0,0,1.553h8.85A.776.776,0,0,0,39.084,12.189Zm0,18.636a.776.776,0,0,0-.777-.777h-8.85a.777.777,0,0,0,0,1.553h8.85A.776.776,0,0,0,39.084,30.826Z" transform="translate(0)"/>
      </g>
      <g id="data-analytics_11357414" transform="translate(238.505 316.804)">
        <g id="Grupo_1104585" data-name="Grupo 1104585" transform="translate(4.828 3.96)">
          <path id="Trazado_889055" data-name="Trazado 889055" d="M44.906,84H86.236a1.455,1.455,0,0,1,1.445,1.457v30.208H43.465V85.457A1.454,1.454,0,0,1,44.906,84Z" transform="translate(-43.465 -84)" fill="#505778" fill-rule="evenodd"/>
        </g>
        <g id="Grupo_1104586" data-name="Grupo 1104586" transform="translate(8.244 7.406)">
          <path id="Trazado_889056" data-name="Trazado 889056" d="M73.866,114.666h37.38v24.255H73.866Z" transform="translate(-73.866 -114.666)" fill="#d7f1ff" fill-rule="evenodd"/>
        </g>
        <g id="Grupo_1104587" data-name="Grupo 1104587" transform="translate(46.177 3.96)">
          <path id="Trazado_889057" data-name="Trazado 889057" d="M411.445,84h1.422a1.455,1.455,0,0,1,1.445,1.457v30.208h-1.425V85.457A1.454,1.454,0,0,0,411.445,84Z" transform="translate(-411.445 -84)" fill="#464e6e" fill-rule="evenodd"/>
        </g>
        <g id="Grupo_1104588" data-name="Grupo 1104588" transform="translate(0.846 35.107)">
          <path id="Trazado_889058" data-name="Trazado 889058" d="M10.312,365.793H57.1a2.3,2.3,0,0,0,2.282-2.3v-2.3H8.03v2.3A2.3,2.3,0,0,0,10.312,365.793Z" transform="translate(-8.03 -361.187)" fill="#464e6e" fill-rule="evenodd"/>
        </g>
        <g id="Grupo_1104589" data-name="Grupo 1104589" transform="translate(1.173 35.107)">
          <path id="Trazado_889059" data-name="Trazado 889059" d="M12.89,365.793H59.675a2.3,2.3,0,0,0,2.282-2.3v-2.3H60.435v1.226a2.3,2.3,0,0,1-2.282,2.3H11.368a2.12,2.12,0,0,1-.433-.042A2.283,2.283,0,0,0,12.89,365.793Z" transform="translate(-10.935 -361.187)" fill="#3f4663" fill-rule="evenodd"/>
        </g>
        <g id="Grupo_1104590" data-name="Grupo 1104590" transform="translate(31.39 27.713)">
          <path id="Trazado_889060" data-name="Trazado 889060" d="M304.816,312.746V296.063a.688.688,0,0,0-.2-.482.651.651,0,0,0-.468-.2H280.518a.651.651,0,0,0-.468.2.689.689,0,0,0-.2.482v16.683a.688.688,0,0,0,.2.482.651.651,0,0,0,.468.2h23.634a.65.65,0,0,0,.468-.2A.689.689,0,0,0,304.816,312.746Z" transform="translate(-279.854 -295.38)" fill="#d7f1ff"/>
        </g>
        <path id="Trazado_889061" data-name="Trazado 889061" d="M400.617,318.627a1.87,1.87,0,1,0,1.867,1.87A1.872,1.872,0,0,0,400.617,318.627Z" transform="translate(-353.997 -288.302)" fill="#05e39c"/>
        <path id="Trazado_889062" data-name="Trazado 889062" d="M447.228,359.122a1.833,1.833,0,1,0,1.833,1.833A1.834,1.834,0,0,0,447.228,359.122Z" transform="translate(-395.406 -324.247)" fill="#fed402"/>
        <path id="Trazado_889063" data-name="Trazado 889063" d="M349.8,397.388a1.857,1.857,0,1,0,1.856,1.856A1.86,1.86,0,0,0,349.8,397.388Z" transform="translate(-308.897 -358.213)" fill="#f04524"/>
        <path id="Trazado_889064" data-name="Trazado 889064" d="M305.246,358a1.766,1.766,0,1,0,1.765,1.768A1.77,1.77,0,0,0,305.246,358Z" transform="translate(-269.433 -323.251)" fill="#01d0fb"/>
        <g id="Grupo_1104593" data-name="Grupo 1104593" transform="translate(13.486 18.111)">
          <g id="Grupo_1104591" data-name="Grupo 1104591" transform="translate(0 0)">
            <path id="Trazado_889065" data-name="Trazado 889065" d="M120.516,209.935h4.29v5.934h-4.29Z" transform="translate(-120.516 -209.935)" fill="#f04524" fill-rule="evenodd"/>
          </g>
          <g id="Grupo_1104592" data-name="Grupo 1104592" transform="translate(0 0)">
            <path id="Trazado_889066" data-name="Trazado 889066" d="M120.516,209.935h1.664v5.934h-1.664Z" transform="translate(-120.516 -209.935)" fill="#d90d17" fill-rule="evenodd"/>
          </g>
        </g>
        <g id="Grupo_1104596" data-name="Grupo 1104596" transform="translate(20.797 14.826)">
          <g id="Grupo_1104594" data-name="Grupo 1104594">
            <path id="Trazado_889067" data-name="Trazado 889067" d="M185.582,180.7h4.29v9.219h-4.29Z" transform="translate(-185.582 -180.7)" fill="#fed402" fill-rule="evenodd"/>
          </g>
          <g id="Grupo_1104595" data-name="Grupo 1104595">
            <path id="Trazado_889068" data-name="Trazado 889068" d="M185.582,180.7h1.664v9.219h-1.664Z" transform="translate(-185.582 -180.7)" fill="#fac600" fill-rule="evenodd"/>
          </g>
        </g>
        <g id="Grupo_1104599" data-name="Grupo 1104599" transform="translate(28.26 0.477)">
          <g id="Grupo_1104597" data-name="Grupo 1104597" transform="translate(0 0)">
            <path id="Trazado_889069" data-name="Trazado 889069" d="M252,53h4.135V76.568H252Z" transform="translate(-252 -53)" fill="#05e39c" fill-rule="evenodd"/>
          </g>
          <g id="Grupo_1104598" data-name="Grupo 1104598" transform="translate(0 0)">
            <path id="Trazado_889070" data-name="Trazado 889070" d="M252,53h1.607V76.568H252Z" transform="translate(-252 -53)" fill="#0ed290" fill-rule="evenodd"/>
          </g>
        </g>
        <g id="Grupo_1104602" data-name="Grupo 1104602" transform="translate(35.417 12.177)">
          <g id="Grupo_1104600" data-name="Grupo 1104600">
            <path id="Trazado_889071" data-name="Trazado 889071" d="M315.686,157.125h4.29v11.868h-4.29Z" transform="translate(-315.686 -157.125)" fill="#01d0fb" fill-rule="evenodd"/>
          </g>
          <g id="Grupo_1104601" data-name="Grupo 1104601">
            <path id="Trazado_889072" data-name="Trazado 889072" d="M315.686,157.125h1.664v11.868h-1.664Z" transform="translate(-315.686 -157.125)" fill="#01c0fa" fill-rule="evenodd"/>
          </g>
        </g>
        <g id="Grupo_1104603" data-name="Grupo 1104603" transform="translate(31.39 27.713)">
          <path id="Trazado_889073" data-name="Trazado 889073" d="M303.754,295.4a.7.7,0,0,0-.148-.017H280.5a.653.653,0,0,0-.649.649V311.89a.653.653,0,0,0,.649.649h1.035a.636.636,0,0,1-.306-.175.646.646,0,0,1-.191-.458V296.045a.645.645,0,0,1,.191-.458.637.637,0,0,1,.455-.191Z" transform="translate(-279.853 -295.379)" fill="#c4e4f5"/>
        </g>
        <path id="Trazado_889074" data-name="Trazado 889074" d="M55.675,75.2h-5.12V54.371A2.256,2.256,0,0,0,48.3,52.12H34.051V49.557a.8.8,0,0,0-.8-.8h-4.23a.8.8,0,0,0-.8.8V52.12H6.757A2.256,2.256,0,0,0,4.5,54.371V83.159H1.3a.8.8,0,0,0-.8.8v2.294a3.1,3.1,0,0,0,3.1,3.1H29.158a.8.8,0,1,0,0-1.605H3.6a1.5,1.5,0,0,1-1.494-1.494V84.764H29.158a.8.8,0,0,0,0-1.605H6.108V54.371a.649.649,0,0,1,.65-.646H28.216v1.829H8.739a.8.8,0,0,0-.8.8V80.524a.8.8,0,0,0,.8.8H29.158a.8.8,0,0,0,0-1.605H9.541V57.159H28.216V72.386H26.841V64.1a.8.8,0,0,0-.8-.8h-4.23a.8.8,0,0,0-.8.8v8.288H19.632V67.337a.8.8,0,0,0-.8-.8H14.6a.8.8,0,0,0-.8.8v5.049H12.462a.8.8,0,0,0,0,1.605H42.591a.8.8,0,0,0,0-1.605H41.256v-10.9a.8.8,0,0,0-.8-.8h-4.23a.8.8,0,0,0-.8.8v10.9H34.05V57.159H45.515V73.711a.8.8,0,1,0,1.605,0V56.356a.8.8,0,0,0-.8-.8H34.051V53.725H48.3a.649.649,0,0,1,.65.646V75.2H32.894a2.248,2.248,0,0,0-2.245,2.245v15.64a2.248,2.248,0,0,0,2.245,2.245H55.675a2.248,2.248,0,0,0,2.245-2.245V77.444A2.248,2.248,0,0,0,55.675,75.2ZM15.4,72.386V68.14h2.625v4.246Zm7.209,0V64.9h2.625v7.485Zm14.415-10.1h2.625v10.1H37.026Zm-7.206,10.1V50.359h2.625V72.386Zm26.494,20.7a.641.641,0,0,1-.64.64H32.894a.648.648,0,0,1-.64-.64V77.444a.648.648,0,0,1,.64-.64H55.675a.641.641,0,0,1,.64.64Zm-4.025-9.63a1.983,1.983,0,0,0-.87.2l-2.483-2.113a2,2,0,1,0-3.275.788l-3.7,5.577a1.981,1.981,0,0,0-1.495.154l-2.4-1.905A2.013,2.013,0,1,0,36.8,87.2l2.677,2.125a2,2,0,1,0,3.726-.37l4.02-6.066a1.982,1.982,0,0,0,.627-.159l2.528,2.152a2,2,0,1,0,1.912-1.422ZM47.049,80.5a.395.395,0,1,1-.4.4A.4.4,0,0,1,47.049,80.5ZM35.886,85.264a.4.4,0,1,1,.4.4A.4.4,0,0,1,35.886,85.264Zm5.523,4.961a.4.4,0,1,1,0-.793.4.4,0,0,1,0,.793Zm10.88-4.376a.395.395,0,1,1,.4-.4A.4.4,0,0,1,52.289,85.849ZM10.652,61.4a.8.8,0,0,1,.8-.8h2.8a.8.8,0,1,1,0,1.605h-2.8A.8.8,0,0,1,10.652,61.4Zm0-2.43a.8.8,0,0,1,.8-.8h2.8a.8.8,0,1,1,0,1.605h-2.8A.8.8,0,0,1,10.652,58.975ZM34.463,81.707a.8.8,0,1,1,0-1.605h2.8a.8.8,0,0,1,0,1.605Zm-.8-3.233a.8.8,0,0,1,.8-.8h2.8a.8.8,0,0,1,0,1.605h-2.8A.8.8,0,0,1,33.661,78.474Z" transform="translate(-0.5 -48.754)"/>
      </g>
      <text id="Actividades_diseño_algoritmo" data-name="Actividades  
diseño algoritmo" transform="translate(101 201.002)" fill="#fff" font-size="22" font-family="Roboto-Bold, Roboto" font-weight="700"><tspan x="-63.621" y="0" xml:space="preserve">Actividades  </tspan><tspan x="-83.537" y="29">diseño algoritmo</tspan></text>
      <path id="Trazado_890689" data-name="Trazado 890689" d="M1.32,15V3.625H4.531a5.169,5.169,0,0,1,2.625.656A4.438,4.438,0,0,1,8.918,6.148,6.078,6.078,0,0,1,9.547,8.93v.727a6.1,6.1,0,0,1-.621,2.82,4.369,4.369,0,0,1-1.773,1.859A5.5,5.5,0,0,1,4.469,15ZM2.82,4.852v8.922H4.4a3.434,3.434,0,0,0,2.7-1.079,4.458,4.458,0,0,0,.965-3.073V8.957a4.529,4.529,0,0,0-.91-3.014A3.239,3.239,0,0,0,4.57,4.852Zm12.273,10.3a3.693,3.693,0,0,1-2.8-1.129,4.19,4.19,0,0,1-1.078-3.02v-.266A5.073,5.073,0,0,1,11.7,8.5a3.748,3.748,0,0,1,1.344-1.547,3.378,3.378,0,0,1,1.871-.559,3.166,3.166,0,0,1,2.563,1.086,4.7,4.7,0,0,1,.914,3.109v.6H12.664a3,3,0,0,0,.73,2.02,2.3,2.3,0,0,0,1.777.77,2.517,2.517,0,0,0,1.3-.312,3.259,3.259,0,0,0,.93-.828l.883.688A3.55,3.55,0,0,1,15.094,15.156Zm-.18-7.578a1.928,1.928,0,0,0-1.469.637A3.1,3.1,0,0,0,12.711,10h4.234V9.891a2.753,2.753,0,0,0-.594-1.707A1.815,1.815,0,0,0,14.914,7.578ZM20.547,15V7.664H19.211V6.547h1.336V5.828a2.937,2.937,0,0,1,.809-2.2,3.136,3.136,0,0,1,2.285-.789,6.881,6.881,0,0,1,2.211.477l-.242,1.219a5.008,5.008,0,0,0-1.859-.391,1.819,1.819,0,0,0-1.34.418A1.723,1.723,0,0,0,22,5.813v.734h1.727V7.664H22V15Zm6.023,0H25.117V6.547H26.57Zm3.719-8.453.047,1.063a3.08,3.08,0,0,1,2.531-1.219q2.68,0,2.7,3.023V15H34.125V9.406a1.946,1.946,0,0,0-.418-1.352,1.675,1.675,0,0,0-1.277-.437,2.086,2.086,0,0,0-1.234.375,2.546,2.546,0,0,0-.828.984V15H28.922V6.547ZM39.32,15H37.875V6.547H39.32ZM37.758,4.3a.863.863,0,0,1,.215-.594.807.807,0,0,1,.637-.242.819.819,0,0,1,.641.242.854.854,0,0,1,.219.594.826.826,0,0,1-.219.586.834.834,0,0,1-.641.234.821.821,0,0,1-.637-.234A.834.834,0,0,1,37.758,4.3Zm7.961,3.539a4.331,4.331,0,0,0-.711-.055A1.9,1.9,0,0,0,43.078,9v6H41.633V6.547h1.406l.023.977a2.251,2.251,0,0,1,2.016-1.133,1.477,1.477,0,0,1,.641.109ZM52.578,15H51.133V3h1.445Zm7.531,0a3.036,3.036,0,0,1-.2-.891A3.225,3.225,0,0,1,57.5,15.156a2.984,2.984,0,0,1-2.051-.707,2.287,2.287,0,0,1-.8-1.793,2.39,2.39,0,0,1,1-2.051,4.733,4.733,0,0,1,2.824-.73h1.406V9.211A1.623,1.623,0,0,0,59.43,8a1.821,1.821,0,0,0-1.336-.449,2.107,2.107,0,0,0-1.3.391,1.151,1.151,0,0,0-.523.945H54.82a2,2,0,0,1,.449-1.223,3.066,3.066,0,0,1,1.219-.934,4.1,4.1,0,0,1,1.691-.344,3.342,3.342,0,0,1,2.289.73,2.635,2.635,0,0,1,.859,2.012v3.891a4.757,4.757,0,0,0,.3,1.852V15Zm-2.4-1.1A2.54,2.54,0,0,0,59,13.547a2.127,2.127,0,0,0,.883-.914V10.9H58.75q-2.656,0-2.656,1.555a1.316,1.316,0,0,0,.453,1.063A1.742,1.742,0,0,0,57.711,13.9Zm10.8-1.141a1.064,1.064,0,0,0-.441-.91,4.249,4.249,0,0,0-1.539-.559,7.277,7.277,0,0,1-1.742-.562,2.479,2.479,0,0,1-.953-.781,1.869,1.869,0,0,1-.309-1.078,2.193,2.193,0,0,1,.879-1.758,3.432,3.432,0,0,1,2.246-.719,3.532,3.532,0,0,1,2.332.742,2.357,2.357,0,0,1,.895,1.9H68.43a1.3,1.3,0,0,0-.5-1.023,1.888,1.888,0,0,0-1.27-.43,1.976,1.976,0,0,0-1.234.344,1.082,1.082,0,0,0-.445.9.877.877,0,0,0,.414.789,5.1,5.1,0,0,0,1.5.508,7.8,7.8,0,0,1,1.754.578,2.558,2.558,0,0,1,1,.809,1.988,1.988,0,0,1,.324,1.152,2.163,2.163,0,0,1-.906,1.816,3.8,3.8,0,0,1-2.352.684,4.257,4.257,0,0,1-1.8-.359,2.922,2.922,0,0,1-1.223-1,2.42,2.42,0,0,1-.441-1.395h1.445a1.5,1.5,0,0,0,.582,1.152,2.258,2.258,0,0,0,1.434.426,2.331,2.331,0,0,0,1.316-.332A1.02,1.02,0,0,0,68.516,12.758Zm14.43-1.891a5.062,5.062,0,0,1-.883,3.109,2.829,2.829,0,0,1-2.391,1.18,3.1,3.1,0,0,1-2.422-.977v4.07H75.8V6.547h1.32l.07.938a2.977,2.977,0,0,1,2.453-1.094,2.882,2.882,0,0,1,2.41,1.148,5.117,5.117,0,0,1,.887,3.2ZM81.5,10.7a3.735,3.735,0,0,0-.609-2.258,1.963,1.963,0,0,0-1.672-.828A2.125,2.125,0,0,0,77.25,8.781V12.82a2.129,2.129,0,0,0,1.984,1.156,1.954,1.954,0,0,0,1.652-.824A4.077,4.077,0,0,0,81.5,10.7ZM90,15a3.036,3.036,0,0,1-.2-.891,3.225,3.225,0,0,1-2.406,1.047,2.984,2.984,0,0,1-2.051-.707,2.288,2.288,0,0,1-.8-1.793,2.39,2.39,0,0,1,1-2.051,4.733,4.733,0,0,1,2.824-.73h1.406V9.211A1.623,1.623,0,0,0,89.32,8a1.821,1.821,0,0,0-1.336-.449,2.108,2.108,0,0,0-1.3.391,1.151,1.151,0,0,0-.523.945H84.711a2,2,0,0,1,.449-1.223,3.066,3.066,0,0,1,1.219-.934,4.1,4.1,0,0,1,1.691-.344,3.342,3.342,0,0,1,2.289.73,2.635,2.635,0,0,1,.859,2.012v3.891a4.757,4.757,0,0,0,.3,1.852V15Zm-2.4-1.1a2.54,2.54,0,0,0,1.289-.352,2.127,2.127,0,0,0,.883-.914V10.9H88.641q-2.656,0-2.656,1.555a1.316,1.316,0,0,0,.453,1.063A1.742,1.742,0,0,0,87.6,13.9ZM97.57,7.844a4.331,4.331,0,0,0-.711-.055A1.9,1.9,0,0,0,94.93,9v6H93.484V6.547h1.406l.023.977A2.251,2.251,0,0,1,96.93,6.391a1.477,1.477,0,0,1,.641.109ZM101.25,4.5V6.547h1.578V7.664H101.25v5.249a1.173,1.173,0,0,0,.211.763.888.888,0,0,0,.719.254,3.5,3.5,0,0,0,.688-.094V15a4.215,4.215,0,0,1-1.109.155,1.8,1.8,0,0,1-1.461-.586,2.517,2.517,0,0,1-.492-1.664V7.664H98.266V6.547H99.8V4.5Zm6.773,10.656a3.693,3.693,0,0,1-2.8-1.129,4.19,4.19,0,0,1-1.078-3.02v-.266a5.073,5.073,0,0,1,.48-2.246,3.748,3.748,0,0,1,1.344-1.547,3.378,3.378,0,0,1,1.871-.559,3.166,3.166,0,0,1,2.563,1.086,4.7,4.7,0,0,1,.914,3.109v.6h-5.727a3,3,0,0,0,.73,2.02,2.3,2.3,0,0,0,1.777.77,2.517,2.517,0,0,0,1.3-.312,3.259,3.259,0,0,0,.93-.828l.883.688A3.55,3.55,0,0,1,108.023,15.156Zm-.18-7.578a1.928,1.928,0,0,0-1.469.637A3.1,3.1,0,0,0,105.641,10h4.234V9.891a2.753,2.753,0,0,0-.594-1.707A1.815,1.815,0,0,0,107.844,7.578Zm10.07,5.18a1.064,1.064,0,0,0-.441-.91,4.249,4.249,0,0,0-1.539-.559,7.277,7.277,0,0,1-1.742-.562,2.479,2.479,0,0,1-.953-.781,1.869,1.869,0,0,1-.309-1.078,2.193,2.193,0,0,1,.879-1.758,3.432,3.432,0,0,1,2.246-.719,3.532,3.532,0,0,1,2.332.742,2.357,2.357,0,0,1,.895,1.9h-1.453a1.3,1.3,0,0,0-.5-1.023,1.888,1.888,0,0,0-1.27-.43,1.976,1.976,0,0,0-1.234.344,1.082,1.082,0,0,0-.445.9.877.877,0,0,0,.414.789,5.1,5.1,0,0,0,1.5.508,7.8,7.8,0,0,1,1.754.578,2.558,2.558,0,0,1,1,.809,1.988,1.988,0,0,1,.324,1.152,2.163,2.163,0,0,1-.906,1.816,3.8,3.8,0,0,1-2.352.684,4.257,4.257,0,0,1-1.8-.359,2.922,2.922,0,0,1-1.223-1,2.42,2.42,0,0,1-.441-1.395h1.445a1.5,1.5,0,0,0,.582,1.152,2.258,2.258,0,0,0,1.434.426,2.331,2.331,0,0,0,1.316-.332A1.02,1.02,0,0,0,117.914,12.758Zm6.938-2.055a4.952,4.952,0,0,1,.922-3.129,3.137,3.137,0,0,1,4.766-.168V3h1.445V15h-1.328l-.07-.906a2.943,2.943,0,0,1-2.414,1.063,2.887,2.887,0,0,1-2.395-1.2,5.008,5.008,0,0,1-.926-3.141Zm1.445.164a3.749,3.749,0,0,0,.594,2.25,1.92,1.92,0,0,0,1.641.813,2.108,2.108,0,0,0,2.008-1.234V8.813a2.125,2.125,0,0,0-1.992-1.2,1.929,1.929,0,0,0-1.656.82A4.128,4.128,0,0,0,126.3,10.867Zm11.438,4.289a3.693,3.693,0,0,1-2.8-1.129,4.19,4.19,0,0,1-1.078-3.02v-.266a5.073,5.073,0,0,1,.48-2.246,3.748,3.748,0,0,1,1.344-1.547,3.378,3.378,0,0,1,1.871-.559,3.166,3.166,0,0,1,2.563,1.086,4.7,4.7,0,0,1,.914,3.109v.6H135.3a3,3,0,0,0,.73,2.02,2.3,2.3,0,0,0,1.777.77,2.517,2.517,0,0,0,1.3-.312,3.258,3.258,0,0,0,.93-.828l.883.688A3.55,3.55,0,0,1,137.734,15.156Zm-.18-7.578a1.928,1.928,0,0,0-1.469.637A3.1,3.1,0,0,0,135.352,10h4.234V9.891a2.753,2.753,0,0,0-.594-1.707A1.815,1.815,0,0,0,137.555,7.578ZM144.273,15h-1.445V3h1.445ZM6.313,36a3.036,3.036,0,0,1-.2-.891A3.225,3.225,0,0,1,3.7,36.156a2.984,2.984,0,0,1-2.051-.707,2.287,2.287,0,0,1-.8-1.793,2.39,2.39,0,0,1,1-2.051,4.733,4.733,0,0,1,2.824-.73H6.086v-.664A1.623,1.623,0,0,0,5.633,29,1.821,1.821,0,0,0,4.3,28.555a2.108,2.108,0,0,0-1.3.391,1.151,1.151,0,0,0-.523.945H1.023a2,2,0,0,1,.449-1.223,3.066,3.066,0,0,1,1.219-.934,4.1,4.1,0,0,1,1.691-.344,3.342,3.342,0,0,1,2.289.73,2.635,2.635,0,0,1,.859,2.012v3.891a4.757,4.757,0,0,0,.3,1.852V36Zm-2.4-1.1A2.54,2.54,0,0,0,5.2,34.547a2.127,2.127,0,0,0,.883-.914V31.9H4.953Q2.3,31.9,2.3,33.453a1.316,1.316,0,0,0,.453,1.063A1.742,1.742,0,0,0,3.914,34.9ZM11.367,36H9.922V24h1.445Zm1.969-4.3a4.968,4.968,0,0,1,.914-3.145,2.923,2.923,0,0,1,2.422-1.168,2.908,2.908,0,0,1,2.414,1.094l.07-.937h1.32V35.8a3.439,3.439,0,0,1-.973,2.586,3.589,3.589,0,0,1-2.613.945,4.348,4.348,0,0,1-1.789-.391,3.08,3.08,0,0,1-1.336-1.07l.75-.867a2.826,2.826,0,0,0,2.273,1.148,2.214,2.214,0,0,0,1.645-.594,2.269,2.269,0,0,0,.59-1.672v-.727a2.971,2.971,0,0,1-2.367,1,2.887,2.887,0,0,1-2.4-1.2A5.224,5.224,0,0,1,13.336,31.7Zm1.453.164a3.79,3.79,0,0,0,.586,2.246,1.9,1.9,0,0,0,1.641.816,2.117,2.117,0,0,0,2.008-1.242V29.828a2.142,2.142,0,0,0-1.992-1.211,1.921,1.921,0,0,0-1.648.82A4.128,4.128,0,0,0,14.789,31.867Zm7.484-.172a4.993,4.993,0,0,1,.488-2.234,3.643,3.643,0,0,1,1.359-1.531,3.7,3.7,0,0,1,1.988-.539,3.565,3.565,0,0,1,2.793,1.2,4.6,4.6,0,0,1,1.066,3.18v.1a5.036,5.036,0,0,1-.473,2.215,3.589,3.589,0,0,1-1.352,1.527,3.743,3.743,0,0,1-2.02.547,3.556,3.556,0,0,1-2.785-1.2A4.575,4.575,0,0,1,22.273,31.8Zm1.453.172a3.616,3.616,0,0,0,.652,2.258,2.211,2.211,0,0,0,3.5-.012,3.955,3.955,0,0,0,.648-2.418,3.61,3.61,0,0,0-.66-2.254,2.1,2.1,0,0,0-1.754-.863,2.075,2.075,0,0,0-1.727.852A3.925,3.925,0,0,0,23.727,31.867Zm12.141-3.023a4.331,4.331,0,0,0-.711-.055A1.9,1.9,0,0,0,33.227,30v6H31.781V27.547h1.406l.023.977a2.251,2.251,0,0,1,2.016-1.133,1.477,1.477,0,0,1,.641.109ZM38.766,36H37.32V27.547h1.445ZM37.2,25.3a.863.863,0,0,1,.215-.594.807.807,0,0,1,.637-.242.819.819,0,0,1,.641.242.854.854,0,0,1,.219.594.826.826,0,0,1-.219.586.834.834,0,0,1-.641.234.821.821,0,0,1-.637-.234A.834.834,0,0,1,37.2,25.3Zm5.836.2v2.047h1.578v1.117H43.039v5.249a1.173,1.173,0,0,0,.211.763.888.888,0,0,0,.719.254,3.5,3.5,0,0,0,.688-.094V36a4.215,4.215,0,0,1-1.109.155,1.8,1.8,0,0,1-1.461-.586,2.517,2.517,0,0,1-.492-1.664V28.664H40.055V27.547h1.539V25.5Zm4.625,2.047.039.938a3.122,3.122,0,0,1,2.508-1.094,2.417,2.417,0,0,1,2.414,1.359,3.2,3.2,0,0,1,1.1-.984,3.242,3.242,0,0,1,1.6-.375q2.781,0,2.828,2.945V36H56.7V30.422a1.941,1.941,0,0,0-.414-1.355,1.823,1.823,0,0,0-1.391-.449,1.916,1.916,0,0,0-1.336.48,1.949,1.949,0,0,0-.617,1.293V36H51.492V30.461a1.613,1.613,0,0,0-1.8-1.844,1.934,1.934,0,0,0-1.945,1.211V36H46.3V27.547ZM59.945,31.7a4.993,4.993,0,0,1,.488-2.234,3.643,3.643,0,0,1,1.359-1.531,3.7,3.7,0,0,1,1.988-.539,3.565,3.565,0,0,1,2.793,1.2,4.6,4.6,0,0,1,1.066,3.18v.1a5.036,5.036,0,0,1-.473,2.215,3.589,3.589,0,0,1-1.352,1.527,3.743,3.743,0,0,1-2.02.547,3.556,3.556,0,0,1-2.785-1.2A4.575,4.575,0,0,1,59.945,31.8Zm1.453.172a3.616,3.616,0,0,0,.652,2.258,2.211,2.211,0,0,0,3.5-.012A3.955,3.955,0,0,0,66.2,31.7a3.61,3.61,0,0,0-.66-2.254,2.1,2.1,0,0,0-1.754-.863,2.075,2.075,0,0,0-1.727.852A3.925,3.925,0,0,0,61.4,31.867Z" transform="translate(325.516 34.219)" fill="#12263f"/>
      <path id="Trazado_890690" data-name="Trazado 890690" d="M1.32,15V3.625H4.531a5.169,5.169,0,0,1,2.625.656A4.438,4.438,0,0,1,8.918,6.148,6.078,6.078,0,0,1,9.547,8.93v.727a6.1,6.1,0,0,1-.621,2.82,4.369,4.369,0,0,1-1.773,1.859A5.5,5.5,0,0,1,4.469,15ZM2.82,4.852v8.922H4.4a3.434,3.434,0,0,0,2.7-1.079,4.458,4.458,0,0,0,.965-3.073V8.957a4.529,4.529,0,0,0-.91-3.014A3.239,3.239,0,0,0,4.57,4.852Zm12.273,10.3a3.693,3.693,0,0,1-2.8-1.129,4.19,4.19,0,0,1-1.078-3.02v-.266A5.073,5.073,0,0,1,11.7,8.5a3.748,3.748,0,0,1,1.344-1.547,3.378,3.378,0,0,1,1.871-.559,3.166,3.166,0,0,1,2.563,1.086,4.7,4.7,0,0,1,.914,3.109v.6H12.664a3,3,0,0,0,.73,2.02,2.3,2.3,0,0,0,1.777.77,2.517,2.517,0,0,0,1.3-.312,3.259,3.259,0,0,0,.93-.828l.883.688A3.55,3.55,0,0,1,15.094,15.156Zm-.18-7.578a1.928,1.928,0,0,0-1.469.637A3.1,3.1,0,0,0,12.711,10h4.234V9.891a2.753,2.753,0,0,0-.594-1.707A1.815,1.815,0,0,0,14.914,7.578ZM20.547,15V7.664H19.211V6.547h1.336V5.828a2.937,2.937,0,0,1,.809-2.2,3.136,3.136,0,0,1,2.285-.789,6.881,6.881,0,0,1,2.211.477l-.242,1.219a5.008,5.008,0,0,0-1.859-.391,1.819,1.819,0,0,0-1.34.418A1.723,1.723,0,0,0,22,5.813v.734h1.727V7.664H22V15Zm6.023,0H25.117V6.547H26.57Zm3.719-8.453.047,1.063a3.08,3.08,0,0,1,2.531-1.219q2.68,0,2.7,3.023V15H34.125V9.406a1.946,1.946,0,0,0-.418-1.352,1.675,1.675,0,0,0-1.277-.437,2.086,2.086,0,0,0-1.234.375,2.546,2.546,0,0,0-.828.984V15H28.922V6.547ZM39.32,15H37.875V6.547H39.32ZM37.758,4.3a.863.863,0,0,1,.215-.594.807.807,0,0,1,.637-.242.819.819,0,0,1,.641.242.854.854,0,0,1,.219.594.826.826,0,0,1-.219.586.834.834,0,0,1-.641.234.821.821,0,0,1-.637-.234A.834.834,0,0,1,37.758,4.3Zm7.961,3.539a4.331,4.331,0,0,0-.711-.055A1.9,1.9,0,0,0,43.078,9v6H41.633V6.547h1.406l.023.977a2.251,2.251,0,0,1,2.016-1.133,1.477,1.477,0,0,1,.641.109ZM52.578,15H51.133V3h1.445Zm7.531,0a3.036,3.036,0,0,1-.2-.891A3.225,3.225,0,0,1,57.5,15.156a2.984,2.984,0,0,1-2.051-.707,2.287,2.287,0,0,1-.8-1.793,2.39,2.39,0,0,1,1-2.051,4.733,4.733,0,0,1,2.824-.73h1.406V9.211A1.623,1.623,0,0,0,59.43,8a1.821,1.821,0,0,0-1.336-.449,2.107,2.107,0,0,0-1.3.391,1.151,1.151,0,0,0-.523.945H54.82a2,2,0,0,1,.449-1.223,3.066,3.066,0,0,1,1.219-.934,4.1,4.1,0,0,1,1.691-.344,3.342,3.342,0,0,1,2.289.73,2.635,2.635,0,0,1,.859,2.012v3.891a4.757,4.757,0,0,0,.3,1.852V15Zm-2.4-1.1A2.54,2.54,0,0,0,59,13.547a2.127,2.127,0,0,0,.883-.914V10.9H58.75q-2.656,0-2.656,1.555a1.316,1.316,0,0,0,.453,1.063A1.742,1.742,0,0,0,57.711,13.9Zm10.8-1.141a1.064,1.064,0,0,0-.441-.91,4.249,4.249,0,0,0-1.539-.559,7.277,7.277,0,0,1-1.742-.562,2.479,2.479,0,0,1-.953-.781,1.869,1.869,0,0,1-.309-1.078,2.193,2.193,0,0,1,.879-1.758,3.432,3.432,0,0,1,2.246-.719,3.532,3.532,0,0,1,2.332.742,2.357,2.357,0,0,1,.895,1.9H68.43a1.3,1.3,0,0,0-.5-1.023,1.888,1.888,0,0,0-1.27-.43,1.976,1.976,0,0,0-1.234.344,1.082,1.082,0,0,0-.445.9.877.877,0,0,0,.414.789,5.1,5.1,0,0,0,1.5.508,7.8,7.8,0,0,1,1.754.578,2.558,2.558,0,0,1,1,.809,1.988,1.988,0,0,1,.324,1.152,2.163,2.163,0,0,1-.906,1.816,3.8,3.8,0,0,1-2.352.684,4.257,4.257,0,0,1-1.8-.359,2.922,2.922,0,0,1-1.223-1,2.42,2.42,0,0,1-.441-1.395h1.445a1.5,1.5,0,0,0,.582,1.152,2.258,2.258,0,0,0,1.434.426,2.331,2.331,0,0,0,1.316-.332A1.02,1.02,0,0,0,68.516,12.758Zm14.43-1.891a5.062,5.062,0,0,1-.883,3.109,2.829,2.829,0,0,1-2.391,1.18,3.1,3.1,0,0,1-2.422-.977v4.07H75.8V6.547h1.32l.07.938a2.977,2.977,0,0,1,2.453-1.094,2.882,2.882,0,0,1,2.41,1.148,5.117,5.117,0,0,1,.887,3.2ZM81.5,10.7a3.735,3.735,0,0,0-.609-2.258,1.963,1.963,0,0,0-1.672-.828A2.125,2.125,0,0,0,77.25,8.781V12.82a2.129,2.129,0,0,0,1.984,1.156,1.954,1.954,0,0,0,1.652-.824A4.077,4.077,0,0,0,81.5,10.7ZM90,15a3.036,3.036,0,0,1-.2-.891,3.225,3.225,0,0,1-2.406,1.047,2.984,2.984,0,0,1-2.051-.707,2.288,2.288,0,0,1-.8-1.793,2.39,2.39,0,0,1,1-2.051,4.733,4.733,0,0,1,2.824-.73h1.406V9.211A1.623,1.623,0,0,0,89.32,8a1.821,1.821,0,0,0-1.336-.449,2.108,2.108,0,0,0-1.3.391,1.151,1.151,0,0,0-.523.945H84.711a2,2,0,0,1,.449-1.223,3.066,3.066,0,0,1,1.219-.934,4.1,4.1,0,0,1,1.691-.344,3.342,3.342,0,0,1,2.289.73,2.635,2.635,0,0,1,.859,2.012v3.891a4.757,4.757,0,0,0,.3,1.852V15Zm-2.4-1.1a2.54,2.54,0,0,0,1.289-.352,2.127,2.127,0,0,0,.883-.914V10.9H88.641q-2.656,0-2.656,1.555a1.316,1.316,0,0,0,.453,1.063A1.742,1.742,0,0,0,87.6,13.9ZM97.57,7.844a4.331,4.331,0,0,0-.711-.055A1.9,1.9,0,0,0,94.93,9v6H93.484V6.547h1.406l.023.977A2.251,2.251,0,0,1,96.93,6.391a1.477,1.477,0,0,1,.641.109ZM101.25,4.5V6.547h1.578V7.664H101.25v5.249a1.173,1.173,0,0,0,.211.763.888.888,0,0,0,.719.254,3.5,3.5,0,0,0,.688-.094V15a4.215,4.215,0,0,1-1.109.155,1.8,1.8,0,0,1-1.461-.586,2.517,2.517,0,0,1-.492-1.664V7.664H98.266V6.547H99.8V4.5Zm6.773,10.656a3.693,3.693,0,0,1-2.8-1.129,4.19,4.19,0,0,1-1.078-3.02v-.266a5.073,5.073,0,0,1,.48-2.246,3.748,3.748,0,0,1,1.344-1.547,3.378,3.378,0,0,1,1.871-.559,3.166,3.166,0,0,1,2.563,1.086,4.7,4.7,0,0,1,.914,3.109v.6h-5.727a3,3,0,0,0,.73,2.02,2.3,2.3,0,0,0,1.777.77,2.517,2.517,0,0,0,1.3-.312,3.259,3.259,0,0,0,.93-.828l.883.688A3.55,3.55,0,0,1,108.023,15.156Zm-.18-7.578a1.928,1.928,0,0,0-1.469.637A3.1,3.1,0,0,0,105.641,10h4.234V9.891a2.753,2.753,0,0,0-.594-1.707A1.815,1.815,0,0,0,107.844,7.578Zm10.07,5.18a1.064,1.064,0,0,0-.441-.91,4.249,4.249,0,0,0-1.539-.559,7.277,7.277,0,0,1-1.742-.562,2.479,2.479,0,0,1-.953-.781,1.869,1.869,0,0,1-.309-1.078,2.193,2.193,0,0,1,.879-1.758,3.432,3.432,0,0,1,2.246-.719,3.532,3.532,0,0,1,2.332.742,2.357,2.357,0,0,1,.895,1.9h-1.453a1.3,1.3,0,0,0-.5-1.023,1.888,1.888,0,0,0-1.27-.43,1.976,1.976,0,0,0-1.234.344,1.082,1.082,0,0,0-.445.9.877.877,0,0,0,.414.789,5.1,5.1,0,0,0,1.5.508,7.8,7.8,0,0,1,1.754.578,2.558,2.558,0,0,1,1,.809,1.988,1.988,0,0,1,.324,1.152,2.163,2.163,0,0,1-.906,1.816,3.8,3.8,0,0,1-2.352.684,4.257,4.257,0,0,1-1.8-.359,2.922,2.922,0,0,1-1.223-1,2.42,2.42,0,0,1-.441-1.395h1.445a1.5,1.5,0,0,0,.582,1.152,2.258,2.258,0,0,0,1.434.426,2.331,2.331,0,0,0,1.316-.332A1.02,1.02,0,0,0,117.914,12.758Zm6.938-2.055a4.952,4.952,0,0,1,.922-3.129,3.137,3.137,0,0,1,4.766-.168V3h1.445V15h-1.328l-.07-.906a2.943,2.943,0,0,1-2.414,1.063,2.887,2.887,0,0,1-2.395-1.2,5.008,5.008,0,0,1-.926-3.141Zm1.445.164a3.749,3.749,0,0,0,.594,2.25,1.92,1.92,0,0,0,1.641.813,2.108,2.108,0,0,0,2.008-1.234V8.813a2.125,2.125,0,0,0-1.992-1.2,1.929,1.929,0,0,0-1.656.82A4.128,4.128,0,0,0,126.3,10.867Zm11.438,4.289a3.693,3.693,0,0,1-2.8-1.129,4.19,4.19,0,0,1-1.078-3.02v-.266a5.073,5.073,0,0,1,.48-2.246,3.748,3.748,0,0,1,1.344-1.547,3.378,3.378,0,0,1,1.871-.559,3.166,3.166,0,0,1,2.563,1.086,4.7,4.7,0,0,1,.914,3.109v.6H135.3a3,3,0,0,0,.73,2.02,2.3,2.3,0,0,0,1.777.77,2.517,2.517,0,0,0,1.3-.312,3.258,3.258,0,0,0,.93-.828l.883.688A3.55,3.55,0,0,1,137.734,15.156Zm-.18-7.578a1.928,1.928,0,0,0-1.469.637A3.1,3.1,0,0,0,135.352,10h4.234V9.891a2.753,2.753,0,0,0-.594-1.707A1.815,1.815,0,0,0,137.555,7.578ZM144.273,15h-1.445V3h1.445ZM6.313,36a3.036,3.036,0,0,1-.2-.891A3.225,3.225,0,0,1,3.7,36.156a2.984,2.984,0,0,1-2.051-.707,2.287,2.287,0,0,1-.8-1.793,2.39,2.39,0,0,1,1-2.051,4.733,4.733,0,0,1,2.824-.73H6.086v-.664A1.623,1.623,0,0,0,5.633,29,1.821,1.821,0,0,0,4.3,28.555a2.108,2.108,0,0,0-1.3.391,1.151,1.151,0,0,0-.523.945H1.023a2,2,0,0,1,.449-1.223,3.066,3.066,0,0,1,1.219-.934,4.1,4.1,0,0,1,1.691-.344,3.342,3.342,0,0,1,2.289.73,2.635,2.635,0,0,1,.859,2.012v3.891a4.757,4.757,0,0,0,.3,1.852V36Zm-2.4-1.1A2.54,2.54,0,0,0,5.2,34.547a2.127,2.127,0,0,0,.883-.914V31.9H4.953Q2.3,31.9,2.3,33.453a1.316,1.316,0,0,0,.453,1.063A1.742,1.742,0,0,0,3.914,34.9ZM11.367,36H9.922V24h1.445Zm1.969-4.3a4.968,4.968,0,0,1,.914-3.145,2.923,2.923,0,0,1,2.422-1.168,2.908,2.908,0,0,1,2.414,1.094l.07-.937h1.32V35.8a3.439,3.439,0,0,1-.973,2.586,3.589,3.589,0,0,1-2.613.945,4.348,4.348,0,0,1-1.789-.391,3.08,3.08,0,0,1-1.336-1.07l.75-.867a2.826,2.826,0,0,0,2.273,1.148,2.214,2.214,0,0,0,1.645-.594,2.269,2.269,0,0,0,.59-1.672v-.727a2.971,2.971,0,0,1-2.367,1,2.887,2.887,0,0,1-2.4-1.2A5.224,5.224,0,0,1,13.336,31.7Zm1.453.164a3.79,3.79,0,0,0,.586,2.246,1.9,1.9,0,0,0,1.641.816,2.117,2.117,0,0,0,2.008-1.242V29.828a2.142,2.142,0,0,0-1.992-1.211,1.921,1.921,0,0,0-1.648.82A4.128,4.128,0,0,0,14.789,31.867Zm7.484-.172a4.993,4.993,0,0,1,.488-2.234,3.643,3.643,0,0,1,1.359-1.531,3.7,3.7,0,0,1,1.988-.539,3.565,3.565,0,0,1,2.793,1.2,4.6,4.6,0,0,1,1.066,3.18v.1a5.036,5.036,0,0,1-.473,2.215,3.589,3.589,0,0,1-1.352,1.527,3.743,3.743,0,0,1-2.02.547,3.556,3.556,0,0,1-2.785-1.2A4.575,4.575,0,0,1,22.273,31.8Zm1.453.172a3.616,3.616,0,0,0,.652,2.258,2.211,2.211,0,0,0,3.5-.012,3.955,3.955,0,0,0,.648-2.418,3.61,3.61,0,0,0-.66-2.254,2.1,2.1,0,0,0-1.754-.863,2.075,2.075,0,0,0-1.727.852A3.925,3.925,0,0,0,23.727,31.867Zm12.141-3.023a4.331,4.331,0,0,0-.711-.055A1.9,1.9,0,0,0,33.227,30v6H31.781V27.547h1.406l.023.977a2.251,2.251,0,0,1,2.016-1.133,1.477,1.477,0,0,1,.641.109ZM38.766,36H37.32V27.547h1.445ZM37.2,25.3a.863.863,0,0,1,.215-.594.807.807,0,0,1,.637-.242.819.819,0,0,1,.641.242.854.854,0,0,1,.219.594.826.826,0,0,1-.219.586.834.834,0,0,1-.641.234.821.821,0,0,1-.637-.234A.834.834,0,0,1,37.2,25.3Zm5.836.2v2.047h1.578v1.117H43.039v5.249a1.173,1.173,0,0,0,.211.763.888.888,0,0,0,.719.254,3.5,3.5,0,0,0,.688-.094V36a4.215,4.215,0,0,1-1.109.155,1.8,1.8,0,0,1-1.461-.586,2.517,2.517,0,0,1-.492-1.664V28.664H40.055V27.547h1.539V25.5Zm4.625,2.047.039.938a3.122,3.122,0,0,1,2.508-1.094,2.417,2.417,0,0,1,2.414,1.359,3.2,3.2,0,0,1,1.1-.984,3.242,3.242,0,0,1,1.6-.375q2.781,0,2.828,2.945V36H56.7V30.422a1.941,1.941,0,0,0-.414-1.355,1.823,1.823,0,0,0-1.391-.449,1.916,1.916,0,0,0-1.336.48,1.949,1.949,0,0,0-.617,1.293V36H51.492V30.461a1.613,1.613,0,0,0-1.8-1.844,1.934,1.934,0,0,0-1.945,1.211V36H46.3V27.547ZM59.945,31.7a4.993,4.993,0,0,1,.488-2.234,3.643,3.643,0,0,1,1.359-1.531,3.7,3.7,0,0,1,1.988-.539,3.565,3.565,0,0,1,2.793,1.2,4.6,4.6,0,0,1,1.066,3.18v.1a5.036,5.036,0,0,1-.473,2.215,3.589,3.589,0,0,1-1.352,1.527,3.743,3.743,0,0,1-2.02.547,3.556,3.556,0,0,1-2.785-1.2A4.575,4.575,0,0,1,59.945,31.8Zm1.453.172a3.616,3.616,0,0,0,.652,2.258,2.211,2.211,0,0,0,3.5-.012A3.955,3.955,0,0,0,66.2,31.7a3.61,3.61,0,0,0-.66-2.254,2.1,2.1,0,0,0-1.754-.863,2.075,2.075,0,0,0-1.727.852A3.925,3.925,0,0,0,61.4,31.867Z" transform="translate(370 187.002)" fill="#12263f"/>
      <path id="Trazado_890691" data-name="Trazado 890691" d="M2.828,13.773H8.219V15H1.32V3.625H2.828ZM14.922,15a3.036,3.036,0,0,1-.2-.891,3.225,3.225,0,0,1-2.406,1.047,2.984,2.984,0,0,1-2.051-.707,2.287,2.287,0,0,1-.8-1.793,2.39,2.39,0,0,1,1-2.051,4.733,4.733,0,0,1,2.824-.73H14.7V9.211A1.623,1.623,0,0,0,14.242,8a1.821,1.821,0,0,0-1.336-.449,2.107,2.107,0,0,0-1.3.391,1.151,1.151,0,0,0-.523.945H9.633a2,2,0,0,1,.449-1.223A3.066,3.066,0,0,1,11.3,6.734a4.1,4.1,0,0,1,1.691-.344,3.342,3.342,0,0,1,2.289.73,2.635,2.635,0,0,1,.859,2.012v3.891a4.757,4.757,0,0,0,.3,1.852V15Zm-2.4-1.1a2.54,2.54,0,0,0,1.289-.352,2.127,2.127,0,0,0,.883-.914V10.9H13.563q-2.656,0-2.656,1.555a1.316,1.316,0,0,0,.453,1.063A1.742,1.742,0,0,0,12.523,13.9Zm13.93-6.055a4.331,4.331,0,0,0-.711-.055A1.9,1.9,0,0,0,23.813,9v6H22.367V6.547h1.406l.023.977a2.251,2.251,0,0,1,2.016-1.133,1.477,1.477,0,0,1,.641.109Zm4.688,7.313a3.693,3.693,0,0,1-2.8-1.129,4.19,4.19,0,0,1-1.078-3.02v-.266a5.073,5.073,0,0,1,.48-2.246A3.748,3.748,0,0,1,29.09,6.949a3.378,3.378,0,0,1,1.871-.559,3.166,3.166,0,0,1,2.563,1.086,4.7,4.7,0,0,1,.914,3.109v.6H28.711a3,3,0,0,0,.73,2.02,2.3,2.3,0,0,0,1.777.77,2.517,2.517,0,0,0,1.3-.312,3.259,3.259,0,0,0,.93-.828l.883.688A3.55,3.55,0,0,1,31.141,15.156Zm-.18-7.578a1.928,1.928,0,0,0-1.469.637A3.1,3.1,0,0,0,28.758,10h4.234V9.891A2.753,2.753,0,0,0,32.4,8.184,1.815,1.815,0,0,0,30.961,7.578ZM43.25,10.867a5.062,5.062,0,0,1-.883,3.109,2.829,2.829,0,0,1-2.391,1.18,3.1,3.1,0,0,1-2.422-.977v4.07H36.109V6.547h1.32l.07.938a2.977,2.977,0,0,1,2.453-1.094,2.882,2.882,0,0,1,2.41,1.148,5.117,5.117,0,0,1,.887,3.2ZM41.8,10.7A3.735,3.735,0,0,0,41.2,8.445a1.963,1.963,0,0,0-1.672-.828,2.125,2.125,0,0,0-1.969,1.164V12.82a2.129,2.129,0,0,0,1.984,1.156,1.954,1.954,0,0,0,1.652-.824A4.077,4.077,0,0,0,41.8,10.7Zm7.367-2.859a4.331,4.331,0,0,0-.711-.055A1.9,1.9,0,0,0,46.531,9v6H45.086V6.547h1.406l.023.977a2.251,2.251,0,0,1,2.016-1.133,1.477,1.477,0,0,1,.641.109Zm4.688,7.313a3.693,3.693,0,0,1-2.8-1.129,4.19,4.19,0,0,1-1.078-3.02v-.266a5.073,5.073,0,0,1,.48-2.246,3.748,3.748,0,0,1,1.344-1.547,3.378,3.378,0,0,1,1.871-.559,3.166,3.166,0,0,1,2.563,1.086,4.7,4.7,0,0,1,.914,3.109v.6H51.43a3,3,0,0,0,.73,2.02,2.3,2.3,0,0,0,1.777.77,2.517,2.517,0,0,0,1.3-.312,3.259,3.259,0,0,0,.93-.828l.883.688A3.55,3.55,0,0,1,53.859,15.156Zm-.18-7.578a1.928,1.928,0,0,0-1.469.637A3.1,3.1,0,0,0,51.477,10h4.234V9.891a2.753,2.753,0,0,0-.594-1.707A1.815,1.815,0,0,0,53.68,7.578Zm10.07,5.18a1.064,1.064,0,0,0-.441-.91,4.249,4.249,0,0,0-1.539-.559,7.277,7.277,0,0,1-1.742-.562,2.479,2.479,0,0,1-.953-.781,1.869,1.869,0,0,1-.309-1.078,2.193,2.193,0,0,1,.879-1.758,3.432,3.432,0,0,1,2.246-.719,3.532,3.532,0,0,1,2.332.742,2.357,2.357,0,0,1,.895,1.9H63.664a1.3,1.3,0,0,0-.5-1.023,1.888,1.888,0,0,0-1.27-.43,1.976,1.976,0,0,0-1.234.344,1.082,1.082,0,0,0-.445.9.877.877,0,0,0,.414.789,5.1,5.1,0,0,0,1.5.508,7.8,7.8,0,0,1,1.754.578,2.558,2.558,0,0,1,1,.809,1.988,1.988,0,0,1,.324,1.152,2.163,2.163,0,0,1-.906,1.816,3.8,3.8,0,0,1-2.352.684,4.257,4.257,0,0,1-1.8-.359,2.922,2.922,0,0,1-1.223-1,2.42,2.42,0,0,1-.441-1.395h1.445a1.5,1.5,0,0,0,.582,1.152,2.258,2.258,0,0,0,1.434.426,2.331,2.331,0,0,0,1.316-.332A1.02,1.02,0,0,0,63.75,12.758Zm6.836,2.4a3.693,3.693,0,0,1-2.8-1.129,4.19,4.19,0,0,1-1.078-3.02v-.266a5.073,5.073,0,0,1,.48-2.246,3.748,3.748,0,0,1,1.344-1.547,3.378,3.378,0,0,1,1.871-.559,3.166,3.166,0,0,1,2.563,1.086,4.7,4.7,0,0,1,.914,3.109v.6H68.156a3,3,0,0,0,.73,2.02,2.3,2.3,0,0,0,1.777.77,2.517,2.517,0,0,0,1.3-.312,3.259,3.259,0,0,0,.93-.828l.883.688A3.55,3.55,0,0,1,70.586,15.156Zm-.18-7.578a1.928,1.928,0,0,0-1.469.637A3.1,3.1,0,0,0,68.2,10h4.234V9.891a2.753,2.753,0,0,0-.594-1.707A1.815,1.815,0,0,0,70.406,7.578Zm6.516-1.031.047,1.063A3.08,3.08,0,0,1,79.5,6.391q2.68,0,2.7,3.023V15H80.758V9.406a1.946,1.946,0,0,0-.418-1.352,1.675,1.675,0,0,0-1.277-.437,2.086,2.086,0,0,0-1.234.375A2.546,2.546,0,0,0,77,8.977V15H75.555V6.547ZM86.344,4.5V6.547h1.578V7.664H86.344v5.249a1.173,1.173,0,0,0,.211.763.888.888,0,0,0,.719.254,3.5,3.5,0,0,0,.688-.094V15a4.215,4.215,0,0,1-1.109.155,1.8,1.8,0,0,1-1.461-.586,2.517,2.517,0,0,1-.492-1.664V7.664H83.359V6.547H84.9V4.5ZM94.828,15a3.036,3.036,0,0,1-.2-.891,3.225,3.225,0,0,1-2.406,1.047,2.984,2.984,0,0,1-2.051-.707,2.288,2.288,0,0,1-.8-1.793,2.39,2.39,0,0,1,1-2.051,4.733,4.733,0,0,1,2.824-.73H94.6V9.211A1.623,1.623,0,0,0,94.148,8a1.821,1.821,0,0,0-1.336-.449,2.108,2.108,0,0,0-1.3.391,1.151,1.151,0,0,0-.523.945H89.539a2,2,0,0,1,.449-1.223,3.066,3.066,0,0,1,1.219-.934A4.1,4.1,0,0,1,92.9,6.391a3.342,3.342,0,0,1,2.289.73,2.635,2.635,0,0,1,.859,2.012v3.891a4.757,4.757,0,0,0,.3,1.852V15Zm-2.4-1.1a2.54,2.54,0,0,0,1.289-.352,2.127,2.127,0,0,0,.883-.914V10.9H93.469q-2.656,0-2.656,1.555a1.316,1.316,0,0,0,.453,1.063A1.742,1.742,0,0,0,92.43,13.9Zm9.273.078a2.082,2.082,0,0,0,1.352-.469,1.649,1.649,0,0,0,.641-1.172h1.367a2.621,2.621,0,0,1-.5,1.383,3.293,3.293,0,0,1-1.23,1.047,3.55,3.55,0,0,1-1.629.391A3.482,3.482,0,0,1,98.957,14a4.59,4.59,0,0,1-1.02-3.152v-.242a5.089,5.089,0,0,1,.453-2.2,3.451,3.451,0,0,1,1.3-1.492,3.7,3.7,0,0,1,2-.531,3.39,3.39,0,0,1,2.363.852,3.043,3.043,0,0,1,1,2.211H103.7a1.992,1.992,0,0,0-.621-1.348,1.932,1.932,0,0,0-1.379-.527,2.023,2.023,0,0,0-1.707.793,3.724,3.724,0,0,0-.605,2.293v.273a3.65,3.65,0,0,0,.6,2.25A2.033,2.033,0,0,0,101.7,13.977ZM108.258,15h-1.445V6.547h1.445ZM106.7,4.3a.863.863,0,0,1,.215-.594.807.807,0,0,1,.637-.242.819.819,0,0,1,.641.242.854.854,0,0,1,.219.594.826.826,0,0,1-.219.586.834.834,0,0,1-.641.234.821.821,0,0,1-.637-.234A.834.834,0,0,1,106.7,4.3Zm3.492,6.391a4.993,4.993,0,0,1,.488-2.234,3.643,3.643,0,0,1,1.359-1.531,3.7,3.7,0,0,1,1.988-.539,3.565,3.565,0,0,1,2.793,1.2,4.6,4.6,0,0,1,1.066,3.18v.1a5.036,5.036,0,0,1-.473,2.215,3.589,3.589,0,0,1-1.352,1.527,3.743,3.743,0,0,1-2.02.547,3.556,3.556,0,0,1-2.785-1.2,4.575,4.575,0,0,1-1.066-3.164Zm1.453.172a3.616,3.616,0,0,0,.652,2.258,2.211,2.211,0,0,0,3.5-.012,3.955,3.955,0,0,0,.648-2.418,3.61,3.61,0,0,0-.66-2.254,2.1,2.1,0,0,0-1.754-.863,2.075,2.075,0,0,0-1.727.852A3.925,3.925,0,0,0,111.641,10.867Zm3.039-7.852h1.75l-2.094,2.3-1.164,0Zm6.383,3.531.047,1.063a3.08,3.08,0,0,1,2.531-1.219q2.68,0,2.7,3.023V15H124.9V9.406a1.946,1.946,0,0,0-.418-1.352,1.675,1.675,0,0,0-1.277-.437,2.086,2.086,0,0,0-1.234.375,2.546,2.546,0,0,0-.828.984V15H119.7V6.547Zm11.07,4.156a4.952,4.952,0,0,1,.922-3.129,3.137,3.137,0,0,1,4.766-.168V3h1.445V15h-1.328l-.07-.906a2.943,2.943,0,0,1-2.414,1.063,2.887,2.887,0,0,1-2.395-1.2,5.008,5.008,0,0,1-.926-3.141Zm1.445.164a3.749,3.749,0,0,0,.594,2.25,1.919,1.919,0,0,0,1.641.813A2.108,2.108,0,0,0,137.82,12.7V8.813a2.125,2.125,0,0,0-1.992-1.2,1.929,1.929,0,0,0-1.656.82A4.128,4.128,0,0,0,133.578,10.867Zm11.438,4.289a3.693,3.693,0,0,1-2.8-1.129,4.19,4.19,0,0,1-1.078-3.02v-.266a5.073,5.073,0,0,1,.48-2.246,3.748,3.748,0,0,1,1.344-1.547,3.378,3.378,0,0,1,1.871-.559A3.166,3.166,0,0,1,147.4,7.477a4.7,4.7,0,0,1,.914,3.109v.6h-5.727a3,3,0,0,0,.73,2.02,2.3,2.3,0,0,0,1.777.77,2.517,2.517,0,0,0,1.3-.312,3.258,3.258,0,0,0,.93-.828l.883.688A3.55,3.55,0,0,1,145.016,15.156Zm-.18-7.578a1.928,1.928,0,0,0-1.469.637A3.1,3.1,0,0,0,142.633,10h4.234V9.891a2.753,2.753,0,0,0-.594-1.707A1.815,1.815,0,0,0,144.836,7.578ZM151.555,15h-1.445V3h1.445ZM6.313,36a3.036,3.036,0,0,1-.2-.891A3.225,3.225,0,0,1,3.7,36.156a2.984,2.984,0,0,1-2.051-.707,2.287,2.287,0,0,1-.8-1.793,2.39,2.39,0,0,1,1-2.051,4.733,4.733,0,0,1,2.824-.73H6.086v-.664A1.623,1.623,0,0,0,5.633,29,1.821,1.821,0,0,0,4.3,28.555a2.108,2.108,0,0,0-1.3.391,1.151,1.151,0,0,0-.523.945H1.023a2,2,0,0,1,.449-1.223,3.066,3.066,0,0,1,1.219-.934,4.1,4.1,0,0,1,1.691-.344,3.342,3.342,0,0,1,2.289.73,2.635,2.635,0,0,1,.859,2.012v3.891a4.757,4.757,0,0,0,.3,1.852V36Zm-2.4-1.1A2.54,2.54,0,0,0,5.2,34.547a2.127,2.127,0,0,0,.883-.914V31.9H4.953Q2.3,31.9,2.3,33.453a1.316,1.316,0,0,0,.453,1.063A1.742,1.742,0,0,0,3.914,34.9ZM11.367,36H9.922V24h1.445Zm1.969-4.3a4.968,4.968,0,0,1,.914-3.145,2.923,2.923,0,0,1,2.422-1.168,2.908,2.908,0,0,1,2.414,1.094l.07-.937h1.32V35.8a3.439,3.439,0,0,1-.973,2.586,3.589,3.589,0,0,1-2.613.945,4.348,4.348,0,0,1-1.789-.391,3.08,3.08,0,0,1-1.336-1.07l.75-.867a2.826,2.826,0,0,0,2.273,1.148,2.214,2.214,0,0,0,1.645-.594,2.269,2.269,0,0,0,.59-1.672v-.727a2.971,2.971,0,0,1-2.367,1,2.887,2.887,0,0,1-2.4-1.2A5.224,5.224,0,0,1,13.336,31.7Zm1.453.164a3.79,3.79,0,0,0,.586,2.246,1.9,1.9,0,0,0,1.641.816,2.117,2.117,0,0,0,2.008-1.242V29.828a2.142,2.142,0,0,0-1.992-1.211,1.921,1.921,0,0,0-1.648.82A4.128,4.128,0,0,0,14.789,31.867Zm7.484-.172a4.993,4.993,0,0,1,.488-2.234,3.643,3.643,0,0,1,1.359-1.531,3.7,3.7,0,0,1,1.988-.539,3.565,3.565,0,0,1,2.793,1.2,4.6,4.6,0,0,1,1.066,3.18v.1a5.036,5.036,0,0,1-.473,2.215,3.589,3.589,0,0,1-1.352,1.527,3.743,3.743,0,0,1-2.02.547,3.556,3.556,0,0,1-2.785-1.2A4.575,4.575,0,0,1,22.273,31.8Zm1.453.172a3.616,3.616,0,0,0,.652,2.258,2.211,2.211,0,0,0,3.5-.012,3.955,3.955,0,0,0,.648-2.418,3.61,3.61,0,0,0-.66-2.254,2.1,2.1,0,0,0-1.754-.863,2.075,2.075,0,0,0-1.727.852A3.925,3.925,0,0,0,23.727,31.867Zm12.141-3.023a4.331,4.331,0,0,0-.711-.055A1.9,1.9,0,0,0,33.227,30v6H31.781V27.547h1.406l.023.977a2.251,2.251,0,0,1,2.016-1.133,1.477,1.477,0,0,1,.641.109ZM38.766,36H37.32V27.547h1.445ZM37.2,25.3a.863.863,0,0,1,.215-.594.807.807,0,0,1,.637-.242.819.819,0,0,1,.641.242.854.854,0,0,1,.219.594.826.826,0,0,1-.219.586.834.834,0,0,1-.641.234.821.821,0,0,1-.637-.234A.834.834,0,0,1,37.2,25.3Zm5.836.2v2.047h1.578v1.117H43.039v5.249a1.173,1.173,0,0,0,.211.763.888.888,0,0,0,.719.254,3.5,3.5,0,0,0,.688-.094V36a4.215,4.215,0,0,1-1.109.155,1.8,1.8,0,0,1-1.461-.586,2.517,2.517,0,0,1-.492-1.664V28.664H40.055V27.547h1.539V25.5Zm4.625,2.047.039.938a3.122,3.122,0,0,1,2.508-1.094,2.417,2.417,0,0,1,2.414,1.359,3.2,3.2,0,0,1,1.1-.984,3.242,3.242,0,0,1,1.6-.375q2.781,0,2.828,2.945V36H56.7V30.422a1.941,1.941,0,0,0-.414-1.355,1.823,1.823,0,0,0-1.391-.449,1.916,1.916,0,0,0-1.336.48,1.949,1.949,0,0,0-.617,1.293V36H51.492V30.461a1.613,1.613,0,0,0-1.8-1.844,1.934,1.934,0,0,0-1.945,1.211V36H46.3V27.547ZM59.945,31.7a4.993,4.993,0,0,1,.488-2.234,3.643,3.643,0,0,1,1.359-1.531,3.7,3.7,0,0,1,1.988-.539,3.565,3.565,0,0,1,2.793,1.2,4.6,4.6,0,0,1,1.066,3.18v.1a5.036,5.036,0,0,1-.473,2.215,3.589,3.589,0,0,1-1.352,1.527,3.743,3.743,0,0,1-2.02.547,3.556,3.556,0,0,1-2.785-1.2A4.575,4.575,0,0,1,59.945,31.8Zm1.453.172a3.616,3.616,0,0,0,.652,2.258,2.211,2.211,0,0,0,3.5-.012A3.955,3.955,0,0,0,66.2,31.7a3.61,3.61,0,0,0-.66-2.254,2.1,2.1,0,0,0-1.754-.863,2.075,2.075,0,0,0-1.727.852A3.925,3.925,0,0,0,61.4,31.867Zm11.961-.484a12.079,12.079,0,0,1,.473-3.391,9.849,9.849,0,0,1,1.41-2.953,6,6,0,0,1,1.945-1.875l.3.953a6.222,6.222,0,0,0-1.871,2.672,11.583,11.583,0,0,0-.8,4.023l-.008.664a11.643,11.643,0,0,0,1.1,5.234,6.252,6.252,0,0,0,1.578,2.078l-.3.883A6.192,6.192,0,0,1,75.2,37.734,10.859,10.859,0,0,1,73.359,31.383Zm6.891-3.836.047,1.063a3.08,3.08,0,0,1,2.531-1.219q2.68,0,2.7,3.023V36H84.086V30.406a1.946,1.946,0,0,0-.418-1.352,1.675,1.675,0,0,0-1.277-.437,2.086,2.086,0,0,0-1.234.375,2.546,2.546,0,0,0-.828.984V36H78.883V27.547ZM87.328,31.7a4.993,4.993,0,0,1,.488-2.234,3.643,3.643,0,0,1,1.359-1.531,3.7,3.7,0,0,1,1.988-.539,3.565,3.565,0,0,1,2.793,1.2,4.6,4.6,0,0,1,1.066,3.18v.1a5.036,5.036,0,0,1-.473,2.215A3.589,3.589,0,0,1,93.2,35.609a3.743,3.743,0,0,1-2.02.547,3.556,3.556,0,0,1-2.785-1.2A4.575,4.575,0,0,1,87.328,31.8Zm1.453.172a3.616,3.616,0,0,0,.652,2.258,2.211,2.211,0,0,0,3.5-.012,3.955,3.955,0,0,0,.648-2.418,3.61,3.61,0,0,0-.66-2.254,2.1,2.1,0,0,0-1.754-.863,2.075,2.075,0,0,0-1.727.852A3.925,3.925,0,0,0,88.781,31.867ZM98.8,25.5v2.047h1.578v1.117H98.8v5.249a1.173,1.173,0,0,0,.211.763.888.888,0,0,0,.719.254,3.5,3.5,0,0,0,.688-.094V36a4.215,4.215,0,0,1-1.109.155,1.8,1.8,0,0,1-1.461-.586,2.517,2.517,0,0,1-.492-1.664V28.664H95.813V27.547h1.539V25.5ZM107.281,36a3.036,3.036,0,0,1-.2-.891,3.225,3.225,0,0,1-2.406,1.047,2.984,2.984,0,0,1-2.051-.707,2.288,2.288,0,0,1-.8-1.793,2.39,2.39,0,0,1,1-2.051,4.733,4.733,0,0,1,2.824-.73h1.406v-.664A1.623,1.623,0,0,0,106.6,29a1.821,1.821,0,0,0-1.336-.449,2.108,2.108,0,0,0-1.3.391,1.151,1.151,0,0,0-.523.945h-1.453a2,2,0,0,1,.449-1.223,3.066,3.066,0,0,1,1.219-.934,4.1,4.1,0,0,1,1.691-.344,3.342,3.342,0,0,1,2.289.73,2.635,2.635,0,0,1,.859,2.012v3.891a4.757,4.757,0,0,0,.3,1.852V36Zm-2.4-1.1a2.54,2.54,0,0,0,1.289-.352,2.127,2.127,0,0,0,.883-.914V31.9h-1.133q-2.656,0-2.656,1.555a1.316,1.316,0,0,0,.453,1.063A1.742,1.742,0,0,0,104.883,34.9Zm9.273.078a2.082,2.082,0,0,0,1.352-.469,1.649,1.649,0,0,0,.641-1.172h1.367a2.621,2.621,0,0,1-.5,1.383,3.293,3.293,0,0,1-1.23,1.047,3.55,3.55,0,0,1-1.629.391A3.482,3.482,0,0,1,111.41,35a4.59,4.59,0,0,1-1.02-3.152v-.242a5.089,5.089,0,0,1,.453-2.2,3.451,3.451,0,0,1,1.3-1.492,3.7,3.7,0,0,1,2-.531,3.39,3.39,0,0,1,2.363.852,3.043,3.043,0,0,1,1,2.211h-1.367a1.992,1.992,0,0,0-.621-1.348,1.932,1.932,0,0,0-1.379-.527,2.023,2.023,0,0,0-1.707.793,3.724,3.724,0,0,0-.605,2.293v.273a3.65,3.65,0,0,0,.6,2.25A2.033,2.033,0,0,0,114.156,34.977ZM120.711,36h-1.445V27.547h1.445Zm-1.562-10.7a.863.863,0,0,1,.215-.594.807.807,0,0,1,.637-.242.819.819,0,0,1,.641.242.854.854,0,0,1,.219.594.826.826,0,0,1-.219.586.834.834,0,0,1-.641.234.821.821,0,0,1-.637-.234A.834.834,0,0,1,119.148,25.3Zm3.492,6.391a4.993,4.993,0,0,1,.488-2.234,3.643,3.643,0,0,1,1.359-1.531,3.7,3.7,0,0,1,1.988-.539,3.565,3.565,0,0,1,2.793,1.2,4.6,4.6,0,0,1,1.066,3.18v.1a5.036,5.036,0,0,1-.473,2.215,3.589,3.589,0,0,1-1.352,1.527,3.743,3.743,0,0,1-2.02.547,3.556,3.556,0,0,1-2.785-1.2,4.575,4.575,0,0,1-1.066-3.164Zm1.453.172a3.616,3.616,0,0,0,.652,2.258,2.211,2.211,0,0,0,3.5-.012,3.954,3.954,0,0,0,.648-2.418,3.61,3.61,0,0,0-.66-2.254,2.1,2.1,0,0,0-1.754-.863,2.075,2.075,0,0,0-1.727.852A3.925,3.925,0,0,0,124.094,31.867Zm3.039-7.852h1.75l-2.094,2.3-1.164,0Zm6.383,3.531.047,1.063a3.08,3.08,0,0,1,2.531-1.219q2.68,0,2.7,3.023V36h-1.445V30.406a1.946,1.946,0,0,0-.418-1.352,1.675,1.675,0,0,0-1.277-.437,2.086,2.086,0,0,0-1.234.375,2.546,2.546,0,0,0-.828.984V36h-1.445V27.547Zm7.414,10.719-.82-.562a3.77,3.77,0,0,0,.766-2.109v-1.3h1.414v1.133A3.559,3.559,0,0,1,141.9,37,3.7,3.7,0,0,1,140.93,38.266ZM.742,52.7a4.952,4.952,0,0,1,.922-3.129,2.915,2.915,0,0,1,2.414-1.184A2.932,2.932,0,0,1,6.43,49.406V45H7.875V57H6.547l-.07-.906a2.943,2.943,0,0,1-2.414,1.063,2.887,2.887,0,0,1-2.395-1.2,5.008,5.008,0,0,1-.926-3.141Zm1.445.164a3.749,3.749,0,0,0,.594,2.25,1.92,1.92,0,0,0,1.641.813A2.108,2.108,0,0,0,6.43,54.7V50.813a2.125,2.125,0,0,0-1.992-1.2,1.929,1.929,0,0,0-1.656.82A4.128,4.128,0,0,0,2.188,52.867ZM11.688,57H10.242V48.547h1.445ZM10.125,46.3a.863.863,0,0,1,.215-.594.807.807,0,0,1,.637-.242.819.819,0,0,1,.641.242.854.854,0,0,1,.219.594.826.826,0,0,1-.219.586.834.834,0,0,1-.641.234.821.821,0,0,1-.637-.234A.834.834,0,0,1,10.125,46.3ZM19.219,57a3.036,3.036,0,0,1-.2-.891,3.225,3.225,0,0,1-2.406,1.047,2.984,2.984,0,0,1-2.051-.707,2.287,2.287,0,0,1-.8-1.793,2.39,2.39,0,0,1,1-2.051,4.733,4.733,0,0,1,2.824-.73h1.406v-.664A1.623,1.623,0,0,0,18.539,50a1.821,1.821,0,0,0-1.336-.449,2.107,2.107,0,0,0-1.3.391,1.151,1.151,0,0,0-.523.945H13.93a2,2,0,0,1,.449-1.223,3.066,3.066,0,0,1,1.219-.934,4.1,4.1,0,0,1,1.691-.344,3.342,3.342,0,0,1,2.289.73,2.635,2.635,0,0,1,.859,2.012v3.891a4.757,4.757,0,0,0,.3,1.852V57Zm-2.4-1.1a2.54,2.54,0,0,0,1.289-.352,2.127,2.127,0,0,0,.883-.914V52.9H17.859q-2.656,0-2.656,1.555a1.316,1.316,0,0,0,.453,1.063A1.742,1.742,0,0,0,16.82,55.9Zm5.539-3.2a4.968,4.968,0,0,1,.914-3.145,3.151,3.151,0,0,1,4.836-.074l.07-.937H29.5V56.8a3.439,3.439,0,0,1-.973,2.586,3.589,3.589,0,0,1-2.613.945,4.348,4.348,0,0,1-1.789-.391,3.08,3.08,0,0,1-1.336-1.07l.75-.867a2.826,2.826,0,0,0,2.273,1.148,2.214,2.214,0,0,0,1.645-.594,2.269,2.269,0,0,0,.59-1.672v-.727a2.971,2.971,0,0,1-2.367,1,2.887,2.887,0,0,1-2.4-1.2A5.224,5.224,0,0,1,22.359,52.7Zm1.453.164a3.79,3.79,0,0,0,.586,2.246,1.9,1.9,0,0,0,1.641.816,2.117,2.117,0,0,0,2.008-1.242V50.828a2.142,2.142,0,0,0-1.992-1.211,1.921,1.921,0,0,0-1.648.82A4.128,4.128,0,0,0,23.813,52.867Zm11.953-3.023a4.331,4.331,0,0,0-.711-.055A1.9,1.9,0,0,0,33.125,51v6H31.68V48.547h1.406l.023.977a2.251,2.251,0,0,1,2.016-1.133,1.477,1.477,0,0,1,.641.109ZM42,57a3.036,3.036,0,0,1-.2-.891,3.225,3.225,0,0,1-2.406,1.047,2.984,2.984,0,0,1-2.051-.707,2.287,2.287,0,0,1-.8-1.793,2.39,2.39,0,0,1,1-2.051,4.733,4.733,0,0,1,2.824-.73h1.406v-.664A1.623,1.623,0,0,0,41.32,50a1.821,1.821,0,0,0-1.336-.449,2.107,2.107,0,0,0-1.3.391,1.151,1.151,0,0,0-.523.945H36.711a2,2,0,0,1,.449-1.223,3.066,3.066,0,0,1,1.219-.934,4.1,4.1,0,0,1,1.691-.344,3.342,3.342,0,0,1,2.289.73,2.635,2.635,0,0,1,.859,2.012v3.891a4.757,4.757,0,0,0,.3,1.852V57Zm-2.4-1.1a2.54,2.54,0,0,0,1.289-.352,2.127,2.127,0,0,0,.883-.914V52.9H40.641q-2.656,0-2.656,1.555a1.316,1.316,0,0,0,.453,1.063A1.742,1.742,0,0,0,39.6,55.9Zm7.242-7.352.039.938a3.122,3.122,0,0,1,2.508-1.094A2.417,2.417,0,0,1,51.8,49.75a3.2,3.2,0,0,1,1.1-.984,3.242,3.242,0,0,1,1.6-.375q2.781,0,2.828,2.945V57H55.883V51.422a1.941,1.941,0,0,0-.414-1.355,1.823,1.823,0,0,0-1.391-.449,1.916,1.916,0,0,0-1.336.48,1.949,1.949,0,0,0-.617,1.293V57H50.672V51.461a1.613,1.613,0,0,0-1.8-1.844,1.934,1.934,0,0,0-1.945,1.211V57H45.477V48.547ZM64.727,57a3.036,3.036,0,0,1-.2-.891,3.225,3.225,0,0,1-2.406,1.047,2.984,2.984,0,0,1-2.051-.707,2.287,2.287,0,0,1-.8-1.793,2.39,2.39,0,0,1,1-2.051,4.733,4.733,0,0,1,2.824-.73H64.5v-.664A1.623,1.623,0,0,0,64.047,50a1.821,1.821,0,0,0-1.336-.449,2.107,2.107,0,0,0-1.3.391,1.151,1.151,0,0,0-.523.945H59.438a2,2,0,0,1,.449-1.223,3.066,3.066,0,0,1,1.219-.934,4.1,4.1,0,0,1,1.691-.344,3.342,3.342,0,0,1,2.289.73,2.635,2.635,0,0,1,.859,2.012v3.891a4.757,4.757,0,0,0,.3,1.852V57Zm-2.4-1.1a2.54,2.54,0,0,0,1.289-.352,2.127,2.127,0,0,0,.883-.914V52.9H63.367q-2.656,0-2.656,1.555a1.316,1.316,0,0,0,.453,1.063A1.742,1.742,0,0,0,62.328,55.9Zm9.461-3.2a4.993,4.993,0,0,1,.488-2.234,3.643,3.643,0,0,1,1.359-1.531,3.7,3.7,0,0,1,1.988-.539,3.565,3.565,0,0,1,2.793,1.2,4.6,4.6,0,0,1,1.066,3.18v.1a5.036,5.036,0,0,1-.473,2.215,3.589,3.589,0,0,1-1.352,1.527,3.743,3.743,0,0,1-2.02.547,3.556,3.556,0,0,1-2.785-1.2A4.575,4.575,0,0,1,71.789,52.8Zm1.453.172a3.616,3.616,0,0,0,.652,2.258,2.211,2.211,0,0,0,3.5-.012,3.955,3.955,0,0,0,.648-2.418,3.61,3.61,0,0,0-.66-2.254,2.1,2.1,0,0,0-1.754-.863,2.075,2.075,0,0,0-1.727.852A3.925,3.925,0,0,0,73.242,52.867ZM90.18,54.758a1.064,1.064,0,0,0-.441-.91,4.249,4.249,0,0,0-1.539-.559,7.277,7.277,0,0,1-1.742-.562,2.479,2.479,0,0,1-.953-.781,1.869,1.869,0,0,1-.309-1.078,2.193,2.193,0,0,1,.879-1.758,3.432,3.432,0,0,1,2.246-.719,3.532,3.532,0,0,1,2.332.742,2.357,2.357,0,0,1,.895,1.9H90.094a1.3,1.3,0,0,0-.5-1.023,1.888,1.888,0,0,0-1.27-.43,1.976,1.976,0,0,0-1.234.344,1.082,1.082,0,0,0-.445.9.877.877,0,0,0,.414.789,5.1,5.1,0,0,0,1.5.508A7.8,7.8,0,0,1,90.3,52.7a2.558,2.558,0,0,1,1,.809,1.988,1.988,0,0,1,.324,1.152,2.163,2.163,0,0,1-.906,1.816,3.8,3.8,0,0,1-2.352.684,4.257,4.257,0,0,1-1.8-.359,2.922,2.922,0,0,1-1.223-1,2.42,2.42,0,0,1-.441-1.395h1.445a1.5,1.5,0,0,0,.582,1.152,2.258,2.258,0,0,0,1.434.426,2.331,2.331,0,0,0,1.316-.332A1.02,1.02,0,0,0,90.18,54.758Zm6.836,2.4a3.693,3.693,0,0,1-2.8-1.129,4.19,4.19,0,0,1-1.078-3.02v-.266a5.073,5.073,0,0,1,.48-2.246,3.748,3.748,0,0,1,1.344-1.547,3.378,3.378,0,0,1,1.871-.559A3.166,3.166,0,0,1,99.4,49.477a4.7,4.7,0,0,1,.914,3.109v.6H94.586a3,3,0,0,0,.73,2.02,2.3,2.3,0,0,0,1.777.77,2.517,2.517,0,0,0,1.3-.312,3.259,3.259,0,0,0,.93-.828l.883.688A3.55,3.55,0,0,1,97.016,57.156Zm-.18-7.578a1.928,1.928,0,0,0-1.469.637A3.1,3.1,0,0,0,94.633,52h4.234v-.109a2.753,2.753,0,0,0-.594-1.707A1.815,1.815,0,0,0,96.836,49.578ZM107.2,56.164a3.07,3.07,0,0,1-2.477.992,2.628,2.628,0,0,1-2.059-.785,3.4,3.4,0,0,1-.715-2.324v-5.5H103.4v5.461q0,1.922,1.563,1.922a2.163,2.163,0,0,0,2.2-1.234V48.547h1.445V57h-1.375Zm3.25-3.461a4.952,4.952,0,0,1,.922-3.129,3.137,3.137,0,0,1,4.766-.168V45h1.445V57h-1.328l-.07-.906a2.943,2.943,0,0,1-2.414,1.063,2.887,2.887,0,0,1-2.395-1.2,5.008,5.008,0,0,1-.926-3.141Zm1.445.164a3.749,3.749,0,0,0,.594,2.25,1.92,1.92,0,0,0,1.641.813,2.108,2.108,0,0,0,2.008-1.234V50.813a2.125,2.125,0,0,0-1.992-1.2,1.929,1.929,0,0,0-1.656.82A4.128,4.128,0,0,0,111.9,52.867Zm7.547-.172a4.993,4.993,0,0,1,.488-2.234,3.643,3.643,0,0,1,1.359-1.531,3.7,3.7,0,0,1,1.988-.539,3.565,3.565,0,0,1,2.793,1.2,4.6,4.6,0,0,1,1.066,3.18v.1a5.036,5.036,0,0,1-.473,2.215,3.589,3.589,0,0,1-1.352,1.527,3.743,3.743,0,0,1-2.02.547,3.556,3.556,0,0,1-2.785-1.2,4.575,4.575,0,0,1-1.066-3.164Zm1.453.172a3.616,3.616,0,0,0,.652,2.258,2.211,2.211,0,0,0,3.5-.012A3.955,3.955,0,0,0,125.7,52.7a3.61,3.61,0,0,0-.66-2.254,2.1,2.1,0,0,0-1.754-.863,2.075,2.075,0,0,0-1.727.852A3.925,3.925,0,0,0,120.9,52.867Zm11.445,3.109a2.082,2.082,0,0,0,1.352-.469,1.649,1.649,0,0,0,.641-1.172H135.7a2.621,2.621,0,0,1-.5,1.383,3.293,3.293,0,0,1-1.23,1.047,3.55,3.55,0,0,1-1.629.391A3.482,3.482,0,0,1,129.6,56a4.59,4.59,0,0,1-1.02-3.152v-.242a5.089,5.089,0,0,1,.453-2.2,3.451,3.451,0,0,1,1.3-1.492,3.7,3.7,0,0,1,2-.531,3.39,3.39,0,0,1,2.363.852,3.043,3.043,0,0,1,1,2.211h-1.367a1.992,1.992,0,0,0-.621-1.348,1.932,1.932,0,0,0-1.379-.527,2.023,2.023,0,0,0-1.707.793,3.724,3.724,0,0,0-.605,2.293v.273a3.65,3.65,0,0,0,.6,2.25A2.033,2.033,0,0,0,132.344,55.977Zm4.6-3.281a4.993,4.993,0,0,1,.488-2.234,3.642,3.642,0,0,1,1.359-1.531,3.7,3.7,0,0,1,1.988-.539,3.565,3.565,0,0,1,2.793,1.2,4.6,4.6,0,0,1,1.066,3.18v.1a5.036,5.036,0,0,1-.473,2.215,3.589,3.589,0,0,1-1.352,1.527,3.743,3.743,0,0,1-2.02.547,3.556,3.556,0,0,1-2.785-1.2,4.575,4.575,0,0,1-1.066-3.164Zm1.453.172a3.616,3.616,0,0,0,.652,2.258,2.211,2.211,0,0,0,3.5-.012A3.954,3.954,0,0,0,143.2,52.7a3.61,3.61,0,0,0-.66-2.254,2.1,2.1,0,0,0-1.754-.863,2.075,2.075,0,0,0-1.727.852A3.925,3.925,0,0,0,138.4,52.867Zm3.039-7.852h1.75l-2.094,2.3-1.164,0ZM146.1,52.7a4.952,4.952,0,0,1,.922-3.129,3.137,3.137,0,0,1,4.766-.168V45h1.445V57h-1.328l-.07-.906a2.943,2.943,0,0,1-2.414,1.063,2.887,2.887,0,0,1-2.395-1.2,5.008,5.008,0,0,1-.926-3.141Zm1.445.164a3.749,3.749,0,0,0,.594,2.25,1.919,1.919,0,0,0,1.641.813,2.108,2.108,0,0,0,2.008-1.234V50.813a2.125,2.125,0,0,0-1.992-1.2,1.929,1.929,0,0,0-1.656.82A4.128,4.128,0,0,0,147.547,52.867Zm9.5,4.133H155.6V48.547h1.445Zm-1.562-10.7a.863.863,0,0,1,.215-.594.807.807,0,0,1,.637-.242.819.819,0,0,1,.641.242.854.854,0,0,1,.219.594.826.826,0,0,1-.219.586.834.834,0,0,1-.641.234.821.821,0,0,1-.637-.234A.834.834,0,0,1,155.484,46.3Zm3.531,6.4a4.968,4.968,0,0,1,.914-3.145,3.151,3.151,0,0,1,4.836-.074l.07-.937h1.32V56.8a3.439,3.439,0,0,1-.973,2.586,3.589,3.589,0,0,1-2.613.945,4.348,4.348,0,0,1-1.789-.391,3.08,3.08,0,0,1-1.336-1.07L160.2,58a2.826,2.826,0,0,0,2.273,1.148,2.214,2.214,0,0,0,1.645-.594,2.269,2.269,0,0,0,.59-1.672v-.727a2.971,2.971,0,0,1-2.367,1,2.887,2.887,0,0,1-2.4-1.2A5.224,5.224,0,0,1,159.016,52.7Zm1.453.164a3.79,3.79,0,0,0,.586,2.246,1.9,1.9,0,0,0,1.641.816,2.117,2.117,0,0,0,2.008-1.242V50.828a2.142,2.142,0,0,0-1.992-1.211,1.921,1.921,0,0,0-1.648.82A4.128,4.128,0,0,0,160.469,52.867Zm7.484-.172a4.993,4.993,0,0,1,.488-2.234A3.642,3.642,0,0,1,169.8,48.93a3.7,3.7,0,0,1,1.988-.539,3.565,3.565,0,0,1,2.793,1.2,4.6,4.6,0,0,1,1.066,3.18v.1a5.036,5.036,0,0,1-.473,2.215,3.589,3.589,0,0,1-1.352,1.527,3.743,3.743,0,0,1-2.02.547,3.556,3.556,0,0,1-2.785-1.2,4.575,4.575,0,0,1-1.066-3.164Zm1.453.172a3.616,3.616,0,0,0,.652,2.258,2.211,2.211,0,0,0,3.5-.012A3.954,3.954,0,0,0,174.2,52.7a3.61,3.61,0,0,0-.66-2.254,2.1,2.1,0,0,0-1.754-.863,2.075,2.075,0,0,0-1.727.852A3.925,3.925,0,0,0,169.406,52.867Zm11.391-.406a12.085,12.085,0,0,1-.457,3.34,9.876,9.876,0,0,1-1.4,2.949,6.127,6.127,0,0,1-1.973,1.922l-.3-.883a6.281,6.281,0,0,0,1.934-2.863,12.387,12.387,0,0,0,.746-4.309v-.25A12.861,12.861,0,0,0,179,49.316a10.3,10.3,0,0,0-.957-2.527,5.838,5.838,0,0,0-1.379-1.742l.3-.883a6.1,6.1,0,0,1,1.965,1.906,9.9,9.9,0,0,1,1.4,2.945A12.364,12.364,0,0,1,180.8,52.461Z" transform="translate(325.516 316.804)" fill="#12263f"/>
    </g>
  </g>
</svg>
