<svg xmlns="http://www.w3.org/2000/svg" width="67.401" height="67.401" viewBox="0 0 67.401 67.401">
  <g id="Grupo_1104606" data-name="Grupo 1104606" transform="translate(-200 -3259)">
    <g id="Grupo_1104605" data-name="Grupo 1104605" transform="translate(200 3259)">
      <g id="Grupo_1095345" data-name="Grupo 1095345" transform="translate(0 0)">
        <path id="Trazado_875520" data-name="Trazado 875520" d="M33.7,0A33.7,33.7,0,1,1,0,33.7,33.7,33.7,0,0,1,33.7,0Z" fill="#d6e1fd"/>
      </g>
    </g>
    <g id="bell_536126" transform="translate(212.258 3271.207)">
      <path id="Trazado_889075" data-name="Trazado 889075" d="M390.595,34.718a3.763,3.763,0,0,1,6.278,1.6,11.589,11.589,0,0,0-2.241,1.59,1.47,1.47,0,1,0-.858.86,11.631,11.631,0,0,0-1.586,2.246,3.742,3.742,0,0,1-1.6-.951A3.784,3.784,0,0,1,390.595,34.718Z" transform="translate(-386.638 -30.788)" fill="#a67c52"/>
      <path id="Trazado_889076" data-name="Trazado 889076" d="M112.034,331.2a3.9,3.9,0,0,1-5.449,5.462Z" transform="translate(-78.811 -303.388)" fill="#f8b816"/>
      <path id="Trazado_889077" data-name="Trazado 889077" d="M106.69,332.327l1.129-1.131a3.89,3.89,0,0,1-.386,5.075,3.945,3.945,0,0,1-.847.646A3.886,3.886,0,0,0,106.69,332.327Z" transform="translate(-74.595 -303.388)" opacity="0.1"/>
      <path id="Trazado_889078" data-name="Trazado 889078" d="M148.6,52.588a11.4,11.4,0,0,1,16.142-.11l7.049,7.067L155.539,75.837,148.49,68.77A11.463,11.463,0,0,1,148.6,52.588Z" transform="translate(-141.046 -45.052)" fill="#fecf05"/>
      <path id="Trazado_889079" data-name="Trazado 889079" d="M168.254,60.914l-6.941-6.959a11.394,11.394,0,0,0-16.112.08,11.767,11.767,0,0,1,1.228-1.449,11.4,11.4,0,0,1,16.142-.11l7.049,7.067Z" transform="translate(-138.876 -45.051)" opacity="0.1"/>
      <path id="Trazado_889080" data-name="Trazado 889080" d="M111.569,184.579l16.584-16.625a.839.839,0,0,1,1.186,0l1.493,1.5a6.374,6.374,0,0,0-.533.479L113.708,186.56a6.3,6.3,0,0,0-.625.726l-1.515-1.518A.845.845,0,0,1,111.569,184.579Z" transform="translate(-97.242 -153.627)" fill="#a67c52"/>
      <path id="Trazado_889081" data-name="Trazado 889081" d="M151.4,218.934l-1.462-1.464a.845.845,0,0,1,0-1.189l10.189-10.229a.84.84,0,0,1,1.186,0l1.469,1.472Z" transform="translate(-132.412 -188.526)" fill="#f8b816"/>
      <path id="Trazado_889082" data-name="Trazado 889082" d="M35.105,180.235a.6.6,0,0,0,.006-.843l-.645-.647c-2.625-2.631-5.739-3.79-8.4-1.123L9.475,194.254c-2.66,2.667-1.674,5.959.95,8.59l.645.647a.593.593,0,0,0,.84-.006Z" transform="translate(6.991 -161.321)" fill="#fecf05"/>
      <path id="Trazado_889083" data-name="Trazado 889083" d="M16.063,180.822l-.669-.671c-2.33-2.335-5.031-3.551-7.491-2.117l.412-.413c2.66-2.667,5.775-1.509,8.4,1.123l.645.647a.6.6,0,0,1-.006.843l-1.123,1.126A.611.611,0,0,0,16.063,180.822Z" transform="translate(24.742 -161.32)" opacity="0.1"/>
      <path id="Trazado_889084" data-name="Trazado 889084" d="M8.432,51.333a.63.63,0,0,1,.892-.89l3.563,3.572,7.662-7.681L25.66,41.2c.025-.025.051-.048.078-.07l2.511-2.518-6.606-6.622a10.552,10.552,0,0,0-7.525-3.112A10.924,10.924,0,0,0,6.283,47.395L7.565,48.68a.63.63,0,1,1-.892.889L5.391,48.284A12.046,12.046,0,0,1,3.073,34.677a4.409,4.409,0,1,1,5.884-5.906,12.075,12.075,0,0,1,5.162-1.151h0A11.8,11.8,0,0,1,22.535,31.1l6.642,6.659A1.468,1.468,0,0,1,30.936,38l1.113,1.115a4.88,4.88,0,0,1,2.726-.841c1.77,0,3.679.976,5.521,2.822l.646.647a1.229,1.229,0,0,1-.006,1.732l-2.976,2.984a.63.63,0,0,1-.892-.889l2.956-2.963-.619-.621c-1.6-1.6-3.2-2.452-4.629-2.452a4.032,4.032,0,0,0-2.879,1.33L15.305,57.5c-1.012,1.014-2.945,3.8.951,7.7l.617.618L35.141,47.5a.63.63,0,1,1,.892.889l-3.61,3.619a4.55,4.55,0,0,1-3.959,6.774,4.418,4.418,0,0,1-2.212-.588l-8.51,8.531a1.222,1.222,0,0,1-.871.362h0a1.208,1.208,0,0,1-.861-.357l-.645-.647a8.769,8.769,0,0,1-2.633-4.625,5.218,5.218,0,0,1,.695-3.6l-1.152-1.155a1.474,1.474,0,0,1-.239-1.761ZM5.607,30.122a.838.838,0,0,0-1.188,0,.847.847,0,0,0,0,1.195.831.831,0,0,0,.592.246.846.846,0,0,0,.171-.018c.1-.113.21-.225.32-.334s.221-.216.333-.321A.843.843,0,0,0,5.607,30.122Zm1.626-1.63a3.132,3.132,0,0,0-4.437,0,3.15,3.15,0,0,0,.868,5.07q.272-.453.586-.887a2.084,2.084,0,0,1-.724-.472,2.109,2.109,0,0,1,0-2.974,2.093,2.093,0,0,1,3.439.721q.429-.314.881-.588A3.125,3.125,0,0,0,7.233,28.492ZM28.464,57.527a3.294,3.294,0,0,0,3.022-4.576l-4.3,4.31A3.18,3.18,0,0,0,28.464,57.527ZM26.847,42.091a.207.207,0,0,0-.147-.06.212.212,0,0,0-.115.035l-5.16,5.173L16.363,52.32a.215.215,0,0,0,0,.3l1.016,1.017L27.872,43.118Zm4.221-2.174-1.022-1.025a.21.21,0,0,0-.294,0l-2.169,2.175a1.473,1.473,0,0,1,.157.134l1.023,1.025L31,39.977Zm-17.9,15.9,1.024,1.027c.072-.079.146-.157.223-.235l2.075-2.08L15.32,53.358l-2.154,2.159A.215.215,0,0,0,13.166,55.817Z" transform="translate(1.589 -24.104)"/>
      <path id="Trazado_889085" data-name="Trazado 889085" d="M393.112,376.561a12.725,12.725,0,0,0,5.146,3.209.63.63,0,0,1-.187,1.231.637.637,0,0,1-.188-.029,13.99,13.99,0,0,1-5.662-3.521.63.63,0,0,1,.892-.89Z" transform="translate(-388.68 -344.775)"/>
      <path id="Trazado_889086" data-name="Trazado 889086" d="M477.465,311.88a.63.63,0,0,1,.788.415,11.924,11.924,0,0,0,1.545,3.162.63.63,0,1,1-1.041.708,13.177,13.177,0,0,1-1.706-3.5A.63.63,0,0,1,477.465,311.88Z" transform="translate(-477.021 -285.668)"/>
      <path id="Trazado_889087" data-name="Trazado 889087" d="M378.43,297.8a.63.63,0,0,1,.788.415,10.645,10.645,0,0,0,6.532,6.549.63.63,0,1,1-.375,1.2,11.9,11.9,0,0,1-7.36-7.377A.63.63,0,0,1,378.43,297.8Z" transform="translate(-374.992 -272.766)"/>
      <path id="Trazado_889088" data-name="Trazado 889088" d="M90.534,10.014a.629.629,0,0,1-.788-.415,12.769,12.769,0,0,0-3.2-5.159A12.724,12.724,0,0,0,81.4,1.231a.63.63,0,1,1,.375-1.2A13.985,13.985,0,0,1,87.436,3.55a14.032,14.032,0,0,1,3.512,5.675A.63.63,0,0,1,90.534,10.014Z" transform="translate(-54.837 0)"/>
      <path id="Trazado_889089" data-name="Trazado 889089" d="M124.8,43.161a.63.63,0,1,1-1.2.373,10.643,10.643,0,0,0-6.532-6.549.63.63,0,0,1,.375-1.2,11.9,11.9,0,0,1,7.36,7.377Z" transform="translate(-91.682 -32.753)"/>
    </g>
  </g>
</svg>
