<svg xmlns="http://www.w3.org/2000/svg" width="69.568" height="58.347" viewBox="0 0 69.568 58.347">
  <g id="Grupo_1104609" data-name="Grupo 1104609" transform="translate(-19.824 -25.203)">
    <g id="factura_1_" data-name="factura (1)" transform="translate(19.824 25.203)">
      <g id="Grupo_1097364" data-name="Grupo 1097364" transform="translate(1.122 1.122)">
        <g id="Grupo_1097362" data-name="Grupo 1097362" transform="translate(0 7.854)">
          <path id="Trazado_847084" data-name="Trazado 847084" d="M16,400H83.324v5.049a2.805,2.805,0,0,1-2.805,2.805H18.805A2.805,2.805,0,0,1,16,405.049Z" transform="translate(-16 -359.606)" fill="#d8d7da"/>
          <path id="Trazado_847085" data-name="Trazado 847085" d="M220.343,404.488H209.122L208,400h13.465Z" transform="translate(-181.071 -359.606)" fill="#787680"/>
          <path id="Trazado_847086" data-name="Trazado 847086" d="M93.859,112h3.927a2.8,2.8,0,0,1,2.805,2.805v37.589H40V114.805A2.8,2.8,0,0,1,42.805,112H60.2" transform="translate(-36.634 -112)" fill="#3e3d42"/>
          <path id="Trazado_847087" data-name="Trazado 847087" d="M114.493,136h3.366v33.662H64V136H80.831" transform="translate(-57.268 -132.634)" fill="#78b9eb"/>
        </g>
        <path id="Trazado_847088" data-name="Trazado 847088" d="M184,92.8v4.714h33.662V56H184V70.813" transform="translate(-160.437 -56)" fill="#ff9811"/>
        <g id="Grupo_1097363" data-name="Grupo 1097363" transform="translate(9.69 14.526)">
          <circle id="Elipse_11292" data-name="Elipse 11292" cx="11.189" cy="11.189" r="11.189" transform="translate(0 0)" fill="#ffda44"/>
          <path id="Trazado_847089" data-name="Trazado 847089" d="M328,168h7.854v17.953H328Z" transform="translate(-293.929 -166.818)" fill="#ffda44"/>
        </g>
      </g>
      <g id="Grupo_1097365" data-name="Grupo 1097365">
        <path id="Trazado_847090" data-name="Trazado 847090" d="M76.446,96.249H74.2V59.782a3.932,3.932,0,0,0-3.927-3.927H67.469V49.122A1.122,1.122,0,0,0,66.347,48H32.685a1.122,1.122,0,0,0-1.122,1.122v6.732H15.293a3.932,3.932,0,0,0-3.927,3.927V96.249H9.122A1.122,1.122,0,0,0,8,97.371v5.049a3.932,3.932,0,0,0,3.927,3.927H73.64a3.932,3.932,0,0,0,3.927-3.927V97.371A1.122,1.122,0,0,0,76.446,96.249Zm-8.976-5.61V61.465h1.122V92.882H16.976V61.465H31.563v1.174c-.37-.034-.743-.052-1.122-.052a12.343,12.343,0,1,0,0,24.685c.379,0,.752-.018,1.122-.052v3.418a1.122,1.122,0,0,0,1.122,1.122H66.347A1.122,1.122,0,0,0,67.469,90.638ZM33.807,50.244H65.225V89.516H33.807V86.805a12.344,12.344,0,0,0,0-23.751ZM40.54,74.929a10.1,10.1,0,1,1-10.1-10.1,10.1,10.1,0,0,1,10.1,10.1ZM13.61,59.782A1.684,1.684,0,0,1,15.293,58.1h16.27v1.122H15.854a1.122,1.122,0,0,0-1.122,1.122V94a1.122,1.122,0,0,0,1.122,1.122H69.713A1.122,1.122,0,0,0,70.835,94V60.343a1.122,1.122,0,0,0-1.122-1.122H67.469V58.1h2.805a1.685,1.685,0,0,1,1.683,1.683V96.249H13.61ZM48.079,98.493l-.561,2.244H38.05l-.561-2.244Zm27.245,3.927a1.684,1.684,0,0,1-1.683,1.683H11.927a1.684,1.684,0,0,1-1.683-1.683V98.493H35.175l.91,3.638a1.122,1.122,0,0,0,1.088.85H48.394a1.122,1.122,0,0,0,1.088-.85l.91-3.638H75.324Z" transform="translate(-8 -48)"/>
        <path id="Trazado_847092" data-name="Trazado 847092" d="M217.122,82.244h2.244a1.122,1.122,0,1,0,0-2.244h-2.244a1.122,1.122,0,0,0,0,2.244Z" transform="translate(-186.826 -75.512)"/>
        <path id="Trazado_847093" data-name="Trazado 847093" d="M257.122,82.244h16.831a1.122,1.122,0,0,0,0-2.244H257.122a1.122,1.122,0,1,0,0,2.244Z" transform="translate(-221.216 -75.512)"/>
        <g id="Grupo_1097366" data-name="Grupo 1097366" transform="translate(29.173 7.855)">
          <path id="Trazado_847094" data-name="Trazado 847094" d="M217.122,106.244h2.244a1.122,1.122,0,1,0,0-2.244h-2.244a1.122,1.122,0,0,0,0,2.244Z" transform="translate(-216 -104)"/>
          <path id="Trazado_847095" data-name="Trazado 847095" d="M257.122,106.244h16.831a1.122,1.122,0,0,0,0-2.244H257.122a1.122,1.122,0,1,0,0,2.244Z" transform="translate(-250.39 -104)"/>
        </g>
        <g id="Grupo_1097367" data-name="Grupo 1097367" transform="translate(15.144 30.035)">
          <path id="Trazado_847094-2" data-name="Trazado 847094" d="M217.122,106.244h2.244a1.122,1.122,0,1,0,0-2.244h-2.244a1.122,1.122,0,0,0,0,2.244Z" transform="translate(-216 -104)"/>
          <path id="Trazado_847095-2" data-name="Trazado 847095" d="M256.5,106.244h7.428c.274,0,.5-.5.5-1.122s-.222-1.122-.5-1.122H256.5c-.273,0-.5.5-.5,1.122S256.222,106.244,256.5,106.244Z" transform="translate(-250.39 -104)"/>
        </g>
        <g id="Grupo_1097368" data-name="Grupo 1097368" transform="translate(15.144 25.731)">
          <path id="Trazado_847094-3" data-name="Trazado 847094" d="M217.122,106.244h2.244a1.122,1.122,0,1,0,0-2.244h-2.244a1.122,1.122,0,0,0,0,2.244Z" transform="translate(-216 -104)"/>
          <path id="Trazado_847095-3" data-name="Trazado 847095" d="M256.5,106.244h7.428c.274,0,.5-.5.5-1.122s-.222-1.122-.5-1.122H256.5c-.273,0-.5.5-.5,1.122S256.222,106.244,256.5,106.244Z" transform="translate(-250.39 -104)"/>
        </g>
        <g id="Grupo_1097369" data-name="Grupo 1097369" transform="translate(15.144 21.428)">
          <path id="Trazado_847094-4" data-name="Trazado 847094" d="M217.122,106.244h2.244a1.122,1.122,0,1,0,0-2.244h-2.244a1.122,1.122,0,0,0,0,2.244Z" transform="translate(-216 -104)"/>
          <path id="Trazado_847095-4" data-name="Trazado 847095" d="M256.5,106.244h7.428c.274,0,.5-.5.5-1.122s-.222-1.122-.5-1.122H256.5c-.273,0-.5.5-.5,1.122S256.222,106.244,256.5,106.244Z" transform="translate(-250.39 -104)"/>
        </g>
        <path id="Trazado_847096" data-name="Trazado 847096" d="M217.122,130.244h2.244a1.122,1.122,0,1,0,0-2.244h-2.244a1.122,1.122,0,0,0,0,2.244Z" transform="translate(-186.826 -116.779)"/>
        <path id="Trazado_847097" data-name="Trazado 847097" d="M257.122,130.244h16.831a1.122,1.122,0,0,0,0-2.244H257.122a1.122,1.122,0,1,0,0,2.244Z" transform="translate(-221.216 -116.779)"/>
        <path id="Trazado_847098" data-name="Trazado 847098" d="M328.976,160h-7.854A1.122,1.122,0,0,0,320,161.122v17.953a1.122,1.122,0,0,0,1.122,1.122h7.854a1.122,1.122,0,0,0,1.122-1.122V161.122A1.122,1.122,0,0,0,328.976,160Zm-1.122,17.953h-5.61V162.244h5.61Z" transform="translate(-276.24 -144.291)"/>
      </g>
    </g>
  </g>
</svg>
