<svg xmlns="http://www.w3.org/2000/svg" xmlns:xlink="http://www.w3.org/1999/xlink" width="402" height="334" viewBox="0 0 402 334">
  <defs>
    <clipPath id="clip-path">
      <rect id="Rectángulo_405173" data-name="Rectángulo 405173" width="402" height="334" transform="translate(576 7296)" fill="#a854f3" stroke="#707070" stroke-width="1" opacity="0.71"/>
    </clipPath>
    <clipPath id="clip-path-2">
      <rect id="Rectángulo_405171" data-name="Rectángulo 405171" width="327.823" height="328.282" fill="none"/>
    </clipPath>
    <clipPath id="clip-path-5">
      <rect id="Rectángulo_405168" data-name="Rectángulo 405168" width="313.826" height="314.282" fill="none"/>
    </clipPath>
    <clipPath id="clip-path-6">
      <rect id="Rectángulo_405169" data-name="Rectángulo 405169" width="305.828" height="306.282" fill="none"/>
    </clipPath>
    <clipPath id="clip-path-7">
      <rect id="Rectángulo_405172" data-name="Rectángulo 405172" width="114.985" height="69.216" fill="#3a1d71"/>
    </clipPath>
    <clipPath id="clip-path-8">
      <rect id="Rectángulo_405172-2" data-name="Rectángulo 405172" width="114.984" height="69.216" fill="#3a1d71"/>
    </clipPath>
  </defs>
  <g id="Grupo_1105971" data-name="Grupo 1105971" transform="translate(-598.5 -7395.279)">
    <g id="Enmascarar_grupo_1098784" data-name="Enmascarar grupo 1098784" transform="translate(22.5 99.279)" clip-path="url(#clip-path)">
      <g id="Grupo_1104817" data-name="Grupo 1104817" transform="translate(-48.955)">
        <g id="Grupo_1104809" data-name="Grupo 1104809" transform="translate(1073 7530.335) rotate(150)">
          <g id="Grupo_1104808" data-name="Grupo 1104808" clip-path="url(#clip-path-2)">
            <g id="Grupo_1104807" data-name="Grupo 1104807">
              <g id="Grupo_1104806" data-name="Grupo 1104806" clip-path="url(#clip-path-2)">
                <g id="Grupo_1104799" data-name="Grupo 1104799" opacity="0.06">
                  <g id="Grupo_1104798" data-name="Grupo 1104798">
                    <g id="Grupo_1104797" data-name="Grupo 1104797" clip-path="url(#clip-path-2)">
                      <path id="Trazado_890122" data-name="Trazado 890122" d="M171,328.282a164.086,164.086,0,0,0,109.027-41.37A142.133,142.133,0,0,0,291.99,86.261a122.406,122.406,0,0,0-84.823-41.209c-2.483-.148-5-.224-7.475-.224a122.913,122.913,0,0,0-81.644,31.063,107.129,107.129,0,0,0-9.017,151.238,92.841,92.841,0,0,0,64.341,31.259c1.882.113,3.793.169,5.676.169A93.227,93.227,0,0,0,240.973,235a81.843,81.843,0,0,0,6.888-115.537,72.032,72.032,0,0,0-101.6-6.058,63.568,63.568,0,0,0-5.35,89.744,56.062,56.062,0,0,0,38.851,18.876c1.135.069,2.3.1,3.44.1A56.284,56.284,0,0,0,220.585,207.9a16,16,0,0,0-21.236-23.939,24,24,0,0,1-16.152,6.167c-.5,0-1.013-.016-1.517-.046a24.282,24.282,0,0,1-16.832-8.173,31.575,31.575,0,0,1,2.657-44.57,40.024,40.024,0,0,1,56.421,3.365,49.839,49.839,0,0,1-4.194,70.361,61.3,61.3,0,0,1-40.72,15.5c-1.239,0-2.5-.038-3.741-.111a61.05,61.05,0,0,1-42.306-20.557,75.133,75.133,0,0,1,6.323-106.063,90.978,90.978,0,0,1,60.429-23c1.839,0,3.706.056,5.55.165A90.613,90.613,0,0,1,268.056,107.5a110.134,110.134,0,0,1-9.27,155.476,132.555,132.555,0,0,1-186.9-11.142A158.776,158.776,0,0,1,85.233,27.967,16,16,0,1,0,63.992,4.034C-14.6,73.786-21.8,194.477,47.952,273.076a164.579,164.579,0,0,0,123.039,55.206Z" transform="translate(0)" fill="#001f48"/>
                    </g>
                  </g>
                </g>
                <g id="Grupo_1104802" data-name="Grupo 1104802" transform="translate(6.997 7)" opacity="0.06">
                  <g id="Grupo_1104801" data-name="Grupo 1104801">
                    <g id="Grupo_1104800" data-name="Grupo 1104800" clip-path="url(#clip-path-5)">
                      <path id="Trazado_890123" data-name="Trazado 890123" d="M171,321.282a157.1,157.1,0,0,0,104.381-39.605A135.134,135.134,0,0,0,286.758,90.908a115.453,115.453,0,0,0-80-38.869c-2.347-.14-4.722-.211-7.059-.211a115.917,115.917,0,0,0-77,29.3,100.13,100.13,0,0,0-8.429,141.356A85.889,85.889,0,0,0,173.793,251.4c1.74.1,3.509.156,5.259.156a86.227,86.227,0,0,0,57.278-21.8,74.842,74.842,0,0,0,6.3-105.654,65.03,65.03,0,0,0-91.713-5.469,56.569,56.569,0,0,0-4.762,79.862,49.113,49.113,0,0,0,34.033,16.535c1.005.06,2.021.091,3.023.091a49.291,49.291,0,0,0,32.733-12.465A9,9,0,0,0,204,189.194a30.9,30.9,0,0,1-20.8,7.929c-.641,0-1.292-.02-1.936-.059a31.235,31.235,0,0,1-21.648-10.514,38.572,38.572,0,0,1,3.246-54.451,47.024,47.024,0,0,1,66.3,3.953,56.839,56.839,0,0,1-4.784,80.244,68.293,68.293,0,0,1-45.366,17.26c-1.365,0-2.763-.042-4.153-.123a68.007,68.007,0,0,1-47.13-22.9A82.131,82.131,0,0,1,134.646,94.59a97.97,97.97,0,0,1,65.075-24.76c1.974,0,3.981.059,5.965.177a97.567,97.567,0,0,1,67.61,32.848,117.135,117.135,0,0,1-9.859,165.359A139.555,139.555,0,0,1,66.654,256.482,165.777,165.777,0,0,1,80.59,22.732,9,9,0,1,0,68.643,9.269C-7.068,76.46-14,192.718,53.191,268.429A157.577,157.577,0,0,0,171,321.282Z" transform="translate(-7.001 -7)" fill="#001f48"/>
                    </g>
                  </g>
                </g>
                <g id="Grupo_1104805" data-name="Grupo 1104805" transform="translate(10.995 11)" opacity="0.06">
                  <g id="Grupo_1104804" data-name="Grupo 1104804">
                    <g id="Grupo_1104803" data-name="Grupo 1104803" clip-path="url(#clip-path-6)">
                      <path id="Trazado_890124" data-name="Trazado 890124" d="M171.006,317.282a153.088,153.088,0,0,0,101.725-38.6A131.132,131.132,0,0,0,283.769,93.563a111.482,111.482,0,0,0-77.25-37.531c-2.266-.135-4.56-.2-6.821-.2a111.92,111.92,0,0,0-74.342,28.29,96.13,96.13,0,0,0-8.092,135.709,81.918,81.918,0,0,0,56.769,27.581c1.664.1,3.353.149,5.021.149a82.23,82.23,0,0,0,54.623-20.79A70.84,70.84,0,0,0,239.64,126.76a61.03,61.03,0,0,0-86.067-5.132,52.569,52.569,0,0,0-4.425,74.215,45.141,45.141,0,0,0,31.279,15.2c.923.055,1.859.084,2.785.084a45.3,45.3,0,0,0,30.078-11.457,5,5,0,0,0-6.637-7.48,34.841,34.841,0,0,1-23.45,8.936c-.721,0-1.453-.023-2.178-.066a35.2,35.2,0,0,1-24.4-11.851,42.572,42.572,0,0,1,3.582-60.1,51.024,51.024,0,0,1,71.95,4.29,60.842,60.842,0,0,1-5.121,85.891,72.293,72.293,0,0,1-48.021,18.268c-1.433,0-2.908-.044-4.386-.129a71.986,71.986,0,0,1-49.889-24.239,86.13,86.13,0,0,1,7.25-121.59,101.965,101.965,0,0,1,67.73-25.768c2.054,0,4.14.062,6.2.184A101.539,101.539,0,0,1,276.289,100.2a121.134,121.134,0,0,1-10.2,171.006A143.554,143.554,0,0,1,63.665,259.137,169.773,169.773,0,0,1,77.937,19.74,5,5,0,1,0,71.3,12.26C-2.761,77.988-9.541,191.713,56.185,265.774A153.571,153.571,0,0,0,171,317.282Z" transform="translate(-11.001 -11)" fill="#001f48"/>
                    </g>
                  </g>
                </g>
                <path id="Trazado_890125" data-name="Trazado 890125" d="M171,314.282a149.762,149.762,0,0,0,99.742-37.841A128.133,128.133,0,0,0,281.526,95.553a109.214,109.214,0,0,0-154.177-9.192,93.133,93.133,0,0,0-7.84,131.475,79.462,79.462,0,0,0,112.178,6.688,67.844,67.844,0,0,0,5.71-95.774,58.033,58.033,0,0,0-81.831-4.879,49.571,49.571,0,0,0-4.173,69.98,42.435,42.435,0,0,0,59.907,3.573,2,2,0,0,0-2.656-2.993,38.436,38.436,0,0,1-54.259-3.234,45.573,45.573,0,0,1,3.835-64.334,54.027,54.027,0,0,1,76.185,4.542,63.843,63.843,0,0,1-5.373,90.127,75.458,75.458,0,0,1-106.53-6.351A89.133,89.133,0,0,1,130,89.353a105.213,105.213,0,0,1,148.531,8.856,124.134,124.134,0,0,1-10.448,175.24,146.553,146.553,0,0,1-206.664-12.32C-1.743,189.954,4.774,80.66,75.948,17.5A2,2,0,0,0,73.293,14.5C.469,79.132-6.2,190.959,58.43,263.783A150.091,150.091,0,0,0,171,314.282" transform="translate(-0.007 0)" fill="#001f48"/>
              </g>
            </g>
          </g>
        </g>
        <g id="Grupo_1104811" data-name="Grupo 1104811" transform="translate(641.156 7356.688)">
          <g id="Grupo_1104810" data-name="Grupo 1104810" clip-path="url(#clip-path-7)">
            <path id="Trazado_890126" data-name="Trazado 890126" d="M100.634,33.332a14.449,14.449,0,0,0-3.031.31,23.236,23.236,0,0,0-30.69-12.668,25.7,25.7,0,0,0-50.966,4.6c0,.384.009.766.023,1.146-.311-.021-.62-.05-.936-.052a14.962,14.962,0,1,0,2.079,29.751,14.41,14.41,0,0,0,26.331,6.34,12.283,12.283,0,0,0,17.292-2.978,23.206,23.206,0,0,0,31.2-.5,14.413,14.413,0,1,0,8.7-25.951" transform="translate(0 0.001)" fill="#3a1d71"/>
          </g>
        </g>
        <g id="Grupo_1104812" data-name="Grupo 1104812" transform="translate(629.156 7491.688)">
          <g id="Grupo_1104810-2" data-name="Grupo 1104810" transform="translate(0)" clip-path="url(#clip-path-8)">
            <path id="Trazado_890126-2" data-name="Trazado 890126" d="M14.35,33.332a14.449,14.449,0,0,1,3.031.31,23.236,23.236,0,0,1,30.69-12.668,25.7,25.7,0,0,1,50.966,4.6c0,.384-.009.766-.023,1.146.311-.021.62-.05.936-.052a14.962,14.962,0,1,1-2.079,29.751,14.41,14.41,0,0,1-26.331,6.34,12.283,12.283,0,0,1-17.291-2.978,23.206,23.206,0,0,1-31.2-.5,14.413,14.413,0,1,1-8.7-25.951" transform="translate(0.001 0.001)" fill="#3a1d71"/>
          </g>
        </g>
        <g id="Grupo_1104813" data-name="Grupo 1104813" transform="translate(753.156 7557.688)">
          <g id="Grupo_1104810-3" data-name="Grupo 1104810" transform="translate(0)" clip-path="url(#clip-path-8)">
            <path id="Trazado_890126-3" data-name="Trazado 890126" d="M14.35,33.332a14.449,14.449,0,0,1,3.031.31,23.236,23.236,0,0,1,30.69-12.668,25.7,25.7,0,0,1,50.966,4.6c0,.384-.009.766-.023,1.146.311-.021.62-.05.936-.052a14.962,14.962,0,1,1-2.079,29.751,14.41,14.41,0,0,1-26.331,6.34,12.283,12.283,0,0,1-17.291-2.978,23.206,23.206,0,0,1-31.2-.5,14.413,14.413,0,1,1-8.7-25.951" transform="translate(0.001 0.001)" fill="#3a1d71"/>
          </g>
        </g>
        <g id="Grupo_1104814" data-name="Grupo 1104814" transform="translate(866.156 7481.688)">
          <g id="Grupo_1104810-4" data-name="Grupo 1104810" transform="translate(0)" clip-path="url(#clip-path-8)">
            <path id="Trazado_890126-4" data-name="Trazado 890126" d="M14.35,33.332a14.449,14.449,0,0,1,3.031.31,23.236,23.236,0,0,1,30.69-12.668,25.7,25.7,0,0,1,50.966,4.6c0,.384-.009.766-.023,1.146.311-.021.62-.05.936-.052a14.962,14.962,0,1,1-2.079,29.751,14.41,14.41,0,0,1-26.331,6.34,12.283,12.283,0,0,1-17.291-2.978,23.206,23.206,0,0,1-31.2-.5,14.413,14.413,0,1,1-8.7-25.951" transform="translate(0.001 0.001)" fill="#3a1d71"/>
          </g>
        </g>
        <g id="Grupo_1104815" data-name="Grupo 1104815" transform="translate(810 7297.688)">
          <g id="Grupo_1104810-5" data-name="Grupo 1104810" transform="translate(0)" clip-path="url(#clip-path-8)">
            <path id="Trazado_890126-5" data-name="Trazado 890126" d="M14.35,33.332a14.449,14.449,0,0,1,3.031.31,23.236,23.236,0,0,1,30.69-12.668,25.7,25.7,0,0,1,50.966,4.6c0,.384-.009.766-.023,1.146.311-.021.62-.05.936-.052a14.962,14.962,0,1,1-2.079,29.751,14.41,14.41,0,0,1-26.331,6.34,12.283,12.283,0,0,1-17.291-2.978,23.206,23.206,0,0,1-31.2-.5,14.413,14.413,0,1,1-8.7-25.951" transform="translate(0.001 0.001)" fill="#3a1d71"/>
          </g>
        </g>
        <g id="Grupo_1104816" data-name="Grupo 1104816" transform="translate(770.008 7405.688)">
          <g id="Grupo_1104810-6" data-name="Grupo 1104810" transform="translate(0)" clip-path="url(#clip-path-8)">
            <path id="Trazado_890126-6" data-name="Trazado 890126" d="M14.35,33.332a14.449,14.449,0,0,1,3.031.31,23.236,23.236,0,0,1,30.69-12.668,25.7,25.7,0,0,1,50.966,4.6c0,.384-.009.766-.023,1.146.311-.021.62-.05.936-.052a14.962,14.962,0,1,1-2.079,29.751,14.41,14.41,0,0,1-26.331,6.34,12.283,12.283,0,0,1-17.291-2.978,23.206,23.206,0,0,1-31.2-.5,14.413,14.413,0,1,1-8.7-25.951" transform="translate(0.001 0.001)" fill="#3a1d71"/>
          </g>
        </g>
        <path id="Trazado_891252" data-name="Trazado 891252" d="M3.508,0H1.164V-11.375H3.508ZM7.648-8.453l.07.945a2.971,2.971,0,0,1,2.43-1.1A2.255,2.255,0,0,1,12.391-7.32,2.9,2.9,0,0,1,14.93-8.609a2.521,2.521,0,0,1,2.047.8,3.681,3.681,0,0,1,.672,2.41V0H15.383V-5.4A1.616,1.616,0,0,0,15.1-6.456a1.245,1.245,0,0,0-.992-.333,1.409,1.409,0,0,0-1.406.971L12.711,0H10.453V-5.4a1.6,1.6,0,0,0-.289-1.065,1.257,1.257,0,0,0-.984-.329,1.463,1.463,0,0,0-1.391.8V0H5.531V-8.453ZM24.281,0a2.507,2.507,0,0,1-.227-.758,2.732,2.732,0,0,1-2.133.914,3,3,0,0,1-2.059-.719,2.312,2.312,0,0,1-.816-1.812,2.389,2.389,0,0,1,1-2.062,4.915,4.915,0,0,1,2.879-.727h1.039v-.484a1.393,1.393,0,0,0-.3-.937,1.183,1.183,0,0,0-.949-.352,1.345,1.345,0,0,0-.895.273.929.929,0,0,0-.324.75H19.234a2.268,2.268,0,0,1,.453-1.359,3,3,0,0,1,1.281-.98,4.669,4.669,0,0,1,1.859-.355,3.689,3.689,0,0,1,2.48.785,2.747,2.747,0,0,1,.918,2.207v3.664a4.041,4.041,0,0,0,.336,1.82V0ZM22.414-1.57a1.945,1.945,0,0,0,.922-.223,1.462,1.462,0,0,0,.625-.6V-3.844h-.844q-1.7,0-1.8,1.172l-.008.133a.9.9,0,0,0,.3.7A1.153,1.153,0,0,0,22.414-1.57Zm5.219-2.719a4.954,4.954,0,0,1,.926-3.133,3,3,0,0,1,2.5-1.187,2.631,2.631,0,0,1,2.164.953l.094-.8h2.047V-.281a3.613,3.613,0,0,1-.5,1.93A3.236,3.236,0,0,1,33.438,2.9a4.985,4.985,0,0,1-2.141.43,4.635,4.635,0,0,1-1.812-.371A3.217,3.217,0,0,1,28.148,2l1-1.375A2.645,2.645,0,0,0,31.2,1.57a1.936,1.936,0,0,0,1.4-.48,1.8,1.8,0,0,0,.5-1.363V-.727a2.612,2.612,0,0,1-2.055.883,2.992,2.992,0,0,1-2.465-1.191,4.953,4.953,0,0,1-.941-3.16Zm2.258.161a3.1,3.1,0,0,0,.461,1.809,1.465,1.465,0,0,0,1.266.655,1.567,1.567,0,0,0,1.477-.777V-6.012a1.563,1.563,0,0,0-1.461-.777,1.474,1.474,0,0,0-1.277.667A3.5,3.5,0,0,0,29.891-4.128ZM39.477,0H37.211V-8.453h2.266Zm-2.4-10.641a1.112,1.112,0,0,1,.34-.836,1.277,1.277,0,0,1,.926-.328,1.28,1.28,0,0,1,.922.328,1.105,1.105,0,0,1,.344.836,1.108,1.108,0,0,1-.348.844,1.283,1.283,0,0,1-.918.328,1.283,1.283,0,0,1-.918-.328A1.108,1.108,0,0,1,37.078-10.641Zm6.336,2.188.07.977a2.951,2.951,0,0,1,2.43-1.133,2.453,2.453,0,0,1,2,.789,3.682,3.682,0,0,1,.672,2.359V0H46.328V-5.419a1.47,1.47,0,0,0-.312-1.045,1.4,1.4,0,0,0-1.039-.325,1.553,1.553,0,0,0-1.43.814V0H41.289V-8.453ZM55.2,0a2.507,2.507,0,0,1-.227-.758,2.732,2.732,0,0,1-2.133.914,3,3,0,0,1-2.059-.719,2.312,2.312,0,0,1-.816-1.812,2.389,2.389,0,0,1,1-2.062,4.915,4.915,0,0,1,2.879-.727h1.039v-.484a1.393,1.393,0,0,0-.3-.937,1.183,1.183,0,0,0-.949-.352,1.345,1.345,0,0,0-.895.273.929.929,0,0,0-.324.75H50.148A2.268,2.268,0,0,1,50.6-7.273a3,3,0,0,1,1.281-.98,4.669,4.669,0,0,1,1.859-.355,3.689,3.689,0,0,1,2.48.785,2.747,2.747,0,0,1,.918,2.207v3.664a4.041,4.041,0,0,0,.336,1.82V0ZM53.328-1.57a1.945,1.945,0,0,0,.922-.223,1.462,1.462,0,0,0,.625-.6V-3.844h-.844q-1.7,0-1.8,1.172l-.008.133a.9.9,0,0,0,.3.7A1.153,1.153,0,0,0,53.328-1.57Zm10.3-4.766a6.134,6.134,0,0,0-.812-.062,1.654,1.654,0,0,0-1.68.867V0H58.875V-8.453h2.133l.063,1.008a2.092,2.092,0,0,1,1.883-1.164,2.366,2.366,0,0,1,.7.1Z" transform="translate(802 7454)" fill="#f0c518"/>
        <path id="Trazado_891254" data-name="Trazado 891254" d="M5.6-11.375H7.945V-3.5a3.766,3.766,0,0,1-.48,1.918A3.261,3.261,0,0,1,6.109-.3,4.235,4.235,0,0,1,4.133.156,4.025,4.025,0,0,1,1.32-.762a3.335,3.335,0,0,1-1.008-2.6H2.672a1.829,1.829,0,0,0,.352,1.234,1.407,1.407,0,0,0,1.109.4A1.343,1.343,0,0,0,5.2-2.187,1.948,1.948,0,0,0,5.6-3.5ZM14.867-.859A2.831,2.831,0,0,1,12.555.156,2.67,2.67,0,0,1,10.48-.625a3.335,3.335,0,0,1-.73-2.289V-8.453h2.258v5.467q0,1.322,1.2,1.322a1.63,1.63,0,0,0,1.578-.8V-8.453h2.266V0H14.93Zm3.563-3.43a4.954,4.954,0,0,1,.926-3.133,3,3,0,0,1,2.5-1.187,2.631,2.631,0,0,1,2.164.953l.094-.8h2.047V-.281a3.613,3.613,0,0,1-.5,1.93A3.236,3.236,0,0,1,24.234,2.9a4.985,4.985,0,0,1-2.141.43,4.635,4.635,0,0,1-1.812-.371A3.217,3.217,0,0,1,18.945,2l1-1.375a2.645,2.645,0,0,0,2.047.945,1.936,1.936,0,0,0,1.4-.48,1.8,1.8,0,0,0,.5-1.363V-.727a2.612,2.612,0,0,1-2.055.883,2.992,2.992,0,0,1-2.465-1.191A4.953,4.953,0,0,1,18.43-4.2Zm2.258.161a3.1,3.1,0,0,0,.461,1.809,1.465,1.465,0,0,0,1.266.655,1.567,1.567,0,0,0,1.477-.777V-6.012a1.563,1.563,0,0,0-1.461-.777,1.474,1.474,0,0,0-1.277.667A3.5,3.5,0,0,0,20.688-4.128ZM32.789,0a2.507,2.507,0,0,1-.227-.758A2.732,2.732,0,0,1,30.43.156a3,3,0,0,1-2.059-.719,2.312,2.312,0,0,1-.816-1.812,2.389,2.389,0,0,1,1-2.062,4.915,4.915,0,0,1,2.879-.727h1.039v-.484a1.393,1.393,0,0,0-.3-.937,1.183,1.183,0,0,0-.949-.352,1.345,1.345,0,0,0-.895.273.929.929,0,0,0-.324.75H27.742A2.268,2.268,0,0,1,28.2-7.273a3,3,0,0,1,1.281-.98,4.669,4.669,0,0,1,1.859-.355,3.689,3.689,0,0,1,2.48.785,2.747,2.747,0,0,1,.918,2.207v3.664a4.041,4.041,0,0,0,.336,1.82V0ZM30.922-1.57a1.945,1.945,0,0,0,.922-.223,1.462,1.462,0,0,0,.625-.6V-3.844h-.844q-1.7,0-1.8,1.172l-.008.133a.9.9,0,0,0,.3.7A1.153,1.153,0,0,0,30.922-1.57Zm10.3-4.766a6.134,6.134,0,0,0-.812-.062,1.654,1.654,0,0,0-1.68.867V0H36.469V-8.453H38.6l.063,1.008a2.092,2.092,0,0,1,1.883-1.164,2.366,2.366,0,0,1,.7.1Z" transform="translate(790 7604)" fill="#f0c518"/>
        <path id="Trazado_891255" data-name="Trazado 891255" d="M9.945-3.789A4.025,4.025,0,0,1,8.59-.9,4.76,4.76,0,0,1,5.367.156,4.28,4.28,0,0,1,1.926-1.316,6.038,6.038,0,0,1,.672-5.359v-.7A6.819,6.819,0,0,1,1.25-8.945,4.332,4.332,0,0,1,2.9-10.863a4.629,4.629,0,0,1,2.5-.668A4.637,4.637,0,0,1,8.57-10.477,4.326,4.326,0,0,1,9.961-7.516H7.617A2.376,2.376,0,0,0,7-9.113a2.271,2.271,0,0,0-1.605-.5,1.991,1.991,0,0,0-1.754.84,4.707,4.707,0,0,0-.6,2.605V-5.3a5.038,5.038,0,0,0,.559,2.7,1.954,1.954,0,0,0,1.762.852,2.314,2.314,0,0,0,1.621-.5A2.241,2.241,0,0,0,7.6-3.789ZM10.984-4.3a5.013,5.013,0,0,1,.484-2.242A3.546,3.546,0,0,1,12.863-8.07a4.069,4.069,0,0,1,2.113-.539A3.849,3.849,0,0,1,17.77-7.562a4.2,4.2,0,0,1,1.207,2.844l.016.578A4.418,4.418,0,0,1,17.906-1.02,3.775,3.775,0,0,1,14.992.156a3.793,3.793,0,0,1-2.918-1.172A4.5,4.5,0,0,1,10.984-4.2Zm2.258.16A3.16,3.16,0,0,0,13.7-2.3a1.5,1.5,0,0,0,1.3.638,1.5,1.5,0,0,0,1.281-.63,3.457,3.457,0,0,0,.461-2.015,3.128,3.128,0,0,0-.461-1.831,1.5,1.5,0,0,0-1.3-.649,1.474,1.474,0,0,0-1.281.646A3.516,3.516,0,0,0,13.242-4.144ZM22.5-8.453l.07.945A2.971,2.971,0,0,1,25-8.609,2.255,2.255,0,0,1,27.242-7.32a2.9,2.9,0,0,1,2.539-1.289,2.521,2.521,0,0,1,2.047.8A3.681,3.681,0,0,1,32.5-5.4V0H30.234V-5.4a1.616,1.616,0,0,0-.281-1.053,1.245,1.245,0,0,0-.992-.333,1.409,1.409,0,0,0-1.406.971L27.563,0H25.3V-5.4a1.6,1.6,0,0,0-.289-1.065,1.257,1.257,0,0,0-.984-.329,1.463,1.463,0,0,0-1.391.8V0H20.383V-8.453Zm19.344,4.3a5.07,5.07,0,0,1-.887,3.129A2.843,2.843,0,0,1,38.563.156a2.633,2.633,0,0,1-2.07-.891V3.25H34.234v-11.7h2.094l.078.828a2.654,2.654,0,0,1,2.141-.984,2.862,2.862,0,0,1,2.43,1.156,5.207,5.207,0,0,1,.867,3.188Zm-2.258-.172a3.345,3.345,0,0,0-.418-1.826,1.36,1.36,0,0,0-1.215-.643,1.478,1.478,0,0,0-1.461.815V-2.5a1.5,1.5,0,0,0,1.477.839Q39.586-1.664,39.586-4.321ZM48.141,0a2.507,2.507,0,0,1-.227-.758,2.732,2.732,0,0,1-2.133.914,3,3,0,0,1-2.059-.719,2.312,2.312,0,0,1-.816-1.812,2.389,2.389,0,0,1,1-2.062,4.915,4.915,0,0,1,2.879-.727H47.82v-.484a1.393,1.393,0,0,0-.3-.937,1.183,1.183,0,0,0-.949-.352,1.345,1.345,0,0,0-.895.273.929.929,0,0,0-.324.75H43.094a2.268,2.268,0,0,1,.453-1.359,3,3,0,0,1,1.281-.98,4.669,4.669,0,0,1,1.859-.355,3.689,3.689,0,0,1,2.48.785,2.747,2.747,0,0,1,.918,2.207v3.664a4.041,4.041,0,0,0,.336,1.82V0ZM46.273-1.57a1.945,1.945,0,0,0,.922-.223,1.462,1.462,0,0,0,.625-.6V-3.844h-.844q-1.7,0-1.8,1.172l-.008.133a.9.9,0,0,0,.3.7A1.153,1.153,0,0,0,46.273-1.57Zm10.3-4.766a6.134,6.134,0,0,0-.812-.062,1.654,1.654,0,0,0-1.68.867V0H51.82V-8.453h2.133l.063,1.008A2.092,2.092,0,0,1,55.9-8.609a2.366,2.366,0,0,1,.7.1Zm4.18-4.2v2.078H62.2V-6.8H60.75v4.219a1.007,1.007,0,0,0,.18.672.9.9,0,0,0,.688.2,3.6,3.6,0,0,0,.664-.055V-.047a4.648,4.648,0,0,1-1.367.2,2.156,2.156,0,0,1-2.422-2.4V-6.8H57.258V-8.453h1.234v-2.078ZM65.836,0H63.57V-8.453h2.266Zm-2.4-10.641a1.112,1.112,0,0,1,.34-.836A1.277,1.277,0,0,1,64.7-11.8a1.28,1.28,0,0,1,.922.328,1.105,1.105,0,0,1,.344.836,1.108,1.108,0,0,1-.348.844,1.283,1.283,0,0,1-.918.328,1.283,1.283,0,0,1-.918-.328A1.108,1.108,0,0,1,63.438-10.641Zm9.008,4.3a6.134,6.134,0,0,0-.812-.062,1.654,1.654,0,0,0-1.68.867V0H67.7V-8.453h2.133l.063,1.008a2.092,2.092,0,0,1,1.883-1.164,2.366,2.366,0,0,1,.7.1Z" transform="translate(656 7538)" fill="#f0c518"/>
        <path id="Trazado_891250" data-name="Trazado 891250" d="M5.227-4.164H3.359V0H1.016V-11.375H5.242a4.778,4.778,0,0,1,3.109.9A3.1,3.1,0,0,1,9.445-7.937,3.5,3.5,0,0,1,8.941-6,3.437,3.437,0,0,1,7.414-4.758L9.875-.109V0H7.359Zm-1.867-1.9H5.25a1.936,1.936,0,0,0,1.367-.449A1.606,1.606,0,0,0,7.1-7.75a1.719,1.719,0,0,0-.457-1.266,1.9,1.9,0,0,0-1.4-.461H3.359ZM14.969.156A4.15,4.15,0,0,1,11.941-.984a4.054,4.054,0,0,1-1.168-3.039v-.219a5.106,5.106,0,0,1,.492-2.277A3.612,3.612,0,0,1,12.66-8.066a3.914,3.914,0,0,1,2.059-.543,3.508,3.508,0,0,1,2.73,1.094,4.444,4.444,0,0,1,1,3.1v.922H13.063a2.1,2.1,0,0,0,.66,1.328,2,2,0,0,0,1.395.5,2.437,2.437,0,0,0,2.039-.945l1.109,1.242A3.389,3.389,0,0,1,16.891-.246,4.511,4.511,0,0,1,14.969.156Zm-.258-6.945a1.411,1.411,0,0,0-1.09.455,2.357,2.357,0,0,0-.535,1.3h3.141v-.181a1.681,1.681,0,0,0-.406-1.165A1.456,1.456,0,0,0,14.711-6.789Zm10.68-3.476a10.85,10.85,0,0,0-1.25-.078q-1.531,0-1.531,1.316v.575h1.68V-6.8h-1.68V0H20.344V-6.8H19.086V-8.453h1.258v-.656a2.888,2.888,0,0,1,.922-2.262,3.769,3.769,0,0,1,2.563-.793q1.18,0,3.828.25V0H25.391ZM33.422.156A4.15,4.15,0,0,1,30.395-.984a4.054,4.054,0,0,1-1.168-3.039v-.219a5.106,5.106,0,0,1,.492-2.277,3.612,3.612,0,0,1,1.395-1.547,3.914,3.914,0,0,1,2.059-.543A3.508,3.508,0,0,1,35.9-7.516a4.444,4.444,0,0,1,1,3.1v.922H31.516a2.1,2.1,0,0,0,.66,1.328,2,2,0,0,0,1.395.5,2.437,2.437,0,0,0,2.039-.945l1.109,1.242A3.389,3.389,0,0,1,35.344-.246,4.511,4.511,0,0,1,33.422.156Zm-.258-6.945a1.411,1.411,0,0,0-1.09.455,2.357,2.357,0,0,0-.535,1.3H34.68v-.181a1.681,1.681,0,0,0-.406-1.165A1.456,1.456,0,0,0,33.164-6.789ZM41.4-5.93,42.82-8.453h2.414L42.828-4.312,45.336,0H42.914L41.406-2.656,39.906,0h-2.43l2.508-4.312-2.4-4.141h2.422ZM48.7,0H46.438V-8.453H48.7ZM46.3-10.641a1.112,1.112,0,0,1,.34-.836,1.277,1.277,0,0,1,.926-.328,1.28,1.28,0,0,1,.922.328,1.105,1.105,0,0,1,.344.836,1.108,1.108,0,0,1-.348.844,1.283,1.283,0,0,1-.918.328,1.283,1.283,0,0,1-.918-.328A1.108,1.108,0,0,1,46.3-10.641ZM50.211-4.3A5.013,5.013,0,0,1,50.7-6.547,3.546,3.546,0,0,1,52.09-8.07,4.069,4.069,0,0,1,54.2-8.609,3.849,3.849,0,0,1,57-7.562,4.2,4.2,0,0,1,58.2-4.719l.016.578A4.418,4.418,0,0,1,57.133-1.02,3.775,3.775,0,0,1,54.219.156,3.793,3.793,0,0,1,51.3-1.016,4.5,4.5,0,0,1,50.211-4.2Zm2.258.16A3.16,3.16,0,0,0,52.922-2.3a1.5,1.5,0,0,0,1.3.638,1.5,1.5,0,0,0,1.281-.63,3.457,3.457,0,0,0,.461-2.015A3.128,3.128,0,0,0,55.5-6.14a1.5,1.5,0,0,0-1.3-.649,1.474,1.474,0,0,0-1.281.646A3.516,3.516,0,0,0,52.469-4.144Zm9.219-4.309.07.977a2.951,2.951,0,0,1,2.43-1.133,2.453,2.453,0,0,1,2,.789,3.682,3.682,0,0,1,.672,2.359V0H64.6V-5.419a1.47,1.47,0,0,0-.312-1.045,1.4,1.4,0,0,0-1.039-.325,1.553,1.553,0,0,0-1.43.814V0H59.563V-8.453ZM73.469,0a2.507,2.507,0,0,1-.227-.758,2.732,2.732,0,0,1-2.133.914,3,3,0,0,1-2.059-.719,2.312,2.312,0,0,1-.816-1.812,2.389,2.389,0,0,1,1-2.062,4.915,4.915,0,0,1,2.879-.727h1.039v-.484a1.393,1.393,0,0,0-.3-.937,1.183,1.183,0,0,0-.949-.352A1.345,1.345,0,0,0,71-6.664a.929.929,0,0,0-.324.75H68.422a2.268,2.268,0,0,1,.453-1.359,3,3,0,0,1,1.281-.98,4.669,4.669,0,0,1,1.859-.355,3.689,3.689,0,0,1,2.48.785,2.747,2.747,0,0,1,.918,2.207v3.664a4.041,4.041,0,0,0,.336,1.82V0ZM71.6-1.57a1.945,1.945,0,0,0,.922-.223,1.462,1.462,0,0,0,.625-.6V-3.844H72.3q-1.7,0-1.8,1.172l-.008.133a.9.9,0,0,0,.3.7A1.153,1.153,0,0,0,71.6-1.57ZM81.9-6.336a6.134,6.134,0,0,0-.812-.062,1.654,1.654,0,0,0-1.68.867V0H77.148V-8.453h2.133l.063,1.008a2.092,2.092,0,0,1,1.883-1.164,2.366,2.366,0,0,1,.7.1Z" transform="translate(658 7402)" fill="#f0c518"/>
        <path id="Trazado_891253" data-name="Trazado 891253" d="M9.945-3.789A4.025,4.025,0,0,1,8.59-.9,4.76,4.76,0,0,1,5.367.156,4.28,4.28,0,0,1,1.926-1.316,6.038,6.038,0,0,1,.672-5.359v-.7A6.819,6.819,0,0,1,1.25-8.945,4.332,4.332,0,0,1,2.9-10.863a4.629,4.629,0,0,1,2.5-.668A4.637,4.637,0,0,1,8.57-10.477,4.326,4.326,0,0,1,9.961-7.516H7.617A2.376,2.376,0,0,0,7-9.113a2.271,2.271,0,0,0-1.605-.5,1.991,1.991,0,0,0-1.754.84,4.707,4.707,0,0,0-.6,2.605V-5.3a5.038,5.038,0,0,0,.559,2.7,1.954,1.954,0,0,0,1.762.852,2.314,2.314,0,0,0,1.621-.5A2.241,2.241,0,0,0,7.6-3.789Zm6.141-2.547a6.134,6.134,0,0,0-.812-.062,1.654,1.654,0,0,0-1.68.867V0H11.336V-8.453h2.133l.063,1.008a2.092,2.092,0,0,1,1.883-1.164,2.366,2.366,0,0,1,.7.1ZM20.914.156A4.15,4.15,0,0,1,17.887-.984a4.054,4.054,0,0,1-1.168-3.039v-.219a5.106,5.106,0,0,1,.492-2.277,3.612,3.612,0,0,1,1.395-1.547,3.914,3.914,0,0,1,2.059-.543,3.508,3.508,0,0,1,2.73,1.094,4.444,4.444,0,0,1,1,3.1v.922H19.008a2.1,2.1,0,0,0,.66,1.328,2,2,0,0,0,1.395.5A2.437,2.437,0,0,0,23.1-2.609l1.109,1.242A3.389,3.389,0,0,1,22.836-.246,4.511,4.511,0,0,1,20.914.156Zm-.258-6.945a1.411,1.411,0,0,0-1.09.455,2.357,2.357,0,0,0-.535,1.3h3.141v-.181a1.681,1.681,0,0,0-.406-1.165A1.456,1.456,0,0,0,20.656-6.789ZM30.57,0a2.507,2.507,0,0,1-.227-.758,2.732,2.732,0,0,1-2.133.914,3,3,0,0,1-2.059-.719,2.312,2.312,0,0,1-.816-1.812,2.389,2.389,0,0,1,1-2.062,4.915,4.915,0,0,1,2.879-.727H30.25v-.484a1.393,1.393,0,0,0-.3-.937A1.183,1.183,0,0,0,29-6.937a1.345,1.345,0,0,0-.895.273.929.929,0,0,0-.324.75H25.523a2.268,2.268,0,0,1,.453-1.359,3,3,0,0,1,1.281-.98,4.669,4.669,0,0,1,1.859-.355,3.689,3.689,0,0,1,2.48.785,2.747,2.747,0,0,1,.918,2.207v3.664a4.041,4.041,0,0,0,.336,1.82V0ZM28.7-1.57a1.945,1.945,0,0,0,.922-.223,1.462,1.462,0,0,0,.625-.6V-3.844h-.844q-1.7,0-1.8,1.172l-.008.133a.9.9,0,0,0,.3.7A1.153,1.153,0,0,0,28.7-1.57ZM39-6.336a6.134,6.134,0,0,0-.812-.062,1.654,1.654,0,0,0-1.68.867V0H34.25V-8.453h2.133l.063,1.008a2.092,2.092,0,0,1,1.883-1.164,2.366,2.366,0,0,1,.7.1Z" transform="translate(915 7523)" fill="#f0c518"/>
        <path id="Trazado_891251" data-name="Trazado 891251" d="M3.508,0H1.164V-11.375H3.508ZM7.648-8.453l.07.945a2.971,2.971,0,0,1,2.43-1.1A2.255,2.255,0,0,1,12.391-7.32,2.9,2.9,0,0,1,14.93-8.609a2.521,2.521,0,0,1,2.047.8,3.681,3.681,0,0,1,.672,2.41V0H15.383V-5.4A1.616,1.616,0,0,0,15.1-6.456a1.245,1.245,0,0,0-.992-.333,1.409,1.409,0,0,0-1.406.971L12.711,0H10.453V-5.4a1.6,1.6,0,0,0-.289-1.065,1.257,1.257,0,0,0-.984-.329,1.463,1.463,0,0,0-1.391.8V0H5.531V-8.453ZM24.281,0a2.507,2.507,0,0,1-.227-.758,2.732,2.732,0,0,1-2.133.914,3,3,0,0,1-2.059-.719,2.312,2.312,0,0,1-.816-1.812,2.389,2.389,0,0,1,1-2.062,4.915,4.915,0,0,1,2.879-.727h1.039v-.484a1.393,1.393,0,0,0-.3-.937,1.183,1.183,0,0,0-.949-.352,1.345,1.345,0,0,0-.895.273.929.929,0,0,0-.324.75H19.234a2.268,2.268,0,0,1,.453-1.359,3,3,0,0,1,1.281-.98,4.669,4.669,0,0,1,1.859-.355,3.689,3.689,0,0,1,2.48.785,2.747,2.747,0,0,1,.918,2.207v3.664a4.041,4.041,0,0,0,.336,1.82V0ZM22.414-1.57a1.945,1.945,0,0,0,.922-.223,1.462,1.462,0,0,0,.625-.6V-3.844h-.844q-1.7,0-1.8,1.172l-.008.133a.9.9,0,0,0,.3.7A1.153,1.153,0,0,0,22.414-1.57Zm5.219-2.719a4.954,4.954,0,0,1,.926-3.133,3,3,0,0,1,2.5-1.187,2.631,2.631,0,0,1,2.164.953l.094-.8h2.047V-.281a3.613,3.613,0,0,1-.5,1.93A3.236,3.236,0,0,1,33.438,2.9a4.985,4.985,0,0,1-2.141.43,4.635,4.635,0,0,1-1.812-.371A3.217,3.217,0,0,1,28.148,2l1-1.375A2.645,2.645,0,0,0,31.2,1.57a1.936,1.936,0,0,0,1.4-.48,1.8,1.8,0,0,0,.5-1.363V-.727a2.612,2.612,0,0,1-2.055.883,2.992,2.992,0,0,1-2.465-1.191,4.953,4.953,0,0,1-.941-3.16Zm2.258.161a3.1,3.1,0,0,0,.461,1.809,1.465,1.465,0,0,0,1.266.655,1.567,1.567,0,0,0,1.477-.777V-6.012a1.563,1.563,0,0,0-1.461-.777,1.474,1.474,0,0,0-1.277.667A3.5,3.5,0,0,0,29.891-4.128ZM39.477,0H37.211V-8.453h2.266Zm-2.4-10.641a1.112,1.112,0,0,1,.34-.836,1.277,1.277,0,0,1,.926-.328,1.28,1.28,0,0,1,.922.328,1.105,1.105,0,0,1,.344.836,1.108,1.108,0,0,1-.348.844,1.283,1.283,0,0,1-.918.328,1.283,1.283,0,0,1-.918-.328A1.108,1.108,0,0,1,37.078-10.641Zm6.336,2.188.07.977a2.951,2.951,0,0,1,2.43-1.133,2.453,2.453,0,0,1,2,.789,3.682,3.682,0,0,1,.672,2.359V0H46.328V-5.419a1.47,1.47,0,0,0-.312-1.045,1.4,1.4,0,0,0-1.039-.325,1.553,1.553,0,0,0-1.43.814V0H41.289V-8.453ZM55.2,0a2.507,2.507,0,0,1-.227-.758,2.732,2.732,0,0,1-2.133.914,3,3,0,0,1-2.059-.719,2.312,2.312,0,0,1-.816-1.812,2.389,2.389,0,0,1,1-2.062,4.915,4.915,0,0,1,2.879-.727h1.039v-.484a1.393,1.393,0,0,0-.3-.937,1.183,1.183,0,0,0-.949-.352,1.345,1.345,0,0,0-.895.273.929.929,0,0,0-.324.75H50.148A2.268,2.268,0,0,1,50.6-7.273a3,3,0,0,1,1.281-.98,4.669,4.669,0,0,1,1.859-.355,3.689,3.689,0,0,1,2.48.785,2.747,2.747,0,0,1,.918,2.207v3.664a4.041,4.041,0,0,0,.336,1.82V0ZM53.328-1.57a1.945,1.945,0,0,0,.922-.223,1.462,1.462,0,0,0,.625-.6V-3.844h-.844q-1.7,0-1.8,1.172l-.008.133a.9.9,0,0,0,.3.7A1.153,1.153,0,0,0,53.328-1.57Zm10.3-4.766a6.134,6.134,0,0,0-.812-.062,1.654,1.654,0,0,0-1.68.867V0H58.875V-8.453h2.133l.063,1.008a2.092,2.092,0,0,1,1.883-1.164,2.366,2.366,0,0,1,.7.1Z" transform="translate(851 7344)" fill="#f0c518"/>
      </g>
    </g>
    <path id="Polígono_51" data-name="Polígono 51" d="M17.135,1.489a1,1,0,0,1,1.73,0L35.128,29.5a1,1,0,0,1-.865,1.5H1.737a1,1,0,0,1-.865-1.5Z" transform="matrix(-0.946, -0.326, 0.326, -0.946, 983.952, 7676.016)" fill="#f0c518"/>
    <path id="Polígono_52" data-name="Polígono 52" d="M17.135,1.489a1,1,0,0,1,1.73,0L35.128,29.5a1,1,0,0,1-.865,1.5H1.737a1,1,0,0,1-.865-1.5Z" transform="matrix(-0.934, 0.358, -0.358, -0.934, 912.338, 7571.299)" fill="#f0c518"/>
    <path id="Polígono_56" data-name="Polígono 56" d="M17.135,1.489a1,1,0,0,1,1.73,0L35.128,29.5a1,1,0,0,1-.865,1.5H1.737a1,1,0,0,1-.865-1.5Z" transform="translate(765.81 7649.696) rotate(-79)" fill="#f0c518"/>
    <path id="Polígono_57" data-name="Polígono 57" d="M17.135,1.489a1,1,0,0,1,1.73,0L35.128,29.5a1,1,0,0,1-.865,1.5H1.737a1,1,0,0,1-.865-1.5Z" transform="translate(689.572 7665.806) rotate(-42)" fill="#f0c518"/>
    <path id="Polígono_54" data-name="Polígono 54" d="M17.135,1.489a1,1,0,0,1,1.73,0L35.128,29.5a1,1,0,0,1-.865,1.5H1.737a1,1,0,0,1-.865-1.5Z" transform="translate(656.625 7523.154) rotate(9)" fill="#f0c518"/>
    <path id="Polígono_55" data-name="Polígono 55" d="M17.135,1.489a1,1,0,0,1,1.73,0L35.128,29.5a1,1,0,0,1-.865,1.5H1.737a1,1,0,0,1-.865-1.5Z" transform="matrix(0.326, 0.946, -0.946, 0.326, 771.774, 7412.214)" fill="#f0c518"/>
    <path id="Polígono_53" data-name="Polígono 53" d="M17.135,1.489a1,1,0,0,1,1.73,0L35.128,29.5a1,1,0,0,1-.865,1.5H1.737a1,1,0,0,1-.865-1.5Z" transform="translate(832.106 7650.743) rotate(-3)" fill="#f0c518"/>
  </g>
</svg>
