<svg xmlns="http://www.w3.org/2000/svg" width="378.664" height="344.278" viewBox="0 0 378.664 344.278">
  <g id="Grupo_1104775" data-name="Grupo 1104775" transform="translate(-234.734 -2160.501)">
    <path id="Trazado_890689" data-name="Trazado 890689" d="M7.438-2.344H3.328L2.547,0H.055L4.289-11.375H6.461L10.719,0H8.227Zm-3.477-1.9H6.8L5.375-8.5Zm14.906.094A5.07,5.07,0,0,1,17.98-1.02,2.843,2.843,0,0,1,15.586.156a2.633,2.633,0,0,1-2.07-.891V3.25H11.258v-11.7h2.094l.078.828a2.654,2.654,0,0,1,2.141-.984A2.862,2.862,0,0,1,18-7.453a5.207,5.207,0,0,1,.867,3.188Zm-2.258-.172a3.345,3.345,0,0,0-.418-1.826,1.36,1.36,0,0,0-1.215-.643,1.478,1.478,0,0,0-1.461.815V-2.5a1.5,1.5,0,0,0,1.477.839Q16.609-1.664,16.609-4.321Zm8.406-2.015A6.134,6.134,0,0,0,24.2-6.4a1.654,1.654,0,0,0-1.68.867V0H20.266V-8.453H22.4l.063,1.008a2.092,2.092,0,0,1,1.883-1.164,2.366,2.366,0,0,1,.7.1ZM29.844.156A4.15,4.15,0,0,1,26.816-.984a4.054,4.054,0,0,1-1.168-3.039v-.219a5.106,5.106,0,0,1,.492-2.277,3.612,3.612,0,0,1,1.395-1.547,3.914,3.914,0,0,1,2.059-.543,3.508,3.508,0,0,1,2.73,1.094,4.444,4.444,0,0,1,1,3.1v.922H27.938a2.1,2.1,0,0,0,.66,1.328,2,2,0,0,0,1.395.5,2.437,2.437,0,0,0,2.039-.945l1.109,1.242A3.389,3.389,0,0,1,31.766-.246,4.511,4.511,0,0,1,29.844.156Zm-.258-6.945a1.411,1.411,0,0,0-1.09.455,2.357,2.357,0,0,0-.535,1.3H31.1v-.181A1.681,1.681,0,0,0,30.7-6.377,1.456,1.456,0,0,0,29.586-6.789ZM36.68-8.453l.07.977a2.951,2.951,0,0,1,2.43-1.133,2.453,2.453,0,0,1,2,.789,3.682,3.682,0,0,1,.672,2.359V0H39.594V-5.419a1.47,1.47,0,0,0-.312-1.045,1.4,1.4,0,0,0-1.039-.325,1.553,1.553,0,0,0-1.43.814V0H34.555V-8.453Zm6.531,4.164A5.094,5.094,0,0,1,44.1-7.437a2.877,2.877,0,0,1,2.426-1.172,2.589,2.589,0,0,1,2.039.922V-12h2.266V0H48.789L48.68-.9A2.657,2.657,0,0,1,46.508.156,2.869,2.869,0,0,1,44.113-1.02,5.258,5.258,0,0,1,43.211-4.289Zm2.258.161A3.355,3.355,0,0,0,45.883-2.3a1.348,1.348,0,0,0,1.2.636,1.51,1.51,0,0,0,1.477-.887V-5.9A1.489,1.489,0,0,0,47.1-6.789Q45.469-6.789,45.469-4.128ZM54.961,0H52.7V-8.453h2.266Zm-2.4-10.641a1.112,1.112,0,0,1,.34-.836,1.277,1.277,0,0,1,.926-.328,1.28,1.28,0,0,1,.922.328,1.105,1.105,0,0,1,.344.836,1.108,1.108,0,0,1-.348.844,1.283,1.283,0,0,1-.918.328A1.283,1.283,0,0,1,52.91-9.8,1.108,1.108,0,0,1,52.563-10.641Zm6.852,8.82h4.133V0H56.531V-1.375l3.977-5.258H56.648v-1.82h6.773v1.33Zm16.1-.523H71.406L70.625,0H68.133l4.234-11.375h2.172L78.8,0H76.3Zm-3.477-1.9h2.844L73.453-8.5Z" transform="translate(265 2172.501)" fill="#fff"/>
    <path id="Trazado_890690" data-name="Trazado 890690" d="M7.438-2.344H3.328L2.547,0H.055L4.289-11.375H6.461L10.719,0H8.227Zm-3.477-1.9H6.8L5.375-8.5Zm14.906.094A5.07,5.07,0,0,1,17.98-1.02,2.843,2.843,0,0,1,15.586.156a2.633,2.633,0,0,1-2.07-.891V3.25H11.258v-11.7h2.094l.078.828a2.654,2.654,0,0,1,2.141-.984A2.862,2.862,0,0,1,18-7.453a5.207,5.207,0,0,1,.867,3.188Zm-2.258-.172a3.345,3.345,0,0,0-.418-1.826,1.36,1.36,0,0,0-1.215-.643,1.478,1.478,0,0,0-1.461.815V-2.5a1.5,1.5,0,0,0,1.477.839Q16.609-1.664,16.609-4.321Zm8.406-2.015A6.134,6.134,0,0,0,24.2-6.4a1.654,1.654,0,0,0-1.68.867V0H20.266V-8.453H22.4l.063,1.008a2.092,2.092,0,0,1,1.883-1.164,2.366,2.366,0,0,1,.7.1ZM29.844.156A4.15,4.15,0,0,1,26.816-.984a4.054,4.054,0,0,1-1.168-3.039v-.219a5.106,5.106,0,0,1,.492-2.277,3.612,3.612,0,0,1,1.395-1.547,3.914,3.914,0,0,1,2.059-.543,3.508,3.508,0,0,1,2.73,1.094,4.444,4.444,0,0,1,1,3.1v.922H27.938a2.1,2.1,0,0,0,.66,1.328,2,2,0,0,0,1.395.5,2.437,2.437,0,0,0,2.039-.945l1.109,1.242A3.389,3.389,0,0,1,31.766-.246,4.511,4.511,0,0,1,29.844.156Zm-.258-6.945a1.411,1.411,0,0,0-1.09.455,2.357,2.357,0,0,0-.535,1.3H31.1v-.181A1.681,1.681,0,0,0,30.7-6.377,1.456,1.456,0,0,0,29.586-6.789ZM36.68-8.453l.07.977a2.951,2.951,0,0,1,2.43-1.133,2.453,2.453,0,0,1,2,.789,3.682,3.682,0,0,1,.672,2.359V0H39.594V-5.419a1.47,1.47,0,0,0-.312-1.045,1.4,1.4,0,0,0-1.039-.325,1.553,1.553,0,0,0-1.43.814V0H34.555V-8.453Zm6.531,4.164A5.094,5.094,0,0,1,44.1-7.437a2.877,2.877,0,0,1,2.426-1.172,2.589,2.589,0,0,1,2.039.922V-12h2.266V0H48.789L48.68-.9A2.657,2.657,0,0,1,46.508.156,2.869,2.869,0,0,1,44.113-1.02,5.258,5.258,0,0,1,43.211-4.289Zm2.258.161A3.355,3.355,0,0,0,45.883-2.3a1.348,1.348,0,0,0,1.2.636,1.51,1.51,0,0,0,1.477-.887V-5.9A1.489,1.489,0,0,0,47.1-6.789Q45.469-6.789,45.469-4.128ZM54.961,0H52.7V-8.453h2.266Zm-2.4-10.641a1.112,1.112,0,0,1,.34-.836,1.277,1.277,0,0,1,.926-.328,1.28,1.28,0,0,1,.922.328,1.105,1.105,0,0,1,.344.836,1.108,1.108,0,0,1-.348.844,1.283,1.283,0,0,1-.918.328A1.283,1.283,0,0,1,52.91-9.8,1.108,1.108,0,0,1,52.563-10.641Zm6.852,8.82h4.133V0H56.531V-1.375l3.977-5.258H56.648v-1.82h6.773v1.33ZM69.094,0V-11.375h3.984a5.232,5.232,0,0,1,3.141.793,2.712,2.712,0,0,1,1.07,2.324,2.57,2.57,0,0,1-.43,1.473,2.482,2.482,0,0,1-1.2.934,2.4,2.4,0,0,1,1.379.883,2.61,2.61,0,0,1,.5,1.625A3,3,0,0,1,76.5-.859,4.713,4.713,0,0,1,73.516,0Zm2.344-4.953v3.07h2.008a1.938,1.938,0,0,0,1.293-.395,1.353,1.353,0,0,0,.465-1.09,1.428,1.428,0,0,0-1.617-1.586Zm0-1.656h1.734q1.773-.031,1.773-1.414A1.307,1.307,0,0,0,74.5-9.137a2.363,2.363,0,0,0-1.418-.34H71.438Z" transform="translate(502 2172.501)" fill="#fff"/>
    <path id="Trazado_890699" data-name="Trazado 890699" d="M7.438-2.344H3.328L2.547,0H.055L4.289-11.375H6.461L10.719,0H8.227Zm-3.477-1.9H6.8L5.375-8.5Zm14.906.094A5.07,5.07,0,0,1,17.98-1.02,2.843,2.843,0,0,1,15.586.156a2.633,2.633,0,0,1-2.07-.891V3.25H11.258v-11.7h2.094l.078.828a2.654,2.654,0,0,1,2.141-.984A2.862,2.862,0,0,1,18-7.453a5.207,5.207,0,0,1,.867,3.188Zm-2.258-.172a3.345,3.345,0,0,0-.418-1.826,1.36,1.36,0,0,0-1.215-.643,1.478,1.478,0,0,0-1.461.815V-2.5a1.5,1.5,0,0,0,1.477.839Q16.609-1.664,16.609-4.321Zm8.406-2.015A6.134,6.134,0,0,0,24.2-6.4a1.654,1.654,0,0,0-1.68.867V0H20.266V-8.453H22.4l.063,1.008a2.092,2.092,0,0,1,1.883-1.164,2.366,2.366,0,0,1,.7.1ZM29.844.156A4.15,4.15,0,0,1,26.816-.984a4.054,4.054,0,0,1-1.168-3.039v-.219a5.106,5.106,0,0,1,.492-2.277,3.612,3.612,0,0,1,1.395-1.547,3.914,3.914,0,0,1,2.059-.543,3.508,3.508,0,0,1,2.73,1.094,4.444,4.444,0,0,1,1,3.1v.922H27.938a2.1,2.1,0,0,0,.66,1.328,2,2,0,0,0,1.395.5,2.437,2.437,0,0,0,2.039-.945l1.109,1.242A3.389,3.389,0,0,1,31.766-.246,4.511,4.511,0,0,1,29.844.156Zm-.258-6.945a1.411,1.411,0,0,0-1.09.455,2.357,2.357,0,0,0-.535,1.3H31.1v-.181A1.681,1.681,0,0,0,30.7-6.377,1.456,1.456,0,0,0,29.586-6.789ZM36.68-8.453l.07.977a2.951,2.951,0,0,1,2.43-1.133,2.453,2.453,0,0,1,2,.789,3.682,3.682,0,0,1,.672,2.359V0H39.594V-5.419a1.47,1.47,0,0,0-.312-1.045,1.4,1.4,0,0,0-1.039-.325,1.553,1.553,0,0,0-1.43.814V0H34.555V-8.453Zm6.531,4.164A5.094,5.094,0,0,1,44.1-7.437a2.877,2.877,0,0,1,2.426-1.172,2.589,2.589,0,0,1,2.039.922V-12h2.266V0H48.789L48.68-.9A2.657,2.657,0,0,1,46.508.156,2.869,2.869,0,0,1,44.113-1.02,5.258,5.258,0,0,1,43.211-4.289Zm2.258.161A3.355,3.355,0,0,0,45.883-2.3a1.348,1.348,0,0,0,1.2.636,1.51,1.51,0,0,0,1.477-.887V-5.9A1.489,1.489,0,0,0,47.1-6.789Q45.469-6.789,45.469-4.128ZM54.961,0H52.7V-8.453h2.266Zm-2.4-10.641a1.112,1.112,0,0,1,.34-.836,1.277,1.277,0,0,1,.926-.328,1.28,1.28,0,0,1,.922.328,1.105,1.105,0,0,1,.344.836,1.108,1.108,0,0,1-.348.844,1.283,1.283,0,0,1-.918.328A1.283,1.283,0,0,1,52.91-9.8,1.108,1.108,0,0,1,52.563-10.641Zm6.852,8.82h4.133V0H56.531V-1.375l3.977-5.258H56.648v-1.82h6.773v1.33ZM78.023-3.789A4.025,4.025,0,0,1,76.668-.9,4.76,4.76,0,0,1,73.445.156,4.28,4.28,0,0,1,70-1.316,6.038,6.038,0,0,1,68.75-5.359v-.7a6.819,6.819,0,0,1,.578-2.891,4.332,4.332,0,0,1,1.652-1.918,4.629,4.629,0,0,1,2.5-.668,4.637,4.637,0,0,1,3.172,1.055,4.326,4.326,0,0,1,1.391,2.961H75.7a2.376,2.376,0,0,0-.613-1.6,2.271,2.271,0,0,0-1.605-.5,1.991,1.991,0,0,0-1.754.84,4.707,4.707,0,0,0-.6,2.605V-5.3a5.038,5.038,0,0,0,.559,2.7,1.954,1.954,0,0,0,1.762.852,2.314,2.314,0,0,0,1.621-.5,2.241,2.241,0,0,0,.613-1.535Z" transform="translate(265 2365.5)" fill="#fff"/>
    <path id="Trazado_890693" data-name="Trazado 890693" d="M5.7,0H4.242V-9.633L1.328-8.562V-9.875L5.469-11.43H5.7Z" transform="translate(234 2264.751)" fill="#fff"/>
    <path id="Trazado_890703" data-name="Trazado 890703" d="M3.047-6.391H4.133A2.387,2.387,0,0,0,5.742-6.93a1.8,1.8,0,0,0,.586-1.414,1.764,1.764,0,0,0-1.992-2,2.072,2.072,0,0,0-1.5.535,1.873,1.873,0,0,0-.559,1.418H.836a2.9,2.9,0,0,1,.988-2.246,3.6,3.6,0,0,1,2.512-.895,3.558,3.558,0,0,1,2.523.852,3.076,3.076,0,0,1,.914,2.367,2.5,2.5,0,0,1-.48,1.438A2.9,2.9,0,0,1,5.984-5.836a2.8,2.8,0,0,1,1.449.984,2.734,2.734,0,0,1,.512,1.68,3.1,3.1,0,0,1-1,2.43,3.745,3.745,0,0,1-2.6.9A3.844,3.844,0,0,1,1.738-.711,2.877,2.877,0,0,1,.734-3H2.188a1.859,1.859,0,0,0,.586,1.438,2.229,2.229,0,0,0,1.57.539,2.187,2.187,0,0,0,1.6-.547A2.108,2.108,0,0,0,6.5-3.141a1.912,1.912,0,0,0-.609-1.523,2.655,2.655,0,0,0-1.758-.547H3.047Z" transform="translate(234 2446.875)" fill="#fff"/>
    <path id="Trazado_890695" data-name="Trazado 890695" d="M5.7,0H4.242V-9.633L1.328-8.562V-9.875L5.469-11.43H5.7Z" transform="translate(462 2264.751)" fill="#fff"/>
    <path id="Trazado_890705" data-name="Trazado 890705" d="M7.047-3.82H8.625v1.18H7.047V0H5.594V-2.641H.414v-.852l5.094-7.883H7.047Zm-4.992,0H5.594V-9.4l-.172.313Z" transform="translate(462 2446.875)" fill="#fff"/>
    <path id="Trazado_890692" data-name="Trazado 890692" d="M8.4,0H.945V-1.039L4.883-5.414A9.354,9.354,0,0,0,6.09-7.027a2.693,2.693,0,0,0,.332-1.285,2.041,2.041,0,0,0-.539-1.461,1.885,1.885,0,0,0-1.437-.57A2.232,2.232,0,0,0,2.77-9.73a2.343,2.343,0,0,0-.6,1.707H.727a3.355,3.355,0,0,1,1.012-2.539,3.751,3.751,0,0,1,2.707-.969,3.6,3.6,0,0,1,2.508.832,2.838,2.838,0,0,1,.922,2.215q0,1.68-2.141,4L2.688-1.18H8.4Z" transform="translate(310.999 2209.751)" fill="#fff"/>
    <path id="Trazado_890702" data-name="Trazado 890702" d="M7.047-3.82H8.625v1.18H7.047V0H5.594V-2.641H.414v-.852l5.094-7.883H7.047Zm-4.992,0H5.594V-9.4l-.172.313Z" transform="translate(310.999 2386.875)" fill="#fff"/>
    <path id="Trazado_890691" data-name="Trazado 890691" d="M7.047-3.82H8.625v1.18H7.047V0H5.594V-2.641H.414v-.852l5.094-7.883H7.047Zm-4.992,0H5.594V-9.4l-.172.313Z" transform="translate(538.999 2209.751)" fill="#fff"/>
    <path id="Trazado_890701" data-name="Trazado 890701" d="M5.7,0H4.242V-9.633L1.328-8.562V-9.875L5.469-11.43H5.7Z" transform="translate(538.999 2386.875)" fill="#fff"/>
    <path id="Trazado_890694" data-name="Trazado 890694" d="M3.047-6.391H4.133A2.387,2.387,0,0,0,5.742-6.93a1.8,1.8,0,0,0,.586-1.414,1.764,1.764,0,0,0-1.992-2,2.072,2.072,0,0,0-1.5.535,1.873,1.873,0,0,0-.559,1.418H.836a2.9,2.9,0,0,1,.988-2.246,3.6,3.6,0,0,1,2.512-.895,3.558,3.558,0,0,1,2.523.852,3.076,3.076,0,0,1,.914,2.367,2.5,2.5,0,0,1-.48,1.438A2.9,2.9,0,0,1,5.984-5.836a2.8,2.8,0,0,1,1.449.984,2.734,2.734,0,0,1,.512,1.68,3.1,3.1,0,0,1-1,2.43,3.745,3.745,0,0,1-2.6.9A3.844,3.844,0,0,1,1.738-.711,2.877,2.877,0,0,1,.734-3H2.188a1.859,1.859,0,0,0,.586,1.438,2.229,2.229,0,0,0,1.57.539,2.187,2.187,0,0,0,1.6-.547A2.108,2.108,0,0,0,6.5-3.141a1.912,1.912,0,0,0-.609-1.523,2.655,2.655,0,0,0-1.758-.547H3.047Z" transform="translate(377 2264.751)" fill="#fff"/>
    <path id="Trazado_890704" data-name="Trazado 890704" d="M5.7,0H4.242V-9.633L1.328-8.562V-9.875L5.469-11.43H5.7Z" transform="translate(377 2446.875)" fill="#fff"/>
    <path id="Trazado_890696" data-name="Trazado 890696" d="M3.047-6.391H4.133A2.387,2.387,0,0,0,5.742-6.93a1.8,1.8,0,0,0,.586-1.414,1.764,1.764,0,0,0-1.992-2,2.072,2.072,0,0,0-1.5.535,1.873,1.873,0,0,0-.559,1.418H.836a2.9,2.9,0,0,1,.988-2.246,3.6,3.6,0,0,1,2.512-.895,3.558,3.558,0,0,1,2.523.852,3.076,3.076,0,0,1,.914,2.367,2.5,2.5,0,0,1-.48,1.438A2.9,2.9,0,0,1,5.984-5.836a2.8,2.8,0,0,1,1.449.984,2.734,2.734,0,0,1,.512,1.68,3.1,3.1,0,0,1-1,2.43,3.745,3.745,0,0,1-2.6.9A3.844,3.844,0,0,1,1.738-.711,2.877,2.877,0,0,1,.734-3H2.188a1.859,1.859,0,0,0,.586,1.438,2.229,2.229,0,0,0,1.57.539,2.187,2.187,0,0,0,1.6-.547A2.108,2.108,0,0,0,6.5-3.141a1.912,1.912,0,0,0-.609-1.523,2.655,2.655,0,0,0-1.758-.547H3.047Z" transform="translate(605 2264.751)" fill="#fff"/>
    <path id="Trazado_890706" data-name="Trazado 890706" d="M8.4,0H.945V-1.039L4.883-5.414A9.354,9.354,0,0,0,6.09-7.027a2.693,2.693,0,0,0,.332-1.285,2.041,2.041,0,0,0-.539-1.461,1.885,1.885,0,0,0-1.437-.57A2.232,2.232,0,0,0,2.77-9.73a2.343,2.343,0,0,0-.6,1.707H.727a3.355,3.355,0,0,1,1.012-2.539,3.751,3.751,0,0,1,2.707-.969,3.6,3.6,0,0,1,2.508.832,2.838,2.838,0,0,1,.922,2.215q0,1.68-2.141,4L2.688-1.18H8.4Z" transform="translate(605 2446.875)" fill="#fff"/>
    <path id="Trazado_890698" data-name="Trazado 890698" d="M7.047-3.82H8.625v1.18H7.047V0H5.594V-2.641H.414v-.852l5.094-7.883H7.047Zm-4.992,0H5.594V-9.4l-.172.313Z" transform="translate(310.999 2322.5)" fill="#fff"/>
    <path id="Trazado_890708" data-name="Trazado 890708" d="M8.4,0H.945V-1.039L4.883-5.414A9.354,9.354,0,0,0,6.09-7.027a2.693,2.693,0,0,0,.332-1.285,2.041,2.041,0,0,0-.539-1.461,1.885,1.885,0,0,0-1.437-.57A2.232,2.232,0,0,0,2.77-9.73a2.343,2.343,0,0,0-.6,1.707H.727a3.355,3.355,0,0,1,1.012-2.539,3.751,3.751,0,0,1,2.707-.969,3.6,3.6,0,0,1,2.508.832,2.838,2.838,0,0,1,.922,2.215q0,1.68-2.141,4L2.688-1.18H8.4Z" transform="translate(310.999 2504.623)" fill="#fff"/>
    <path id="Trazado_890697" data-name="Trazado 890697" d="M8.4,0H.945V-1.039L4.883-5.414A9.354,9.354,0,0,0,6.09-7.027a2.693,2.693,0,0,0,.332-1.285,2.041,2.041,0,0,0-.539-1.461,1.885,1.885,0,0,0-1.437-.57A2.232,2.232,0,0,0,2.77-9.73a2.343,2.343,0,0,0-.6,1.707H.727a3.355,3.355,0,0,1,1.012-2.539,3.751,3.751,0,0,1,2.707-.969,3.6,3.6,0,0,1,2.508.832,2.838,2.838,0,0,1,.922,2.215q0,1.68-2.141,4L2.688-1.18H8.4Z" transform="translate(538.999 2322.5)" fill="#fff"/>
    <path id="Trazado_890707" data-name="Trazado 890707" d="M3.047-6.391H4.133A2.387,2.387,0,0,0,5.742-6.93a1.8,1.8,0,0,0,.586-1.414,1.764,1.764,0,0,0-1.992-2,2.072,2.072,0,0,0-1.5.535,1.873,1.873,0,0,0-.559,1.418H.836a2.9,2.9,0,0,1,.988-2.246,3.6,3.6,0,0,1,2.512-.895,3.558,3.558,0,0,1,2.523.852,3.076,3.076,0,0,1,.914,2.367,2.5,2.5,0,0,1-.48,1.438A2.9,2.9,0,0,1,5.984-5.836a2.8,2.8,0,0,1,1.449.984,2.734,2.734,0,0,1,.512,1.68,3.1,3.1,0,0,1-1,2.43,3.745,3.745,0,0,1-2.6.9A3.844,3.844,0,0,1,1.738-.711,2.877,2.877,0,0,1,.734-3H2.188a1.859,1.859,0,0,0,.586,1.438,2.229,2.229,0,0,0,1.57.539,2.187,2.187,0,0,0,1.6-.547A2.108,2.108,0,0,0,6.5-3.141a1.912,1.912,0,0,0-.609-1.523,2.655,2.655,0,0,0-1.758-.547H3.047Z" transform="translate(538.999 2504.623)" fill="#fff"/>
    <path id="Trazado_890700" data-name="Trazado 890700" d="M7.438-2.344H3.328L2.547,0H.055L4.289-11.375H6.461L10.719,0H8.227Zm-3.477-1.9H6.8L5.375-8.5Zm14.906.094A5.07,5.07,0,0,1,17.98-1.02,2.843,2.843,0,0,1,15.586.156a2.633,2.633,0,0,1-2.07-.891V3.25H11.258v-11.7h2.094l.078.828a2.654,2.654,0,0,1,2.141-.984A2.862,2.862,0,0,1,18-7.453a5.207,5.207,0,0,1,.867,3.188Zm-2.258-.172a3.345,3.345,0,0,0-.418-1.826,1.36,1.36,0,0,0-1.215-.643,1.478,1.478,0,0,0-1.461.815V-2.5a1.5,1.5,0,0,0,1.477.839Q16.609-1.664,16.609-4.321Zm8.406-2.015A6.134,6.134,0,0,0,24.2-6.4a1.654,1.654,0,0,0-1.68.867V0H20.266V-8.453H22.4l.063,1.008a2.092,2.092,0,0,1,1.883-1.164,2.366,2.366,0,0,1,.7.1ZM29.844.156A4.15,4.15,0,0,1,26.816-.984a4.054,4.054,0,0,1-1.168-3.039v-.219a5.106,5.106,0,0,1,.492-2.277,3.612,3.612,0,0,1,1.395-1.547,3.914,3.914,0,0,1,2.059-.543,3.508,3.508,0,0,1,2.73,1.094,4.444,4.444,0,0,1,1,3.1v.922H27.938a2.1,2.1,0,0,0,.66,1.328,2,2,0,0,0,1.395.5,2.437,2.437,0,0,0,2.039-.945l1.109,1.242A3.389,3.389,0,0,1,31.766-.246,4.511,4.511,0,0,1,29.844.156Zm-.258-6.945a1.411,1.411,0,0,0-1.09.455,2.357,2.357,0,0,0-.535,1.3H31.1v-.181A1.681,1.681,0,0,0,30.7-6.377,1.456,1.456,0,0,0,29.586-6.789ZM36.68-8.453l.07.977a2.951,2.951,0,0,1,2.43-1.133,2.453,2.453,0,0,1,2,.789,3.682,3.682,0,0,1,.672,2.359V0H39.594V-5.419a1.47,1.47,0,0,0-.312-1.045,1.4,1.4,0,0,0-1.039-.325,1.553,1.553,0,0,0-1.43.814V0H34.555V-8.453Zm6.531,4.164A5.094,5.094,0,0,1,44.1-7.437a2.877,2.877,0,0,1,2.426-1.172,2.589,2.589,0,0,1,2.039.922V-12h2.266V0H48.789L48.68-.9A2.657,2.657,0,0,1,46.508.156,2.869,2.869,0,0,1,44.113-1.02,5.258,5.258,0,0,1,43.211-4.289Zm2.258.161A3.355,3.355,0,0,0,45.883-2.3a1.348,1.348,0,0,0,1.2.636,1.51,1.51,0,0,0,1.477-.887V-5.9A1.489,1.489,0,0,0,47.1-6.789Q45.469-6.789,45.469-4.128ZM54.961,0H52.7V-8.453h2.266Zm-2.4-10.641a1.112,1.112,0,0,1,.34-.836,1.277,1.277,0,0,1,.926-.328,1.28,1.28,0,0,1,.922.328,1.105,1.105,0,0,1,.344.836,1.108,1.108,0,0,1-.348.844,1.283,1.283,0,0,1-.918.328A1.283,1.283,0,0,1,52.91-9.8,1.108,1.108,0,0,1,52.563-10.641Zm6.852,8.82h4.133V0H56.531V-1.375l3.977-5.258H56.648v-1.82h6.773v1.33ZM69.094,0V-11.375h3.5a5.315,5.315,0,0,1,2.684.676,4.712,4.712,0,0,1,1.848,1.922,5.928,5.928,0,0,1,.664,2.832v.523a5.945,5.945,0,0,1-.652,2.82A4.672,4.672,0,0,1,75.3-.687,5.355,5.355,0,0,1,72.617,0Zm2.344-9.477v7.594H72.57a2.545,2.545,0,0,0,2.1-.9,4.06,4.06,0,0,0,.742-2.57v-.6A4.124,4.124,0,0,0,74.7-8.582a2.537,2.537,0,0,0-2.1-.895Z" transform="translate(502 2365.5)" fill="#fff"/>
    <g id="Grupo_1104771" data-name="Grupo 1104771" transform="translate(-16.001 -14.499)">
      <path id="Unión_1" data-name="Unión 1" d="M8381,11782v-63.939h-5l8-18.062,8,18.063h-5.5V11782Z" transform="translate(-8105 -9468)" fill="#f0c518"/>
      <path id="Unión_4" data-name="Unión 4" d="M5,0V63.939H0L8,82l8-18.062H10.5V0Z" transform="translate(370 2231.999)" fill="#f0c518"/>
      <path id="Unión_2" data-name="Unión 2" d="M8381,11782v-63.939h-5l8-18.062,8,18.063h-5.5V11782Z" transform="translate(12069.999 -6152) rotate(90)" fill="#f0c518"/>
      <path id="Unión_3" data-name="Unión 3" d="M5,0V63.939H0L8,82l8-18.062H10.5V0Z" transform="translate(370 2305.5) rotate(90)" fill="#f0c518"/>
    </g>
    <g id="Grupo_1104773" data-name="Grupo 1104773" transform="translate(213.999 168.999)">
      <path id="Unión_1-2" data-name="Unión 1" d="M8381,11782v-63.939h-5l8-18.062,8,18.063h-5.5V11782Z" transform="translate(-8106 -9468)" fill="#f0c518"/>
      <path id="Unión_4-2" data-name="Unión 4" d="M5,0V63.939H0L8,82l8-18.062H10.5V0Z" transform="translate(370 2231.999)" fill="#f0c518"/>
      <path id="Unión_2-2" data-name="Unión 2" d="M8381,11782v-63.939h-5l8-18.062,8,18.063h-5.5V11782Z" transform="translate(12069.999 -6152) rotate(90)" fill="#f0c518"/>
      <path id="Unión_3-2" data-name="Unión 3" d="M5,0V63.939H0L8,82l8-18.062H10.5V0Z" transform="translate(370 2305.5) rotate(90)" fill="#f0c518"/>
    </g>
    <g id="Grupo_1104774" data-name="Grupo 1104774" transform="translate(-16.001 168.999)">
      <path id="Unión_1-3" data-name="Unión 1" d="M8381,11782v-63.939h-5l8-18.062,8,18.063h-5.5V11782Z" transform="translate(-8106 -9468)" fill="#f0c518"/>
      <path id="Unión_4-3" data-name="Unión 4" d="M5,0V63.939H0L8,82l8-18.062H10.5V0Z" transform="translate(370 2231.999)" fill="#f0c518"/>
      <path id="Unión_2-3" data-name="Unión 2" d="M8381,11782v-63.939h-5l8-18.062,8,18.063h-5.5V11782Z" transform="translate(12069.999 -6152) rotate(90)" fill="#f0c518"/>
      <path id="Unión_3-3" data-name="Unión 3" d="M5,0V63.939H0L8,82l8-18.062H10.5V0Z" transform="translate(370 2305.5) rotate(90)" fill="#f0c518"/>
    </g>
    <g id="Grupo_1104772" data-name="Grupo 1104772" transform="translate(481.998 2209.5)">
      <path id="Unión_1-4" data-name="Unión 1" d="M5,0V63.939H0L8,82l8-18.062H10.5V0Z" transform="translate(118.002 90.002) rotate(180)" fill="#f0c518"/>
      <path id="Unión_4-4" data-name="Unión 4" d="M5,82V18.063H0L8,0l8,18.063H10.5V82Z" transform="translate(18.001 90.002) rotate(180)" fill="#f0c518"/>
      <path id="Unión_2-4" data-name="Unión 2" d="M5,0V63.939H0L8,82l8-18.062H10.5V0Z" transform="translate(98.003) rotate(90)" fill="#f0c518"/>
      <path id="Unión_3-4" data-name="Unión 3" d="M5,82V18.063H0L8,0l8,18.063H10.5V82Z" transform="translate(98.003 81.501) rotate(90)" fill="#f0c518"/>
    </g>
  </g>
</svg>
