<svg xmlns="http://www.w3.org/2000/svg" width="62" height="52" viewBox="0 0 62 52">
  <g id="Grupo_1098827" data-name="Grupo 1098827" transform="translate(0 -0.001)">
    <rect id="Rectángulo_400902" data-name="Rectángulo 400902" width="62" height="52" rx="8" transform="translate(0 0.001)" fill="#d6e1fd"/>
    <g id="Grupo_1098863" data-name="Grupo 1098863" transform="translate(15.597 5.794)">
      <path id="Trazado_873186" data-name="Trazado 873186" d="M101.37,26.014c-2.8.734-4.079,2.929-3.563,6.107l.507,3.119h18.6l.453-3.119c1.364-9.432-13.377-12.508-16-6.107Z" transform="translate(-97.695 -22.639)" fill="#99edf2" fill-rule="evenodd"/>
    </g>
    <g id="Grupo_1098864" data-name="Grupo 1098864" transform="translate(23.599 5.794)">
      <path id="Trazado_873189" data-name="Trazado 873189" d="M181.836,23.508c4.944-.359,11.141,2.929,10.6,8.983-.014.154-.033.314-.055.473l-.329,2.271h3.008l.453-3.119c1.126-7.789-8.726-11.242-13.672-8.608Z" transform="translate(-181.836 -22.634)" fill="#7fced3" fill-rule="evenodd"/>
    </g>
    <g id="ingeniero-de-software_1_" data-name="ingeniero-de-software (1)" transform="translate(12.173 5.168)">
      <g id="Grupo_1098862" data-name="Grupo 1098862">
        <g id="Grupo_1098832" data-name="Grupo 1098832" transform="translate(5.036 10.361)">
          <path id="Trazado_873190" data-name="Trazado 873190" d="M115.654,159.125l-5.156.009c-2.262,0-2.743.285-4.118,2.855V164.8a6.732,6.732,0,0,0,.386,2.154,10.451,10.451,0,0,0,1.484,2.784l7.29,1.955,7.573-1.955a10.452,10.452,0,0,0,1.484-2.784,6.732,6.732,0,0,0,.386-2.154V161.99c-1.374-2.57-1.912-2.853-4.172-2.855Z" transform="translate(-106.381 -159.125)" fill="#fff" fill-rule="evenodd"/>
        </g>
        <g id="Grupo_1098834" data-name="Grupo 1098834" transform="translate(6.343 0)">
          <path id="Trazado_873192" data-name="Trazado 873192" d="M108.776,27.72a.625.625,0,0,1-.551-.33c-1.311-2.453-1.672-2.523-3.622-2.525l-5.156-.009-5.154.009c-1.968,0-2.269.1-3.568,2.525a.625.625,0,0,1-1.167-.194l-.507-3.119h0c-.553-3.4.8-5.833,3.727-6.728a5.987,5.987,0,0,1,3.956-3.119,11.122,11.122,0,0,1,5.881.074,10.857,10.857,0,0,1,5.448,3.329,7.95,7.95,0,0,1,1.784,6.433l-.453,3.119a.625.625,0,0,1-.51.526A.617.617,0,0,1,108.776,27.72ZM90.283,23.877l.23,1.413c.96-1.4,1.8-1.671,3.778-1.673l5.155-.009,5.158.009c1.976,0,2.85.284,3.806,1.646l.2-1.374c.683-4.724-2.98-7.465-6.325-8.377-3.314-.9-7.29-.3-8.478,2.6a.625.625,0,0,1-.42.367c-3.157.827-3.431,3.395-3.1,5.4Z" transform="translate(-88.929 -13.87)" fill="#4529c7"/>
        </g>
        <g id="Grupo_1098836" data-name="Grupo 1098836" transform="translate(25.179 12.601)">
          <path id="Trazado_873194" data-name="Trazado 873194" d="M353.937,196.758q-.177,0-.357-.014a.625.625,0,0,1,.093-1.246,2.352,2.352,0,0,0,2.308-1,1.9,1.9,0,0,0,.143-1.9,1.751,1.751,0,0,0-1.664-.814h-.448a.625.625,0,1,1,0-1.249h.448a2.961,2.961,0,0,1,2.762,1.466,3.162,3.162,0,0,1-.191,3.18A3.556,3.556,0,0,1,353.937,196.758Z" transform="translate(-353.002 -190.528)" fill="#4529c7"/>
        </g>
        <g id="Grupo_1098837" data-name="Grupo 1098837" transform="translate(4.038 12.601)">
          <path id="Trazado_873195" data-name="Trazado 873195" d="M60.232,196.758a3.554,3.554,0,0,1-3.092-1.584,3.162,3.162,0,0,1-.191-3.18,2.96,2.96,0,0,1,2.76-1.466h.448a.625.625,0,0,1,0,1.249H59.71a1.749,1.749,0,0,0-1.663.814,1.9,1.9,0,0,0,.143,1.9,2.351,2.351,0,0,0,2.307,1,.625.625,0,1,1,.094,1.246Q60.409,196.758,60.232,196.758Z" transform="translate(-56.607 -190.528)" fill="#4529c7"/>
        </g>
        <g id="Grupo_1098838" data-name="Grupo 1098838" transform="translate(6.963 12.601)">
          <path id="Trazado_873196" data-name="Trazado 873196" d="M114.98,199.531a.625.625,0,0,1-.5-.994,8.165,8.165,0,0,0,1.748-4.569v-2.815a.625.625,0,0,1,1.249,0v2.815a9.287,9.287,0,0,1-1.991,5.308A.624.624,0,0,1,114.98,199.531Zm-14.862,0a.624.624,0,0,1-.5-.255,9.288,9.288,0,0,1-1.991-5.308v-2.815a.625.625,0,0,1,1.249,0v2.815a8.166,8.166,0,0,0,1.748,4.569.625.625,0,0,1-.5.994Z" transform="translate(-97.624 -190.529)" fill="#4529c7"/>
        </g>
        <g id="Grupo_1098843" data-name="Grupo 1098843" transform="translate(4.182 20.979)">
          <path id="Trazado_873201" data-name="Trazado 873201" d="M101.989,307.979H88.247a1.168,1.168,0,0,0-1.03,1.261v14.375H104.63V309.24a1.168,1.168,0,0,0-1.03-1.261Z" transform="translate(-87.217 -307.979)" fill="#99edf2" fill-rule="evenodd"/>
        </g>
        <g id="Grupo_1098848" data-name="Grupo 1098848" transform="translate(11.711 23.392)">
          <path id="Trazado_873206" data-name="Trazado 873206" d="M168.1,342.95a4.444,4.444,0,0,0-1.81,1.045l-.636-.368a.409.409,0,0,0-.557.15l-.857,1.482a.4.4,0,0,0,.15.554l.633.366a4.54,4.54,0,0,0,0,2.086l-.633.366a.4.4,0,0,0-.15.553l.857,1.482a.41.41,0,0,0,.557.147l.636-.366a4.438,4.438,0,0,0,1.81,1.043v.732a.406.406,0,0,0,.4.406h1.717a.406.406,0,0,0,.4-.406v-.732a4.438,4.438,0,0,0,1.81-1.043l.638.366a.408.408,0,0,0,.555-.147l.857-1.482a.4.4,0,0,0-.15-.553l-.634-.366a4.538,4.538,0,0,0,0-2.086l.634-.366a.4.4,0,0,0,.15-.554l-.857-1.482a.407.407,0,0,0-.555-.15l-.638.368a4.443,4.443,0,0,0-1.81-1.045v-.732a.4.4,0,0,0-.4-.4H168.5a.4.4,0,0,0-.4.4v.731Zm1.265,2.349a1.922,1.922,0,1,1-1.929,1.922,1.925,1.925,0,0,1,1.929-1.922Z" transform="translate(-164.181 -341.815)" fill="#e5e1e5" fill-rule="evenodd"/>
        </g>
        <g id="Grupo_1098849" data-name="Grupo 1098849" transform="translate(14.336 26.252)">
          <path id="Trazado_873207" data-name="Trazado 873207" d="M203.544,387a2.546,2.546,0,1,1,2.551-2.546A2.553,2.553,0,0,1,203.544,387Zm0-3.843a1.3,1.3,0,1,0,1.3,1.3A1.3,1.3,0,0,0,203.544,383.157Z" transform="translate(-200.99 -381.908)" fill="#4529c7"/>
        </g>
        <g id="Grupo_1098850" data-name="Grupo 1098850" transform="translate(11.086 22.767)">
          <path id="Trazado_873208" data-name="Trazado 873208" d="M162.077,345.118H160.36a1.031,1.031,0,0,1-1.029-1.031V343.8a5.106,5.106,0,0,1-1.258-.725l-.252.145a1.037,1.037,0,0,1-1.409-.375l-.858-1.484a1.029,1.029,0,0,1,.381-1.408l.248-.144a5.137,5.137,0,0,1,0-1.445l-.251-.145a1.029,1.029,0,0,1-.378-1.408l.857-1.481a1.034,1.034,0,0,1,1.408-.379l.254.147a5.11,5.11,0,0,1,1.257-.726v-.288a1.03,1.03,0,0,1,1.03-1.028h1.717a1.03,1.03,0,0,1,1.029,1.028v.288a5.108,5.108,0,0,1,1.257.726l.254-.147a1.032,1.032,0,0,1,1.409.379l.856,1.481a1.029,1.029,0,0,1-.381,1.408l-.249.144a5.141,5.141,0,0,1,0,1.445l.251.145a1.029,1.029,0,0,1,.378,1.408l-.856,1.481a1.033,1.033,0,0,1-1.409.375l-.252-.145a5.1,5.1,0,0,1-1.258.725v.287A1.031,1.031,0,0,1,162.077,345.118Zm-1.5-1.249h1.277v-.513a.625.625,0,0,1,.449-.6,3.835,3.835,0,0,0,1.555-.9.624.624,0,0,1,.741-.089l.451.259.637-1.1-.445-.257a.625.625,0,0,1-.3-.684,3.915,3.915,0,0,0,0-1.8.625.625,0,0,1,.3-.684l.445-.257-.638-1.1-.449.259a.625.625,0,0,1-.743-.088,3.839,3.839,0,0,0-1.555-.9.624.624,0,0,1-.449-.6v-.511H160.58v.511a.624.624,0,0,1-.449.6,3.838,3.838,0,0,0-1.556.9.625.625,0,0,1-.743.088l-.448-.259-.639,1.1.445.257a.625.625,0,0,1,.3.684,3.912,3.912,0,0,0,0,1.8.625.625,0,0,1-.3.684l-.444.257.638,1.1.45-.259a.624.624,0,0,1,.742.089,3.834,3.834,0,0,0,1.555.9.625.625,0,0,1,.449.6v.513Zm4.659-1.733h0Zm.642-1.1h0Zm-9.322,0h0Zm9.243-.3h0Zm-9.167,0h0Zm9.167-3.3h0Zm-9.166,0h0Zm9.244-.3h0Zm-9.325,0h0Zm8.688-1.1h0Zm-.3-.078h0Zm-7.451,0h0Z" transform="translate(-155.415 -333.057)" fill="#4529c7"/>
        </g>
        <g id="Grupo_1098851" data-name="Grupo 1098851" transform="translate(5.596 20.354)">
          <path id="Trazado_873209" data-name="Trazado 873209" d="M100.419,316.108H79.084a.625.625,0,0,1-.625-.625V301.108a1.888,1.888,0,0,1,1.887-1.886h7.64a.625.625,0,1,1,0,1.249h-7.64a.646.646,0,0,0-.638.637v13.751H99.795V301.108a.638.638,0,0,0-.638-.637H90.9a.625.625,0,1,1,0-1.249h8.261a1.888,1.888,0,0,1,1.887,1.886v14.375A.625.625,0,0,1,100.419,316.108Z" transform="translate(-78.459 -299.222)" fill="#4529c7"/>
        </g>
        <g id="Grupo_1098852" data-name="Grupo 1098852" transform="translate(3.813 35.991)">
          <path id="Trazado_873210" data-name="Trazado 873210" d="M77.106,523.116a.625.625,0,0,1,0-1.249,1.251,1.251,0,0,0,1.252-1.247v-.927H54.7v.927a1.251,1.251,0,0,0,1.252,1.247.625.625,0,0,1,0,1.249,2.5,2.5,0,0,1-2.5-2.5v-.943a1.235,1.235,0,0,1,1.234-1.233H78.371a1.236,1.236,0,0,1,1.237,1.233v.943A2.5,2.5,0,0,1,77.106,523.116Z" transform="translate(-53.453 -518.444)" fill="#4529c7"/>
        </g>
        <g id="Grupo_1098855" data-name="Grupo 1098855" transform="translate(0 28.238)">
          <path id="Trazado_873213" data-name="Trazado 873213" d="M32.655,422.172H1.122A1.122,1.122,0,0,1,0,421.053v-3.827c0-2.289.44-5.487,4.24-6.822l1.774-.622a.625.625,0,0,1,.413,1.179l-1.774.622c-2.386.838-3.4,2.526-3.4,5.643v3.7H32.528v-3.7c0-3.117-1.018-4.805-3.4-5.643l-1.774-.622a.625.625,0,0,1,.413-1.179l1.774.622c3.8,1.335,4.24,4.533,4.24,6.822v3.827A1.122,1.122,0,0,1,32.655,422.172Z" transform="translate(0 -409.746)" fill="#4529c7"/>
        </g>
        <g id="Grupo_1098856" data-name="Grupo 1098856" transform="translate(21.844 18.714)">
          <path id="Trazado_873214" data-name="Trazado 873214" d="M358.73,276.569a7.881,7.881,0,0,1-11.286,10.589l-2.193-.1-2.891-.135,1.11-2.667.843-2.024a7.889,7.889,0,0,1,14.417-5.66Z" transform="translate(-342.36 -272.913)" fill="#99edf2" fill-rule="evenodd"/>
        </g>
        <g id="Grupo_1098858" data-name="Grupo 1098858" transform="translate(23.796 17.857)">
          <path id="Trazado_873216" data-name="Trazado 873216" d="M343.932,281.2a8.509,8.509,0,0,1-4.831-1.508l-4.9-.229a.625.625,0,0,1-.548-.864l1.883-4.523a8.515,8.515,0,1,1,15.193,3.746.625.625,0,0,1-1-.755,7.255,7.255,0,1,0-12.937-3.035.625.625,0,0,1-.037.355l-1.611,3.869,4.195.2a.625.625,0,0,1,.336.117,7.251,7.251,0,0,0,8.148.247.625.625,0,0,1,.667,1.056A8.527,8.527,0,0,1,343.932,281.2Z" transform="translate(-333.603 -264.21)" fill="#4529c7"/>
        </g>
        <g id="Grupo_1098859" data-name="Grupo 1098859" transform="translate(28.921 23.915)">
          <path id="Trazado_873217" data-name="Trazado 873217" d="M407.3,354.506a.624.624,0,0,1-.541-.311l-1.219-2.1a.624.624,0,0,1,.006-.637l1.219-2.017a.625.625,0,0,1,1.069.646l-1.028,1.7,1.033,1.78a.625.625,0,0,1-.54.938Z" transform="translate(-405.453 -349.14)" fill="#4529c7"/>
        </g>
        <g id="Grupo_1098860" data-name="Grupo 1098860" transform="translate(32.552 23.696)">
          <path id="Trazado_873218" data-name="Trazado 873218" d="M456.99,351.877a.625.625,0,0,1-.58-.856l1.817-4.551a.625.625,0,0,1,1.16.463l-1.817,4.551A.625.625,0,0,1,456.99,351.877Z" transform="translate(-456.365 -346.077)" fill="#4529c7"/>
        </g>
        <g id="Grupo_1098861" data-name="Grupo 1098861" transform="translate(36.972 23.914)">
          <path id="Trazado_873219" data-name="Trazado 873219" d="M518.957,354.505a.625.625,0,0,1-.539-.938l1.033-1.78-1.028-1.7a.625.625,0,1,1,1.069-.646l1.219,2.017a.625.625,0,0,1,.006.637l-1.219,2.1A.624.624,0,0,1,518.957,354.505Z" transform="translate(-518.333 -349.139)" fill="#4529c7"/>
        </g>
      </g>
    </g>
  </g>
</svg>
