<svg xmlns="http://www.w3.org/2000/svg" width="84.872" height="84.872" viewBox="0 0 84.872 84.872">
  <g id="Grupo_1103437" data-name="Grupo 1103437" transform="translate(-757.564 -6155.293)">
    <path id="Trazado_879587" data-name="Trazado 879587" d="M42.436,0A42.436,42.436,0,1,1,0,42.436,42.436,42.436,0,0,1,42.436,0Z" transform="translate(757.564 6155.293)" fill="#f0c52c"/>
    <g id="ingeniero-de-software_2_" data-name="ingeniero-de-software (2)" transform="translate(774.637 6153.429)">
      <g id="Grupo_1102099" data-name="Grupo 1102099" transform="translate(0 13.87)">
        <g id="Grupo_1102065" data-name="Grupo 1102065" transform="translate(9.893 0.888)">
          <path id="Trazado_879646" data-name="Trazado 879646" d="M102.912,27.43c-3.976,1.042-5.792,4.158-5.058,8.67l.72,4.428h26.41l.642-4.428c1.937-13.392-18.992-17.759-22.714-8.67Z" transform="translate(-97.695 -22.639)" fill="#554e56" fill-rule="evenodd"/>
        </g>
        <g id="Grupo_1102066" data-name="Grupo 1102066" transform="translate(6.615 18.777)">
          <path id="Trazado_879647" data-name="Trazado 879647" d="M68.847,199.286c-5.295,0-4.392,7.473,1.183,7.055a7.1,7.1,0,0,0-.548-7.055Z" transform="translate(-65.325 -199.286)" fill="#f6a96c" fill-rule="evenodd"/>
        </g>
        <g id="Grupo_1102067" data-name="Grupo 1102067" transform="translate(35.394 18.777)">
          <path id="Trazado_879648" data-name="Trazado 879648" d="M351.288,199.286c-2.042,2.286-2.485,4.688-.548,7.055,5.575.418,6.478-7.055,1.183-7.055Z" transform="translate(-349.499 -199.286)" fill="#f6a96c" fill-rule="evenodd"/>
        </g>
        <g id="Grupo_1102068" data-name="Grupo 1102068" transform="translate(18.414 0.888)">
          <path id="Trazado_879649" data-name="Trazado 879649" d="M181.836,23.874c7.019-.509,15.817,4.158,15.042,12.754-.02.219-.047.445-.078.671l-.467,3.224h4.27l.642-4.428c1.6-11.058-12.389-15.961-19.411-12.222Z" transform="translate(-181.836 -22.634)" fill="#433f43" fill-rule="evenodd"/>
        </g>
        <g id="Grupo_1102069" data-name="Grupo 1102069" transform="translate(10.773 14.71)">
          <path id="Trazado_879650" data-name="Trazado 879650" d="M119.547,159.125l-7.32.013c-3.212,0-3.9.4-5.846,4.054v4a9.558,9.558,0,0,0,.548,3.059,14.839,14.839,0,0,0,2.106,3.952l10.35,2.776,10.752-2.776a14.84,14.84,0,0,0,2.106-3.952,9.558,9.558,0,0,0,.548-3.059v-4c-1.951-3.649-2.715-4.05-5.924-4.054Z" transform="translate(-106.381 -159.125)" fill="#fed2a4" fill-rule="evenodd"/>
        </g>
        <g id="Grupo_1102070" data-name="Grupo 1102070" transform="translate(28.656 14.72)">
          <path id="Trazado_879651" data-name="Trazado 879651" d="M282.965,159.225c6.377.017,6.982,6.259,5.332,11.108-.335.981-.811,2.641-1.407,3.956-.091.2-.186.395-.281.577l2.035-.526.193-.051a14.84,14.84,0,0,0,2.106-3.952,9.558,9.558,0,0,0,.548-3.059v-4c-1.951-3.649-2.715-4.05-5.924-4.054Z" transform="translate(-282.965 -159.225)" fill="#ffbd86" fill-rule="evenodd"/>
        </g>
        <g id="Grupo_1102071" data-name="Grupo 1102071" transform="translate(9.006 0)">
          <path id="Trazado_879652" data-name="Trazado 879652" d="M117.106,33.534a.887.887,0,0,1-.782-.469c-1.862-3.482-2.374-3.582-5.142-3.585l-7.321-.013-7.317.013c-2.794,0-3.221.136-5.066,3.585a.887.887,0,0,1-1.657-.276l-.72-4.428h0c-.784-4.824,1.141-8.281,5.291-9.552a8.5,8.5,0,0,1,5.616-4.428,15.79,15.79,0,0,1,8.349.105,15.414,15.414,0,0,1,7.735,4.726,11.286,11.286,0,0,1,2.533,9.133l-.642,4.428a.887.887,0,0,1-.725.746A.876.876,0,0,1,117.106,33.534ZM90.852,28.077l.326,2.005c1.363-1.99,2.552-2.373,5.364-2.376l7.319-.013,7.323.013c2.805,0,4.046.4,5.4,2.336l.283-1.951c.97-6.707-4.231-10.6-8.98-11.894-4.705-1.283-10.35-.429-12.036,3.687a.887.887,0,0,1-.6.522c-4.483,1.175-4.871,4.819-4.408,7.67Z" transform="translate(-88.929 -13.87)"/>
        </g>
        <g id="Grupo_1102073" data-name="Grupo 1102073" transform="translate(35.748 17.89)">
          <path id="Trazado_879654" data-name="Trazado 879654" d="M354.33,199.373q-.251,0-.507-.019a.887.887,0,0,1,.133-1.769,3.34,3.34,0,0,0,3.277-1.424,2.7,2.7,0,0,0,.2-2.7,2.485,2.485,0,0,0-2.363-1.156h-.636a.887.887,0,0,1,0-1.774h.636a4.2,4.2,0,0,1,3.921,2.081,4.489,4.489,0,0,1-.271,4.514A5.048,5.048,0,0,1,354.33,199.373Z" transform="translate(-353.002 -190.528)"/>
        </g>
        <g id="Grupo_1102074" data-name="Grupo 1102074" transform="translate(5.733 17.89)">
          <path id="Trazado_879655" data-name="Trazado 879655" d="M61.754,199.373a5.046,5.046,0,0,1-4.391-2.249,4.489,4.489,0,0,1-.271-4.515,4.2,4.2,0,0,1,3.919-2.081h.636a.887.887,0,1,1,0,1.774h-.636a2.484,2.484,0,0,0-2.361,1.156,2.7,2.7,0,0,0,.2,2.7,3.338,3.338,0,0,0,3.275,1.424.887.887,0,1,1,.133,1.769Q62,199.374,61.754,199.373Z" transform="translate(-56.607 -190.528)"/>
        </g>
        <g id="Grupo_1102075" data-name="Grupo 1102075" transform="translate(9.886 17.89)">
          <path id="Trazado_879656" data-name="Trazado 879656" d="M122.266,203.31a.887.887,0,0,1-.714-1.412,11.593,11.593,0,0,0,2.482-6.486v-4a.887.887,0,0,1,1.774,0v4a13.186,13.186,0,0,1-2.826,7.536A.885.885,0,0,1,122.266,203.31Zm-21.1,0a.885.885,0,0,1-.715-.362,13.187,13.187,0,0,1-2.826-7.536v-4a.887.887,0,1,1,1.774,0v4a11.594,11.594,0,0,0,2.482,6.486.887.887,0,0,1-.714,1.412Z" transform="translate(-97.624 -190.529)"/>
        </g>
        <g id="Grupo_1102078" data-name="Grupo 1102078" transform="translate(0.887 40.977)">
          <path id="Trazado_879659" data-name="Trazado 879659" d="M14.184,419.389c-4.541,1.6-5.427,5.15-5.427,8.849v5.433a.707.707,0,0,0,.707.7h7.371l3.52-6.933L16.7,418.505Z" transform="translate(-8.757 -418.505)" fill="#99e6fc" fill-rule="evenodd"/>
        </g>
        <g id="Grupo_1102079" data-name="Grupo 1102079" transform="translate(34.948 40.977)">
          <path id="Trazado_879660" data-name="Trazado 879660" d="M349.275,418.505l-4.176,9.169,4.047,6.7h7.367a.707.707,0,0,0,.707-.7v-5.433c0-3.7-.886-7.254-5.427-8.849Z" transform="translate(-345.099 -418.505)" fill="#99e6fc" fill-rule="evenodd"/>
        </g>
        <g id="Grupo_1102080" data-name="Grupo 1102080" transform="translate(8.832 29.784)">
          <path id="Trazado_879661" data-name="Trazado 879661" d="M112.913,307.979h-23.9a1.8,1.8,0,0,0-1.792,1.791v20.41h30.291V309.77a1.8,1.8,0,0,0-1.792-1.791Z" transform="translate(-87.217 -307.979)" fill="#7a6d79" fill-rule="evenodd"/>
        </g>
        <g id="Grupo_1102081" data-name="Grupo 1102081" transform="translate(6.3 51.985)">
          <path id="Trazado_879662" data-name="Trazado 879662" d="M95.034,527.2H63.076a.868.868,0,0,0-.866.863V529.4a2.668,2.668,0,0,0,2.664,2.657H94.905a2.668,2.668,0,0,0,2.664-2.657v-1.339a.869.869,0,0,0-.869-.863Z" transform="translate(-62.21 -527.198)" fill="#554e56" fill-rule="evenodd"/>
        </g>
        <g id="Grupo_1102082" data-name="Grupo 1102082" transform="translate(33.917 29.785)">
          <path id="Trazado_879663" data-name="Trazado 879663" d="M336.707,319.174v11.007h3.415V309.772a1.8,1.8,0,0,0-1.792-1.791h-3.415a1.8,1.8,0,0,1,1.792,1.791v9.4Z" transform="translate(-334.915 -307.981)" fill="#685e68" fill-rule="evenodd"/>
        </g>
        <g id="Grupo_1102083" data-name="Grupo 1102083" transform="translate(35.58 51.985)">
          <path id="Trazado_879664" data-name="Trazado 879664" d="M354.885,527.2h-1.745a.868.868,0,0,1,.866.863V529.4a2.668,2.668,0,0,1-2.664,2.657h3.415a2.668,2.668,0,0,0,2.664-2.657v-1.339a.869.869,0,0,0-.869-.863Z" transform="translate(-351.342 -527.198)" fill="#433f43" fill-rule="evenodd"/>
        </g>
        <g id="Grupo_1102084" data-name="Grupo 1102084" transform="translate(39.124 40.977)">
          <path id="Trazado_879665" data-name="Trazado 879665" d="M386.332,418.505v2.752c3.824,1.72,5.072,3.133,5.072,6.192v6.923h2.167a.707.707,0,0,0,.707-.7v-5.433c0-3.7-.886-7.254-5.427-8.849Z" transform="translate(-386.332 -418.505)" fill="#62dbfb" fill-rule="evenodd"/>
        </g>
        <g id="Grupo_1102085" data-name="Grupo 1102085" transform="translate(16.627 33.211)">
          <path id="Trazado_879666" data-name="Trazado 879666" d="M169.739,343.427a6.308,6.308,0,0,0-2.57,1.484l-.9-.523a.581.581,0,0,0-.791.212l-1.217,2.1a.575.575,0,0,0,.213.786l.9.519a6.444,6.444,0,0,0,0,2.961l-.9.519a.574.574,0,0,0-.213.786l1.217,2.1a.583.583,0,0,0,.791.209l.9-.519a6.3,6.3,0,0,0,2.57,1.48v1.039a.576.576,0,0,0,.575.577h2.438a.576.576,0,0,0,.575-.577V355.55a6.3,6.3,0,0,0,2.57-1.48l.906.519a.58.58,0,0,0,.788-.209l1.217-2.1a.574.574,0,0,0-.213-.786l-.9-.519a6.444,6.444,0,0,0,0-2.961l.9-.519a.575.575,0,0,0,.213-.786l-1.217-2.1a.578.578,0,0,0-.788-.212l-.906.523a6.307,6.307,0,0,0-2.57-1.484v-1.039a.574.574,0,0,0-.575-.573h-2.438a.574.574,0,0,0-.575.573v1.039Zm1.8,3.335a2.728,2.728,0,1,1-2.739,2.728,2.733,2.733,0,0,1,2.739-2.728Z" transform="translate(-164.181 -341.815)" fill="#e5e1e5" fill-rule="evenodd"/>
        </g>
        <g id="Grupo_1102086" data-name="Grupo 1102086" transform="translate(20.354 37.271)">
          <path id="Trazado_879667" data-name="Trazado 879667" d="M204.615,389.138a3.615,3.615,0,1,1,3.622-3.615A3.624,3.624,0,0,1,204.615,389.138Zm0-5.457a1.841,1.841,0,1,0,1.849,1.841A1.849,1.849,0,0,0,204.615,383.682Z" transform="translate(-200.99 -381.908)"/>
        </g>
        <g id="Grupo_1102087" data-name="Grupo 1102087" transform="translate(15.739 32.324)">
          <path id="Trazado_879668" data-name="Trazado 879668" d="M164.873,350.181h-2.438a1.464,1.464,0,0,1-1.462-1.463v-.408a7.246,7.246,0,0,1-1.786-1.029l-.358.206a1.472,1.472,0,0,1-2-.532l-1.218-2.106a1.461,1.461,0,0,1,.54-2l.353-.2a7.291,7.291,0,0,1,0-2.052l-.356-.206a1.461,1.461,0,0,1-.536-2l1.216-2.1a1.468,1.468,0,0,1,2-.538l.361.209a7.257,7.257,0,0,1,1.784-1.031v-.408a1.462,1.462,0,0,1,1.462-1.46h2.438a1.463,1.463,0,0,1,1.462,1.46v.408a7.254,7.254,0,0,1,1.785,1.031l.361-.208a1.465,1.465,0,0,1,2,.539l1.216,2.1a1.461,1.461,0,0,1-.54,2l-.353.2a7.3,7.3,0,0,1,0,2.052l.356.206a1.461,1.461,0,0,1,.536,2l-1.216,2.1a1.467,1.467,0,0,1-2,.533l-.358-.205a7.245,7.245,0,0,1-1.786,1.03v.408A1.464,1.464,0,0,1,164.873,350.181Zm-2.126-1.774h1.814v-.729a.887.887,0,0,1,.637-.851,5.445,5.445,0,0,0,2.208-1.272.886.886,0,0,1,1.052-.127l.641.367.9-1.564-.631-.364a.887.887,0,0,1-.42-.97,5.557,5.557,0,0,0,0-2.556.887.887,0,0,1,.42-.971l.631-.365-.906-1.566-.637.368a.887.887,0,0,1-1.054-.125,5.449,5.449,0,0,0-2.208-1.276.887.887,0,0,1-.637-.851v-.725h-1.814v.725a.887.887,0,0,1-.637.851,5.448,5.448,0,0,0-2.208,1.276.887.887,0,0,1-1.055.125l-.635-.368-.907,1.567.631.364a.887.887,0,0,1,.42.971,5.555,5.555,0,0,0,0,2.556.887.887,0,0,1-.42.971l-.631.364.905,1.566.639-.367a.887.887,0,0,1,1.053.126,5.444,5.444,0,0,0,2.208,1.272.887.887,0,0,1,.637.851v.729Zm6.615-2.46h0Zm.911-1.56h0Zm-13.235,0h0Zm13.123-.425h0Zm-13.015,0h0Zm13.015-4.68h0Zm-13.013,0h0Zm13.124-.425h0Zm-13.239,0h0Zm12.335-1.565h0Zm-.424-.111h0Zm-10.578,0v0Z" transform="translate(-155.415 -333.057)"/>
        </g>
        <g id="Grupo_1102088" data-name="Grupo 1102088" transform="translate(7.946 28.897)">
          <path id="Trazado_879669" data-name="Trazado 879669" d="M109.637,323.2H79.346a.887.887,0,0,1-.887-.887V301.9a2.681,2.681,0,0,1,2.679-2.677H91.984a.887.887,0,0,1,0,1.774H81.138a.917.917,0,0,0-.905.9v19.523H108.75V301.9a.906.906,0,0,0-.905-.9H96.116a.887.887,0,0,1,0-1.774h11.729a2.681,2.681,0,0,1,2.679,2.677v20.409A.887.887,0,0,1,109.637,323.2Z" transform="translate(-78.459 -299.222)"/>
        </g>
        <g id="Grupo_1102089" data-name="Grupo 1102089" transform="translate(5.413 51.098)">
          <path id="Trazado_879670" data-name="Trazado 879670" d="M87.035,525.077a.887.887,0,0,1,0-1.774,1.776,1.776,0,0,0,1.777-1.77v-1.315H55.227v1.315A1.776,1.776,0,0,0,57,523.3a.887.887,0,0,1,0,1.774,3.552,3.552,0,0,1-3.551-3.544v-1.339a1.753,1.753,0,0,1,1.752-1.75H88.83a1.755,1.755,0,0,1,1.756,1.75v1.339A3.552,3.552,0,0,1,87.035,525.077Z" transform="translate(-53.453 -518.444)"/>
        </g>
        <g id="Grupo_1102092" data-name="Grupo 1102092" transform="translate(0 40.09)">
          <path id="Trazado_879673" data-name="Trazado 879673" d="M46.362,427.387H1.593A1.593,1.593,0,0,1,0,425.8v-5.433c0-3.25.624-7.791,6.02-9.686l2.519-.884a.887.887,0,0,1,.587,1.674l-2.519.884c-3.388,1.19-4.833,3.586-4.833,8.012v5.247H46.182v-5.247c0-4.426-1.446-6.822-4.834-8.012l-2.519-.883a.887.887,0,0,1,.587-1.674l2.519.884c5.4,1.9,6.02,6.436,6.02,9.686V425.8A1.593,1.593,0,0,1,46.362,427.387Z" transform="translate(0 -409.746)"/>
        </g>
        <g id="Grupo_1102093" data-name="Grupo 1102093" transform="translate(34.671 26.233)">
          <path id="Trazado_879674" data-name="Trazado 879674" d="M365.6,278.1a11.189,11.189,0,0,1-16.023,15.034l-3.114-.145-4.1-.192,1.576-3.787,1.2-2.873A11.2,11.2,0,0,1,365.6,278.1Z" transform="translate(-342.36 -272.913)" fill="#e5e1e5" fill-rule="evenodd"/>
        </g>
        <g id="Grupo_1102094" data-name="Grupo 1102094" transform="translate(46.89 26.233)">
          <path id="Trazado_879675" data-name="Trazado 879675" d="M471.22,278.14a11.178,11.178,0,0,1-7.895,17.044,11.175,11.175,0,1,0-.3-22.163,11.182,11.182,0,0,1,8.2,5.119Z" transform="translate(-463.021 -272.913)" fill="#d7d0d6" fill-rule="evenodd"/>
        </g>
        <g id="Grupo_1102095" data-name="Grupo 1102095" transform="translate(33.784 25.352)">
          <path id="Trazado_879676" data-name="Trazado 879676" d="M348.267,288.331a12.08,12.08,0,0,1-6.858-2.142l-6.961-.325a.887.887,0,0,1-.777-1.226l2.673-6.421a12.089,12.089,0,1,1,21.57,5.318.887.887,0,0,1-1.413-1.071,10.3,10.3,0,1,0-18.367-4.309.886.886,0,0,1-.053.5l-2.287,5.493,5.956.278a.887.887,0,0,1,.477.166,10.3,10.3,0,0,0,11.569.351.887.887,0,0,1,.948,1.5A12.106,12.106,0,0,1,348.267,288.331Z" transform="translate(-333.603 -264.21)"/>
        </g>
        <g id="Grupo_1102096" data-name="Grupo 1102096" transform="translate(41.06 33.953)">
          <path id="Trazado_879677" data-name="Trazado 879677" d="M408.072,356.758a.887.887,0,0,1-.768-.442l-1.731-2.981a.887.887,0,0,1,.008-.9l1.731-2.863a.887.887,0,1,1,1.518.918l-1.459,2.413,1.467,2.527a.887.887,0,0,1-.766,1.332Z" transform="translate(-405.453 -349.14)"/>
        </g>
        <g id="Grupo_1102097" data-name="Grupo 1102097" transform="translate(46.216 33.642)">
          <path id="Trazado_879678" data-name="Trazado 879678" d="M457.252,354.312a.887.887,0,0,1-.823-1.216l2.58-6.461a.887.887,0,0,1,1.647.658l-2.58,6.461A.887.887,0,0,1,457.252,354.312Z" transform="translate(-456.365 -346.077)"/>
        </g>
        <g id="Grupo_1102098" data-name="Grupo 1102098" transform="translate(52.491 33.953)">
          <path id="Trazado_879679" data-name="Trazado 879679" d="M519.219,356.757a.887.887,0,0,1-.766-1.332l1.467-2.527-1.459-2.413a.887.887,0,1,1,1.518-.918l1.731,2.863a.887.887,0,0,1,.008.9l-1.731,2.981A.887.887,0,0,1,519.219,356.757Z" transform="translate(-518.333 -349.139)"/>
        </g>
      </g>
    </g>
  </g>
</svg>
