<svg xmlns="http://www.w3.org/2000/svg" width="70.606" height="70.606" viewBox="0 0 70.606 70.606">
  <g id="Grupo_1102807" data-name="Grupo 1102807" transform="translate(0 0)">
    <g id="Grupo_1095345" data-name="Grupo 1095345" transform="translate(0 0)">
      <path id="Trazado_875520" data-name="Trazado 875520" d="M35.3,0A35.3,35.3,0,1,1,0,35.3,35.3,35.3,0,0,1,35.3,0Z" fill="#f0c518"/>
    </g>
    <g id="Page-1" transform="translate(13.767 11.381)">
      <g id="_016---Mental-Maths" data-name="016---Mental-Maths" transform="translate(-0.004 0.027)">
        <g id="colour" transform="translate(0.784 0.759)">
          <path id="Shape" d="M37.778,44.906A25.489,25.489,0,0,1,39.2,47.216H19.108s-1.2-4.9-3.92-6.136a67.111,67.111,0,0,1-6.932,2.1,2.159,2.159,0,0,1-2.55-1.594c-.685-1.96.255-2.494-.04-3.665-.207-.8-.98-1.012-1.594-1.442s.39-1.466.39-1.466-.932-.693-1.275-1,.143-.8.582-1.721a2.151,2.151,0,0,0,.151-1.283c-.159-.861-1.458-1.179-2.1-1.657-.988-.741-1.283-1.06.072-2.725a31.268,31.268,0,0,0,3.538-5.777,1.594,1.594,0,0,0,.247-.725c0-1.139-1.665-1.594-1.817-2.717-.12-.861.988-2.43,1.347-3.984a21.1,21.1,0,0,1,.8-2.781A14.271,14.271,0,0,1,8.964,5.733c1.952-2.072,4.654-2.964,7.395-3.6C26.407-.179,31.435,1.088,37.148,5.582a12.335,12.335,0,0,1,4.486,6.446,23.172,23.172,0,0,1,.8,6.5c-.088,5.849-3.809,7.9-5.466,11.682a14.431,14.431,0,0,0-1.1,7.442,22.5,22.5,0,0,0,1.912,7.251Z" transform="translate(-0.98 -0.984)" fill="#fddead"/>
          <path id="Shape-2" data-name="Shape" d="M41.65,37.65a14.431,14.431,0,0,1,1.1-7.419c1.657-3.737,5.379-5.825,5.466-11.706a23.172,23.172,0,0,0-.8-6.534A12.335,12.335,0,0,0,42.94,5.546C38.8,2.295,35.02.765,29.45,1c4.319.239,7.586,1.777,11.1,4.542a12.335,12.335,0,0,1,4.478,6.478,23.172,23.172,0,0,1,.8,6.5c-.088,5.849-3.809,7.9-5.466,11.682a14.431,14.431,0,0,0-1.1,7.442,22.5,22.5,0,0,0,1.912,7.243A25.491,25.491,0,0,1,42.59,47.2H44.98a19.574,19.574,0,0,0-1.418-2.311A22.5,22.5,0,0,1,41.65,37.65Z" transform="translate(-6.764 -0.98)" fill="#ddc298"/>
          <path id="Shape-3" data-name="Shape" d="M31.718,27.176A2.494,2.494,0,0,0,33.981,29.7,2.391,2.391,0,0,0,36.5,27.311V25.04a9.777,9.777,0,0,1,1.713-5.7,7.554,7.554,0,0,0,1.474-4.383c0-5.5-6.423-9.96-14.343-9.96S11,9.462,11,14.96s6.422,9.96,14.343,9.96h4.781a1.594,1.594,0,0,1,1.594,1.594Z" transform="translate(-3.016 -1.796)" fill="#f4f4f4"/>
          <path id="Shape-4" data-name="Shape" d="M28.7,5H27.5c7.363.462,13.148,4.781,13.148,9.96a7.554,7.554,0,0,1-1.474,4.383,9.777,9.777,0,0,0-1.713,5.7v2.271a2.391,2.391,0,0,1-1.171,2.056,2.343,2.343,0,0,0,1.044.335,2.391,2.391,0,0,0,2.518-2.391V25.04a9.777,9.777,0,0,1,1.713-5.7,7.554,7.554,0,0,0,1.474-4.383C43.038,9.462,36.616,5,28.7,5Z" transform="translate(-6.368 -1.796)" fill="#ced7db"/>
        </g>
        <g id="outline">
          <path id="Shape-5" data-name="Shape" d="M2.091,25.927c-.733.908-1.171,1.594-1.084,2.351a2.391,2.391,0,0,0,1.163,1.514,5.02,5.02,0,0,0,.8.486c.343.175.916.47.956.677a1.434,1.434,0,0,1-.088.8c-.12.247-.247.462-.351.653-.311.55-.8,1.379,0,2,.167.151.462.382.733.59a2.04,2.04,0,0,0-.255,1.155,1.147,1.147,0,0,0,.47.8,5.713,5.713,0,0,0,.55.343c.47.271.653.39.717.637a1.737,1.737,0,0,1-.08.884,4.558,4.558,0,0,0,.159,2.837A2.948,2.948,0,0,0,9.246,43.76a65.134,65.134,0,0,0,6.709-2.016c1.785,1.06,2.908,4.263,3.187,5.466a.8.8,0,0,0,.8.606h20.1a.8.8,0,0,0,.757-1.028,5.578,5.578,0,0,0-.892-1.594,5.434,5.434,0,0,1-.574-.877A21.737,21.737,0,0,1,37.5,37.329a13.546,13.546,0,0,1,1.036-7,18.033,18.033,0,0,1,2.1-3.339c1.594-2.128,3.363-4.542,3.426-8.646a23.953,23.953,0,0,0-.8-6.773A13.212,13.212,0,0,0,38.45,4.787c-6.279-4.94-11.69-5.841-21.435-3.594-2.645.606-5.642,1.538-7.8,3.825a15.076,15.076,0,0,0-3.187,5.211A20.965,20.965,0,0,0,5.3,12.835l-.064.279a10.454,10.454,0,0,1-.7,1.865,4.717,4.717,0,0,0-.653,2.391A3.068,3.068,0,0,0,5.031,19.13c.39.359.645.606.653.837a1.315,1.315,0,0,1-.143.343,30.774,30.774,0,0,1-3.45,5.618Zm3.984-7.968c-.319-.295-.622-.574-.653-.8a5.132,5.132,0,0,1,.526-1.522,11.753,11.753,0,0,0,.8-2.159l.064-.279a19.547,19.547,0,0,1,.661-2.391,13.69,13.69,0,0,1,2.853-4.669c1.865-1.968,4.47-2.781,7-3.363C25.518.8,30.865.8,37.454,6.014a11.435,11.435,0,0,1,4.183,6.032,22.463,22.463,0,0,1,.8,6.287c-.056,3.594-1.538,5.578-3.108,7.721a18.79,18.79,0,0,0-2.287,3.657,15.068,15.068,0,0,0-1.163,7.825,23.228,23.228,0,0,0,1.984,7.49,7.036,7.036,0,0,0,.717,1.124V46.2H20.506a12.6,12.6,0,0,0-2.773-5.068l.606-.215,1.259-.43c3.4-1.076,5.108-2.63,5.068-4.614a.8.8,0,1,0-1.594,0c0,.8-.653,2.024-3.984,3.06-.231.072-.693.239-1.3.454l-2.056.709A66.041,66.041,0,0,1,8.9,42.238,1.418,1.418,0,0,1,7.254,41.17a2.972,2.972,0,0,1-.08-1.952,3.187,3.187,0,0,0,.064-1.657,2.638,2.638,0,0,0-1.458-1.7l-.175-.1a2.813,2.813,0,0,1,.311-.494.8.8,0,0,0-.135-1.1c-.191-.143-.645-.478-.972-.741a2.191,2.191,0,0,1,.135-.231c.12-.215.255-.47.39-.749a2.893,2.893,0,0,0,.215-1.785c-.183-.98-1.116-1.45-1.793-1.8a4.781,4.781,0,0,1-.606-.343,3.721,3.721,0,0,1-.558-.43c0-.04,0-.295.741-1.155A32.161,32.161,0,0,0,6.96,21.01a2.327,2.327,0,0,0,.319-1.076,2.8,2.8,0,0,0-1.171-2Z" transform="translate(-0.996 -0.027)"/>
          <path id="Shape-6" data-name="Shape" d="M26.14,25.515h4.781a.8.8,0,0,1,.8.8v.661a3.259,3.259,0,0,0,3.02,3.323h.167a3.187,3.187,0,0,0,3.187-3.187V24.837a8.941,8.941,0,0,1,1.594-5.219,8.279,8.279,0,0,0,1.594-4.861C41.28,8.829,34.491,4,26.14,4S11,8.829,11,14.757,17.789,25.515,26.14,25.515Zm0-19.921c7.466,0,13.546,4.112,13.546,9.164a6.693,6.693,0,0,1-1.331,3.936A10.534,10.534,0,0,0,36.5,24.837v2.271A1.594,1.594,0,0,1,36,28.264a1.657,1.657,0,0,1-1.187.438,1.7,1.7,0,0,1-1.506-1.729v-.661a2.391,2.391,0,0,0-2.391-2.391H26.14c-7.466,0-13.546-4.112-13.546-9.164S18.674,5.594,26.14,5.594Z" transform="translate(-3.029 -0.835)"/>
          <path id="Shape-7" data-name="Shape" d="M19.23,19.549a.8.8,0,0,0,1.132,0l1.028-1.036,1.028,1.036a.8.8,0,1,0,1.132-1.132L22.513,17.39l1.036-1.028a.8.8,0,0,0-1.132-1.132l-1.028,1.036L20.361,15.23a.8.8,0,1,0-1.132,1.132l1.036,1.028L19.23,18.418a.8.8,0,0,0,0,1.132Z" transform="translate(-4.653 -3.069)"/>
          <path id="Shape-8" data-name="Shape" d="M27.8,20.594h3.187a.8.8,0,1,0,0-1.594H27.8a.8.8,0,0,0,0,1.594Z" transform="translate(-6.279 -3.882)"/>
          <path id="Shape-9" data-name="Shape" d="M27.8,16.594h3.187a.8.8,0,1,0,0-1.594H27.8a.8.8,0,0,0,0,1.594Z" transform="translate(-6.279 -3.069)"/>
          <path id="Shape-10" data-name="Shape" d="M37.444,19.374a.8.8,0,0,1-.693-.4.8.8,0,1,0-1.379.8,2.388,2.388,0,1,0,3.841-2.789,2.387,2.387,0,1,0-3.841-2.789.8.8,0,1,0,1.379.8.8.8,0,1,1,.693,1.2.8.8,0,0,0,0,1.594.8.8,0,0,1,0,1.594Z" transform="translate(-7.958 -2.662)"/>
        </g>
      </g>
    </g>
  </g>
</svg>
