<svg xmlns="http://www.w3.org/2000/svg" xmlns:xlink="http://www.w3.org/1999/xlink" width="127" height="105" viewBox="0 0 127 105">
  <defs>
    <linearGradient id="linear-gradient" x1="0.5" x2="0.5" y2="1" gradientUnits="objectBoundingBox">
      <stop offset="0" stop-color="#7737f0"/>
      <stop offset="1" stop-color="#291155"/>
    </linearGradient>
  </defs>
  <g id="Grupo_1104493" data-name="Grupo 1104493" transform="translate(-1173 -2658)">
    <rect id="Rectángulo_402949" data-name="Rectángulo 402949" width="127" height="105" rx="5" transform="translate(1173 2658)" fill="url(#linear-gradient)"/>
    <g id="identification_15710557" transform="translate(1194.463 2667.224)">
      <g id="Grupo_1104889" data-name="Grupo 1104889" transform="translate(14.666 5.09)">
        <path id="Trazado_890315" data-name="Trazado 890315" d="M83,121.033c0-10.977-11.332-14.06-11.332-28.812,0-13.535,11.331-20.3,22.663-20.3v6.748a1.32,1.32,0,0,1-1.927,1.172,3.562,3.562,0,1,0,0,6.331,1.32,1.32,0,0,1,1.927,1.172v9.649h9.649a1.32,1.32,0,0,0,1.172-1.927,3.563,3.563,0,1,1,6.331,0,1.32,1.32,0,0,0,1.172,1.927h3.9c-2.082,10.82-10.893,14.363-10.893,24.043H83Z" transform="translate(-71.672 -62.424)" fill="#fcdb35" fill-rule="evenodd"/>
        <path id="Trazado_890316" data-name="Trazado 890316" d="M239.3,194.188h-3.9a1.32,1.32,0,0,1-1.172-1.927,3.563,3.563,0,1,0-6.331,0,1.32,1.32,0,0,1-1.172,1.927h-9.649v9.649A1.32,1.32,0,0,0,219,205.008a3.562,3.562,0,1,1,0,6.331,1.32,1.32,0,0,0-1.927,1.172v5.72H228.41c0-9.681,8.812-13.224,10.893-24.043Z" transform="translate(-194.415 -159.622)" fill="#fcdb35" fill-rule="evenodd"/>
        <path id="Trazado_890317" data-name="Trazado 890317" d="M236.621,195.6h-3.9a1.32,1.32,0,0,1-1.172-1.927,3.565,3.565,0,0,0-1.824-4.937,3.565,3.565,0,0,0-1.824,4.937,1.32,1.32,0,0,1-1.172,1.927H217.08v9.649a1.32,1.32,0,0,0,1.927,1.172,3.562,3.562,0,1,1,0,6.331,1.32,1.32,0,0,0-1.927,1.172v5.72h8.648c0-9.681,8.812-13.224,10.893-24.043Z" transform="translate(-194.417 -161.037)" fill="#ffeb87" fill-rule="evenodd"/>
        <path id="Trazado_890318" data-name="Trazado 890318" d="M96.709,256.818V251.1a1.32,1.32,0,0,1,1.927-1.172,3.562,3.562,0,1,0,0-6.331,1.32,1.32,0,0,1-1.927-1.172v-9.649H89.462A1.32,1.32,0,0,0,88.29,234.7a3.563,3.563,0,1,1-6.331,0,1.32,1.32,0,0,0-1.172-1.927h-6.3c2.082,10.82,10.893,14.363,10.893,24.043H96.709Z" transform="translate(-74.046 -198.209)" fill="#4eb1fc" fill-rule="evenodd"/>
        <path id="Trazado_890319" data-name="Trazado 890319" d="M96.974,250.3a1.342,1.342,0,0,1,.37-.329,1.287,1.287,0,0,1,1.293-.044q.1.049.193.093a3.564,3.564,0,0,0,0-6.517q-.1.044-.193.093a1.288,1.288,0,0,1-1.293-.044,1.344,1.344,0,0,1-.37-.329,3.541,3.541,0,0,0-1.222.373,1.32,1.32,0,0,1-1.927-1.172v-9.649H74.485c2.082,10.82,10.893,14.363,10.893,24.043h8.447V251.1a1.32,1.32,0,0,1,1.927-1.172,3.537,3.537,0,0,0,1.222.373Z" transform="translate(-74.047 -198.21)" fill="#85caff" fill-rule="evenodd"/>
        <path id="Trazado_890320" data-name="Trazado 890320" d="M72.111,96.989h6.3a1.32,1.32,0,0,1,1.172,1.927,3.563,3.563,0,1,0,6.331,0,1.32,1.32,0,0,1,1.172-1.927h7.247V87.341a1.32,1.32,0,0,0-1.927-1.172,3.562,3.562,0,1,1,0-6.331,1.32,1.32,0,0,0,1.927-1.172V71.918c-11.332,0-22.663,6.767-22.663,20.3a25.118,25.118,0,0,0,.438,4.769Z" transform="translate(-71.673 -62.424)" fill="#f23353" fill-rule="evenodd"/>
        <path id="Trazado_890321" data-name="Trazado 890321" d="M72.11,97.791h6.3a1.32,1.32,0,0,1,1.172,1.927,3.565,3.565,0,0,0,1.723,4.894,3.565,3.565,0,0,0,1.723-4.894A1.32,1.32,0,0,1,84.2,97.791h7.247V88.143a1.294,1.294,0,0,0-.264-.8,3.594,3.594,0,0,1-.414.024,3.549,3.549,0,0,1-1.442-.3,3.562,3.562,0,1,1,0-6.517,3.549,3.549,0,0,1,1.442-.3,3.6,3.6,0,0,1,.414.024,1.293,1.293,0,0,0,.264-.8v-6.6c-10.293,1.053-19.779,7.771-19.779,20.154A25.118,25.118,0,0,0,72.11,97.791Z" transform="translate(-71.672 -63.225)" fill="#ff5471" fill-rule="evenodd"/>
        <path id="Trazado_890322" data-name="Trazado 890322" d="M144.374,387.036h22.663v3.635a2.521,2.521,0,0,1-2.517,2.517h-17.63a2.521,2.521,0,0,1-2.517-2.517v-3.635Z" transform="translate(-133.043 -328.427)" fill="#c2a9a1" fill-rule="evenodd"/>
        <path id="Trazado_890323" data-name="Trazado 890323" d="M144.374,387.035h19.98v3.635a2.521,2.521,0,0,1-2.517,2.516H146.891a2.522,2.522,0,0,1-2.517-2.517v-3.635Z" transform="translate(-133.043 -328.426)" fill="#d9c5bf" fill-rule="evenodd"/>
        <path id="Trazado_890324" data-name="Trazado 890324" d="M161.376,426.506h17.363v3.532a2.521,2.521,0,0,1-2.517,2.517h-12.33a2.522,2.522,0,0,1-2.517-2.517v-3.532Z" transform="translate(-147.395 -361.745)" fill="#837683" fill-rule="evenodd"/>
        <path id="Trazado_890325" data-name="Trazado 890325" d="M161.377,426.506h14.814v3.532a2.522,2.522,0,0,1-2.517,2.517h-9.781a2.522,2.522,0,0,1-2.517-2.517Z" transform="translate(-147.395 -361.745)" fill="#a79ba7" fill-rule="evenodd"/>
        <path id="Trazado_890326" data-name="Trazado 890326" d="M188.017,465.312h9.059v3a2.521,2.521,0,0,1-2.516,2.516h-4.026a2.521,2.521,0,0,1-2.517-2.516Z" transform="translate(-169.883 -394.503)" fill="#685e68" fill-rule="evenodd"/>
        <path id="Trazado_890327" data-name="Trazado 890327" d="M188.016,465.312h6.733v3a2.521,2.521,0,0,1-2.517,2.517h-1.7a2.521,2.521,0,0,1-2.517-2.517v-3Z" transform="translate(-169.882 -394.503)" fill="#837683" fill-rule="evenodd"/>
        <path id="Trazado_890328" data-name="Trazado 890328" d="M267.768,11v6.111a1.2,1.2,0,0,1-1.745,1.061,3.226,3.226,0,1,0,0,5.733,1.2,1.2,0,0,1,1.745,1.061v8.737h20.126a22.746,22.746,0,0,0,.4-4.318C288.29,17.13,278.029,11,267.768,11Z" transform="translate(-231.758 -11.002)" fill="#43f043" fill-rule="evenodd"/>
        <path id="Trazado_890329" data-name="Trazado 890329" d="M278.2,18.363a1.249,1.249,0,0,1-.241.19,1.166,1.166,0,0,1-1.171.04,3.227,3.227,0,1,0,0,5.733,1.166,1.166,0,0,1,1.171.04,1.249,1.249,0,0,1,.241.19,3.215,3.215,0,0,0,.575-.23,1.2,1.2,0,0,1,1.745,1.061v8.737h18.138a22.748,22.748,0,0,0,.4-4.318c0-11.464-8.977-17.566-18.535-18.307v6.033a1.2,1.2,0,0,1-1.745,1.061,3.2,3.2,0,0,0-.575-.23Z" transform="translate(-242.521 -11.422)" fill="#adffad" fill-rule="evenodd"/>
        <path id="Trazado_890330" data-name="Trazado 890330" d="M302.544,115.515a14.471,14.471,0,0,1,6.363,24.33,2.454,2.454,0,0,0-.417,3.016l1.827,3.165-2.957,1.707-1.827-3.165a2.454,2.454,0,0,0-2.82-1.147,14.469,14.469,0,1,1-.169-27.907Z" transform="translate(-251.182 -98.806)" fill="#4eb1fc" fill-rule="evenodd"/>
        <path id="Trazado_890331" data-name="Trazado 890331" d="M302.546,115.515a13.97,13.97,0,0,1,5.911,23.546,2.454,2.454,0,0,0-.417,3.016l.452.783h0l1.827,3.165-2.957,1.707-1.827-3.165-.453-.784a2.454,2.454,0,0,0-2.82-1.147,14.1,14.1,0,1,1,.284-27.123Z" transform="translate(-251.185 -98.806)" fill="#85caff" fill-rule="evenodd"/>
        <path id="Trazado_890332" data-name="Trazado 890332" d="M429.3,306.547l-5.958-10.32a1.5,1.5,0,0,0-2.04-.547l-2.775,1.6a1.5,1.5,0,0,0-.547,2.04l5.958,10.32a3.1,3.1,0,0,0,5.361-3.1Z" transform="translate(-363.835 -251.142)" fill="#a34f41" fill-rule="evenodd"/>
        <path id="Trazado_890333" data-name="Trazado 890333" d="M419.537,302.214l-1.011.584a1.5,1.5,0,0,0-.547,2.04l5.958,10.32a2.2,2.2,0,1,0,3.6-2.077l-5.958-10.32a1.5,1.5,0,0,0-2.04-.547Z" transform="translate(-363.835 -256.657)" fill="#c86f5c" fill-rule="evenodd"/>
      </g>
      <circle id="Elipse_11892" data-name="Elipse 11892" cx="11.042" cy="11.042" r="11.042" transform="translate(48.544 27.196) rotate(-14.064)" fill="#4eb1fc"/>
      <circle id="Elipse_11893" data-name="Elipse 11893" cx="11.042" cy="11.042" r="11.042" transform="translate(49.694 45.015) rotate(-81.197)" fill="#e3f1ff"/>
      <path id="Trazado_890334" data-name="Trazado 890334" d="M310.1,157.192a11.041,11.041,0,1,0-1.186-8.519,11,11,0,0,0,1.186,8.519Z" transform="translate(-256.955 -115.215)" fill="#fff" fill-rule="evenodd"/>
      <path id="Trazado_890335" data-name="Trazado 890335" d="M62.28,39.579a1.461,1.461,0,1,0,1.457,1.46A1.461,1.461,0,0,0,62.28,39.579Zm0-1.306a1.091,1.091,0,0,0,1.089-1.091v-6.9a1.093,1.093,0,0,0-2.186,0v6.9A1.1,1.1,0,0,0,62.28,38.273Zm9.2-.027a9.534,9.534,0,1,1-6.738-11.672,9.493,9.493,0,0,1,6.738,11.672Zm-3.351,7.676A11.649,11.649,0,0,1,62.3,47.5a11.854,11.854,0,0,1-3.05-.4,11.721,11.721,0,1,1,8.888-1.171ZM79.153,60.984,73.241,50.74a.418.418,0,0,0-.248-.189.54.54,0,0,0-.113-.014.38.38,0,0,0-.2.055L69.906,52.2a.443.443,0,0,0-.2.247.4.4,0,0,0,.045.307L75.668,63a1.979,1.979,0,0,0,1.225.934,2,2,0,0,0,1.525-.2,2.028,2.028,0,0,0,.736-2.75ZM69.635,49.831a3.5,3.5,0,0,0-3.749-1.206,13.353,13.353,0,1,1,5.71-3.3,3.511,3.511,0,0,0-.826,3.852l-1.134.653Zm-15.438-.8a15.582,15.582,0,0,1-6.611-8.268H38.42v8.564a.2.2,0,0,0,.113.2.2.2,0,0,0,.225.007,4.655,4.655,0,1,1,0,8.274.232.232,0,0,0-.338.2v4.634h9.2c.315-4.835,2.7-8.162,5.214-11.671.451-.631.916-1.279,1.367-1.94Zm-6.619,18.34V64.827H27.084v2.547A1.428,1.428,0,0,0,28.511,68.8h17.64A1.428,1.428,0,0,0,47.578,67.374Zm-2.652,6.052V70.984H29.736v2.442a1.428,1.428,0,0,0,1.427,1.427H43.5A1.428,1.428,0,0,0,44.926,73.426Zm-4.154,3.609H33.89v1.908a1.428,1.428,0,0,0,1.427,1.427h4.027a1.428,1.428,0,0,0,1.427-1.427V77.035ZM27.046,62.645c-.315-4.835-2.7-8.162-5.214-11.669-2.119-2.962-4.3-6-5.379-10.21H21.4a.2.2,0,0,1,.2.11.19.19,0,0,1,.007.225,4.658,4.658,0,1,0,8.279,0,.191.191,0,0,1,.007-.225.2.2,0,0,1,.2-.11h6.16v8.564a2.409,2.409,0,0,0,3.516,2.142,2.474,2.474,0,1,1,0,4.4,2.408,2.408,0,0,0-3.516,2.141v4.634h-9.2ZM15.74,34.9a24.472,24.472,0,0,0,.27,3.682H21.4a2.413,2.413,0,0,1,2.141,3.52,2.472,2.472,0,1,0,4.4,0,2.406,2.406,0,0,1,2.141-3.52h6.16V30.018a.2.2,0,0,0-.113-.2.2.2,0,0,0-.225-.008,4.656,4.656,0,1,1,0-8.273.232.232,0,0,0,.338-.2V15.7c-10.074.4-20.5,6.456-20.5,19.2ZM50.673,17.1a2.279,2.279,0,0,1,1.1,1.953v5.308a15.51,15.51,0,0,1,18.308-2C69.492,11.7,60.507,6.6,51.77,6.206V11.2a2.286,2.286,0,0,1-3.336,2.031,2.134,2.134,0,1,0,0,3.8,2.268,2.268,0,0,1,2.239.076Zm30.373,42.79a4.195,4.195,0,0,1-7.265,4.2l-5.92-10.246a2.562,2.562,0,0,1-.255-1.964,2.6,2.6,0,0,1,.308-.708,1.355,1.355,0,0,0-1.435-.446,15.515,15.515,0,0,1-8.219.048,15.713,15.713,0,0,1-2.111-.731c-.511.76-1.037,1.49-1.548,2.2C52,55.87,49.764,59,49.764,63.736v3.638a3.616,3.616,0,0,1-2.652,3.478v2.574A3.616,3.616,0,0,1,43.5,77.035h-.541v1.908a3.617,3.617,0,0,1-3.613,3.61H35.318a3.617,3.617,0,0,1-3.613-3.61V77.035h-.541a3.616,3.616,0,0,1-3.614-3.609V70.852A3.616,3.616,0,0,1,24.9,67.374V63.736c0-4.736-2.239-7.866-4.838-11.488-3.043-4.252-6.5-9.069-6.5-17.346a19.824,19.824,0,0,1,7.5-16.091,26.119,26.119,0,0,1,16.272-5.318,1.091,1.091,0,0,1,1.089,1.091v6.753A2.409,2.409,0,0,1,34.9,23.479a2.474,2.474,0,1,0,0,4.4,2.409,2.409,0,0,1,3.516,2.142v8.565h8.594a15.526,15.526,0,0,1,2.569-11.741V19.055a.085.085,0,0,0-.045-.089.09.09,0,0,0-.105,0,4.318,4.318,0,1,1,0-7.67.086.086,0,0,0,.105,0,.083.083,0,0,0,.045-.089V5.09A1.092,1.092,0,0,1,50.681,4,23.726,23.726,0,0,1,65.466,8.833a18.03,18.03,0,0,1,6.829,14.641c0,.149-.007.3-.007.445a15.513,15.513,0,0,1,.834,22.97,1.35,1.35,0,0,0-.331,1.469,2.591,2.591,0,0,1,2.336,1.292l5.92,10.243Zm.6-32.982-2.164-.17a1.09,1.09,0,0,0-.173,2.174l2.164.171c.03,0,.06,0,.083,0a1.091,1.091,0,0,0,.09-2.179Zm-3.553-4.618a1.113,1.113,0,0,0,.473-.106l2.351-1.119a1.091,1.091,0,0,0-.939-1.97l-2.351,1.119a1.091,1.091,0,0,0,.466,2.076Zm-4.936-5.379a1.058,1.058,0,0,0,.616.193,1.079,1.079,0,0,0,.894-.473L75.9,14.848a1.09,1.09,0,1,0-1.8-1.237L72.873,15.4a1.088,1.088,0,0,0,.286,1.516ZM18.219,15.55l-2.652-2.934a1.09,1.09,0,1,1,1.615-1.464l2.652,2.934a1.088,1.088,0,0,1-.811,1.822,1.075,1.075,0,0,1-.8-.358Zm-8.5,15.6-4.485.008a1.091,1.091,0,0,0,0,2.182l4.493-.007a1.091,1.091,0,1,0-.007-2.182ZM36.2,9.015a1.093,1.093,0,0,0,2.186,0V5.09a1.093,1.093,0,0,0-2.186,0Z" transform="translate(0 0)" fill-rule="evenodd"/>
    </g>
  </g>
</svg>
