<svg xmlns="http://www.w3.org/2000/svg" width="75.213" height="75.213" viewBox="0 0 75.213 75.213">
  <g id="Grupo_1105234" data-name="Grupo 1105234" transform="translate(-625.394 -5969.894)">
    <g id="Grupo_1104876" data-name="Grupo 1104876" transform="translate(1.394 -48.106)">
      <path id="Trazado_875520" data-name="Trazado 875520" d="M37.606,0A37.606,37.606,0,1,1,0,37.606,37.606,37.606,0,0,1,37.606,0Z" transform="translate(624 6018)" fill="#d6e1fd"/>
      <path id="Trazado_847086" data-name="Trazado 847086" d="M77.741,112h2.752a1.965,1.965,0,0,1,1.966,1.966v26.34H40v-26.34A1.965,1.965,0,0,1,41.966,112H54.153" transform="translate(600.645 5929.453)" fill="#3e3d42"/>
      <path id="Trazado_847087" data-name="Trazado 847087" d="M99.382,136h2.359v23.588H64V136H75.794" transform="translate(579.004 5907.812)" fill="#78b9eb"/>
      <path id="Trazado_847088" data-name="Trazado 847088" d="M184,81.789v3.3h23.588V56H184V66.38" transform="translate(470.798 5979.949)" fill="#ff9811"/>
      <circle id="Elipse_11292" data-name="Elipse 11292" cx="7.84" cy="7.84" r="7.84" transform="translate(645.076 6046.127)" fill="#ffda44"/>
      <path id="Trazado_847089" data-name="Trazado 847089" d="M328,168h5.5v12.58H328Z" transform="translate(340.951 5878.956)" fill="#ffda44"/>
      <path id="Trazado_847090" data-name="Trazado 847090" d="M55.962,81.809H54.39V56.256A2.755,2.755,0,0,0,51.638,53.5H49.672V48.786A.786.786,0,0,0,48.886,48H25.3a.786.786,0,0,0-.786.786V53.5h-11.4a2.755,2.755,0,0,0-2.752,2.752V81.809H8.786A.786.786,0,0,0,8,82.6v3.538a2.755,2.755,0,0,0,2.752,2.752H54a2.755,2.755,0,0,0,2.752-2.752V82.6A.786.786,0,0,0,55.962,81.809Zm-6.29-3.931V57.435h.786V79.451H14.29V57.435H24.512v.823c-.259-.024-.521-.036-.786-.036a8.649,8.649,0,1,0,0,17.3c.265,0,.527-.013.786-.036v2.4a.786.786,0,0,0,.786.786H48.886A.786.786,0,0,0,49.672,77.878ZM26.084,49.573H48.1V77.092H26.084v-1.9a8.65,8.65,0,0,0,0-16.643ZM30.8,66.87a7.076,7.076,0,1,1-7.076-7.076A7.076,7.076,0,0,1,30.8,66.87ZM11.931,56.256a1.18,1.18,0,0,1,1.179-1.179h11.4v.786H13.5a.786.786,0,0,0-.786.786V80.237a.786.786,0,0,0,.786.786H51.245a.786.786,0,0,0,.786-.786V56.649a.786.786,0,0,0-.786-.786H49.672v-.786h1.966a1.18,1.18,0,0,1,1.179,1.179V81.809H11.931ZM36.084,83.382l-.393,1.573H29.057l-.393-1.573Zm19.092,2.752A1.18,1.18,0,0,1,54,87.313H10.752a1.18,1.18,0,0,1-1.179-1.179V83.382h17.47l.638,2.549a.786.786,0,0,0,.763.6h7.863a.786.786,0,0,0,.763-.6l.638-2.55h17.47Z" transform="translate(629.5 5987.163)"/>
      <path id="Trazado_847092" data-name="Trazado 847092" d="M216.786,81.573h1.573a.786.786,0,1,0,0-1.573h-1.573a.786.786,0,0,0,0,1.573Z" transform="translate(441.943 5958.308)"/>
      <path id="Trazado_847093" data-name="Trazado 847093" d="M256.786,81.573H268.58a.786.786,0,1,0,0-1.573H256.786a.786.786,0,1,0,0,1.573Z" transform="translate(405.874 5958.308)"/>
      <path id="Trazado_847094" data-name="Trazado 847094" d="M216.786,105.573h1.573a.786.786,0,1,0,0-1.573h-1.573a.786.786,0,0,0,0,1.573Z" transform="translate(441.942 5936.667)"/>
      <path id="Trazado_847095" data-name="Trazado 847095" d="M256.786,105.573H268.58a.786.786,0,1,0,0-1.573H256.786a.786.786,0,1,0,0,1.573Z" transform="translate(405.874 5936.667)"/>
      <path id="Trazado_847094-2" data-name="Trazado 847094" d="M216.786,105.573h1.573a.786.786,0,1,0,0-1.573h-1.573a.786.786,0,0,0,0,1.573Z" transform="translate(432.111 5952.208)"/>
      <path id="Trazado_847095-2" data-name="Trazado 847095" d="M256.347,105.573h5.205c.192,0,.347-.352.347-.786s-.155-.786-.347-.786h-5.205c-.192,0-.347.352-.347.786S256.155,105.573,256.347,105.573Z" transform="translate(396.043 5952.208)"/>
      <path id="Trazado_847094-3" data-name="Trazado 847094" d="M216.786,105.573h1.573a.786.786,0,1,0,0-1.573h-1.573a.786.786,0,0,0,0,1.573Z" transform="translate(432.111 5949.193)"/>
      <path id="Trazado_847095-3" data-name="Trazado 847095" d="M256.347,105.573h5.205c.192,0,.347-.352.347-.786s-.155-.786-.347-.786h-5.205c-.192,0-.347.352-.347.786S256.155,105.573,256.347,105.573Z" transform="translate(396.043 5949.193)"/>
      <path id="Trazado_847094-4" data-name="Trazado 847094" d="M216.786,105.573h1.573a.786.786,0,1,0,0-1.573h-1.573a.786.786,0,0,0,0,1.573Z" transform="translate(432.111 5946.178)"/>
      <path id="Trazado_847095-4" data-name="Trazado 847095" d="M256.347,105.573h5.205c.192,0,.347-.352.347-.786s-.155-.786-.347-.786h-5.205c-.192,0-.347.352-.347.786S256.155,105.573,256.347,105.573Z" transform="translate(396.043 5946.178)"/>
      <path id="Trazado_847096" data-name="Trazado 847096" d="M216.786,129.573h1.573a.786.786,0,1,0,0-1.573h-1.573a.786.786,0,0,0,0,1.573Z" transform="translate(441.943 5915.025)"/>
      <path id="Trazado_847097" data-name="Trazado 847097" d="M256.786,129.573H268.58a.786.786,0,1,0,0-1.573H256.786a.786.786,0,1,0,0,1.573Z" transform="translate(405.874 5915.025)"/>
      <path id="Trazado_847098" data-name="Trazado 847098" d="M326.29,160h-5.5a.786.786,0,0,0-.786.786v12.58a.786.786,0,0,0,.786.786h5.5a.786.786,0,0,0,.786-.786v-12.58A.786.786,0,0,0,326.29,160Zm-.786,12.58h-3.931V161.573H325.5Z" transform="translate(348.164 5886.17)"/>
    </g>
    <path id="Trazado_847084" data-name="Trazado 847084" d="M16,400H64.924v3.669a2.038,2.038,0,0,1-2.039,2.038H18.039A2.038,2.038,0,0,1,16,403.669Z" transform="translate(622.815 5622.176)" fill="#d8d7da"/>
    <path id="Trazado_847085" data-name="Trazado 847085" d="M216.969,403.262h-8.154L208,400h9.785Z" transform="translate(450.385 5622.176)" fill="#787680"/>
  </g>
</svg>
