<svg xmlns="http://www.w3.org/2000/svg" xmlns:xlink="http://www.w3.org/1999/xlink" width="820" height="202.5" viewBox="0 0 820 202.5">
  <defs>
    <clipPath id="clip-path">
      <rect id="Rectángulo_402798" data-name="Rectángulo 402798" width="55.605" height="67.327" fill="none"/>
    </clipPath>
  </defs>
  <g id="Grupo_1104894" data-name="Grupo 1104894" transform="translate(-600 -6291.999)">
    <rect id="Rectángulo_405187" data-name="Rectángulo 405187" width="820" height="144.972" rx="10" transform="translate(600 6323.879)" fill="#0b47db"/>
    <g id="Grupo_1104883" data-name="Grupo 1104883" transform="translate(694 6291.999)">
      <g id="Grupo_1101599" data-name="Grupo 1101599" transform="translate(510.027 9.404)">
        <path id="Trazado_878926" data-name="Trazado 878926" d="M342.6,139.151a24.835,24.835,0,0,0,12.51-7.236l8,2.7,3.992-6.907-6.34-5.569a24.528,24.528,0,0,0,1.066-7.225,24.907,24.907,0,0,0-1.066-7.225l6.34-5.569L363.1,95.213l-8,2.7a24.9,24.9,0,0,0-12.51-7.225l-1.656-8.268H336.95" transform="translate(-306.804 -82.42)" fill="none" stroke="#263238" stroke-miterlimit="10" stroke-width="1"/>
        <path id="Trazado_878927" data-name="Trazado 878927" d="M336.524,82.42l-1.656,8.268a24.9,24.9,0,0,0-12.51,7.225l-8-2.7-3.992,6.907,6.34,5.569a25.015,25.015,0,0,0,0,14.449l-6.34,5.569,3.992,6.907,8-2.7a25,25,0,0,0,12.51,7.236l1.656,8.268H344.5l1.656-8.268" transform="translate(-310.37 -82.42)" fill="none" stroke="#263238" stroke-miterlimit="10" stroke-width="1"/>
        <path id="Trazado_878928" data-name="Trazado 878928" d="M337.931,125.807c-14.222-1-16.9-21.7-2.677-25.337" transform="translate(-308.296 -79.998)" fill="none" stroke="#263238" stroke-miterlimit="10" stroke-width="1"/>
        <path id="Trazado_878929" data-name="Trazado 878929" d="M344.973,102.98c7.077,6.487,4.832,19.145-4.593,22" transform="translate(-306.344 -79.661)" fill="none" stroke="#263238" stroke-miterlimit="10" stroke-width="1"/>
        <path id="Trazado_878930" data-name="Trazado 878930" d="M338.38,100.2a13.038,13.038,0,0,1,3.584.987" transform="translate(-306.612 -80.034)" fill="none" stroke="#263238" stroke-miterlimit="10" stroke-width="1"/>
        <path id="Trazado_878931" data-name="Trazado 878931" d="M379.29,138.257l1.679-2.019a16.411,16.411,0,0,0,9.516-.238l3.777,4.072" transform="translate(-301.123 -75.231)" fill="none" stroke="#263238" stroke-miterlimit="10" stroke-width="1"/>
        <path id="Trazado_878932" data-name="Trazado 878932" d="M374.912,110.26l.726,1.985A16.313,16.313,0,0,0,371.1,120.6l-5.421,1.225.136,5.251,5.478.953a16.4,16.4,0,0,0,1.883,4.423,16.011,16.011,0,0,0,3.085,3.686l-1.644,5.308,4.616,2.507" transform="translate(-302.949 -78.685)" fill="none" stroke="#263238" stroke-miterlimit="10" stroke-width="1"/>
        <path id="Trazado_878933" data-name="Trazado 878933" d="M395.123,144.293l4.48-2.745-1.917-5.217a16.394,16.394,0,0,0,4.537-8.359l5.421-1.225-.136-5.251-5.467-.953a16.388,16.388,0,0,0-4.968-8.109l1.645-5.308L394.1,104.62l-3.561,4.264a16.37,16.37,0,0,0-9.5.238l-3.777-4.072-4.48,2.745" transform="translate(-301.996 -79.441)" fill="none" stroke="#263238" stroke-miterlimit="10" stroke-width="1"/>
        <g id="Grupo_1101598" data-name="Grupo 1101598" transform="translate(76.046 37.45)">
          <path id="Trazado_878934" data-name="Trazado 878934" d="M393.831,121.187c1.542,6.521-4.639,12.793-11.183,10.14-6.238-2.529-7.145-11.671-1.361-15.187" transform="translate(-377.42 -115.346)" fill="none" stroke="#263238" stroke-miterlimit="10" stroke-width="1"/>
          <path id="Trazado_878935" data-name="Trazado 878935" d="M387.17,115.44a8.394,8.394,0,0,1,3.437,2.212" transform="translate(-376.111 -115.44)" fill="none" stroke="#263238" stroke-miterlimit="10" stroke-width="1"/>
        </g>
      </g>
      <g id="Grupo_1101602" data-name="Grupo 1101602" transform="translate(0 22.943)">
        <g id="Grupo_1101600" data-name="Grupo 1101600" transform="translate(0 0.01)">
          <path id="Trazado_878936" data-name="Trazado 878936" d="M70.23,235.029l8.5,8.5A9.171,9.171,0,0,0,89.75,254.549l-5.341-5.341,1.448-5.4,5.4-1.448L96.6,247.7a9.171,9.171,0,0,0-11.022-11.022l-7.831-7.831" transform="translate(-39.415 -197.356)" fill="none" stroke="#263238" stroke-miterlimit="10" stroke-width="1"/>
          <path id="Trazado_878937" data-name="Trazado 878937" d="M68.9,220.077l-7.8-7.8a9.171,9.171,0,0,0-11.022-11.022l5.341,5.341L53.977,212l-5.4,1.448L43.238,208.1A9.171,9.171,0,0,0,54.26,219.126l7.8,7.8" transform="translate(-42.999 -201.019)" fill="none" stroke="#263238" stroke-miterlimit="10" stroke-width="1"/>
        </g>
        <g id="Grupo_1101601" data-name="Grupo 1101601" transform="translate(1.074)">
          <path id="Trazado_878938" data-name="Trazado 878938" d="M73.892,228.282l10.875-10.875a7.343,7.343,0,0,1,1.822-1.335l2.2-1.132,7.876-9.008-4.923-4.923-9.008,7.876-1.132,2.2a7.266,7.266,0,0,1-1.335,1.822l-8.623,8.623" transform="translate(-40.303 -201.01)" fill="none" stroke="#263238" stroke-miterlimit="10" stroke-width="1"/>
          <path id="Trazado_878939" data-name="Trazado 878939" d="M48.59,254.317a3.693,3.693,0,0,0,4.73-.656l18.853-18.853a3.6,3.6,0,0,0,1.166-3.27l3.27-3.27.2.2a1.208,1.208,0,1,0,1.709-1.709l-6.45-6.45a1.208,1.208,0,0,0-1.709,1.709l.2.2-3.27,3.27a3.559,3.559,0,0,0-3.27,1.166L45.172,245.513a3.628,3.628,0,0,0-1.2,3.1" transform="translate(-43.948 -198.516)" fill="none" stroke="#263238" stroke-miterlimit="10" stroke-width="1"/>
          <path id="Trazado_878940" data-name="Trazado 878940" d="M44.62,247.04a10.544,10.544,0,0,0,1.573,1.935,9.871,9.871,0,0,0,2.308,1.777" transform="translate(-43.859 -194.952)" fill="none" stroke="#263238" stroke-miterlimit="10" stroke-width="1"/>
        </g>
        <line id="Línea_698" data-name="Línea 698" y1="3.293" x2="3.293" transform="translate(7.64 46.792)" fill="none" stroke="#263238" stroke-miterlimit="10" stroke-width="1"/>
        <line id="Línea_699" data-name="Línea 699" y1="14.213" x2="13.919" transform="translate(15.38 28.132)" fill="none" stroke="#263238" stroke-miterlimit="10" stroke-width="1"/>
      </g>
      <g id="Grupo_1101615" data-name="Grupo 1101615" transform="translate(193.487)">
        <path id="Trazado_878941" data-name="Trazado 878941" d="M152.642,23.934C170.973,9.46,194.338,1.929,217.453.241,252.283-2.3,272.678,15.959,273.1,34.648s10.164,39,33.114,62.188,17.435,58.022-21.224,69.064a95.984,95.984,0,0,1-25.283,3.716c-26.874.347-48.217-10.938-58.4-18.161-13.172-9.344-40.78,17.84-59.044,8.92-11.63-5.68-16.5-25.082-19.055-36.325-4.773-20.993-4.417-43.76,2.989-64.107a81.027,81.027,0,0,1,26.441-36.007Z" transform="translate(-101.261 -0.003)" fill="#1682fb" opacity="0.5"/>
        <g id="Coding" transform="translate(0 0)">
          <g id="Grupo_1101614" data-name="Grupo 1101614">
            <g id="Grupo_1101605" data-name="Grupo 1101605">
              <rect id="Rectángulo_402774" data-name="Rectángulo 402774" width="143.64" height="93.318" fill="#fff"/>
              <path id="Trazado_878942" data-name="Trazado 878942" d="M202.01,26.04H58.37v93.318H202.01Z" transform="translate(-58.37 -26.04)" fill="#bfbfbf"/>
              <rect id="Rectángulo_402775" data-name="Rectángulo 402775" width="143.64" height="12.209" fill="#fff"/>
              <rect id="Rectángulo_402776" data-name="Rectángulo 402776" width="143.64" height="12.209" fill="#757575"/>
              <rect id="Rectángulo_402777" data-name="Rectángulo 402777" width="8.319" height="8.319" rx="2.62" transform="translate(132.331 1.945)" fill="#fff"/>
              <rect id="Rectángulo_402778" data-name="Rectángulo 402778" width="8.319" height="8.319" rx="2.64" transform="translate(122.137 1.945)" fill="#fff"/>
              <rect id="Rectángulo_402779" data-name="Rectángulo 402779" width="8.319" height="8.319" rx="2.62" transform="translate(111.938 1.945)" fill="#fff"/>
              <rect id="Rectángulo_402780" data-name="Rectángulo 402780" width="132.865" height="70.333" rx="5.22" transform="translate(5.388 17.597)" fill="#263238" stroke="#263238" stroke-linecap="round" stroke-linejoin="round" stroke-width="1"/>
              <g id="Grupo_1101604" data-name="Grupo 1101604" transform="translate(134.707 4.316)">
                <line id="Línea_700" data-name="Línea 700" y1="3.572" x2="3.567" fill="none" stroke="#263238" stroke-linecap="round" stroke-linejoin="round" stroke-width="1"/>
                <line id="Línea_701" data-name="Línea 701" x2="3.567" y2="3.572" fill="none" stroke="#263238" stroke-linecap="round" stroke-linejoin="round" stroke-width="1"/>
              </g>
              <rect id="Rectángulo_402781" data-name="Rectángulo 402781" width="4.757" height="3.141" transform="translate(123.915 5.339)" fill="none" stroke="#263238" stroke-linecap="round" stroke-linejoin="round" stroke-width="1"/>
              <line id="Línea_702" data-name="Línea 702" x1="4.757" transform="translate(113.722 8.48)" fill="none" stroke="#263238" stroke-linecap="round" stroke-linejoin="round" stroke-width="1"/>
            </g>
            <g id="Grupo_1101606" data-name="Grupo 1101606" transform="translate(70.743 63.254)">
              <path id="Trazado_878943" data-name="Trazado 878943" d="M290.452,145.6h-9.445a1.078,1.078,0,1,1,0-2.155h9.445a1.078,1.078,0,1,1,0,2.155Z" transform="translate(-231.299 -143.44)" fill="#757575"/>
              <path id="Trazado_878944" data-name="Trazado 878944" d="M275.97,159.425H249.608a1.078,1.078,0,1,1,0-2.155H275.97a1.078,1.078,0,1,1,0,2.155Z" transform="translate(-216.817 -149.819)" fill="#757575"/>
              <path id="Trazado_878945" data-name="Trazado 878945" d="M248.823,173.255H190.748a1.078,1.078,0,1,1,0-2.155h58.076a1.078,1.078,0,1,1,0,2.155Z" transform="translate(-189.67 -156.197)" fill="#757575"/>
            </g>
            <g id="Grupo_1101611" data-name="Grupo 1101611" transform="translate(9.881 55.797)">
              <path id="Trazado_878946" data-name="Trazado 878946" d="M82.184,131.755h-4.4a1.078,1.078,0,0,1,0-2.155h4.4a1.078,1.078,0,0,1,0,2.155Z" transform="translate(-76.71 -129.6)" fill="#bfbfbf"/>
              <path id="Trazado_878947" data-name="Trazado 878947" d="M82.184,145.6h-4.4a1.078,1.078,0,0,1,0-2.155h4.4a1.078,1.078,0,0,1,0,2.155Z" transform="translate(-76.71 -135.983)" fill="#bfbfbf"/>
              <path id="Trazado_878948" data-name="Trazado 878948" d="M82.184,159.425h-4.4a1.078,1.078,0,0,1,0-2.155h4.4a1.078,1.078,0,0,1,0,2.155Z" transform="translate(-76.71 -142.362)" fill="#bfbfbf"/>
              <path id="Trazado_878949" data-name="Trazado 878949" d="M82.184,173.255h-4.4a1.078,1.078,0,0,1,0-2.155h4.4a1.078,1.078,0,0,1,0,2.155Z" transform="translate(-76.71 -148.74)" fill="#bfbfbf"/>
              <g id="Grupo_1101607" data-name="Grupo 1101607" opacity="0.7">
                <path id="Trazado_878950" data-name="Trazado 878950" d="M82.184,131.755h-4.4a1.078,1.078,0,0,1,0-2.155h4.4a1.078,1.078,0,0,1,0,2.155Z" transform="translate(-76.71 -129.6)" fill="#bfbfbf"/>
              </g>
              <g id="Grupo_1101608" data-name="Grupo 1101608" transform="translate(0 7.457)" opacity="0.7">
                <path id="Trazado_878951" data-name="Trazado 878951" d="M82.184,145.6h-4.4a1.078,1.078,0,0,1,0-2.155h4.4a1.078,1.078,0,0,1,0,2.155Z" transform="translate(-76.71 -143.44)" fill="#bfbfbf"/>
              </g>
              <g id="Grupo_1101609" data-name="Grupo 1101609" transform="translate(0 14.908)" opacity="0.7">
                <path id="Trazado_878952" data-name="Trazado 878952" d="M82.184,159.425h-4.4a1.078,1.078,0,0,1,0-2.155h4.4a1.078,1.078,0,0,1,0,2.155Z" transform="translate(-76.71 -157.27)" fill="#bfbfbf"/>
              </g>
              <g id="Grupo_1101610" data-name="Grupo 1101610" transform="translate(0 22.36)" opacity="0.7">
                <path id="Trazado_878953" data-name="Trazado 878953" d="M82.184,173.255h-4.4a1.078,1.078,0,0,1,0-2.155h4.4a1.078,1.078,0,0,1,0,2.155Z" transform="translate(-76.71 -171.1)" fill="#bfbfbf"/>
              </g>
            </g>
            <g id="Grupo_1101612" data-name="Grupo 1101612" transform="translate(9.876 33.437)">
              <path id="Trazado_878954" data-name="Trazado 878954" d="M170.357,117.925H77.778a1.078,1.078,0,0,1,0-2.155h92.58a1.078,1.078,0,1,1,0,2.155Z" transform="translate(-76.7 -100.862)" fill="#bfbfbf"/>
              <path id="Trazado_878955" data-name="Trazado 878955" d="M290.452,90.255h-9.445a1.078,1.078,0,1,1,0-2.155h9.445a1.078,1.078,0,1,1,0,2.155Z" transform="translate(-170.432 -88.1)" fill="#bfbfbf"/>
              <path id="Trazado_878956" data-name="Trazado 878956" d="M265.957,90.255h-9.019a1.078,1.078,0,0,1,0-2.155h9.019a1.078,1.078,0,1,1,0,2.155Z" transform="translate(-159.331 -88.1)" fill="#bfbfbf"/>
              <path id="Trazado_878957" data-name="Trazado 878957" d="M170.357,90.255H77.778a1.078,1.078,0,0,1,0-2.155h92.58a1.078,1.078,0,1,1,0,2.155Z" transform="translate(-76.7 -88.1)" fill="#bfbfbf"/>
            </g>
            <g id="Grupo_1101613" data-name="Grupo 1101613" transform="translate(19.127 55.797)">
              <path id="Trazado_878958" data-name="Trazado 878958" d="M290.452,131.755h-9.445a1.078,1.078,0,1,1,0-2.155h9.445a1.078,1.078,0,1,1,0,2.155Z" transform="translate(-179.683 -129.6)" fill="#999"/>
              <path id="Trazado_878959" data-name="Trazado 878959" d="M191.245,131.755h-96.3a1.078,1.078,0,0,1,0-2.155h96.3a1.078,1.078,0,0,1,0,2.155Z" transform="translate(-93.87 -129.6)" fill="#999"/>
              <path id="Trazado_878960" data-name="Trazado 878960" d="M122.6,145.6H94.948a1.078,1.078,0,0,1,0-2.155H122.6a1.078,1.078,0,0,1,0,2.155Z" transform="translate(-93.87 -135.983)" fill="#999"/>
              <path id="Trazado_878961" data-name="Trazado 878961" d="M122.6,159.425H94.948a1.078,1.078,0,0,1,0-2.155H122.6a1.078,1.078,0,0,1,0,2.155Z" transform="translate(-93.87 -142.362)" fill="#999"/>
              <path id="Trazado_878962" data-name="Trazado 878962" d="M122.6,173.255H94.948a1.078,1.078,0,1,1,0-2.155H122.6a1.078,1.078,0,1,1,0,2.155Z" transform="translate(-93.87 -148.74)" fill="#999"/>
            </g>
          </g>
        </g>
      </g>
      <g id="Grupo_1101617" data-name="Grupo 1101617" transform="translate(138.706 125.319)" opacity="0.3">
        <g id="Grupo_1101616" data-name="Grupo 1101616" transform="translate(173.238)">
          <rect id="Rectángulo_402782" data-name="Rectángulo 402782" width="244.712" height="43.22" rx="4.85" transform="translate(0 25.111)" fill="#fff" stroke="#000" stroke-linecap="round" stroke-linejoin="round" stroke-width="1"/>
          <path id="Trazado_878963" data-name="Trazado 878963" d="M276.335,119.31H73.088A7.891,7.891,0,0,0,65.2,127.2V187.65H284.223V127.2A7.891,7.891,0,0,0,276.335,119.31Z" transform="translate(-52.355 -119.31)" fill="#fff" stroke="#000" stroke-linecap="round" stroke-linejoin="round" stroke-width="1"/>
          <rect id="Rectángulo_402783" data-name="Rectángulo 402783" width="219.013" height="28.032" transform="translate(12.854 40.298)" fill="#fff" stroke="#000" stroke-linecap="round" stroke-linejoin="round" stroke-width="1"/>
        </g>
        <line id="Línea_703" data-name="Línea 703" x1="447.862" transform="translate(0 68.504)" fill="none" stroke="#000" stroke-linecap="round" stroke-linejoin="round" stroke-width="1"/>
      </g>
      <g id="Grupo_1101620" data-name="Grupo 1101620" transform="translate(108.052 54.307)" opacity="0.3">
        <rect id="Rectángulo_402784" data-name="Rectángulo 402784" width="106.208" height="68.331" transform="translate(0 52.295)" fill="#fff" stroke="#000" stroke-linecap="round" stroke-linejoin="round" stroke-width="1"/>
        <g id="Grupo_1101618" data-name="Grupo 1101618" transform="translate(4.301 58.225)">
          <rect id="Rectángulo_402785" data-name="Rectángulo 402785" width="45.843" height="22.97" transform="translate(0)" fill="#fff" stroke="#000" stroke-linecap="round" stroke-linejoin="round" stroke-width="1"/>
          <rect id="Rectángulo_402786" data-name="Rectángulo 402786" width="45.843" height="22.97" transform="translate(50.751)" fill="#fff" stroke="#000" stroke-linecap="round" stroke-linejoin="round" stroke-width="1"/>
        </g>
        <g id="Grupo_1101619" data-name="Grupo 1101619" transform="translate(4.301 86.595)">
          <rect id="Rectángulo_402787" data-name="Rectángulo 402787" width="45.843" height="22.97" transform="translate(0)" fill="#fff" stroke="#000" stroke-linecap="round" stroke-linejoin="round" stroke-width="1"/>
          <rect id="Rectángulo_402788" data-name="Rectángulo 402788" width="45.843" height="22.97" transform="translate(50.751)" fill="#fff" stroke="#000" stroke-linecap="round" stroke-linejoin="round" stroke-width="1"/>
        </g>
        <rect id="Rectángulo_402789" data-name="Rectángulo 402789" width="106.208" height="5.545" transform="translate(0 46.75)" fill="#fff" stroke="#000" stroke-linecap="round" stroke-linejoin="round" stroke-width="1"/>
        <path id="Trazado_878964" data-name="Trazado 878964" d="M395.029,75.061A4.741,4.741,0,0,0,389.34,72.2l-3.433-3.819a2.343,2.343,0,0,0-.771-2.469,2.511,2.511,0,0,0-1.794-.829,2.618,2.618,0,0,0-2.584,2.623,2.581,2.581,0,0,0,.174.916L359.9,87.982a2.52,2.52,0,0,0-2.073-.087,2.61,2.61,0,0,0,.607,5.034l3.086,12.121h-6.268a4,4,0,0,0-4,4v3.066h24.32v-3.066a4,4,0,0,0-4-4h-8.062L360.3,92.457a2.611,2.611,0,0,0,1.09-2.121,2.575,2.575,0,0,0-.183-.945l21.012-19.354a2.562,2.562,0,0,0,1.157.28,2.533,2.533,0,0,0,1.34-.386l2.845,3.163a4.746,4.746,0,0,0-1.427,5.362l2.064,5.362,8.881-3.414-2.064-5.362Z" transform="translate(-342.899 -65.08)" stroke="#000" stroke-miterlimit="10" stroke-width="1"/>
      </g>
      <g id="Grupo_1101622" data-name="Grupo 1101622" transform="translate(541.24 104.967)" opacity="0.3">
        <g id="Grupo_1101621" data-name="Grupo 1101621" transform="translate(0)">
          <path id="Trazado_878965" data-name="Trazado 878965" d="M39.44,129.291s-.54-2.3-.559-2.449c-.183-1.736.492-5.188,2.285-5.979a2.314,2.314,0,0,1,3.1,1.5,4.835,4.835,0,0,1-.974,3.944c-.878,1.254-3.838,2.98-3.838,2.98Z" transform="translate(-27.56 -113.825)"/>
          <path id="Trazado_878966" data-name="Trazado 878966" d="M9.688,129.887c-1.418.559-4.841.366-4.85.366-.039,0,.82-2.218.887-2.353.81-1.543,3.279-4.06,5.2-3.732a2.316,2.316,0,0,1,1.755,2.96,4.823,4.823,0,0,1-2.989,2.758Z" transform="translate(36.868 -113.949)"/>
          <path id="Trazado_878967" data-name="Trazado 878967" d="M50.522,139.385a15.756,15.756,0,0,1-4.725-.916,39.93,39.93,0,0,1-2.035,5.063c-.453.955-.945,1.909-1.446,2.854.289-.4.559-.752.6-.8,1.186-1.283,4.233-3.047,6-2.218a2.311,2.311,0,0,1,.906,3.317,4.827,4.827,0,0,1-3.607,1.871,15.48,15.48,0,0,1-4.59-.868c-.193.366-.386.723-.588,1.09-.945,1.736-1.9,3.452-2.787,5.178-.309.608-.6,1.215-.887,1.822.26-.357.482-.646.521-.694,1.186-1.273,4.233-3.047,6-2.228a2.311,2.311,0,0,1,.906,3.317,4.827,4.827,0,0,1-3.606,1.871,15.1,15.1,0,0,1-4.474-.829c-.28.627-.55,1.263-.791,1.89-.154.434-.328.829-.463,1.273s-.27.858-.405,1.283c-.231.829-.473,1.678-.675,2.488-.145.559-.27,1.1-.405,1.649.3-.608.916-1.784.984-1.871.984-1.446,3.722-3.655,5.593-3.105a2.31,2.31,0,0,1,1.4,3.144,4.842,4.842,0,0,1-3.288,2.392,15.866,15.866,0,0,1-4.783-.183c-.212.9-.415,1.774-.588,2.613-.608,2.874-1.013,5.284-1.273,6.982l-1.321-.048a1.066,1.066,0,0,1,.029-.154c.3-1.707.752-4.147,1.437-7.039.212-.916.463-1.89.723-2.883a23.905,23.905,0,0,1-2.623-1.35,17.024,17.024,0,0,1-3.983,2.372c.318.868.636,1.707.945,2.5,1.08,2.739,2.073,4.976,2.8,6.528l-1.456-.048c-.665-1.543-1.524-3.607-2.42-6.065-.328-.878-.656-1.832-.993-2.806a15.72,15.72,0,0,1-4.783.2,4.811,4.811,0,0,1-3.3-2.382,2.308,2.308,0,0,1,1.389-3.144c1.871-.559,4.619,1.649,5.6,3.086.058.087.588,1.08.906,1.707-.135-.4-.27-.791-.4-1.2-.27-.82-.511-1.639-.771-2.517-.116-.434-.222-.868-.338-1.3s-.2-.906-.3-1.36c-.212-1.061-.376-2.15-.521-3.259a14.96,14.96,0,0,1-4.561.878,4.843,4.843,0,0,1-3.616-1.851,2.308,2.308,0,0,1,.9-3.317c1.765-.829,4.822.926,6.008,2.2.077.077.829,1.09,1.225,1.649-.077-.665-.164-1.321-.222-2-.174-1.948-.289-3.915-.405-5.882-.039-.608-.077-1.205-.125-1.8a15.936,15.936,0,0,1-4.715.935,4.843,4.843,0,0,1-3.616-1.851,2.308,2.308,0,0,1,.9-3.317c1.765-.829,4.822.926,6.008,2.2.087.1,1.167,1.553,1.427,1.929-.1-1.321-.193-2.642-.357-3.934a40.587,40.587,0,0,0-.945-5.2,16.4,16.4,0,0,1-4.744.945,4.844,4.844,0,0,1-3.616-1.851,2.308,2.308,0,0,1,.9-3.317c1.765-.829,4.822.926,6.008,2.2.077.087.906,1.186,1.283,1.726a.9.9,0,0,0,.1-.048,29.944,29.944,0,0,0-1.871-4.966c-.415-.887-.858-1.707-1.311-2.5a15.213,15.213,0,0,1-4.513,1.408,4.845,4.845,0,0,1-3.8-1.446A2.307,2.307,0,0,1,9.482,126c1.668-1.022,4.889.4,6.21,1.524.067.058.733.771,1.215,1.292-.212-.357-.415-.723-.627-1.061-.771-1.254-1.562-2.363-2.266-3.336-.405-.55-.781-1.041-1.138-1.495a15.578,15.578,0,0,1-4.629-.829,4.869,4.869,0,0,1-2.71-3.028,2.315,2.315,0,0,1,2.035-2.777c1.948-.145,4.156,2.6,4.812,4.214.058.145.685,2.43.656,2.42H13c.357.434.723.9,1.119,1.408.723.955,1.533,2.054,2.343,3.3a39.229,39.229,0,0,1,2.4,4.147,30.683,30.683,0,0,1,2.006,4.966.071.071,0,0,0,.019.058c.01-.569.1-2.17.116-2.3.289-1.716,1.851-4.879,3.78-5.169a2.309,2.309,0,0,1,2.584,2.266,4.83,4.83,0,0,1-1.977,3.549,16.251,16.251,0,0,1-4.445,1.842,41.077,41.077,0,0,1,1.1,5.352c.154,1.051.27,2.112.376,3.182.029-.492.048-.935.058-.993.289-1.716,1.851-4.879,3.78-5.159a2.309,2.309,0,0,1,2.584,2.266,4.83,4.83,0,0,1-1.977,3.549,15.07,15.07,0,0,1-4.31,1.8c.039.415.077.82.106,1.225.164,1.967.318,3.934.53,5.853.077.675.174,1.34.27,2.006.019-.444.048-.81.058-.868.289-1.716,1.851-4.879,3.78-5.159a2.309,2.309,0,0,1,2.584,2.266,4.81,4.81,0,0,1-1.986,3.549,14.891,14.891,0,0,1-4.185,1.774c.116.675.241,1.36.386,2.006.106.444.183.878.318,1.311s.251.868.366,1.3c.26.82.53,1.659.81,2.449.193.55.376,1.07.569,1.6-.087-.675-.212-2-.212-2.1a8.9,8.9,0,0,1,1.36-4.32,3.056,3.056,0,0,1,.048-.511,2.315,2.315,0,0,1,2.893-1.861c1.871.569,2.951,3.925,2.98,5.66,0,.106-.106,1.225-.183,1.929.106-.4.212-.8.328-1.225.231-.829.482-1.649.743-2.527l.434-1.273c.135-.434.338-.868.5-1.3.405-1,.868-2.006,1.36-3.009a15.261,15.261,0,0,1-4.291-1.784,4.833,4.833,0,0,1-2-3.539,2.308,2.308,0,0,1,2.575-2.276c1.929.28,3.51,3.433,3.8,5.149.019.106.087,1.36.116,2.054.3-.6.6-1.2.916-1.794.926-1.716,1.919-3.423,2.9-5.13.3-.521.6-1.051.9-1.572a16.281,16.281,0,0,1-4.455-1.823,4.833,4.833,0,0,1-2-3.539,2.308,2.308,0,0,1,2.575-2.276c1.929.28,3.51,3.433,3.8,5.149.019.125.125,1.938.125,2.4.656-1.157,1.292-2.314,1.88-3.481a41.261,41.261,0,0,0,2.083-4.85,16.257,16.257,0,0,1-4.474-1.832,4.833,4.833,0,0,1-2-3.539,2.308,2.308,0,0,1,2.575-2.276c1.929.28,3.51,3.433,3.8,5.149.019.116.1,1.495.116,2.15a.208.208,0,0,1,.106.019,29.291,29.291,0,0,0,1.176-5.178c.145-.964.222-1.9.289-2.806a15.632,15.632,0,0,1-4.542-1.311,4.849,4.849,0,0,1-2.372-3.3,2.312,2.312,0,0,1,2.314-2.546c1.948.068,3.867,3.028,4.339,4.7.029.087.193,1.051.3,1.745.019-.405.048-.829.058-1.225.048-1.475,0-2.835-.048-4.031-.039-.685-.077-1.3-.125-1.871a15.555,15.555,0,0,1-3.4-3.24,4.843,4.843,0,0,1-.588-4.021,2.313,2.313,0,0,1,3.221-1.2c1.7.955,2.035,4.465,1.688,6.172-.029.145-.762,2.4-.791,2.382,0,0-.029-.019-.029-.029.058.55.116,1.148.154,1.794.077,1.2.154,2.555.135,4.04a40.191,40.191,0,0,1-.28,4.783,30.538,30.538,0,0,1-1.07,5.246c0,.019-.019.039-.019.058.328-.472,1.273-1.755,1.36-1.851,1.186-1.273,4.233-3.047,6-2.218a2.311,2.311,0,0,1,.906,3.317,4.827,4.827,0,0,1-3.607,1.871Z" transform="translate(-5.5 -113.571)"/>
          <path id="Trazado_878968" data-name="Trazado 878968" d="M9.688,129.887c-1.418.559-4.841.366-4.85.366-.039,0,.82-2.218.887-2.353.81-1.543,3.279-4.06,5.2-3.732a2.316,2.316,0,0,1,1.755,2.96,4.823,4.823,0,0,1-2.989,2.758Z" transform="translate(36.868 -113.949)" opacity="0.3"/>
          <path id="Trazado_878969" data-name="Trazado 878969" d="M39.44,129.291s-.54-2.3-.559-2.449c-.183-1.736.492-5.188,2.285-5.979a2.314,2.314,0,0,1,3.1,1.5,4.835,4.835,0,0,1-.974,3.944c-.878,1.254-3.838,2.98-3.838,2.98Z" transform="translate(-27.56 -113.825)" opacity="0.3"/>
          <path id="Trazado_878970" data-name="Trazado 878970" d="M50.522,139.385a15.756,15.756,0,0,1-4.725-.916,39.93,39.93,0,0,1-2.035,5.063c-.453.955-.945,1.909-1.446,2.854.289-.4.559-.752.6-.8,1.186-1.283,4.233-3.047,6-2.218a2.311,2.311,0,0,1,.906,3.317,4.827,4.827,0,0,1-3.607,1.871,15.48,15.48,0,0,1-4.59-.868c-.193.366-.386.723-.588,1.09-.945,1.736-1.9,3.452-2.787,5.178-.309.608-.6,1.215-.887,1.822.26-.357.482-.646.521-.694,1.186-1.273,4.233-3.047,6-2.228a2.311,2.311,0,0,1,.906,3.317,4.827,4.827,0,0,1-3.606,1.871,15.1,15.1,0,0,1-4.474-.829c-.28.627-.55,1.263-.791,1.89-.154.434-.328.829-.463,1.273s-.27.858-.405,1.283c-.231.829-.473,1.678-.675,2.488-.145.559-.27,1.1-.405,1.649.3-.608.916-1.784.984-1.871.984-1.446,3.722-3.655,5.593-3.105a2.31,2.31,0,0,1,1.4,3.144,4.842,4.842,0,0,1-3.288,2.392,15.866,15.866,0,0,1-4.783-.183c-.212.9-.415,1.774-.588,2.613-.608,2.874-1.013,5.284-1.273,6.982l-1.321-.048a1.066,1.066,0,0,1,.029-.154c.3-1.707.752-4.147,1.437-7.039.212-.916.463-1.89.723-2.883a23.905,23.905,0,0,1-2.623-1.35,17.024,17.024,0,0,1-3.983,2.372c.318.868.636,1.707.945,2.5,1.08,2.739,2.073,4.976,2.8,6.528l-1.456-.048c-.665-1.543-1.524-3.607-2.42-6.065-.328-.878-.656-1.832-.993-2.806a15.72,15.72,0,0,1-4.783.2,4.811,4.811,0,0,1-3.3-2.382,2.308,2.308,0,0,1,1.389-3.144c1.871-.559,4.619,1.649,5.6,3.086.058.087.588,1.08.906,1.707-.135-.4-.27-.791-.4-1.2-.27-.82-.511-1.639-.771-2.517-.116-.434-.222-.868-.338-1.3s-.2-.906-.3-1.36c-.212-1.061-.376-2.15-.521-3.259a14.96,14.96,0,0,1-4.561.878,4.843,4.843,0,0,1-3.616-1.851,2.308,2.308,0,0,1,.9-3.317c1.765-.829,4.822.926,6.008,2.2.077.077.829,1.09,1.225,1.649-.077-.665-.164-1.321-.222-2-.174-1.948-.289-3.915-.405-5.882-.039-.608-.077-1.205-.125-1.8a15.936,15.936,0,0,1-4.715.935,4.843,4.843,0,0,1-3.616-1.851,2.308,2.308,0,0,1,.9-3.317c1.765-.829,4.822.926,6.008,2.2.087.1,1.167,1.553,1.427,1.929-.1-1.321-.193-2.642-.357-3.934a40.587,40.587,0,0,0-.945-5.2,16.4,16.4,0,0,1-4.744.945,4.844,4.844,0,0,1-3.616-1.851,2.308,2.308,0,0,1,.9-3.317c1.765-.829,4.822.926,6.008,2.2.077.087.906,1.186,1.283,1.726a.9.9,0,0,0,.1-.048,29.944,29.944,0,0,0-1.871-4.966c-.415-.887-.858-1.707-1.311-2.5a15.213,15.213,0,0,1-4.513,1.408,4.845,4.845,0,0,1-3.8-1.446A2.307,2.307,0,0,1,9.482,126c1.668-1.022,4.889.4,6.21,1.524.067.058.733.771,1.215,1.292-.212-.357-.415-.723-.627-1.061-.771-1.254-1.562-2.363-2.266-3.336-.405-.55-.781-1.041-1.138-1.495a15.578,15.578,0,0,1-4.629-.829,4.869,4.869,0,0,1-2.71-3.028,2.315,2.315,0,0,1,2.035-2.777c1.948-.145,4.156,2.6,4.812,4.214.058.145.685,2.43.656,2.42H13c.357.434.723.9,1.119,1.408.723.955,1.533,2.054,2.343,3.3a39.229,39.229,0,0,1,2.4,4.147,30.683,30.683,0,0,1,2.006,4.966.071.071,0,0,0,.019.058c.01-.569.1-2.17.116-2.3.289-1.716,1.851-4.879,3.78-5.169a2.309,2.309,0,0,1,2.584,2.266,4.83,4.83,0,0,1-1.977,3.549,16.251,16.251,0,0,1-4.445,1.842,41.077,41.077,0,0,1,1.1,5.352c.154,1.051.27,2.112.376,3.182.029-.492.048-.935.058-.993.289-1.716,1.851-4.879,3.78-5.159a2.309,2.309,0,0,1,2.584,2.266,4.83,4.83,0,0,1-1.977,3.549,15.07,15.07,0,0,1-4.31,1.8c.039.415.077.82.106,1.225.164,1.967.318,3.934.53,5.853.077.675.174,1.34.27,2.006.019-.444.048-.81.058-.868.289-1.716,1.851-4.879,3.78-5.159a2.309,2.309,0,0,1,2.584,2.266,4.81,4.81,0,0,1-1.986,3.549,14.891,14.891,0,0,1-4.185,1.774c.116.675.241,1.36.386,2.006.106.444.183.878.318,1.311s.251.868.366,1.3c.26.82.53,1.659.81,2.449.193.55.376,1.07.569,1.6-.087-.675-.212-2-.212-2.1a8.9,8.9,0,0,1,1.36-4.32,3.056,3.056,0,0,1,.048-.511,2.315,2.315,0,0,1,2.893-1.861c1.871.569,2.951,3.925,2.98,5.66,0,.106-.106,1.225-.183,1.929.106-.4.212-.8.328-1.225.231-.829.482-1.649.743-2.527l.434-1.273c.135-.434.338-.868.5-1.3.405-1,.868-2.006,1.36-3.009a15.261,15.261,0,0,1-4.291-1.784,4.833,4.833,0,0,1-2-3.539,2.308,2.308,0,0,1,2.575-2.276c1.929.28,3.51,3.433,3.8,5.149.019.106.087,1.36.116,2.054.3-.6.6-1.2.916-1.794.926-1.716,1.919-3.423,2.9-5.13.3-.521.6-1.051.9-1.572a16.281,16.281,0,0,1-4.455-1.823,4.833,4.833,0,0,1-2-3.539,2.308,2.308,0,0,1,2.575-2.276c1.929.28,3.51,3.433,3.8,5.149.019.125.125,1.938.125,2.4.656-1.157,1.292-2.314,1.88-3.481a41.261,41.261,0,0,0,2.083-4.85,16.257,16.257,0,0,1-4.474-1.832,4.833,4.833,0,0,1-2-3.539,2.308,2.308,0,0,1,2.575-2.276c1.929.28,3.51,3.433,3.8,5.149.019.116.1,1.495.116,2.15a.208.208,0,0,1,.106.019,29.291,29.291,0,0,0,1.176-5.178c.145-.964.222-1.9.289-2.806a15.632,15.632,0,0,1-4.542-1.311,4.849,4.849,0,0,1-2.372-3.3,2.312,2.312,0,0,1,2.314-2.546c1.948.068,3.867,3.028,4.339,4.7.029.087.193,1.051.3,1.745.019-.405.048-.829.058-1.225.048-1.475,0-2.835-.048-4.031-.039-.685-.077-1.3-.125-1.871a15.555,15.555,0,0,1-3.4-3.24,4.843,4.843,0,0,1-.588-4.021,2.313,2.313,0,0,1,3.221-1.2c1.7.955,2.035,4.465,1.688,6.172-.029.145-.762,2.4-.791,2.382,0,0-.029-.019-.029-.029.058.55.116,1.148.154,1.794.077,1.2.154,2.555.135,4.04a40.191,40.191,0,0,1-.28,4.783,30.538,30.538,0,0,1-1.07,5.246c0,.019-.019.039-.019.058.328-.472,1.273-1.755,1.36-1.851,1.186-1.273,4.233-3.047,6-2.218a2.311,2.311,0,0,1,.906,3.317,4.827,4.827,0,0,1-3.607,1.871Z" transform="translate(-5.5 -113.571)" opacity="0.3"/>
        </g>
        <rect id="Rectángulo_402790" data-name="Rectángulo 402790" width="8.987" height="28.289" transform="translate(20.143 60.384)"/>
      </g>
      <g id="Grupo_1101624" data-name="Grupo 1101624" transform="translate(115.624 114.707)">
        <g id="Grupo_1101623" data-name="Grupo 1101623" transform="translate(0)">
          <path id="Trazado_878971" data-name="Trazado 878971" d="M400.259,190.306s1.169-13.966,0-22.5-6.592-11.641-6.978-15.521,1.94-7.76-.386-11.641a45.856,45.856,0,0,0-6.977-8.146s3.109,5.82.772,10.472-5.934,9.7-3.494,13.581,5.037,7.76,4.266,10.858-5.049,2.326-4.266,9.315,2.711,9.7,2.711,9.7l-.386,3.88,13.195-.386" transform="translate(-370.772 -132.5)" fill="#1682fb" stroke="#000" stroke-linecap="round" stroke-linejoin="round" stroke-width="1"/>
          <path id="Trazado_878972" data-name="Trazado 878972" d="M384.169,189.788s-2.757-2.893,1.713-7.261c2.882-2.825,5.729-7.023,5.854-11.38.068-2.144-.908-3.846-.25-5.854.715-2.19,2.95-3.574,3.551-6.013,1.18-4.72-1.974-9.11-2.371-10.608s-.011-1.6,2.11-5.764a17.305,17.305,0,0,0,1.985-7.738,7.824,7.824,0,0,1-5.775,5.514c-4.879,1.271-7.67,4.4-7.329,10.336s.737,7.431-3.392,8.509c-6.49,1.691-5.854,6.161-5.117,11.607.465,3.415.647,4.3-1.384,6.773-1.645,2.008-4.186,1.668-2.2,5.14,2.2,3.835-.964,7.068,2.9,8.067s9.678-1.327,9.678-1.327Z" transform="translate(-353.661 -132.141)" fill="#1682fb" stroke="#000" stroke-linecap="round" stroke-linejoin="round" stroke-width="1"/>
          <path id="Trazado_878973" data-name="Trazado 878973" d="M399,190.3s2.678-2.961-1.917-7.216c-2.961-2.746-5.922-6.853-6.172-11.209-.125-2.144.794-3.869.079-5.854-.783-2.167-3.052-3.494-3.721-5.911-1.3-4.686,1.713-9.156,2.065-10.676s-.034-1.6-2.269-5.7a17.44,17.44,0,0,1-2.212-7.681,7.843,7.843,0,0,0,5.934,5.355c4.913,1.135,7.794,4.187,7.613,10.12s-.522,7.443,3.631,8.407c6.535,1.509,6.024,5.99,5.446,11.459-.363,3.426-.522,4.323,1.566,6.728,1.7,1.963,4.232,1.554,2.337,5.083-2.1,3.891,1.157,7.034-2.677,8.146s-9.712-1.055-9.712-1.055Z" transform="translate(-384.856 -132.021)" fill="#1682fb" stroke="#000" stroke-linecap="round" stroke-linejoin="round" stroke-width="1"/>
          <path id="Trazado_878974" data-name="Trazado 878974" d="M375.83,180.71v19.866a7.452,7.452,0,0,0,.057,1.123,11.627,11.627,0,0,0,.658,3.029,12.474,12.474,0,0,0,11.765,8.328h6.773a12.474,12.474,0,0,0,11.765-8.328,11.625,11.625,0,0,0,.658-3.029,9.306,9.306,0,0,0,.057-1.123V180.71H375.83Z" transform="translate(-370.123 -126.013)" fill="#fff" stroke="#000" stroke-linecap="round" stroke-linejoin="round" stroke-width="1"/>
        </g>
        <rect id="Rectángulo_402791" data-name="Rectángulo 402791" width="31.734" height="0.749" transform="translate(5.707 68.879)" fill="#263238" stroke="#000" stroke-linecap="round" stroke-linejoin="round" stroke-width="1"/>
        <path id="Trazado_878975" data-name="Trazado 878975" d="M375.88,197.6a11.624,11.624,0,0,0,.658,3.029h30.3a11.624,11.624,0,0,0,.658-3.029Z" transform="translate(-370.117 -123.741)" fill="#263238" stroke="#000" stroke-linecap="round" stroke-linejoin="round" stroke-width="1"/>
      </g>
      <g id="Grupo_1101625" data-name="Grupo 1101625" transform="translate(211.997 80.67)">
        <path id="Trazado_878976" data-name="Trazado 878976" d="M337.282,152.361l-13.107,55.5a2.654,2.654,0,0,0,2.578,3.269h16.54V215.3H322.354a4.906,4.906,0,0,1-4.749-6.153l16.431-62.793,3.236,6.011Z" transform="translate(-317.44 -94.227)" fill="#fff" stroke="#263238" stroke-linecap="round" stroke-linejoin="round" stroke-width="1"/>
        <rect id="Rectángulo_402792" data-name="Rectángulo 402792" width="7.404" height="104.572" transform="matrix(-0.985, 0.174, -0.174, -0.985, 31.656, 102.98)" fill="#263238" stroke="#263238" stroke-linecap="round" stroke-linejoin="round" stroke-width="1"/>
        <rect id="Rectángulo_402793" data-name="Rectángulo 402793" width="66.896" height="2.896" transform="translate(50.038 118.174)" fill="#fff" stroke="#263238" stroke-linecap="round" stroke-linejoin="round" stroke-width="1"/>
      </g>
      <line id="Línea_704" data-name="Línea 704" x1="450.061" transform="translate(74.267 201.75)" fill="none" stroke="#263238" stroke-linecap="round" stroke-linejoin="round" stroke-width="1"/>
      <g id="Grupo_1101631" data-name="Grupo 1101631" transform="translate(288.327 4.403)">
        <path id="Trazado_878977" data-name="Trazado 878977" d="M110.161,54.383s1.964-18.772,11.765-24.655,4.758,10.085,4.758,10.925,14.57-15.411,26.892-6.439.84,27.732.84,27.732,14.854-5.042,14.57.284-14.014,9.8-14.014,9.8,24.938,2.521,15.967,13.73S137.6,88.839,137.6,88.839s6.723,7.28,1.965,8.12-22.974-13.446-24.655-17.091S103.7,65.3,110.15,54.372Z" transform="translate(21.461 -28.43)" fill="#263238" stroke="#263238" stroke-linecap="round" stroke-linejoin="round" stroke-width="1"/>
        <path id="Trazado_878978" data-name="Trazado 878978" d="M170.552,87.119s-9.113-.48-13.915-8.153-2.881-12.955,4.322-15.836,17.266-1.441,17.266-1.441,15.356-19.187,36.944-14.4S239.637,68.882,238.2,77.515s-5.752,34.543-5.752,34.543-17.746,2.881-22.548-1.921-13.915-22.068-23.509-24.469-15.836,1.441-15.836,1.441Z" transform="translate(-94.427 -26.777)" fill="#263238" stroke="#263238" stroke-linecap="round" stroke-linejoin="round" stroke-width="1"/>
        <g id="Grupo_1101626" data-name="Grupo 1101626" transform="translate(71.76 51.141)">
          <path id="Trazado_878979" data-name="Trazado 878979" d="M209.129,99.146c.578,4.311,3.678,10.357,6.647,9.964s4.911-4.213,4.333-8.524-3.7-4.911-6.668-4.507-4.879-1.233-4.3,3.078Z" transform="translate(-207.962 -73.398)" fill="none" stroke="#263238" stroke-linecap="round" stroke-linejoin="round" stroke-width="1"/>
          <path id="Trazado_878980" data-name="Trazado 878980" d="M206.612,96s-3.842,1.441-9.593-2.881-5.752-14.876-18.226-17.266-20.627,3.362-21.108,6.712,1.441,10.074,1.441,16.786-1.441,10.074-2.881,11.514-3.361.48-.48,3.362,8.633,6.232,8.633,6.232,8.153,15.356,11.514,18.226,11.514,1.441,14.4,0,9.113-4.8,9.113-4.8l3.842,13.435,23.029-18.706-5.752-19.187s-11.514-2.881-13.915-13.435Z" transform="translate(-154.27 -75.288)" fill="#fff" stroke="#263238" stroke-linecap="round" stroke-linejoin="round" stroke-width="1"/>
          <path id="Trazado_878981" data-name="Trazado 878981" d="M173.24,129.578l6.177-7.018-3.329,14.668Z" transform="translate(-128.101 -70.968)" fill="#263238" stroke="#263238" stroke-linecap="round" stroke-linejoin="round" stroke-width="1"/>
          <path id="Trazado_878982" data-name="Trazado 878982" d="M209.062,100.4c.164,1.844,1.113,3.274,2.117,3.187s1.681-1.659,1.506-3.514-1.113-3.274-2.117-3.187S208.888,98.549,209.062,100.4Z" transform="translate(-200.463 -73.314)" fill="#263238"/>
          <line id="Línea_705" data-name="Línea 705" y1="2.183" x2="32.851" transform="translate(17.767 20.487)" fill="none" stroke="#263238" stroke-linecap="round" stroke-linejoin="round" stroke-width="1"/>
          <line id="Línea_706" data-name="Línea 706" x1="2.663" transform="translate(4.245 27.21)" fill="none" stroke="#263238" stroke-linecap="round" stroke-linejoin="round" stroke-width="1"/>
          <path id="Trazado_878983" data-name="Trazado 878983" d="M214.54,89.506a6.4,6.4,0,0,0-7.28.84" transform="translate(-200.352 -74.061)" fill="none" stroke="#263238" stroke-linecap="round" stroke-linejoin="round" stroke-width="1"/>
          <path id="Trazado_878984" data-name="Trazado 878984" d="M201.61,122.132s3.645,0,6.166-4.2" transform="translate(-187.423 -71.391)" fill="none" stroke="#263238" stroke-linecap="round" stroke-linejoin="round" stroke-width="1"/>
        </g>
        <g id="Grupo_1101628" data-name="Grupo 1101628" transform="translate(105.636 67.399)">
          <path id="Trazado_878985" data-name="Trazado 878985" d="M100.081,154.241,95.77,216.178h94.6s-14.788-47.148-19.416-57S160.479,145,160.479,145s-12.016-10.783-28.354-8.633S100.081,154.241,100.081,154.241Z" transform="translate(-88.381 -85.99)" fill="#1682fb" stroke="#263238" stroke-linecap="round" stroke-linejoin="round" stroke-width="1"/>
          <path id="Trazado_878986" data-name="Trazado 878986" d="M163.541,98.485s1.921-9.593,8.633-8.153,3.361,16.305-.96,20.627-7.192-.48-7.192-.48" transform="translate(-147.956 -90.185)" fill="#fff" stroke="#263238" stroke-linecap="round" stroke-linejoin="round" stroke-width="1"/>
          <g id="Grupo_1101627" data-name="Grupo 1101627" transform="translate(8.014 17.342)">
            <path id="Trazado_878987" data-name="Trazado 878987" d="M114.254,160.989s-3.7-6.472-.611-11.711,12.322-15.716,24.96-25.571,29.271-22.494,31.738-15.716,4.311,20.027,4.311,20.027,10.783,1.844,12.016,5.239,2.467,20.333.611,22.494-3.078-.306-7.083-.306-28.355-8.011-37.6-7.4-10.783,3.394-17.877,7.083-10.477,5.85-10.477,5.85Z" transform="translate(-112.412 -106.075)" fill="#1682fb" stroke="#263238" stroke-linecap="round" stroke-linejoin="round" stroke-width="1"/>
            <path id="Trazado_878988" data-name="Trazado 878988" d="M179.181,146.14a30.269,30.269,0,0,0-4.791,4.4" transform="translate(-171.01 -102.413)" fill="none" stroke="#263238" stroke-linecap="round" stroke-linejoin="round" stroke-width="1"/>
            <path id="Trazado_878989" data-name="Trazado 878989" d="M175.017,132c-7.05-1.462-15.6-2.237-21.61.535A149.39,149.39,0,0,0,131.59,145.13" transform="translate(-120.133 -103.826)" fill="none" stroke="#263238" stroke-linecap="round" stroke-linejoin="round" stroke-width="1"/>
            <path id="Trazado_878990" data-name="Trazado 878990" d="M130.8,135.48a87.954,87.954,0,0,0-10.75-3.22" transform="translate(-63.322 -103.681)" fill="none" stroke="#263238" stroke-linecap="round" stroke-linejoin="round" stroke-width="1"/>
            <path id="Trazado_878991" data-name="Trazado 878991" d="M146.7,126.287s-7.705-3.078-18.183.306" transform="translate(-88.469 -104.344)" fill="none" stroke="#263238" stroke-linecap="round" stroke-linejoin="round" stroke-width="1"/>
          </g>
          <path id="Trazado_878992" data-name="Trazado 878992" d="M191.237,156.03c-2.467-5.239-10.477-16.949-22.8-10.783s-15.41,20.955-20.955,39.137S136.7,215.511,136.7,215.511h45.915L194.02,169.6" transform="translate(-136.7 -85.312)" fill="#1682fb" stroke="#263238" stroke-linecap="round" stroke-linejoin="round" stroke-width="1"/>
        </g>
        <path id="Trazado_878993" data-name="Trazado 878993" d="M277.524,211.543l-5.1-4.366s-6.046,1.441-15.891-1.593-13.108-5.959-13.108-5.959a73.281,73.281,0,0,0-8.895,4.977c-4.518,3-7.793,4.158-12.158,2.958s1.19-2.379,6.024-5.8,10.652-8.109,10.652-8.109-9.135,4.366-12.311,5.555-6.352,3.176-9.135,1.986-1.593-2.379,5.566-5.959c6.548-3.274,13.9-9.528,17.473-9.528s19.863,6.756,19.863,6.756l31.88,19.067H277.524Z" transform="translate(-216.22 -14.056)" fill="#fff" stroke="#263238" stroke-linecap="round" stroke-linejoin="round" stroke-width="1"/>
        <g id="Grupo_1101630" data-name="Grupo 1101630" transform="translate(8.843 173.39)">
          <g id="Grupo_1101629" data-name="Grupo 1101629" transform="translate(0)">
            <path id="Trazado_878994" data-name="Trazado 878994" d="M270.448,203a15.912,15.912,0,0,1-7.465.546c-3.58-.8-8.338-1.593-8.338-1.593s-9.528.393-12.715,0-2.379-2.379,2.783-4.366,24.622-3.176,25.026-1.986a65.4,65.4,0,0,1,.709,7.4Z" transform="translate(-229.131 -186.585)" fill="#263238" stroke="#263238" stroke-linecap="round" stroke-linejoin="round" stroke-width="1"/>
            <path id="Trazado_878995" data-name="Trazado 878995" d="M277.638,192.61s-7.552,2.827-8.96,3.776-4.246,1.648-3.067,3.307,4.955.24,7.552-.24a27.132,27.132,0,0,0,5.894-2.117l-1.419-4.715Z" transform="translate(-265.33 -186.815)" fill="#fff" stroke="#263238" stroke-linecap="round" stroke-linejoin="round" stroke-width="1"/>
            <path id="Trazado_878996" data-name="Trazado 878996" d="M271.078,188.722s-13.446.709-16.513,1.648-5.424,7.312-5.894,9.2-2.117,4.246-.709,4.486,6.6-5.664,8.731-6.843,10.608-5.184,13.675-6.363,2.358-2.357.71-2.128Z" transform="translate(-239.201 -187.173)" fill="#fff" stroke="#263238" stroke-linecap="round" stroke-linejoin="round" stroke-width="1"/>
            <path id="Trazado_878997" data-name="Trazado 878997" d="M275.445,209.073S244.635,187.3,241.339,187.3s-18.074,6.57-21.37,8.218-7.4,10.685-7.4,10.685.819,2.052,3.7.415,6.166-6.985,6.166-6.985l16.4-.633s4.136,3.9,6.6,4.715a57,57,0,0,0,8.251,1.419L259,209.9l16.436-.819Z" transform="translate(-204.137 -187.3)" fill="#fff" stroke="#263238" stroke-linecap="round" stroke-linejoin="round" stroke-width="1"/>
          </g>
          <path id="Trazado_878998" data-name="Trazado 878998" d="M211.462,197.58l-7.072,12.977h30.668Z" transform="translate(-154.822 -186.36)" fill="#1682fb" stroke="#263238" stroke-linecap="round" stroke-linejoin="round" stroke-width="1"/>
        </g>
        <path id="Trazado_878999" data-name="Trazado 878999" d="M203.812,95.663s9.222-3.383,10.456-1.233,2.456,10.139-2.456,13.522-7.487-7.149-7.487-7.149" transform="translate(-125.657 -22.464)" fill="none" stroke="#263238" stroke-linecap="round" stroke-linejoin="round" stroke-width="1"/>
      </g>
      <path id="Trazado_879000" data-name="Trazado 879000" d="M50.676,52.151,0,47.949c7.527-4.4,6.2-40.275,6.2-40.275H50.676Z" transform="translate(100.643 16.661)" fill="#fff"/>
      <path id="Trazado_879001" data-name="Trazado 879001" d="M16.473,16.763q10.518.851,21.077.83v-.948l-.639.064c-.6.061-.606,1.008,0,.948l.639-.064c.6-.061.623-.949,0-.948q-10.552.021-21.077-.83c-.608-.049-.605.9,0,.948" transform="translate(105.03 18.804)" fill="#273a89"/>
      <path id="Trazado_879002" data-name="Trazado 879002" d="M16.88,20.711a137.052,137.052,0,0,0,20.093.891v-.948l-.672.037c-.606.033-.61.98,0,.948l.672-.037c.6-.033.613-.965,0-.948a137.052,137.052,0,0,1-20.093-.891c-.6-.071-.6.877,0,.948" transform="translate(105.142 19.844)" fill="#273a89"/>
      <path id="Trazado_879003" data-name="Trazado 879003" d="M16.756,31.956A185.241,185.241,0,0,0,36.8,33.678a.474.474,0,0,0,0-.948,182.837,182.837,0,0,1-19.8-1.688c-.6-.085-.854.829-.251.913" transform="translate(105.137 22.814)" fill="#273a89"/>
      <path id="Trazado_879004" data-name="Trazado 879004" d="M16.5,35.566a126.1,126.1,0,0,0,21.542,1.116c.608-.021.61-.969,0-.948a124.578,124.578,0,0,1-21.29-1.081c-.6-.082-.854.83-.251.913" transform="translate(105.07 23.765)" fill="#273a89"/>
      <rect id="Rectángulo_402794" data-name="Rectángulo 402794" width="7.667" height="7.667" transform="translate(109.364 32.808)" fill="#273a89"/>
      <path id="Trazado_879005" data-name="Trazado 879005" d="M0,0H7.668V7.668H0Z" transform="translate(109.138 59.076) rotate(-86.524)" fill="#273a89"/>
      <path id="Trazado_879006" data-name="Trazado 879006" d="M8.754,17.631l1.805,1.855c.277.286.569.689.978.781a.915.915,0,0,0,.975-.542c.478-.858.857-1.784,1.266-2.676.121-.268.244-.534.365-.8a.488.488,0,0,0-.171-.648.478.478,0,0,0-.648.169q-.4.877-.8,1.747c-.193.417-.388.833-.587,1.247-.083.172-.163.349-.258.513-.008.013-.056.075-.053.086.006.034-.075-.078.016-.006-.005,0,.133-.013.129,0s-.075-.058-.078-.062c-.141-.126-.268-.274-.4-.409l-1.869-1.92c-.426-.438-1.1.232-.67.67" transform="translate(101.786 18.732)" fill="#fff"/>
      <path id="Trazado_879007" data-name="Trazado 879007" d="M8.486,31.624,10.1,33.051a2.151,2.151,0,0,0,.815.58,1.133,1.133,0,0,0,1.078-.263c.594-.533,1.084-1.131,1.6-1.7.16-.174.321-.35.479-.526.318-.351-.5-.671-.817-.321s-.663.726-1,1.088c-.249.269-.5.536-.753.8-.095.1-.214.2-.3.3-.025.03-.115.047.008.034s.056.01.04-.024-.087-.072-.114-.095c-.067-.058-.131-.116-.2-.176L9.3,31.3a.642.642,0,0,0-.649-.115c-.2.078-.325.3-.169.436" transform="translate(101.732 22.718)" fill="#fff"/>
      <rect id="Rectángulo_402795" data-name="Rectángulo 402795" width="14.383" height="5.453" transform="translate(127.495 28.214) rotate(-70.709)" fill="#1682fb"/>
      <rect id="Rectángulo_402796" data-name="Rectángulo 402796" width="50.676" height="54.172" transform="translate(100.643 14.64)" fill="none"/>
      <path id="Trazado_879008" data-name="Trazado 879008" d="M0,0H50.972V50.971H0Z" transform="translate(25.175 116.512) rotate(-5.479)" fill="#fff"/>
      <g id="Grupo_1101634" data-name="Grupo 1101634" transform="translate(25.175 99.924)">
        <g id="Grupo_1101633" data-name="Grupo 1101633" clip-path="url(#clip-path)">
          <path id="Trazado_879009" data-name="Trazado 879009" d="M6.108,19.552l32.4-3.334c.752-.078.76-1.265,0-1.187l-32.4,3.334c-.752.078-.76,1.265,0,1.187" transform="translate(3.231 8.762)" fill="#273a89"/>
          <path id="Trazado_879010" data-name="Trazado 879010" d="M5.917,23.162Q23.559,21.108,41.3,20.036c-.054-.388-.1-.777-.158-1.167l-.92.325c-.717.253-.407,1.4.315,1.146.306-.109.614-.217.92-.325.594-.211.551-1.21-.157-1.167Q23.564,19.922,5.917,21.975c-.75.087-.758,1.276,0,1.187" transform="translate(3.121 10.99)" fill="#273a89"/>
          <path id="Trazado_879011" data-name="Trazado 879011" d="M7,26.534A224.3,224.3,0,0,0,36.513,24.36c.754-.106.434-1.251-.315-1.145A221.96,221.96,0,0,1,7,25.346a.594.594,0,0,0,0,1.187" transform="translate(3.745 13.534)" fill="#273a89"/>
          <path id="Trazado_879012" data-name="Trazado 879012" d="M9.576,32.567q11.237-1.038,22.472-2.072c.755-.07.761-1.259,0-1.187Q20.812,30.343,9.576,31.379c-.755.07-.761,1.257,0,1.187" transform="translate(5.253 17.088)" fill="#273a89"/>
          <rect id="Rectángulo_402797" data-name="Rectángulo 402797" width="6.833" height="18.023" transform="matrix(0.976, -0.218, 0.218, 0.976, 18.49, 1.489)" fill="#4973ed"/>
        </g>
      </g>
      <path id="Trazado_879013" data-name="Trazado 879013" d="M56.833,49.88,0,45.168C8.442,40.239,6.953,0,6.953,0h49.88Z" transform="matrix(0.899, -0.438, 0.438, 0.899, 590.876, 107.653)" fill="#fff"/>
      <path id="Trazado_879014" data-name="Trazado 879014" d="M.51,1.065q11.8.954,23.637.931V.933l-.717.072c-.674.068-.68,1.131,0,1.063L24.147,2c.667-.068.7-1.064,0-1.063Q12.314.956.51,0c-.682-.055-.679,1.007,0,1.063" transform="matrix(0.899, -0.438, 0.438, 0.899, 616.33, 108.069)" fill="#273a89"/>
      <path id="Trazado_879015" data-name="Trazado 879015" d="M.506,1.067a153.7,153.7,0,0,0,22.534,1V1l-.754.041c-.68.037-.684,1.1,0,1.063l.754-.041c.677-.037.687-1.082,0-1.063A153.7,153.7,0,0,1,.506,0c-.677-.079-.672.983,0,1.063" transform="matrix(0.899, -0.438, 0.438, 0.899, 619.305, 112.84)" fill="#273a89"/>
      <path id="Trazado_879016" data-name="Trazado 879016" d="M.385,1.031A207.74,207.74,0,0,0,22.868,2.962a.532.532,0,0,0,0-1.063A205.05,205.05,0,0,1,.667.006C0-.089-.291.936.385,1.031" transform="matrix(0.899, -0.438, 0.438, 0.899, 626.287, 127.21)" fill="#273a89"/>
      <path id="Trazado_879017" data-name="Trazado 879017" d="M.385,1.03A141.42,141.42,0,0,0,24.544,2.281c.682-.024.684-1.087,0-1.063A139.713,139.713,0,0,1,.667.006C0-.086-.291.937.385,1.03" transform="matrix(0.899, -0.438, 0.438, 0.899, 628.21, 131.964)" fill="#273a89"/>
      <rect id="Rectángulo_402799" data-name="Rectángulo 402799" width="8.599" height="8.599" transform="matrix(0.899, -0.438, 0.438, 0.899, 604.969, 111.353)" fill="#273a89"/>
      <path id="Trazado_879018" data-name="Trazado 879018" d="M0,0H8.6V8.6H0Z" transform="matrix(-0.383, -0.924, 0.924, -0.383, 617.655, 137.94)" fill="#273a89"/>
      <path id="Trazado_879019" data-name="Trazado 879019" d="M.153,2.348l2.025,2.08c.31.32.638.772,1.1.876A1.026,1.026,0,0,0,4.368,4.7c.536-.962.961-2,1.42-3,.136-.3.273-.6.409-.9A.548.548,0,0,0,6.006.068a.536.536,0,0,0-.727.19q-.444.984-.9,1.96c-.217.468-.435.934-.659,1.4-.094.193-.183.391-.289.575-.009.014-.062.084-.06.1.007.038-.084-.088.018-.007-.006,0,.149-.014.145,0s-.084-.065-.088-.069C3.29,4.068,3.148,3.9,3,3.751L.9,1.6c-.477-.492-1.228.261-.751.751" transform="matrix(0.899, -0.438, 0.438, 0.899, 606.736, 112.314)" fill="#fff"/>
      <path id="Trazado_879020" data-name="Trazado 879020" d="M.078,1.067l1.806,1.6a2.413,2.413,0,0,0,.914.65,1.271,1.271,0,0,0,1.209-.295c.666-.6,1.216-1.268,1.8-1.9.18-.2.36-.392.537-.589C6.7.136,5.781-.223,5.425.17Q4.871.782,4.306,1.39c-.279.3-.558.6-.844.9-.106.112-.239.221-.332.337-.028.034-.129.052.009.038s.062.011.045-.027-.1-.081-.128-.106c-.075-.065-.147-.13-.222-.2L1,.707A.72.72,0,0,0,.268.578C.044.666-.1.912.078,1.067" transform="matrix(0.899, -0.438, 0.438, 0.899, 615.878, 131.714)" fill="#fff"/>
      <path id="Trazado_879021" data-name="Trazado 879021" d="M0,0H16.13V6.116H0Z" transform="translate(619.636 98.467) rotate(-96.709)" fill="#1682fb"/>
      <rect id="Rectángulo_402800" data-name="Rectángulo 402800" width="56.833" height="60.753" transform="matrix(0.899, -0.438, 0.438, 0.899, 586.11, 97.88)" fill="none"/>
    </g>
  </g>
</svg>
