<svg xmlns="http://www.w3.org/2000/svg" width="103.147" height="103.227" viewBox="0 0 103.147 103.227">
  <g id="programmer_4125267" transform="translate(-0.187)">
    <path id="Trazado_891004" data-name="Trazado 891004" d="M83.079,76.784a5.635,5.635,0,0,1,.557-7.594,5.637,5.637,0,0,0,.544-7.611L81.7,58.465a5.637,5.637,0,0,1-.994-5.1l1.6-5.426a5.635,5.635,0,0,0-3.269-6.811l-2.114-.867a5.635,5.635,0,0,1-3.5-5.215V29.506A21.5,21.5,0,0,0,51.921,8H41.6A21.507,21.507,0,0,0,20.093,29.506v5.538a5.635,5.635,0,0,1-3.5,5.215l-2.114.867a5.635,5.635,0,0,0-3.269,6.811l1.6,5.426a5.637,5.637,0,0,1-.994,5.1L9.34,61.579a5.638,5.638,0,0,0,.544,7.611,5.636,5.636,0,0,1,.557,7.594l-.146.187a5.636,5.636,0,0,0,.439,7.478l5.008,5.008a11.625,11.625,0,0,0-2.1,6.667v9.942a1.72,1.72,0,0,0,1.72,1.72h62.8a1.72,1.72,0,0,0,1.72-1.72V96.124a11.625,11.625,0,0,0-2.112-6.685c.019.028-.369.4,5.02-4.99a5.637,5.637,0,0,0,.439-7.478Z" transform="translate(-6.223 -6.28)" fill="#e0b7a3"/>
    <path id="Trazado_891005" data-name="Trazado 891005" d="M100.05,364.35v9.727a1.721,1.721,0,0,1-1.72,1.72h-62.8a1.721,1.721,0,0,1-1.72-1.72V364.35a11.64,11.64,0,0,1,7.826-11c.022-.021,6.8-2.339,9.273-3.2a11.583,11.583,0,0,0,1.645-.714,15.712,15.712,0,0,0,28.749,0,11.582,11.582,0,0,0,1.645.714c.022.008,9.247,3.2,9.269,3.2A11.642,11.642,0,0,1,100.05,364.35Z" transform="translate(-26.395 -274.291)" fill="#f8c460"/>
    <path id="Trazado_891006" data-name="Trazado 891006" d="M54.361,352.515a2.149,2.149,0,0,1-1.016,3.326c-.067.023-5.231,1.789-5.254,1.812a11.369,11.369,0,0,0-7.826,10.783v5.211a2.151,2.151,0,0,1-2.151,2.151H35.533a1.721,1.721,0,0,1-1.72-1.72V364.35a11.64,11.64,0,0,1,7.826-11,.009.009,0,0,1,.006,0c7.275-2.6,9.278-3.042,10.912-3.91A15.6,15.6,0,0,0,54.361,352.515Z" transform="translate(-26.395 -274.291)" fill="#faaf42"/>
    <path id="Trazado_891007" data-name="Trazado 891007" d="M72.046,85.339c-.265-.095-8.772-3.024-9.267-3.2A11.649,11.649,0,0,1,54.932,71.2,21.172,21.172,0,0,0,67.845,51.71V40.954a1.707,1.707,0,0,0-1.122-1.618,16.96,16.96,0,0,1-8.794-7.251A1.719,1.719,0,0,0,55.1,31.9,32.724,32.724,0,0,1,27.5,44.491,1.726,1.726,0,0,0,25.676,46.2v5.465a21.206,21.206,0,0,0,12.912,19.54A11.646,11.646,0,0,1,30.74,82.143c-2.485.864-9.252,3.176-9.273,3.2a11.624,11.624,0,0,0-5.637,4.2l-5.1-5.1a5.636,5.636,0,0,1-.439-7.478l.146-.187a5.636,5.636,0,0,0-.557-7.594,5.638,5.638,0,0,1-.544-7.611l2.477-3.114a5.637,5.637,0,0,0,.994-5.1l-1.6-5.426a5.635,5.635,0,0,1,3.269-6.811l2.114-.867a5.635,5.635,0,0,0,3.5-5.215V29.506A21.507,21.507,0,0,1,41.6,8H51.921A21.5,21.5,0,0,1,73.427,29.506v5.538a5.635,5.635,0,0,0,3.5,5.215l2.114.867a5.635,5.635,0,0,1,3.269,6.811l-1.6,5.426a5.637,5.637,0,0,0,.994,5.1l2.477,3.114a5.637,5.637,0,0,1-.544,7.611,5.635,5.635,0,0,0-.557,7.594l.146.187a5.636,5.636,0,0,1-.439,7.478l-5.1,5.1a11.626,11.626,0,0,0-5.641-4.207Z" transform="translate(-6.223 -6.28)" fill="#585966"/>
    <path id="Trazado_891008" data-name="Trazado 891008" d="M53,8.027a2.162,2.162,0,0,1-.1,4.32c-1.471.02-3.068-.012-4.851-.046-11.875-.228-21.506,9.63-21.506,21.506v5.538a5.635,5.635,0,0,1-3.5,5.215l-2.114.867a5.635,5.635,0,0,0-3.269,6.811l1.6,5.426a5.637,5.637,0,0,1-.994,5.1L15.792,65.88a5.638,5.638,0,0,0,.544,7.611,5.636,5.636,0,0,1,.557,7.594l-.146.187a5.633,5.633,0,0,0-.017,6.959,11.719,11.719,0,0,0-.988,1.225l-5.008-5.008a5.636,5.636,0,0,1-.439-7.478l.146-.187a5.636,5.636,0,0,0-.557-7.594,5.638,5.638,0,0,1-.544-7.611l2.477-3.114a5.637,5.637,0,0,0,.994-5.1l-1.6-5.426a5.635,5.635,0,0,1,3.269-6.811l2.114-.867a5.635,5.635,0,0,0,3.5-5.215V29.506A21.506,21.506,0,0,1,41.6,8S52.645,8.009,53,8.027Z" transform="translate(-6.223 -6.28)" fill="#6e6f80"/>
    <path id="Trazado_891009" data-name="Trazado 891009" d="M111.7,200.975a2.581,2.581,0,0,1-.688,5.06A21.13,21.13,0,0,1,89.774,184.85v-5.465a1.726,1.726,0,0,1,1.823-1.714q1.005.054,2,.047a2.59,2.59,0,0,1,2.624,2.584A21.149,21.149,0,0,0,111.7,200.975Z" transform="translate(-70.321 -139.46)" fill="#f2d1c2"/>
    <path id="Trazado_891010" data-name="Trazado 891010" d="M164.52,305.676a21.078,21.078,0,0,1-14.5.012,1.713,1.713,0,0,1-1.094-1.9,11.728,11.728,0,0,0,.171-1.909,21.046,21.046,0,0,0,16.344-.011,11.623,11.623,0,0,0,.169,1.91A1.711,1.711,0,0,1,164.52,305.676Z" transform="translate(-116.732 -236.951)" fill="#c79a83"/>
    <circle id="Elipse_11920" data-name="Elipse 11920" cx="5.161" cy="5.161" r="5.161" transform="translate(42.903 36.56)" fill="#eef7ff"/>
    <circle id="Elipse_11921" data-name="Elipse 11921" cx="5.161" cy="5.161" r="5.161" transform="translate(27.634 36.56)" fill="#eef7ff"/>
    <path id="Trazado_891011" data-name="Trazado 891011" d="M130.817,178.138a.811.811,0,0,1-1.28.937,5.16,5.16,0,0,1,2.948-8.988.81.81,0,0,1,.531,1.5A5.171,5.171,0,0,0,130.817,178.138Z" transform="translate(-100.179 -133.505)" fill="#fff"/>
    <path id="Trazado_891012" data-name="Trazado 891012" d="M201.817,178.138a.811.811,0,0,1-1.28.937,5.16,5.16,0,0,1,2.948-8.988.81.81,0,0,1,.531,1.5A5.171,5.171,0,0,0,201.817,178.138Z" transform="translate(-155.91 -133.505)" fill="#fff"/>
    <path id="Trazado_891013" data-name="Trazado 891013" d="M306.674,331.441v27.527H265.813V331.441A3.44,3.44,0,0,1,269.254,328h33.979A3.44,3.44,0,0,1,306.674,331.441Z" transform="translate(-208.501 -257.462)" fill="#cbe3fa"/>
    <path id="Trazado_891014" data-name="Trazado 891014" d="M303.251,332.3H275.706a3.441,3.441,0,0,0-3.441,3.441v23.226h-6.452V331.441A3.441,3.441,0,0,1,269.254,328h33.979C306.227,328,306.03,332.3,303.251,332.3Z" transform="translate(-208.501 -257.462)" fill="#eef7ff"/>
    <g id="Grupo_1105677" data-name="Grupo 1105677" transform="translate(0.187)">
      <path id="Trazado_891015" data-name="Trazado 891015" d="M53.973,146.269a22.579,22.579,0,0,0,13.359-.023,13.449,13.449,0,0,0,2.555,5.738,1.721,1.721,0,0,0,2.725-2.1,9.989,9.989,0,0,1-2-4.941A22.827,22.827,0,0,0,83.45,124.4c0-3.477,0-11.322,0-11.737a1.74,1.74,0,0,0-1.413-1.982,15.344,15.344,0,0,1-9.825-8.993,1.721,1.721,0,0,0-3.039-.308A30.581,30.581,0,0,1,39.83,115.329a1.783,1.783,0,0,0-.985.142,1.832,1.832,0,0,0-1,1.838c0,.249,0,4.351,0,7.05a22.845,22.845,0,0,0,6.619,16.136,1.72,1.72,0,1,0,2.448-2.418,19.426,19.426,0,0,1-5.627-13.72V118.9a34.524,34.524,0,0,0,12.331-1.576,3.441,3.441,0,1,1-3.587,5.252,1.72,1.72,0,0,0-2.877,1.887,6.883,6.883,0,0,0,12.422-2.049h3.444a1.721,1.721,0,0,0,1.72-1.72,3.441,3.441,0,1,1,3.441,3.441,1.72,1.72,0,1,0,0,3.441,6.882,6.882,0,1,0-6.664-8.6H59.576a6.867,6.867,0,0,0-1.886-3.238,34.525,34.525,0,0,0,12.658-10.081,18.854,18.854,0,0,0,9.661,7.982V124.4a19.394,19.394,0,0,1-26.865,17.911,1.723,1.723,0,0,0-2.3,1.08,1.768,1.768,0,0,0-.077.509,9.937,9.937,0,0,1-6.688,9.3l-9.25,3.189a13.228,13.228,0,0,0-9.008,12.635v11.447a1.72,1.72,0,0,0,3.441,0V169.027a9.928,9.928,0,0,1,6.689-9.382c-.008-.022,8.31-2.84,9.537-3.295a17.437,17.437,0,0,0,23.956,6.471,1.72,1.72,0,1,0-1.737-2.97,14,14,0,0,1-19.174-5.1,13.4,13.4,0,0,0,5.447-8.48Z" transform="translate(-20.303 -78.967)"/>
      <path id="Trazado_891016" data-name="Trazado 891016" d="M101.613,99.786H59.032V73.979a1.722,1.722,0,0,1,1.72-1.72H94.731a1.722,1.722,0,0,1,1.72,1.72V91.9a1.72,1.72,0,1,0,3.441,0V73.979a5.167,5.167,0,0,0-5.161-5.161H77.8a3.892,3.892,0,0,1,.79-4.656,7.4,7.4,0,0,0,.711-9.933l-2.477-3.114a3.921,3.921,0,0,1-.691-3.546l1.6-5.426a7.337,7.337,0,0,0-4.267-8.89l-2.113-.866a3.9,3.9,0,0,1-2.432-3.623V23.226A23.252,23.252,0,0,0,45.7,0H35.376A23.253,23.253,0,0,0,12.15,23.227v5.537a3.9,3.9,0,0,1-2.432,3.623L7.6,33.253a7.337,7.337,0,0,0-4.267,8.89l1.6,5.426a3.92,3.92,0,0,1-.691,3.546L1.771,54.229a7.4,7.4,0,0,0,.711,9.933,3.9,3.9,0,0,1,.387,5.277l-.146.185a7.369,7.369,0,0,0-1.031,7.357,1.72,1.72,0,1,0,3.183-1.308,3.925,3.925,0,0,1,.549-3.918,7.325,7.325,0,0,0-.581-10.1,3.94,3.94,0,0,1-.378-5.288L6.94,53.257a7.365,7.365,0,0,0,1.3-6.662l-1.6-5.426a3.906,3.906,0,0,1,2.271-4.732l2.113-.866a7.33,7.33,0,0,0,4.568-6.807V23.227A19.808,19.808,0,0,1,35.376,3.441H45.7A19.808,19.808,0,0,1,65.484,23.226v5.538a7.33,7.33,0,0,0,4.568,6.807l2.113.866a3.906,3.906,0,0,1,2.271,4.733l-1.6,5.426a7.364,7.364,0,0,0,1.3,6.662l2.477,3.114a3.94,3.94,0,0,1-.378,5.288,7.316,7.316,0,0,0-2.1,7.159H60.753a5.167,5.167,0,0,0-5.161,5.161V99.786h-1.72a1.72,1.72,0,0,0,0,3.441h47.743a1.72,1.72,0,1,0,0-3.441Z" transform="translate(-0.187)"/>
      <path id="Trazado_891017" data-name="Trazado 891017" d="M310.153,375.468a1.721,1.721,0,0,0-2.432.074L304.28,379.2a1.721,1.721,0,0,0,0,2.359l3.441,3.656a1.721,1.721,0,0,0,2.506-2.359l-2.331-2.477,2.331-2.477A1.72,1.72,0,0,0,310.153,375.468Z" transform="translate(-238.516 -294.355)"/>
      <path id="Trazado_891018" data-name="Trazado 891018" d="M385.354,385.285a1.72,1.72,0,0,0,2.432-.074l3.441-3.656a1.721,1.721,0,0,0,0-2.359l-3.441-3.656a1.721,1.721,0,0,0-2.506,2.358l2.331,2.477-2.331,2.477A1.721,1.721,0,0,0,385.354,385.285Z" transform="translate(-302.097 -294.354)"/>
      <path id="Trazado_891019" data-name="Trazado 891019" d="M350.578,376.325l-1.72,7.312a1.72,1.72,0,0,0,3.349.788l1.72-7.312a1.72,1.72,0,0,0-3.349-.788Z" transform="translate(-273.838 -294.352)"/>
    </g>
  </g>
</svg>
