<svg xmlns="http://www.w3.org/2000/svg" width="83.07" height="83.07" viewBox="0 0 83.07 83.07">
  <g id="Programmer-Developer-Software-Development-Application" transform="translate(-2 -2)">
    <path id="Trazado_891205" data-name="Trazado 891205" d="M58.535,50.2v8.6A5.545,5.545,0,0,1,53,64.332a5.694,5.694,0,0,1-1.26-.152l-.125-.028V45.018a1.385,1.385,0,0,0-1.385-1.385H25.307a1.385,1.385,0,0,0-1.385,1.385V64.152l-.111.028a5.718,5.718,0,0,1-1.274.152A5.545,5.545,0,0,1,17,58.794V50.2a13.845,13.845,0,0,1,6.867-11.948l7.019-4.1H44.649l7.019,4.1A13.845,13.845,0,0,1,58.535,50.2Z" transform="translate(5.768 12.362)" fill="#5aaae7"/>
    <path id="Trazado_891206" data-name="Trazado 891206" d="M22.092,16.222a8.527,8.527,0,0,1-.831,2.008l1.62,2.7-1.952,1.952-2.7-1.62a8.527,8.527,0,0,1-2.008.831l-.761,3.06H12.692l-.761-3.06a8.527,8.527,0,0,1-2.008-.831l-2.7,1.62L5.271,20.929l1.62-2.7a8.527,8.527,0,0,1-.831-2.008L3,15.461V12.692l3.06-.761A8.527,8.527,0,0,1,6.89,9.923l-1.62-2.7L7.223,5.271l2.7,1.62A8.527,8.527,0,0,1,11.93,6.06L12.692,3h2.769l.761,3.06a8.527,8.527,0,0,1,2.008.831l2.7-1.62,1.952,1.952-1.62,2.7a8.527,8.527,0,0,1,.831,2.008l3.06.761v2.769Z" transform="translate(0.385 0.385)" fill="#ff9811"/>
    <circle id="Elipse_11925" data-name="Elipse 11925" cx="3" cy="3" r="3" transform="translate(71.07 39.071)" fill="#ff9811"/>
    <circle id="Elipse_11926" data-name="Elipse 11926" cx="3" cy="3" r="3" transform="translate(10.07 39.071)" fill="#ff9811"/>
    <circle id="Elipse_11927" data-name="Elipse 11927" cx="4.5" cy="4.5" r="4.5" transform="translate(10.07 10.071)" fill="#ee8700"/>
    <path id="Trazado_891207" data-name="Trazado 891207" d="M49.69,57v2.769a2.777,2.777,0,0,1-2.769,2.769H24.769A2.777,2.777,0,0,1,22,59.769V57Z" transform="translate(7.69 21.148)" fill="#c6c5ca"/>
    <path id="Trazado_891208" data-name="Trazado 891208" d="M37.307,29.48v4.873l-4.154,5.538L29,34.353V29.48l4.154.72a12.184,12.184,0,0,0,4.154-.72Z" transform="translate(10.382 10.566)" fill="#ffc477"/>
    <path id="Trazado_891209" data-name="Trazado 891209" d="M49.69,42.385V63.152H22V42.385A1.385,1.385,0,0,1,23.385,41H48.306A1.385,1.385,0,0,1,49.69,42.385Z" transform="translate(7.69 14.996)" fill="#e6e7e8"/>
    <path id="Trazado_891210" data-name="Trazado 891210" d="M36.154,33a3.139,3.139,0,0,1,3.018,3.987l-1.08,3.766a1.384,1.384,0,0,1-1.329,1.011,1.333,1.333,0,0,1-.831-.277L32,38.538Z" transform="translate(11.535 11.92)" fill="#1e81ce"/>
    <path id="Trazado_891211" data-name="Trazado 891211" d="M29.871,33l4.154,5.538-3.932,2.949a1.385,1.385,0,0,1-2.16-.734l-1.08-3.766A3.139,3.139,0,0,1,29.871,33Z" transform="translate(9.511 11.92)" fill="#1e81ce"/>
    <path id="Trazado_891212" data-name="Trazado 891212" d="M27.154,14.255v1.052A5.527,5.527,0,0,1,23,20.665V12.538A5.538,5.538,0,0,1,28.538,7H42.383a5.538,5.538,0,0,1,5.538,5.538v8.127a5.527,5.527,0,0,1-4.154-5.358V14.255a1.375,1.375,0,0,0-1.814-1.3,21.371,21.371,0,0,1-6.493.969,21.371,21.371,0,0,1-6.493-.969,1.375,1.375,0,0,0-1.814,1.3Z" transform="translate(8.075 1.923)" fill="#57565c"/>
    <path id="Trazado_891213" data-name="Trazado 891213" d="M41,23.923V17h2.077a3.461,3.461,0,0,1,0,6.923Z" transform="translate(14.996 5.768)" fill="#ffb655"/>
    <path id="Trazado_891214" data-name="Trazado 891214" d="M24.538,17v6.923H22.461a3.461,3.461,0,0,1,0-6.923Z" transform="translate(6.537 5.768)" fill="#ffb655"/>
    <path id="Trazado_891215" data-name="Trazado 891215" d="M37.307,29.48v4.154a12.342,12.342,0,0,1-8.307,0V29.48l4.154.72a12.184,12.184,0,0,0,4.154-.72Z" transform="translate(10.382 10.566)" fill="#ffb655"/>
    <path id="Trazado_891216" data-name="Trazado 891216" d="M43.768,13.674V12.621a1.375,1.375,0,0,0-1.814-1.3,21.371,21.371,0,0,1-6.493.969,21.371,21.371,0,0,1-6.493-.969,1.375,1.375,0,0,0-1.814,1.3v1.052A5.527,5.527,0,0,1,23,19.032v7.1a12.461,12.461,0,0,0,24.921,0v-7.1A5.527,5.527,0,0,1,43.768,13.674Z" transform="translate(8.075 3.556)" fill="#ffc477"/>
    <ellipse id="Elipse_11928" data-name="Elipse 11928" cx="2.5" cy="3" rx="2.5" ry="3" transform="translate(41.07 64.071)" fill="#d8d7da"/>
    <path id="Trazado_891217" data-name="Trazado 891217" d="M58.516,80.763a4.154,4.154,0,0,0,.249-1.385V76.541a6.923,6.923,0,0,0,6.923-6.923v-8.6a15.253,15.253,0,0,0-7.559-13.139l-6.743-3.946A.734.734,0,0,1,51.3,43.8a4.579,4.579,0,0,0-2.229-1.564v-1.4a13.878,13.878,0,0,0,8.238-11.3h.761a4.846,4.846,0,1,0,0-9.692H57.38V12.923A6.923,6.923,0,0,0,50.458,6H36.613a6.923,6.923,0,0,0-6.923,6.923v6.923H29a4.846,4.846,0,0,0,0,9.692h.761A13.878,13.878,0,0,0,38,40.834v1.4A4.579,4.579,0,0,0,35.768,43.8a.734.734,0,0,1-.083.138l-6.743,3.946A15.253,15.253,0,0,0,21.383,61.02v8.6a6.923,6.923,0,0,0,6.923,6.923v2.838a4.154,4.154,0,0,0,.249,1.385H2v2.769H85.07V80.763ZM57.38,22.614h.692a2.077,2.077,0,1,1,0,4.154H57.38ZM29.69,26.768H29a2.077,2.077,0,0,1,0-4.154h.692Zm19.4,18.691A1.7,1.7,0,0,1,49.364,47L48.3,50.761l-2.824-2.118L48.3,44.877A1.643,1.643,0,0,1,49.087,45.458Zm-2.451,7.518c.055.042.125.055.194.1H40.24c.069-.042.138-.055.194-.1l3.1-2.326Zm-5.87-10.052v-1.2a13.984,13.984,0,0,0,5.538,0v1.2l-2.769,3.683Zm-8.307-30a4.166,4.166,0,0,1,4.154-4.154H50.458a4.166,4.166,0,0,1,4.154,4.154v5.843a4.134,4.134,0,0,1-1.385-3.074V14.639a2.741,2.741,0,0,0-1.121-2.215,2.788,2.788,0,0,0-2.506-.4,21.273,21.273,0,0,1-12.128,0,2.788,2.788,0,0,0-2.506.4,2.741,2.741,0,0,0-1.121,2.215v1.052a4.134,4.134,0,0,1-1.385,3.074Zm0,15.23v-6.12a6.942,6.942,0,0,0,4.154-6.341l.014-1.038a23.776,23.776,0,0,0,13.831-.014v1.052a6.942,6.942,0,0,0,4.154,6.341v6.12a11.076,11.076,0,1,1-22.152,0Zm5.524,17.306a1.71,1.71,0,0,1,.789-.581L41.6,48.643l-2.824,2.118L37.693,47A1.787,1.787,0,0,1,37.983,45.458ZM28.306,55.842v9.692H25.537V68.3h2.769v5.469a4.166,4.166,0,0,1-4.154-4.154v-8.6a12.52,12.52,0,0,1,6.175-10.758l4.68-2.727c.014.069.014.152.028.222l1.08,3.766a2.757,2.757,0,0,0,1.149,1.551H31.075A2.777,2.777,0,0,0,28.306,55.842ZM56,79.379a1.385,1.385,0,0,1-1.385,1.385H32.459a1.385,1.385,0,0,1-1.385-1.385V77.994H56Zm0-4.154H31.075V55.842H56Zm0-22.152H49.807a2.711,2.711,0,0,0,1.149-1.551l1.08-3.766c.014-.069.014-.138.028-.222l4.68,2.727A12.52,12.52,0,0,1,62.918,61.02v8.6a4.166,4.166,0,0,1-4.154,4.154V68.3h2.769V65.534H58.765V55.842A2.777,2.777,0,0,0,56,53.073Z" transform="translate(0 1.538)"/>
    <path id="Trazado_891219" data-name="Trazado 891219" d="M33.154,54.307A4.154,4.154,0,1,0,29,50.154,4.154,4.154,0,0,0,33.154,54.307Zm0-5.538a1.385,1.385,0,1,1-1.385,1.385A1.385,1.385,0,0,1,33.154,48.769Z" transform="translate(10.382 16.918)"/>
    <path id="Trazado_891220" data-name="Trazado 891220" d="M3.048,17.188l2.309.579c.1.269.208.534.33.795L4.463,20.6a1.385,1.385,0,0,0,.208,1.69L6.628,24.25a1.385,1.385,0,0,0,1.692.209l2.039-1.224c.26.12.525.23.8.328l.577,2.308a1.385,1.385,0,0,0,1.343,1.049h2.769a1.385,1.385,0,0,0,1.343-1.049l.577-2.308c.277-.1.536-.208.8-.328L20.6,24.459a1.384,1.384,0,0,0,1.692-.209l1.958-1.959a1.385,1.385,0,0,0,.208-1.69l-1.224-2.039c.122-.26.231-.526.33-.795l2.309-.579a1.385,1.385,0,0,0,1.048-1.343V13.076a1.384,1.384,0,0,0-1.048-1.343l-2.309-.579q-.147-.406-.33-.795l1.224-2.041a1.385,1.385,0,0,0-.208-1.69L22.293,4.671A1.385,1.385,0,0,0,20.6,4.462L18.561,5.686c-.26-.12-.525-.23-.8-.328l-.577-2.308A1.385,1.385,0,0,0,15.845,2H13.076a1.385,1.385,0,0,0-1.343,1.049l-.577,2.308c-.277.1-.536.208-.8.328L8.32,4.462a1.385,1.385,0,0,0-1.692.209L4.671,6.628a1.385,1.385,0,0,0-.208,1.69L5.687,10.36q-.183.39-.33.795l-2.309.579A1.385,1.385,0,0,0,2,13.076v2.769a1.384,1.384,0,0,0,1.048,1.343Zm1.721-3.032,2.012-.5a1.385,1.385,0,0,0,1-.984,6.922,6.922,0,0,1,.692-1.661A1.385,1.385,0,0,0,8.463,9.6L7.4,7.822l.428-.429L9.6,8.459A1.385,1.385,0,0,0,11,8.47a6.9,6.9,0,0,1,1.661-.692,1.385,1.385,0,0,0,.983-1l.514-2.006h.606l.5,2.01a1.384,1.384,0,0,0,.983,1,6.9,6.9,0,0,1,1.661.692,1.385,1.385,0,0,0,1.407-.011L21.106,7.4l.428.429L20.469,9.605A1.385,1.385,0,0,0,20.451,11a6.923,6.923,0,0,1,.692,1.661,1.384,1.384,0,0,0,1,.984l2.008.511v.609l-2.012.5a1.385,1.385,0,0,0-1,.984,6.923,6.923,0,0,1-.692,1.661,1.385,1.385,0,0,0,.011,1.407l1.063,1.786-.429.428-1.775-1.065a1.393,1.393,0,0,0-1.407-.011,6.9,6.9,0,0,1-1.661.692,1.385,1.385,0,0,0-.983,1l-.5,2h-.606l-.5-2.01a1.385,1.385,0,0,0-.983-1,6.9,6.9,0,0,1-1.661-.692,1.385,1.385,0,0,0-1.407.011L7.823,21.522,7.4,21.106,8.464,19.33a1.385,1.385,0,0,0,.006-1.408,6.923,6.923,0,0,1-.692-1.661,1.385,1.385,0,0,0-1-.984l-2.008-.511Z" transform="translate(0 0)"/>
    <path id="Trazado_891221" data-name="Trazado 891221" d="M12.538,18.076A5.538,5.538,0,1,0,7,12.538,5.538,5.538,0,0,0,12.538,18.076Zm0-8.307a2.769,2.769,0,1,1-2.769,2.769A2.769,2.769,0,0,1,12.538,9.769Z" transform="translate(1.923 1.923)"/>
    <path id="Trazado_891222" data-name="Trazado 891222" d="M50.559,17.558,52.517,15.6l-3.175-3.175,3.175-3.175L50.559,7.293l-4.154,4.154a1.385,1.385,0,0,0,0,1.958Z" transform="translate(16.918 2.035)"/>
    <path id="Trazado_891223" data-name="Trazado 891223" d="M59.251,17.558,63.4,13.4a1.385,1.385,0,0,0,0-1.958L59.251,7.293,57.293,9.251l3.175,3.175L57.293,15.6Z" transform="translate(21.26 2.035)"/>
    <rect id="Rectángulo_405613" data-name="Rectángulo 405613" width="11.417" height="2.768" transform="matrix(0.242, -0.97, 0.97, 0.242, 71.268, 19.663)"/>
    <path id="Trazado_891224" data-name="Trazado 891224" d="M46,33.076v2.769h7.177a4.144,4.144,0,1,0,5.283-5.283V22H55.692v8.562a4.154,4.154,0,0,0-2.514,2.514Zm11.076,0a1.385,1.385,0,1,1-1.384,1.385A1.385,1.385,0,0,1,57.076,33.076Z" transform="translate(16.918 7.69)"/>
    <path id="Trazado_891225" data-name="Trazado 891225" d="M9.769,22v8.562a4.144,4.144,0,1,0,5.283,5.283H22.23V33.076H15.053a4.154,4.154,0,0,0-2.514-2.514V22Zm1.385,13.845a1.385,1.385,0,1,1,1.385-1.385A1.385,1.385,0,0,1,11.154,35.845Z" transform="translate(1.922 7.69)"/>
  </g>
</svg>
