<svg xmlns="http://www.w3.org/2000/svg" width="84.872" height="84.872" viewBox="0 0 84.872 84.872">
  <g id="Grupo_1103017" data-name="Grupo 1103017" transform="translate(-757.564 -6155.293)">
    <path id="Trazado_879587" data-name="Trazado 879587" d="M42.436,0A42.436,42.436,0,1,1,0,42.436,42.436,42.436,0,0,1,42.436,0Z" transform="translate(757.564 6155.293)" fill="#f0c52c"/>
    <g id="complain_2016314" transform="translate(774.564 6170.636)">
      <g id="Grupo_1103042" data-name="Grupo 1103042" transform="translate(1.159 17.312)">
        <ellipse id="Elipse_11721" data-name="Elipse 11721" cx="2.743" cy="3.512" rx="2.743" ry="3.512" transform="translate(26.337)" fill="#e8916f"/>
        <ellipse id="Elipse_11722" data-name="Elipse 11722" cx="2.743" cy="3.512" rx="2.743" ry="3.512" fill="#e8916f"/>
        <path id="Trazado_885181" data-name="Trazado 885181" d="M127.5,296.546h6.584V307.52H127.5Z" transform="translate(-114.667 -281.316)" fill="#e8916f"/>
      </g>
      <path id="Trazado_885182" data-name="Trazado 885182" d="M49.5,42.98v-8.8A11.178,11.178,0,0,1,60.678,23h1.348A11.178,11.178,0,0,1,73.2,34.178v8.8A11.844,11.844,0,0,1,61.36,54.824h-.015A11.844,11.844,0,0,1,49.5,42.98Z" transform="translate(-44.068 -20.476)" fill="#ebad88"/>
      <path id="Trazado_885183" data-name="Trazado 885183" d="M144.82,23h-1.348c-.328,0-.652.015-.972.042a11.178,11.178,0,0,1,10.206,11.135v8.8A11.846,11.846,0,0,1,142.5,54.711a11.934,11.934,0,0,0,1.638.113h.015A11.844,11.844,0,0,0,156,42.98v-8.8A11.178,11.178,0,0,0,144.82,23Z" transform="translate(-126.862 -20.476)" fill="#e8916f"/>
      <path id="Trazado_885184" data-name="Trazado 885184" d="M17.6,354.5h12.73a10.1,10.1,0,0,1,10.1,10.1V370.3a.658.658,0,0,1-.658.658H8.158A.658.658,0,0,1,7.5,370.3V364.6A10.1,10.1,0,0,1,17.6,354.5Z" transform="translate(-6.677 -315.597)" fill="#26c6da"/>
      <path id="Trazado_885185" data-name="Trazado 885185" d="M188.792,354.5H185.5a10.1,10.1,0,0,1,10.1,10.1v6.365h2.634a.658.658,0,0,0,.658-.658V364.6A10.1,10.1,0,0,0,188.792,354.5Z" transform="translate(-165.143 -315.597)" fill="#00bcd4"/>
      <path id="Trazado_885186" data-name="Trazado 885186" d="M108.455,336.565l-2.133,1.777a.22.22,0,0,0-.023.316l3.049,3.38a.219.219,0,0,0,.35-.032l2.17-3.518-3.158-1.941A.22.22,0,0,0,108.455,336.565Z" transform="translate(-94.584 -299.585)" fill="#fbf2df"/>
      <path id="Trazado_885187" data-name="Trazado 885187" d="M160.913,336.565l2.133,1.777a.22.22,0,0,1,.022.316l-3.049,3.38a.219.219,0,0,1-.35-.032l-2.17-3.518,3.158-1.941A.22.22,0,0,1,160.913,336.565Z" transform="translate(-140.216 -299.585)" fill="#fbf2df"/>
      <path id="Trazado_885188" data-name="Trazado 885188" d="M49.379,14.381a.65.65,0,0,0-1.075.365c-.333,1.72-1.926,4.6-9.006,3.569-4.305-.629-8.359,3.886-8.359,7.376a2.923,2.923,0,0,0-1.529-1.7,21.065,21.065,0,0,1-.443-8.874c.84-3.787,5.815-7.615,13.381-7.615,3.941,0,5.575.974,6.19,1.538a1.57,1.57,0,0,0,.938.415c1.626.124,6.028.883,6.979,5.444.788,3.777-.388,5.987-.708,9.093a4.257,4.257,0,0,0-1.1,1.7,29.389,29.389,0,0,1-2.587-6.982,8.08,8.08,0,0,0-2.677-4.328Z" transform="translate(-25.507 -6.677)" fill="#7d4d3d"/>
      <path id="Trazado_885189" data-name="Trazado 885189" d="M154.287,14.9c-.951-4.56-5.354-5.319-6.979-5.444a1.569,1.569,0,0,1-.938-.415c-.616-.564-2.25-1.538-6.19-1.538-.561,0-1.106.023-1.637.064,2.763.225,4.014,1,4.536,1.474a1.57,1.57,0,0,0,.938.415c1.626.124,6.028.883,6.979,5.444a14.739,14.739,0,0,1-.311,6.694,37.027,37.027,0,0,0,1.79,4.1,4.259,4.259,0,0,1,1.1-1.7C153.9,20.883,155.075,18.674,154.287,14.9Z" transform="translate(-123.338 -6.677)" fill="#704537"/>
      <path id="Trazado_885190" data-name="Trazado 885190" d="M308.643,9.254v31.17a1.753,1.753,0,0,1-1.753,1.754H291.984a1.753,1.753,0,0,1-1.753-1.754V37.29a.37.37,0,0,0-.419-.367l-5.1.675a.189.189,0,0,1-.151-.328L289.99,32.4a.729.729,0,0,0,.242-.542V9.254A1.753,1.753,0,0,1,291.984,7.5H306.89a1.753,1.753,0,0,1,1.753,1.754Z" transform="translate(-253.28 -6.677)" fill="#fbf2df"/>
      <path id="Trazado_885191" data-name="Trazado 885191" d="M461.817,7.5h-3.292a1.753,1.753,0,0,1,1.753,1.754v31.17a1.753,1.753,0,0,1-1.753,1.754h3.292a1.753,1.753,0,0,0,1.753-1.754V9.254A1.753,1.753,0,0,0,461.817,7.5Z" transform="translate(-408.207 -6.677)" fill="#f2e5ce"/>
      <path id="Trazado_885192" data-name="Trazado 885192" d="M378.18,171.535h-8.509A1.671,1.671,0,0,1,368,169.863V159.671A1.671,1.671,0,0,1,369.671,158h8.509a1.671,1.671,0,0,1,1.671,1.671v10.192A1.671,1.671,0,0,1,378.18,171.535Z" transform="translate(-327.616 -140.661)" fill="#e7387f"/>
      <circle id="Elipse_11723" data-name="Elipse 11723" cx="1.756" cy="1.756" r="1.756" transform="translate(15.528 46.402)" fill="#fbf2df"/>
      <path id="Trazado_885193" data-name="Trazado 885193" d="M23.649,38.08H23.3l-1.9-1.586V34.488a12.714,12.714,0,0,0,8.291-9.381,2.978,2.978,0,0,0,.55.051c1.967,0,3.567-1.945,3.567-4.335a4.285,4.285,0,0,0-2.65-4.189c.1-.649.228-1.272.355-1.88a14.94,14.94,0,0,0,.243-6.7,7.116,7.116,0,0,0-3.649-4.94,10.443,10.443,0,0,0-4.074-1.156.752.752,0,0,1-.445-.2C22.713.954,20.834,0,16.841,0,8.731,0,3.567,4.155,2.656,8.26a20.8,20.8,0,0,0,.24,8.4,4.314,4.314,0,0,0-2.56,4.159c0,2.39,1.6,4.335,3.567,4.335A3.015,3.015,0,0,0,4.857,25a12.713,12.713,0,0,0,8.312,9.484v2.005l-1.9,1.586h-.346A10.931,10.931,0,0,0,0,49v5.706a1.483,1.483,0,0,0,1.481,1.481h31.6a1.483,1.483,0,0,0,1.481-1.481V49A10.931,10.931,0,0,0,23.649,38.08ZM20.5,37.89l1.317,1.1L19.732,41.3l-1.314-2.131ZM32.16,20.824c0,1.457-.879,2.689-1.92,2.689a1.356,1.356,0,0,1-.318-.038q.037-.48.037-.971v-3.34a3.949,3.949,0,0,1,.572-1A2.612,2.612,0,0,1,32.16,20.824ZM4.263,8.617c1-4.528,7.23-6.971,12.578-6.971,3.783,0,5.2.924,5.634,1.322a2.4,2.4,0,0,0,1.431.629c1.6.122,5.411.833,6.236,4.791a13.4,13.4,0,0,1-.243,6.032c-.164.788-.333,1.6-.442,2.487a3.486,3.486,0,0,0-.275.313A23.657,23.657,0,0,1,27.361,11.9a8.814,8.814,0,0,0-2.935-4.8,1.474,1.474,0,0,0-2.437.818c-.5,2.565-3.366,3.6-8.079,2.911a7.659,7.659,0,0,0-6.1,2.019A9.627,9.627,0,0,0,4.951,17a4.033,4.033,0,0,0-.34-.235,19.883,19.883,0,0,1-.348-8.15ZM3.9,23.513c-1.041,0-1.92-1.231-1.92-2.689a2.548,2.548,0,0,1,1.734-2.675,2.157,2.157,0,0,1,.893,1V22.5q0,.4.025.8a1.431,1.431,0,0,1-.732.209Zm2.41.121c0-.018,0-.036-.005-.053q-.052-.531-.052-1.076v-3.49a7.1,7.1,0,0,1,2.628-4.927,6.048,6.048,0,0,1,4.789-1.635c3.3.481,5.848.191,7.58-.863A4.94,4.94,0,0,0,23.54,8.52a7.12,7.12,0,0,1,2.2,3.645,28.984,28.984,0,0,0,2.576,7.048V22.5a11.085,11.085,0,0,1-.085,1.372v.01a11.038,11.038,0,0,1-10.935,9.639h-.015A11.037,11.037,0,0,1,6.313,23.634ZM17.276,35.171h.015a12.681,12.681,0,0,0,2.461-.24v1.487l-2.469,1.518-2.469-1.518V34.931A12.681,12.681,0,0,0,17.276,35.171ZM14.064,37.89l2.086,1.283L14.836,41.3l-2.089-2.316ZM32.922,54.54H1.646V49a9.283,9.283,0,0,1,9.273-9.273H11.2L14.153,43a1.043,1.043,0,0,0,1.661-.151l1.469-2.382,1.469,2.382A1.043,1.043,0,0,0,20.415,43l2.956-3.278h.278A9.283,9.283,0,0,1,32.922,49Z" transform="translate(0 0)"/>
      <path id="Trazado_885194" data-name="Trazado 885194" d="M300.2,0H285.293a2.579,2.579,0,0,0-2.576,2.577v22.56l-5.395,4.845a1.012,1.012,0,0,0,.809,1.756l4.585-.608v2.617a2.579,2.579,0,0,0,2.576,2.577H300.2a2.579,2.579,0,0,0,2.576-2.577V2.577A2.579,2.579,0,0,0,300.2,0Zm.93,33.747a.931.931,0,0,1-.93.931H285.293a.931.931,0,0,1-.93-.931V30.613a1.193,1.193,0,0,0-1.35-1.183l-3.065.406,3.9-3.5a1.554,1.554,0,0,0,.515-1.154V2.577a.931.931,0,0,1,.93-.931H300.2a.931.931,0,0,1,.93.931v31.17Z" transform="translate(-246.588)"/>
      <path id="Trazado_885195" data-name="Trazado 885195" d="M398.8,46.543h6.9a.823.823,0,0,0,0-1.646h-6.9a.823.823,0,0,0,0,1.646Z" transform="translate(-354.305 -39.97)"/>
      <path id="Trazado_885196" data-name="Trazado 885196" d="M371.656,81.543h9.877a.823.823,0,1,0,0-1.646h-9.877a.823.823,0,1,0,0,1.646Z" transform="translate(-330.138 -71.129)"/>
      <path id="Trazado_885197" data-name="Trazado 885197" d="M371.656,116.543h9.877a.823.823,0,1,0,0-1.646h-9.877a.823.823,0,1,0,0,1.646Z" transform="translate(-330.138 -102.288)"/>
      <path id="Trazado_885198" data-name="Trazado 885198" d="M371.5,150.5h-8.509a2.5,2.5,0,0,0-2.494,2.494v10.192a2.5,2.5,0,0,0,2.494,2.494H371.5A2.5,2.5,0,0,0,374,163.187V152.994A2.5,2.5,0,0,0,371.5,150.5Zm.848,12.687a.849.849,0,0,1-.848.848h-8.509a.849.849,0,0,1-.848-.848V152.994a.849.849,0,0,1,.848-.848H371.5a.849.849,0,0,1,.848.848v10.192Z" transform="translate(-320.939 -133.984)"/>
      <path id="Trazado_885199" data-name="Trazado 885199" d="M415.323,176.013a.823.823,0,0,0-.823.823v4.592a.823.823,0,1,0,1.646,0v-4.592A.823.823,0,0,0,415.323,176.013Z" transform="translate(-369.013 -156.697)"/>
      <path id="Trazado_885200" data-name="Trazado 885200" d="M415.323,239.192a.823.823,0,0,0-.823.823v.473a.823.823,0,1,0,1.646,0v-.473A.823.823,0,0,0,415.323,239.192Z" transform="translate(-369.013 -212.943)"/>
      <path id="Trazado_885201" data-name="Trazado 885201" d="M136.579,415.342a2.579,2.579,0,1,0,2.579,2.579A2.582,2.582,0,0,0,136.579,415.342Zm0,3.512a.933.933,0,1,1,.933-.933A.934.934,0,0,1,136.579,418.854Z" transform="translate(-119.295 -369.763)"/>
    </g>
  </g>
</svg>
