<svg xmlns="http://www.w3.org/2000/svg" width="84.872" height="84.872" viewBox="0 0 84.872 84.872">
  <g id="Grupo_1103018" data-name="Grupo 1103018" transform="translate(-1177.564 -6155.293)">
    <path id="Trazado_879588" data-name="Trazado 879588" d="M42.436,0A42.436,42.436,0,1,1,0,42.436,42.436,42.436,0,0,1,42.436,0Z" transform="translate(1177.564 6155.293)" fill="#f0c52c"/>
    <g id="research-development_8107559" transform="translate(1193.61 6171.339)">
      <path id="Trazado_879680" data-name="Trazado 879680" d="M7.5,7.5H47.239V58.735H7.5Z" transform="translate(-6.727 -6.729)" fill="#fef1da"/>
      <path id="Trazado_879681" data-name="Trazado 879681" d="M155.344,7.5V20.893a18.933,18.933,0,1,0,0,36.7v1.143h3.329V7.5Z" transform="translate(-118.161 -6.729)" fill="#fae2c0"/>
      <g id="Grupo_1102102" data-name="Grupo 1102102" transform="translate(5.558 4.986)">
        <g id="Grupo_1102101" data-name="Grupo 1102101" transform="translate(0)">
          <path id="Trazado_879682" data-name="Trazado 879682" d="M0,0H16.644V5.2H0Z" transform="translate(13.524 12.483) rotate(90)" fill="#fe73c5"/>
          <path id="Trazado_879683" data-name="Trazado 879683" d="M134.651,196.06v4.967h5.2V186.1A18.907,18.907,0,0,0,134.651,196.06Z" transform="translate(-126.329 -171.898)" fill="#fe4fb7"/>
          <path id="Trazado_879684" data-name="Trazado 879684" d="M0,0H29.128V5.2H0Z" transform="translate(30.168) rotate(90)" fill="#6cf5c2"/>
          <path id="Trazado_879685" data-name="Trazado 879685" d="M301.315,132.016a18.989,18.989,0,0,0-5.2-.17v20.429h5.2V132.016Z" transform="translate(-271.147 -123.148)" fill="#00f2a6"/>
          <path id="Trazado_879686" data-name="Trazado 879686" d="M0,0H22.886V5.2H0Z" transform="translate(21.846 6.242) rotate(90)" fill="#ffd15b"/>
          <path id="Trazado_879687" data-name="Trazado 879687" d="M215.382,140.9v17.472h5.2V138.543A18.848,18.848,0,0,0,215.382,140.9Z" transform="translate(-198.738 -129.247)" fill="#ffc344"/>
          <path id="Trazado_879688" data-name="Trazado 879688" d="M0,0H10.4V5.2H0Z" transform="translate(5.201 18.725) rotate(90)" fill="#62dbfb"/>
        </g>
      </g>
      <g id="Grupo_1102103" data-name="Grupo 1102103" transform="translate(16.91 16.91)">
        <path id="Trazado_879689" data-name="Trazado 879689" d="M386.209,381.354l-4.855,4.855a1.248,1.248,0,0,1-1.765,0l-3.531-3.531,6.62-6.62,3.531,3.531A1.248,1.248,0,0,1,386.209,381.354Z" transform="translate(-354.201 -354.201)" fill="#0067c5"/>
        <path id="Trazado_879690" data-name="Trazado 879690" d="M437.3,432.885V437.3h-4.414l-3.31-3.31,4.414-4.414Z" transform="translate(-402.201 -402.201)" fill="#8d9ca8"/>
        <path id="Trazado_879691" data-name="Trazado 879691" d="M0,0H6.242V3.121H0Z" transform="translate(27.364 31.787) rotate(-45)" fill="#7a8c98"/>
        <path id="Trazado_879692" data-name="Trazado 879692" d="M378.86,385.48a18.123,18.123,0,0,0,6.62-6.62l-2.8-2.8-6.62,6.62Z" transform="translate(-354.201 -354.201)" fill="#0055a3"/>
        <circle id="Elipse_11673" data-name="Elipse 11673" cx="15.604" cy="15.604" r="15.604" fill="#528fd8"/>
        <path id="Trazado_879693" data-name="Trazado 879693" d="M216.151,194.3A15.6,15.6,0,0,1,194.3,216.151,15.6,15.6,0,1,0,216.151,194.3Z" transform="translate(-191.184 -191.184)" fill="#0573ce"/>
        <circle id="Elipse_11674" data-name="Elipse 11674" cx="12.483" cy="12.483" r="12.483" transform="translate(3.121 3.121)" fill="#62dbfb"/>
        <path id="Trazado_879694" data-name="Trazado 879694" d="M237,219.5A12.476,12.476,0,0,1,219.5,237,12.478,12.478,0,1,0,237,219.5Z" transform="translate(-213.78 -213.78)" fill="#01d0fb"/>
        <path id="Trazado_879695" data-name="Trazado 879695" d="M248.113,240.832v-2.913l-2.456-.409a6.508,6.508,0,0,0-.52-1.259l1.446-2.025-2.06-2.06-2.025,1.446a6.52,6.52,0,0,0-1.259-.52l-.409-2.456h-2.913l-.409,2.456a6.51,6.51,0,0,0-1.259.52l-2.025-1.446-2.06,2.06,1.446,2.025a6.515,6.515,0,0,0-.52,1.259l-2.456.409v2.913l2.456.409a6.506,6.506,0,0,0,.52,1.259l-1.446,2.025,2.06,2.06,2.025-1.446a6.519,6.519,0,0,0,1.259.52l.409,2.456h2.913l.409-2.456a6.508,6.508,0,0,0,1.259-.52l2.025,1.446,2.06-2.06-1.446-2.025a6.51,6.51,0,0,0,.52-1.259Zm-8.738.728a2.185,2.185,0,1,1,2.185-2.185A2.185,2.185,0,0,1,239.375,241.56Z" transform="translate(-223.77 -223.771)" fill="#8d9ca8"/>
        <path id="Trazado_879696" data-name="Trazado 879696" d="M261.422,254.14v-2.913l-2.456-.409a6.509,6.509,0,0,0-.52-1.259l1.446-2.025-2.06-2.06-.4.286a9.143,9.143,0,0,1-11.67,11.67l-.286.4,2.06,2.06,2.025-1.446a6.519,6.519,0,0,0,1.259.52l.409,2.456h2.913l.409-2.456a6.508,6.508,0,0,0,1.259-.52l2.025,1.446,2.06-2.06-1.446-2.025a6.511,6.511,0,0,0,.52-1.259Z" transform="translate(-237.08 -237.08)" fill="#7a8c98"/>
      </g>
      <g id="Grupo_1102104" data-name="Grupo 1102104" transform="translate(0 0)">
        <path id="Trazado_879697" data-name="Trazado 879697" d="M.773,34.663a.773.773,0,0,0,.773-.773V1.546H39.739V6.3a.773.773,0,1,0,1.546,0V.773A.773.773,0,0,0,40.512,0H.773A.773.773,0,0,0,0,.773V33.89A.773.773,0,0,0,.773,34.663Z" transform="translate(0 0)"/>
        <path id="Trazado_879698" data-name="Trazado 879698" d="M52.554,83.706l-2.8-2.8a2.024,2.024,0,0,0-.287-2.494L47.3,76.242a16.316,16.316,0,0,0,1.487-5.18.773.773,0,0,0-1.536-.176,14.831,14.831,0,1,1,0-3.425.773.773,0,1,0,1.536-.176,16.33,16.33,0,0,0-7.5-11.947V46.571a.773.773,0,0,0-1.546,0v7.9A16.313,16.313,0,0,0,36.5,53.285V41.646a.773.773,0,0,0-.773-.773h-5.2a.773.773,0,0,0-.773.773V53.03q-.8.137-1.574.35V47.888a.773.773,0,0,0-.773-.773H22.2a.773.773,0,0,0-.773.773v9.24a16.527,16.527,0,0,0-1.574,1.665V54.129a.773.773,0,0,0-.773-.773h-5.2a.773.773,0,0,0-.773.773V70H11.533v-9.63a.773.773,0,0,0-.773-.773h-5.2a.773.773,0,0,0-.773.773V70H3.894a.773.773,0,1,0,0,1.546H16.309A16.388,16.388,0,0,0,39.58,83.953l.159.159v3.781H1.546V74.157a.773.773,0,1,0-1.546,0V88.666a.773.773,0,0,0,.773.773H40.512a.773.773,0,0,0,.773-.773V85.658l.466.466a2.02,2.02,0,0,0,2.494.287l2.8,2.8A.773.773,0,0,0,48.14,88.12l-2.764-2.763,3.32-3.32L51.46,84.8a.773.773,0,0,0,1.093-1.093ZM31.3,42.419h3.655V52.978a16.509,16.509,0,0,0-2.44-.182q-.613,0-1.215.045Zm-8.322,6.242h3.655v5.228a16.358,16.358,0,0,0-3.655,1.979ZM6.332,70V61.144H9.987V70Zm8.322,0V54.9h3.655v6.126a16.278,16.278,0,0,0-2.173,8.146q0,.416.021.827h-1.5ZM43.18,85.17a.472.472,0,0,1-.336-.139L41,83.186a16.4,16.4,0,0,0,5.529-5.524L48.371,79.5a.476.476,0,0,1,0,.672l-4.634,4.634h0l-.221.221a.471.471,0,0,1-.336.139Z" transform="translate(0 -36.66)"/>
        <path id="Trazado_879699" data-name="Trazado 879699" d="M289.671,286.713a2.958,2.958,0,1,0,2.958,2.958A2.961,2.961,0,0,0,289.671,286.713Zm0,4.369a1.411,1.411,0,1,1,1.411-1.411A1.413,1.413,0,0,1,289.671,291.082Z" transform="translate(-257.157 -257.157)"/>
        <path id="Trazado_879700" data-name="Trazado 879700" d="M239.307,229.6l1.176-1.647a.773.773,0,0,0-.082-1l-2.06-2.06a.773.773,0,0,0-1-.082l-1.647,1.176q-.246-.112-.5-.207l-.333-2a.773.773,0,0,0-.763-.646h-2.913a.773.773,0,0,0-.763.646l-.333,2q-.255.094-.5.207l-1.647-1.176a.773.773,0,0,0-1,.082l-2.06,2.06a.773.773,0,0,0-.082,1l1.176,1.647q-.112.246-.207.5l-2,.333a.773.773,0,0,0-.646.763v2.913a.773.773,0,0,0,.646.763l2,.333q.094.255.207.5l-1.176,1.647a.773.773,0,0,0,.082,1l2.06,2.06a.773.773,0,0,0,1,.082l1.647-1.176q.246.112.5.207l.333,2a.773.773,0,0,0,.763.646H234.1a.773.773,0,0,0,.763-.646l.333-2q.255-.095.5-.207l1.647,1.176a.773.773,0,0,0,1-.082l2.06-2.06a.773.773,0,0,0,.082-1l-1.176-1.647q.112-.246.207-.5l2-.333a.773.773,0,0,0,.646-.763v-2.913a.773.773,0,0,0-.646-.763l-2-.333Q239.42,229.841,239.307,229.6Zm1.3,3.854-1.81.3a.773.773,0,0,0-.614.543,5.752,5.752,0,0,1-.458,1.109.773.773,0,0,0,.05.818l1.066,1.492-1.133,1.133-1.492-1.066a.773.773,0,0,0-.818-.05,5.757,5.757,0,0,1-1.109.458.773.773,0,0,0-.543.614l-.3,1.81h-1.6l-.3-1.81a.773.773,0,0,0-.543-.614,5.759,5.759,0,0,1-1.109-.458.773.773,0,0,0-.818.05l-1.492,1.066-1.133-1.133,1.066-1.492a.773.773,0,0,0,.05-.819,5.754,5.754,0,0,1-.458-1.109.773.773,0,0,0-.614-.543l-1.81-.3v-1.6l1.81-.3A.773.773,0,0,0,227.1,231a5.748,5.748,0,0,1,.458-1.109.773.773,0,0,0-.05-.819l-1.066-1.492,1.133-1.133,1.492,1.066a.773.773,0,0,0,.819.05,5.756,5.756,0,0,1,1.109-.458.773.773,0,0,0,.543-.614l.3-1.81h1.6l.3,1.81a.773.773,0,0,0,.543.614,5.758,5.758,0,0,1,1.109.458.773.773,0,0,0,.819-.05l1.492-1.066,1.133,1.133-1.066,1.492a.773.773,0,0,0-.05.819,5.744,5.744,0,0,1,.458,1.109.773.773,0,0,0,.614.543l1.81.3v1.6Z" transform="translate(-200.132 -200.135)"/>
        <path id="Trazado_879701" data-name="Trazado 879701" d="M200.065,186.808a13.256,13.256,0,1,0,13.256,13.257A13.272,13.272,0,0,0,200.065,186.808Zm0,24.967a11.71,11.71,0,1,1,11.71-11.71A11.724,11.724,0,0,1,200.065,211.775Z" transform="translate(-167.551 -167.551)"/>
        <path id="Trazado_879702" data-name="Trazado 879702" d="M47.193,42.416H49.22a.773.773,0,0,0,0-1.546H47.193a.773.773,0,0,0,0,1.546Z" transform="translate(-41.635 -36.657)"/>
        <path id="Trazado_879703" data-name="Trazado 879703" d="M102.07,42.416a.773.773,0,0,0,0-1.546H97.126a.773.773,0,0,0,0,1.546Z" transform="translate(-86.42 -36.657)"/>
        <path id="Trazado_879704" data-name="Trazado 879704" d="M55.976,71.917a.773.773,0,0,0-.773-.773h-8.01a.773.773,0,0,0,0,1.546H55.2A.773.773,0,0,0,55.976,71.917Z" transform="translate(-41.635 -63.81)"/>
        <path id="Trazado_879705" data-name="Trazado 879705" d="M157.252,71.144h-2.081a.773.773,0,0,0,0,1.546h2.081a.773.773,0,0,0,0-1.546Z" transform="translate(-138.482 -63.81)"/>
        <path id="Trazado_879706" data-name="Trazado 879706" d="M47.193,101.418a.773.773,0,1,0,0,1.546H50.78a.773.773,0,1,0,0-1.546Z" transform="translate(-41.635 -90.963)"/>
        <path id="Trazado_879707" data-name="Trazado 879707" d="M112.262,102.964h6.5a.773.773,0,1,0,0-1.546h-6.5a.773.773,0,1,0,0,1.546Z" transform="translate(-99.996 -90.963)"/>
        <path id="Trazado_879708" data-name="Trazado 879708" d="M47.193,407.724H49.22a.773.773,0,0,0,0-1.546H47.193a.773.773,0,0,0,0,1.546Z" transform="translate(-41.635 -364.307)"/>
        <path id="Trazado_879709" data-name="Trazado 879709" d="M101.028,406.178h-3.9a.773.773,0,0,0,0,1.546h3.9a.773.773,0,1,0,0-1.546Z" transform="translate(-86.419 -364.307)"/>
        <path id="Trazado_879710" data-name="Trazado 879710" d="M47.193,438h6.97a.773.773,0,1,0,0-1.546h-6.97a.773.773,0,1,0,0,1.546Z" transform="translate(-41.635 -391.46)"/>
        <path id="Trazado_879711" data-name="Trazado 879711" d="M147.16,436.452h-2.081a.773.773,0,1,0,0,1.546h2.081a.773.773,0,1,0,0-1.546Z" transform="translate(-129.43 -391.46)"/>
        <path id="Trazado_879712" data-name="Trazado 879712" d="M47.193,468.272H50.78a.773.773,0,1,0,0-1.546H47.193a.773.773,0,1,0,0,1.546Z" transform="translate(-41.635 -418.613)"/>
        <path id="Trazado_879713" data-name="Trazado 879713" d="M117.726,466.726h-5.464a.773.773,0,1,0,0,1.546h5.464a.773.773,0,1,0,0-1.546Z" transform="translate(-99.996 -418.613)"/>
      </g>
    </g>
  </g>
</svg>
