<svg xmlns="http://www.w3.org/2000/svg" width="328.787" height="728.35" viewBox="0 0 328.787 728.35">
  <g id="Grupo_1105362" data-name="Grupo 1105362" transform="translate(-373.928 -9157.5)">
    <path id="Unión_24" data-name="Unión 24" d="M-1516,11744.6h6.264V11712h4.474v32.6H-1499l-8.5,7.2Z" transform="translate(2045 -2252.41)" fill="#3a1d71"/>
    <path id="Trazado_890891" data-name="Trazado 890891" d="M1873.729-10913.992h98.864l22.125-49.853H1892.774l-23.246,49.853Z" transform="translate(-1394.527 20382.582)" fill="#f0c518"/>
    <path id="Trazado_891285" data-name="Trazado 891285" d="M2.461-8.453l.047,1.063A3.08,3.08,0,0,1,5.039-8.609q2.68,0,2.7,3.023V0H6.3V-5.594a1.946,1.946,0,0,0-.418-1.352A1.675,1.675,0,0,0,4.6-7.383a2.086,2.086,0,0,0-1.234.375,2.546,2.546,0,0,0-.828.984V0H1.094V-8.453ZM15.141-.836a3.07,3.07,0,0,1-2.477.992,2.628,2.628,0,0,1-2.059-.785,3.4,3.4,0,0,1-.715-2.324v-5.5h1.445v5.461q0,1.922,1.563,1.922A2.163,2.163,0,0,0,15.1-2.3V-8.453h1.445V0H15.172ZM20.1-8.453l.039.938a3.122,3.122,0,0,1,2.508-1.094A2.417,2.417,0,0,1,25.063-7.25a3.2,3.2,0,0,1,1.1-.984,3.242,3.242,0,0,1,1.6-.375q2.781,0,2.828,2.945V0H29.141V-5.578a1.941,1.941,0,0,0-.414-1.355,1.823,1.823,0,0,0-1.391-.449A1.916,1.916,0,0,0,26-6.9a1.949,1.949,0,0,0-.617,1.293V0H23.93V-5.539a1.613,1.613,0,0,0-1.8-1.844A1.934,1.934,0,0,0,20.18-6.172V0H18.734V-8.453ZM36.273.156a3.693,3.693,0,0,1-2.8-1.129A4.19,4.19,0,0,1,32.4-3.992v-.266a5.073,5.073,0,0,1,.48-2.246,3.748,3.748,0,0,1,1.344-1.547,3.378,3.378,0,0,1,1.871-.559,3.166,3.166,0,0,1,2.563,1.086,4.7,4.7,0,0,1,.914,3.109v.6H33.844a3,3,0,0,0,.73,2.02,2.3,2.3,0,0,0,1.777.77,2.517,2.517,0,0,0,1.3-.312,3.259,3.259,0,0,0,.93-.828l.883.688A3.55,3.55,0,0,1,36.273.156Zm-.18-7.578a1.928,1.928,0,0,0-1.469.637A3.1,3.1,0,0,0,33.891-5h4.234v-.109a2.753,2.753,0,0,0-.594-1.707A1.815,1.815,0,0,0,36.094-7.422Zm9.234.266a4.331,4.331,0,0,0-.711-.055A1.9,1.9,0,0,0,42.688-6V0H41.242V-8.453h1.406l.023.977a2.251,2.251,0,0,1,2.016-1.133,1.477,1.477,0,0,1,.641.109ZM46.117-4.3a4.993,4.993,0,0,1,.488-2.234A3.643,3.643,0,0,1,47.965-8.07a3.7,3.7,0,0,1,1.988-.539,3.565,3.565,0,0,1,2.793,1.2,4.6,4.6,0,0,1,1.066,3.18v.1a5.036,5.036,0,0,1-.473,2.215A3.589,3.589,0,0,1,51.988-.391a3.743,3.743,0,0,1-2.02.547,3.556,3.556,0,0,1-2.785-1.2A4.575,4.575,0,0,1,46.117-4.2Zm1.453.172a3.616,3.616,0,0,0,.652,2.258,2.088,2.088,0,0,0,1.746.852,2.075,2.075,0,0,0,1.75-.863A3.955,3.955,0,0,0,52.367-4.3a3.61,3.61,0,0,0-.66-2.254,2.1,2.1,0,0,0-1.754-.863,2.075,2.075,0,0,0-1.727.852A3.925,3.925,0,0,0,47.57-4.133Z" transform="translate(514.596 9450.581)" fill="#12263f"/>
    <path id="Unión_25" data-name="Unión 25" d="M-1516,11744.6h6.264V11712h4.474v32.6H-1499l-8.5,7.2Z" transform="translate(2045 -2321.5)" fill="#3a1d71"/>
    <path id="Trazado_890892" data-name="Trazado 890892" d="M2585.617-8949v-54.813h121.328V-8949s1.878,6.794-28.454,6.794c-14.984,0-40.12-10.05-59.708-11.754C2599.339-8955.657,2585.617-8949,2585.617-8949Z" transform="translate(-2111.094 18345.219)" fill="#f0c518"/>
    <path id="Trazado_891284" data-name="Trazado 891284" d="M-34.578-10.254l-.22,2.622h-.813l.007-3.618h1.025Zm1.978,0-.22,2.622h-.813l.007-3.618H-32.6Zm8.057,5.325h-4.622V-1.15H-23.8V0h-6.775V-10.664h6.7v1.15h-5.3v3.435h4.622Zm6.9,2.827a1,1,0,0,0-.414-.853A3.983,3.983,0,0,0-19.5-3.479a6.822,6.822,0,0,1-1.633-.527,2.324,2.324,0,0,1-.894-.732,1.752,1.752,0,0,1-.289-1.011A2.056,2.056,0,0,1-21.493-7.4a3.218,3.218,0,0,1,2.106-.674,3.311,3.311,0,0,1,2.186.7,2.21,2.21,0,0,1,.839,1.78h-1.362a1.223,1.223,0,0,0-.472-.959,1.77,1.77,0,0,0-1.19-.4,1.852,1.852,0,0,0-1.157.322,1.014,1.014,0,0,0-.417.842.822.822,0,0,0,.388.74,4.776,4.776,0,0,0,1.4.476,7.308,7.308,0,0,1,1.644.542,2.4,2.4,0,0,1,.934.758,1.864,1.864,0,0,1,.3,1.08,2.028,2.028,0,0,1-.85,1.7,3.564,3.564,0,0,1-2.2.641A3.991,3.991,0,0,1-21.028-.19a2.74,2.74,0,0,1-1.146-.941,2.268,2.268,0,0,1-.414-1.307h1.355a1.4,1.4,0,0,0,.546,1.08,2.117,2.117,0,0,0,1.344.4,2.185,2.185,0,0,0,1.234-.311A.956.956,0,0,0-17.644-2.1Zm6.3,1.143A1.952,1.952,0,0,0-10.078-1.4a1.546,1.546,0,0,0,.6-1.1H-8.2a2.457,2.457,0,0,1-.469,1.3A3.087,3.087,0,0,1-9.818-.22a3.329,3.329,0,0,1-1.527.366A3.265,3.265,0,0,1-13.92-.934a4.3,4.3,0,0,1-.956-2.955v-.227a4.771,4.771,0,0,1,.425-2.058,3.236,3.236,0,0,1,1.219-1.4,3.464,3.464,0,0,1,1.879-.5,3.178,3.178,0,0,1,2.216.8A2.853,2.853,0,0,1-8.2-5.2H-9.478a1.867,1.867,0,0,0-.582-1.263,1.811,1.811,0,0,0-1.293-.494,1.9,1.9,0,0,0-1.6.743,3.491,3.491,0,0,0-.568,2.15v.256A3.422,3.422,0,0,0-12.957-1.7,1.906,1.906,0,0,0-11.345-.959Zm8.5-5.75a4.061,4.061,0,0,0-.667-.051A1.786,1.786,0,0,0-5.317-5.625V0H-6.672V-7.925h1.318l.022.916a2.11,2.11,0,0,1,1.89-1.062,1.384,1.384,0,0,1,.6.1ZM-.125,0H-1.479V-7.925H-.125ZM-1.589-10.027a.809.809,0,0,1,.2-.557.756.756,0,0,1,.6-.227.768.768,0,0,1,.6.227.8.8,0,0,1,.205.557.774.774,0,0,1-.205.549.782.782,0,0,1-.6.22.77.77,0,0,1-.6-.22A.782.782,0,0,1-1.589-10.027ZM8.752-3.875A4.712,4.712,0,0,1,7.917-.956,2.668,2.668,0,0,1,5.676.146,2.763,2.763,0,0,1,3.354-.916L3.289,0H2.043V-11.25H3.4v4.2A2.747,2.747,0,0,1,5.662-8.071,2.684,2.684,0,0,1,7.928-6.98a4.853,4.853,0,0,1,.824,2.988ZM7.4-4.028a3.662,3.662,0,0,0-.535-2.139,1.77,1.77,0,0,0-1.538-.754A1.989,1.989,0,0,0,3.4-5.676v3.428A2.045,2.045,0,0,0,5.339-1a1.76,1.76,0,0,0,1.516-.754A3.894,3.894,0,0,0,7.4-4.028ZM15.352,0a2.846,2.846,0,0,1-.19-.835,3.023,3.023,0,0,1-2.256.981,2.8,2.8,0,0,1-1.923-.663A2.145,2.145,0,0,1,10.232-2.2a2.24,2.24,0,0,1,.941-1.923A4.437,4.437,0,0,1,13.821-4.8h1.318v-.623a1.522,1.522,0,0,0-.425-1.132,1.707,1.707,0,0,0-1.252-.421,1.976,1.976,0,0,0-1.216.366,1.079,1.079,0,0,0-.491.886H10.393a1.87,1.87,0,0,1,.421-1.146,2.874,2.874,0,0,1,1.143-.875,3.844,3.844,0,0,1,1.586-.322,3.133,3.133,0,0,1,2.146.685A2.47,2.47,0,0,1,16.494-5.5v3.647a4.459,4.459,0,0,0,.278,1.736V0ZM13.1-1.033a2.381,2.381,0,0,0,1.208-.33,1.994,1.994,0,0,0,.828-.857V-3.845H14.077q-2.49,0-2.49,1.458a1.234,1.234,0,0,0,.425,1A1.633,1.633,0,0,0,13.1-1.033ZM25.62.146A3.463,3.463,0,0,1,23-.912a3.928,3.928,0,0,1-1.011-2.831v-.249a4.756,4.756,0,0,1,.45-2.106,3.514,3.514,0,0,1,1.26-1.45,3.167,3.167,0,0,1,1.754-.524,2.968,2.968,0,0,1,2.4,1.018,4.408,4.408,0,0,1,.857,2.915v.564H23.342a2.817,2.817,0,0,0,.685,1.893,2.153,2.153,0,0,0,1.666.721,2.36,2.36,0,0,0,1.216-.293,3.055,3.055,0,0,0,.872-.776l.828.645A3.328,3.328,0,0,1,25.62.146Zm-.168-7.1a1.807,1.807,0,0,0-1.377.6,2.9,2.9,0,0,0-.688,1.674h3.97v-.1a2.581,2.581,0,0,0-.557-1.6A1.7,1.7,0,0,0,25.452-6.958ZM31.75,0H30.4V-11.25H31.75ZM-25.155,8.075l.044,1a2.888,2.888,0,0,1,2.373-1.143q2.512,0,2.534,2.834V16h-1.355V10.756a1.824,1.824,0,0,0-.392-1.267,1.57,1.57,0,0,0-1.2-.41,1.956,1.956,0,0,0-1.157.352,2.387,2.387,0,0,0-.776.923V16h-1.355V8.075Zm11.887,7.141a2.878,2.878,0,0,1-2.322.93,2.464,2.464,0,0,1-1.93-.736,3.186,3.186,0,0,1-.67-2.179V8.075h1.355v5.12q0,1.8,1.465,1.8A2.028,2.028,0,0,0-13.3,13.839V8.075h1.355V16h-1.289Zm-1.1-10.452h1.641l-1.963,2.153-1.091,0Zm5.75,3.311.037.879A2.927,2.927,0,0,1-6.229,7.929,2.266,2.266,0,0,1-3.966,9.2,3,3,0,0,1-2.937,8.28a3.039,3.039,0,0,1,1.5-.352q2.607,0,2.651,2.761V16H-.143V10.771A1.82,1.82,0,0,0-.531,9.5a1.71,1.71,0,0,0-1.3-.421,1.8,1.8,0,0,0-1.252.45,1.827,1.827,0,0,0-.579,1.212V16H-5.028V10.807A1.512,1.512,0,0,0-6.72,9.079a1.813,1.813,0,0,0-1.824,1.135V16H-9.9V8.075ZM6.544,16.146a3.463,3.463,0,0,1-2.622-1.058,3.928,3.928,0,0,1-1.011-2.831v-.249A4.756,4.756,0,0,1,3.362,9.9a3.514,3.514,0,0,1,1.26-1.45,3.167,3.167,0,0,1,1.754-.524,2.968,2.968,0,0,1,2.4,1.018,4.408,4.408,0,0,1,.857,2.915v.564H4.266a2.817,2.817,0,0,0,.685,1.893,2.153,2.153,0,0,0,1.666.721,2.36,2.36,0,0,0,1.216-.293,3.055,3.055,0,0,0,.872-.776l.828.645A3.328,3.328,0,0,1,6.544,16.146Zm-.168-7.1A1.807,1.807,0,0,0,5,9.639a2.9,2.9,0,0,0-.688,1.674H8.28v-.1a2.581,2.581,0,0,0-.557-1.6A1.7,1.7,0,0,0,6.376,9.042Zm8.657.249a4.06,4.06,0,0,0-.667-.051,1.786,1.786,0,0,0-1.809,1.135V16H11.2V8.075h1.318l.022.916a2.11,2.11,0,0,1,1.89-1.062,1.384,1.384,0,0,1,.6.1Zm.74,2.673A4.681,4.681,0,0,1,16.23,9.87,3.415,3.415,0,0,1,17.5,8.434a3.469,3.469,0,0,1,1.864-.505,3.342,3.342,0,0,1,2.618,1.121,4.311,4.311,0,0,1,1,2.981v.1a4.722,4.722,0,0,1-.443,2.076,3.365,3.365,0,0,1-1.267,1.432,3.509,3.509,0,0,1-1.893.513,3.334,3.334,0,0,1-2.611-1.121,4.29,4.29,0,0,1-1-2.966Zm1.362.161a3.39,3.39,0,0,0,.612,2.117,2.072,2.072,0,0,0,3.278-.011,3.707,3.707,0,0,0,.608-2.267,3.384,3.384,0,0,0-.619-2.113,1.968,1.968,0,0,0-1.644-.809,1.946,1.946,0,0,0-1.619.8A3.68,3.68,0,0,0,17.135,12.125Zm7.559-6.379-.22,2.622h-.813l.007-3.618h1.025Zm1.978,0-.22,2.622h-.813l.007-3.618h1.025Z" transform="translate(535.523 9367.4)" fill="#12263f"/>
    <path id="Unión_28" data-name="Unión 28" d="M-1516,11744.6h6.264V11712h4.474v32.6H-1499l-8.5,7.2Z" transform="translate(2045 -2404.92)" fill="#3a1d71"/>
    <rect id="Rectángulo_405385" data-name="Rectángulo 405385" width="151" height="36.877" transform="translate(462 9278.141)" fill="#f0c518"/>
    <path id="Trazado_891283" data-name="Trazado 891283" d="M-40.395,0V-7.336H-41.73V-8.453h1.336V-9.32a2.878,2.878,0,0,1,.727-2.1,2.745,2.745,0,0,1,2.055-.742,3.816,3.816,0,0,1,.992.132l-.078,1.165a4.151,4.151,0,0,0-.781-.07,1.41,1.41,0,0,0-1.086.411,1.669,1.669,0,0,0-.383,1.18v.893h1.8v1.117h-1.8V0Zm10.063,0a3.036,3.036,0,0,1-.2-.891A3.225,3.225,0,0,1-32.941.156a2.984,2.984,0,0,1-2.051-.707,2.287,2.287,0,0,1-.8-1.793,2.39,2.39,0,0,1,1-2.051,4.733,4.733,0,0,1,2.824-.73h1.406v-.664A1.623,1.623,0,0,0-31.012-7a1.821,1.821,0,0,0-1.336-.449,2.107,2.107,0,0,0-1.3.391,1.151,1.151,0,0,0-.523.945h-1.453a2,2,0,0,1,.449-1.223,3.066,3.066,0,0,1,1.219-.934,4.1,4.1,0,0,1,1.691-.344,3.342,3.342,0,0,1,2.289.73,2.635,2.635,0,0,1,.859,2.012v3.891a4.757,4.757,0,0,0,.3,1.852V0Zm-2.4-1.1a2.54,2.54,0,0,0,1.289-.352,2.127,2.127,0,0,0,.883-.914V-4.1h-1.133q-2.656,0-2.656,1.555a1.316,1.316,0,0,0,.453,1.063A1.742,1.742,0,0,0-32.73-1.1Zm9.273.078a2.082,2.082,0,0,0,1.352-.469,1.649,1.649,0,0,0,.641-1.172H-20.1a2.621,2.621,0,0,1-.5,1.383,3.293,3.293,0,0,1-1.23,1.047,3.55,3.55,0,0,1-1.629.391A3.482,3.482,0,0,1-26.2-1a4.59,4.59,0,0,1-1.02-3.152v-.242a5.089,5.089,0,0,1,.453-2.2,3.451,3.451,0,0,1,1.3-1.492,3.7,3.7,0,0,1,2-.531,3.39,3.39,0,0,1,2.363.852,3.043,3.043,0,0,1,1,2.211h-1.367a1.992,1.992,0,0,0-.621-1.348,1.932,1.932,0,0,0-1.379-.527,2.023,2.023,0,0,0-1.707.793,3.724,3.724,0,0,0-.605,2.293v.273a3.65,3.65,0,0,0,.6,2.25A2.033,2.033,0,0,0-23.457-1.023Zm6.945-9.477v2.047h1.578v1.117h-1.578v5.249a1.173,1.173,0,0,0,.211.763.888.888,0,0,0,.719.254,3.5,3.5,0,0,0,.688-.094V0A4.215,4.215,0,0,1-16,.156,1.8,1.8,0,0,1-17.465-.43a2.517,2.517,0,0,1-.492-1.664V-7.336H-19.5V-8.453h1.539V-10.5Zm2.727,6.2A4.993,4.993,0,0,1-13.3-6.539,3.643,3.643,0,0,1-11.937-8.07a3.7,3.7,0,0,1,1.988-.539,3.565,3.565,0,0,1,2.793,1.2A4.6,4.6,0,0,1-6.09-4.234v.1a5.036,5.036,0,0,1-.473,2.215A3.589,3.589,0,0,1-7.914-.391a3.743,3.743,0,0,1-2.02.547,3.556,3.556,0,0,1-2.785-1.2A4.575,4.575,0,0,1-13.785-4.2Zm1.453.172a3.616,3.616,0,0,0,.652,2.258,2.088,2.088,0,0,0,1.746.852,2.075,2.075,0,0,0,1.75-.863A3.955,3.955,0,0,0-7.535-4.3,3.61,3.61,0,0,0-8.2-6.559a2.1,2.1,0,0,0-1.754-.863,2.075,2.075,0,0,0-1.727.852A3.925,3.925,0,0,0-12.332-4.133ZM-.191-7.156A4.331,4.331,0,0,0-.9-7.211,1.9,1.9,0,0,0-2.832-6V0H-4.277V-8.453h1.406l.023.977A2.251,2.251,0,0,1-.832-8.609,1.477,1.477,0,0,1-.191-8.5ZM2.707,0H1.262V-8.453H2.707ZM1.145-10.7a.863.863,0,0,1,.215-.594A.807.807,0,0,1,2-11.531a.819.819,0,0,1,.641.242.854.854,0,0,1,.219.594.826.826,0,0,1-.219.586A.834.834,0,0,1,2-9.875a.821.821,0,0,1-.637-.234A.834.834,0,0,1,1.145-10.7ZM10.238,0a3.036,3.036,0,0,1-.2-.891A3.225,3.225,0,0,1,7.629.156,2.984,2.984,0,0,1,5.578-.551a2.287,2.287,0,0,1-.8-1.793,2.39,2.39,0,0,1,1-2.051,4.733,4.733,0,0,1,2.824-.73h1.406v-.664A1.623,1.623,0,0,0,9.559-7a1.821,1.821,0,0,0-1.336-.449,2.107,2.107,0,0,0-1.3.391,1.151,1.151,0,0,0-.523.945H4.949A2,2,0,0,1,5.4-7.332a3.066,3.066,0,0,1,1.219-.934,4.1,4.1,0,0,1,1.691-.344,3.342,3.342,0,0,1,2.289.73,2.635,2.635,0,0,1,.859,2.012v3.891a4.757,4.757,0,0,0,.3,1.852V0ZM7.84-1.1a2.54,2.54,0,0,0,1.289-.352,2.127,2.127,0,0,0,.883-.914V-4.1H8.879q-2.656,0-2.656,1.555a1.316,1.316,0,0,0,.453,1.063A1.742,1.742,0,0,0,7.84-1.1ZM15.293,0H13.848V-12h1.445ZM28.176-6.359H21.66V-7.617h6.516Zm0,3.242H21.66v-1.25h6.516ZM38.91,0H37.457V-9.633l-2.914,1.07V-9.875l4.141-1.555h.227Z" transform="translate(538 9303.079)" fill="#12263f"/>
    <path id="Unión_26" data-name="Unión 26" d="M-1516,11744.6h6.264V11712h4.474v32.6H-1499l-8.5,7.2Z" transform="translate(2045 -2470.66)" fill="#3a1d71"/>
    <rect id="Rectángulo_405383" data-name="Rectángulo 405383" width="151" height="36.877" transform="translate(462 9217.462)" fill="#f0c518"/>
    <path id="Trazado_891282" data-name="Trazado 891282" d="M-40.27-1.023a2.082,2.082,0,0,0,1.352-.469,1.649,1.649,0,0,0,.641-1.172h1.367a2.621,2.621,0,0,1-.5,1.383,3.293,3.293,0,0,1-1.23,1.047A3.55,3.55,0,0,1-40.27.156,3.482,3.482,0,0,1-43.016-1a4.59,4.59,0,0,1-1.02-3.152v-.242a5.089,5.089,0,0,1,.453-2.2,3.451,3.451,0,0,1,1.3-1.492,3.7,3.7,0,0,1,2-.531,3.39,3.39,0,0,1,2.363.852,3.043,3.043,0,0,1,1,2.211h-1.367A1.992,1.992,0,0,0-38.9-6.895a1.932,1.932,0,0,0-1.379-.527,2.023,2.023,0,0,0-1.707.793,3.724,3.724,0,0,0-.605,2.293v.273a3.65,3.65,0,0,0,.6,2.25A2.033,2.033,0,0,0-40.27-1.023Zm4.6-3.281a4.993,4.993,0,0,1,.488-2.234A3.643,3.643,0,0,1-33.82-8.07a3.7,3.7,0,0,1,1.988-.539,3.565,3.565,0,0,1,2.793,1.2,4.6,4.6,0,0,1,1.066,3.18v.1a5.036,5.036,0,0,1-.473,2.215A3.589,3.589,0,0,1-29.8-.391a3.743,3.743,0,0,1-2.02.547,3.556,3.556,0,0,1-2.785-1.2A4.575,4.575,0,0,1-35.668-4.2Zm1.453.172a3.616,3.616,0,0,0,.652,2.258,2.088,2.088,0,0,0,1.746.852,2.075,2.075,0,0,0,1.75-.863A3.955,3.955,0,0,0-29.418-4.3a3.61,3.61,0,0,0-.66-2.254,2.1,2.1,0,0,0-1.754-.863,2.075,2.075,0,0,0-1.727.852A3.925,3.925,0,0,0-34.215-4.133Zm9.422-4.32.047,1.063a3.08,3.08,0,0,1,2.531-1.219q2.68,0,2.7,3.023V0h-1.445V-5.594a1.946,1.946,0,0,0-.418-1.352,1.675,1.675,0,0,0-1.277-.437,2.086,2.086,0,0,0-1.234.375,2.546,2.546,0,0,0-.828.984V0H-26.16V-8.453Zm9.422-2.047v2.047h1.578v1.117h-1.578v5.249a1.173,1.173,0,0,0,.211.763.888.888,0,0,0,.719.254,3.5,3.5,0,0,0,.688-.094V0a4.215,4.215,0,0,1-1.109.155A1.8,1.8,0,0,1-16.324-.43a2.517,2.517,0,0,1-.492-1.664V-7.336h-1.539V-8.453h1.539V-10.5ZM-6.887,0a3.036,3.036,0,0,1-.2-.891A3.225,3.225,0,0,1-9.5.156a2.984,2.984,0,0,1-2.051-.707,2.287,2.287,0,0,1-.8-1.793,2.39,2.39,0,0,1,1-2.051,4.733,4.733,0,0,1,2.824-.73h1.406v-.664A1.623,1.623,0,0,0-7.566-7,1.821,1.821,0,0,0-8.9-7.445a2.107,2.107,0,0,0-1.3.391,1.151,1.151,0,0,0-.523.945h-1.453a2,2,0,0,1,.449-1.223,3.066,3.066,0,0,1,1.219-.934,4.1,4.1,0,0,1,1.691-.344,3.342,3.342,0,0,1,2.289.73,2.635,2.635,0,0,1,.859,2.012v3.891a4.757,4.757,0,0,0,.3,1.852V0Zm-2.4-1.1A2.54,2.54,0,0,0-8-1.453a2.127,2.127,0,0,0,.883-.914V-4.1H-8.246Q-10.9-4.1-10.9-2.547a1.316,1.316,0,0,0,.453,1.063A1.742,1.742,0,0,0-9.285-1.1Zm5.531-3.2a4.952,4.952,0,0,1,.922-3.129A2.915,2.915,0,0,1-.418-8.609,2.932,2.932,0,0,1,1.934-7.594V-12H3.379V0H2.051L1.98-.906A2.943,2.943,0,0,1-.434.156a2.887,2.887,0,0,1-2.395-1.2,5.008,5.008,0,0,1-.926-3.141Zm1.445.164a3.749,3.749,0,0,0,.594,2.25A1.92,1.92,0,0,0-.074-1.07,2.108,2.108,0,0,0,1.934-2.3V-6.187a2.125,2.125,0,0,0-1.992-1.2,1.929,1.929,0,0,0-1.656.82A4.128,4.128,0,0,0-2.309-4.133ZM5.238-4.3a4.993,4.993,0,0,1,.488-2.234A3.643,3.643,0,0,1,7.086-8.07a3.7,3.7,0,0,1,1.988-.539,3.565,3.565,0,0,1,2.793,1.2,4.6,4.6,0,0,1,1.066,3.18v.1a5.036,5.036,0,0,1-.473,2.215A3.589,3.589,0,0,1,11.109-.391,3.743,3.743,0,0,1,9.09.156,3.556,3.556,0,0,1,6.3-1.039,4.575,4.575,0,0,1,5.238-4.2Zm1.453.172a3.616,3.616,0,0,0,.652,2.258,2.088,2.088,0,0,0,1.746.852,2.075,2.075,0,0,0,1.75-.863A3.955,3.955,0,0,0,11.488-4.3a3.61,3.61,0,0,0-.66-2.254,2.1,2.1,0,0,0-1.754-.863,2.075,2.075,0,0,0-1.727.852A3.925,3.925,0,0,0,6.691-4.133ZM18.832-7.156a4.331,4.331,0,0,0-.711-.055A1.9,1.9,0,0,0,16.191-6V0H14.746V-8.453h1.406l.023.977a2.251,2.251,0,0,1,2.016-1.133,1.477,1.477,0,0,1,.641.109Zm11.9.8H24.215V-7.617H30.73Zm0,3.242H24.215v-1.25H30.73ZM41.465,0H40.012V-9.633L37.1-8.562V-9.875l4.141-1.555h.227Z" transform="translate(538 9242.4)" fill="#12263f"/>
    <path id="Unión_27" data-name="Unión 27" d="M-1516,11740.5h6.264V11712h4.474v28.5H-1499l-8.5,6.3Z" transform="translate(2045 -2526.5)" fill="#3a1d71"/>
    <rect id="Rectángulo_405381" data-name="Rectángulo 405381" width="94" height="35" rx="17.5" transform="translate(491 9157.5)" fill="#f0c518"/>
    <path id="Trazado_891281" data-name="Trazado 891281" d="M2.93,0H1.43V-11.375h1.5ZM6.813-8.453l.047,1.063A3.08,3.08,0,0,1,9.391-8.609q2.68,0,2.7,3.023V0H10.648V-5.594a1.946,1.946,0,0,0-.418-1.352,1.675,1.675,0,0,0-1.277-.437,2.086,2.086,0,0,0-1.234.375,2.546,2.546,0,0,0-.828.984V0H5.445V-8.453ZM15.844,0H14.4V-8.453h1.445ZM14.281-10.7a.863.863,0,0,1,.215-.594.807.807,0,0,1,.637-.242.819.819,0,0,1,.641.242.854.854,0,0,1,.219.594.826.826,0,0,1-.219.586.834.834,0,0,1-.641.234.821.821,0,0,1-.637-.234A.834.834,0,0,1,14.281-10.7Zm7.266,9.672A2.082,2.082,0,0,0,22.9-1.492a1.649,1.649,0,0,0,.641-1.172h1.367a2.621,2.621,0,0,1-.5,1.383,3.293,3.293,0,0,1-1.23,1.047,3.55,3.55,0,0,1-1.629.391A3.482,3.482,0,0,1,18.8-1a4.59,4.59,0,0,1-1.02-3.152v-.242a5.089,5.089,0,0,1,.453-2.2,3.451,3.451,0,0,1,1.3-1.492,3.7,3.7,0,0,1,2-.531,3.39,3.39,0,0,1,2.363.852,3.043,3.043,0,0,1,1,2.211H23.539a1.992,1.992,0,0,0-.621-1.348,1.932,1.932,0,0,0-1.379-.527,2.023,2.023,0,0,0-1.707.793,3.724,3.724,0,0,0-.605,2.293v.273a3.65,3.65,0,0,0,.6,2.25A2.033,2.033,0,0,0,21.547-1.023ZM28.1,0H26.656V-8.453H28.1ZM26.539-10.7a.863.863,0,0,1,.215-.594.807.807,0,0,1,.637-.242.819.819,0,0,1,.641.242.854.854,0,0,1,.219.594.826.826,0,0,1-.219.586.834.834,0,0,1-.641.234.821.821,0,0,1-.637-.234A.834.834,0,0,1,26.539-10.7ZM30.031-4.3a4.993,4.993,0,0,1,.488-2.234A3.643,3.643,0,0,1,31.879-8.07a3.7,3.7,0,0,1,1.988-.539,3.565,3.565,0,0,1,2.793,1.2,4.6,4.6,0,0,1,1.066,3.18v.1a5.036,5.036,0,0,1-.473,2.215A3.589,3.589,0,0,1,35.9-.391a3.743,3.743,0,0,1-2.02.547,3.556,3.556,0,0,1-2.785-1.2A4.575,4.575,0,0,1,30.031-4.2Zm1.453.172a3.616,3.616,0,0,0,.652,2.258,2.088,2.088,0,0,0,1.746.852,2.075,2.075,0,0,0,1.75-.863A3.955,3.955,0,0,0,36.281-4.3a3.61,3.61,0,0,0-.66-2.254,2.1,2.1,0,0,0-1.754-.863,2.075,2.075,0,0,0-1.727.852A3.925,3.925,0,0,0,31.484-4.133Z" transform="translate(519 9181.5)" fill="#12263f"/>
    <path id="Unión_21" data-name="Unión 21" d="M-1509.737,11712h4.474v135.871h-4.474Z" transform="translate(12414.715 11050.773) rotate(90)" fill="#3a1d71"/>
    <path id="Unión_19" data-name="Unión 19" d="M0,160.415H4.474V0H0Z" transform="translate(376.285 9702.521) rotate(-90)" fill="#3a1d71"/>
    <rect id="Rectángulo_405387" data-name="Rectángulo 405387" width="256.527" height="36.877" transform="translate(407.141 9681.847)" fill="#f0c518"/>
    <path id="Trazado_891290" data-name="Trazado 891290" d="M-75.634-.959A1.952,1.952,0,0,0-74.366-1.4a1.546,1.546,0,0,0,.6-1.1h1.282a2.457,2.457,0,0,1-.469,1.3,3.087,3.087,0,0,1-1.154.981,3.329,3.329,0,0,1-1.527.366,3.265,3.265,0,0,1-2.574-1.08,4.3,4.3,0,0,1-.956-2.955v-.227a4.771,4.771,0,0,1,.425-2.058,3.236,3.236,0,0,1,1.219-1.4,3.464,3.464,0,0,1,1.879-.5,3.178,3.178,0,0,1,2.216.8A2.853,2.853,0,0,1-72.484-5.2h-1.282a1.867,1.867,0,0,0-.582-1.263,1.811,1.811,0,0,0-1.293-.494,1.9,1.9,0,0,0-1.6.743,3.491,3.491,0,0,0-.568,2.15v.256A3.422,3.422,0,0,0-77.245-1.7,1.906,1.906,0,0,0-75.634-.959Zm4.314-3.076a4.681,4.681,0,0,1,.458-2.095,3.415,3.415,0,0,1,1.274-1.436,3.469,3.469,0,0,1,1.864-.505A3.342,3.342,0,0,1-65.1-6.951a4.311,4.311,0,0,1,1,2.981v.1A4.722,4.722,0,0,1-64.548-1.8,3.365,3.365,0,0,1-65.815-.366a3.509,3.509,0,0,1-1.893.513A3.334,3.334,0,0,1-70.32-.974a4.29,4.29,0,0,1-1-2.966Zm1.362.161a3.39,3.39,0,0,0,.612,2.117,1.957,1.957,0,0,0,1.637.8,1.945,1.945,0,0,0,1.641-.809,3.707,3.707,0,0,0,.608-2.267,3.384,3.384,0,0,0-.619-2.113,1.968,1.968,0,0,0-1.644-.809,1.946,1.946,0,0,0-1.619.8A3.68,3.68,0,0,0-69.957-3.875Zm8.833-4.05.044,1a2.888,2.888,0,0,1,2.373-1.143q2.512,0,2.534,2.834V0h-1.355V-5.244a1.824,1.824,0,0,0-.392-1.267,1.57,1.57,0,0,0-1.2-.41,1.956,1.956,0,0,0-1.157.352,2.387,2.387,0,0,0-.776.923V0h-1.355V-7.925Zm8.833-1.919v1.919h1.479v1.047h-1.479v4.921a1.1,1.1,0,0,0,.2.715A.832.832,0,0,0-51.42-1a3.281,3.281,0,0,0,.645-.088V0a3.951,3.951,0,0,1-1.04.146A1.687,1.687,0,0,1-53.185-.4a2.36,2.36,0,0,1-.461-1.56V-6.877h-1.443V-7.925h1.443V-9.844ZM-44.337,0a2.846,2.846,0,0,1-.19-.835,3.023,3.023,0,0,1-2.256.981,2.8,2.8,0,0,1-1.923-.663A2.145,2.145,0,0,1-49.457-2.2a2.24,2.24,0,0,1,.941-1.923A4.437,4.437,0,0,1-45.868-4.8h1.318v-.623a1.522,1.522,0,0,0-.425-1.132,1.707,1.707,0,0,0-1.252-.421,1.976,1.976,0,0,0-1.216.366,1.079,1.079,0,0,0-.491.886H-49.3a1.87,1.87,0,0,1,.421-1.146,2.874,2.874,0,0,1,1.143-.875,3.844,3.844,0,0,1,1.586-.322A3.133,3.133,0,0,1-44-7.386,2.47,2.47,0,0,1-43.195-5.5v3.647a4.459,4.459,0,0,0,.278,1.736V0Zm-2.249-1.033a2.381,2.381,0,0,0,1.208-.33,1.994,1.994,0,0,0,.828-.857V-3.845h-1.062q-2.49,0-2.49,1.458a1.234,1.234,0,0,0,.425,1A1.633,1.633,0,0,0-46.586-1.033Zm5.186-3a4.642,4.642,0,0,1,.864-2.933,2.733,2.733,0,0,1,2.263-1.11,2.748,2.748,0,0,1,2.2.952V-11.25h1.355V0h-1.245l-.066-.85a2.759,2.759,0,0,1-2.263,1A2.707,2.707,0,0,1-40.532-.981,4.7,4.7,0,0,1-41.4-3.926Zm1.355.154a3.515,3.515,0,0,0,.557,2.109A1.8,1.8,0,0,0-37.95-1a1.977,1.977,0,0,0,1.882-1.157V-5.8a1.992,1.992,0,0,0-1.868-1.121,1.808,1.808,0,0,0-1.553.769A3.87,3.87,0,0,0-40.045-3.875Zm7.075-.161a4.681,4.681,0,0,1,.458-2.095,3.415,3.415,0,0,1,1.274-1.436,3.469,3.469,0,0,1,1.864-.505,3.342,3.342,0,0,1,2.618,1.121,4.311,4.311,0,0,1,1,2.981v.1A4.722,4.722,0,0,1-26.2-1.8,3.365,3.365,0,0,1-27.466-.366a3.509,3.509,0,0,1-1.893.513A3.334,3.334,0,0,1-31.97-.974a4.29,4.29,0,0,1-1-2.966Zm1.362.161A3.39,3.39,0,0,0-31-1.758a1.957,1.957,0,0,0,1.637.8,1.945,1.945,0,0,0,1.641-.809,3.707,3.707,0,0,0,.608-2.267,3.384,3.384,0,0,0-.619-2.113,1.968,1.968,0,0,0-1.644-.809,1.946,1.946,0,0,0-1.619.8A3.68,3.68,0,0,0-31.608-3.875Zm11.382-2.834a4.061,4.061,0,0,0-.667-.051A1.786,1.786,0,0,0-22.7-5.625V0h-1.355V-7.925h1.318l.022.916a2.11,2.11,0,0,1,1.89-1.062,1.384,1.384,0,0,1,.6.1Zm11.155.747h-6.108V-7.141h6.108Zm0,3.04h-6.108V-4.094h6.108ZM-.143-.959A1.952,1.952,0,0,0,1.124-1.4a1.546,1.546,0,0,0,.6-1.1H3.007a2.457,2.457,0,0,1-.469,1.3A3.087,3.087,0,0,1,1.384-.22,3.329,3.329,0,0,1-.143.146,3.265,3.265,0,0,1-2.717-.934a4.3,4.3,0,0,1-.956-2.955v-.227a4.771,4.771,0,0,1,.425-2.058,3.236,3.236,0,0,1,1.219-1.4,3.464,3.464,0,0,1,1.879-.5,3.178,3.178,0,0,1,2.216.8A2.853,2.853,0,0,1,3.007-5.2H1.725a1.867,1.867,0,0,0-.582-1.263A1.811,1.811,0,0,0-.15-6.958a1.9,1.9,0,0,0-1.6.743,3.491,3.491,0,0,0-.568,2.15v.256A3.422,3.422,0,0,0-1.754-1.7,1.906,1.906,0,0,0-.143-.959ZM4.171-4.036A4.681,4.681,0,0,1,4.629-6.13,3.415,3.415,0,0,1,5.9-7.566a3.469,3.469,0,0,1,1.864-.505,3.342,3.342,0,0,1,2.618,1.121,4.311,4.311,0,0,1,1,2.981v.1A4.722,4.722,0,0,1,10.942-1.8,3.365,3.365,0,0,1,9.675-.366,3.509,3.509,0,0,1,7.782.146,3.334,3.334,0,0,1,5.171-.974a4.29,4.29,0,0,1-1-2.966Zm1.362.161a3.39,3.39,0,0,0,.612,2.117,1.957,1.957,0,0,0,1.637.8,1.945,1.945,0,0,0,1.641-.809,3.707,3.707,0,0,0,.608-2.267,3.384,3.384,0,0,0-.619-2.113,1.968,1.968,0,0,0-1.644-.809,1.946,1.946,0,0,0-1.619.8A3.68,3.68,0,0,0,5.533-3.875Zm8.833-4.05.044,1a2.888,2.888,0,0,1,2.373-1.143q2.512,0,2.534,2.834V0H17.963V-5.244a1.824,1.824,0,0,0-.392-1.267,1.57,1.57,0,0,0-1.2-.41,1.956,1.956,0,0,0-1.157.352,2.387,2.387,0,0,0-.776.923V0H13.085V-7.925ZM23.2-9.844v1.919h1.479v1.047H23.2v4.921a1.1,1.1,0,0,0,.2.715A.832.832,0,0,0,24.071-1a3.281,3.281,0,0,0,.645-.088V0a3.951,3.951,0,0,1-1.04.146A1.687,1.687,0,0,1,22.306-.4a2.36,2.36,0,0,1-.461-1.56V-6.877H20.4V-7.925h1.443V-9.844ZM31.154,0a2.846,2.846,0,0,1-.19-.835,3.023,3.023,0,0,1-2.256.981,2.8,2.8,0,0,1-1.923-.663A2.145,2.145,0,0,1,26.034-2.2a2.24,2.24,0,0,1,.941-1.923A4.437,4.437,0,0,1,29.623-4.8h1.318v-.623a1.522,1.522,0,0,0-.425-1.132,1.707,1.707,0,0,0-1.252-.421,1.976,1.976,0,0,0-1.216.366,1.079,1.079,0,0,0-.491.886H26.2a1.87,1.87,0,0,1,.421-1.146,2.874,2.874,0,0,1,1.143-.875,3.844,3.844,0,0,1,1.586-.322,3.133,3.133,0,0,1,2.146.685A2.47,2.47,0,0,1,32.3-5.5v3.647a4.459,4.459,0,0,0,.278,1.736V0ZM28.905-1.033a2.381,2.381,0,0,0,1.208-.33,1.994,1.994,0,0,0,.828-.857V-3.845H29.879q-2.49,0-2.49,1.458a1.234,1.234,0,0,0,.425,1A1.633,1.633,0,0,0,28.905-1.033Zm5.186-3a4.642,4.642,0,0,1,.864-2.933,2.733,2.733,0,0,1,2.263-1.11,2.748,2.748,0,0,1,2.2.952V-11.25h1.355V0H39.532l-.066-.85a2.759,2.759,0,0,1-2.263,1A2.707,2.707,0,0,1,34.958-.981a4.7,4.7,0,0,1-.868-2.944Zm1.355.154A3.515,3.515,0,0,0,36-1.765,1.8,1.8,0,0,0,37.54-1a1.977,1.977,0,0,0,1.882-1.157V-5.8a1.992,1.992,0,0,0-1.868-1.121A1.808,1.808,0,0,0,36-6.152,3.87,3.87,0,0,0,35.446-3.875Zm7.075-.161a4.681,4.681,0,0,1,.458-2.095,3.415,3.415,0,0,1,1.274-1.436,3.469,3.469,0,0,1,1.864-.505,3.342,3.342,0,0,1,2.618,1.121,4.311,4.311,0,0,1,1,2.981v.1A4.722,4.722,0,0,1,49.292-1.8,3.365,3.365,0,0,1,48.025-.366a3.509,3.509,0,0,1-1.893.513A3.334,3.334,0,0,1,43.521-.974a4.29,4.29,0,0,1-1-2.966Zm1.362.161a3.39,3.39,0,0,0,.612,2.117,1.957,1.957,0,0,0,1.637.8,1.945,1.945,0,0,0,1.641-.809,3.707,3.707,0,0,0,.608-2.267,3.384,3.384,0,0,0-.619-2.113,1.968,1.968,0,0,0-1.644-.809,1.946,1.946,0,0,0-1.619.8A3.68,3.68,0,0,0,43.883-3.875ZM55.265-6.709A4.061,4.061,0,0,0,54.6-6.76a1.786,1.786,0,0,0-1.809,1.135V0H51.434V-7.925h1.318l.022.916a2.11,2.11,0,0,1,1.89-1.062,1.384,1.384,0,0,1,.6.1Zm8.84.989h2.974v1.282H64.105v3.369H62.743V-4.438H59.769V-5.72h2.974V-8.833h1.362ZM76.754,0H75.392V-9.031l-2.732,1v-1.23l3.882-1.458h.212Z" transform="translate(537.327 9706.285)" fill="#12263f"/>
    <rect id="Rectángulo_405379" data-name="Rectángulo 405379" width="4.474" height="208.008" transform="translate(702.715 9749.045) rotate(180)" fill="#3a1d71"/>
    <g id="Grupo_1105361" data-name="Grupo 1105361" transform="translate(0 -42.033)">
      <g id="Grupo_1105320" data-name="Grupo 1105320" transform="translate(370.022 9751.111)">
        <path id="Unión_19-2" data-name="Unión 19" d="M0,166.193H4.474V0H0Z" transform="translate(166.499 39.2) rotate(-90)" fill="#3a1d71"/>
        <path id="Unión_20" data-name="Unión 20" d="M8.5,0,17,7.2H0Z" transform="translate(174.999 59.2) rotate(180)" fill="#3a1d71"/>
      </g>
      <g id="Grupo_1105321" data-name="Grupo 1105321" transform="translate(-0.8 5657.714)">
        <rect id="Rectángulo_405353" data-name="Rectángulo 405353" width="94" height="35" rx="17.5" transform="translate(491 4235.169)" fill="#f0c518"/>
        <path id="Trazado_891292" data-name="Trazado 891292" d="M7.594-5.023H2.82V0H1.32V-11.375H8.367v1.227H2.82v3.9H7.594ZM11.508,0H10.063V-8.453h1.445ZM9.945-10.7a.863.863,0,0,1,.215-.594.807.807,0,0,1,.637-.242.819.819,0,0,1,.641.242.854.854,0,0,1,.219.594.826.826,0,0,1-.219.586.834.834,0,0,1-.641.234.821.821,0,0,1-.637-.234A.834.834,0,0,1,9.945-10.7Zm5.242,2.242.047,1.063a3.08,3.08,0,0,1,2.531-1.219q2.68,0,2.7,3.023V0H19.023V-5.594a1.946,1.946,0,0,0-.418-1.352,1.675,1.675,0,0,0-1.277-.437,2.086,2.086,0,0,0-1.234.375,2.546,2.546,0,0,0-.828.984V0H13.82V-8.453Z" transform="translate(527 4259.169)" fill="#12263f"/>
      </g>
      <rect id="Rectángulo_405358" data-name="Rectángulo 405358" width="4.474" height="18.888" transform="translate(534.464 9785.838)" fill="#3a1d71"/>
      <path id="Unión_23" data-name="Unión 23" d="M-1516,11744.6h6.264V11712h4.474v32.6H-1499l-8.5,7.2Z" transform="translate(2044.503 -1858.918)" fill="#3a1d71"/>
      <path id="Trazado_890890" data-name="Trazado 890890" d="M2585.617-8949v-54.813h121.328V-8949s1.878,6.794-28.454,6.794c-14.984,0-40.12-10.05-59.708-11.754C2599.339-8955.657,2585.617-8949,2585.617-8949Z" transform="translate(-2113.189 18816.131)" fill="#f0c518"/>
      <path id="Trazado_891291" data-name="Trazado 891291" d="M-25.829,0V-6.877h-1.252V-7.925h1.252v-.813a2.7,2.7,0,0,1,.681-1.97,2.573,2.573,0,0,1,1.926-.7,3.578,3.578,0,0,1,.93.124l-.073,1.092a3.892,3.892,0,0,0-.732-.066,1.322,1.322,0,0,0-1.018.386,1.564,1.564,0,0,0-.359,1.106v.838h1.692v1.047h-1.692V0ZM-16.4,0a2.846,2.846,0,0,1-.19-.835,3.023,3.023,0,0,1-2.256.981,2.8,2.8,0,0,1-1.923-.663A2.145,2.145,0,0,1-21.515-2.2a2.24,2.24,0,0,1,.941-1.923A4.437,4.437,0,0,1-17.926-4.8h1.318v-.623a1.522,1.522,0,0,0-.425-1.132,1.707,1.707,0,0,0-1.252-.421,1.976,1.976,0,0,0-1.216.366,1.079,1.079,0,0,0-.491.886h-1.362a1.87,1.87,0,0,1,.421-1.146,2.874,2.874,0,0,1,1.143-.875A3.844,3.844,0,0,1-18.2-8.071a3.133,3.133,0,0,1,2.146.685A2.47,2.47,0,0,1-15.253-5.5v3.647a4.459,4.459,0,0,0,.278,1.736V0Zm-2.249-1.033a2.381,2.381,0,0,0,1.208-.33,1.994,1.994,0,0,0,.828-.857V-3.845H-17.67q-2.49,0-2.49,1.458a1.234,1.234,0,0,0,.425,1A1.633,1.633,0,0,0-18.644-1.033Zm8.694.073A1.952,1.952,0,0,0-8.683-1.4a1.546,1.546,0,0,0,.6-1.1H-6.8a2.457,2.457,0,0,1-.469,1.3A3.087,3.087,0,0,1-8.423-.22,3.329,3.329,0,0,1-9.95.146a3.265,3.265,0,0,1-2.574-1.08,4.3,4.3,0,0,1-.956-2.955v-.227a4.771,4.771,0,0,1,.425-2.058,3.236,3.236,0,0,1,1.219-1.4,3.464,3.464,0,0,1,1.879-.5,3.178,3.178,0,0,1,2.216.8A2.853,2.853,0,0,1-6.8-5.2H-8.082a1.867,1.867,0,0,0-.582-1.263,1.811,1.811,0,0,0-1.293-.494,1.9,1.9,0,0,0-1.6.743,3.491,3.491,0,0,0-.568,2.15v.256A3.422,3.422,0,0,0-11.561-1.7,1.906,1.906,0,0,0-9.95-.959Zm6.511-8.884v1.919h1.479v1.047H-3.439v4.921a1.1,1.1,0,0,0,.2.715A.832.832,0,0,0-2.567-1a3.281,3.281,0,0,0,.645-.088V0a3.951,3.951,0,0,1-1.04.146A1.687,1.687,0,0,1-4.332-.4a2.36,2.36,0,0,1-.461-1.56V-6.877H-6.237V-7.925h1.443V-9.844ZM-.883-4.036A4.681,4.681,0,0,1-.425-6.13,3.415,3.415,0,0,1,.85-7.566a3.469,3.469,0,0,1,1.864-.505A3.342,3.342,0,0,1,5.332-6.951a4.311,4.311,0,0,1,1,2.981v.1A4.722,4.722,0,0,1,5.889-1.8,3.365,3.365,0,0,1,4.622-.366,3.509,3.509,0,0,1,2.728.146,3.334,3.334,0,0,1,.117-.974a4.29,4.29,0,0,1-1-2.966ZM.48-3.875a3.39,3.39,0,0,0,.612,2.117,1.957,1.957,0,0,0,1.637.8,1.945,1.945,0,0,0,1.641-.809,3.707,3.707,0,0,0,.608-2.267,3.384,3.384,0,0,0-.619-2.113,1.968,1.968,0,0,0-1.644-.809,1.946,1.946,0,0,0-1.619.8A3.68,3.68,0,0,0,.48-3.875ZM11.862-6.709A4.061,4.061,0,0,0,11.2-6.76,1.786,1.786,0,0,0,9.386-5.625V0H8.031V-7.925H9.349l.022.916a2.11,2.11,0,0,1,1.89-1.062,1.384,1.384,0,0,1,.6.1ZM14.579,0H13.224V-7.925h1.355ZM13.114-10.027a.809.809,0,0,1,.2-.557.756.756,0,0,1,.6-.227.768.768,0,0,1,.6.227.8.8,0,0,1,.205.557.774.774,0,0,1-.205.549.782.782,0,0,1-.6.22.77.77,0,0,1-.6-.22A.782.782,0,0,1,13.114-10.027ZM21.639,0a2.846,2.846,0,0,1-.19-.835,3.023,3.023,0,0,1-2.256.981,2.8,2.8,0,0,1-1.923-.663A2.145,2.145,0,0,1,16.52-2.2a2.24,2.24,0,0,1,.941-1.923A4.437,4.437,0,0,1,20.109-4.8h1.318v-.623A1.522,1.522,0,0,0,21-6.559,1.707,1.707,0,0,0,19.75-6.98a1.976,1.976,0,0,0-1.216.366,1.079,1.079,0,0,0-.491.886H16.681A1.87,1.87,0,0,1,17.1-6.874a2.874,2.874,0,0,1,1.143-.875,3.844,3.844,0,0,1,1.586-.322,3.133,3.133,0,0,1,2.146.685A2.47,2.47,0,0,1,22.782-5.5v3.647A4.459,4.459,0,0,0,23.06-.117V0ZM19.391-1.033a2.381,2.381,0,0,0,1.208-.33,1.994,1.994,0,0,0,.828-.857V-3.845H20.365q-2.49,0-2.49,1.458a1.234,1.234,0,0,0,.425,1A1.633,1.633,0,0,0,19.391-1.033ZM26.378,0H25.023V-11.25h1.355Z" transform="translate(533.428 9844.312)" fill="#12263f"/>
    </g>
    <path id="Unión_29" data-name="Unión 29" d="M-1516,11744.6h6.264V11712h4.474v32.6H-1499l-8.5,7.2Z" transform="translate(2044.503 -2064.453)" fill="#3a1d71"/>
    <rect id="Rectángulo_405370" data-name="Rectángulo 405370" width="256.526" height="36.877" transform="translate(407.141 9611.546)" fill="#f0c518"/>
    <path id="Trazado_891289" data-name="Trazado 891289" d="M-98.038,0V-6.877h-1.252V-7.925h1.252v-.813a2.7,2.7,0,0,1,.681-1.97,2.573,2.573,0,0,1,1.926-.7,3.578,3.578,0,0,1,.93.124l-.073,1.092a3.892,3.892,0,0,0-.732-.066,1.322,1.322,0,0,0-1.018.386,1.564,1.564,0,0,0-.359,1.106v.838h1.692v1.047h-1.692V0ZM-88.6,0a2.846,2.846,0,0,1-.19-.835,3.023,3.023,0,0,1-2.256.981,2.8,2.8,0,0,1-1.923-.663A2.145,2.145,0,0,1-93.724-2.2a2.24,2.24,0,0,1,.941-1.923A4.437,4.437,0,0,1-90.135-4.8h1.318v-.623a1.522,1.522,0,0,0-.425-1.132,1.707,1.707,0,0,0-1.252-.421,1.976,1.976,0,0,0-1.216.366,1.079,1.079,0,0,0-.491.886h-1.362a1.87,1.87,0,0,1,.421-1.146A2.874,2.874,0,0,1-92-7.749a3.844,3.844,0,0,1,1.586-.322,3.133,3.133,0,0,1,2.146.685A2.47,2.47,0,0,1-87.462-5.5v3.647a4.459,4.459,0,0,0,.278,1.736V0Zm-2.249-1.033a2.381,2.381,0,0,0,1.208-.33,1.994,1.994,0,0,0,.828-.857V-3.845h-1.062q-2.49,0-2.49,1.458a1.234,1.234,0,0,0,.425,1A1.633,1.633,0,0,0-90.853-1.033Zm8.694.073A1.952,1.952,0,0,0-80.892-1.4a1.546,1.546,0,0,0,.6-1.1h1.282a2.457,2.457,0,0,1-.469,1.3,3.087,3.087,0,0,1-1.154.981,3.329,3.329,0,0,1-1.527.366,3.265,3.265,0,0,1-2.574-1.08,4.3,4.3,0,0,1-.956-2.955v-.227a4.771,4.771,0,0,1,.425-2.058,3.236,3.236,0,0,1,1.219-1.4,3.464,3.464,0,0,1,1.879-.5,3.178,3.178,0,0,1,2.216.8A2.853,2.853,0,0,1-79.01-5.2h-1.282a1.867,1.867,0,0,0-.582-1.263,1.811,1.811,0,0,0-1.293-.494,1.9,1.9,0,0,0-1.6.743,3.491,3.491,0,0,0-.568,2.15v.256A3.422,3.422,0,0,0-83.771-1.7,1.906,1.906,0,0,0-82.159-.959Zm6.511-8.884v1.919h1.479v1.047h-1.479v4.921a1.1,1.1,0,0,0,.2.715A.832.832,0,0,0-74.777-1a3.281,3.281,0,0,0,.645-.088V0a3.951,3.951,0,0,1-1.04.146A1.687,1.687,0,0,1-76.542-.4,2.36,2.36,0,0,1-77-1.963V-6.877h-1.443V-7.925H-77V-9.844Zm2.556,5.808a4.681,4.681,0,0,1,.458-2.095A3.415,3.415,0,0,1-71.36-7.566,3.469,3.469,0,0,1-69.5-8.071a3.342,3.342,0,0,1,2.618,1.121,4.311,4.311,0,0,1,1,2.981v.1A4.722,4.722,0,0,1-66.321-1.8,3.365,3.365,0,0,1-67.588-.366a3.509,3.509,0,0,1-1.893.513A3.334,3.334,0,0,1-72.092-.974a4.29,4.29,0,0,1-1-2.966Zm1.362.161a3.39,3.39,0,0,0,.612,2.117,1.957,1.957,0,0,0,1.637.8,1.945,1.945,0,0,0,1.641-.809,3.707,3.707,0,0,0,.608-2.267,3.384,3.384,0,0,0-.619-2.113A1.968,1.968,0,0,0-69.5-6.958a1.946,1.946,0,0,0-1.619.8A3.68,3.68,0,0,0-71.73-3.875Zm11.382-2.834a4.061,4.061,0,0,0-.667-.051,1.786,1.786,0,0,0-1.809,1.135V0h-1.355V-7.925h1.318l.022.916a2.11,2.11,0,0,1,1.89-1.062,1.384,1.384,0,0,1,.6.1ZM-57.631,0h-1.355V-7.925h1.355ZM-59.1-10.027a.809.809,0,0,1,.2-.557.756.756,0,0,1,.6-.227.768.768,0,0,1,.6.227.8.8,0,0,1,.205.557.774.774,0,0,1-.205.549.782.782,0,0,1-.6.22.77.77,0,0,1-.6-.22A.782.782,0,0,1-59.1-10.027ZM-50.57,0a2.846,2.846,0,0,1-.19-.835,3.023,3.023,0,0,1-2.256.981,2.8,2.8,0,0,1-1.923-.663A2.145,2.145,0,0,1-55.69-2.2a2.24,2.24,0,0,1,.941-1.923A4.437,4.437,0,0,1-52.1-4.8h1.318v-.623a1.522,1.522,0,0,0-.425-1.132A1.707,1.707,0,0,0-52.46-6.98a1.976,1.976,0,0,0-1.216.366,1.079,1.079,0,0,0-.491.886h-1.362a1.87,1.87,0,0,1,.421-1.146,2.874,2.874,0,0,1,1.143-.875,3.844,3.844,0,0,1,1.586-.322,3.133,3.133,0,0,1,2.146.685A2.47,2.47,0,0,1-49.427-5.5v3.647a4.459,4.459,0,0,0,.278,1.736V0Zm-2.249-1.033a2.381,2.381,0,0,0,1.208-.33,1.994,1.994,0,0,0,.828-.857V-3.845h-1.062q-2.49,0-2.49,1.458a1.234,1.234,0,0,0,.425,1A1.633,1.633,0,0,0-52.819-1.033ZM-45.831,0h-1.355V-11.25h1.355Zm12.078-5.962h-6.108V-7.141h6.108Zm0,3.04h-6.108V-4.094h6.108ZM-27.338,0V-6.877H-28.59V-7.925h1.252v-.813a2.7,2.7,0,0,1,.681-1.97,2.573,2.573,0,0,1,1.926-.7,3.578,3.578,0,0,1,.93.124l-.073,1.092a3.892,3.892,0,0,0-.732-.066,1.322,1.322,0,0,0-1.018.386,1.564,1.564,0,0,0-.359,1.106v.838h1.692v1.047h-1.692V0ZM-17.9,0a2.846,2.846,0,0,1-.19-.835A3.023,3.023,0,0,1-20.35.146a2.8,2.8,0,0,1-1.923-.663A2.145,2.145,0,0,1-23.024-2.2a2.24,2.24,0,0,1,.941-1.923A4.437,4.437,0,0,1-19.435-4.8h1.318v-.623a1.522,1.522,0,0,0-.425-1.132,1.707,1.707,0,0,0-1.252-.421,1.976,1.976,0,0,0-1.216.366,1.079,1.079,0,0,0-.491.886h-1.362a1.87,1.87,0,0,1,.421-1.146A2.874,2.874,0,0,1-21.3-7.749a3.844,3.844,0,0,1,1.586-.322,3.133,3.133,0,0,1,2.146.685A2.47,2.47,0,0,1-16.761-5.5v3.647a4.459,4.459,0,0,0,.278,1.736V0Zm-2.249-1.033a2.381,2.381,0,0,0,1.208-.33,1.994,1.994,0,0,0,.828-.857V-3.845h-1.062q-2.49,0-2.49,1.458a1.234,1.234,0,0,0,.425,1A1.633,1.633,0,0,0-20.153-1.033Zm8.694.073A1.952,1.952,0,0,0-10.192-1.4a1.546,1.546,0,0,0,.6-1.1h1.282a2.457,2.457,0,0,1-.469,1.3A3.087,3.087,0,0,1-9.932-.22a3.329,3.329,0,0,1-1.527.366,3.265,3.265,0,0,1-2.574-1.08,4.3,4.3,0,0,1-.956-2.955v-.227a4.771,4.771,0,0,1,.425-2.058,3.236,3.236,0,0,1,1.219-1.4,3.464,3.464,0,0,1,1.879-.5,3.178,3.178,0,0,1,2.216.8A2.853,2.853,0,0,1-8.309-5.2H-9.591a1.867,1.867,0,0,0-.582-1.263,1.811,1.811,0,0,0-1.293-.494,1.9,1.9,0,0,0-1.6.743,3.491,3.491,0,0,0-.568,2.15v.256A3.422,3.422,0,0,0-13.07-1.7,1.906,1.906,0,0,0-11.459-.959Zm6.511-8.884v1.919h1.479v1.047H-4.948v4.921a1.1,1.1,0,0,0,.2.715A.832.832,0,0,0-4.076-1a3.281,3.281,0,0,0,.645-.088V0a3.951,3.951,0,0,1-1.04.146A1.687,1.687,0,0,1-5.841-.4,2.36,2.36,0,0,1-6.3-1.963V-6.877H-7.745V-7.925H-6.3V-9.844Zm2.556,5.808A4.681,4.681,0,0,1-1.934-6.13,3.415,3.415,0,0,1-.659-7.566,3.469,3.469,0,0,1,1.2-8.071,3.342,3.342,0,0,1,3.823-6.951a4.311,4.311,0,0,1,1,2.981v.1A4.722,4.722,0,0,1,4.38-1.8,3.365,3.365,0,0,1,3.113-.366,3.509,3.509,0,0,1,1.219.146,3.334,3.334,0,0,1-1.392-.974a4.29,4.29,0,0,1-1-2.966Zm1.362.161A3.39,3.39,0,0,0-.417-1.758a1.957,1.957,0,0,0,1.637.8A1.945,1.945,0,0,0,2.86-1.769a3.707,3.707,0,0,0,.608-2.267,3.384,3.384,0,0,0-.619-2.113A1.968,1.968,0,0,0,1.2-6.958a1.946,1.946,0,0,0-1.619.8A3.68,3.68,0,0,0-1.029-3.875ZM10.353-6.709a4.061,4.061,0,0,0-.667-.051A1.786,1.786,0,0,0,7.877-5.625V0H6.522V-7.925H7.841l.022.916a2.11,2.11,0,0,1,1.89-1.062,1.384,1.384,0,0,1,.6.1ZM13.07,0H11.715V-7.925H13.07ZM11.605-10.027a.809.809,0,0,1,.2-.557.756.756,0,0,1,.6-.227.768.768,0,0,1,.6.227.8.8,0,0,1,.205.557A.774.774,0,0,1,13-9.478a.782.782,0,0,1-.6.22.77.77,0,0,1-.6-.22A.782.782,0,0,1,11.605-10.027ZM20.131,0a2.846,2.846,0,0,1-.19-.835,3.023,3.023,0,0,1-2.256.981,2.8,2.8,0,0,1-1.923-.663A2.145,2.145,0,0,1,15.011-2.2a2.24,2.24,0,0,1,.941-1.923A4.437,4.437,0,0,1,18.6-4.8h1.318v-.623a1.522,1.522,0,0,0-.425-1.132,1.707,1.707,0,0,0-1.252-.421,1.976,1.976,0,0,0-1.216.366,1.079,1.079,0,0,0-.491.886H15.172a1.87,1.87,0,0,1,.421-1.146,2.874,2.874,0,0,1,1.143-.875,3.844,3.844,0,0,1,1.586-.322,3.133,3.133,0,0,1,2.146.685A2.47,2.47,0,0,1,21.273-5.5v3.647a4.459,4.459,0,0,0,.278,1.736V0ZM17.882-1.033a2.381,2.381,0,0,0,1.208-.33,1.994,1.994,0,0,0,.828-.857V-3.845H18.856q-2.49,0-2.49,1.458a1.234,1.234,0,0,0,.425,1A1.633,1.633,0,0,0,17.882-1.033ZM24.869,0H23.514V-11.25h1.355Zm7.273-7.2L29.93-7.862l.337-1.1,2.212.82-.066-2.517h1.121l-.073,2.554,2.175-.8L35.973-7.8l-2.249.666,1.45,1.985-.908.688L32.9-6.573,31.586-4.515l-.916-.667ZM44.1-.959A1.952,1.952,0,0,0,45.37-1.4a1.546,1.546,0,0,0,.6-1.1h1.282a2.457,2.457,0,0,1-.469,1.3A3.087,3.087,0,0,1,45.63-.22,3.329,3.329,0,0,1,44.1.146a3.265,3.265,0,0,1-2.574-1.08,4.3,4.3,0,0,1-.956-2.955v-.227A4.771,4.771,0,0,1,41-6.174a3.236,3.236,0,0,1,1.219-1.4,3.464,3.464,0,0,1,1.879-.5,3.178,3.178,0,0,1,2.216.8A2.853,2.853,0,0,1,47.252-5.2H45.97a1.867,1.867,0,0,0-.582-1.263A1.811,1.811,0,0,0,44.1-6.958a1.9,1.9,0,0,0-1.6.743,3.491,3.491,0,0,0-.568,2.15v.256A3.422,3.422,0,0,0,42.491-1.7,1.906,1.906,0,0,0,44.1-.959Zm4.314-3.076a4.681,4.681,0,0,1,.458-2.095,3.415,3.415,0,0,1,1.274-1.436,3.469,3.469,0,0,1,1.864-.505,3.342,3.342,0,0,1,2.618,1.121,4.311,4.311,0,0,1,1,2.981v.1A4.722,4.722,0,0,1,55.188-1.8,3.365,3.365,0,0,1,53.921-.366a3.509,3.509,0,0,1-1.893.513A3.334,3.334,0,0,1,49.417-.974a4.29,4.29,0,0,1-1-2.966Zm1.362.161a3.39,3.39,0,0,0,.612,2.117,1.957,1.957,0,0,0,1.637.8,1.945,1.945,0,0,0,1.641-.809,3.707,3.707,0,0,0,.608-2.267,3.384,3.384,0,0,0-.619-2.113,1.968,1.968,0,0,0-1.644-.809,1.946,1.946,0,0,0-1.619.8A3.68,3.68,0,0,0,49.779-3.875Zm8.833-4.05.044,1a2.888,2.888,0,0,1,2.373-1.143q2.512,0,2.534,2.834V0H62.208V-5.244a1.824,1.824,0,0,0-.392-1.267,1.57,1.57,0,0,0-1.2-.41,1.956,1.956,0,0,0-1.157.352,2.387,2.387,0,0,0-.776.923V0H57.33V-7.925Zm8.833-1.919v1.919h1.479v1.047H67.445v4.921a1.1,1.1,0,0,0,.2.715A.832.832,0,0,0,68.317-1a3.281,3.281,0,0,0,.645-.088V0a3.951,3.951,0,0,1-1.04.146A1.687,1.687,0,0,1,66.552-.4a2.36,2.36,0,0,1-.461-1.56V-6.877H64.647V-7.925H66.09V-9.844ZM75.4,0a2.846,2.846,0,0,1-.19-.835,3.023,3.023,0,0,1-2.256.981A2.8,2.8,0,0,1,71.03-.516,2.145,2.145,0,0,1,70.28-2.2a2.24,2.24,0,0,1,.941-1.923A4.437,4.437,0,0,1,73.868-4.8h1.318v-.623a1.522,1.522,0,0,0-.425-1.132A1.707,1.707,0,0,0,73.51-6.98a1.976,1.976,0,0,0-1.216.366,1.079,1.079,0,0,0-.491.886H70.441a1.87,1.87,0,0,1,.421-1.146A2.874,2.874,0,0,1,72-7.749a3.844,3.844,0,0,1,1.586-.322,3.133,3.133,0,0,1,2.146.685A2.47,2.47,0,0,1,76.542-5.5v3.647A4.459,4.459,0,0,0,76.82-.117V0ZM73.151-1.033a2.381,2.381,0,0,0,1.208-.33,1.994,1.994,0,0,0,.828-.857V-3.845H74.125q-2.49,0-2.49,1.458a1.234,1.234,0,0,0,.425,1A1.633,1.633,0,0,0,73.151-1.033Zm5.186-3A4.642,4.642,0,0,1,79.2-6.962a2.733,2.733,0,0,1,2.263-1.11,2.748,2.748,0,0,1,2.2.952V-11.25h1.355V0H83.778l-.066-.85a2.759,2.759,0,0,1-2.263,1A2.707,2.707,0,0,1,79.2-.981a4.7,4.7,0,0,1-.868-2.944Zm1.355.154a3.515,3.515,0,0,0,.557,2.109A1.8,1.8,0,0,0,81.786-1a1.977,1.977,0,0,0,1.882-1.157V-5.8A1.992,1.992,0,0,0,81.8-6.921a1.808,1.808,0,0,0-1.553.769A3.87,3.87,0,0,0,79.691-3.875Zm7.075-.161a4.681,4.681,0,0,1,.458-2.095A3.415,3.415,0,0,1,88.5-7.566a3.469,3.469,0,0,1,1.864-.505,3.342,3.342,0,0,1,2.618,1.121,4.311,4.311,0,0,1,1,2.981v.1A4.722,4.722,0,0,1,93.538-1.8,3.365,3.365,0,0,1,92.271-.366a3.509,3.509,0,0,1-1.893.513A3.334,3.334,0,0,1,87.766-.974a4.29,4.29,0,0,1-1-2.966Zm1.362.161a3.39,3.39,0,0,0,.612,2.117,1.957,1.957,0,0,0,1.637.8,1.945,1.945,0,0,0,1.641-.809,3.707,3.707,0,0,0,.608-2.267,3.384,3.384,0,0,0-.619-2.113,1.968,1.968,0,0,0-1.644-.809,1.946,1.946,0,0,0-1.619.8A3.68,3.68,0,0,0,88.129-3.875ZM99.51-6.709a4.061,4.061,0,0,0-.667-.051,1.786,1.786,0,0,0-1.809,1.135V0H95.68V-7.925H97l.022.916a2.11,2.11,0,0,1,1.89-1.062,1.384,1.384,0,0,1,.6.1Z" transform="translate(537.327 9635.984)" fill="#12263f"/>
    <path id="Polígono_26" data-name="Polígono 26" d="M6.2,0l6.2,7.2H0Z" transform="translate(444.223 9537.077) rotate(90)" fill="#3a1d71"/>
    <path id="Unión_22" data-name="Unión 22" d="M0,61.832H4.474V0H0Z" transform="translate(376.165 9545.51) rotate(-90)" fill="#3a1d71"/>
    <path id="Unión_8" data-name="Unión 8" d="M-1516,11744.6h6.264V11712h4.474v32.6H-1499l-8.5,7.2Z" transform="translate(2044.503 -2135.843)" fill="#3a1d71"/>
    <path id="Trazado_890893" data-name="Trazado 890893" d="M2346.072-9265.836l98.857-41.749-98.857-42.017-91.7,42.017Z" transform="translate(-1809.15 18850.992)" fill="#f0c518"/>
    <path id="Trazado_891286" data-name="Trazado 891286" d="M4.484-1.023a2.082,2.082,0,0,0,1.352-.469,1.649,1.649,0,0,0,.641-1.172H7.844a2.621,2.621,0,0,1-.5,1.383A3.293,3.293,0,0,1,6.113-.234,3.55,3.55,0,0,1,4.484.156,3.482,3.482,0,0,1,1.738-1,4.59,4.59,0,0,1,.719-4.148v-.242a5.089,5.089,0,0,1,.453-2.2,3.451,3.451,0,0,1,1.3-1.492,3.7,3.7,0,0,1,2-.531,3.39,3.39,0,0,1,2.363.852,3.043,3.043,0,0,1,1,2.211H6.477a1.992,1.992,0,0,0-.621-1.348,1.932,1.932,0,0,0-1.379-.527,2.023,2.023,0,0,0-1.707.793,3.724,3.724,0,0,0-.605,2.293v.273a3.65,3.65,0,0,0,.6,2.25A2.033,2.033,0,0,0,4.484-1.023ZM9.086-4.3a4.993,4.993,0,0,1,.488-2.234A3.643,3.643,0,0,1,10.934-8.07a3.7,3.7,0,0,1,1.988-.539,3.565,3.565,0,0,1,2.793,1.2,4.6,4.6,0,0,1,1.066,3.18v.1a5.036,5.036,0,0,1-.473,2.215A3.589,3.589,0,0,1,14.957-.391a3.743,3.743,0,0,1-2.02.547,3.556,3.556,0,0,1-2.785-1.2A4.575,4.575,0,0,1,9.086-4.2Zm1.453.172a3.616,3.616,0,0,0,.652,2.258,2.088,2.088,0,0,0,1.746.852,2.075,2.075,0,0,0,1.75-.863A3.955,3.955,0,0,0,15.336-4.3a3.61,3.61,0,0,0-.66-2.254,2.1,2.1,0,0,0-1.754-.863A2.075,2.075,0,0,0,11.2-6.57,3.925,3.925,0,0,0,10.539-4.133Zm9.422-4.32.047,1.063a3.08,3.08,0,0,1,2.531-1.219q2.68,0,2.7,3.023V0H23.8V-5.594a1.946,1.946,0,0,0-.418-1.352A1.675,1.675,0,0,0,22.1-7.383a2.086,2.086,0,0,0-1.234.375,2.546,2.546,0,0,0-.828.984V0H18.594V-8.453ZM29.383-10.5v2.047h1.578v1.117H29.383v5.249a1.173,1.173,0,0,0,.211.763.888.888,0,0,0,.719.254A3.5,3.5,0,0,0,31-1.164V0a4.215,4.215,0,0,1-1.109.155A1.8,1.8,0,0,1,28.43-.43a2.517,2.517,0,0,1-.492-1.664V-7.336H26.4V-8.453h1.539V-10.5ZM37.867,0a3.036,3.036,0,0,1-.2-.891A3.225,3.225,0,0,1,35.258.156a2.984,2.984,0,0,1-2.051-.707,2.287,2.287,0,0,1-.8-1.793,2.39,2.39,0,0,1,1-2.051,4.733,4.733,0,0,1,2.824-.73h1.406v-.664A1.623,1.623,0,0,0,37.188-7a1.821,1.821,0,0,0-1.336-.449,2.107,2.107,0,0,0-1.3.391,1.151,1.151,0,0,0-.523.945H32.578a2,2,0,0,1,.449-1.223,3.066,3.066,0,0,1,1.219-.934,4.1,4.1,0,0,1,1.691-.344,3.342,3.342,0,0,1,2.289.73,2.635,2.635,0,0,1,.859,2.012v3.891a4.757,4.757,0,0,0,.3,1.852V0Zm-2.4-1.1a2.54,2.54,0,0,0,1.289-.352,2.127,2.127,0,0,0,.883-.914V-4.1H36.508q-2.656,0-2.656,1.555A1.316,1.316,0,0,0,34.3-1.484,1.742,1.742,0,0,0,35.469-1.1ZM41-4.3a4.952,4.952,0,0,1,.922-3.129,2.915,2.915,0,0,1,2.414-1.184,2.932,2.932,0,0,1,2.352,1.016V-12h1.445V0H46.8l-.07-.906A2.943,2.943,0,0,1,44.32.156a2.887,2.887,0,0,1-2.395-1.2A5.008,5.008,0,0,1,41-4.187Zm1.445.164a3.749,3.749,0,0,0,.594,2.25,1.92,1.92,0,0,0,1.641.813A2.108,2.108,0,0,0,46.688-2.3V-6.187a2.125,2.125,0,0,0-1.992-1.2,1.929,1.929,0,0,0-1.656.82A4.128,4.128,0,0,0,42.445-4.133ZM49.992-4.3a4.993,4.993,0,0,1,.488-2.234A3.643,3.643,0,0,1,51.84-8.07a3.7,3.7,0,0,1,1.988-.539,3.565,3.565,0,0,1,2.793,1.2,4.6,4.6,0,0,1,1.066,3.18v.1a5.036,5.036,0,0,1-.473,2.215A3.589,3.589,0,0,1,55.863-.391a3.743,3.743,0,0,1-2.02.547,3.556,3.556,0,0,1-2.785-1.2A4.575,4.575,0,0,1,49.992-4.2Zm1.453.172A3.616,3.616,0,0,0,52.1-1.875a2.088,2.088,0,0,0,1.746.852,2.075,2.075,0,0,0,1.75-.863A3.955,3.955,0,0,0,56.242-4.3a3.61,3.61,0,0,0-.66-2.254,2.1,2.1,0,0,0-1.754-.863A2.075,2.075,0,0,0,52.1-6.57,3.925,3.925,0,0,0,51.445-4.133ZM63.586-7.156a4.331,4.331,0,0,0-.711-.055A1.9,1.9,0,0,0,60.945-6V0H59.5V-8.453h1.406l.023.977a2.251,2.251,0,0,1,2.016-1.133,1.477,1.477,0,0,1,.641.109Zm6.258,2.125,4.891,1.977v1.531L68.344-4.484V-5.625l6.391-2.953v1.531ZM83.617-6.359H77.1V-7.617h6.516Zm0,3.242H77.1v-1.25h6.516Zm7.5-5.336.047,1.063A3.08,3.08,0,0,1,93.7-8.609q2.68,0,2.7,3.023V0H94.953V-5.594a1.946,1.946,0,0,0-.418-1.352,1.675,1.675,0,0,0-1.277-.437,2.086,2.086,0,0,0-1.234.375,2.546,2.546,0,0,0-.828.984V0H89.75V-8.453ZM103.8-.836a3.07,3.07,0,0,1-2.477.992,2.628,2.628,0,0,1-2.059-.785,3.4,3.4,0,0,1-.715-2.324v-5.5h1.445v5.461q0,1.922,1.563,1.922a2.163,2.163,0,0,0,2.2-1.234V-8.453H105.2V0h-1.375Zm4.961-7.617.039.938A3.122,3.122,0,0,1,111.3-8.609a2.417,2.417,0,0,1,2.414,1.359,3.2,3.2,0,0,1,1.1-.984,3.242,3.242,0,0,1,1.6-.375q2.781,0,2.828,2.945V0H117.8V-5.578a1.941,1.941,0,0,0-.414-1.355,1.823,1.823,0,0,0-1.391-.449,1.916,1.916,0,0,0-1.336.48,1.949,1.949,0,0,0-.617,1.293V0h-1.453V-5.539a1.613,1.613,0,0,0-1.8-1.844,1.934,1.934,0,0,0-1.945,1.211V0h-1.445V-8.453ZM124.93.156a3.693,3.693,0,0,1-2.8-1.129,4.19,4.19,0,0,1-1.078-3.02v-.266a5.073,5.073,0,0,1,.48-2.246,3.748,3.748,0,0,1,1.344-1.547,3.378,3.378,0,0,1,1.871-.559,3.166,3.166,0,0,1,2.563,1.086,4.7,4.7,0,0,1,.914,3.109v.6H122.5a3,3,0,0,0,.73,2.02,2.3,2.3,0,0,0,1.777.77,2.517,2.517,0,0,0,1.3-.312,3.259,3.259,0,0,0,.93-.828l.883.688A3.55,3.55,0,0,1,124.93.156Zm-.18-7.578a1.928,1.928,0,0,0-1.469.637A3.1,3.1,0,0,0,122.547-5h4.234v-.109a2.753,2.753,0,0,0-.594-1.707A1.815,1.815,0,0,0,124.75-7.422Zm9.234.266a4.331,4.331,0,0,0-.711-.055A1.9,1.9,0,0,0,131.344-6V0H129.9V-8.453H131.3l.023.977a2.251,2.251,0,0,1,2.016-1.133,1.477,1.477,0,0,1,.641.109Zm.789,2.852a4.993,4.993,0,0,1,.488-2.234,3.642,3.642,0,0,1,1.359-1.531,3.7,3.7,0,0,1,1.988-.539,3.565,3.565,0,0,1,2.793,1.2,4.6,4.6,0,0,1,1.066,3.18v.1A5.036,5.036,0,0,1,142-1.918a3.589,3.589,0,0,1-1.352,1.527,3.743,3.743,0,0,1-2.02.547,3.556,3.556,0,0,1-2.785-1.2A4.575,4.575,0,0,1,134.773-4.2Zm1.453.172a3.616,3.616,0,0,0,.652,2.258,2.088,2.088,0,0,0,1.746.852,2.075,2.075,0,0,0,1.75-.863,3.954,3.954,0,0,0,.648-2.418,3.61,3.61,0,0,0-.66-2.254,2.1,2.1,0,0,0-1.754-.863,2.075,2.075,0,0,0-1.727.852A3.925,3.925,0,0,0,136.227-4.133Z" transform="translate(467.323 9549.773)" fill="#12263f"/>
    <path id="Trazado_891287" data-name="Trazado 891287" d="M10.266,0H7.922L3.359-7.484V0H1.016V-11.375H3.359l4.57,7.5v-7.5h2.336ZM21.656-5.43a6.867,6.867,0,0,1-.594,2.945,4.472,4.472,0,0,1-1.7,1.953,4.7,4.7,0,0,1-2.535.688A4.732,4.732,0,0,1,14.3-.523a4.515,4.515,0,0,1-1.719-1.941,6.67,6.67,0,0,1-.617-2.9V-5.93a6.831,6.831,0,0,1,.605-2.957,4.508,4.508,0,0,1,1.711-1.961,4.706,4.706,0,0,1,2.527-.684,4.706,4.706,0,0,1,2.527.684,4.508,4.508,0,0,1,1.711,1.961,6.811,6.811,0,0,1,.605,2.949Zm-2.375-.516a4.787,4.787,0,0,0-.641-2.719,2.088,2.088,0,0,0-1.828-.93,2.088,2.088,0,0,0-1.82.918,4.732,4.732,0,0,0-.648,2.691v.555a4.847,4.847,0,0,0,.641,2.7,2.082,2.082,0,0,0,1.844.961,2.064,2.064,0,0,0,1.813-.926,4.819,4.819,0,0,0,.641-2.7Z" transform="translate(676 9533)" fill="#12263f"/>
    <path id="Trazado_891288" data-name="Trazado 891288" d="M6.914-2.984A1.2,1.2,0,0,0,6.445-4a6.148,6.148,0,0,0-1.687-.75,11.963,11.963,0,0,1-1.93-.777A3.153,3.153,0,0,1,.891-8.352,2.747,2.747,0,0,1,1.41-10,3.389,3.389,0,0,1,2.9-11.125a5.616,5.616,0,0,1,2.184-.406,5.112,5.112,0,0,1,2.172.441,3.458,3.458,0,0,1,1.48,1.246,3.261,3.261,0,0,1,.527,1.828H6.922A1.534,1.534,0,0,0,6.43-9.23a2.023,2.023,0,0,0-1.383-.434A2.162,2.162,0,0,0,3.711-9.3a1.146,1.146,0,0,0-.477.957,1.1,1.1,0,0,0,.559.93,6.311,6.311,0,0,0,1.645.7A7.106,7.106,0,0,1,8.352-5.219,2.972,2.972,0,0,1,9.266-3,2.737,2.737,0,0,1,8.148-.684a4.891,4.891,0,0,1-3.008.84A5.808,5.808,0,0,1,2.75-.324,3.783,3.783,0,0,1,1.105-1.641,3.371,3.371,0,0,1,.539-3.578H2.891q0,1.883,2.25,1.883a2.189,2.189,0,0,0,1.3-.34A1.106,1.106,0,0,0,6.914-2.984ZM13.344,0H11V-11.375h2.344Z" transform="translate(507 9600)" fill="#12263f"/>
    <rect id="Rectángulo_405452" data-name="Rectángulo 405452" width="4.474" height="161.484" transform="translate(378.402 9702.521) rotate(180)" fill="#3a1d71"/>
  </g>
</svg>
