<svg xmlns="http://www.w3.org/2000/svg" width="387.514" height="370.169" viewBox="0 0 387.514 370.169">
  <g id="Grupo_1105322" data-name="Grupo 1105322" transform="translate(-316 -3900)">
    <rect id="Rectángulo_405224" data-name="Rectángulo 405224" width="94" height="35" rx="17.5" transform="translate(491.303 3900)" fill="#f0c518"/>
    <path id="Trazado_891246" data-name="Trazado 891246" d="M2.93,0H1.43V-11.375h1.5ZM6.813-8.453l.047,1.063A3.08,3.08,0,0,1,9.391-8.609q2.68,0,2.7,3.023V0H10.648V-5.594a1.946,1.946,0,0,0-.418-1.352,1.675,1.675,0,0,0-1.277-.437,2.086,2.086,0,0,0-1.234.375,2.546,2.546,0,0,0-.828.984V0H5.445V-8.453ZM15.844,0H14.4V-8.453h1.445ZM14.281-10.7a.863.863,0,0,1,.215-.594.807.807,0,0,1,.637-.242.819.819,0,0,1,.641.242.854.854,0,0,1,.219.594.826.826,0,0,1-.219.586.834.834,0,0,1-.641.234.821.821,0,0,1-.637-.234A.834.834,0,0,1,14.281-10.7Zm7.266,9.672A2.082,2.082,0,0,0,22.9-1.492a1.649,1.649,0,0,0,.641-1.172h1.367a2.621,2.621,0,0,1-.5,1.383,3.293,3.293,0,0,1-1.23,1.047,3.55,3.55,0,0,1-1.629.391A3.482,3.482,0,0,1,18.8-1a4.59,4.59,0,0,1-1.02-3.152v-.242a5.089,5.089,0,0,1,.453-2.2,3.451,3.451,0,0,1,1.3-1.492,3.7,3.7,0,0,1,2-.531,3.39,3.39,0,0,1,2.363.852,3.043,3.043,0,0,1,1,2.211H23.539a1.992,1.992,0,0,0-.621-1.348,1.932,1.932,0,0,0-1.379-.527,2.023,2.023,0,0,0-1.707.793,3.724,3.724,0,0,0-.605,2.293v.273a3.65,3.65,0,0,0,.6,2.25A2.033,2.033,0,0,0,21.547-1.023ZM28.1,0H26.656V-8.453H28.1ZM26.539-10.7a.863.863,0,0,1,.215-.594.807.807,0,0,1,.637-.242.819.819,0,0,1,.641.242.854.854,0,0,1,.219.594.826.826,0,0,1-.219.586.834.834,0,0,1-.641.234.821.821,0,0,1-.637-.234A.834.834,0,0,1,26.539-10.7ZM30.031-4.3a4.993,4.993,0,0,1,.488-2.234A3.643,3.643,0,0,1,31.879-8.07a3.7,3.7,0,0,1,1.988-.539,3.565,3.565,0,0,1,2.793,1.2,4.6,4.6,0,0,1,1.066,3.18v.1a5.036,5.036,0,0,1-.473,2.215A3.589,3.589,0,0,1,35.9-.391a3.743,3.743,0,0,1-2.02.547,3.556,3.556,0,0,1-2.785-1.2A4.575,4.575,0,0,1,30.031-4.2Zm1.453.172a3.616,3.616,0,0,0,.652,2.258,2.088,2.088,0,0,0,1.746.852,2.075,2.075,0,0,0,1.75-.863A3.955,3.955,0,0,0,36.281-4.3a3.61,3.61,0,0,0-.66-2.254,2.1,2.1,0,0,0-1.754-.863,2.075,2.075,0,0,0-1.727.852A3.925,3.925,0,0,0,31.484-4.133Z" transform="translate(519.303 3924)" fill="#12263f"/>
    <path id="Unión_8" data-name="Unión 8" d="M-1516,11744.6h6.264V11712h4.474v32.6H-1499l-8.5,7.2Z" transform="translate(2045.303 -7704.16)" fill="#3a1d71"/>
    <g id="Grupo_1105320" data-name="Grupo 1105320" transform="translate(370.822 4173.969)">
      <path id="Unión_19" data-name="Unión 19" d="M0,326.43H4.474V0H0Z" transform="translate(6.262 39.2) rotate(-90)" fill="#3a1d71"/>
      <path id="Unión_20" data-name="Unión 20" d="M164.263,55.6V20h4.474V55.6ZM0,7.2,8.5,0,17,7.2Z" transform="translate(174.999 59.2) rotate(180)" fill="#3a1d71"/>
    </g>
    <path id="Trazado_890841" data-name="Trazado 890841" d="M10608.118-9407.836v41.133H10713.6v-57.081Z" transform="translate(-10122.815 13382.685)" fill="#f0c518"/>
    <path id="Trazado_891247" data-name="Trazado 891247" d="M-10.1-5.258h-4.93v4.031H-9.3V0h-7.227V-11.375h7.148v1.227h-5.648v3.664h4.93ZM-8.16-4.3a4.952,4.952,0,0,1,.922-3.129A2.915,2.915,0,0,1-4.824-8.609,2.932,2.932,0,0,1-2.473-7.594V-12h1.445V0H-2.355l-.07-.906A2.943,2.943,0,0,1-4.84.156a2.887,2.887,0,0,1-2.395-1.2A5.008,5.008,0,0,1-8.16-4.187Zm1.445.164a3.749,3.749,0,0,0,.594,2.25A1.92,1.92,0,0,0-4.48-1.07,2.108,2.108,0,0,0-2.473-2.3V-6.187a2.125,2.125,0,0,0-1.992-1.2,1.929,1.929,0,0,0-1.656.82A4.128,4.128,0,0,0-6.715-4.133ZM6.434,0a3.036,3.036,0,0,1-.2-.891A3.225,3.225,0,0,1,3.824.156,2.984,2.984,0,0,1,1.773-.551a2.287,2.287,0,0,1-.8-1.793,2.39,2.39,0,0,1,1-2.051A4.733,4.733,0,0,1,4.8-5.125H6.207v-.664A1.623,1.623,0,0,0,5.754-7a1.821,1.821,0,0,0-1.336-.449,2.107,2.107,0,0,0-1.3.391,1.151,1.151,0,0,0-.523.945H1.145a2,2,0,0,1,.449-1.223,3.066,3.066,0,0,1,1.219-.934A4.1,4.1,0,0,1,4.5-8.609a3.342,3.342,0,0,1,2.289.73,2.635,2.635,0,0,1,.859,2.012v3.891a4.757,4.757,0,0,0,.3,1.852V0Zm-2.4-1.1a2.54,2.54,0,0,0,1.289-.352,2.127,2.127,0,0,0,.883-.914V-4.1H5.074q-2.656,0-2.656,1.555a1.316,1.316,0,0,0,.453,1.063A1.742,1.742,0,0,0,4.035-1.1ZM9.566-4.3a4.952,4.952,0,0,1,.922-3.129A2.915,2.915,0,0,1,12.9-8.609a2.932,2.932,0,0,1,2.352,1.016V-12H16.7V0H15.371L15.3-.906A2.943,2.943,0,0,1,12.887.156a2.887,2.887,0,0,1-2.395-1.2,5.008,5.008,0,0,1-.926-3.141Zm1.445.164a3.749,3.749,0,0,0,.594,2.25,1.92,1.92,0,0,0,1.641.813A2.108,2.108,0,0,0,15.254-2.3V-6.187a2.125,2.125,0,0,0-1.992-1.2,1.929,1.929,0,0,0-1.656.82A4.128,4.128,0,0,0,11.012-4.133Z" transform="translate(538.303 3998.797)" fill="#12263f"/>
    <path id="Trazado_891249" data-name="Trazado 891249" d="M-2.25-5.07A7.053,7.053,0,0,1-5.059-6.434a2.6,2.6,0,0,1-.879-2,2.751,2.751,0,0,1,1.074-2.223,4.269,4.269,0,0,1,2.793-.879,4.66,4.66,0,0,1,2.09.453,3.436,3.436,0,0,1,1.422,1.25,3.2,3.2,0,0,1,.5,1.742H.438A2.08,2.08,0,0,0-.219-9.713,2.669,2.669,0,0,0-2.07-10.3a2.732,2.732,0,0,0-1.73.489,1.632,1.632,0,0,0-.621,1.358,1.468,1.468,0,0,0,.59,1.178,5.785,5.785,0,0,0,2.008.88,9.316,9.316,0,0,1,2.219.88A3.367,3.367,0,0,1,1.582-4.4a2.861,2.861,0,0,1,.387,1.508A2.658,2.658,0,0,1,.891-.676,4.6,4.6,0,0,1-1.992.156,5.347,5.347,0,0,1-4.18-.293a3.681,3.681,0,0,1-1.566-1.23A3,3,0,0,1-6.3-3.3h1.508a1.959,1.959,0,0,0,.762,1.629,3.207,3.207,0,0,0,2.035.6,2.948,2.948,0,0,0,1.82-.484,1.573,1.573,0,0,0,.633-1.32A1.545,1.545,0,0,0-.125-4.168,6.755,6.755,0,0,0-2.25-5.07ZM5.5,0H4V-11.375H5.5Z" transform="translate(384.084 4076.473)" fill="#12263f"/>
    <path id="Unión_7" data-name="Unión 7" d="M-1516,11744.6h6.264V11712h4.474v32.6H-1499l-8.5,7.2Z" transform="translate(2045.303 -7784)" fill="#3a1d71"/>
    <path id="Trazado_890677" data-name="Trazado 890677" d="M2585.617-8949v-54.813h121.328V-8949s1.878,6.794-28.454,6.794c-14.984,0-40.12-10.05-59.708-11.754C2599.339-8955.657,2585.617-8949,2585.617-8949Z" transform="translate(-2269.617 13125.98)" fill="#f0c518"/>
    <g id="Grupo_1105321" data-name="Grupo 1105321">
      <rect id="Rectángulo_405353" data-name="Rectángulo 405353" width="94" height="35" rx="17.5" transform="translate(491 4235.169)" fill="#f0c518"/>
      <path id="Trazado_891251" data-name="Trazado 891251" d="M7.594-5.023H2.82V0H1.32V-11.375H8.367v1.227H2.82v3.9H7.594ZM11.508,0H10.063V-8.453h1.445ZM9.945-10.7a.863.863,0,0,1,.215-.594.807.807,0,0,1,.637-.242.819.819,0,0,1,.641.242.854.854,0,0,1,.219.594.826.826,0,0,1-.219.586.834.834,0,0,1-.641.234.821.821,0,0,1-.637-.234A.834.834,0,0,1,9.945-10.7Zm5.242,2.242.047,1.063a3.08,3.08,0,0,1,2.531-1.219q2.68,0,2.7,3.023V0H19.023V-5.594a1.946,1.946,0,0,0-.418-1.352,1.675,1.675,0,0,0-1.277-.437,2.086,2.086,0,0,0-1.234.375,2.546,2.546,0,0,0-.828.984V0H13.82V-8.453ZM27.867,0a3.036,3.036,0,0,1-.2-.891A3.225,3.225,0,0,1,25.258.156a2.984,2.984,0,0,1-2.051-.707,2.287,2.287,0,0,1-.8-1.793,2.39,2.39,0,0,1,1-2.051,4.733,4.733,0,0,1,2.824-.73h1.406v-.664A1.623,1.623,0,0,0,27.188-7a1.821,1.821,0,0,0-1.336-.449,2.108,2.108,0,0,0-1.3.391,1.151,1.151,0,0,0-.523.945H22.578a2,2,0,0,1,.449-1.223,3.066,3.066,0,0,1,1.219-.934,4.1,4.1,0,0,1,1.691-.344,3.342,3.342,0,0,1,2.289.73,2.635,2.635,0,0,1,.859,2.012v3.891a4.757,4.757,0,0,0,.3,1.852V0Zm-2.4-1.1a2.54,2.54,0,0,0,1.289-.352,2.127,2.127,0,0,0,.883-.914V-4.1H26.508q-2.656,0-2.656,1.555A1.316,1.316,0,0,0,24.3-1.484,1.742,1.742,0,0,0,25.469-1.1ZM32.922,0H31.477V-12h1.445Z" transform="translate(521 4259.169)" fill="#12263f"/>
    </g>
    <rect id="Rectángulo_405356" data-name="Rectángulo 405356" width="4.474" height="121.888" transform="translate(699.041 4090.281)" fill="#3a1d71"/>
    <rect id="Rectángulo_405358" data-name="Rectángulo 405358" width="4.474" height="18.888" transform="translate(535.264 4208.823)" fill="#3a1d71"/>
    <path id="Unión_21" data-name="Unión 21" d="M-1509.737,11712h4.474v135.871h-4.474Z" transform="translate(12415.516 5597.781) rotate(90)" fill="#3a1d71"/>
    <path id="Trazado_891250" data-name="Trazado 891250" d="M-52.214-10.254l-.22,2.622h-.813l.007-3.618h1.025Zm1.978,0-.22,2.622h-.813l.007-3.618h1.025Zm9.536-.41v7.251a3.4,3.4,0,0,1-.948,2.468A3.822,3.822,0,0,1-44.2.132l-.374.015A3.992,3.992,0,0,1-47.366-.8,3.379,3.379,0,0,1-48.42-3.4v-7.266h1.392v7.222a2.439,2.439,0,0,0,.637,1.8A2.449,2.449,0,0,0-44.575-1a2.465,2.465,0,0,0,1.827-.637,2.435,2.435,0,0,0,.634-1.794v-7.229ZM-34.08-2.1a1,1,0,0,0-.414-.853,3.983,3.983,0,0,0-1.443-.524,6.822,6.822,0,0,1-1.633-.527,2.324,2.324,0,0,1-.894-.732,1.752,1.752,0,0,1-.289-1.011A2.056,2.056,0,0,1-37.928-7.4a3.218,3.218,0,0,1,2.106-.674,3.311,3.311,0,0,1,2.186.7A2.21,2.21,0,0,1-32.8-5.6H-34.16a1.223,1.223,0,0,0-.472-.959,1.77,1.77,0,0,0-1.19-.4,1.852,1.852,0,0,0-1.157.322,1.014,1.014,0,0,0-.417.842.822.822,0,0,0,.388.74,4.776,4.776,0,0,0,1.4.476,7.308,7.308,0,0,1,1.644.542,2.4,2.4,0,0,1,.934.758,1.864,1.864,0,0,1,.3,1.08,2.028,2.028,0,0,1-.85,1.7,3.564,3.564,0,0,1-2.2.641A3.991,3.991,0,0,1-37.463-.19a2.74,2.74,0,0,1-1.146-.941,2.268,2.268,0,0,1-.414-1.307h1.355a1.4,1.4,0,0,0,.546,1.08,2.117,2.117,0,0,0,1.344.4,2.185,2.185,0,0,0,1.234-.311A.956.956,0,0,0-34.08-2.1Zm4.958-7.742v1.919h1.479v1.047h-1.479v4.921a1.1,1.1,0,0,0,.2.715A.832.832,0,0,0-28.25-1a3.281,3.281,0,0,0,.645-.088V0a3.951,3.951,0,0,1-1.04.146A1.687,1.687,0,0,1-30.015-.4a2.36,2.36,0,0,1-.461-1.56V-6.877h-1.443V-7.925h1.443V-9.844Zm6.35,9.99A3.463,3.463,0,0,1-25.393-.912,3.928,3.928,0,0,1-26.4-3.743v-.249a4.756,4.756,0,0,1,.45-2.106,3.514,3.514,0,0,1,1.26-1.45,3.167,3.167,0,0,1,1.754-.524,2.968,2.968,0,0,1,2.4,1.018,4.408,4.408,0,0,1,.857,2.915v.564h-5.369a2.817,2.817,0,0,0,.685,1.893A2.153,2.153,0,0,0-22.7-.959a2.36,2.36,0,0,0,1.216-.293,3.055,3.055,0,0,0,.872-.776l.828.645A3.328,3.328,0,0,1-22.771.146Zm-.168-7.1a1.807,1.807,0,0,0-1.377.6A2.9,2.9,0,0,0-25-4.687h3.97v-.1a2.581,2.581,0,0,0-.557-1.6A1.7,1.7,0,0,0-22.939-6.958Zm4.5,2.93a4.642,4.642,0,0,1,.864-2.933,2.733,2.733,0,0,1,2.263-1.11,2.748,2.748,0,0,1,2.2.952V-11.25h1.355V0H-13l-.066-.85a2.759,2.759,0,0,1-2.263,1A2.707,2.707,0,0,1-17.574-.981a4.7,4.7,0,0,1-.868-2.944Zm1.355.154a3.515,3.515,0,0,0,.557,2.109A1.8,1.8,0,0,0-14.993-1,1.977,1.977,0,0,0-13.11-2.161V-5.8a1.992,1.992,0,0,0-1.868-1.121,1.808,1.808,0,0,0-1.553.769A3.87,3.87,0,0,0-17.087-3.875ZM-2.651.146A3.463,3.463,0,0,1-5.273-.912,3.928,3.928,0,0,1-6.284-3.743v-.249A4.756,4.756,0,0,1-5.834-6.1a3.514,3.514,0,0,1,1.26-1.45A3.167,3.167,0,0,1-2.82-8.071a2.968,2.968,0,0,1,2.4,1.018A4.408,4.408,0,0,1,.439-4.138v.564H-4.929a2.817,2.817,0,0,0,.685,1.893,2.153,2.153,0,0,0,1.666.721,2.36,2.36,0,0,0,1.216-.293,3.055,3.055,0,0,0,.872-.776l.828.645A3.328,3.328,0,0,1-2.651.146Zm-.168-7.1a1.807,1.807,0,0,0-1.377.6,2.9,2.9,0,0,0-.688,1.674h3.97v-.1a2.581,2.581,0,0,0-.557-1.6A1.7,1.7,0,0,0-2.82-6.958ZM6.621-2.1a1,1,0,0,0-.414-.853,3.983,3.983,0,0,0-1.443-.524,6.822,6.822,0,0,1-1.633-.527,2.324,2.324,0,0,1-.894-.732A1.752,1.752,0,0,1,1.948-5.75,2.056,2.056,0,0,1,2.772-7.4a3.218,3.218,0,0,1,2.106-.674,3.311,3.311,0,0,1,2.186.7A2.21,2.21,0,0,1,7.9-5.6H6.541a1.223,1.223,0,0,0-.472-.959,1.77,1.77,0,0,0-1.19-.4,1.852,1.852,0,0,0-1.157.322,1.014,1.014,0,0,0-.417.842.822.822,0,0,0,.388.74,4.776,4.776,0,0,0,1.4.476,7.308,7.308,0,0,1,1.644.542,2.4,2.4,0,0,1,.934.758,1.864,1.864,0,0,1,.3,1.08,2.028,2.028,0,0,1-.85,1.7,3.564,3.564,0,0,1-2.2.641A3.991,3.991,0,0,1,3.237-.19a2.74,2.74,0,0,1-1.146-.941,2.268,2.268,0,0,1-.414-1.307H3.032a1.4,1.4,0,0,0,.546,1.08,2.117,2.117,0,0,0,1.344.4,2.185,2.185,0,0,0,1.234-.311A.956.956,0,0,0,6.621-2.1Zm8.108-5.823.037.879a2.927,2.927,0,0,1,2.351-1.025A2.266,2.266,0,0,1,19.38-6.8a3,3,0,0,1,1.029-.923,3.039,3.039,0,0,1,1.5-.352q2.607,0,2.651,2.761V0H23.2V-5.229A1.82,1.82,0,0,0,22.815-6.5a1.71,1.71,0,0,0-1.3-.421,1.8,1.8,0,0,0-1.252.45,1.827,1.827,0,0,0-.579,1.212V0H18.318V-5.193a1.512,1.512,0,0,0-1.692-1.729A1.813,1.813,0,0,0,14.8-5.786V0H13.447V-7.925ZM31.494,0a2.846,2.846,0,0,1-.19-.835,3.023,3.023,0,0,1-2.256.981,2.8,2.8,0,0,1-1.923-.663A2.145,2.145,0,0,1,26.375-2.2a2.24,2.24,0,0,1,.941-1.923A4.437,4.437,0,0,1,29.963-4.8h1.318v-.623a1.522,1.522,0,0,0-.425-1.132A1.707,1.707,0,0,0,29.6-6.98a1.976,1.976,0,0,0-1.216.366,1.079,1.079,0,0,0-.491.886H26.536a1.87,1.87,0,0,1,.421-1.146A2.874,2.874,0,0,1,28.1-7.749a3.844,3.844,0,0,1,1.586-.322,3.133,3.133,0,0,1,2.146.685A2.47,2.47,0,0,1,32.637-5.5v3.647a4.459,4.459,0,0,0,.278,1.736V0ZM29.246-1.033a2.381,2.381,0,0,0,1.208-.33,1.994,1.994,0,0,0,.828-.857V-3.845H30.22q-2.49,0-2.49,1.458a1.234,1.234,0,0,0,.425,1A1.633,1.633,0,0,0,29.246-1.033Zm8-.952,1.846-5.94h1.45L37.354,1.223Q36.614,3.2,35,3.2l-.256-.022-.505-.1v-1.1l.366.029a1.8,1.8,0,0,0,1.073-.278A2.014,2.014,0,0,0,36.313.718l.3-.806L33.787-7.925h1.479Zm4.036-2.051a4.681,4.681,0,0,1,.458-2.095,3.415,3.415,0,0,1,1.274-1.436,3.469,3.469,0,0,1,1.864-.505,3.342,3.342,0,0,1,2.618,1.121,4.311,4.311,0,0,1,1,2.981v.1A4.722,4.722,0,0,1,48.051-1.8,3.365,3.365,0,0,1,46.783-.366,3.509,3.509,0,0,1,44.89.146,3.334,3.334,0,0,1,42.279-.974a4.29,4.29,0,0,1-1-2.966Zm1.362.161a3.39,3.39,0,0,0,.612,2.117,1.957,1.957,0,0,0,1.637.8,1.945,1.945,0,0,0,1.641-.809,3.707,3.707,0,0,0,.608-2.267,3.384,3.384,0,0,0-.619-2.113,1.968,1.968,0,0,0-1.644-.809,1.946,1.946,0,0,0-1.619.8A3.68,3.68,0,0,0,42.642-3.875ZM54.023-6.709a4.061,4.061,0,0,0-.667-.051,1.786,1.786,0,0,0-1.809,1.135V0H50.193V-7.925h1.318l.022.916a2.11,2.11,0,0,1,1.89-1.062,1.384,1.384,0,0,1,.6.1Zm-82.3,18.681a4.642,4.642,0,0,1,.864-2.933,2.733,2.733,0,0,1,2.263-1.11,2.748,2.748,0,0,1,2.2.952V4.75h1.355V16h-1.245l-.066-.85a2.759,2.759,0,0,1-2.263,1,2.707,2.707,0,0,1-2.245-1.128,4.7,4.7,0,0,1-.868-2.944Zm1.355.154a3.515,3.515,0,0,0,.557,2.109A1.8,1.8,0,0,0-24.825,15a1.977,1.977,0,0,0,1.882-1.157V10.2a1.992,1.992,0,0,0-1.868-1.121,1.808,1.808,0,0,0-1.553.769A3.87,3.87,0,0,0-26.92,12.125ZM-16.2,16.146a3.463,3.463,0,0,1-2.622-1.058,3.928,3.928,0,0,1-1.011-2.831v-.249A4.756,4.756,0,0,1-19.38,9.9a3.514,3.514,0,0,1,1.26-1.45,3.167,3.167,0,0,1,1.754-.524,2.968,2.968,0,0,1,2.4,1.018,4.408,4.408,0,0,1,.857,2.915v.564h-5.369a2.817,2.817,0,0,0,.685,1.893,2.153,2.153,0,0,0,1.666.721,2.36,2.36,0,0,0,1.216-.293,3.055,3.055,0,0,0,.872-.776l.828.645A3.328,3.328,0,0,1-16.2,16.146Zm-.168-7.1a1.807,1.807,0,0,0-1.377.6,2.9,2.9,0,0,0-.688,1.674h3.97v-.1a2.581,2.581,0,0,0-.557-1.6A1.7,1.7,0,0,0-16.366,9.042Zm11.829,7.1a3.463,3.463,0,0,1-2.622-1.058A3.928,3.928,0,0,1-8.17,12.257v-.249A4.756,4.756,0,0,1-7.72,9.9a3.514,3.514,0,0,1,1.26-1.45,3.167,3.167,0,0,1,1.754-.524A2.968,2.968,0,0,1-2.3,8.947a4.408,4.408,0,0,1,.857,2.915v.564H-6.815a2.817,2.817,0,0,0,.685,1.893,2.153,2.153,0,0,0,1.666.721,2.36,2.36,0,0,0,1.216-.293,3.055,3.055,0,0,0,.872-.776l.828.645A3.328,3.328,0,0,1-4.537,16.146Zm-.168-7.1a1.807,1.807,0,0,0-1.377.6,2.9,2.9,0,0,0-.688,1.674H-2.8v-.1a2.581,2.581,0,0,0-.557-1.6A1.7,1.7,0,0,0-4.706,9.042Zm4.5,2.93A4.642,4.642,0,0,1,.656,9.038a2.733,2.733,0,0,1,2.263-1.11,2.748,2.748,0,0,1,2.2.952V4.75H6.478V16H5.233l-.066-.85a2.759,2.759,0,0,1-2.263,1A2.707,2.707,0,0,1,.659,15.019a4.7,4.7,0,0,1-.868-2.944Zm1.355.154A3.515,3.515,0,0,0,1.7,14.235,1.8,1.8,0,0,0,3.241,15a1.977,1.977,0,0,0,1.882-1.157V10.2A1.992,1.992,0,0,0,3.256,9.079,1.808,1.808,0,0,0,1.7,9.848,3.87,3.87,0,0,0,1.146,12.125ZM13.473,16a2.846,2.846,0,0,1-.19-.835,3.023,3.023,0,0,1-2.256.981A2.8,2.8,0,0,1,9.1,15.484,2.145,2.145,0,0,1,8.353,13.8a2.24,2.24,0,0,1,.941-1.923,4.437,4.437,0,0,1,2.648-.685H13.26v-.623a1.522,1.522,0,0,0-.425-1.132,1.707,1.707,0,0,0-1.252-.421,1.976,1.976,0,0,0-1.216.366,1.079,1.079,0,0,0-.491.886H8.514a1.87,1.87,0,0,1,.421-1.146,2.874,2.874,0,0,1,1.143-.875,3.844,3.844,0,0,1,1.586-.322,3.133,3.133,0,0,1,2.146.685,2.47,2.47,0,0,1,.806,1.886v3.647a4.459,4.459,0,0,0,.278,1.736V16Zm-2.249-1.033a2.381,2.381,0,0,0,1.208-.33,1.994,1.994,0,0,0,.828-.857V12.155H12.2q-2.49,0-2.49,1.458a1.234,1.234,0,0,0,.425,1A1.633,1.633,0,0,0,11.224,14.967Zm5.186-3a4.642,4.642,0,0,1,.864-2.933,2.941,2.941,0,0,1,4.468-.157V4.75H23.1V16H21.852l-.066-.85a2.759,2.759,0,0,1-2.263,1,2.707,2.707,0,0,1-2.245-1.128,4.7,4.7,0,0,1-.868-2.944Zm1.355.154a3.515,3.515,0,0,0,.557,2.109A1.8,1.8,0,0,0,19.86,15a1.977,1.977,0,0,0,1.882-1.157V10.2a1.992,1.992,0,0,0-1.868-1.121,1.808,1.808,0,0,0-1.553.769A3.87,3.87,0,0,0,17.765,12.125ZM26.2,5.746l-.22,2.622H25.17l.007-3.618H26.2Zm1.978,0-.22,2.622h-.813l.007-3.618H28.18Z" transform="translate(377 4148.162)" fill="#12263f"/>
    <g id="Grupo_1105319" data-name="Grupo 1105319">
      <path id="Unión_19-2" data-name="Unión 19" d="M-1509.737,11712h4.474v131.4h-4.474Z" transform="translate(12220.484 5597.781) rotate(90)" fill="#3a1d71"/>
      <path id="Unión_20-2" data-name="Unión 20" d="M-1509.736,11747.6v-32H-1516l8.5-7.2,8.5,7.2h-6.262v32Z" transform="translate(-1128.179 15835.646) rotate(180)" fill="#3a1d71"/>
    </g>
    <path id="Trazado_890679" data-name="Trazado 890679" d="M2306-9269.838l55.657-39.754L2306-9349.6l-51.627,40.009Z" transform="translate(-1770.172 13400)" fill="#f0c518"/>
    <path id="Trazado_891248" data-name="Trazado 891248" d="M-34.527.156a3.693,3.693,0,0,1-2.8-1.129A4.19,4.19,0,0,1-38.4-3.992v-.266a5.073,5.073,0,0,1,.48-2.246,3.748,3.748,0,0,1,1.344-1.547,3.378,3.378,0,0,1,1.871-.559,3.166,3.166,0,0,1,2.563,1.086,4.7,4.7,0,0,1,.914,3.109v.6h-5.727a3,3,0,0,0,.73,2.02,2.3,2.3,0,0,0,1.777.77,2.517,2.517,0,0,0,1.3-.312,3.259,3.259,0,0,0,.93-.828l.883.688A3.55,3.55,0,0,1-34.527.156Zm-.18-7.578a1.928,1.928,0,0,0-1.469.637A3.1,3.1,0,0,0-36.91-5h4.234v-.109a2.753,2.753,0,0,0-.594-1.707A1.815,1.815,0,0,0-34.707-7.422Zm4.8,3.125a4.952,4.952,0,0,1,.922-3.129,2.915,2.915,0,0,1,2.414-1.184,2.932,2.932,0,0,1,2.352,1.016V-12h1.445V0h-1.328l-.07-.906A2.943,2.943,0,0,1-26.59.156a2.887,2.887,0,0,1-2.395-1.2,5.008,5.008,0,0,1-.926-3.141Zm1.445.164a3.749,3.749,0,0,0,.594,2.25,1.92,1.92,0,0,0,1.641.813A2.108,2.108,0,0,0-24.223-2.3V-6.187a2.125,2.125,0,0,0-1.992-1.2,1.929,1.929,0,0,0-1.656.82A4.128,4.128,0,0,0-28.465-4.133ZM-15.316,0a3.036,3.036,0,0,1-.2-.891A3.225,3.225,0,0,1-17.926.156a2.984,2.984,0,0,1-2.051-.707,2.287,2.287,0,0,1-.8-1.793,2.39,2.39,0,0,1,1-2.051,4.733,4.733,0,0,1,2.824-.73h1.406v-.664A1.623,1.623,0,0,0-16-7a1.821,1.821,0,0,0-1.336-.449,2.108,2.108,0,0,0-1.3.391,1.151,1.151,0,0,0-.523.945h-1.453a2,2,0,0,1,.449-1.223,3.066,3.066,0,0,1,1.219-.934,4.1,4.1,0,0,1,1.691-.344,3.342,3.342,0,0,1,2.289.73A2.635,2.635,0,0,1-14.1-5.867v3.891a4.757,4.757,0,0,0,.3,1.852V0Zm-2.4-1.1a2.54,2.54,0,0,0,1.289-.352,2.127,2.127,0,0,0,.883-.914V-4.1h-1.133q-2.656,0-2.656,1.555a1.316,1.316,0,0,0,.453,1.063A1.742,1.742,0,0,0-17.715-1.1Zm5.531-3.2a4.952,4.952,0,0,1,.922-3.129A2.915,2.915,0,0,1-8.848-8.609,2.932,2.932,0,0,1-6.5-7.594V-12h1.445V0H-6.379l-.07-.906A2.943,2.943,0,0,1-8.863.156a2.887,2.887,0,0,1-2.395-1.2,5.008,5.008,0,0,1-.926-3.141Zm1.445.164a3.749,3.749,0,0,0,.594,2.25A1.92,1.92,0,0,0-8.5-1.07,2.108,2.108,0,0,0-6.5-2.3V-6.187a2.125,2.125,0,0,0-1.992-1.2,1.929,1.929,0,0,0-1.656.82A4.128,4.128,0,0,0-10.738-4.133ZM6.27-5.078,1.105-7.1V-8.586L7.777-5.633v1.141L1.105-1.531v-1.5Zm9.852-1.281H9.605V-7.617h6.516Zm0,3.242H9.605v-1.25h6.516ZM26.855,0H25.4V-9.633l-2.914,1.07V-9.875l4.141-1.555h.227ZM37.988-8.406a2.641,2.641,0,0,1-.449,1.516,3.057,3.057,0,0,1-1.215,1.039,3.26,3.26,0,0,1,1.41,1.117,2.811,2.811,0,0,1,.52,1.664,2.972,2.972,0,0,1-1,2.352,3.827,3.827,0,0,1-2.621.875,3.81,3.81,0,0,1-2.629-.879A2.986,2.986,0,0,1,31.02-3.07a2.9,2.9,0,0,1,.5-1.664,3.136,3.136,0,0,1,1.395-1.125,2.981,2.981,0,0,1-1.2-1.039,2.679,2.679,0,0,1-.437-1.508,2.94,2.94,0,0,1,.922-2.281,3.458,3.458,0,0,1,2.43-.844,3.461,3.461,0,0,1,2.426.844A2.934,2.934,0,0,1,37.988-8.406Zm-1.18,5.3A2.1,2.1,0,0,0,36.2-4.656a2.147,2.147,0,0,0-1.582-.6,2.11,2.11,0,0,0-1.566.594,2.12,2.12,0,0,0-.59,1.563,2.019,2.019,0,0,0,.574,1.523,2.2,2.2,0,0,0,1.6.555,2.2,2.2,0,0,0,1.594-.559A2.014,2.014,0,0,0,36.809-3.1Zm-2.172-7.242a1.865,1.865,0,0,0-1.379.527,1.937,1.937,0,0,0-.527,1.434,1.928,1.928,0,0,0,.52,1.4,1.844,1.844,0,0,0,1.387.535,1.844,1.844,0,0,0,1.387-.535,1.928,1.928,0,0,0,.52-1.4A1.929,1.929,0,0,0,36-9.8,1.839,1.839,0,0,0,34.637-10.344Z" transform="translate(538.303 4096.781)" fill="#12263f"/>
  </g>
</svg>
