<svg xmlns="http://www.w3.org/2000/svg" width="64" height="64" viewBox="0 0 64 64">
  <g id="Grupo_1105294" data-name="Grupo 1105294" transform="translate(-9398 9480.999)">
    <path id="Trazado_889094" data-name="Trazado 889094" d="M32,0A32,32,0,1,1,0,32,32,32,0,0,1,32,0Z" transform="translate(9398 -9480.999)" fill="#f0c518"/>
    <g id="Layer_1" transform="translate(9404.69 -9526.133)">
      <path id="Trazado_890839" data-name="Trazado 890839" d="M46.574,62.976H6.66a.66.66,0,0,0-.66.66V86.087a.66.66,0,0,0,.66.66H21.053v4.564l-6.3,2.22a.66.66,0,0,0,.219,1.282h23.3a.66.66,0,0,0,.219-1.282l-6.3-2.22V86.747H46.574a.66.66,0,0,0,.66-.66V63.636a.66.66,0,0,0-.66-.66ZM34.4,93.493H18.829l3-1.055h9.582ZM22.373,91.118V86.747h8.488v4.371Zm23.541-5.69H7.319V64.3H45.914Zm-26.069-5.19,3.974-11.694a.66.66,0,0,1,.625-.447H36.949a.66.66,0,0,1,0,1.319H24.916L20.6,82.112a.715.715,0,0,1-.625.447.66.66,0,0,1-.583-.352l-1.6-3.03h-1.07a.66.66,0,1,1,0-1.319H18.19a.66.66,0,0,1,.583.352Zm15.306-.144a.66.66,0,0,1-.933.933L30.76,77.569,27.3,81.026a.66.66,0,0,1-.933-.933l3.458-3.457-3.458-3.457a.66.66,0,1,1,.933-.933L30.76,75.7l3.457-3.457a.66.66,0,0,1,.933.933l-3.457,3.457ZM15.648,75.5a.66.66,0,0,1,.464-.809,5.573,5.573,0,0,0,2.519-1.964c-1.627-.989-2.482-3.445-2.588-3.765a.66.66,0,0,1,1.253-.414,6.419,6.419,0,0,0,2.08,3.087,6,6,0,0,0,.906-2.879.66.66,0,0,1,1.319,0c0,2.995-2.9,6.6-5.145,7.209a.659.659,0,0,1-.809-.464Z" transform="translate(0 0)" fill="#12263f"/>
    </g>
  </g>
</svg>
