<svg xmlns="http://www.w3.org/2000/svg" width="287" height="132" viewBox="0 0 287 132">
  <g id="Grupo_1105945" data-name="Grupo 1105945" transform="translate(-8933 8942)">
    <rect id="Rectángulo_405343" data-name="Rectángulo 405343" width="287" height="132" rx="8" transform="translate(8933 -8942)" fill="#fff"/>
    <g id="Grupo_1105292" data-name="Grupo 1105292" transform="translate(0 -2)">
      <path id="Trazado_891251" data-name="Trazado 891251" d="M1.039,10.383a12.079,12.079,0,0,1,.473-3.391,9.85,9.85,0,0,1,1.41-2.953A6,6,0,0,1,4.867,2.164l.3.953A6.222,6.222,0,0,0,3.293,5.789a11.583,11.583,0,0,0-.8,4.023l-.008.664a11.643,11.643,0,0,0,1.1,5.234,6.252,6.252,0,0,0,1.578,2.078l-.3.883a6.192,6.192,0,0,1-1.984-1.937A10.859,10.859,0,0,1,1.039,10.383Zm8.8,2.4L13.18,3.625h1.477L10.422,15H9.32L7.406,10.094H5.961v-1.2H8.422Zm6.2-2.4a12.079,12.079,0,0,1,.473-3.391,9.85,9.85,0,0,1,1.41-2.953,6,6,0,0,1,1.945-1.875l.3.953A6.222,6.222,0,0,0,18.3,5.789a11.583,11.583,0,0,0-.8,4.023l-.008.664a11.643,11.643,0,0,0,1.1,5.234,6.252,6.252,0,0,0,1.578,2.078l-.3.883a6.192,6.192,0,0,1-1.984-1.937A10.859,10.859,0,0,1,16.047,10.383ZM27.094,3.617V4.844h-.266a3.805,3.805,0,0,0-2.687,1A4.161,4.161,0,0,0,22.984,8.57a3.085,3.085,0,0,1,2.453-1.031,2.95,2.95,0,0,1,2.371,1.047,4.038,4.038,0,0,1,.887,2.7,4.025,4.025,0,0,1-.957,2.813,3.3,3.3,0,0,1-2.566,1.055A3.247,3.247,0,0,1,22.523,13.9a4.97,4.97,0,0,1-1.016-3.23v-.555a7.488,7.488,0,0,1,1.34-4.8,4.921,4.921,0,0,1,3.988-1.7ZM25.2,8.742A2.429,2.429,0,0,0,22.961,10.3v.531a3.731,3.731,0,0,0,.633,2.266,1.9,1.9,0,0,0,1.578.859,1.838,1.838,0,0,0,1.535-.719,2.982,2.982,0,0,0,.559-1.883A2.983,2.983,0,0,0,26.7,9.465,1.816,1.816,0,0,0,25.2,8.742Zm7.594-3.2L31.3,9.3H29.961L32.3,3.625h.992L35.617,9.3H34.281ZM44.547,15H37.094V13.961l3.938-4.375a9.355,9.355,0,0,0,1.207-1.613,2.693,2.693,0,0,0,.332-1.285,2.041,2.041,0,0,0-.539-1.461,1.885,1.885,0,0,0-1.437-.57,2.232,2.232,0,0,0-1.676.613,2.343,2.343,0,0,0-.6,1.707H36.875a3.355,3.355,0,0,1,1.012-2.539,3.751,3.751,0,0,1,2.707-.969A3.6,3.6,0,0,1,43.1,4.3a2.838,2.838,0,0,1,.922,2.215q0,1.68-2.141,4l-3.047,3.3h5.711Zm1.969.977H45.273l4.75-12.352h1.234ZM59.57,6.594a2.641,2.641,0,0,1-.449,1.516,3.057,3.057,0,0,1-1.215,1.039,3.26,3.26,0,0,1,1.41,1.117,2.811,2.811,0,0,1,.52,1.664,2.972,2.972,0,0,1-1,2.352,4.367,4.367,0,0,1-5.25,0A2.986,2.986,0,0,1,52.6,11.93a2.9,2.9,0,0,1,.5-1.664A3.136,3.136,0,0,1,54.5,9.141,2.981,2.981,0,0,1,53.3,8.1a2.679,2.679,0,0,1-.437-1.508,2.94,2.94,0,0,1,.922-2.281,3.915,3.915,0,0,1,4.855,0A2.934,2.934,0,0,1,59.57,6.594Zm-1.18,5.3a2.1,2.1,0,0,0-.605-1.555,2.147,2.147,0,0,0-1.582-.6A2.034,2.034,0,0,0,54.047,11.9a2.019,2.019,0,0,0,.574,1.523,2.565,2.565,0,0,0,3.191,0A2.014,2.014,0,0,0,58.391,11.9ZM56.219,4.656a1.865,1.865,0,0,0-1.379.527,1.937,1.937,0,0,0-.527,1.434,1.928,1.928,0,0,0,.52,1.4,2.064,2.064,0,0,0,2.773,0,1.928,1.928,0,0,0,.52-1.4A1.929,1.929,0,0,0,57.586,5.2,1.839,1.839,0,0,0,56.219,4.656Zm7.82.883L62.555,9.3H61.211l2.336-5.68h.992L66.867,9.3H65.531ZM75.8,15H68.344V13.961l3.938-4.375a9.354,9.354,0,0,0,1.207-1.613,2.693,2.693,0,0,0,.332-1.285,2.041,2.041,0,0,0-.539-1.461,1.885,1.885,0,0,0-1.437-.57,2.232,2.232,0,0,0-1.676.613,2.343,2.343,0,0,0-.6,1.707H68.125a3.355,3.355,0,0,1,1.012-2.539,3.751,3.751,0,0,1,2.707-.969,3.6,3.6,0,0,1,2.508.832,2.838,2.838,0,0,1,.922,2.215q0,1.68-2.141,4l-3.047,3.3H75.8Zm8.977-4.539a12.084,12.084,0,0,1-.457,3.34,9.876,9.876,0,0,1-1.4,2.949,6.127,6.127,0,0,1-1.973,1.922l-.3-.883a6.281,6.281,0,0,0,1.934-2.863,12.387,12.387,0,0,0,.746-4.309v-.25a12.861,12.861,0,0,0-.344-3.051,10.3,10.3,0,0,0-.957-2.527,5.838,5.838,0,0,0-1.379-1.742l.3-.883A6.1,6.1,0,0,1,82.91,4.07a9.9,9.9,0,0,1,1.4,2.945A12.363,12.363,0,0,1,84.773,10.461ZM91.141,8.9h3.172v1.367H91.141v3.594H89.688V10.266H86.516V8.9h3.172V5.578h1.453Zm12.125-4.461L98.555,15H97.039l4.7-10.187H95.578V3.625h7.688Zm5.125,6.023a12.084,12.084,0,0,1-.457,3.34,9.876,9.876,0,0,1-1.4,2.949,6.127,6.127,0,0,1-1.973,1.922l-.3-.883a6.281,6.281,0,0,0,1.934-2.863,12.387,12.387,0,0,0,.746-4.309v-.25a12.861,12.861,0,0,0-.344-3.051,10.3,10.3,0,0,0-.957-2.527,5.838,5.838,0,0,0-1.379-1.742l.3-.883a6.1,6.1,0,0,1,1.965,1.906,9.9,9.9,0,0,1,1.4,2.945A12.363,12.363,0,0,1,108.391,10.461Zm2.516,5.516h-1.242l4.75-12.352h1.234Zm13.055-9.383a2.641,2.641,0,0,1-.449,1.516A3.057,3.057,0,0,1,122.3,9.148a3.26,3.26,0,0,1,1.41,1.117,2.811,2.811,0,0,1,.52,1.664,2.972,2.972,0,0,1-1,2.352,4.367,4.367,0,0,1-5.25,0,2.986,2.986,0,0,1-.988-2.348,2.9,2.9,0,0,1,.5-1.664,3.136,3.136,0,0,1,1.395-1.125A2.981,2.981,0,0,1,117.7,8.1a2.679,2.679,0,0,1-.437-1.508,2.94,2.94,0,0,1,.922-2.281,3.915,3.915,0,0,1,4.855,0A2.934,2.934,0,0,1,123.961,6.594Zm-1.18,5.3a2.1,2.1,0,0,0-.605-1.555,2.147,2.147,0,0,0-1.582-.6,2.034,2.034,0,0,0-2.156,2.156,2.019,2.019,0,0,0,.574,1.523,2.565,2.565,0,0,0,3.191,0A2.014,2.014,0,0,0,122.781,11.9Zm-2.172-7.242a1.865,1.865,0,0,0-1.379.527,1.937,1.937,0,0,0-.527,1.434,1.928,1.928,0,0,0,.52,1.4,2.064,2.064,0,0,0,2.773,0,1.928,1.928,0,0,0,.52-1.4,1.929,1.929,0,0,0-.539-1.414A1.839,1.839,0,0,0,120.609,4.656Zm7.82.883L126.945,9.3H125.6l2.336-5.68h.992l2.328,5.68h-1.336ZM140.188,15h-7.453V13.961l3.938-4.375a9.355,9.355,0,0,0,1.207-1.613,2.692,2.692,0,0,0,.332-1.285,2.041,2.041,0,0,0-.539-1.461,1.885,1.885,0,0,0-1.437-.57,2.232,2.232,0,0,0-1.676.613,2.343,2.343,0,0,0-.6,1.707h-1.445a3.355,3.355,0,0,1,1.012-2.539,3.751,3.751,0,0,1,2.707-.969,3.6,3.6,0,0,1,2.508.832,2.838,2.838,0,0,1,.922,2.215q0,1.68-2.141,4l-3.047,3.3h5.711Z" transform="translate(9052 -8884.999)" fill="#12263f"/>
      <g id="Grupo_1105291" data-name="Grupo 1105291" transform="translate(8 -197.837)">
        <path id="Trazado_890836" data-name="Trazado 890836" d="M8941.2-8676.563l4.776-2.293s7.26,18.148,7.26,17.193,6.5-62.66,6.5-62.66h30.184" fill="none" stroke="#3a1d71" stroke-width="1"/>
        <path id="Trazado_891247" data-name="Trazado 891247" d="M8.818-14.424v2.588H8.672a4.941,4.941,0,0,0-3.032.884A3.732,3.732,0,0,0,4.18-8.5,3.848,3.848,0,0,1,6.992-9.59,3.59,3.59,0,0,1,9.932-8.242a5.436,5.436,0,0,1,1.094,3.535,4.977,4.977,0,0,1-.64,2.49A4.564,4.564,0,0,1,8.6-.444,5.135,5.135,0,0,1,6.055.2,5.307,5.307,0,0,1,3.35-.493,4.733,4.733,0,0,1,1.494-2.461,6.48,6.48,0,0,1,.811-5.41V-6.729a8.208,8.208,0,0,1,.942-3.95,6.832,6.832,0,0,1,2.69-2.749,7.692,7.692,0,0,1,3.877-1ZM5.85-7.051a1.889,1.889,0,0,0-1.094.3A1.917,1.917,0,0,0,4.1-6.01v.982q0,2.684,1.865,2.684a1.515,1.515,0,0,0,1.255-.671,2.727,2.727,0,0,0,.5-1.682,2.677,2.677,0,0,0-.513-1.7A1.642,1.642,0,0,0,5.85-7.051ZM17.876-7H12.089V-8.253l2.666-2.8a3.182,3.182,0,0,0,.985-1.783,1.24,1.24,0,0,0-.234-.815.834.834,0,0,0-.678-.279.844.844,0,0,0-.712.373,1.533,1.533,0,0,0-.273.931H11.918a2.724,2.724,0,0,1,.382-1.41,2.676,2.676,0,0,1,1.06-1.011,3.147,3.147,0,0,1,1.515-.365,3.1,3.1,0,0,1,2.071.621,2.217,2.217,0,0,1,.726,1.783,2.589,2.589,0,0,1-.182.954,4.184,4.184,0,0,1-.567.974,14.277,14.277,0,0,1-1.239,1.364L14.612-8.481h3.264Z" transform="translate(8966 -8698)" fill="#3a1d71"/>
        <path id="Trazado_891246" data-name="Trazado 891246" d="M10.459-10.42a3.283,3.283,0,0,1-.513,1.826,3.734,3.734,0,0,1-1.411,1.27,4.109,4.109,0,0,1,1.611,1.362,3.515,3.515,0,0,1,.6,2.046A3.721,3.721,0,0,1,9.429-.908,5.454,5.454,0,0,1,5.811.2,5.554,5.554,0,0,1,2.158-.913a3.7,3.7,0,0,1-1.338-3,3.56,3.56,0,0,1,.586-2.021,3.984,3.984,0,0,1,1.66-1.387,3.755,3.755,0,0,1-1.426-1.27,3.26,3.26,0,0,1-.518-1.826,3.648,3.648,0,0,1,1.26-2.93,5.064,5.064,0,0,1,3.4-1.074A5.1,5.1,0,0,1,9.2-13.35,3.648,3.648,0,0,1,10.459-10.42ZM7.441-4.18a1.877,1.877,0,0,0-.454-1.353,1.581,1.581,0,0,0-1.2-.474,1.6,1.6,0,0,0-1.2.474A1.865,1.865,0,0,0,4.131-4.18a1.881,1.881,0,0,0,.464,1.343,1.592,1.592,0,0,0,1.216.493,1.53,1.53,0,0,0,1.182-.488A1.915,1.915,0,0,0,7.441-4.18Zm-1.66-7.705a1.216,1.216,0,0,0-1.011.435,1.886,1.886,0,0,0-.347,1.206,2,2,0,0,0,.352,1.23,1.213,1.213,0,0,0,1.035.469,1.163,1.163,0,0,0,1.011-.469,2.062,2.062,0,0,0,.337-1.23,1.89,1.89,0,0,0-.347-1.2A1.233,1.233,0,0,0,5.781-11.885ZM17.876-7H12.089V-8.253l2.666-2.8a3.182,3.182,0,0,0,.985-1.783,1.24,1.24,0,0,0-.234-.815.834.834,0,0,0-.678-.279.844.844,0,0,0-.712.373,1.533,1.533,0,0,0-.273.931H11.918a2.724,2.724,0,0,1,.382-1.41,2.676,2.676,0,0,1,1.06-1.011,3.147,3.147,0,0,1,1.515-.365,3.1,3.1,0,0,1,2.071.621,2.217,2.217,0,0,1,.726,1.783,2.589,2.589,0,0,1-.182.954,4.184,4.184,0,0,1-.567.974,14.277,14.277,0,0,1-1.239,1.364L14.612-8.481h3.264Z" transform="translate(8966 -8665)" fill="#3a1d71"/>
        <path id="Trazado_891250" data-name="Trazado 891250" d="M10.459-10.42a3.283,3.283,0,0,1-.513,1.826,3.734,3.734,0,0,1-1.411,1.27,4.109,4.109,0,0,1,1.611,1.362,3.515,3.515,0,0,1,.6,2.046A3.721,3.721,0,0,1,9.429-.908,5.454,5.454,0,0,1,5.811.2,5.554,5.554,0,0,1,2.158-.913a3.7,3.7,0,0,1-1.338-3,3.56,3.56,0,0,1,.586-2.021,3.984,3.984,0,0,1,1.66-1.387,3.755,3.755,0,0,1-1.426-1.27,3.26,3.26,0,0,1-.518-1.826,3.648,3.648,0,0,1,1.26-2.93,5.064,5.064,0,0,1,3.4-1.074A5.1,5.1,0,0,1,9.2-13.35,3.648,3.648,0,0,1,10.459-10.42ZM7.441-4.18a1.877,1.877,0,0,0-.454-1.353,1.581,1.581,0,0,0-1.2-.474,1.6,1.6,0,0,0-1.2.474A1.865,1.865,0,0,0,4.131-4.18a1.881,1.881,0,0,0,.464,1.343,1.592,1.592,0,0,0,1.216.493,1.53,1.53,0,0,0,1.182-.488A1.915,1.915,0,0,0,7.441-4.18Zm-1.66-7.705a1.216,1.216,0,0,0-1.011.435,1.886,1.886,0,0,0-.347,1.206,2,2,0,0,0,.352,1.23,1.213,1.213,0,0,0,1.035.469,1.163,1.163,0,0,0,1.011-.469,2.062,2.062,0,0,0,.337-1.23,1.89,1.89,0,0,0-.347-1.2A1.233,1.233,0,0,0,5.781-11.885ZM17.876-7H12.089V-8.253l2.666-2.8a3.182,3.182,0,0,0,.985-1.783,1.24,1.24,0,0,0-.234-.815.834.834,0,0,0-.678-.279.844.844,0,0,0-.712.373,1.533,1.533,0,0,0-.273.931H11.918a2.724,2.724,0,0,1,.382-1.41,2.676,2.676,0,0,1,1.06-1.011,3.147,3.147,0,0,1,1.515-.365,3.1,3.1,0,0,1,2.071.621,2.217,2.217,0,0,1,.726,1.783,2.589,2.589,0,0,1-.182.954,4.184,4.184,0,0,1-.567.974,14.277,14.277,0,0,1-1.239,1.364L14.612-8.481h3.264Z" transform="translate(8972 -8629)" fill="#3a1d71"/>
        <path id="Trazado_891249" data-name="Trazado 891249" d="M6.855-8.066h3.33v2.822H6.855v3.818H3.779V-5.244H.439V-8.066h3.34v-3.711H6.855Z" transform="translate(8996 -8683)" fill="#3a1d71"/>
        <path id="Trazado_891248" data-name="Trazado 891248" d="M10.752-12.461,5.439,0H1.963L7.285-11.68H.508v-2.539H10.752Z" transform="translate(9013 -8683)" fill="#3a1d71"/>
        <path id="Trazado_890837" data-name="Trazado 890837" d="M8962.171-8689.511h25.791" fill="none" stroke="#3a1d71" stroke-width="1"/>
        <path id="Trazado_890838" data-name="Trazado 890838" d="M8962.17-8689.511h85.639" transform="translate(-20.971 29.511)" fill="none" stroke="#3a1d71" stroke-width="1"/>
      </g>
    </g>
  </g>
</svg>
