<svg xmlns="http://www.w3.org/2000/svg" xmlns:xlink="http://www.w3.org/1999/xlink" width="112" height="113" viewBox="0 0 112 113">
  <defs>
    <filter id="Elipse_11919" x="0" y="2" width="112" height="111" filterUnits="userSpaceOnUse">
      <feOffset dy="3" input="SourceAlpha"/>
      <feGaussianBlur stdDeviation="3" result="blur"/>
      <feFlood flood-opacity="0.161"/>
      <feComposite operator="in" in2="blur"/>
      <feComposite in="SourceGraphic"/>
    </filter>
  </defs>
  <g id="Grupo_1105935" data-name="Grupo 1105935" transform="translate(-424 -1012)">
    <g id="Grupo_1073132" data-name="Grupo 1073132" transform="translate(93 84)">
      <path id="Trazado_883674" data-name="Trazado 883674" d="M54,0A54,54,0,1,1,0,54,54,54,0,0,1,54,0Z" transform="translate(333 928)" fill="#f0c518"/>
    </g>
    <g id="Grupo_1105934" data-name="Grupo 1105934">
      <g transform="matrix(1, 0, 0, 1, 424, 1012)" filter="url(#Elipse_11919)">
        <ellipse id="Elipse_11919-2" data-name="Elipse 11919" cx="47" cy="46.5" rx="47" ry="46.5" transform="translate(9 8)" fill="#fff"/>
      </g>
      <g id="Grupo_1105368" data-name="Grupo 1105368" transform="translate(-134 -16.5)">
        <g id="Rectángulo_405392" data-name="Rectángulo 405392" transform="translate(577 1075.5)" fill="none" stroke="#8722e2" stroke-width="1">
          <rect width="74" height="16" stroke="none"/>
          <rect x="0.5" y="0.5" width="73" height="15" fill="none"/>
        </g>
        <path id="Trazado_890903" data-name="Trazado 890903" d="M13734.225-10638.542v15.071" transform="translate(-13141.778 11714.309)" fill="none" stroke="#8722e2" stroke-width="1"/>
        <path id="Trazado_890904" data-name="Trazado 890904" d="M13734.225-10638.542v15.071" transform="translate(-13127.672 11714.309)" fill="none" stroke="#8722e2" stroke-width="1"/>
        <path id="Trazado_890905" data-name="Trazado 890905" d="M13734.225-10638.542v15.071" transform="translate(-13113.075 11714.309)" fill="none" stroke="#8722e2" stroke-width="1"/>
        <path id="Trazado_890906" data-name="Trazado 890906" d="M13734.225-10638.542v15.071" transform="translate(-13099.479 11714.309)" fill="none" stroke="#8722e2" stroke-width="1"/>
      </g>
    </g>
  </g>
</svg>
