<svg xmlns="http://www.w3.org/2000/svg" width="661" height="103.424" viewBox="0 0 661 103.424">
  <g id="Grupo_1105937" data-name="Grupo 1105937" transform="translate(-459 -1518.576)">
    <g id="Rectángulo_405393" data-name="Rectángulo 405393" transform="translate(459 1553)" fill="#fff" stroke="#3a1d71" stroke-width="2">
      <rect width="68" height="69" stroke="none"/>
      <rect x="1" y="1" width="66" height="67" fill="none"/>
    </g>
    <g id="Rectángulo_405399" data-name="Rectángulo 405399" transform="translate(722 1553)" fill="#fff" stroke="#3a1d71" stroke-width="2">
      <rect width="68" height="69" stroke="none"/>
      <rect x="1" y="1" width="66" height="67" fill="none"/>
    </g>
    <g id="Rectángulo_405403" data-name="Rectángulo 405403" transform="translate(986 1553)" fill="#fff" stroke="#3a1d71" stroke-width="2">
      <rect width="68" height="69" stroke="none"/>
      <rect x="1" y="1" width="66" height="67" fill="none"/>
    </g>
    <g id="Rectángulo_405396" data-name="Rectángulo 405396" transform="translate(590 1553)" fill="#fff" stroke="#3a1d71" stroke-width="2">
      <rect width="68" height="69" stroke="none"/>
      <rect x="1" y="1" width="66" height="67" fill="none"/>
    </g>
    <g id="Rectángulo_405398" data-name="Rectángulo 405398" transform="translate(853 1553)" fill="#fff" stroke="#3a1d71" stroke-width="2">
      <rect width="68" height="69" stroke="none"/>
      <rect x="1" y="1" width="66" height="67" fill="none"/>
    </g>
    <g id="Rectángulo_405394" data-name="Rectángulo 405394" transform="translate(525 1553)" fill="#fff" stroke="#3a1d71" stroke-width="2">
      <rect width="68" height="69" stroke="none"/>
      <rect x="1" y="1" width="66" height="67" fill="none"/>
    </g>
    <g id="Rectángulo_405400" data-name="Rectángulo 405400" transform="translate(788 1553)" fill="#fff" stroke="#3a1d71" stroke-width="2">
      <rect width="68" height="69" stroke="none"/>
      <rect x="1" y="1" width="66" height="67" fill="none"/>
    </g>
    <g id="Rectángulo_405404" data-name="Rectángulo 405404" transform="translate(1052 1553)" fill="#fff" stroke="#3a1d71" stroke-width="2">
      <rect width="68" height="69" stroke="none"/>
      <rect x="1" y="1" width="66" height="67" fill="none"/>
    </g>
    <g id="Rectángulo_405395" data-name="Rectángulo 405395" transform="translate(656 1553)" fill="#fff" stroke="#3a1d71" stroke-width="2">
      <rect width="68" height="69" stroke="none"/>
      <rect x="1" y="1" width="66" height="67" fill="none"/>
    </g>
    <g id="Rectángulo_405397" data-name="Rectángulo 405397" transform="translate(919 1553)" fill="#fff" stroke="#3a1d71" stroke-width="2">
      <rect width="68" height="69" stroke="none"/>
      <rect x="1" y="1" width="66" height="67" fill="none"/>
    </g>
    <path id="Trazado_891255" data-name="Trazado 891255" d="M10.742-5.811A6.789,6.789,0,0,1,9.448-1.367,4.471,4.471,0,0,1,5.8.2,4.5,4.5,0,0,1,2.129-1.377,6.779,6.779,0,0,1,.83-5.811v-2.6a6.789,6.789,0,0,1,1.294-4.443,4.483,4.483,0,0,1,3.657-1.562,4.484,4.484,0,0,1,3.662,1.572,6.8,6.8,0,0,1,1.3,4.443ZM7.451-8.828a5.071,5.071,0,0,0-.4-2.29,1.338,1.338,0,0,0-1.27-.757,1.307,1.307,0,0,0-1.235.7,4.777,4.777,0,0,0-.415,2.129V-5.41a5.109,5.109,0,0,0,.4,2.329,1.343,1.343,0,0,0,1.27.737,1.325,1.325,0,0,0,1.24-.718,4.878,4.878,0,0,0,.41-2.251Z" transform="translate(491 1533)" fill="#3a1d71"/>
    <path id="Trazado_891254" data-name="Trazado 891254" d="M8.164,0h-3.3V-10.508l-3.242.947v-2.5l6.24-2.158h.3Z" transform="translate(556 1533)" fill="#3a1d71"/>
    <path id="Trazado_891253" data-name="Trazado 891253" d="M10.791,0H.869V-2.148l4.57-4.8Q7.129-8.877,7.129-10.01a2.126,2.126,0,0,0-.4-1.4,1.43,1.43,0,0,0-1.162-.479,1.447,1.447,0,0,0-1.221.64,2.629,2.629,0,0,0-.469,1.6H.576a4.67,4.67,0,0,1,.654-2.417A4.588,4.588,0,0,1,3.047-13.8a5.4,5.4,0,0,1,2.6-.625,5.308,5.308,0,0,1,3.55,1.064A3.8,3.8,0,0,1,10.439-10.3a4.439,4.439,0,0,1-.312,1.636A7.173,7.173,0,0,1,9.155-7,24.477,24.477,0,0,1,7.031-4.658L5.2-2.539h5.6Z" transform="translate(621 1533)" fill="#3a1d71"/>
    <path id="Trazado_891252" data-name="Trazado 891252" d="M3.877-8.486H5.43a1.614,1.614,0,0,0,1.846-1.807,1.562,1.562,0,0,0-.439-1.147,1.666,1.666,0,0,0-1.24-.444,1.784,1.784,0,0,0-1.138.381,1.162,1.162,0,0,0-.483.947H.684a3.369,3.369,0,0,1,.625-2,4.127,4.127,0,0,1,1.733-1.372,5.926,5.926,0,0,1,2.437-.493,5.823,5.823,0,0,1,3.73,1.084,3.6,3.6,0,0,1,1.357,2.979A3,3,0,0,1,10-8.628,4,4,0,0,1,8.369-7.3,3.823,3.823,0,0,1,10.146-6.06a3.279,3.279,0,0,1,.645,2.065A3.669,3.669,0,0,1,9.326-.947,6.08,6.08,0,0,1,5.479.2,6.306,6.306,0,0,1,2.886-.337,4.062,4.062,0,0,1,1.074-1.812,3.834,3.834,0,0,1,.459-3.955H3.77A1.482,1.482,0,0,0,4.3-2.822a1.862,1.862,0,0,0,1.3.479,1.95,1.95,0,0,0,1.387-.483A1.616,1.616,0,0,0,7.5-4.062a1.889,1.889,0,0,0-.537-1.523,2.245,2.245,0,0,0-1.484-.449h-1.6Z" transform="translate(686 1533)" fill="#3a1d71"/>
    <path id="Trazado_891251" data-name="Trazado 891251" d="M9.561-5.557h1.445v2.539H9.561V0H6.27V-3.018H.771l-.2-2.012,5.693-9.16v-.029H9.561Zm-5.85,0H6.27V-9.932L6.064-9.6Z" transform="translate(751 1533)" fill="#3a1d71"/>
    <path id="Trazado_891250" data-name="Trazado 891250" d="M1.064-6.945l.869-7.273h8.311v2.539H4.609L4.287-8.836A3.882,3.882,0,0,1,5.21-9.2a4.211,4.211,0,0,1,1.118-.157A4.171,4.171,0,0,1,9.585-8.1,5.055,5.055,0,0,1,10.723-4.58a5.046,5.046,0,0,1-.61,2.476A4.2,4.2,0,0,1,8.4-.4,5.411,5.411,0,0,1,5.791.2a5.822,5.822,0,0,1-2.51-.551A4.5,4.5,0,0,1,1.445-1.868,3.675,3.675,0,0,1,.791-4.039h3.3A1.867,1.867,0,0,0,4.59-2.8a1.581,1.581,0,0,0,1.182.458q1.66,0,1.66-2.456Q7.432-7.07,5.4-7.07a2.027,2.027,0,0,0-1.719.741Z" transform="translate(822 1533)" fill="#3a1d71"/>
    <path id="Trazado_891246" data-name="Trazado 891246" d="M8.818-14.424v2.588H8.672a4.941,4.941,0,0,0-3.032.884A3.732,3.732,0,0,0,4.18-8.5,3.848,3.848,0,0,1,6.992-9.59,3.59,3.59,0,0,1,9.932-8.242a5.436,5.436,0,0,1,1.094,3.535,4.977,4.977,0,0,1-.64,2.49A4.564,4.564,0,0,1,8.6-.444,5.135,5.135,0,0,1,6.055.2,5.307,5.307,0,0,1,3.35-.493,4.733,4.733,0,0,1,1.494-2.461,6.48,6.48,0,0,1,.811-5.41V-6.729a8.208,8.208,0,0,1,.942-3.95,6.832,6.832,0,0,1,2.69-2.749,7.692,7.692,0,0,1,3.877-1ZM5.85-7.051a1.889,1.889,0,0,0-1.094.3A1.917,1.917,0,0,0,4.1-6.01v.982q0,2.684,1.865,2.684a1.515,1.515,0,0,0,1.255-.671,2.727,2.727,0,0,0,.5-1.682,2.677,2.677,0,0,0-.513-1.7A1.642,1.642,0,0,0,5.85-7.051Z" transform="translate(887 1533)" fill="#3a1d71"/>
    <path id="Trazado_891247" data-name="Trazado 891247" d="M10.752-12.461,5.439,0H1.963L7.285-11.68H.508v-2.539H10.752Z" transform="translate(948 1533)" fill="#3a1d71"/>
    <path id="Trazado_891248" data-name="Trazado 891248" d="M10.459-10.42a3.283,3.283,0,0,1-.513,1.826,3.734,3.734,0,0,1-1.411,1.27,4.109,4.109,0,0,1,1.611,1.362,3.515,3.515,0,0,1,.6,2.046A3.721,3.721,0,0,1,9.429-.908,5.454,5.454,0,0,1,5.811.2,5.554,5.554,0,0,1,2.158-.913a3.7,3.7,0,0,1-1.338-3,3.56,3.56,0,0,1,.586-2.021,3.984,3.984,0,0,1,1.66-1.387,3.755,3.755,0,0,1-1.426-1.27,3.26,3.26,0,0,1-.518-1.826,3.648,3.648,0,0,1,1.26-2.93,5.064,5.064,0,0,1,3.4-1.074A5.1,5.1,0,0,1,9.2-13.35,3.648,3.648,0,0,1,10.459-10.42ZM7.441-4.18a1.877,1.877,0,0,0-.454-1.353,1.581,1.581,0,0,0-1.2-.474,1.6,1.6,0,0,0-1.2.474A1.865,1.865,0,0,0,4.131-4.18a1.881,1.881,0,0,0,.464,1.343,1.592,1.592,0,0,0,1.216.493,1.53,1.53,0,0,0,1.182-.488A1.915,1.915,0,0,0,7.441-4.18Zm-1.66-7.705a1.216,1.216,0,0,0-1.011.435,1.886,1.886,0,0,0-.347,1.206,2,2,0,0,0,.352,1.23,1.213,1.213,0,0,0,1.035.469,1.163,1.163,0,0,0,1.011-.469,2.062,2.062,0,0,0,.337-1.23,1.89,1.89,0,0,0-.347-1.2A1.233,1.233,0,0,0,5.781-11.885Z" transform="translate(1015 1533)" fill="#3a1d71"/>
    <path id="Trazado_891249" data-name="Trazado 891249" d="M7.354-5.5a3.476,3.476,0,0,1-2.383.957A3.847,3.847,0,0,1,1.9-5.85a5.156,5.156,0,0,1-1.133-3.5,5.247,5.247,0,0,1,.635-2.539A4.763,4.763,0,0,1,3.188-13.74a4.859,4.859,0,0,1,2.534-.684,4.717,4.717,0,0,1,2.544.708,4.767,4.767,0,0,1,1.772,2,6.877,6.877,0,0,1,.654,2.983v1.26a8.548,8.548,0,0,1-.923,4.082A6.371,6.371,0,0,1,7.139-.732,8.224,8.224,0,0,1,3.154.2H2.949V-2.441l.625-.01Q6.973-2.617,7.354-5.5ZM5.859-6.914A1.6,1.6,0,0,0,7.4-7.842V-9.209a3.555,3.555,0,0,0-.459-2.021,1.44,1.44,0,0,0-1.24-.654,1.361,1.361,0,0,0-1.162.742,3.3,3.3,0,0,0-.469,1.8,2.956,2.956,0,0,0,.479,1.772A1.531,1.531,0,0,0,5.859-6.914Z" transform="translate(1080 1533)" fill="#3a1d71"/>
  </g>
</svg>
