<svg xmlns="http://www.w3.org/2000/svg" xmlns:xlink="http://www.w3.org/1999/xlink" width="231" height="219" viewBox="0 0 231 219">
  <defs>
    <filter id="Trazado_884790" x="44.605" y="24.851" width="143.04" height="143.04" filterUnits="userSpaceOnUse">
      <feOffset dy="1" input="SourceAlpha"/>
      <feGaussianBlur stdDeviation="5.5" result="blur"/>
      <feFlood flood-color="#fff" flood-opacity="0.902"/>
      <feComposite operator="in" in2="blur"/>
      <feComposite in="SourceGraphic"/>
    </filter>
  </defs>
  <g id="Grupo_1104608" data-name="Grupo 1104608" transform="translate(-9.98 63.129)">
    <g id="Grupo_1102897" data-name="Grupo 1102897" transform="translate(10.037 -63.129)">
      <rect id="Rectángulo_400902" data-name="Rectángulo 400902" width="231" height="31" rx="11" transform="translate(-0.057 172)" fill="#f0c518"/>
      <rect id="Rectángulo_400903" data-name="Rectángulo 400903" width="157.86" height="219" rx="11" transform="translate(36.054)" fill="#0b47db"/>
      <g id="Grupo_1102898" data-name="Grupo 1102898" transform="translate(61.048 40.351)">
        <g transform="matrix(1, 0, 0, 1, -61.11, -40.35)" filter="url(#Trazado_884790)">
          <g id="Trazado_884790-2" data-name="Trazado 884790" transform="translate(61.11 40.35)" fill="none">
            <path d="M55.02,0a55.02,55.02,0,1,0,55.02,55.02A55.02,55.02,0,0,0,55.02,0Z" stroke="none"/>
            <path d="M 55.01996612548828 24.00000762939453 C 37.91550445556641 24.00000762939453 24.00000762939453 37.91550445556641 24.00000762939453 55.01996612548828 C 24.00000762939453 72.12442779541016 37.91550445556641 86.03993225097656 55.01996612548828 86.03993225097656 C 72.12442779541016 86.03993225097656 86.03993225097656 72.12442779541016 86.03993225097656 55.01996612548828 C 86.03993225097656 37.91550445556641 72.12442779541016 24.00000762939453 55.01996612548828 24.00000762939453 M 55.01996612548828 7.62939453125e-06 C 85.40666198730469 7.62939453125e-06 110.039924621582 24.63327026367188 110.039924621582 55.01996612548828 C 110.039924621582 85.40666198730469 85.40666198730469 110.039924621582 55.01996612548828 110.039924621582 C 24.63327026367188 110.039924621582 7.62939453125e-06 85.40666198730469 7.62939453125e-06 55.01996612548828 C 7.62939453125e-06 24.63327026367188 24.63327026367188 7.62939453125e-06 55.01996612548828 7.62939453125e-06 Z" stroke="none" fill="#fff"/>
          </g>
        </g>
      </g>
      <g id="programador_10_" data-name="programador (10)" transform="translate(61.048 58.865)">
        <g id="Grupo_1099575" data-name="Grupo 1099575" transform="translate(0)">
          <g id="Web_Developer" data-name="Web Developer">
            <path id="Trazado_878796" data-name="Trazado 878796" d="M12.662,56V19.328a3.708,3.708,0,0,1,3.708-3.708H54.061a3.708,3.708,0,0,1,3.674,3.708V67.211A3.691,3.691,0,0,1,54.028,70.9H4.881A1.846,1.846,0,0,1,3.5,67.793L11.814,58.4A3.691,3.691,0,0,0,12.662,56Z" transform="translate(93.582 10.874)" fill="#619fff"/>
            <path id="Trazado_878797" data-name="Trazado 878797" d="M28.82,120.8H135.527L129.608,82.04A23.692,23.692,0,0,0,111.319,62.5l-28.9-6.434L53.028,62.6A23.676,23.676,0,0,0,34.739,82.156Z" transform="translate(-27.139 37.677)" fill="#ffab57"/>
            <path id="Trazado_878798" data-name="Trazado 878798" d="M54.73,67.388l9.627,17.69L74.3,67.388V49.98H54.73Z" transform="translate(-8.989 33.641)" fill="#ffbf9d"/>
            <path id="Trazado_878799" data-name="Trazado 878799" d="M42.264,42.16h68.383a6.916,6.916,0,1,0,0-13.816H42.264a6.916,6.916,0,0,0,0,13.816Z" transform="translate(-20.93 19.299)" fill="#ffbf9d"/>
            <path id="Trazado_878800" data-name="Trazado 878800" d="M72.8,82.66a30.592,30.592,0,0,0,30.592-30.592V38.052a30.592,30.592,0,1,0-61.184,0V52.068A30.592,30.592,0,0,0,72.8,82.66Z" transform="translate(-17.269 5.467)" fill="#fdb"/>
            <path id="Trazado_878801" data-name="Trazado 878801" d="M42.2,45.451v-7.4a30.592,30.592,0,0,1,61.184,0v7.4Z" transform="translate(-17.242 5.467)" fill="#ffc9a2"/>
            <path id="Trazado_878803" data-name="Trazado 878803" d="M39.052,110.885h81.7L127.237,62.4a4.988,4.988,0,0,0-4.988-5.653H37.456A4.988,4.988,0,0,0,32.468,62.4Z" transform="translate(-24.884 38.127)" fill="#dbecff"/>
            <path id="Trazado_878804" data-name="Trazado 878804" d="M78.147,78.248a6.052,6.052,0,0,1-9.41-4.206l-1.047-7.914A2.993,2.993,0,0,1,70.666,62.8H89.187a3.325,3.325,0,0,1,2.028,6.085C86.161,72.595,82.7,75.172,78.147,78.248Z" transform="translate(-48.9 42.134)" fill="#fff"/>
            <path id="Trazado_878805" data-name="Trazado 878805" d="M54.907,62.75a2.993,2.993,0,0,1,2.976,3.325L54.125,94.24a2.993,2.993,0,0,1-2.976,2.61H45.3a6.168,6.168,0,0,1-5.636-8.7A254.874,254.874,0,0,1,50.6,65.095,4.988,4.988,0,0,1,54.907,62.75Z" transform="translate(33.364 42.103)" fill="#fff"/>
            <path id="Trazado_878806" data-name="Trazado 878806" d="M118.068,89.31H36.35v9.46h81.718Z" transform="translate(-22.199 59.702)" fill="#5955a1"/>
            <path id="Trazado_878807" data-name="Trazado 878807" d="M98.449,89.31H44.78v9.46H98.449Z" transform="translate(-16.596 59.702)" fill="#b8c4ff"/>
            <path id="Trazado_878808" data-name="Trazado 878808" d="M54.4,85.657a10.774,10.774,0,1,0,0-16.626,10.774,10.774,0,0,1,0,16.626Z" transform="translate(-6.163 44.634)" fill="#5955a1"/>
            <path id="Trazado_878809" data-name="Trazado 878809" d="M40.673,46.754h67.353V34.983a33.685,33.685,0,1,0-67.353,0Z" transform="translate(-19.34 0.888)" fill="#ff575a"/>
            <path id="Trazado_878810" data-name="Trazado 878810" d="M45.51,34.915h18.8V27.433a9.41,9.41,0,0,0-18.8,0Z" transform="translate(16.325 12.728)" fill="#5955a1"/>
            <path id="Trazado_878811" data-name="Trazado 878811" d="M64.314,24.08H45.51v7.083h18.8Z" transform="translate(16.325 16.48)" fill="#ff7a5a"/>
            <rect id="Rectángulo_402723" data-name="Rectángulo 402723" width="11.04" height="7.083" rx="0.87" transform="translate(65.725 40.56)" fill="#ff985a"/>
            <path id="Trazado_878812" data-name="Trazado 878812" d="M77.968,21.62H62.006a5.586,5.586,0,0,0,0,11.173h45.755l-4.472-3.159A44.109,44.109,0,0,0,77.968,21.62Z" transform="translate(-45.262 14.85)" fill="#ff985a"/>
            <path id="Trazado_878813" data-name="Trazado 878813" d="M54.041,24.689a48.8,48.8,0,0,1,18.9,3.841A5.537,5.537,0,0,0,79.928,26.2a14.448,14.448,0,0,1,8.479-6.65,5.453,5.453,0,0,0,1.147-9.976A28.614,28.614,0,0,0,51.547,20.3a2.943,2.943,0,0,0,2.494,4.389Z" transform="translate(-21.086 4.665)" fill="#ff897d"/>
            <g id="Grupo_1101536" data-name="Grupo 1101536">
              <path id="Trazado_878814" data-name="Trazado 878814" d="M35.522,112.967l-1.663-12.536A6.65,6.65,0,0,1,40.51,92.9H71.867V87.363A32.3,32.3,0,0,1,51.55,62.806H49.139a8.579,8.579,0,0,1-6.551-14.1,7.249,7.249,0,0,1,1.945-14.215h2.976a35.328,35.328,0,1,1,70.649,1.048l0,10.159a8.562,8.562,0,0,1-.648,17.108h-2.411A32.3,32.3,0,0,1,94.778,87.363V92.9h30.409a6.651,6.651,0,0,1,6.65,7.532l-1.663,12.47c1.663,3.608,1.313,3.325,7.7,45.007a1.663,1.663,0,0,1-1.663,1.912H29.47a1.663,1.663,0,0,1-1.663-1.912C34.092,116.592,33.71,117.057,35.522,112.967ZM49.139,59.481h1.945c-.15-1.53-.116-1.762-.116-10.491H49.056a5.254,5.254,0,1,0,0,10.491ZM44.533,37.867a3.924,3.924,0,1,0,0,7.848h40.5a42.131,42.131,0,0,0-24.54-7.848Zm62.248,4.04h-15.5v3.758h15.5Zm-.1-3.325a7.764,7.764,0,0,0-15.313,0Zm8.147-3.043a32,32,0,1,0-64-1.048h9.664a45.323,45.323,0,0,1,26.269,8.313l1.2.831V40.245a11.073,11.073,0,0,1,22.146,0v5.42h4.722Zm2.677,23.942a5.254,5.254,0,1,0,0-10.491h-1.929c0,8.313,0,8.928-.1,10.491Zm-5.8,3.325c.665-3.325.549-4.988.549-13.816H54.409v8.23a28.93,28.93,0,0,0,57.327,5.586ZM91.452,88.444a32.637,32.637,0,0,1-16.26,0V92.9h2.494c6.85-1.513,7.332-1.663,0,0H88.327c-3.109-.7-4.871-1.114-4.988-1.114H83.6c5.819,1.3,4.057,1.081,7.9,1.081Zm33.734,7.781H40.394A3.325,3.325,0,0,0,37.068,100c1.929,14.465-.349-2.477,6.268,47.035h78.875L128.5,99.966a3.325,3.325,0,0,0-3.309-3.741Zm3.758,25.571c-4.206,31.473-3.608,24.457-3.608,34.7h8.878Zm-6.933,28.564H111.3v6.135h10.707Zm-14.032,6.135V150.36H57.635v6.135Zm-53.669,0V150.36H43.619v6.135Zm-14.016,0c0-10.325.582-3.325-3.608-34.732l-5.3,34.732Z" transform="translate(-27.789 0.315)"/>
              <path id="Trazado_878820" data-name="Trazado 878820" d="M54.075,87.633a1.663,1.663,0,0,1,0-2.594,9.128,9.128,0,0,0,0-14.132,1.663,1.663,0,0,1,0-2.577,12.436,12.436,0,1,1,0,19.3Zm3.691-17.757a12.486,12.486,0,0,1,0,16.211,9.111,9.111,0,1,0,0-16.211Z" transform="translate(-6.921 43.955)"/>
              <path id="Trazado_878821" data-name="Trazado 878821" d="M24.068,22.633a1.664,1.664,0,1,1,2.344,2.361l-2.743,2.76,2.743,2.76a1.663,1.663,0,0,1-1.164,2.826c-.914,0-.881-.183-5.121-4.423a1.663,1.663,0,0,1,0-2.344Z" transform="translate(96.74 15.2)"/>
              <path id="Trazado_878822" data-name="Trazado 878822" d="M11.075,32.858a1.663,1.663,0,0,1-2.344-2.344l2.76-2.76-2.76-2.76a1.664,1.664,0,0,1,2.344-2.361l3.94,3.94a1.663,1.663,0,0,1,0,2.344Z" transform="translate(127.107 15.2)"/>
              <path id="Trazado_878823" data-name="Trazado 878823" d="M19.98,31.187a1.663,1.663,0,0,1-1.18-.5l-4.755-4.755a1.663,1.663,0,0,1,2.344-2.344l4.822,4.672a1.663,1.663,0,0,1-1.23,2.926Z" transform="translate(111.818 15.89)"/>
              <path id="Trazado_878824" data-name="Trazado 878824" d="M2.869,67.425l8.313-9.41a2,2,0,0,0,.515-1.347V19.99a5.37,5.37,0,0,1,5.354-5.37H54.676a5.37,5.37,0,0,1,5.337,5.37V67.874a5.37,5.37,0,0,1-5.37,5.37H5.512a3.508,3.508,0,0,1-2.644-5.819Zm53.819.449V19.99a2.062,2.062,0,0,0-2.045-2.045H16.984a2.045,2.045,0,0,0-2.028,2.045V56.668a5.37,5.37,0,0,1-1.347,3.475C4.864,70.118,5.3,69.569,5.3,69.736s-3.625.116,49.33.116a2.062,2.062,0,0,0,2.062-1.979Z" transform="translate(92.967 10.211)"/>
              <path id="Trazado_878825" data-name="Trazado 878825" d="M20.623,39.584h.565v-1.8c0-4.506,6.152-5.936,6.152-2.826a1.663,1.663,0,0,1-1.663,1.663,1.164,1.164,0,0,0-1.164,1.164v6.833a1.18,1.18,0,0,0,1.164,1.18,1.663,1.663,0,0,1,1.662,1.662c0,3.076-6.152,1.663-6.152-2.843V42.909h-.565a1.663,1.663,0,0,1,0-3.325Z" transform="translate(97.442 22.589)"/>
              <path id="Trazado_878826" data-name="Trazado 878826" d="M10.643,37.781a1.164,1.164,0,0,0-1.18-1.164A1.663,1.663,0,0,1,7.8,34.955c0-3.076,6.168-1.663,6.168,2.826v1.762h.565a1.663,1.663,0,1,1,0,3.325h-.565v1.746c0,4.522-6.168,5.936-6.168,2.843a1.663,1.663,0,0,1,1.663-1.663,1.18,1.18,0,0,0,1.18-1.18Z" transform="translate(127.14 22.597)"/>
              <path id="Trazado_878827" data-name="Trazado 878827" d="M15.946,35.713,22.1,41.864a1.663,1.663,0,0,1-2.344,2.344L13.6,38.074a1.664,1.664,0,0,1,2.344-2.361Z" transform="translate(112.012 23.867)"/>
            </g>
          </g>
        </g>
      </g>
      <g id="Grupo_1103886" data-name="Grupo 1103886" transform="translate(26.899 89.459)">
        <path id="Trazado_875239" data-name="Trazado 875239" d="M43.224,229.515a7.413,7.413,0,0,1,7.4,7.405v5.971a7.405,7.405,0,0,1-14.81,0V236.92A7.414,7.414,0,0,1,43.224,229.515Zm-2.709,13.376a2.709,2.709,0,0,0,5.417,0V236.92a2.709,2.709,0,0,0-5.417,0Z" transform="translate(-24.604 -229.515)"/>
        <path id="Trazado_875240" data-name="Trazado 875240" d="M106.288,250.3a2.348,2.348,0,0,1-2.348-2.348V231.863a2.348,2.348,0,1,1,4.7,0v16.085A2.348,2.348,0,0,1,106.288,250.3Z" transform="translate(-103.94 -229.515)"/>
        <path id="Trazado_875241" data-name="Trazado 875241" d="M7.4,311.416a7.413,7.413,0,0,1,7.4,7.4v5.971a7.4,7.4,0,1,1-14.81,0v-5.971A7.413,7.413,0,0,1,7.4,311.416ZM4.7,324.792a2.709,2.709,0,1,0,5.417,0v-5.971a2.709,2.709,0,0,0-5.417,0v5.971Z" transform="translate(22.43 -285.773)"/>
        <path id="Trazado_875242" data-name="Trazado 875242" d="M70.47,311.416a2.348,2.348,0,0,1,2.348,2.348v16.085a2.348,2.348,0,1,1-4.7,0V313.764A2.348,2.348,0,0,1,70.47,311.416Z" transform="translate(-56.907 -285.773)"/>
        <path id="Trazado_875243" data-name="Trazado 875243" d="M2.348,250.3A2.348,2.348,0,0,1,0,247.948V231.863a2.348,2.348,0,1,1,4.7,0v16.085A2.348,2.348,0,0,1,2.348,250.3Z" transform="translate(32.543 -229.515)"/>
      </g>
    </g>
  </g>
</svg>
