<svg xmlns="http://www.w3.org/2000/svg" width="78" height="78" viewBox="0 0 78 78">
  <g id="Grupo_1105907" data-name="Grupo 1105907" transform="translate(-210 -18632.285)">
    <path id="Trazado_875520" data-name="Trazado 875520" d="M39,0A39,39,0,1,1,0,39,39,39,0,0,1,39,0Z" transform="translate(210 18632.285)" fill="#f0c518"/>
    <g id="programmer_3195686" transform="translate(225.699 18647.484)">
      <g id="Grupo_1100498" data-name="Grupo 1100498" transform="translate(0.768 0.768)">
        <g id="Grupo_1100484" data-name="Grupo 1100484" transform="translate(18.426 6.142)">
          <path id="Trazado_876772" data-name="Trazado 876772" d="M2,22.284H28.1a1.535,1.535,0,0,0,1.536-1.536V10H2Z" transform="translate(-2 -10)" fill="#e6e9ed"/>
        </g>
        <g id="Grupo_1100485" data-name="Grupo 1100485" transform="translate(18.426)">
          <path id="Trazado_876773" data-name="Trazado 876773" d="M4.3,6.607a4.639,4.639,0,0,1-.261,1.536h25.6V3.536A1.54,1.54,0,0,0,28.1,2H3.536A1.54,1.54,0,0,0,2,3.536V4.971a7.725,7.725,0,0,0,1.175-.292L4.3,4.3Z" transform="translate(-2 -2)" fill="#5cd6b3"/>
        </g>
        <g id="Grupo_1100486" data-name="Grupo 1100486" transform="translate(0 24.568)">
          <path id="Trazado_876774" data-name="Trazado 876774" d="M58,34V55.5h3.071V37.071A3.07,3.07,0,0,0,58,34Z" transform="translate(-58 -34)" fill="#d3a06c"/>
        </g>
        <g id="Grupo_1100487" data-name="Grupo 1100487" transform="translate(0 1.536)">
          <path id="Trazado_876775" data-name="Trazado 876775" d="M53.426,5.436a7.39,7.39,0,0,1-1.236.1,7.759,7.759,0,0,1-2.1-.292L46.67,4.261A7.04,7.04,0,0,0,44.789,4a6.85,6.85,0,0,0-6.6,4.983l-.115.392-.783.975a10.449,10.449,0,0,0,4.284,16.238l1.106.445V22.426l-1.551-.775a2.746,2.746,0,0,1,.56-5.121l.99-.246V14.749a3.07,3.07,0,0,1,3.071-3.071h5.374a4.567,4.567,0,0,0,2.3-.614,4.6,4.6,0,0,0,2.3-3.992v-2.3L54.6,5.144A7.725,7.725,0,0,1,53.426,5.436Z" transform="translate(-35 -4)" fill="#b27946"/>
        </g>
        <g id="Grupo_1100488" data-name="Grupo 1100488" transform="translate(3.079 27.639)">
          <path id="Trazado_876776" data-name="Trazado 876776" d="M47.766,48.749A12.173,12.173,0,0,0,38.6,38a6.725,6.725,0,0,0-3.332,2.449A6.655,6.655,0,0,0,34,44.28a9.2,9.2,0,0,0,9.205,9.075h9.213V50.284a1.54,1.54,0,0,0-1.536-1.536Z" transform="translate(-34 -38)" fill="#5cd6b3"/>
        </g>
        <g id="Grupo_1100489" data-name="Grupo 1100489" transform="translate(3.071 33.919)">
          <path id="Trazado_876777" data-name="Trazado 876777" d="M40,48.345v9.981H53.82V55.255H49.213a9.2,9.2,0,0,1-9.205-9.075.507.507,0,0,0-.008.107Z" transform="translate(-40 -46.18)" fill="#5cd6b3"/>
        </g>
        <g id="Grupo_1100490" data-name="Grupo 1100490" transform="translate(16.891 42.994)">
          <path id="Trazado_876778" data-name="Trazado 876778" d="M16,58v3.071H31.355A3.07,3.07,0,0,1,34.426,58H16Z" transform="translate(-16 -58)" fill="#969faa"/>
        </g>
        <g id="Grupo_1100491" data-name="Grupo 1100491" transform="translate(32.246 29.942)">
          <path id="Trazado_876779" data-name="Trazado 876779" d="M12.91,54.052H9.071A3.07,3.07,0,0,0,6,57.123h9.367a1.386,1.386,0,0,0,1.382-1.382,1.322,1.322,0,0,0-.031-.3L13.631,41.4a1.421,1.421,0,0,0-.169-.4l-2.119,4.775Z" transform="translate(-6 -41)" fill="#aab2bd"/>
        </g>
        <g id="Grupo_1100492" data-name="Grupo 1100492" transform="translate(31.48 21.497)">
          <path id="Trazado_876780" data-name="Trazado 876780" d="M7.246,45.094a2.3,2.3,0,1,0,4.115,2.058l1.75-3.931,2.119-4.775L17.5,33.332a2.3,2.3,0,0,0-4.115-2.065Z" transform="translate(-7.003 -30)" fill="#ccd1d9"/>
        </g>
        <g id="Grupo_1100493" data-name="Grupo 1100493" transform="translate(21.497 39.923)">
          <path id="Trazado_876781" data-name="Trazado 876781" d="M28,54v3.071h4.607V55.536A1.54,1.54,0,0,0,31.071,54Z" transform="translate(-28 -54)" fill="#f0d0b4"/>
        </g>
        <g id="Grupo_1100494" data-name="Grupo 1100494" transform="translate(7.678 8.599)">
          <path id="Trazado_876782" data-name="Trazado 876782" d="M46.445,13.814H41.071A3.07,3.07,0,0,0,38,16.885H48.749V13.2A4.567,4.567,0,0,1,46.445,13.814Z" transform="translate(-38 -13.2)" fill="#f0d0b4"/>
        </g>
        <g id="Grupo_1100495" data-name="Grupo 1100495" transform="translate(4.607 12.284)">
          <path id="Trazado_876783" data-name="Trazado 876783" d="M39.071,33.355a12.093,12.093,0,0,1,6.134,3.716h.008V31.82h1.536a3.07,3.07,0,0,0,3.071-3.071V27.213l.614-.307a1.662,1.662,0,0,0,.921-1.489,1.731,1.731,0,0,0-.276-.929l-.23-.345h-.008l-.507-.76a3.066,3.066,0,0,1-.514-1.7v-.607H45.643a1.529,1.529,0,0,1-1.489-1.159L43.678,18H39.071v1.536l-.99.246a2.746,2.746,0,0,0-.56,5.121l1.551.775v7.678Z" transform="translate(-36 -18)" fill="#f0d0b4"/>
        </g>
        <g id="Grupo_1100496" data-name="Grupo 1100496" transform="translate(12.284 12.284)">
          <path id="Trazado_876784" data-name="Trazado 876784" d="M38,18l.476,1.912a1.529,1.529,0,0,0,1.489,1.159h4.177V18Z" transform="translate(-38 -18)" fill="#69d6f4"/>
        </g>
        <g id="Grupo_1100497" data-name="Grupo 1100497" transform="translate(35.317 9.213)">
          <path id="Trazado_876785" data-name="Trazado 876785" d="M13.678,14H6v6.142h7.678Z" transform="translate(-6 -14)" fill="#fcd770"/>
        </g>
      </g>
      <g id="Grupo_1100499" data-name="Grupo 1100499" transform="translate(0 0)">
        <path id="Trazado_876786" data-name="Trazado 876786" d="M5.607,29.407v1.847a7.484,7.484,0,0,1,3.071-2.377V26.856l-.621-.249A11.226,11.226,0,0,1,3.46,9.171l.683-.853.07-.245a7.636,7.636,0,0,1,9.438-5.245l3.424.978a6.81,6.81,0,0,0,2.351.23V3.3a2.306,2.306,0,0,1,2.3-2.3H46.3a2.306,2.306,0,0,1,2.3,2.3V18.658a2.306,2.306,0,0,1-2.3,2.3H22.438a2.4,2.4,0,0,1-1.288,2.683l-.189.094V24.8a3.843,3.843,0,0,1-3.839,3.839h-.768v4.2a12.9,12.9,0,0,1,2.934,6.546h2.44a2.3,2.3,0,0,1,2.162,1.536h2.445a2.306,2.306,0,0,1,2.3,2.3v.768H40l-.938-4.95-.764,1.718a3.057,3.057,0,0,1-2.746,1.7,3.109,3.109,0,0,1-1.373-.324,3.068,3.068,0,0,1-1.389-4.089l6.159-13.854A3.057,3.057,0,0,1,41.692,22.5a3.116,3.116,0,0,1,1.373.323,3.068,3.068,0,0,1,1.389,4.089l-2.134,4.8a2.337,2.337,0,0,1,.075.232l3.084,14.042a2.126,2.126,0,0,1,.051.464A2.155,2.155,0,0,1,43.377,48.6H1V25.568h.768a3.843,3.843,0,0,1,3.839,3.839ZM16.654,5.284,13.23,4.306A6.1,6.1,0,0,0,5.689,8.495l-.155.542-.876,1.094a9.691,9.691,0,0,0,3.969,15.05l.051.021v-3l-1.13-.564a3.513,3.513,0,0,1,.719-6.549l.411-.1v-.937a3.844,3.844,0,0,1,3.839-3.839h5.374a3.843,3.843,0,0,0,3.839-3.839V5.137l-.12.041a8.432,8.432,0,0,1-4.955.107Zm2.772,9.535H15.035l.239.954a.768.768,0,0,0,.745.582h3.407Zm0-1.536V11.522a5.341,5.341,0,0,1-1.536.226H12.516a2.3,2.3,0,0,0-2.162,1.536ZM46.3,2.536H21.729a.768.768,0,0,0-.768.768v.458c.053-.016.109-.023.162-.041l2.141-.715V6.374a5.394,5.394,0,0,1-.061.768H47.065V3.3A.768.768,0,0,0,46.3,2.536ZM21.348,19.006l.279.42H46.3a.768.768,0,0,0,.768-.768V8.678H22.739a5.4,5.4,0,0,1-1.777,2.1v6.95a2.291,2.291,0,0,0,.387,1.278Zm-9.6,9.633V27.1h5.374a2.306,2.306,0,0,0,2.3-2.3V22.79l1.039-.519a.9.9,0,0,0,.345-1.3l-.739-1.109a3.812,3.812,0,0,1-.633-1.968h-3.42a2.3,2.3,0,0,1-2.234-1.744l-.332-1.327h-3.24v1.367l-1.574.394a1.977,1.977,0,0,0-.4,3.686l1.978.989v7.578a12.9,12.9,0,0,1,4.607,2.485V28.639ZM22.5,41.691a.768.768,0,0,0-.768-.768H15.587a6.917,6.917,0,0,1-6.91-6.91h1.536a5.381,5.381,0,0,0,5.374,5.374h2.157a11.394,11.394,0,0,0-8.265-9.178A5.956,5.956,0,0,0,5.614,35.7a8.451,8.451,0,0,0,8.438,8.295H22.5ZM19.426,45.53v1.536h13.9a3.812,3.812,0,0,1,.709-1.536H19.426Zm7.678-2.3a.768.768,0,0,0-.768-.768h-2.3v1.536H27.1ZM42.38,24.2a1.557,1.557,0,0,0-.689-.163,1.518,1.518,0,0,0-1.358.815L34.175,38.7a1.538,1.538,0,0,0,.685,2.06,1.57,1.57,0,0,0,2.047-.653l6.157-13.853A1.537,1.537,0,0,0,42.38,24.2Zm-1.457,22.87h2.454a.617.617,0,0,0,.617-.617.587.587,0,0,0-.015-.133l-2.7-12.276-1.129,2.54,1.453,7.665,1.2.6-.687,1.374-1.373-.686H37.084a2.308,2.308,0,0,0-2.172,1.536Zm-23.033,0V45.53H14.052a9.975,9.975,0,0,1-8.445-4.686v6.222Zm-15.355,0H4.071V29.407a2.308,2.308,0,0,0-1.536-2.172Z" transform="translate(-1 -1)"/>
        <path id="Trazado_876787" data-name="Trazado 876787" d="M14.536,5H13V6.536h1.536Z" transform="translate(23.852 -1.929)"/>
        <path id="Trazado_876788" data-name="Trazado 876788" d="M6.536,5H5V6.536H6.536Z" transform="translate(37.994 -1.929)"/>
        <path id="Trazado_876789" data-name="Trazado 876789" d="M10.536,5H9V6.536h1.536Z" transform="translate(30.923 -1.929)"/>
        <path id="Trazado_876790" data-name="Trazado 876790" d="M14.213,20.678H5V13h9.213Zm-1.536-6.142H6.536v4.607h6.142Z" transform="translate(30.317 -3.787)"/>
        <path id="Trazado_876791" data-name="Trazado 876791" d="M24.658,13.412l-3.9,3.248,3.9,3.248-.984,1.181L18.359,16.66l5.314-4.429Z" transform="translate(9.616 -3.608)"/>
        <path id="Trazado_876792" data-name="Trazado 876792" d="M33.142,21H27v1.536h6.142Z" transform="translate(-5.503 -5.645)"/>
      </g>
    </g>
  </g>
</svg>
