<svg xmlns="http://www.w3.org/2000/svg" width="70" height="70" viewBox="0 0 70 70">
  <g id="Grupo_1104245" data-name="Grupo 1104245" transform="translate(0 0)">
    <g id="Grupo_1095345" data-name="Grupo 1095345" transform="translate(0 0)">
      <path id="Trazado_875520" data-name="Trazado 875520" d="M35,0A35,35,0,1,1,0,35,35,35,0,0,1,35,0Z" fill="#8722e2"/>
    </g>
    <g id="algorithm_1671607" transform="translate(13.244 15.243)">
      <path id="Trazado_890805" data-name="Trazado 890805" d="M185.172,15.787a7.255,7.255,0,0,1-7.252,7.252,6.531,6.531,0,0,1-1.073-.087c-.007.007-.015.007-.029,0a7.249,7.249,0,0,1,0-14.33c.014-.007.022-.007.029,0a6.531,6.531,0,0,1,1.073-.087,7.255,7.255,0,0,1,7.252,7.252Zm0,0" transform="translate(-156.164 -7.81)" fill="#fec108"/>
      <path id="Trazado_890806" data-name="Trazado 890806" d="M183,16.665a7.25,7.25,0,0,1-6.15,7.165c-.007.007-.015.007-.029,0a7.249,7.249,0,0,1,0-14.33c.014-.007.022-.007.029,0A7.253,7.253,0,0,1,183,16.665Zm0,0" transform="translate(-156.163 -8.688)" fill="#ffdc00"/>
      <path id="Trazado_890807" data-name="Trazado 890807" d="M183.047,98.994a7.242,7.242,0,0,1-10.168.08c-.007,0-.014,0-.014-.007a7.233,7.233,0,0,1-2.2-5.2h7.252Zm0,0" transform="translate(-156.163 -85.89)" fill="#0377bc"/>
      <path id="Trazado_890808" data-name="Trazado 890808" d="M181.749,98a7.223,7.223,0,0,1-5.127,2.118,7.137,7.137,0,0,1-3.742-1.044c-.007,0-.014,0-.014-.007a7.233,7.233,0,0,1-2.2-5.2h6.955Zm0,0" transform="translate(-156.164 -85.89)" fill="#02a9f4"/>
      <path id="Trazado_890809" data-name="Trazado 890809" d="M177.92,38.663h-7.252a7.229,7.229,0,0,1,2.125-5.127Zm0,0" transform="translate(-156.164 -30.685)" fill="#ef314c"/>
      <path id="Trazado_890810" data-name="Trazado 890810" d="M9.26,8.535h7.252a.725.725,0,0,1,.725.725v2.9a.725.725,0,0,1-.725.725H9.26a.725.725,0,0,1-.725-.725V9.26a.725.725,0,0,1,.725-.725Zm0,0" transform="translate(-7.81 -7.81)" fill="#0377bc"/>
      <path id="Trazado_890811" data-name="Trazado 890811" d="M9.26,8.535h5.077a.725.725,0,0,1,.725.725v2.9a.725.725,0,0,1-.725.725H9.26a.725.725,0,0,1-.725-.725V9.26A.725.725,0,0,1,9.26,8.535Zm0,0" transform="translate(-7.81 -7.81)" fill="#02a9f4"/>
      <path id="Trazado_890812" data-name="Trazado 890812" d="M401.792,8.535h7.252a.725.725,0,0,1,.725.725v2.9a.725.725,0,0,1-.725.725h-7.252a.725.725,0,0,1-.725-.725V9.26A.725.725,0,0,1,401.792,8.535Zm0,0" transform="translate(-366.981 -7.81)" fill="#0377bc"/>
      <path id="Trazado_890813" data-name="Trazado 890813" d="M401.792,8.535h5.076a.725.725,0,0,1,.725.725v2.9a.725.725,0,0,1-.725.725h-5.076a.725.725,0,0,1-.725-.725V9.26A.725.725,0,0,1,401.792,8.535Zm0,0" transform="translate(-366.981 -7.81)" fill="#02a9f4"/>
      <path id="Trazado_890814" data-name="Trazado 890814" d="M375.887,194.325l-4.591,5.156a1.437,1.437,0,0,1-2.161,0l-.4-.45-4.192-4.707a1.458,1.458,0,0,1,0-1.929l4.163-4.678.428-.479a1.437,1.437,0,0,1,2.161,0l4.591,5.156a1.458,1.458,0,0,1,0,1.929Zm0,0" transform="translate(-333.23 -170.879)" fill="#bb193b"/>
      <path id="Trazado_890815" data-name="Trazado 890815" d="M372.892,204.781l-4.155,4.678-4.192-4.707a1.458,1.458,0,0,1,0-1.929l4.163-4.678,4.185,4.707a1.442,1.442,0,0,1,0,1.929Zm0,0" transform="translate(-333.23 -181.305)" fill="#ef314c"/>
      <path id="Trazado_890816" data-name="Trazado 890816" d="M199.338,372.735a5.8,5.8,0,0,1-5.8,5.8,5.954,5.954,0,0,1-1.088-.1,5.8,5.8,0,0,1,0-11.4,5.951,5.951,0,0,1,1.088-.1,5.8,5.8,0,0,1,5.8,5.8Zm0,0" transform="translate(-171.78 -335.749)" fill="#fec108"/>
      <path id="Trazado_890817" data-name="Trazado 890817" d="M197.162,373.829c0-3.148-2.111-5.7-4.714-5.7s-4.714,2.552-4.714,5.7,2.11,5.7,4.714,5.7S197.162,376.977,197.162,373.829Zm0,0" transform="translate(-171.78 -336.843)" fill="#ffdc00"/>
      <path id="Trazado_890818" data-name="Trazado 890818" d="M9.26,213.332H21.589a.725.725,0,0,1,.725.725v7.252a.725.725,0,0,1-.725.725H9.26a.725.725,0,0,1-.725-.725v-7.252a.725.725,0,0,1,.725-.725Zm0,0" transform="translate(-7.81 -195.202)" fill="#bb193b"/>
      <path id="Trazado_890819" data-name="Trazado 890819" d="M9.26,213.332H19.414a.725.725,0,0,1,.725.725v7.252a.725.725,0,0,1-.725.725H9.26a.725.725,0,0,1-.725-.725v-7.252A.725.725,0,0,1,9.26,213.332Zm0,0" transform="translate(-7.81 -195.202)" fill="#ef314c"/>
      <path id="Trazado_890820" data-name="Trazado 890820" d="M170.11,15.955a7.978,7.978,0,1,1,7.978-7.978A7.978,7.978,0,0,1,170.11,15.955Zm0-14.5a6.527,6.527,0,1,0,6.527,6.527A6.527,6.527,0,0,0,170.11,1.45Zm0,0" transform="translate(-148.354)"/>
      <path id="Trazado_890821" data-name="Trazado 890821" d="M198.1,36.688a.724.724,0,0,1-.513-.212l-10.149-10.15a.725.725,0,0,1,1.025-1.025l10.149,10.15a.725.725,0,0,1-.513,1.238Zm0,0" transform="translate(-171.321 -22.964)"/>
      <path id="Trazado_890822" data-name="Trazado 890822" d="M170.11,86.782h-7.252a.725.725,0,1,1,0-1.45h7.252a.725.725,0,1,1,0,1.45Zm0,0" transform="translate(-148.354 -78.08)"/>
      <path id="Trazado_890823" data-name="Trazado 890823" d="M13.78,214.954H1.451A1.452,1.452,0,0,1,0,213.5v-7.252a1.452,1.452,0,0,1,1.45-1.45H13.78a1.452,1.452,0,0,1,1.45,1.45V213.5A1.452,1.452,0,0,1,13.78,214.954Zm-12.329-8.7V213.5h12.33v-7.252Zm0,0" transform="translate(-0.001 -187.396)"/>
      <path id="Trazado_890824" data-name="Trazado 890824" d="M42.836,240.384H34.858a.725.725,0,1,1,0-1.45h7.978a.725.725,0,0,1,0,1.45Zm0,0" transform="translate(-31.232 -218.628)"/>
      <path id="Trazado_890825" data-name="Trazado 890825" d="M38.484,274.517H34.858a.725.725,0,1,1,0-1.45h3.626a.725.725,0,1,1,0,1.45Zm0,0" transform="translate(-31.232 -249.86)"/>
      <path id="Trazado_890826" data-name="Trazado 890826" d="M77.526,96.936a.725.725,0,0,1-.725-.725v-8.7a2.178,2.178,0,0,1,2.175-2.176h5.8a.725.725,0,0,1,0,1.45h-5.8a.726.726,0,0,0-.725.725v8.7A.725.725,0,0,1,77.526,96.936Zm0,0" transform="translate(-70.274 -78.08)"/>
      <path id="Trazado_890827" data-name="Trazado 890827" d="M364.932,193.822a.724.724,0,0,1-.542-.244l-5.8-6.527a.725.725,0,0,1,0-.963l5.8-6.527a.747.747,0,0,1,1.084,0l5.8,6.527a.725.725,0,0,1,0,.963l-5.8,6.527A.724.724,0,0,1,364.932,193.822ZM360.1,186.57l4.831,5.436,4.832-5.436-4.832-5.436Zm0,0" transform="translate(-327.945 -164.088)"/>
      <path id="Trazado_890828" data-name="Trazado 890828" d="M341.5,94.76a.725.725,0,0,1-.725-.725V87.508a.726.726,0,0,0-.725-.725h-6.527a.725.725,0,0,1,0-1.45h6.527a2.178,2.178,0,0,1,2.176,2.176v6.527a.725.725,0,0,1-.725.725Zm0,0" transform="translate(-304.517 -78.081)"/>
      <path id="Trazado_890829" data-name="Trazado 890829" d="M202.965,257.45h-1.45a.725.725,0,1,1,0-1.45h1.45a.725.725,0,0,1,0,1.45Zm-4.351,0h-1.45a.725.725,0,1,1,0-1.45h1.45a.725.725,0,0,1,0,1.45Zm-4.351,0h-1.451a.725.725,0,0,1,0-1.45h1.451a.725.725,0,0,1,0,1.45Zm-4.352,0h-1.45a.725.725,0,0,1,0-1.45h1.45a.725.725,0,1,1,0,1.45Zm0,0" transform="translate(-171.78 -234.243)"/>
      <path id="Trazado_890830" data-name="Trazado 890830" d="M185.726,371.453a6.527,6.527,0,1,1,6.527-6.527A6.527,6.527,0,0,1,185.726,371.453Zm0-11.6a5.077,5.077,0,1,0,5.077,5.077A5.077,5.077,0,0,0,185.726,359.849Zm0,0" transform="translate(-163.97 -327.939)"/>
      <path id="Trazado_890831" data-name="Trazado 890831" d="M324.437,342.228H316.46a.725.725,0,0,1,0-1.45h7.978a.726.726,0,0,0,.725-.725v-6.527a.725.725,0,0,1,1.45,0v6.527A2.178,2.178,0,0,1,324.437,342.228Zm0,0" transform="translate(-288.901 -304.517)"/>
      <path id="Trazado_890832" data-name="Trazado 890832" d="M109.651,29.953a.724.724,0,0,1-.513-.212l-2.476-2.476a.722.722,0,0,0-.513-.212h-3.025a.725.725,0,1,1,0-1.45h3.025a2.16,2.16,0,0,1,1.539.637l2.476,2.476a.725.725,0,0,1-.513,1.238Zm0,0" transform="translate(-93.696 -23.426)"/>
      <path id="Trazado_890833" data-name="Trazado 890833" d="M299.392,29.953a.725.725,0,0,1-.513-1.238l2.476-2.476a2.16,2.16,0,0,1,1.538-.637h4.476a.725.725,0,1,1,0,1.45h-4.476a.722.722,0,0,0-.513.212L299.9,29.74A.724.724,0,0,1,299.392,29.953Zm0,0" transform="translate(-273.284 -23.426)"/>
      <path id="Trazado_890834" data-name="Trazado 890834" d="M8.7,5.8H1.45A1.452,1.452,0,0,1,0,4.351V1.45A1.452,1.452,0,0,1,1.45,0H8.7a1.452,1.452,0,0,1,1.45,1.45v2.9A1.452,1.452,0,0,1,8.7,5.8ZM1.45,1.45v2.9H8.7V1.45Zm0,0" transform="translate(0 0)"/>
      <path id="Trazado_890835" data-name="Trazado 890835" d="M401.238,5.8h-7.252a1.452,1.452,0,0,1-1.45-1.45V1.45A1.452,1.452,0,0,1,393.986,0h7.252a1.452,1.452,0,0,1,1.45,1.45v2.9A1.452,1.452,0,0,1,401.238,5.8ZM393.986,1.45v2.9h7.252V1.45Zm0,0" transform="translate(-359.175 0)"/>
    </g>
  </g>
</svg>
