<svg xmlns="http://www.w3.org/2000/svg" xmlns:xlink="http://www.w3.org/1999/xlink" width="127" height="105" viewBox="0 0 127 105">
  <defs>
    <linearGradient id="linear-gradient" x1="0.5" x2="0.5" y2="1" gradientUnits="objectBoundingBox">
      <stop offset="0" stop-color="#7737f0"/>
      <stop offset="1" stop-color="#291155"/>
    </linearGradient>
  </defs>
  <g id="Grupo_1104950" data-name="Grupo 1104950" transform="translate(-1173 -2658)">
    <rect id="Rectángulo_402949" data-name="Rectángulo 402949" width="127" height="105" rx="5" transform="translate(1173 2658)" fill="url(#linear-gradient)"/>
    <g id="definir" transform="translate(1193.923 2672.842)">
      <g id="Grupo_1104954" data-name="Grupo 1104954" transform="translate(6.59 19.655)">
        <path id="Trazado_890468" data-name="Trazado 890468" d="M39.622,142.992a14.617,14.617,0,0,1-9.6,19.308c-17.91,4.518-26.372-20.338-9.286-27.637A14.6,14.6,0,0,1,39.622,142.992Z" transform="translate(-11.447 -133.673)" fill="#f9aa6e"/>
      </g>
      <g id="Grupo_1104955" data-name="Grupo 1104955" transform="translate(10.003 23.111)">
        <path id="Trazado_890469" data-name="Trazado 890469" d="M51.351,177.972a11.2,11.2,0,0,1-15.967-5.636c-4.8-14.01,14.922-21.648,20.809-8.065a11.133,11.133,0,0,1-4.842,13.7Z" transform="translate(-34.638 -157.157)" fill="#f2f3f4"/>
      </g>
      <g id="Grupo_1104956" data-name="Grupo 1104956" transform="translate(25.935 6.679)">
        <path id="Trazado_890470" data-name="Trazado 890470" d="M187.344,55.448v46.077h-34.26c-.044-.1-1.678-4.312-1.781-4.592l-1.545-3.988a1.358,1.358,0,0,0-1.766-.78l-.912.353-2.472-6.387c11.552-5.71,10.4-22.693-1.707-26.843V45.5h34.481C179.779,47.884,184.93,53.035,187.344,55.448Z" transform="translate(-142.9 -45.5)" fill="#f2f3f4"/>
      </g>
      <g id="Grupo_1104957" data-name="Grupo 1104957" transform="translate(43.722 29.051)">
        <path id="Trazado_890471" data-name="Trazado 890471" d="M271.544,217.533v1.251h-2.516a6.623,6.623,0,0,0-2.207-5.857,8.716,8.716,0,0,1-3.046-6.431,8.859,8.859,0,0,1,10.037-8.874,8.863,8.863,0,0,0-7.52,8.874,8.716,8.716,0,0,0,3.046,6.431A6.147,6.147,0,0,1,271.544,217.533Z" transform="translate(-263.769 -197.522)" fill="#f8d69e"/>
      </g>
      <g id="Grupo_1104958" data-name="Grupo 1104958" transform="translate(46.247 29.136)">
        <path id="Trazado_890472" data-name="Trazado 890472" d="M295.886,206.783a8.732,8.732,0,0,1-3.09,6.667,6.636,6.636,0,0,0-2.178,5.813h-4.459a6.623,6.623,0,0,0-2.207-5.857c-5.71-4.8-2.855-14.245,4.474-15.305A8.779,8.779,0,0,1,295.886,206.783Z" transform="translate(-280.923 -198.1)" fill="#fae8cc"/>
      </g>
      <g id="Grupo_1104959" data-name="Grupo 1104959" transform="translate(60.43 6.679)">
        <path id="Trazado_890473" data-name="Trazado 890473" d="M387.248,55.448,377.3,45.5v9.948Z" transform="translate(-377.3 -45.5)" fill="#e2e2e2"/>
      </g>
      <g id="Grupo_1104960" data-name="Grupo 1104960" transform="translate(13.853 26.973)">
        <path id="Trazado_890474" data-name="Trazado 890474" d="M74.972,189.228h-1.4A5.719,5.719,0,0,0,73,187.844l.986-.986a.417.417,0,0,0,0-.589l-1.457-1.457a.436.436,0,0,0-.6,0l-.986.986a5.719,5.719,0,0,0-1.383-.574v-1.4a.427.427,0,0,0-.427-.427h-2.06a.427.427,0,0,0-.427.427v1.4a5.719,5.719,0,0,0-1.383.574l-.986-.986a.435.435,0,0,0-.6,0l-1.457,1.457a.417.417,0,0,0,0,.589l.986.986a5.719,5.719,0,0,0-.574,1.383h-1.4a.427.427,0,0,0-.427.427v2.06a.427.427,0,0,0,.427.427h1.4a5.485,5.485,0,0,0,.574,1.383l-.986.986a.435.435,0,0,0,0,.6l1.457,1.457a.435.435,0,0,0,.6,0l.986-.986a5.974,5.974,0,0,0,1.383.574v1.4a.427.427,0,0,0,.427.427h2.06a.427.427,0,0,0,.427-.427v-1.413a5.719,5.719,0,0,0,1.383-.574l.986.986a.435.435,0,0,0,.6,0l1.457-1.457a.435.435,0,0,0,0-.6L73,193.51a5.719,5.719,0,0,0,.574-1.383h1.4a.427.427,0,0,0,.427-.427v-2.06A.424.424,0,0,0,74.972,189.228ZM68.1,193.481a2.8,2.8,0,0,1,0-5.592A2.8,2.8,0,0,1,68.1,193.481Z" transform="translate(-60.8 -183.4)" fill="#0aad5c"/>
      </g>
      <g id="Grupo_1104961" data-name="Grupo 1104961" transform="translate(48.737 55.287)">
        <path id="Trazado_890475" data-name="Trazado 890475" d="M302.076,379.273h-1a3.229,3.229,0,0,1-3.223-3.473h7.461A3.25,3.25,0,0,1,302.076,379.273Z" transform="translate(-297.844 -375.8)" fill="#f9aa6e"/>
      </g>
      <g id="Grupo_1104962" data-name="Grupo 1104962" transform="translate(47.255 50.313)">
        <path id="Trazado_890476" data-name="Trazado 890476" d="M290.678,345.723a1.25,1.25,0,0,0,1.251,1.251H289a1.244,1.244,0,0,1,0-2.487A1.244,1.244,0,0,1,289,342h2.914a2.774,2.774,0,0,1-1.236,3.723Z" transform="translate(-287.775 -342)" fill="#009d54"/>
      </g>
      <g id="Grupo_1104963" data-name="Grupo 1104963" transform="translate(50.184 50.313)">
        <path id="Trazado_890477" data-name="Trazado 890477" d="M315.184,345.723a1.25,1.25,0,0,1-1.251,1.251H308.9a1.244,1.244,0,0,1,0-2.487,1.244,1.244,0,0,1,0-2.487h5.033a2.761,2.761,0,0,0,1.251,3.723Z" transform="translate(-307.675 -342)" fill="#0aad5c"/>
      </g>
      <g id="Grupo_1104964" data-name="Grupo 1104964" transform="translate(64.61 10.858)">
        <path id="Trazado_890478" data-name="Trazado 890478" d="M419.71,79.007,405.7,73.9l5.769,5.769v21.986Z" transform="translate(-405.7 -73.9)" fill="#ccc"/>
      </g>
      <g id="Grupo_1104965" data-name="Grupo 1104965" transform="translate(43.227 62.704)">
        <path id="Trazado_890479" data-name="Trazado 890479" d="M278.781,426.2H260.4l16.232,5.9Z" transform="translate(-260.4 -426.2)" fill="#ccc"/>
      </g>
      <g id="Grupo_1104966" data-name="Grupo 1104966" transform="translate(34.706 0.763)">
        <path id="Trazado_890480" data-name="Trazado 890480" d="M204.649,5.3,202.5,11.216h18.41Z" transform="translate(-202.5 -5.3)" fill="#ccc"/>
      </g>
      <g id="Grupo_1104967" data-name="Grupo 1104967" transform="translate(25.854 53.255)">
        <path id="Trazado_890481" data-name="Trazado 890481" d="M149.287,362.859l1.545,3.988-6.843,2.649-1.545-3.988a1.353,1.353,0,0,1,.78-1.766l4.282-1.663A1.375,1.375,0,0,1,149.287,362.859Z" transform="translate(-142.348 -361.989)" fill="#f9aa6e"/>
      </g>
      <g id="Grupo_1104968" data-name="Grupo 1104968" transform="translate(29.069 62.174)">
        <path id="Trazado_890482" data-name="Trazado 890482" d="M164.2,425.249l6.843-2.649,2.884,7.417a3.662,3.662,0,1,1-6.828,2.649Z" transform="translate(-164.2 -422.6)" fill="#f9aa6e"/>
      </g>
      <g id="Grupo_1104969" data-name="Grupo 1104969" transform="translate(25.17 47.311)">
        <path id="Trazado_890483" data-name="Trazado 890483" d="M140.187,321.6l2.472,6.372-2.487.957-2.472-6.372A13.133,13.133,0,0,0,140.187,321.6Z" transform="translate(-137.7 -321.6)" fill="#ccc"/>
      </g>
      <g id="Grupo_1104970" data-name="Grupo 1104970" transform="translate(27.467 58.102)">
        <path id="Trazado_890484" data-name="Trazado 890484" d="M0,0H7.329V4.356H0Z" transform="translate(0 2.646) rotate(-21.173)" fill="#ccc"/>
      </g>
      <g id="Grupo_1104971" data-name="Grupo 1104971" transform="translate(17.609 30.681)">
        <path id="Trazado_890485" data-name="Trazado 890485" d="M89.868,208.6a3.576,3.576,0,0,0,0,7.152A3.576,3.576,0,0,0,89.868,208.6Zm0,5.592a2.016,2.016,0,0,1,0-4.032A2.016,2.016,0,0,1,89.868,214.192Z" transform="translate(-86.325 -208.6)"/>
      </g>
      <g id="Grupo_1104972" data-name="Grupo 1104972" transform="translate(13.087 26.163)">
        <path id="Trazado_890486" data-name="Trazado 890486" d="M70.464,190.115c.044-.589-.574-1.06-.942-1.427a4.492,4.492,0,0,0,.191-.471h.824a1.212,1.212,0,0,0,1.207-1.207v-2.06a1.212,1.212,0,0,0-1.207-1.207h-.824c-.059-.162-.118-.309-.191-.471.368-.383.986-.839.942-1.427a1.214,1.214,0,0,0-.353-.854l-1.457-1.457a1.19,1.19,0,0,0-1.692,0l-.589.589c-.147-.074-.309-.132-.456-.191v-.824A1.212,1.212,0,0,0,64.71,177.9h-2.06a1.212,1.212,0,0,0-1.207,1.207v.824a4.236,4.236,0,0,0-.456.191l-.589-.589a1.208,1.208,0,0,0-1.707,0l-1.457,1.457a1.19,1.19,0,0,0,0,1.692l.589.589a4.5,4.5,0,0,0-.191.471h-.824a1.212,1.212,0,0,0-1.207,1.207v2.06a1.212,1.212,0,0,0,1.207,1.207h.824c.059.162.118.309.191.471l-.589.589a1.217,1.217,0,0,0,0,1.692l1.457,1.457a1.208,1.208,0,0,0,1.707,0l.589-.589c.147.074.309.132.456.191v.824a1.212,1.212,0,0,0,1.207,1.207h2.06a1.212,1.212,0,0,0,1.207-1.207v-.824c.162-.059.309-.118.471-.191l.574.574a1.208,1.208,0,0,0,1.707,0l1.457-1.457A1.231,1.231,0,0,0,70.464,190.115Zm-2.443-.736.736.736-.957.957-.736-.736c-.368-.383-.868-.206-1.251.044-.515.294-1.472.28-1.457,1.089v1.045H63.017v-1.06c.015-.809-.942-.78-1.472-1.089-.383-.25-.883-.427-1.251-.044l-.736.736L58.6,190.1l.736-.736c.633-.677-.294-1.413-.383-2.134-.177-.78-1.221-.545-1.8-.574v-1.339c.574-.029,1.6.206,1.8-.574.074-.721,1-1.472.383-2.134l-.736-.736.957-.957.736.736c.677.633,1.427-.294,2.134-.368.78-.191.545-1.207.574-1.8h1.339c.029.574-.206,1.6.574,1.8.721.074,1.472,1,2.134.368l.736-.736.957.957-.736.736c-.633.662.294,1.413.368,2.134.177.795,1.207.545,1.8.589v1.339c-.589.029-1.6-.206-1.8.589C68.315,187.951,67.388,188.717,68.021,189.379Z" transform="translate(-55.6 -177.9)"/>
      </g>
      <g id="Grupo_1104973" data-name="Grupo 1104973" transform="translate(42.944 28.311)">
        <path id="Trazado_890487" data-name="Trazado 890487" d="M274.644,195.17c-5.99-5.945-16.35-1.3-16.159,7.064a9.529,9.529,0,0,0,3.326,7.005,5.421,5.421,0,0,1,1.943,4.5,2.037,2.037,0,0,0-1.31,3.238,2.028,2.028,0,0,0,1.1,3.193,4.008,4.008,0,0,0,3.959,3.547h1a4.008,4.008,0,0,0,3.959-3.547,2.028,2.028,0,0,0,1.1-3.193,2.027,2.027,0,0,0-1.3-3.238,5.419,5.419,0,0,1,1.913-4.474A9.59,9.59,0,0,0,274.644,195.17Zm-6.137,26.99h-1a2.447,2.447,0,0,1-2.384-1.913h5.784A2.463,2.463,0,0,1,268.507,222.16Zm3.944-6.431a.474.474,0,0,1-.471.471h-1.457a.78.78,0,0,0,0,1.56h1.457a.471.471,0,1,1,0,.942h-7.947a.464.464,0,0,1,0-.927h2.414a.78.78,0,0,0,0-1.56h-2.414a.464.464,0,0,1,0-.927h7.947A.441.441,0,0,1,272.451,215.729Zm.721-7.653a6.991,6.991,0,0,0-2.458,5.636H265.3a6.969,6.969,0,0,0-2.487-5.666,7.974,7.974,0,0,1,4.959-14.025C275.232,193.772,278.867,203.279,273.172,208.077Z" transform="translate(-258.482 -192.491)"/>
      </g>
      <g id="Grupo_1104974" data-name="Grupo 1104974" transform="translate(41.582 46.576)">
        <path id="Trazado_890488" data-name="Trazado 890488" d="M250.8,316.839l-1.339,1.339a.78.78,0,0,0,1.1,1.1l1.339-1.339A.781.781,0,0,0,250.8,316.839Z" transform="translate(-249.225 -316.604)"/>
      </g>
      <g id="Grupo_1104975" data-name="Grupo 1104975" transform="translate(60.449 27.715)">
        <path id="Trazado_890489" data-name="Trazado 890489" d="M379,188.674l-1.339,1.339a.78.78,0,0,0,1.1,1.1l1.339-1.339A.781.781,0,0,0,379,188.674Z" transform="translate(-377.425 -188.445)"/>
      </g>
      <g id="Grupo_1104976" data-name="Grupo 1104976" transform="translate(37.414 37.819)">
        <path id="Trazado_890490" data-name="Trazado 890490" d="M223.564,257.1H221.68a.78.78,0,0,0,0,1.56h1.884A.78.78,0,0,0,223.564,257.1Z" transform="translate(-220.9 -257.1)"/>
      </g>
      <g id="Grupo_1104977" data-name="Grupo 1104977" transform="translate(64.08 37.819)">
        <path id="Trazado_890491" data-name="Trazado 890491" d="M404.764,257.1H402.88a.78.78,0,1,0,0,1.56h1.884A.78.78,0,0,0,404.764,257.1Z" transform="translate(-402.1 -257.1)"/>
      </g>
      <g id="Grupo_1104978" data-name="Grupo 1104978" transform="translate(41.597 27.723)">
        <path id="Trazado_890492" data-name="Trazado 890492" d="M249.557,188.721a.773.773,0,0,0,0,1.1l1.339,1.339a.78.78,0,1,0,1.1-1.1l-1.339-1.339A.8.8,0,0,0,249.557,188.721Z" transform="translate(-249.325 -188.5)"/>
      </g>
      <g id="Grupo_1104979" data-name="Grupo 1104979" transform="translate(60.446 46.576)">
        <path id="Trazado_890493" data-name="Trazado 890493" d="M378.743,316.839a.781.781,0,0,0-1.1,1.1l1.339,1.339a.8.8,0,0,0,.544.235.779.779,0,0,0,.545-1.324c0-.029-1.324-1.354-1.324-1.354Z" transform="translate(-377.404 -316.604)"/>
      </g>
      <g id="Grupo_1104980" data-name="Grupo 1104980" transform="translate(51.689 23.544)">
        <path id="Trazado_890494" data-name="Trazado 890494" d="M318.68,160.1a.785.785,0,0,0-.78.78v1.884a.78.78,0,0,0,1.56,0V160.88A.776.776,0,0,0,318.68,160.1Z" transform="translate(-317.9 -160.1)"/>
      </g>
      <g id="Grupo_1104981" data-name="Grupo 1104981" transform="translate(5.751 -0.02)">
        <path id="Trazado_890495" data-name="Trazado 890495" d="M78.9,15.229,65.051,10.181,60.975,6.134a.852.852,0,0,0-.545-.221H53.249L37.119.027a.743.743,0,0,0-.589.029.734.734,0,0,0-.4.441L34.176,5.9H25.95a.785.785,0,0,0-.78.78V19.438A15.424,15.424,0,0,0,7.1,28.047C1.9,39.57,12.587,52.285,24.684,49.209l1.943,5.018a2.169,2.169,0,0,0-1.4,2.84l1.545,3.988,1.575,4.062,2.884,7.417a4.47,4.47,0,0,0,8.212.191,4.395,4.395,0,0,0,.074-3.4L37.252,63.5H43.08l16.114,5.857a.833.833,0,0,0,.265.044.779.779,0,0,0,.736-.515l1.957-5.4h8.226a.785.785,0,0,0,.78-.78V38.746l8.2-22.516a.785.785,0,0,0-.456-1ZM59,67.6,47.656,63.47H60.518ZM61.21,8.563c.6.6,6.917,6.9,7.3,7.285h-7.3Zm-23.885-6.8L48.7,5.9H35.824ZM8.275,39.246a13.87,13.87,0,0,1,7.888-17.866c11.346-4.5,22.369,7.447,17.63,18.484-4.724,11.111-21.265,10.655-25.518-.618ZM29.526,63.808,28.51,61.2c1.339-.515,4.047-1.575,5.386-2.09l1.015,2.6c-1.354.53-4.047,1.575-5.386,2.09ZM26.2,48.783c.338-.118.706-.25,1.03-.4l1.884,4.871c-.25.1-.765.294-1.03.4Zm.824,6.946c1-.383,2.384-.927,3.385-1.31.486-.147,1.369-.765,1.663-.015l1.266,3.252c-1.339.515-4.047,1.575-5.386,2.09l-1.266-3.252A.592.592,0,0,1,27.024,55.729Zm10.993,16.35a2.9,2.9,0,0,1-5.327-.118l-2.59-6.7c1.339-.515,4.047-1.575,5.386-2.09l2.59,6.7A2.939,2.939,0,0,1,38.017,72.079ZM36.663,61.924l-3.135-8.079a2.2,2.2,0,0,0-2.958-1.163l-1.943-5C40,41.321,38.738,24.721,26.715,19.924V7.459H59.635v9.168a.785.785,0,0,0,.78.78h9.168c0,11.052.015,33.421,0,44.5H36.663Zm34.5-27.74V16.627a.961.961,0,0,0-.074-.294.665.665,0,0,0-.162-.25L67.641,12.8l9.978,3.635Z" transform="translate(-5.751 0.02)"/>
      </g>
      <g id="Grupo_1104982" data-name="Grupo 1104982" transform="translate(9.19 22.279)">
        <path id="Trazado_890496" data-name="Trazado 890496" d="M47.037,173.813c8.388-4.724,7.756-17.483-1.133-21.265-9.625-4.3-19.808,5.43-15.953,15.246A11.982,11.982,0,0,0,47.037,173.813ZM33.012,170a10.41,10.41,0,0,1,8.079-16.909c10.6.1,14.275,14.01,5.165,19.382A10.373,10.373,0,0,1,33.012,170Z" transform="translate(-29.114 -151.503)"/>
      </g>
      <g id="Grupo_1104983" data-name="Grupo 1104983" transform="translate(31.555 11.903)">
        <path id="Trazado_890497" data-name="Trazado 890497" d="M181.855,82.56h13.686a.78.78,0,0,0,0-1.56H181.855A.78.78,0,0,0,181.855,82.56Z" transform="translate(-181.087 -81)"/>
      </g>
      <g id="Grupo_1104984" data-name="Grupo 1104984" transform="translate(31.542 17.378)">
        <path id="Trazado_890498" data-name="Trazado 890498" d="M202.663,118.98a.785.785,0,0,0-.78-.78h-20.1a.78.78,0,1,0,0,1.56h20.1A.785.785,0,0,0,202.663,118.98Z" transform="translate(-181 -118.2)"/>
      </g>
    </g>
  </g>
</svg>
