<svg xmlns="http://www.w3.org/2000/svg" xmlns:xlink="http://www.w3.org/1999/xlink" width="400" height="116.538" viewBox="0 0 400 116.538">
  <defs>
    <linearGradient id="linear-gradient" x1="0.35" y1="0.433" x2="0.935" y2="0.848" gradientUnits="objectBoundingBox">
      <stop offset="0" stop-color="#f0c518"/>
      <stop offset="0.371" stop-color="#d1ae1f"/>
      <stop offset="1" stop-color="#78630c"/>
    </linearGradient>
    <clipPath id="clip-path">
      <rect id="Rectángulo_402716" data-name="Rectángulo 402716" width="179" height="63.847" transform="translate(164.398 6430.053)" fill="#fff" stroke="#707070" stroke-width="1"/>
    </clipPath>
    <filter id="Trazado_878795" x="58.395" y="34.142" width="152.046" height="152.046" filterUnits="userSpaceOnUse">
      <feOffset dy="1" input="SourceAlpha"/>
      <feGaussianBlur stdDeviation="5.5" result="blur"/>
      <feFlood flood-color="#fff" flood-opacity="0.902"/>
      <feComposite operator="in" in2="blur"/>
      <feComposite in="SourceGraphic"/>
    </filter>
    <filter id="Trazado_879616" x="216.923" y="34.142" width="152.046" height="152.046" filterUnits="userSpaceOnUse">
      <feOffset dy="1" input="SourceAlpha"/>
      <feGaussianBlur stdDeviation="5.5" result="blur-2"/>
      <feFlood flood-color="#fff" flood-opacity="0.902"/>
      <feComposite operator="in" in2="blur-2"/>
      <feComposite in="SourceGraphic"/>
    </filter>
  </defs>
  <g id="Grupo_1102063" data-name="Grupo 1102063" transform="translate(-180 -6477.321)">
    <g id="Grupo_1101539" data-name="Grupo 1101539" transform="translate(0 97.037)">
      <g id="Grupo_1074076" data-name="Grupo 1074076" transform="translate(180 6396.053)">
        <rect id="Rectángulo_401407" data-name="Rectángulo 401407" width="400" height="79" rx="3" transform="translate(0 3)" fill="#0b47db"/>
      </g>
      <circle id="Elipse_11638" data-name="Elipse 11638" cx="10.49" cy="10.49" r="10.49" transform="translate(193.69 6388.563)" fill="url(#linear-gradient)"/>
      <g id="Enmascarar_grupo_1098713" data-name="Enmascarar grupo 1098713" transform="translate(58.075 -15.9)" clip-path="url(#clip-path)">
        <g transform="matrix(1, 0, 0, 1, 121.93, 6396.18)" filter="url(#Trazado_878795)">
          <g id="Trazado_878795-2" data-name="Trazado 878795" transform="translate(74.9 49.64)" fill="none">
            <path d="M59.523,0A59.523,59.523,0,1,1,0,59.523,59.523,59.523,0,0,1,59.523,0Z" stroke="none"/>
            <path d="M 59.5230712890625 18.00000762939453 C 36.62717437744141 18.00000762939453 18.00000762939453 36.62717437744141 18.00000762939453 59.5230712890625 C 18.00000762939453 82.41897583007812 36.62717437744141 101.046142578125 59.5230712890625 101.046142578125 C 82.41897583007812 101.046142578125 101.046142578125 82.41897583007812 101.046142578125 59.5230712890625 C 101.046142578125 36.62717437744141 82.41897583007812 18.00000762939453 59.5230712890625 18.00000762939453 M 59.5230712890625 7.62939453125e-06 C 92.39673614501953 7.62939453125e-06 119.0461349487305 26.64936828613281 119.0461349487305 59.5230712890625 C 119.0461349487305 92.39673614501953 92.39673614501953 119.0461349487305 59.5230712890625 119.0461349487305 C 26.64936828613281 119.0461349487305 7.62939453125e-06 92.39673614501953 7.62939453125e-06 59.5230712890625 C 7.62939453125e-06 26.64936828613281 26.64936828613281 7.62939453125e-06 59.5230712890625 7.62939453125e-06 Z" stroke="none" fill="#fff"/>
          </g>
        </g>
      </g>
      <g id="Enmascarar_grupo_1098715" data-name="Enmascarar grupo 1098715" transform="translate(220.602 -15.9)" clip-path="url(#clip-path)">
        <g transform="matrix(1, 0, 0, 1, -40.6, 6396.18)" filter="url(#Trazado_879616)">
          <g id="Trazado_879616-2" data-name="Trazado 879616" transform="translate(233.42 49.64)" fill="none">
            <path d="M59.523,0A59.523,59.523,0,1,1,0,59.523,59.523,59.523,0,0,1,59.523,0Z" stroke="none"/>
            <path d="M 59.5230712890625 18.00000762939453 C 36.62717437744141 18.00000762939453 18.00000762939453 36.62717437744141 18.00000762939453 59.5230712890625 C 18.00000762939453 82.41897583007812 36.62717437744141 101.046142578125 59.5230712890625 101.046142578125 C 82.41897583007812 101.046142578125 101.046142578125 82.41897583007812 101.046142578125 59.5230712890625 C 101.046142578125 36.62717437744141 82.41897583007812 18.00000762939453 59.5230712890625 18.00000762939453 M 59.5230712890625 7.62939453125e-06 C 92.39673614501953 7.62939453125e-06 119.0461349487305 26.64936828613281 119.0461349487305 59.5230712890625 C 119.0461349487305 92.39673614501953 92.39673614501953 119.0461349487305 59.5230712890625 119.0461349487305 C 26.64936828613281 119.0461349487305 7.62939453125e-06 92.39673614501953 7.62939453125e-06 59.5230712890625 C 7.62939453125e-06 26.64936828613281 26.64936828613281 7.62939453125e-06 59.5230712890625 7.62939453125e-06 Z" stroke="none" fill="#fff"/>
          </g>
        </g>
      </g>
      <g id="programador_10_" data-name="programador (10)" transform="translate(211.372 6380.161)">
        <g id="Grupo_1099575" data-name="Grupo 1099575" transform="translate(42 0)">
          <g id="Grupo_1101537" data-name="Grupo 1101537" transform="translate(-9 15.123)">
            <path id="Trazado_875239" data-name="Trazado 875239" d="M41.208,229.515a5.4,5.4,0,0,0-5.389,5.389v4.345a5.389,5.389,0,0,0,10.778,0V234.9A5.4,5.4,0,0,0,41.208,229.515Zm1.971,9.734a1.971,1.971,0,0,1-3.943,0V234.9a1.971,1.971,0,0,1,3.943,0Z" transform="translate(-27.658 -177.22)"/>
            <path id="Trazado_875240" data-name="Trazado 875240" d="M105.649,244.638a1.709,1.709,0,0,0,1.709-1.709V231.224a1.709,1.709,0,1,0-3.418,0V242.93A1.709,1.709,0,0,0,105.649,244.638Z" transform="translate(-80.257 -177.22)"/>
            <path id="Trazado_875241" data-name="Trazado 875241" d="M5.389,311.416A5.4,5.4,0,0,0,0,316.8v4.345a5.389,5.389,0,1,0,10.778,0V316.8A5.4,5.4,0,0,0,5.389,311.416ZM7.36,321.15a1.971,1.971,0,1,1-3.943,0v-4.345a1.971,1.971,0,0,1,3.942,0v4.345Z" transform="translate(0 -240.459)"/>
            <path id="Trazado_875242" data-name="Trazado 875242" d="M69.831,311.416a1.709,1.709,0,0,0-1.709,1.709V324.83a1.709,1.709,0,1,0,3.418,0V313.125A1.709,1.709,0,0,0,69.831,311.416Z" transform="translate(-52.601 -240.459)"/>
            <path id="Trazado_875243" data-name="Trazado 875243" d="M1.709,244.638a1.709,1.709,0,0,0,1.709-1.709V231.224a1.709,1.709,0,1,0-3.418,0V242.93A1.709,1.709,0,0,0,1.709,244.638Z" transform="translate(0 -177.22)"/>
          </g>
          <g id="Grupo_1101538" data-name="Grupo 1101538" transform="translate(94 44.418)">
            <path id="Trazado_875239-2" data-name="Trazado 875239" d="M41.208,229.515A5.4,5.4,0,0,1,46.6,234.9v4.345a5.389,5.389,0,0,1-10.778,0V234.9A5.4,5.4,0,0,1,41.208,229.515Zm-1.971,9.734a1.971,1.971,0,0,0,3.943,0V234.9a1.971,1.971,0,0,0-3.943,0Z" transform="translate(-27.657 -229.515)"/>
            <path id="Trazado_875240-2" data-name="Trazado 875240" d="M105.649,244.638a1.709,1.709,0,0,1-1.709-1.709V231.224a1.709,1.709,0,1,1,3.418,0V242.93A1.709,1.709,0,0,1,105.649,244.638Z" transform="translate(-103.94 -229.515)"/>
            <path id="Trazado_875241-2" data-name="Trazado 875241" d="M5.389,311.416a5.4,5.4,0,0,1,5.389,5.389v4.345A5.389,5.389,0,1,1,0,321.15V316.8A5.4,5.4,0,0,1,5.389,311.416ZM3.418,321.15a1.971,1.971,0,1,0,3.943,0v-4.345a1.971,1.971,0,0,0-3.942,0v4.345Z" transform="translate(16.323 -292.755)"/>
            <path id="Trazado_875242-2" data-name="Trazado 875242" d="M69.831,311.416a1.709,1.709,0,0,1,1.709,1.709V324.83a1.709,1.709,0,1,1-3.418,0V313.125A1.709,1.709,0,0,1,69.831,311.416Z" transform="translate(-59.96 -292.755)"/>
            <path id="Trazado_875243-2" data-name="Trazado 875243" d="M1.709,244.638A1.709,1.709,0,0,1,0,242.93V231.224a1.709,1.709,0,1,1,3.418,0V242.93A1.709,1.709,0,0,1,1.709,244.638Z" transform="translate(23.683 -229.515)"/>
          </g>
          <g id="Web_Developer" data-name="Web Developer" transform="translate(-13 0.438)">
            <path id="Trazado_878796" data-name="Trazado 878796" d="M35.8,45.01V18.318a2.7,2.7,0,0,0-2.7-2.7H5.674A2.7,2.7,0,0,0,3,18.318V53.165a2.686,2.686,0,0,0,2.7,2.686H41.465a1.343,1.343,0,0,0,1-2.263l-6.05-6.836A2.686,2.686,0,0,1,35.8,45.01Z" transform="translate(0.21 3.346)" fill="#619fff"/>
            <path id="Trazado_878797" data-name="Trazado 878797" d="M106.475,103.174H28.82l4.307-28.2a17.242,17.242,0,0,1,13.31-14.217L67.466,56.07l21.392,4.755a17.23,17.23,0,0,1,13.31,14.229Z" transform="translate(5.631 11.839)" fill="#ffab57"/>
            <path id="Trazado_878798" data-name="Trazado 878798" d="M68.971,62.648,61.966,75.522,54.73,62.648V49.98H68.971Z" transform="translate(11.071 10.56)" fill="#ffbf9d"/>
            <path id="Trazado_878799" data-name="Trazado 878799" d="M90.732,38.4H40.966a5.033,5.033,0,1,1,0-10.055H90.732a5.033,5.033,0,0,1,0,10.055Z" transform="translate(7.073 6.015)" fill="#ffbf9d"/>
            <path id="Trazado_878800" data-name="Trazado 878800" d="M64.473,62.187A22.263,22.263,0,0,1,42.21,39.923v-10.2a22.263,22.263,0,1,1,44.527,0v10.2A22.263,22.263,0,0,1,64.473,62.187Z" transform="translate(8.443 1.632)" fill="#fdb"/>
            <path id="Trazado_878801" data-name="Trazado 878801" d="M86.727,35.108V29.723a22.263,22.263,0,1,0-44.527,0v5.384Z" transform="translate(8.44 1.632)" fill="#ffc9a2"/>
            <path id="Trazado_878803" data-name="Trazado 878803" d="M96.632,96.146H37.174L32.456,60.864a3.63,3.63,0,0,1,3.63-4.114H97.794a3.63,3.63,0,0,1,3.63,4.114Z" transform="translate(6.388 11.981)" fill="#dbecff"/>
            <path id="Trazado_878804" data-name="Trazado 878804" d="M78.257,74.041a4.4,4.4,0,0,0,6.848-3.061l.762-5.759A2.178,2.178,0,0,0,83.7,62.8H70.223a2.42,2.42,0,0,0-1.476,4.428C72.425,69.927,74.942,71.8,78.257,74.041Z" transform="translate(13.788 13.251)" fill="#fff"/>
            <path id="Trazado_878805" data-name="Trazado 878805" d="M41.3,62.75a2.178,2.178,0,0,0-2.166,2.42l2.735,20.5a2.178,2.178,0,0,0,2.166,1.9h4.259a4.489,4.489,0,0,0,4.1-6.328,185.481,185.481,0,0,0-7.962-16.782A3.63,3.63,0,0,0,41.3,62.75Z" transform="translate(7.793 13.241)" fill="#fff"/>
            <path id="Trazado_878806" data-name="Trazado 878806" d="M36.35,89.31H95.82v6.885H36.35Z" transform="translate(7.212 18.818)" fill="#5955a1"/>
            <path id="Trazado_878807" data-name="Trazado 878807" d="M44.78,89.31H83.838v6.885H44.78Z" transform="translate(8.982 18.818)" fill="#b8c4ff"/>
            <path id="Trazado_878808" data-name="Trazado 878808" d="M67.226,80.46a7.841,7.841,0,1,1,0-12.1,7.841,7.841,0,0,0,0,12.1Z" transform="translate(11.002 14.043)" fill="#5955a1"/>
            <path id="Trazado_878809" data-name="Trazado 878809" d="M89.687,34.175H40.671V25.608a24.514,24.514,0,1,1,49.016,0Z" transform="translate(8.118 0.182)" fill="#ff575a"/>
            <path id="Trazado_878810" data-name="Trazado 878810" d="M59.195,30.423H45.51V24.978a6.848,6.848,0,0,1,13.685,0Z" transform="translate(9.135 3.933)" fill="#5955a1"/>
            <path id="Trazado_878811" data-name="Trazado 878811" d="M45.51,24.08H59.195v5.154H45.51Z" transform="translate(9.135 5.122)" fill="#ff7a5a"/>
            <rect id="Rectángulo_402723" data-name="Rectángulo 402723" width="8.034" height="5.154" rx="0.87" transform="translate(57.465 29.202)" fill="#ff985a"/>
            <path id="Trazado_878812" data-name="Trazado 878812" d="M78.1,21.62H89.718a4.065,4.065,0,1,1,0,8.131H56.42l3.255-2.3A32.1,32.1,0,0,1,78.1,21.62Z" transform="translate(11.426 4.605)" fill="#ff985a"/>
            <path id="Trazado_878813" data-name="Trazado 878813" d="M79.024,19.669a35.512,35.512,0,0,0-13.757,2.8,4.029,4.029,0,0,1-5.082-1.694,10.515,10.515,0,0,0-6.171-4.84,3.969,3.969,0,0,1-.835-7.26,20.823,20.823,0,0,1,27.66,7.8,2.142,2.142,0,0,1-1.815,3.194Z" transform="translate(10.323 1.378)" fill="#ff897d"/>
            <g id="Grupo_1101536" data-name="Grupo 1101536" transform="translate(2 -0.315)">
              <path id="Trazado_878814" data-name="Trazado 878814" d="M102.288,82.126,103.5,73a4.84,4.84,0,0,0-4.84-5.481H75.838V63.492A23.51,23.51,0,0,0,90.624,45.621h1.754a6.243,6.243,0,0,0,4.767-10.26A5.275,5.275,0,0,0,95.73,25.016H93.564a25.71,25.71,0,1,0-51.414.762l0,7.393a6.231,6.231,0,0,0,.472,12.451h1.754A23.51,23.51,0,0,0,59.165,63.492v4.029H37.034A4.84,4.84,0,0,0,32.195,73l1.21,9.075c-1.21,2.626-.956,2.42-5.6,32.754a1.21,1.21,0,0,0,1.21,1.391h77.679a1.21,1.21,0,0,0,1.21-1.391C103.328,84.763,103.606,85.1,102.288,82.126ZM92.378,43.2H90.962c.109-1.113.085-1.283.085-7.635h1.391a3.823,3.823,0,1,1,0,7.635ZM95.73,27.472a2.856,2.856,0,1,1,0,5.711H66.255a30.66,30.66,0,0,1,17.859-5.711Zm-45.3,2.94H61.705v2.735H50.429Zm.073-2.42a5.651,5.651,0,0,1,11.144,0Zm-5.929-2.214a23.29,23.29,0,1,1,46.574-.762H84.114A32.984,32.984,0,0,0,65,31.065l-.871.6V29.2a8.058,8.058,0,0,0-16.117,0v3.944H44.572ZM42.624,43.2a3.823,3.823,0,1,1,0-7.635h1.4c0,6.05,0,6.5.073,7.635Zm4.223,2.42c-.484-2.42-.4-3.63-.4-10.055H88.542v5.989a21.053,21.053,0,0,1-41.719,4.065ZM61.584,64.279a23.751,23.751,0,0,0,11.833,0v3.243H71.6c-4.985-1.1-5.336-1.21,0,0H63.859c2.263-.508,3.545-.811,3.63-.811H67.3c-4.235.944-2.952.786-5.747.786Zm-24.55,5.663H98.742a2.42,2.42,0,0,1,2.42,2.747c-1.4,10.527.254-1.8-4.562,34.23H39.2L34.627,72.664a2.42,2.42,0,0,1,2.408-2.722ZM34.3,88.551c3.061,22.9,2.626,17.8,2.626,25.252H30.464Zm5.046,20.787h7.792V113.8H39.345ZM49.557,113.8v-4.465H86.2V113.8Zm39.058,0v-4.465H96.4V113.8Zm10.2,0c0-7.514-.423-2.42,2.626-25.276L105.3,113.8Z" transform="translate(3.415 0.315)"/>
              <path id="Trazado_878820" data-name="Trazado 878820" d="M68.211,81.619a1.21,1.21,0,0,0,0-1.888,6.643,6.643,0,0,1,0-10.285,1.21,1.21,0,0,0,0-1.875,9.051,9.051,0,1,0,0,14.048ZM65.525,68.7a9.087,9.087,0,0,0,0,11.8,6.631,6.631,0,1,1,0-11.8Z" transform="translate(8.803 14.143)"/>
              <path id="Trazado_878821" data-name="Trazado 878821" d="M21.708,22.5A1.211,1.211,0,1,0,20,24.219l2,2.009-2,2.009a1.21,1.21,0,0,0,.847,2.057c.665,0,.641-.133,3.727-3.218a1.21,1.21,0,0,0,0-1.706Z" transform="translate(1.705 5.032)"/>
              <path id="Trazado_878822" data-name="Trazado 878822" d="M11.459,29.942a1.21,1.21,0,0,0,1.706-1.706l-2.009-2.009,2.009-2.009A1.211,1.211,0,0,0,11.459,22.5L8.591,25.369a1.21,1.21,0,0,0,0,1.706Z" transform="translate(-0.69 5.032)"/>
              <path id="Trazado_878823" data-name="Trazado 878823" d="M14.97,29.01a1.21,1.21,0,0,0,.859-.363l3.46-3.46a1.21,1.21,0,0,0-1.706-1.706l-3.509,3.4a1.21,1.21,0,0,0,.9,2.13Z" transform="translate(0.445 5.25)"/>
              <path id="Trazado_878824" data-name="Trazado 878824" d="M43.586,53.048,37.537,46.2a1.452,1.452,0,0,1-.375-.98V18.528a3.908,3.908,0,0,0-3.9-3.908H5.884A3.908,3.908,0,0,0,2,18.528V53.375a3.908,3.908,0,0,0,3.908,3.908H41.663a2.553,2.553,0,0,0,1.924-4.235ZM4.42,53.375V18.528A1.5,1.5,0,0,1,5.908,17.04H33.314a1.488,1.488,0,0,1,1.476,1.488V45.22a3.908,3.908,0,0,0,.98,2.529c6.364,7.26,6.05,6.86,6.05,6.981s2.638.085-35.9.085a1.5,1.5,0,0,1-1.5-1.44Z" transform="translate(-2 3.451)"/>
              <path id="Trazado_878825" data-name="Trazado 878825" d="M23.848,37.874h-.411V36.567c0-3.279-4.477-4.32-4.477-2.057a1.21,1.21,0,0,0,1.21,1.21.847.847,0,0,1,.847.847V41.54a.859.859,0,0,1-.847.859,1.21,1.21,0,0,0-1.21,1.21c0,2.239,4.477,1.21,4.477-2.069V40.293h.411a1.21,1.21,0,1,0,0-2.42Z" transform="translate(1.561 7.373)"/>
              <path id="Trazado_878826" data-name="Trazado 878826" d="M11.841,36.564a.847.847,0,0,1,.859-.847,1.21,1.21,0,0,0,1.21-1.21c0-2.238-4.489-1.21-4.489,2.057v1.283H9.01a1.21,1.21,0,0,0,0,2.42h.411v1.27c0,3.291,4.489,4.32,4.489,2.069A1.21,1.21,0,0,0,12.7,42.4a.859.859,0,0,1-.859-.859Z" transform="translate(-0.782 7.375)"/>
              <path id="Trazado_878827" data-name="Trazado 878827" d="M17.877,35.581,13.4,40.058a1.21,1.21,0,0,0,1.706,1.706L19.583,37.3a1.211,1.211,0,0,0-1.706-1.718Z" transform="translate(0.333 7.778)"/>
            </g>
          </g>
        </g>
      </g>
      <circle id="Elipse_11637" data-name="Elipse 11637" cx="11.49" cy="11.49" r="11.49" transform="translate(548.021 6466.51)" fill="url(#linear-gradient)"/>
    </g>
    <g id="mind-map_5672872" transform="translate(419.345 6485.324)">
      <rect id="Rectángulo_403074" data-name="Rectángulo 403074" width="31" height="21" rx="2" transform="translate(2.655 83.676)" fill="#78a0d4"/>
      <rect id="Rectángulo_403075" data-name="Rectángulo 403075" width="31" height="21" rx="2" transform="translate(73.655 83.676)" fill="#78a0d4"/>
      <path id="Trazado_879617" data-name="Trazado 879617" d="M47.4,50A3.4,3.4,0,0,0,44,53.4V65.29H66.086a3.4,3.4,0,0,0,3.4-3.4V50Z" transform="translate(30.052 34.246)" fill="#93bee5"/>
      <path id="Trazado_879618" data-name="Trazado 879618" d="M5.4,50A3.4,3.4,0,0,0,2,53.4V65.29H24.086a3.4,3.4,0,0,0,3.4-3.4V50Z" transform="translate(0.699 34.246)" fill="#93bee5"/>
      <rect id="Rectángulo_403076" data-name="Rectángulo 403076" width="20" height="21" rx="2" transform="translate(43.655 83.676)" fill="#f6b940"/>
      <path id="Trazado_879619" data-name="Trazado 879619" d="M29.4,50A3.4,3.4,0,0,0,26,53.4V65.29H37.892a3.4,3.4,0,0,0,3.4-3.4V50Z" transform="translate(17.472 34.246)" fill="#f9d266"/>
      <rect id="Rectángulo_403077" data-name="Rectángulo 403077" width="52" height="30" rx="2" transform="translate(27.655 38.676)" fill="#3b5892"/>
      <path id="Trazado_879620" data-name="Trazado 879620" d="M62.87,46.784V23H20.4A3.4,3.4,0,0,0,17,26.4V46.784Z" transform="translate(11.182 15.376)" fill="#4c6cb5"/>
      <path id="Trazado_879621" data-name="Trazado 879621" d="M23,27H48.483v3.4H23Z" transform="translate(15.376 18.171)" fill="#e2e7f6"/>
      <path id="Trazado_879622" data-name="Trazado 879622" d="M40,27h6.8v3.4H40Z" transform="translate(27.257 18.171)" fill="#e2e7f6"/>
      <path id="Trazado_879623" data-name="Trazado 879623" d="M20,31H60.773v3.4H20Z" transform="translate(13.279 20.967)" fill="#e2e7f6"/>
      <path id="Trazado_879624" data-name="Trazado 879624" d="M20,35H60.773v3.4H20Z" transform="translate(13.279 23.762)" fill="#e2e7f6"/>
      <rect id="Rectángulo_403078" data-name="Rectángulo 403078" width="31" height="21" rx="2" transform="translate(2.655 2.676)" fill="#78a0d4"/>
      <rect id="Rectángulo_403079" data-name="Rectángulo 403079" width="31" height="21" rx="2" transform="translate(73.655 2.676)" fill="#78a0d4"/>
      <path id="Trazado_879625" data-name="Trazado 879625" d="M47.4,2A3.4,3.4,0,0,0,44,5.4V17.29H66.086a3.4,3.4,0,0,0,3.4-3.4V2Z" transform="translate(30.052 0.699)" fill="#93bee5"/>
      <path id="Trazado_879626" data-name="Trazado 879626" d="M5.4,2A3.4,3.4,0,0,0,2,5.4V17.29H24.086a3.4,3.4,0,0,0,3.4-3.4V2Z" transform="translate(0.699 0.699)" fill="#93bee5"/>
      <rect id="Rectángulo_403080" data-name="Rectángulo 403080" width="20" height="21" rx="2" transform="translate(43.655 2.676)" fill="#f6b940"/>
      <path id="Trazado_879627" data-name="Trazado 879627" d="M29.4,2A3.4,3.4,0,0,0,26,5.4V17.29H37.892a3.4,3.4,0,0,0,3.4-3.4V2Z" transform="translate(17.472 0.699)" fill="#f9d266"/>
      <g id="Grupo_1102062" data-name="Grupo 1102062" transform="translate(16.29 23.086)">
        <path id="Trazado_879628" data-name="Trazado 879628" d="M31,14h3.4V29.29H31Z" transform="translate(4.677 -14)" fill="#c8cded"/>
        <path id="Trazado_879629" data-name="Trazado 879629" d="M53.8,39.483H47v-3.4h6.8a1.7,1.7,0,0,0,1.7-1.7V14h3.4V34.387A5.1,5.1,0,0,1,53.8,39.483Z" transform="translate(15.859 -14)" fill="#c8cded"/>
        <path id="Trazado_879630" data-name="Trazado 879630" d="M21.892,39.483H15.1a5.1,5.1,0,0,1-5.1-5.1V14h3.4V34.387a1.7,1.7,0,0,0,1.7,1.7h6.8Z" transform="translate(-10 -14)" fill="#c8cded"/>
        <path id="Trazado_879631" data-name="Trazado 879631" d="M31,41h3.4V56.29H31Z" transform="translate(4.677 4.87)" fill="#c8cded"/>
        <path id="Trazado_879632" data-name="Trazado 879632" d="M58.892,60.483h-3.4V40.1a1.7,1.7,0,0,0-1.7-1.7H47V35h6.8a5.1,5.1,0,0,1,5.1,5.1Z" transform="translate(15.859 0.677)" fill="#c8cded"/>
        <path id="Trazado_879633" data-name="Trazado 879633" d="M13.4,60.483H10V40.1A5.1,5.1,0,0,1,15.1,35h6.8v3.4H15.1a1.7,1.7,0,0,0-1.7,1.7Z" transform="translate(-10 0.677)" fill="#c8cded"/>
      </g>
      <path id="Trazado_879634" data-name="Trazado 879634" d="M23,27H48.483v3.4H23Z" transform="translate(15.376 18.171)"/>
      <path id="Trazado_879635" data-name="Trazado 879635" d="M40,27h6.8v3.4H40Z" transform="translate(27.257 18.171)"/>
      <path id="Trazado_879636" data-name="Trazado 879636" d="M20,31H60.773v3.4H20Z" transform="translate(13.279 20.967)"/>
      <path id="Trazado_879637" data-name="Trazado 879637" d="M20,35H60.773v3.4H20Z" transform="translate(13.279 23.762)"/>
      <path id="Trazado_879638" data-name="Trazado 879638" d="M85.944,48.569a5.1,5.1,0,0,0,5.1-5.1V24.784h10.193a5.1,5.1,0,0,0,5.1-5.1V6.1a5.1,5.1,0,0,0-5.1-5.1H77.45a5.1,5.1,0,0,0-5.1,5.1V19.688a5.1,5.1,0,0,0,5.1,5.1H87.643V43.472a1.7,1.7,0,0,1-1.7,1.7h-5.1v-3.4a5.1,5.1,0,0,0-5.1-5.1H55.364V24.784h5.1a5.1,5.1,0,0,0,5.1-5.1V6.1a5.1,5.1,0,0,0-5.1-5.1H46.87a5.1,5.1,0,0,0-5.1,5.1V19.688a5.1,5.1,0,0,0,5.1,5.1h5.1V36.677H31.58a5.1,5.1,0,0,0-5.1,5.1v3.4h-5.1a1.7,1.7,0,0,1-1.7-1.7V24.784H29.881a5.1,5.1,0,0,0,5.1-5.1V6.1a5.1,5.1,0,0,0-5.1-5.1H6.1A5.1,5.1,0,0,0,1,6.1V19.688a5.1,5.1,0,0,0,5.1,5.1H16.29V43.472a5.1,5.1,0,0,0,5.1,5.1h5.1V58.762h-5.1a5.1,5.1,0,0,0-5.1,5.1V82.547H6.1a5.1,5.1,0,0,0-5.1,5.1v13.591a5.1,5.1,0,0,0,5.1,5.1H29.881a5.1,5.1,0,0,0,5.1-5.1V87.643a5.1,5.1,0,0,0-5.1-5.1H19.688V63.859a1.7,1.7,0,0,1,1.7-1.7h5.1v3.4a5.1,5.1,0,0,0,5.1,5.1H51.967V82.547h-5.1a5.1,5.1,0,0,0-5.1,5.1v13.591a5.1,5.1,0,0,0,5.1,5.1H60.461a5.1,5.1,0,0,0,5.1-5.1V87.643a5.1,5.1,0,0,0-5.1-5.1h-5.1V70.654H75.751a5.1,5.1,0,0,0,5.1-5.1v-3.4h5.1a1.7,1.7,0,0,1,1.7,1.7V82.547H77.45a5.1,5.1,0,0,0-5.1,5.1v13.591a5.1,5.1,0,0,0,5.1,5.1h23.784a5.1,5.1,0,0,0,5.1-5.1V87.643a5.1,5.1,0,0,0-5.1-5.1H91.041V63.859a5.1,5.1,0,0,0-5.1-5.1h-5.1V48.569ZM75.751,19.688V6.1a1.7,1.7,0,0,1,1.7-1.7h23.784a1.7,1.7,0,0,1,1.7,1.7V19.688a1.7,1.7,0,0,1-1.7,1.7H77.45A1.7,1.7,0,0,1,75.751,19.688Zm-30.58,0V6.1a1.7,1.7,0,0,1,1.7-1.7H60.461a1.7,1.7,0,0,1,1.7,1.7V19.688a1.7,1.7,0,0,1-1.7,1.7H46.87A1.7,1.7,0,0,1,45.171,19.688Zm-40.773,0V6.1A1.7,1.7,0,0,1,6.1,4.4H29.881a1.7,1.7,0,0,1,1.7,1.7V19.688a1.7,1.7,0,0,1-1.7,1.7H6.1A1.7,1.7,0,0,1,4.4,19.688ZM31.58,87.643v13.591a1.7,1.7,0,0,1-1.7,1.7H6.1a1.7,1.7,0,0,1-1.7-1.7V87.643a1.7,1.7,0,0,1,1.7-1.7H29.881A1.7,1.7,0,0,1,31.58,87.643Zm30.58,0v13.591a1.7,1.7,0,0,1-1.7,1.7H46.87a1.7,1.7,0,0,1-1.7-1.7V87.643a1.7,1.7,0,0,1,1.7-1.7H60.461A1.7,1.7,0,0,1,62.16,87.643Zm40.773,0v13.591a1.7,1.7,0,0,1-1.7,1.7H77.45a1.7,1.7,0,0,1-1.7-1.7V87.643a1.7,1.7,0,0,1,1.7-1.7h23.784A1.7,1.7,0,0,1,102.933,87.643ZM77.45,65.558a1.7,1.7,0,0,1-1.7,1.7H31.58a1.7,1.7,0,0,1-1.7-1.7V41.773a1.7,1.7,0,0,1,1.7-1.7H75.751a1.7,1.7,0,0,1,1.7,1.7Z" transform="translate(0 0)"/>
    </g>
  </g>
</svg>
