<svg xmlns="http://www.w3.org/2000/svg" width="190" height="160" viewBox="0 0 190 160">
  <g id="Grupo_1100910" data-name="Grupo 1100910" transform="translate(-180 -655)">
    <rect id="Rect치ngulo_400902" data-name="Rect치ngulo 400902" width="190" height="37" rx="11" transform="translate(180 755)" fill="#f0c518"/>
    <rect id="Rect치ngulo_400903" data-name="Rect치ngulo 400903" width="144" height="151" rx="11" transform="translate(203 655)" fill="#3a1d71"/>
    <g id="programador_10_" data-name="programador (10)" transform="translate(202.998 674.331)">
      <g id="Grupo_1099574" data-name="Grupo 1099574" transform="translate(26.092 2.061)">
        <g id="Grupo_1099573" data-name="Grupo 1099573">
          <g id="Grupo_1099571" data-name="Grupo 1099571" transform="translate(11.941)">
            <path id="Trazado_875215" data-name="Trazado 875215" d="M205.479,37.427v9.21H147.074v-9.21A29.928,29.928,0,0,1,177,7.5c8.265,0,13.932,3.92,19.349,9.335S205.479,29.165,205.479,37.427Z" transform="translate(-144.699 -7.5)" fill="#3a1d71"/>
            <path id="Trazado_875216" data-name="Trazado 875216" d="M285.927,37.427v8.468l-3.081.626-3.413-5.909V38.66C279.433,14.356,256,7.5,256,7.5a29.924,29.924,0,0,1,29.927,29.927Z" transform="translate(-223.698 -7.5)" fill="#1f0a48"/>
            <path id="Trazado_875217" data-name="Trazado 875217" d="M235.078,276.164V255.782H209.559v20.382Z" transform="translate(-190.017 -187.568)" fill="#ffbf9d"/>
            <path id="Trazado_875218" data-name="Trazado 875218" d="M197.695,128.017H143.769a5.339,5.339,0,0,0-5.339,5.339,13.419,13.419,0,0,0,13.419,13.419h37.765a13.419,13.419,0,0,0,13.419-13.419A5.338,5.338,0,0,0,197.695,128.017Z" transform="translate(-138.43 -94.906)" fill="#ffbf9d"/>
            <path id="Trazado_875219" data-name="Trazado 875219" d="M212.521,128.449l-9.194,8.044a9.871,9.871,0,0,1-6.5,2.442h-5.364a9.87,9.87,0,0,1-6.5-2.442l-9.194-8.045a14.8,14.8,0,0,1-5.056-11.142V94.764a4.274,4.274,0,0,0,4.033-2.859l2.351-6.7a4.535,4.535,0,0,1,6.059-2.671l.009,0a27.989,27.989,0,0,0,21.967,0,4.535,4.535,0,0,1,6.06,2.67l2.351,6.7a4.274,4.274,0,0,0,4.033,2.859v22.542A14.8,14.8,0,0,1,212.521,128.449Z" transform="translate(-161.843 -61.653)" fill="#ffbf9d"/>
          </g>
          <g id="Grupo_1099572" data-name="Grupo 1099572" transform="translate(0 84.443)">
            <path id="Trazado_875220" data-name="Trazado 875220" d="M186.623,364.2l.363-43.681a4.878,4.878,0,0,0-4.878-4.878l-6.428-.786H109.516a4.878,4.878,0,0,0-4.878,4.878V364.2h81.985Z" transform="translate(-101.981 -314.853)" fill="#bed9fd"/>
            <path id="Trazado_875221" data-name="Trazado 875221" d="M180.557,478.841l-8-.582H96.992a2.025,2.025,0,0,0-2.025,2.025h0a5.184,5.184,0,0,0,5.184,5.184h71.175l6.348-.854c2.863,0,4.908-.885,4.908-3.748A2.025,2.025,0,0,0,180.557,478.841Z" transform="translate(-94.967 -433.364)" fill="#bed9fd"/>
            <path id="Trazado_875222" data-name="Trazado 875222" d="M367.862,314.854h-8.239a4.878,4.878,0,0,1,4.878,4.878V364.2h8.238V319.732A4.878,4.878,0,0,0,367.862,314.854Z" transform="translate(-286.91 -314.854)" fill="#97c3fc"/>
            <path id="Trazado_875223" data-name="Trazado 875223" d="M381.4,478.259h-8.87v5.374a1.836,1.836,0,0,1-1.836,1.836h7.547a5.184,5.184,0,0,0,5.184-5.184h0A2.025,2.025,0,0,0,381.4,478.259Z" transform="translate(-294.94 -433.364)" fill="#97c3fc"/>
          </g>
        </g>
      </g>
      <g id="Grupo_1099575" data-name="Grupo 1099575" transform="translate(0.002 0)">
        <path id="Trazado_875230" data-name="Trazado 875230" d="M194.035,363.612a2.061,2.061,0,0,0-2.914,0l-6.964,6.964a2.061,2.061,0,0,0,0,2.914l6.964,6.964a2.061,2.061,0,1,0,2.914-2.914l-5.507-5.507,5.507-5.507A2.061,2.061,0,0,0,194.035,363.612Z" transform="translate(-133.125 -263.274)"/>
        <path id="Trazado_875231" data-name="Trazado 875231" d="M288.7,380.454a2.062,2.062,0,0,0,2.914,0l6.964-6.964a2.061,2.061,0,0,0,0-2.914l-6.964-6.964a2.061,2.061,0,0,0-2.914,2.914l5.507,5.507L288.7,377.54A2.061,2.061,0,0,0,288.7,380.454Z" transform="translate(-208.947 -263.274)"/>
        <path id="Trazado_875232" data-name="Trazado 875232" d="M239.162,378.254a2.062,2.062,0,0,0,1.938-1.361l6.263-17.346a2.061,2.061,0,0,0-3.877-1.4l-6.263,17.346a2.062,2.062,0,0,0,1.938,2.761Z" transform="translate(-171.96 -258.761)"/>
        <path id="Trazado_875233" data-name="Trazado 875233" d="M177.371,129.594V91.355a6.949,6.949,0,0,0-6.94-6.943h-21.9V74.747l2.438-2.134a2.061,2.061,0,1,0-2.714-3.1l-6.72,5.882a7.815,7.815,0,0,1-5.147,1.933h-5.368a7.814,7.814,0,0,1-5.146-1.933l-9.2-8.05a12.757,12.757,0,0,1-4.357-9.6V36.91a6.352,6.352,0,0,0,1.605-.825,6.284,6.284,0,0,0,2.314-3.074l2.355-6.705a2.479,2.479,0,0,1,3.384-1.428,30.209,30.209,0,0,0,23.528-.029,2.474,2.474,0,0,1,3.314,1.459l2.352,6.7a6.35,6.35,0,0,0,3.92,3.9V57.746A12.64,12.64,0,0,1,154,62.9a2.061,2.061,0,1,0,3.768,1.67,16.739,16.739,0,0,0,1.443-6.825V54.541a15.39,15.39,0,0,0,8.874-14.007,7.382,7.382,0,0,0-2.376-5.428V32A32.006,32.006,0,0,0,115.574,5.628a2.061,2.061,0,0,0,2.338,3.394A27.883,27.883,0,0,1,161.584,32v1.183a7.455,7.455,0,0,0-.905-.057H157.14a2.22,2.22,0,0,1-2.085-1.484L152.7,24.941a6.594,6.594,0,0,0-8.816-3.883,26.064,26.064,0,0,1-20.362,0,6.6,6.6,0,0,0-8.825,3.883l-2.356,6.707a2.211,2.211,0,0,1-2.084,1.481h-3.539a7.454,7.454,0,0,0-.905.057V32.005a27.63,27.63,0,0,1,5.615-16.782,2.061,2.061,0,0,0-3.289-2.483,31.721,31.721,0,0,0-6.447,19.265v3.1a7.382,7.382,0,0,0-2.376,5.428,15.39,15.39,0,0,0,8.874,14.007v3.206a16.878,16.878,0,0,0,5.764,12.7l4.916,4.3v9.665h-6.586a2.061,2.061,0,1,0,0,4.121h58.144a2.823,2.823,0,0,1,2.819,2.822v37.978H158.122a2.061,2.061,0,1,0,0,4.121l17.787,0a3.131,3.131,0,0,1-3.127,3.1H94.618a3.127,3.127,0,0,1-3.126-3.094h57.015a2.061,2.061,0,0,0,0-4.121H94.151V91.355a2.824,2.824,0,0,1,2.819-2.822h5.7a2.061,2.061,0,1,0,0-4.121h-5.7a6.949,6.949,0,0,0-6.94,6.943V129.6a4.091,4.091,0,0,0-2.66,3.826,7.248,7.248,0,0,0,7.248,7.248h78.165a7.256,7.256,0,0,0,7.248-7.248,4.076,4.076,0,0,0-2.66-3.828ZM163.96,40.533a11.293,11.293,0,0,1-4.753,9.253V37.251h1.472a3.285,3.285,0,0,1,3.281,3.281Zm-60.52,0a3.285,3.285,0,0,1,3.281-3.281h1.472V49.786A11.3,11.3,0,0,1,103.44,40.533Zm19.554,37.821.162.142a11.935,11.935,0,0,0,7.86,2.952h5.368a11.934,11.934,0,0,0,7.86-2.953l.162-.142v6.059H122.994V78.354Z" transform="translate(-63.367 0)"/>
        <path id="Trazado_875234" data-name="Trazado 875234" d="M441.875,241.253v-5.24a6.5,6.5,0,0,0-13,0v5.24a6.5,6.5,0,0,0,13,0Zm-4.121,0a2.377,2.377,0,0,1-4.754,0v-5.24a2.377,2.377,0,0,1,4.754,0Z" transform="translate(-311.049 -166.457)" fill="#97c3fc"/>
        <path id="Trazado_875235" data-name="Trazado 875235" d="M395.121,247.751a2.06,2.06,0,0,0,2.061-2.061V231.576a2.061,2.061,0,1,0-4.121,0V245.69A2.06,2.06,0,0,0,395.121,247.751Z" transform="translate(-285.071 -166.457)" fill="#97c3fc"/>
        <path id="Trazado_875236" data-name="Trazado 875236" d="M471.2,311.416a6.505,6.505,0,0,0-6.5,6.5v5.239a6.5,6.5,0,1,0,13,0v-5.239A6.506,6.506,0,0,0,471.2,311.416Zm2.377,11.738a2.377,2.377,0,1,1-4.754,0v-5.239a2.377,2.377,0,0,1,4.754,0Z" transform="translate(-337.027 -225.856)" fill="#97c3fc"/>
        <path id="Trazado_875237" data-name="Trazado 875237" d="M430.939,311.416a2.06,2.06,0,0,0-2.061,2.061v14.115a2.061,2.061,0,1,0,4.121,0V313.477A2.06,2.06,0,0,0,430.939,311.416Z" transform="translate(-311.048 -225.856)" fill="#97c3fc"/>
        <path id="Trazado_875238" data-name="Trazado 875238" d="M499.061,229.515A2.06,2.06,0,0,0,497,231.576V245.69a2.061,2.061,0,0,0,4.121,0V231.576A2.06,2.06,0,0,0,499.061,229.515Z" transform="translate(-360.454 -166.457)" fill="#97c3fc"/>
        <path id="Trazado_875239" data-name="Trazado 875239" d="M42.317,229.515a6.505,6.505,0,0,0-6.5,6.5v5.24a6.5,6.5,0,0,0,13,0v-5.24A6.505,6.505,0,0,0,42.317,229.515Zm2.377,11.738a2.377,2.377,0,0,1-4.754,0v-5.24a2.377,2.377,0,0,1,4.754,0Z" transform="translate(-25.978 -166.457)" fill="#97c3fc"/>
        <path id="Trazado_875240" data-name="Trazado 875240" d="M106,247.751a2.06,2.06,0,0,0,2.061-2.061V231.576a2.061,2.061,0,1,0-4.121,0V245.69A2.061,2.061,0,0,0,106,247.751Z" transform="translate(-75.383 -166.457)" fill="#97c3fc"/>
        <path id="Trazado_875241" data-name="Trazado 875241" d="M6.5,311.416a6.505,6.505,0,0,0-6.5,6.5v5.239a6.5,6.5,0,1,0,13,0v-5.239A6.505,6.505,0,0,0,6.5,311.416Zm2.377,11.738a2.377,2.377,0,1,1-4.754,0v-5.239a2.377,2.377,0,0,1,4.754,0v5.239Z" transform="translate(0 -225.856)" fill="#97c3fc"/>
        <path id="Trazado_875242" data-name="Trazado 875242" d="M70.183,311.416a2.06,2.06,0,0,0-2.061,2.061v14.115a2.061,2.061,0,1,0,4.121,0V313.477A2.06,2.06,0,0,0,70.183,311.416Z" transform="translate(-49.406 -225.856)" fill="#97c3fc"/>
        <path id="Trazado_875243" data-name="Trazado 875243" d="M2.061,247.751a2.06,2.06,0,0,0,2.061-2.061V231.576a2.061,2.061,0,1,0-4.121,0V245.69A2.06,2.06,0,0,0,2.061,247.751Z" transform="translate(0 -166.457)" fill="#97c3fc"/>
      </g>
    </g>
  </g>
</svg>
