<svg xmlns="http://www.w3.org/2000/svg" width="62" height="58" viewBox="0 0 62 58">
  <g id="Grupo_1104716" data-name="Grupo 1104716" transform="translate(-202 -1282)">
    <g id="Grupo_1099551" data-name="Grupo 1099551" transform="translate(-50.955 650.62)">
      <rect id="Rectángulo_400902" data-name="Rectángulo 400902" width="62" height="58" rx="8" transform="translate(252.955 631.38)" fill="#0b47db"/>
    </g>
    <g id="programmer_3195686" transform="translate(212 1290)">
      <g id="Grupo_1100498" data-name="Grupo 1100498" transform="translate(0.694 0.694)">
        <g id="Grupo_1100484" data-name="Grupo 1100484" transform="translate(16.645 5.548)">
          <path id="Trazado_876772" data-name="Trazado 876772" d="M2,21.1H25.581a1.387,1.387,0,0,0,1.387-1.387V10H2Z" transform="translate(-2 -10)" fill="#e6e9ed"/>
        </g>
        <g id="Grupo_1100485" data-name="Grupo 1100485" transform="translate(16.645)">
          <path id="Trazado_876773" data-name="Trazado 876773" d="M4.081,6.161a4.191,4.191,0,0,1-.236,1.387H26.968V3.387A1.391,1.391,0,0,0,25.581,2H3.387A1.391,1.391,0,0,0,2,3.387v1.3A6.978,6.978,0,0,0,3.061,4.42l1.02-.34Z" transform="translate(-2 -2)" fill="#5cd6b3"/>
        </g>
        <g id="Grupo_1100486" data-name="Grupo 1100486" transform="translate(0 22.194)">
          <path id="Trazado_876774" data-name="Trazado 876774" d="M58,34V53.419h2.774V36.774A2.773,2.773,0,0,0,58,34Z" transform="translate(-58 -34)" fill="#d3a06c"/>
        </g>
        <g id="Grupo_1100487" data-name="Grupo 1100487" transform="translate(0 1.387)">
          <path id="Trazado_876775" data-name="Trazado 876775" d="M51.645,5.3a6.676,6.676,0,0,1-1.117.09,7.009,7.009,0,0,1-1.893-.264l-3.093-.888A6.36,6.36,0,0,0,43.843,4a6.188,6.188,0,0,0-5.965,4.5l-.1.354-.707.881A9.439,9.439,0,0,0,40.937,24.4l1,.4V20.645l-1.4-.7a2.48,2.48,0,0,1,.506-4.626l.895-.222V13.71a2.773,2.773,0,0,1,2.774-2.774h4.855a4.126,4.126,0,0,0,2.081-.555,4.153,4.153,0,0,0,2.081-3.606V4.694l-1.02.34A6.978,6.978,0,0,1,51.645,5.3Z" transform="translate(-35 -4)" fill="#b27946"/>
        </g>
        <g id="Grupo_1100488" data-name="Grupo 1100488" transform="translate(2.781 24.968)">
          <path id="Trazado_876776" data-name="Trazado 876776" d="M46.435,47.71A11,11,0,0,0,38.154,38a6.075,6.075,0,0,0-3.01,2.212A6.012,6.012,0,0,0,34,43.673a8.311,8.311,0,0,0,8.316,8.2h8.323V49.1a1.391,1.391,0,0,0-1.387-1.387Z" transform="translate(-34 -38)" fill="#5cd6b3"/>
        </g>
        <g id="Grupo_1100489" data-name="Grupo 1100489" transform="translate(2.774 30.641)">
          <path id="Trazado_876777" data-name="Trazado 876777" d="M40,48.136v9.016H52.484V54.378H48.323a8.311,8.311,0,0,1-8.316-8.2.458.458,0,0,0-.007.1Z" transform="translate(-40 -46.18)" fill="#5cd6b3"/>
        </g>
        <g id="Grupo_1100490" data-name="Grupo 1100490" transform="translate(15.258 38.839)">
          <path id="Trazado_876778" data-name="Trazado 876778" d="M16,58v2.774H29.871A2.773,2.773,0,0,1,32.645,58H16Z" transform="translate(-16 -58)" fill="#969faa"/>
        </g>
        <g id="Grupo_1100491" data-name="Grupo 1100491" transform="translate(29.129 27.048)">
          <path id="Trazado_876779" data-name="Trazado 876779" d="M12.242,52.79H8.774A2.773,2.773,0,0,0,6,55.565h8.461a1.252,1.252,0,0,0,1.248-1.248,1.2,1.2,0,0,0-.028-.27L12.894,41.361A1.284,1.284,0,0,0,12.741,41l-1.914,4.314Z" transform="translate(-6 -41)" fill="#aab2bd"/>
        </g>
        <g id="Grupo_1100492" data-name="Grupo 1100492" transform="translate(28.438 19.419)">
          <path id="Trazado_876780" data-name="Trazado 876780" d="M7.223,43.635a2.078,2.078,0,1,0,3.717,1.859l1.581-3.551,1.914-4.314,2.053-4.619a2.08,2.08,0,0,0-3.717-1.866Z" transform="translate(-7.003 -30)" fill="#ccd1d9"/>
        </g>
        <g id="Grupo_1100493" data-name="Grupo 1100493" transform="translate(19.419 36.065)">
          <path id="Trazado_876781" data-name="Trazado 876781" d="M28,54v2.774h4.161V55.387A1.391,1.391,0,0,0,30.774,54Z" transform="translate(-28 -54)" fill="#f0d0b4"/>
        </g>
        <g id="Grupo_1100494" data-name="Grupo 1100494" transform="translate(6.935 7.768)">
          <path id="Trazado_876782" data-name="Trazado 876782" d="M45.629,13.755H40.774A2.773,2.773,0,0,0,38,16.529h9.71V13.2A4.126,4.126,0,0,1,45.629,13.755Z" transform="translate(-38 -13.2)" fill="#f0d0b4"/>
        </g>
        <g id="Grupo_1100495" data-name="Grupo 1100495" transform="translate(4.161 11.097)">
          <path id="Trazado_876783" data-name="Trazado 876783" d="M38.774,31.871a10.924,10.924,0,0,1,5.541,3.357h.007V30.484H45.71a2.773,2.773,0,0,0,2.774-2.774V26.323l.555-.277a1.5,1.5,0,0,0,.832-1.345,1.564,1.564,0,0,0-.25-.839l-.208-.312h-.007l-.458-.687a2.769,2.769,0,0,1-.465-1.54v-.548H44.711a1.381,1.381,0,0,1-1.345-1.047L42.935,18H38.774v1.387l-.895.222a2.48,2.48,0,0,0-.506,4.626l1.4.7v6.935Z" transform="translate(-36 -18)" fill="#f0d0b4"/>
        </g>
        <g id="Grupo_1100496" data-name="Grupo 1100496" transform="translate(11.097 11.097)">
          <path id="Trazado_876784" data-name="Trazado 876784" d="M38,18l.43,1.727a1.381,1.381,0,0,0,1.345,1.047h3.773V18Z" transform="translate(-38 -18)" fill="#69d6f4"/>
        </g>
        <g id="Grupo_1100497" data-name="Grupo 1100497" transform="translate(31.903 8.323)">
          <path id="Trazado_876785" data-name="Trazado 876785" d="M12.935,14H6v5.548h6.935Z" transform="translate(-6 -14)" fill="#fcd770"/>
        </g>
      </g>
      <g id="Grupo_1100499" data-name="Grupo 1100499" transform="translate(0 0)">
        <path id="Trazado_876786" data-name="Trazado 876786" d="M5.161,26.661V28.33a6.761,6.761,0,0,1,2.774-2.147V24.357l-.561-.225A10.141,10.141,0,0,1,3.222,8.381l.617-.771L3.9,7.39a6.9,6.9,0,0,1,8.526-4.738l3.093.884a6.152,6.152,0,0,0,2.124.208V3.081A2.083,2.083,0,0,1,19.726,1H41.919A2.083,2.083,0,0,1,44,3.081V16.952a2.083,2.083,0,0,1-2.081,2.081H20.366A2.164,2.164,0,0,1,19.2,21.456l-.171.085V22.5a3.472,3.472,0,0,1-3.468,3.468h-.694v3.8a11.653,11.653,0,0,1,2.651,5.913h2.2a2.078,2.078,0,0,1,1.953,1.387h2.208a2.083,2.083,0,0,1,2.081,2.081v.694h10.26l-.848-4.471-.69,1.552a2.762,2.762,0,0,1-2.481,1.531,2.808,2.808,0,0,1-1.24-.293,2.772,2.772,0,0,1-1.255-3.694l5.564-12.515a2.761,2.761,0,0,1,2.481-1.53,2.814,2.814,0,0,1,1.24.292,2.772,2.772,0,0,1,1.255,3.694l-1.927,4.336a2.111,2.111,0,0,1,.068.209L41.18,41.636a1.921,1.921,0,0,1,.046.42A1.947,1.947,0,0,1,39.281,44H1V23.194h.694a3.472,3.472,0,0,1,3.468,3.468ZM15.141,4.87l-3.093-.884A5.51,5.51,0,0,0,5.236,7.77l-.14.49L4.3,9.248a8.754,8.754,0,0,0,3.585,13.6l.046.019V20.155l-1.021-.51a3.173,3.173,0,0,1,.65-5.916l.371-.093V12.79A3.473,3.473,0,0,1,11.4,9.323h4.855a3.472,3.472,0,0,0,3.468-3.468V4.737l-.108.037a7.617,7.617,0,0,1-4.476.1Zm2.5,8.614H13.678l.216.861a.694.694,0,0,0,.673.526h3.078Zm0-1.387V10.505a4.824,4.824,0,0,1-1.387.2H11.4A2.079,2.079,0,0,0,9.45,12.1Zm24.274-9.71H19.726a.694.694,0,0,0-.694.694v.413c.048-.015.1-.021.146-.037l1.934-.646V5.855a4.873,4.873,0,0,1-.055.694H42.613V3.081A.694.694,0,0,0,41.919,2.387ZM19.382,17.266l.252.379H41.919a.694.694,0,0,0,.694-.694V7.935H20.638a4.881,4.881,0,0,1-1.606,1.9v6.279a2.07,2.07,0,0,0,.35,1.154Zm-8.672,8.7V24.581h4.855A2.083,2.083,0,0,0,17.645,22.5V20.684l.938-.469a.813.813,0,0,0,.312-1.178l-.668-1a3.444,3.444,0,0,1-.571-1.778H14.567a2.078,2.078,0,0,1-2.018-1.576l-.3-1.2H9.323v1.235L7.9,15.074a1.786,1.786,0,0,0-.366,3.33l1.787.893v6.845a11.65,11.65,0,0,1,4.161,2.245v-2.42Zm9.71,11.79a.694.694,0,0,0-.694-.694H14.177a6.249,6.249,0,0,1-6.242-6.242H9.323a4.861,4.861,0,0,0,4.855,4.855h1.948A10.293,10.293,0,0,0,8.66,27.386a5.38,5.38,0,0,0-3.491,4.96,7.635,7.635,0,0,0,7.622,7.493h7.629Zm-2.774,3.468v1.387H30.2a3.444,3.444,0,0,1,.641-1.387H17.645Zm6.935-2.081a.694.694,0,0,0-.694-.694H21.806v1.387h2.774Zm13.8-17.192a1.406,1.406,0,0,0-.622-.147,1.371,1.371,0,0,0-1.227.736L30.969,35.057a1.389,1.389,0,0,0,.619,1.861,1.419,1.419,0,0,0,1.849-.59L39,23.814A1.388,1.388,0,0,0,38.381,21.953ZM37.065,42.613h2.217a.558.558,0,0,0,.558-.558.53.53,0,0,0-.013-.12L37.39,30.845,36.37,33.14l1.312,6.924,1.08.54-.621,1.241-1.24-.62H33.6a2.085,2.085,0,0,0-1.962,1.387Zm-20.806,0V41.226H12.79a9.011,9.011,0,0,1-7.629-4.233v5.621Zm-13.871,0H3.774V26.661A2.085,2.085,0,0,0,2.387,24.7Z" transform="translate(-1 -1)"/>
        <path id="Trazado_876787" data-name="Trazado 876787" d="M14.387,5H13V6.387h1.387Z" transform="translate(20.29 -2.226)"/>
        <path id="Trazado_876788" data-name="Trazado 876788" d="M6.387,5H5V6.387H6.387Z" transform="translate(33.839 -2.226)"/>
        <path id="Trazado_876789" data-name="Trazado 876789" d="M10.387,5H9V6.387h1.387Z" transform="translate(27.065 -2.226)"/>
        <path id="Trazado_876790" data-name="Trazado 876790" d="M13.323,19.935H5V13h8.323Zm-1.387-5.548H6.387v4.161h5.548Z" transform="translate(26.903 -4.677)"/>
        <path id="Trazado_876791" data-name="Trazado 876791" d="M24.049,13.3l-3.523,2.934,3.523,2.934-.889,1.067-4.8-4,4.8-4Z" transform="translate(6.912 -4.442)"/>
        <path id="Trazado_876792" data-name="Trazado 876792" d="M32.548,21H27v1.387h5.548Z" transform="translate(-7.581 -7.129)"/>
      </g>
    </g>
  </g>
</svg>
