<svg xmlns="http://www.w3.org/2000/svg" width="78" height="78" viewBox="0 0 78 78">
  <g id="Grupo_1105235" data-name="Grupo 1105235" transform="translate(-624.5 -661)">
    <g id="Grupo_1104985" data-name="Grupo 1104985" transform="translate(624.5 661)">
      <g id="Grupo_1095345" data-name="Grupo 1095345" transform="translate(0 0)">
        <path id="Trazado_875520" data-name="Trazado 875520" d="M39,0A39,39,0,1,1,0,39,39,39,0,0,1,39,0Z" fill="#f0c518"/>
      </g>
    </g>
    <g id="strategic-plan_4838786" transform="translate(625.072 665.438)">
      <path id="Trazado_890499" data-name="Trazado 890499" d="M39.6,206.922a6.867,6.867,0,0,0-.524-1.235l1.534-1.534-2.769-2.769-1.534,1.534a6.863,6.863,0,0,0-1.235-.524V200H30.922v2.394a6.863,6.863,0,0,0-1.235.524l-1.534-1.534-2.769,2.769,1.534,1.534a6.867,6.867,0,0,0-.524,1.235H24v4.153h2.394a6.865,6.865,0,0,0,.524,1.235l-1.534,1.534,2.769,2.769,1.534-1.534a6.864,6.864,0,0,0,1.235.524V218h4.153V215.6a6.864,6.864,0,0,0,1.235-.524l1.534,1.534,2.769-2.769-1.534-1.534a6.865,6.865,0,0,0,.524-1.235H42v-4.153Z" transform="translate(-7.308 -168.079)" fill="#3397e8"/>
      <ellipse id="Elipse_11894" data-name="Elipse 11894" cx="4.565" cy="5.579" rx="4.565" ry="5.579" transform="translate(20.999 35.201)" fill="#e9eef2"/>
      <circle id="Elipse_11895" data-name="Elipse 11895" cx="2.029" cy="2.029" r="2.029" transform="translate(24.042 39.259)" fill="#2978b8"/>
      <path id="Trazado_890500" data-name="Trazado 890500" d="M163.688,64.148a2.769,2.769,0,0,0,2.769-2.769V24H136V64.148Z" transform="translate(-109.617 -7.308)" fill="#e9eef2"/>
      <path id="Trazado_890501" data-name="Trazado 890501" d="M41.692,37.186a5.538,5.538,0,0,0-1.427-2.459l-9.994-9.994A2.507,2.507,0,0,0,28.5,24h0a2.507,2.507,0,0,0-1.773.734l-1.993,1.993a2.507,2.507,0,0,0,0,3.545l9.994,9.994a5.538,5.538,0,0,0,2.459,1.427l6.2,1.689Z" transform="translate(-7.308 -7.308)" fill="#fbe9d8"/>
      <path id="Trazado_890502" data-name="Trazado 890502" d="M26.727,24.734l-1.993,1.993A2.507,2.507,0,0,0,24,28.5h0a2.507,2.507,0,0,0,.734,1.772l2.035,2.035,5.538-5.538-2.035-2.035A2.507,2.507,0,0,0,28.5,24h0a2.507,2.507,0,0,0-1.773.734Z" transform="translate(-7.308 -7.308)" fill="#eb423f"/>
      <path id="Trazado_890503" data-name="Trazado 890503" d="M104,408h27.688v4.153a2.769,2.769,0,0,0,2.769,2.769H106.769A2.769,2.769,0,0,1,104,412.153Z" transform="translate(-80.386 -358.082)" fill="#dadcde"/>
      <rect id="Rectángulo_405211" data-name="Rectángulo 405211" width="6.087" height="12.173" transform="translate(46.36 20.999)" fill="#dadcde"/>
      <path id="Trazado_890504" data-name="Trazado 890504" d="M197.72,200.883l4.351,1.187-1.187-4.351Z" transform="translate(-165.997 -165.997)" fill="#414649"/>
      <path id="Trazado_890505" data-name="Trazado 890505" d="M56,61.538,63.959,69.5l0,0L69.5,63.96l0,0L61.538,56Z" transform="translate(-36.539 -36.539)" fill="#3397e8"/>
      <rect id="Rectángulo_405212" data-name="Rectángulo 405212" width="2.937" height="11.747" transform="translate(20.845 22.922) rotate(-45)" fill="#2978b8"/>
      <circle id="Elipse_11896" data-name="Elipse 11896" cx="1.522" cy="1.522" r="1.522" transform="translate(40.273 40.273)" fill="#3397e8"/>
      <rect id="Rectángulo_405213" data-name="Rectángulo 405213" width="8.116" height="5.072" transform="translate(30.129 39.259)" fill="#eb423f"/>
      <rect id="Rectángulo_405214" data-name="Rectángulo 405214" width="6.087" height="5.072" transform="translate(46.36 39.259)" fill="#3dc285"/>
      <rect id="Rectángulo_405215" data-name="Rectángulo 405215" width="6.087" height="2.029" transform="translate(38.245 47.374)" fill="#ffd33a"/>
      <rect id="Rectángulo_405216" data-name="Rectángulo 405216" width="7.831" height="1.958" transform="translate(18.077 23.614) rotate(-45)" fill="#ffd33a"/>
      <path id="Trazado_890506" data-name="Trazado 890506" d="M56.84,16H26.383a.692.692,0,0,0-.692.692v2.482l-2.237-2.237a3.2,3.2,0,0,0-4.524,0l-1.993,1.993a3.2,3.2,0,0,0,0,4.524l7.775,7.775h-1.1a.692.692,0,0,0-.692.692v1.9q-.205.08-.406.172l-1.181-1.181a.692.692,0,0,0-.979,0l-2.769,2.769a.692.692,0,0,0,0,.979l1.182,1.181q-.092.2-.172.406h-1.9a.692.692,0,0,0-.692.692V43a.692.692,0,0,0,.692.692h1.9q.08.205.172.406l-1.181,1.181a.692.692,0,0,0,0,.979l2.769,2.769a.692.692,0,0,0,.979,0l1.181-1.181q.2.092.406.172v6.057a3.465,3.465,0,0,0,3.461,3.461H54.071a3.465,3.465,0,0,0,3.461-3.461V16.692A.692.692,0,0,0,56.84,16ZM31.98,27.421l-.752.752-6.981-6.981L25,20.44Zm3.107,7.666-2.032-.554,1.478-1.478Zm-3.57-.974-1.457-.4a4.854,4.854,0,0,1-1.624-.793l4.487-4.487a4.854,4.854,0,0,1,.793,1.624l.4,1.457Zm-12.462-10.5,4.559-4.559.405.405L19.461,24.02Zm4.213-1.444,6.981,6.981-1.1,1.1L22.17,23.268Zm-5.352-2.262,1.993-1.993a1.814,1.814,0,0,1,2.566,0l.161.161-4.559,4.559-.161-.161a1.814,1.814,0,0,1,0-2.566Zm3.276,4.339,6.981,6.981-.752.752L20.44,25Zm4.5,18.057a1.384,1.384,0,0,1,0-2.769Zm0-4.153a2.769,2.769,0,1,0,0,5.538v1.384a4.153,4.153,0,1,1,0-8.306Zm-2.98,8.241a.692.692,0,0,0-.821.118l-1.045,1.045-1.79-1.79L20.1,44.72a.692.692,0,0,0,.118-.821,6.177,6.177,0,0,1-.471-1.11.692.692,0,0,0-.661-.485h-1.7V39.535h1.7a.692.692,0,0,0,.661-.485,6.177,6.177,0,0,1,.471-1.11.692.692,0,0,0-.118-.821l-1.045-1.045,1.79-1.79,1.045,1.045a.692.692,0,0,0,.821.118,6.183,6.183,0,0,1,1.11-.471.692.692,0,0,0,.485-.661v-1.7h1.384v2.769a5.538,5.538,0,1,0,0,11.075v2.769H24.306v-1.7a.692.692,0,0,0-.485-.661,6.183,6.183,0,0,1-1.11-.471Zm3.672,9.756a2.079,2.079,0,0,1-2.077-2.077V50.61h26.3v3.461a3.443,3.443,0,0,0,.694,2.077ZM40.919,41.611a.692.692,0,1,1,.692.692.692.692,0,0,1-.692-.692Zm3.461,6.23v1.384H38.843V47.841Zm11.767,6.23a2.077,2.077,0,0,1-4.153,0V49.918a.692.692,0,0,0-.692-.692H45.765V47.149a.692.692,0,0,0-.692-.692H42.3V43.569A2.087,2.087,0,0,0,43.569,42.3h1.5V44.38a.692.692,0,0,0,.692.692h6.922a.692.692,0,0,0,.692-.692V38.843a.692.692,0,0,0-.692-.692H45.765a.692.692,0,0,0-.692.692v2.077h-1.5a2.077,2.077,0,0,0-3.915,0h-1.5V38.843a.692.692,0,0,0-.692-.692H30.536a.692.692,0,0,0-.692.692V44.38a.692.692,0,0,0,.692.692h6.922a.692.692,0,0,0,.692-.692V42.3h1.5a2.087,2.087,0,0,0,1.265,1.265v2.888H38.15a.692.692,0,0,0-.692.692v2.077H27.075V33.587A6.242,6.242,0,0,0,29.7,35.052l6.2,1.69a.69.69,0,0,0,.182.024H47.149a.692.692,0,0,0,.692-.692V34h4.845a.692.692,0,0,0,.692-.692V20.845a.692.692,0,0,0-.692-.692H47.149a.692.692,0,0,0-.692.692V35.382H36.6l-.755-2.769H43a.692.692,0,1,0,0-1.384H35.47l-.378-1.384H43a.692.692,0,1,0,0-1.384H34.567a6.239,6.239,0,0,0-.98-1.384h2.487a.692.692,0,0,0,0-1.384H33.305a.692.692,0,0,0-.648.45l-5.582-5.582V17.384H56.148ZM46.457,43.688V39.535h5.538v4.153Zm-9.691-4.153v4.153H31.228V39.535Zm11.075-6.922V21.538h4.153V32.613Z" transform="translate(0 0)"/>
      <path id="Trazado_890507" data-name="Trazado 890507" d="M224.692,65.384h2.769a.692.692,0,1,0,0-1.384h-2.769a.692.692,0,0,0,0,1.384Z" transform="translate(-190.003 -43.847)"/>
      <path id="Trazado_890508" data-name="Trazado 890508" d="M208.692,97.384h9.691a.692.692,0,0,0,0-1.384h-9.691a.692.692,0,0,0,0,1.384Z" transform="translate(-175.387 -73.078)"/>
      <path id="Trazado_890509" data-name="Trazado 890509" d="M288.692,65.384h2.769a.692.692,0,0,0,0-1.384h-2.769a.692.692,0,1,0,0,1.384Z" transform="translate(-248.465 -43.847)"/>
      <path id="Trazado_890510" data-name="Trazado 890510" d="M276.845,128h-4.153a.692.692,0,1,0,0,1.384h4.153a.692.692,0,0,0,0-1.384Z" transform="translate(-233.85 -102.309)"/>
    </g>
  </g>
</svg>
