<svg xmlns="http://www.w3.org/2000/svg" width="58" height="48" viewBox="0 0 58 48">
  <g id="Grupo_1098827" data-name="Grupo 1098827" transform="translate(0 0.001)">
    <rect id="Rectángulo_400902" data-name="Rectángulo 400902" width="58" height="48" rx="8" transform="translate(0 -0.001)" fill="#d6e1fd"/>
    <g id="Grupo_1098863" data-name="Grupo 1098863" transform="translate(14.418 5.356)">
      <path id="Trazado_873186" data-name="Trazado 873186" d="M101.092,25.759c-2.589.678-3.771,2.708-3.294,5.646l.469,2.883h17.2l.418-2.883c1.261-8.72-12.367-11.564-14.791-5.646Z" transform="translate(-97.695 -22.639)" fill="#99edf2" fill-rule="evenodd"/>
    </g>
    <g id="Grupo_1098864" data-name="Grupo 1098864" transform="translate(21.816 5.356)">
      <path id="Trazado_873189" data-name="Trazado 873189" d="M181.836,23.442c4.571-.332,10.3,2.708,9.8,8.305-.013.143-.031.29-.051.437l-.3,2.1h2.781l.418-2.883c1.041-7.2-8.067-10.393-12.64-7.958Z" transform="translate(-181.836 -22.634)" fill="#7fced3" fill-rule="evenodd"/>
    </g>
    <g id="ingeniero-de-software_1_" data-name="ingeniero-de-software (1)" transform="translate(11.253 4.777)">
      <g id="Grupo_1098862" data-name="Grupo 1098862" transform="translate(0 0)">
        <g id="Grupo_1098832" data-name="Grupo 1098832" transform="translate(4.656 9.578)">
          <path id="Trazado_873190" data-name="Trazado 873190" d="M114.954,159.125l-4.767.009c-2.092,0-2.536.264-3.807,2.64v2.6a6.224,6.224,0,0,0,.357,1.992,9.662,9.662,0,0,0,1.372,2.574l6.739,1.807,7-1.807a9.663,9.663,0,0,0,1.372-2.574,6.224,6.224,0,0,0,.357-1.992v-2.6c-1.27-2.376-1.768-2.637-3.857-2.64Z" transform="translate(-106.381 -159.125)" fill="#fff" fill-rule="evenodd"/>
        </g>
        <g id="Grupo_1098834" data-name="Grupo 1098834" transform="translate(5.864 0)">
          <path id="Trazado_873192" data-name="Trazado 873192" d="M107.277,26.675a.578.578,0,0,1-.509-.305c-1.212-2.268-1.546-2.332-3.348-2.334l-4.767-.009-4.764.009c-1.819,0-2.1.089-3.3,2.334a.577.577,0,0,1-1.079-.18l-.469-2.883h0c-.511-3.141.743-5.392,3.445-6.22A5.535,5.535,0,0,1,96.144,14.2a10.282,10.282,0,0,1,5.437.069,10.037,10.037,0,0,1,5.037,3.078,7.349,7.349,0,0,1,1.65,5.947l-.418,2.883a.577.577,0,0,1-.472.486A.57.57,0,0,1,107.277,26.675Zm-17.1-3.553.212,1.306c.888-1.3,1.662-1.545,3.493-1.547l4.766-.009,4.769.009c1.827,0,2.634.263,3.519,1.521l.184-1.27c.632-4.367-2.755-6.9-5.847-7.745-3.064-.835-6.74-.279-7.837,2.4a.578.578,0,0,1-.388.34c-2.919.765-3.172,3.138-2.87,4.994Z" transform="translate(-88.929 -13.87)" fill="#4529c7"/>
        </g>
        <g id="Grupo_1098836" data-name="Grupo 1098836" transform="translate(23.278 11.649)">
          <path id="Trazado_873194" data-name="Trazado 873194" d="M353.867,196.288q-.163,0-.33-.013a.577.577,0,0,1,.086-1.152,2.174,2.174,0,0,0,2.134-.927,1.756,1.756,0,0,0,.132-1.76,1.618,1.618,0,0,0-1.539-.753h-.414a.577.577,0,0,1,0-1.155h.414a2.737,2.737,0,0,1,2.553,1.355,2.923,2.923,0,0,1-.177,2.939A3.287,3.287,0,0,1,353.867,196.288Z" transform="translate(-353.002 -190.528)" fill="#4529c7"/>
        </g>
        <g id="Grupo_1098837" data-name="Grupo 1098837" transform="translate(3.733 11.649)">
          <path id="Trazado_873195" data-name="Trazado 873195" d="M59.959,196.288a3.286,3.286,0,0,1-2.859-1.465,2.923,2.923,0,0,1-.176-2.94,2.736,2.736,0,0,1,2.552-1.355h.414a.577.577,0,0,1,0,1.155h-.414a1.617,1.617,0,0,0-1.538.753,1.757,1.757,0,0,0,.132,1.761,2.174,2.174,0,0,0,2.133.927.577.577,0,1,1,.086,1.152Q60.122,196.288,59.959,196.288Z" transform="translate(-56.607 -190.528)" fill="#4529c7"/>
        </g>
        <g id="Grupo_1098838" data-name="Grupo 1098838" transform="translate(6.438 11.649)">
          <path id="Trazado_873196" data-name="Trazado 873196" d="M113.669,198.852a.578.578,0,0,1-.465-.919,7.549,7.549,0,0,0,1.616-4.224v-2.6a.577.577,0,0,1,1.155,0v2.6a8.586,8.586,0,0,1-1.84,4.907A.577.577,0,0,1,113.669,198.852Zm-13.739,0a.576.576,0,0,1-.466-.236,8.587,8.587,0,0,1-1.84-4.907v-2.6a.577.577,0,0,1,1.155,0v2.6a7.55,7.55,0,0,0,1.616,4.224.578.578,0,0,1-.465.919Z" transform="translate(-97.624 -190.529)" fill="#4529c7"/>
        </g>
        <g id="Grupo_1098843" data-name="Grupo 1098843" transform="translate(3.866 19.394)">
          <path id="Trazado_873201" data-name="Trazado 873201" d="M100.873,307.979h-12.7a1.079,1.079,0,0,0-.952,1.166v13.29h16.1v-13.29a1.079,1.079,0,0,0-.952-1.166Z" transform="translate(-87.217 -307.979)" fill="#99edf2" fill-rule="evenodd"/>
        </g>
        <g id="Grupo_1098848" data-name="Grupo 1098848" transform="translate(10.827 21.625)">
          <path id="Trazado_873206" data-name="Trazado 873206" d="M167.8,342.864a4.109,4.109,0,0,0-1.673.966l-.588-.34a.378.378,0,0,0-.515.138l-.793,1.37a.374.374,0,0,0,.139.512l.586.338a4.2,4.2,0,0,0,0,1.928l-.586.338a.374.374,0,0,0-.139.512l.793,1.37a.379.379,0,0,0,.515.136l.588-.338a4.1,4.1,0,0,0,1.673.964v.676a.375.375,0,0,0,.374.375h1.587a.375.375,0,0,0,.374-.375v-.676a4.1,4.1,0,0,0,1.673-.964l.59.338a.377.377,0,0,0,.513-.136l.793-1.37a.374.374,0,0,0-.139-.512l-.586-.338a4.195,4.195,0,0,0,0-1.928l.586-.338a.374.374,0,0,0,.139-.512l-.793-1.37a.376.376,0,0,0-.513-.138l-.59.34a4.107,4.107,0,0,0-1.673-.966v-.676a.374.374,0,0,0-.374-.373h-1.587a.374.374,0,0,0-.374.373v.676Zm1.169,2.172a1.777,1.777,0,1,1-1.783,1.776,1.78,1.78,0,0,1,1.783-1.776Z" transform="translate(-164.181 -341.815)" fill="#e5e1e5" fill-rule="evenodd"/>
        </g>
        <g id="Grupo_1098849" data-name="Grupo 1098849" transform="translate(13.254 24.269)">
          <path id="Trazado_873207" data-name="Trazado 873207" d="M203.351,386.616a2.354,2.354,0,1,1,2.359-2.354A2.36,2.36,0,0,1,203.351,386.616Zm0-3.553a1.2,1.2,0,1,0,1.2,1.2A1.2,1.2,0,0,0,203.351,383.063Z" transform="translate(-200.99 -381.908)" fill="#4529c7"/>
        </g>
        <g id="Grupo_1098850" data-name="Grupo 1098850" transform="translate(10.248 21.048)">
          <path id="Trazado_873208" data-name="Trazado 873208" d="M161.574,344.208h-1.587a.953.953,0,0,1-.952-.953v-.266a4.721,4.721,0,0,1-1.163-.67l-.233.134a.958.958,0,0,1-1.3-.346l-.793-1.372a.951.951,0,0,1,.352-1.3l.23-.133a4.748,4.748,0,0,1,0-1.336l-.232-.134a.952.952,0,0,1-.349-1.3l.792-1.369a.956.956,0,0,1,1.3-.35l.235.136a4.723,4.723,0,0,1,1.162-.671v-.266a.952.952,0,0,1,.952-.951h1.587a.952.952,0,0,1,.952.951v.266a4.724,4.724,0,0,1,1.162.672l.235-.135a.954.954,0,0,1,1.3.351l.792,1.369a.951.951,0,0,1-.352,1.3l-.23.133a4.752,4.752,0,0,1,0,1.336l.232.134a.951.951,0,0,1,.349,1.3l-.792,1.369a.955.955,0,0,1-1.3.347l-.233-.134a4.718,4.718,0,0,1-1.163.671v.266A.953.953,0,0,1,161.574,344.208Zm-1.384-1.155h1.181v-.474a.578.578,0,0,1,.415-.554,3.546,3.546,0,0,0,1.438-.828.577.577,0,0,1,.685-.082l.417.239.589-1.019-.411-.237a.577.577,0,0,1-.274-.632,3.619,3.619,0,0,0,0-1.664.578.578,0,0,1,.273-.632l.411-.237-.59-1.02-.415.24a.577.577,0,0,1-.686-.082,3.549,3.549,0,0,0-1.438-.831.577.577,0,0,1-.415-.554v-.472h-1.181v.472a.577.577,0,0,1-.415.554,3.549,3.549,0,0,0-1.438.831.577.577,0,0,1-.687.081l-.414-.24-.59,1.021.411.237a.578.578,0,0,1,.273.632,3.617,3.617,0,0,0,0,1.664.578.578,0,0,1-.273.632l-.411.237.59,1.019.416-.239a.577.577,0,0,1,.686.082,3.545,3.545,0,0,0,1.438.828.578.578,0,0,1,.415.554v.474Zm4.307-1.6h0Zm.593-1.016h0Zm-8.618,0h0Zm8.545-.277h0Zm-8.475,0h0Zm8.475-3.048h0Zm-8.474,0h0Zm8.546-.277h0Zm-8.621,0h0Zm8.032-1.019h0Zm-.276-.072h0Zm-6.888,0h0Z" transform="translate(-155.415 -333.057)" fill="#4529c7"/>
        </g>
        <g id="Grupo_1098851" data-name="Grupo 1098851" transform="translate(5.174 18.817)">
          <path id="Trazado_873209" data-name="Trazado 873209" d="M98.761,314.833H79.036a.577.577,0,0,1-.577-.577v-13.29a1.746,1.746,0,0,1,1.744-1.743h7.063a.577.577,0,0,1,0,1.155H80.2a.6.6,0,0,0-.589.589v12.712H98.183V300.965a.59.59,0,0,0-.589-.589H89.957a.577.577,0,1,1,0-1.155h7.637a1.746,1.746,0,0,1,1.744,1.743v13.29A.577.577,0,0,1,98.761,314.833Z" transform="translate(-78.459 -299.222)" fill="#4529c7"/>
        </g>
        <g id="Grupo_1098852" data-name="Grupo 1098852" transform="translate(3.525 33.273)">
          <path id="Trazado_873210" data-name="Trazado 873210" d="M75.32,522.763a.577.577,0,1,1,0-1.155,1.156,1.156,0,0,0,1.157-1.153V519.6H54.608v.857a1.156,1.156,0,0,0,1.157,1.153.577.577,0,1,1,0,1.155,2.313,2.313,0,0,1-2.312-2.308v-.872a1.142,1.142,0,0,1,1.141-1.14h21.9a1.143,1.143,0,0,1,1.143,1.14v.872A2.313,2.313,0,0,1,75.32,522.763Z" transform="translate(-53.453 -518.444)" fill="#4529c7"/>
        </g>
        <g id="Grupo_1098855" data-name="Grupo 1098855" transform="translate(0 26.105)">
          <path id="Trazado_873213" data-name="Trazado 873213" d="M30.189,421.233H1.038A1.037,1.037,0,0,1,0,420.2v-3.538c0-2.116.406-5.073,3.92-6.307l1.64-.575a.577.577,0,0,1,.382,1.09l-1.64.575c-2.206.775-3.147,2.335-3.147,5.217v3.417H30.072v-3.417c0-2.882-.941-4.442-3.148-5.217l-1.64-.575a.577.577,0,0,1,.382-1.09l1.64.575c3.514,1.234,3.92,4.191,3.92,6.307V420.2A1.037,1.037,0,0,1,30.189,421.233Z" transform="translate(0 -409.746)" fill="#4529c7"/>
        </g>
        <g id="Grupo_1098856" data-name="Grupo 1098856" transform="translate(20.194 17.301)">
          <path id="Trazado_873214" data-name="Trazado 873214" d="M357.494,276.293a7.286,7.286,0,0,1-10.433,9.79l-2.028-.095-2.673-.125,1.026-2.466.779-1.871a7.293,7.293,0,0,1,13.329-5.233Z" transform="translate(-342.36 -272.913)" fill="#99edf2" fill-rule="evenodd"/>
        </g>
        <g id="Grupo_1098858" data-name="Grupo 1098858" transform="translate(21.999 16.508)">
          <path id="Trazado_873216" data-name="Trazado 873216" d="M343.152,279.917a7.866,7.866,0,0,1-4.466-1.394l-4.533-.212a.578.578,0,0,1-.506-.8l1.741-4.181a7.872,7.872,0,1,1,14.046,3.463.577.577,0,0,1-.92-.7,6.707,6.707,0,1,0-11.96-2.806.578.578,0,0,1-.034.329L335.03,277.2l3.878.181a.578.578,0,0,1,.311.108,6.7,6.7,0,0,0,7.533.228.577.577,0,1,1,.617.976A7.883,7.883,0,0,1,343.152,279.917Z" transform="translate(-333.603 -264.21)" fill="#4529c7"/>
        </g>
        <g id="Grupo_1098859" data-name="Grupo 1098859" transform="translate(26.737 22.109)">
          <path id="Trazado_873217" data-name="Trazado 873217" d="M407.158,354.1a.577.577,0,0,1-.5-.288l-1.127-1.941a.577.577,0,0,1,.005-.589l1.127-1.864a.577.577,0,1,1,.988.6l-.95,1.572.955,1.645a.577.577,0,0,1-.5.867Z" transform="translate(-405.453 -349.14)" fill="#4529c7"/>
        </g>
        <g id="Grupo_1098860" data-name="Grupo 1098860" transform="translate(30.094 21.906)">
          <path id="Trazado_873218" data-name="Trazado 873218" d="M456.943,351.439a.578.578,0,0,1-.536-.792l1.68-4.207a.578.578,0,0,1,1.073.428l-1.68,4.207A.578.578,0,0,1,456.943,351.439Z" transform="translate(-456.365 -346.077)" fill="#4529c7"/>
        </g>
        <g id="Grupo_1098861" data-name="Grupo 1098861" transform="translate(34.18 22.108)">
          <path id="Trazado_873219" data-name="Trazado 873219" d="M518.91,354.1a.578.578,0,0,1-.5-.868l.955-1.645-.95-1.572a.577.577,0,1,1,.988-.6l1.127,1.864a.577.577,0,0,1,.005.589l-1.127,1.941A.577.577,0,0,1,518.91,354.1Z" transform="translate(-518.333 -349.139)" fill="#4529c7"/>
        </g>
      </g>
    </g>
  </g>
</svg>
