<svg xmlns="http://www.w3.org/2000/svg" width="69.26" height="66.369" viewBox="0 0 69.26 66.369">
  <g id="Layer_16" data-name="Layer 16" transform="translate(-2.49 -3.723)">
    <path id="Trazado_891226" data-name="Trazado 891226" d="M68.229,43.191c1.655-1.737,3.521-3.709,3.521-6.279s-1.866-4.542-3.521-6.279a10.563,10.563,0,0,1-2.347-3.063,10.7,10.7,0,0,1,.07-4.038c.293-2.347.622-4.976-.822-6.972S61.022,14.048,58.7,13.6a10.246,10.246,0,0,1-3.8-1.174,10.4,10.4,0,0,1-2.242-3.216c-1.174-2.089-2.418-4.46-4.824-5.235s-4.695.376-6.807,1.361a10.716,10.716,0,0,1-3.9,1.326,10.716,10.716,0,0,1-3.9-1.326c-2.1-.986-4.5-2.113-6.807-1.361S22.736,7.123,21.6,9.212a10.4,10.4,0,0,1-2.254,3.228,10.246,10.246,0,0,1-3.8,1.174c-2.347.446-4.965.939-6.432,2.958s-1.174,4.636-.822,6.972a10.7,10.7,0,0,1,.07,3.979,10.563,10.563,0,0,1-2.347,3.063C4.356,32.322,2.49,34.294,2.49,36.865s1.866,4.542,3.521,6.279a10.563,10.563,0,0,1,2.347,3.063,10.7,10.7,0,0,1-.07,4.038c-.293,2.347-.622,4.976.822,6.972s4.108,2.512,6.432,2.958a10.246,10.246,0,0,1,3.8,1.174A10.4,10.4,0,0,1,21.6,64.576c1.174,2.089,2.418,4.46,4.824,5.235s4.695-.376,6.807-1.361a10.716,10.716,0,0,1,3.9-1.291,10.716,10.716,0,0,1,3.9,1.326,12.911,12.911,0,0,0,5.211,1.608,4.977,4.977,0,0,0,1.6-.246c2.406-.775,3.685-3.146,4.824-5.235a10.4,10.4,0,0,1,2.253-3.228,10.247,10.247,0,0,1,3.8-1.174c2.347-.446,4.965-.939,6.432-2.958s1.174-4.695.822-6.972a10.7,10.7,0,0,1-.07-3.979,10.563,10.563,0,0,1,2.336-3.11Z" fill="#f1c40f"/>
    <path id="Trazado_891227" data-name="Trazado 891227" d="M37.754,15.919A6.526,6.526,0,0,0,26.463,20.86l1.514,19.1a5,5,0,0,0,9.976,0l1.514-19.1a6.549,6.549,0,0,0-1.714-4.941Z" transform="translate(4.161 1.756)" fill="#d8e1ef"/>
    <circle id="Elipse_11929" data-name="Elipse 11929" cx="4.753" cy="4.753" r="4.753" transform="translate(32.372 48.731)" fill="#d8e1ef"/>
    <path id="Trazado_891228" data-name="Trazado 891228" d="M68.229,43.191c1.655-1.737,3.521-3.709,3.521-6.279s-1.866-4.542-3.521-6.279a10.563,10.563,0,0,1-2.347-3.063,10.7,10.7,0,0,1,.07-4.038c.293-2.347.622-4.976-.822-6.972S61.022,14.048,58.7,13.6a10.246,10.246,0,0,1-3.8-1.174,10.4,10.4,0,0,1-2.242-3.216c-1.174-2.089-2.418-4.46-4.824-5.235s-4.695.376-6.807,1.361a10.716,10.716,0,0,1-3.9,1.326,10.716,10.716,0,0,1-3.9-1.326c-2.1-.986-4.5-2.113-6.807-1.361S22.736,7.123,21.6,9.212a10.4,10.4,0,0,1-2.254,3.228,10.246,10.246,0,0,1-3.8,1.174c-2.347.446-4.965.939-6.432,2.958s-1.174,4.636-.822,6.972a10.7,10.7,0,0,1,.07,3.979,10.563,10.563,0,0,1-2.347,3.063C4.356,32.322,2.49,34.294,2.49,36.865s1.866,4.542,3.521,6.279a10.563,10.563,0,0,1,2.347,3.063,10.7,10.7,0,0,1-.07,4.038c-.293,2.347-.622,4.976.822,6.972s4.108,2.512,6.432,2.958a10.246,10.246,0,0,1,3.8,1.174A10.4,10.4,0,0,1,21.6,64.576c1.174,2.089,2.418,4.46,4.824,5.235s4.695-.376,6.807-1.361a10.716,10.716,0,0,1,3.9-1.291,10.716,10.716,0,0,1,3.9,1.326,12.911,12.911,0,0,0,5.211,1.608,4.977,4.977,0,0,0,1.6-.246c2.406-.775,3.685-3.146,4.824-5.235a10.4,10.4,0,0,1,2.253-3.228,10.247,10.247,0,0,1,3.8-1.174c2.347-.446,4.965-.939,6.432-2.958s1.174-4.695.822-6.972a10.7,10.7,0,0,1-.07-3.979,10.563,10.563,0,0,1,2.336-3.11ZM65.67,40.773a12.418,12.418,0,0,0-3.122,4.354,13.052,13.052,0,0,0-.082,5.563c.223,1.761.458,3.592-.176,4.46s-2.465,1.232-4.225,1.561a12.664,12.664,0,0,0-5.235,1.772,12.688,12.688,0,0,0-3.263,4.39c-.869,1.6-1.761,3.228-2.829,3.58S44.109,66,42.525,65.28a13.181,13.181,0,0,0-5.4-1.643,13.181,13.181,0,0,0-5.4,1.655c-1.584.751-3.228,1.526-4.214,1.174s-1.96-1.984-2.829-3.58a12.688,12.688,0,0,0-3.263-4.39,12.664,12.664,0,0,0-5.235-1.772c-1.761-.329-3.58-.681-4.225-1.561s-.4-2.7-.176-4.46a13.052,13.052,0,0,0-.082-5.575,12.418,12.418,0,0,0-3.122-4.4c-1.256-1.279-2.559-2.641-2.559-3.815s1.3-2.535,2.559-3.861A12.418,12.418,0,0,0,11.7,28.7a13.052,13.052,0,0,0,.082-5.563c-.223-1.761-.458-3.592.176-4.46s2.465-1.232,4.225-1.561a12.664,12.664,0,0,0,5.235-1.772A12.688,12.688,0,0,0,24.685,10.9c.869-1.6,1.761-3.228,2.829-3.521s2.629.458,4.214,1.174a13.181,13.181,0,0,0,5.4,1.631,13.181,13.181,0,0,0,5.4-1.655c1.584-.751,3.228-1.526,4.214-1.174s1.96,1.984,2.829,3.58a12.688,12.688,0,0,0,3.263,4.39A12.664,12.664,0,0,0,58.065,17.1c1.761.329,3.521.681,4.225,1.561s.4,2.7.176,4.46a13.052,13.052,0,0,0,.082,5.575,12.418,12.418,0,0,0,3.122,4.4c1.256,1.279,2.559,2.641,2.559,3.815S66.926,39.447,65.67,40.773Z"/>
    <path id="Trazado_891229" data-name="Trazado 891229" d="M32.965,13.83a6.514,6.514,0,0,0-6.5,7.042l1.514,19.1a5,5,0,0,0,9.976,0l1.514-19.1a6.514,6.514,0,0,0-6.5-7.042Zm1.479,25.821a1.479,1.479,0,0,1-2.958,0L29.973,20.591a3,3,0,1,1,5.986,0Z" transform="translate(4.16 1.756)"/>
    <path id="Trazado_891230" data-name="Trazado 891230" d="M32.716,42.06a4.765,4.765,0,1,0,4.695,4.765,4.765,4.765,0,0,0-4.695-4.765Zm0,6a1.244,1.244,0,1,1,1.174-1.232,1.174,1.174,0,0,1-1.174,1.232Z" transform="translate(4.41 6.659)"/>
  </g>
</svg>
