<svg xmlns="http://www.w3.org/2000/svg" width="400" height="121" viewBox="0 0 400 121">
  <g id="Grupo_1105006" data-name="Grupo 1105006" transform="translate(-1020 -4027.74)">
    <rect id="Rect치ngulo_405218" data-name="Rect치ngulo 405218" width="400" height="121" rx="10" transform="translate(1020 4027.74)" fill="#0b47db"/>
    <g id="algoritmos_1_" data-name="algoritmos (1)" transform="translate(1169.493 4035.028)">
      <path id="Trazado_890526" data-name="Trazado 890526" d="M82.729,157.309V141.753a14.068,14.068,0,0,1,1.552-6.385c3.611-7.089,7.549-21.266,7.839-28.593,1.144-28.94-17.685-43.895-40.179-43.894-18.47,0-34.064,7.8-33.04,34.03.117,3-3.588,10.968-12.764,27.91-.494.912.415,1.991,1.469,1.991h11.2C19.07,137.5,16.224,146.2,37.155,143.39v13.919" transform="translate(-4.847 -50.887)" fill="#3f8fd5"/>
      <path id="Trazado_890527" data-name="Trazado 890527" d="M79.027,152.452H76.738V136.9a15.293,15.293,0,0,1,1.676-6.9c3.613-7.094,7.435-21.022,7.715-28.119.512-12.961-3.08-23.83-10.389-31.434-6.986-7.268-17.16-11.271-28.647-11.271-11.006,0-19.288,2.809-24.616,8.349-5.252,5.461-7.7,13.7-7.281,24.492.126,3.222-3.25,10.68-12.9,28.5a.524.524,0,0,0,.462.3H15.075l.028,1.116c.031,1.267.019,2.5.009,3.686-.043,4.6-.078,8.23,2.239,10.276s7.156,2.537,14.806,1.51l1.3-.174v15.227H31.164V139.829c-7.71.9-12.6.185-15.328-2.226-3.1-2.738-3.06-7.036-3.013-12.013.008-.814.015-1.647.009-2.492H2.758a2.847,2.847,0,0,1-2.4-1.366,2.324,2.324,0,0,1-.072-2.314C6.917,107.169,13.038,95.381,12.91,92.1c-.446-11.436,2.218-20.241,7.918-26.168,5.776-6.006,14.613-9.051,26.266-9.051,12.115,0,22.874,4.252,30.3,11.973,7.751,8.063,11.563,19.513,11.026,33.11-.29,7.35-4.234,21.747-7.963,29.067a13,13,0,0,0-1.427,5.865Z" transform="translate(0 -46.03)"/>
      <path id="Trazado_890528" data-name="Trazado 890528" d="M132.452,109.611H89.663c-6.3,0-12.529-5.2-13.6-11.409-4.12-23.9,12.235-35.594,27.327-35.594l4.73.052c17.125,0,39.311,13.831,39.311,30.955v1.017a14.979,14.979,0,0,1-14.979,14.979Z" transform="translate(-61.026 -50.666)" fill="#fdc00f"/>
      <path id="Trazado_890529" data-name="Trazado 890529" d="M127.59,105.9H84.8A15.6,15.6,0,0,1,70.073,93.541c-2.338-13.559,1.939-22.065,5.939-26.813A29.619,29.619,0,0,1,98.528,56.609l4.743.052c8.763,0,18.763,3.467,26.738,9.275A37.683,37.683,0,0,1,139.8,76.087a23.5,23.5,0,0,1,3.912,12.673v1.017A16.142,16.142,0,0,1,127.59,105.9Zm-29.075-47A27.3,27.3,0,0,0,77.762,68.2c-5.287,6.276-7.166,14.9-5.434,24.95A13.276,13.276,0,0,0,84.8,103.612H127.59a13.85,13.85,0,0,0,13.835-13.835V88.76c0-7.532-4.533-14.98-12.763-20.974-7.6-5.533-17.094-8.836-25.4-8.836Z" transform="translate(-56.163 -45.812)"/>
      <path id="Trazado_890530" data-name="Trazado 890530" d="M192.669,238.421H169.693a9.03,9.03,0,0,1,0-18.06h17.282v2.289H169.693a6.741,6.741,0,0,0,0,13.482h22.976Z" transform="translate(-130.013 -178.332)"/>
      <rect id="Rect치ngulo_405219" data-name="Rect치ngulo 405219" width="16.725" height="2.289" transform="translate(40.534 49.914)"/>
      <path id="Trazado_890531" data-name="Trazado 890531" d="M121.7,144.671a7.417,7.417,0,0,1,8.583-9.235l-.442,2.246a5.128,5.128,0,0,0-5.934,6.384Z" transform="translate(-98.272 -109.491)"/>
      <path id="Trazado_890532" data-name="Trazado 890532" d="M343.01,261.138a7.418,7.418,0,0,1-1.534-12.515l1.433,1.785a5.129,5.129,0,0,0,1.059,8.652Z" transform="translate(-274.098 -201.204)"/>
      <path id="Trazado_890533" data-name="Trazado 890533" d="M96.821,136.407a5,5,0,0,0-6.849-1.774l-1.161-1.972a7.292,7.292,0,0,1,9.982,2.586Z" transform="translate(-71.865 -106.542)"/>
      <path id="Trazado_890534" data-name="Trazado 890534" d="M212.532,101.73a5.129,5.129,0,0,0-8.705-.439l-1.883-1.3a7.418,7.418,0,0,1,12.592.635Z" transform="translate(-163.421 -78.332)"/>
      <path id="Trazado_890535" data-name="Trazado 890535" d="M217.658,66.261,215.5,65.5a5,5,0,0,0-3.045-6.386l.764-2.157a7.291,7.291,0,0,1,4.438,9.307Z" transform="translate(-171.928 -46.09)"/>
      <path id="Trazado_890536" data-name="Trazado 890536" d="M104.836,215.219a7.417,7.417,0,0,1,5.621-11.286l.21,2.279a5.129,5.129,0,0,0-3.886,7.8Z" transform="translate(-83.937 -165.037)"/>
      <path id="Trazado_890537" data-name="Trazado 890537" d="M172.159,164.938a7.386,7.386,0,0,1-3.819-1.06l1.182-1.96a5.129,5.129,0,0,0,7.755-3.979l2.281.184a7.414,7.414,0,0,1-7.4,6.815Z" transform="translate(-136.226 -127.815)"/>
      <path id="Trazado_890538" data-name="Trazado 890538" d="M310.429,27.83l-.458-.054-4.344-.507a20.632,20.632,0,0,0-1.262-4.162l3.335-2.83.354-.3a25.034,25.034,0,0,0-2.578-4.152l-.426.182-4.015,1.73a19.3,19.3,0,0,0-3.176-2.963l1.467-4.134.155-.436q-1-.668-2.077-1.25-1.1-.583-2.224-1.049l-.277.372-2.621,3.515a20.606,20.606,0,0,0-4.222-1L287.277,6.5l-.083-.455a25.084,25.084,0,0,0-4.893.168l-.054.459-.5,4.339a19.845,19.845,0,0,0-4.168,1.259l-2.825-3.326-.3-.354a25.241,25.241,0,0,0-4.161,2.578l.184.426,1.727,3.993a20.624,20.624,0,0,0-2.965,3.188l-4.121-1.469-.437-.155c-.449.672-.869,1.369-1.26,2.1a23.68,23.68,0,0,0-1.055,2.21l.37.275,3.523,2.617a21.479,21.479,0,0,0-.633,2.168,20.825,20.825,0,0,0-.354,2.056l-4.305.792-.453.083a24.935,24.935,0,0,0,.163,4.878l.459.054,4.34.511a20.5,20.5,0,0,0,1.26,4.167l-3.327,2.824-.352.3a24.99,24.99,0,0,0,2.582,4.156l.422-.182,4.005-1.727a21.375,21.375,0,0,0,3.171,2.96L271.777,51.5l-.155.436q1.011.673,2.1,1.258t2.218,1.051l.275-.37,2.6-3.494a20.745,20.745,0,0,0,4.226.987l.792,4.295.085.453a24.755,24.755,0,0,0,4.876-.159l.054-.458.515-4.345a21.346,21.346,0,0,0,4.158-1.252l2.832,3.327a24.2,24.2,0,0,0,4.268-2.648l-1.736-4.02a19.83,19.83,0,0,0,2.975-3.176l4.117,1.463.437.155q.673-1.011,1.258-2.11c.385-.722.728-1.458,1.036-2.2l-.37-.275-3.485-2.6a20.709,20.709,0,0,0,.614-2.143c.163-.7.279-1.4.374-2.092l4.291-.786.451-.083a24.812,24.812,0,0,0-.158-4.882Z" transform="translate(-210.78 -4.852)" fill="#d22732"/>
      <path id="Trazado_890539" data-name="Trazado 890539" d="M280.7,52.464q-.854,0-1.708-.056a1.144,1.144,0,0,1-1.049-.931l-.729-3.945a21.94,21.94,0,0,1-2.823-.657l-2.384,3.2a1.144,1.144,0,0,1-1.357.375c-.774-.321-1.554-.69-2.319-1.1-.746-.4-1.485-.841-2.2-1.315a1.144,1.144,0,0,1-.444-1.335l1.344-3.774a22.576,22.576,0,0,1-2.115-1.976l-3.677,1.584a1.144,1.144,0,0,1-1.362-.354,26.2,26.2,0,0,1-2.7-4.347,1.144,1.144,0,0,1,.284-1.377l3.054-2.594a21.769,21.769,0,0,1-.845-2.786l-3.981-.468a1.144,1.144,0,0,1-1-.986,26.15,26.15,0,0,1-.172-5.1,1.144,1.144,0,0,1,.936-1.052l3.945-.725c.07-.432.155-.875.255-1.327.114-.492.248-.984.406-1.494l-3.231-2.4a1.144,1.144,0,0,1-.374-1.356,24.974,24.974,0,0,1,1.106-2.316c.4-.744.842-1.481,1.314-2.188a1.144,1.144,0,0,1,1.335-.443l3.779,1.347a21.9,21.9,0,0,1,1.985-2.128l-1.587-3.669a1.144,1.144,0,0,1,.356-1.363A26.456,26.456,0,0,1,269.1,2.714,1.144,1.144,0,0,1,270.476,3l2.589,3.05a21.045,21.045,0,0,1,2.788-.843l.46-3.977a1.144,1.144,0,0,1,.986-1,26.3,26.3,0,0,1,5.116-.175,1.144,1.144,0,0,1,1.054.937l.718,3.939A21.88,21.88,0,0,1,287,5.6l2.4-3.225A1.144,1.144,0,0,1,290.765,2c.788.326,1.57.695,2.325,1.1.733.394,1.464.833,2.174,1.308a1.144,1.144,0,0,1,.443,1.335l-1.345,3.789a20.574,20.574,0,0,1,2.124,1.984l3.688-1.587a1.144,1.144,0,0,1,1.358.356,26.236,26.236,0,0,1,2.7,4.342A1.144,1.144,0,0,1,303.941,16l-3.06,2.6a21.717,21.717,0,0,1,.843,2.782l3.986.465a1.144,1.144,0,0,1,1,.988,26.012,26.012,0,0,1,.164,5.107,1.144,1.144,0,0,1-.935,1.049L302,29.707c-.082.5-.171.948-.271,1.375-.118.508-.246.99-.387,1.455l3.2,2.385a1.144,1.144,0,0,1,.375,1.356c-.332.8-.7,1.577-1.084,2.3-.4.757-.845,1.5-1.315,2.207a1.144,1.144,0,0,1-1.336.444l-3.774-1.341a21.144,21.144,0,0,1-1.994,2.123l1.409,3.264a1.144,1.144,0,0,1-.35,1.358A25.392,25.392,0,0,1,292,49.41a1.144,1.144,0,0,1-1.371-.288l-2.3-2.705a22.689,22.689,0,0,1-2.776.839l-.472,3.985a1.144,1.144,0,0,1-.986,1A25.909,25.909,0,0,1,280.7,52.464Zm-.673-2.3a23.876,23.876,0,0,0,2.886-.094l.463-3.9a1.144,1.144,0,0,1,.924-.99A20.3,20.3,0,0,0,288.238,44a1.144,1.144,0,0,1,1.306.317l2.247,2.639a23.112,23.112,0,0,0,2.573-1.6l-1.377-3.189a1.144,1.144,0,0,1,.3-1.319,18.757,18.757,0,0,0,2.8-2.992,1.144,1.144,0,0,1,1.3-.4l3.7,1.313c.253-.413.494-.836.722-1.264s.434-.846.636-1.29l-3.13-2.337a1.144,1.144,0,0,1-.4-1.294,19.487,19.487,0,0,0,.58-2.025c.136-.579.249-1.21.355-1.988a1.144,1.144,0,0,1,.927-.97l3.849-.706a23.82,23.82,0,0,0-.094-2.89l-3.9-.455a1.144,1.144,0,0,1-.992-.922,19.405,19.405,0,0,0-1.191-3.931,1.144,1.144,0,0,1,.313-1.319l2.994-2.541a23.991,23.991,0,0,0-1.526-2.459l-3.605,1.554a1.144,1.144,0,0,1-1.32-.305,18.24,18.24,0,0,0-2.988-2.788,1.144,1.144,0,0,1-.4-1.3l1.318-3.715c-.41-.253-.823-.492-1.236-.714s-.864-.443-1.307-.645l-2.356,3.16a1.144,1.144,0,0,1-1.3.4,19.538,19.538,0,0,0-3.99-.943,1.144,1.144,0,0,1-.98-.93l-.7-3.849a24.094,24.094,0,0,0-2.9.1l-.45,3.895a1.144,1.144,0,0,1-.928.994,18.676,18.676,0,0,0-3.928,1.187,1.144,1.144,0,0,1-1.322-.312l-2.535-2.987A24.284,24.284,0,0,0,266.854,6.7l1.55,3.582a1.144,1.144,0,0,1-.295,1.314,19.542,19.542,0,0,0-2.8,3.01,1.143,1.143,0,0,1-1.3.4l-3.7-1.319c-.254.413-.5.833-.725,1.256s-.448.86-.648,1.293l3.162,2.348a1.144,1.144,0,0,1,.4,1.293,20.366,20.366,0,0,0-.6,2.053c-.147.665-.26,1.319-.332,1.931a1.144,1.144,0,0,1-.929.992l-3.864.711a23.933,23.933,0,0,0,.1,2.886l3.9.459a1.144,1.144,0,0,1,.992.927,19.446,19.446,0,0,0,1.19,3.934,1.144,1.144,0,0,1-.315,1.314l-2.985,2.534a23.949,23.949,0,0,0,1.53,2.463l3.593-1.549a1.144,1.144,0,0,1,1.314.3,20.231,20.231,0,0,0,3,2.8,1.144,1.144,0,0,1,.387,1.3l-1.315,3.689c.414.254.835.5,1.258.722s.867.447,1.3.648l2.333-3.135a1.144,1.144,0,0,1,1.3-.4,19.626,19.626,0,0,0,3.993.932,1.144,1.144,0,0,1,.981.928Z" transform="translate(-205.927 0)"/>
      <path id="Trazado_890540" data-name="Trazado 890540" d="M339.033,65.556a14.076,14.076,0,0,0-19.017,5.762,13.409,13.409,0,0,0-1.307,3.5,14.041,14.041,0,0,0,26.074,9.734,14.4,14.4,0,0,0,1.3-3.452A14.047,14.047,0,0,0,339.033,65.556Z" transform="translate(-257.631 -51.713)" fill="#b22732"/>
      <path id="Trazado_890541" data-name="Trazado 890541" d="M327.563,88.326a15.211,15.211,0,0,1-14.8-18.567,14.532,14.532,0,0,1,1.416-3.79A15.253,15.253,0,0,1,334.74,59.74l.005,0a15.219,15.219,0,0,1,7.617,16.812,15.514,15.514,0,0,1-1.4,3.728A15.054,15.054,0,0,1,332,87.663,15.229,15.229,0,0,1,327.563,88.326Zm.052-28.077a12.955,12.955,0,0,0-11.422,6.805,12.27,12.27,0,0,0-1.2,3.2,12.9,12.9,0,0,0,23.946,8.952,13.21,13.21,0,0,0,1.192-3.175,12.856,12.856,0,0,0-12.519-15.786Z" transform="translate(-252.8 -46.906)"/>
      <path id="Trazado_890542" data-name="Trazado 890542" d="M372.215,110.643a5.254,5.254,0,0,0-7.1,2.151,5.006,5.006,0,0,0-.488,1.307,5.242,5.242,0,0,0,9.734,3.634,5.372,5.372,0,0,0,.484-1.289A5.243,5.243,0,0,0,372.215,110.643Z" transform="translate(-294.97 -89.04)" fill="#d1d3d4"/>
      <path id="Trazado_890543" data-name="Trazado 890543" d="M364.888,116.818a6.4,6.4,0,0,1-6.224-7.808,6.129,6.129,0,0,1,.6-1.6A6.413,6.413,0,0,1,367.9,104.8l.005,0a6.4,6.4,0,0,1,3.2,7.071,6.5,6.5,0,0,1-.587,1.564,6.332,6.332,0,0,1-3.773,3.106A6.4,6.4,0,0,1,364.888,116.818Zm.019-10.482a4.117,4.117,0,0,0-3.63,2.163,3.86,3.86,0,0,0-.378,1.011,4.1,4.1,0,0,0,5.188,4.84,4.057,4.057,0,0,0,2.417-1.989,4.2,4.2,0,0,0,.379-1.011,4.083,4.083,0,0,0-3.977-5.013Z" transform="translate(-290.123 -84.203)"/>
    </g>
    <g id="algoritmo_10_" data-name="algoritmo (10)" transform="translate(1057.074 4046.92)">
      <path id="Trazado_890544" data-name="Trazado 890544" d="M64.95,8.642a4.106,4.106,0,0,0-1.3-.879c-1-.425-.655-.322-10.554-.322-44.947,0-41.656-.163-42.8.322A4.117,4.117,0,0,0,8.377,9.415a4.192,4.192,0,0,0-.594,2.126c0,61.472-.2,56.693.7,58.024a4.1,4.1,0,0,0,3.4,1.808H62.05A4.1,4.1,0,0,0,65.557,69.4a4.192,4.192,0,0,0,.594-2.126V11.541A4.749,4.749,0,0,0,64.95,8.642Z" transform="translate(-6.148 -6.13)" fill="#d6e1fd"/>
      <path id="Trazado_890545" data-name="Trazado 890545" d="M13.59,69.6A4.193,4.193,0,0,1,13,67.47V11.738A4.1,4.1,0,0,1,15.942,7.8v-.3c-4.2,0-4.632-.11-5.654.322A4.116,4.116,0,0,0,8.377,9.482a4.192,4.192,0,0,0-.594,2.126c0,61.472-.2,56.693.7,58.024a4.1,4.1,0,0,0,3.4,1.808H16.07A4.1,4.1,0,0,1,14.2,70.37,4.138,4.138,0,0,1,13.59,69.6Z" transform="translate(-6.148 -6.198)" fill="#aec4fa"/>
      <path id="Trazado_890546" data-name="Trazado 890546" d="M66.241,18.651c0-7.133.359-8.323-1.2-9.883a4.088,4.088,0,0,0-2.9-1.2H11.974A4.1,4.1,0,0,0,8.468,9.541a4.193,4.193,0,0,0-.594,2.126v6.983Z" transform="translate(-6.239 -6.257)" fill="#666"/>
      <path id="Trazado_890547" data-name="Trazado 890547" d="M13.12,11.668a4.1,4.1,0,0,1,4.1-4.1H11.974a4.1,4.1,0,0,0-4.1,4.1v6.983H13.12Z" transform="translate(-6.239 -6.257)" fill="#535454"/>
      <g id="Grupo_1105004" data-name="Grupo 1105004" transform="translate(50.516 17.849)">
        <path id="Trazado_890548" data-name="Trazado 890548" d="M307.248,103.079H292.057a1.9,1.9,0,0,0-1.891,1.891v6.195a1.9,1.9,0,0,0,1.891,1.891h15.191a1.9,1.9,0,0,0,1.892-1.891V104.97A1.9,1.9,0,0,0,307.248,103.079Z" transform="translate(-290.166 -103.079)" fill="#52a5d8"/>
        <path id="Trazado_890549" data-name="Trazado 890549" d="M411.743,347.978H396.552a1.9,1.9,0,0,0-1.891,1.891v6.194a1.9,1.9,0,0,0,1.891,1.891h15.191a1.9,1.9,0,0,0,1.891-1.891V349.87A1.9,1.9,0,0,0,411.743,347.978Z" transform="translate(-376.567 -305.572)" fill="#52a5d8"/>
      </g>
      <path id="Trazado_890550" data-name="Trazado 890550" d="M307.248,446.964H292.057a1.9,1.9,0,0,0-1.891,1.891v6.195a1.9,1.9,0,0,0,1.891,1.891h15.191a1.9,1.9,0,0,0,1.891-1.891v-6.195A1.9,1.9,0,0,0,307.248,446.964Z" transform="translate(-239.65 -369.57)" fill="#92b620"/>
      <path id="Trazado_890551" data-name="Trazado 890551" d="M202.752,347.978H187.561a1.9,1.9,0,0,0-1.891,1.891v6.194a1.9,1.9,0,0,0,1.891,1.891h15.191a1.9,1.9,0,0,0,1.891-1.891V349.87A1.9,1.9,0,0,0,202.752,347.978Z" transform="translate(-153.248 -287.724)" fill="#52a5d8"/>
      <g id="Grupo_1105005" data-name="Grupo 1105005" transform="translate(50.516 17.849)">
        <path id="Trazado_890552" data-name="Trazado 890552" d="M295.354,111.165V104.97a1.9,1.9,0,0,1,1.891-1.891h-5.188a1.9,1.9,0,0,0-1.891,1.891v6.195a1.9,1.9,0,0,0,1.891,1.891h5.188A1.9,1.9,0,0,1,295.354,111.165Z" transform="translate(-290.166 -103.079)" fill="#3094c6"/>
        <path id="Trazado_890553" data-name="Trazado 890553" d="M399.849,356.065V349.87a1.9,1.9,0,0,1,1.891-1.891h-5.188a1.9,1.9,0,0,0-1.891,1.891v6.194a1.9,1.9,0,0,0,1.891,1.891h5.188A1.9,1.9,0,0,1,399.849,356.065Z" transform="translate(-376.567 -305.573)" fill="#3094c6"/>
      </g>
      <path id="Trazado_890554" data-name="Trazado 890554" d="M295.354,455.05v-6.195a1.9,1.9,0,0,1,1.891-1.891h-5.188a1.9,1.9,0,0,0-1.891,1.891v6.195a1.9,1.9,0,0,0,1.891,1.891h5.188A1.9,1.9,0,0,1,295.354,455.05Z" transform="translate(-239.65 -369.57)" fill="#89a511"/>
      <path id="Trazado_890555" data-name="Trazado 890555" d="M190.858,356.065V349.87a1.9,1.9,0,0,1,1.891-1.891h-5.188a1.9,1.9,0,0,0-1.891,1.891v6.194a1.9,1.9,0,0,0,1.891,1.891h5.188A1.9,1.9,0,0,1,190.858,356.065Z" transform="translate(-153.248 -287.725)" fill="#3094c6"/>
      <path id="Trazado_890556" data-name="Trazado 890556" d="M267.612,231.613l-14.666,6.611a1.409,1.409,0,0,0,0,2.568l14.666,6.611a1.409,1.409,0,0,0,1.158,0l14.667-6.611a1.409,1.409,0,0,0,0-2.568l-14.667-6.611A1.409,1.409,0,0,0,267.612,231.613Z" transform="translate(-208.189 -191.405)" fill="#ffb70d"/>
      <path id="Trazado_890557" data-name="Trazado 890557" d="M258.473,260.3a1.77,1.77,0,0,1-1.054-1.553l-4.472,2.016a1.409,1.409,0,0,0,0,2.568l14.666,6.611a1.409,1.409,0,0,0,1.158,0l5.547-2.5Z" transform="translate(-208.19 -213.942)" fill="#f4a403"/>
      <path id="Trazado_890558" data-name="Trazado 890558" d="M36.939,32.581a1.28,1.28,0,0,0-.161-.2,1.243,1.243,0,0,0-.2-.161,1.336,1.336,0,0,0-.467-.194,1.248,1.248,0,0,0-.507,0,1.378,1.378,0,0,0-.244.074,1.317,1.317,0,0,0-.42.28A1.3,1.3,0,0,0,35.86,34.6a1.405,1.405,0,0,0,.254-.024,1.318,1.318,0,0,0,.242-.074,1.4,1.4,0,0,0,.225-.119,1.479,1.479,0,0,0,.2-.161,1.368,1.368,0,0,0,.161-.2,1.389,1.389,0,0,0,.119-.225,1.287,1.287,0,0,0,.073-.242,1.254,1.254,0,0,0,.026-.254,1.237,1.237,0,0,0-.026-.252,1.372,1.372,0,0,0-.073-.244A1.4,1.4,0,0,0,36.939,32.581Z" transform="translate(-28.306 -26.462)"/>
      <path id="Trazado_890559" data-name="Trazado 890559" d="M62.026,32.581a1.177,1.177,0,0,0-.161-.2,1.322,1.322,0,0,0-.42-.28,1.344,1.344,0,0,0-.244-.074,1.249,1.249,0,0,0-.507,0,1.32,1.32,0,0,0-.242.074,1.272,1.272,0,0,0-.583.477,1.374,1.374,0,0,0-.119.223,1.358,1.358,0,0,0-.1.5,1.313,1.313,0,0,0,.379.918,1.481,1.481,0,0,0,.2.161,1.4,1.4,0,0,0,.225.119,1.294,1.294,0,0,0,.242.074,1.39,1.39,0,0,0,.254.024,1.29,1.29,0,0,0,.719-.218,1.492,1.492,0,0,0,.2-.161,1.307,1.307,0,0,0,.38-.918,1.249,1.249,0,0,0-.026-.252,1.378,1.378,0,0,0-.074-.244A1.246,1.246,0,0,0,62.026,32.581Z" transform="translate(-49.051 -26.462)"/>
      <path id="Trazado_890560" data-name="Trazado 890560" d="M87.106,32.587a1.377,1.377,0,0,0-.161-.2,1.252,1.252,0,0,0-.2-.161,1.337,1.337,0,0,0-.467-.194,1.314,1.314,0,0,0-.507,0,1.382,1.382,0,0,0-.244.074,1.205,1.205,0,0,0-.223.119,1.184,1.184,0,0,0-.2.161,1.269,1.269,0,0,0-.162.2,1.38,1.38,0,0,0-.118.223,1.318,1.318,0,0,0-.1.5,1.266,1.266,0,0,0,.026.254,1.2,1.2,0,0,0,.074.242,1.282,1.282,0,0,0,.28.422,1.377,1.377,0,0,0,.2.161,1.325,1.325,0,0,0,.223.119,1.354,1.354,0,0,0,.244.074,1.372,1.372,0,0,0,.252.024,1.407,1.407,0,0,0,.254-.024,1.32,1.32,0,0,0,.242-.074,1.39,1.39,0,0,0,.225-.119,1.493,1.493,0,0,0,.2-.161,1.4,1.4,0,0,0,.161-.2,1.306,1.306,0,0,0,.119-.223,1.286,1.286,0,0,0,.073-.242,1.266,1.266,0,0,0,.026-.254,1.249,1.249,0,0,0-.026-.252,1.371,1.371,0,0,0-.073-.244A1.354,1.354,0,0,0,87.106,32.587Z" transform="translate(-69.786 -26.468)"/>
      <path id="Trazado_890561" data-name="Trazado 890561" d="M116.84,32.006a1.3,1.3,0,1,0,0,2.594h21.673a1.3,1.3,0,1,0,0-2.594Z" transform="translate(-95.264 -26.464)"/>
      <path id="Trazado_890562" data-name="Trazado 890562" d="M270.161,33.3a1.3,1.3,0,0,0,1.3,1.3h2.981a1.3,1.3,0,1,0,0-2.594h-2.981A1.3,1.3,0,0,0,270.161,33.3Z" transform="translate(-223.109 -26.464)"/>
      <path id="Trazado_890563" data-name="Trazado 890563" d="M343.508,125.62a1.3,1.3,0,0,0-1.3-1.3h-4.65a1.3,1.3,0,1,0,0,2.594h4.65A1.3,1.3,0,0,0,343.508,125.62Z" transform="translate(-277.766 -102.796)"/>
      <path id="Trazado_890564" data-name="Trazado 890564" d="M314.2,125.125a1.211,1.211,0,0,0-.119-.223,1.264,1.264,0,0,0-.358-.358,1.264,1.264,0,0,0-.223-.119,1.349,1.349,0,0,0-.244-.074,1.28,1.28,0,0,0-.507,0,1.316,1.316,0,0,0-.242.074,1.277,1.277,0,0,0-.225.119,1.25,1.25,0,0,0-.2.161,1.3,1.3,0,0,0,0,1.833,1.358,1.358,0,0,0,.2.163,1.411,1.411,0,0,0,.225.119,1.286,1.286,0,0,0,.242.073,1.267,1.267,0,0,0,.254.026,1.237,1.237,0,0,0,.252-.026,1.258,1.258,0,0,0,.467-.192,1.279,1.279,0,0,0,.2-.163,1.3,1.3,0,0,0,.38-.917,1.251,1.251,0,0,0-.026-.252A1.359,1.359,0,0,0,314.2,125.125Z" transform="translate(-257.459 -102.797)"/>
      <path id="Trazado_890565" data-name="Trazado 890565" d="M85.683,58.944h-6.3c-.005-11.358.267-11.571-.764-12.037l-7.326-3.3a1.3,1.3,0,1,0-1.066,2.365l4.7,2.12L59.993,54.823,45.055,48.09l14.938-6.733,4.714,2.125a1.3,1.3,0,1,0,1.066-2.365L61.29,39.1V29.11h6.3a3.192,3.192,0,0,0,3.188-3.188V19.727a3.192,3.192,0,0,0-3.188-3.189h-6.3V5.4a5.4,5.4,0,0,0-5.4-5.4H52.708a1.3,1.3,0,0,0,0,2.594h3.184a2.8,2.8,0,0,1,2.8,2.8v5.686H2.923V5.4a2.8,2.8,0,0,1,2.8-2.8H46.655a1.3,1.3,0,0,0,0-2.594H5.727a5.4,5.4,0,0,0-5.4,5.4V61.129a5.4,5.4,0,0,0,5.4,5.4h5.306a1.3,1.3,0,0,0,0-2.594H5.727a2.8,2.8,0,0,1-2.8-2.8V13.678H58.7v2.86H52.4a3.192,3.192,0,0,0-3.188,3.189v6.194h0A3.19,3.19,0,0,0,52.4,29.11h6.3V39.1c-18.684,8.422-17.5,7.824-17.783,8.153-.545.639-.207.335-.311,11.7H34.3a3.192,3.192,0,0,0-3.189,3.189v1.8H17.086a1.3,1.3,0,0,0,0,2.594H31.115v1.8A3.192,3.192,0,0,0,34.3,71.516h6.3v8.963a3.192,3.192,0,0,0,3.188,3.189H49.21v1.8A3.192,3.192,0,0,0,52.4,88.656H67.589a3.192,3.192,0,0,0,3.188-3.189v-1.8H76.2a3.192,3.192,0,0,0,3.188-3.189V71.516h6.3a3.192,3.192,0,0,0,3.188-3.189V62.133A3.193,3.193,0,0,0,85.683,58.944ZM52.4,26.516a.6.6,0,0,1-.594-.594V19.727a.6.6,0,0,1,.594-.594H67.589a.6.6,0,0,1,.594.594v6.195a.6.6,0,0,1-.594.594H52.4ZM43.2,50.1c9.678,4.337,13.694,6.231,15.5,6.993V61.36a2.576,2.576,0,0,1-2.573,2.573H52.683v-1.8a3.192,3.192,0,0,0-3.188-3.189H43.2ZM34.3,68.922a.6.6,0,0,1-.594-.594V62.133a.6.6,0,0,1,.594-.594H49.495a.6.6,0,0,1,.594.594v6.194a.6.6,0,0,1-.594.594H34.3ZM68.183,85.467a.6.6,0,0,1-.594.594H52.4a.6.6,0,0,1-.594-.594V79.272a.6.6,0,0,1,.594-.594H67.589a.6.6,0,0,1,.594.594v6.194Zm8.607-4.988a.6.6,0,0,1-.594.594H70.777v-1.8a3.192,3.192,0,0,0-3.188-3.188H52.4a3.192,3.192,0,0,0-3.188,3.188v1.8H43.79a.6.6,0,0,1-.594-.594V71.516h6.3a3.192,3.192,0,0,0,3.188-3.189v-1.8h3.439a5.174,5.174,0,0,0,5.168-5.168V57.085L76.79,50.1v8.847h-6.3A3.192,3.192,0,0,0,67.3,62.133v6.194a3.192,3.192,0,0,0,3.188,3.189h6.3Zm9.487-12.151a.6.6,0,0,1-.594.594H70.492a.6.6,0,0,1-.594-.594V62.133a.6.6,0,0,1,.594-.594H85.683a.6.6,0,0,1,.594.594Z" transform="translate(0)"/>
      <path id="Trazado_890566" data-name="Trazado 890566" d="M446.706,369.222h-4.65a1.3,1.3,0,0,0,0,2.594h4.65a1.3,1.3,0,0,0,0-2.594Z" transform="translate(-364.167 -305.289)"/>
      <path id="Trazado_890567" data-name="Trazado 890567" d="M418.69,370.029a1.187,1.187,0,0,0-.118-.223,1.205,1.205,0,0,0-.163-.2,1.271,1.271,0,0,0-.2-.163,1.2,1.2,0,0,0-.223-.118,1.22,1.22,0,0,0-.242-.074,1.309,1.309,0,0,0-1.171.354,1.2,1.2,0,0,0-.163.2,1.342,1.342,0,0,0-.192.467,1.226,1.226,0,0,0-.026.252,1.3,1.3,0,0,0,1.3,1.3,1.28,1.28,0,0,0,.254-.026,1.229,1.229,0,0,0,.242-.074,1.2,1.2,0,0,0,.223-.118,1.3,1.3,0,0,0,.578-1.079,1.25,1.25,0,0,0-.026-.252A1.2,1.2,0,0,0,418.69,370.029Z" transform="translate(-343.857 -305.295)"/>
      <path id="Trazado_890568" data-name="Trazado 890568" d="M342.211,468.207h-4.65a1.3,1.3,0,1,0,0,2.594h4.65a1.3,1.3,0,1,0,0-2.594Z" transform="translate(-277.766 -387.134)"/>
      <path id="Trazado_890569" data-name="Trazado 890569" d="M313.721,468.427a1.386,1.386,0,0,0-.223-.119,1.365,1.365,0,0,0-.244-.074,1.28,1.28,0,0,0-.749.074,1.4,1.4,0,0,0-.225.119,1.358,1.358,0,0,0-.2.161,1.3,1.3,0,0,0,0,1.835,1.243,1.243,0,0,0,.2.161,1.4,1.4,0,0,0,.225.119,1.293,1.293,0,0,0,.242.074,1.254,1.254,0,0,0,.254.026,1.238,1.238,0,0,0,.252-.026,1.362,1.362,0,0,0,.244-.074,1.378,1.378,0,0,0,.223-.119,1.176,1.176,0,0,0,.2-.161,1.3,1.3,0,0,0,0-1.835A1.278,1.278,0,0,0,313.721,468.427Z" transform="translate(-257.46 -387.135)"/>
      <path id="Trazado_890570" data-name="Trazado 890570" d="M237.716,369.222h-4.65a1.3,1.3,0,1,0,0,2.594h4.65a1.3,1.3,0,1,0,0-2.594Z" transform="translate(-191.365 -305.289)"/>
      <path id="Trazado_890571" data-name="Trazado 890571" d="M209.7,370.022a1.3,1.3,0,0,0-.119-.223,1.281,1.281,0,0,0-.161-.2,1.368,1.368,0,0,0-.2-.163,1.213,1.213,0,0,0-.225-.118,1.187,1.187,0,0,0-.242-.074,1.314,1.314,0,0,0-.973.192,1.354,1.354,0,0,0-.2.163,1.261,1.261,0,0,0-.161.2,1.292,1.292,0,0,0-.119.223,1.319,1.319,0,0,0-.074.244,1.24,1.24,0,0,0,0,.5,1.331,1.331,0,0,0,.074.244,1.306,1.306,0,0,0,.119.223,1.2,1.2,0,0,0,.161.2,1.3,1.3,0,0,0,1.835,0,1.212,1.212,0,0,0,.161-.2,1.309,1.309,0,0,0,.194-.467,1.236,1.236,0,0,0,.026-.252,1.251,1.251,0,0,0-.026-.252A1.345,1.345,0,0,0,209.7,370.022Z" transform="translate(-171.052 -305.288)"/>
      <path id="Trazado_890572" data-name="Trazado 890572" d="M44.462,118.83H42.2a1.3,1.3,0,1,0,0,2.594h2.267a1.3,1.3,0,0,0,0-2.594Z" transform="translate(-33.544 -98.254)"/>
      <path id="Trazado_890573" data-name="Trazado 890573" d="M44.462,154.786H42.2a1.3,1.3,0,0,0,0,2.594h2.267a1.3,1.3,0,0,0,0-2.594Z" transform="translate(-33.544 -127.984)"/>
      <path id="Trazado_890574" data-name="Trazado 890574" d="M44.462,190.742H42.2a1.3,1.3,0,1,0,0,2.594h2.267a1.3,1.3,0,0,0,0-2.594Z" transform="translate(-33.544 -157.714)"/>
      <path id="Trazado_890575" data-name="Trazado 890575" d="M242,118.331h-1.649a1.3,1.3,0,1,0,0,2.594H242a1.3,1.3,0,0,0,0-2.594Z" transform="translate(-197.39 -97.841)"/>
      <path id="Trazado_890576" data-name="Trazado 890576" d="M163.312,118.831H152.45a1.3,1.3,0,0,0,0,2.594h10.862a1.3,1.3,0,0,0,0-2.594Z" transform="translate(-124.708 -98.255)"/>
      <path id="Trazado_890577" data-name="Trazado 890577" d="M89.123,120.927h6.139a1.3,1.3,0,1,0,0-2.594H89.123a1.3,1.3,0,0,0,0,2.594Z" transform="translate(-72.346 -97.843)"/>
      <path id="Trazado_890578" data-name="Trazado 890578" d="M115.712,191.541a1.3,1.3,0,0,0,1.3,1.3h23.006a1.3,1.3,0,1,0,0-2.594H117.009A1.3,1.3,0,0,0,115.712,191.541Z" transform="translate(-95.404 -157.302)"/>
      <path id="Trazado_890579" data-name="Trazado 890579" d="M200.71,156.879a1.3,1.3,0,1,0,0-2.594h-3.031a1.3,1.3,0,0,0,0,2.594Z" transform="translate(-162.105 -127.57)"/>
      <path id="Trazado_890580" data-name="Trazado 890580" d="M89.123,156.882h13.86a1.3,1.3,0,0,0,0-2.594H89.123a1.3,1.3,0,0,0,0,2.594Z" transform="translate(-72.346 -127.572)"/>
      <path id="Trazado_890581" data-name="Trazado 890581" d="M244.462,154.287h-1.133a1.3,1.3,0,0,0,0,2.594h1.133a1.3,1.3,0,0,0,0-2.594Z" transform="translate(-199.85 -127.571)"/>
      <path id="Trazado_890582" data-name="Trazado 890582" d="M88.046,192.266a1.378,1.378,0,0,0,.162.2,1.2,1.2,0,0,0,.2.161,1.311,1.311,0,0,0,.223.119,1.334,1.334,0,0,0,.242.074,1.345,1.345,0,0,0,.509,0,1.36,1.36,0,0,0,.242-.074,1.318,1.318,0,0,0,.223-.119,1.286,1.286,0,0,0,.2-.161,1.307,1.307,0,0,0,.38-.918,1.249,1.249,0,0,0-.026-.252,1.371,1.371,0,0,0-.073-.244,1.31,1.31,0,0,0-.119-.223,1.278,1.278,0,0,0-.162-.2,1.177,1.177,0,0,0-.2-.161,1.211,1.211,0,0,0-.223-.119,1.336,1.336,0,0,0-.242-.074,1.311,1.311,0,0,0-1.171.355,1.278,1.278,0,0,0-.162.2,1.306,1.306,0,0,0-.119.223,1.344,1.344,0,0,0-.073.244,1.237,1.237,0,0,0-.026.252,1.279,1.279,0,0,0,.026.254,1.313,1.313,0,0,0,.073.242A1.39,1.39,0,0,0,88.046,192.266Z" transform="translate(-72.348 -157.307)"/>
      <path id="Trazado_890583" data-name="Trazado 890583" d="M44.462,298.611H42.2a1.3,1.3,0,1,0,0,2.594h2.267a1.3,1.3,0,0,0,0-2.594Z" transform="translate(-33.544 -246.905)"/>
      <path id="Trazado_890584" data-name="Trazado 890584" d="M44.462,262.654H42.2a1.3,1.3,0,0,0,0,2.594h2.267a1.3,1.3,0,0,0,0-2.594Z" transform="translate(-33.544 -217.174)"/>
      <path id="Trazado_890585" data-name="Trazado 890585" d="M44.462,226.7H42.2a1.3,1.3,0,1,0,0,2.594h2.267a1.3,1.3,0,0,0,0-2.594Z" transform="translate(-33.544 -187.444)"/>
      <path id="Trazado_890586" data-name="Trazado 890586" d="M196.411,299.11h-1.649a1.3,1.3,0,1,0,0,2.594h1.649a1.3,1.3,0,1,0,0-2.594Z" transform="translate(-159.693 -247.317)"/>
      <path id="Trazado_890587" data-name="Trazado 890587" d="M127.335,299.11a1.3,1.3,0,1,0,0,2.594h6.625a1.3,1.3,0,1,0,0-2.594Z" transform="translate(-103.942 -247.317)"/>
      <path id="Trazado_890588" data-name="Trazado 890588" d="M89.124,301.7H91.6a1.3,1.3,0,1,0,0-2.594H89.124a1.3,1.3,0,1,0,0,2.594Z" transform="translate(-72.347 -247.317)"/>
      <path id="Trazado_890589" data-name="Trazado 890589" d="M132.122,263.154H117.01a1.3,1.3,0,0,0,0,2.594h15.112a1.3,1.3,0,0,0,0-2.594Z" transform="translate(-95.405 -217.587)"/>
      <path id="Trazado_890590" data-name="Trazado 890590" d="M167.125,228.5a1.3,1.3,0,0,0-1.3-1.3H153.365a1.3,1.3,0,1,0,0,2.594h12.463A1.3,1.3,0,0,0,167.125,228.5Z" transform="translate(-125.465 -187.86)"/>
      <path id="Trazado_890591" data-name="Trazado 890591" d="M96.56,228.5a1.3,1.3,0,0,0-1.3-1.3H89.124a1.3,1.3,0,0,0,0,2.594h6.139A1.3,1.3,0,0,0,96.56,228.5Z" transform="translate(-72.347 -187.857)"/>
      <path id="Trazado_890592" data-name="Trazado 890592" d="M250.357,227.294a1.345,1.345,0,0,0-.244-.073,1.249,1.249,0,0,0-.507,0,1.307,1.307,0,0,0-.242.073,1.33,1.33,0,0,0-.225.119,1.377,1.377,0,0,0-.2.163,1.3,1.3,0,1,0,1.835,0,1.368,1.368,0,0,0-.2-.163A1.382,1.382,0,0,0,250.357,227.294Z" transform="translate(-205.248 -187.855)"/>
      <path id="Trazado_890593" data-name="Trazado 890593" d="M90.207,263.735a1.289,1.289,0,0,0-.162-.2,1.186,1.186,0,0,0-.2-.161,1.2,1.2,0,0,0-.223-.119,1.352,1.352,0,0,0-.242-.074,1.322,1.322,0,0,0-.508,0,1.361,1.361,0,0,0-.242.074,1.206,1.206,0,0,0-.223.119,1.133,1.133,0,0,0-.2.161,1.28,1.28,0,0,0-.162.2,1.294,1.294,0,0,0-.119.223,1.344,1.344,0,0,0-.073.244,1.235,1.235,0,0,0-.026.252,1.281,1.281,0,0,0,.026.254,1.264,1.264,0,0,0,.192.465,1.321,1.321,0,0,0,.36.36,1.3,1.3,0,0,0,.223.119,1.344,1.344,0,0,0,.242.073,1.268,1.268,0,0,0,.254.026,1.284,1.284,0,0,0,.254-.026,1.342,1.342,0,0,0,.242-.073,1.32,1.32,0,0,0,.223-.119,1.287,1.287,0,0,0,.2-.162,1.186,1.186,0,0,0,.162-.2,1.264,1.264,0,0,0,.192-.465,1.267,1.267,0,0,0,.026-.254,1.25,1.25,0,0,0-.026-.252,1.373,1.373,0,0,0-.073-.244A1.324,1.324,0,0,0,90.207,263.735Z" transform="translate(-72.351 -217.591)"/>
    </g>
    <g id="algoritmo_10_2" data-name="algoritmo (10)" transform="translate(1314.671 4046.92)">
      <path id="Trazado_890544-2" data-name="Trazado 890544" d="M64.95,8.642a4.106,4.106,0,0,0-1.3-.879c-1-.425-.655-.322-10.554-.322-44.947,0-41.656-.163-42.8.322A4.117,4.117,0,0,0,8.377,9.415a4.192,4.192,0,0,0-.594,2.126c0,61.472-.2,56.693.7,58.024a4.1,4.1,0,0,0,3.4,1.808H62.05A4.1,4.1,0,0,0,65.557,69.4a4.192,4.192,0,0,0,.594-2.126V11.541A4.749,4.749,0,0,0,64.95,8.642Z" transform="translate(-6.148 -6.13)" fill="#d6e1fd"/>
      <path id="Trazado_890545-2" data-name="Trazado 890545" d="M13.59,69.6A4.193,4.193,0,0,1,13,67.47V11.738A4.1,4.1,0,0,1,15.942,7.8v-.3c-4.2,0-4.632-.11-5.654.322A4.116,4.116,0,0,0,8.377,9.482a4.192,4.192,0,0,0-.594,2.126c0,61.472-.2,56.693.7,58.024a4.1,4.1,0,0,0,3.4,1.808H16.07A4.1,4.1,0,0,1,14.2,70.37,4.138,4.138,0,0,1,13.59,69.6Z" transform="translate(-6.148 -6.198)" fill="#aec4fa"/>
      <path id="Trazado_890546-2" data-name="Trazado 890546" d="M66.241,18.651c0-7.133.359-8.323-1.2-9.883a4.088,4.088,0,0,0-2.9-1.2H11.974A4.1,4.1,0,0,0,8.468,9.541a4.193,4.193,0,0,0-.594,2.126v6.983Z" transform="translate(-6.239 -6.257)" fill="#666"/>
      <path id="Trazado_890547-2" data-name="Trazado 890547" d="M13.12,11.668a4.1,4.1,0,0,1,4.1-4.1H11.974a4.1,4.1,0,0,0-4.1,4.1v6.983H13.12Z" transform="translate(-6.239 -6.257)" fill="#535454"/>
      <g id="Grupo_1105004-2" data-name="Grupo 1105004" transform="translate(50.516 17.849)">
        <path id="Trazado_890548-2" data-name="Trazado 890548" d="M307.248,103.079H292.057a1.9,1.9,0,0,0-1.891,1.891v6.195a1.9,1.9,0,0,0,1.891,1.891h15.191a1.9,1.9,0,0,0,1.892-1.891V104.97A1.9,1.9,0,0,0,307.248,103.079Z" transform="translate(-290.166 -103.079)" fill="#52a5d8"/>
        <path id="Trazado_890549-2" data-name="Trazado 890549" d="M411.743,347.978H396.552a1.9,1.9,0,0,0-1.891,1.891v6.194a1.9,1.9,0,0,0,1.891,1.891h15.191a1.9,1.9,0,0,0,1.891-1.891V349.87A1.9,1.9,0,0,0,411.743,347.978Z" transform="translate(-376.567 -305.572)" fill="#52a5d8"/>
      </g>
      <path id="Trazado_890550-2" data-name="Trazado 890550" d="M307.248,446.964H292.057a1.9,1.9,0,0,0-1.891,1.891v6.195a1.9,1.9,0,0,0,1.891,1.891h15.191a1.9,1.9,0,0,0,1.891-1.891v-6.195A1.9,1.9,0,0,0,307.248,446.964Z" transform="translate(-239.65 -369.57)" fill="#92b620"/>
      <path id="Trazado_890551-2" data-name="Trazado 890551" d="M202.752,347.978H187.561a1.9,1.9,0,0,0-1.891,1.891v6.194a1.9,1.9,0,0,0,1.891,1.891h15.191a1.9,1.9,0,0,0,1.891-1.891V349.87A1.9,1.9,0,0,0,202.752,347.978Z" transform="translate(-153.248 -287.724)" fill="#52a5d8"/>
      <g id="Grupo_1105005-2" data-name="Grupo 1105005" transform="translate(50.516 17.849)">
        <path id="Trazado_890552-2" data-name="Trazado 890552" d="M295.354,111.165V104.97a1.9,1.9,0,0,1,1.891-1.891h-5.188a1.9,1.9,0,0,0-1.891,1.891v6.195a1.9,1.9,0,0,0,1.891,1.891h5.188A1.9,1.9,0,0,1,295.354,111.165Z" transform="translate(-290.166 -103.079)" fill="#3094c6"/>
        <path id="Trazado_890553-2" data-name="Trazado 890553" d="M399.849,356.065V349.87a1.9,1.9,0,0,1,1.891-1.891h-5.188a1.9,1.9,0,0,0-1.891,1.891v6.194a1.9,1.9,0,0,0,1.891,1.891h5.188A1.9,1.9,0,0,1,399.849,356.065Z" transform="translate(-376.567 -305.573)" fill="#3094c6"/>
      </g>
      <path id="Trazado_890554-2" data-name="Trazado 890554" d="M295.354,455.05v-6.195a1.9,1.9,0,0,1,1.891-1.891h-5.188a1.9,1.9,0,0,0-1.891,1.891v6.195a1.9,1.9,0,0,0,1.891,1.891h5.188A1.9,1.9,0,0,1,295.354,455.05Z" transform="translate(-239.65 -369.57)" fill="#89a511"/>
      <path id="Trazado_890555-2" data-name="Trazado 890555" d="M190.858,356.065V349.87a1.9,1.9,0,0,1,1.891-1.891h-5.188a1.9,1.9,0,0,0-1.891,1.891v6.194a1.9,1.9,0,0,0,1.891,1.891h5.188A1.9,1.9,0,0,1,190.858,356.065Z" transform="translate(-153.248 -287.725)" fill="#3094c6"/>
      <path id="Trazado_890556-2" data-name="Trazado 890556" d="M267.612,231.613l-14.666,6.611a1.409,1.409,0,0,0,0,2.568l14.666,6.611a1.409,1.409,0,0,0,1.158,0l14.667-6.611a1.409,1.409,0,0,0,0-2.568l-14.667-6.611A1.409,1.409,0,0,0,267.612,231.613Z" transform="translate(-208.189 -191.405)" fill="#ffb70d"/>
      <path id="Trazado_890557-2" data-name="Trazado 890557" d="M258.473,260.3a1.77,1.77,0,0,1-1.054-1.553l-4.472,2.016a1.409,1.409,0,0,0,0,2.568l14.666,6.611a1.409,1.409,0,0,0,1.158,0l5.547-2.5Z" transform="translate(-208.19 -213.942)" fill="#f4a403"/>
      <path id="Trazado_890558-2" data-name="Trazado 890558" d="M36.939,32.581a1.28,1.28,0,0,0-.161-.2,1.243,1.243,0,0,0-.2-.161,1.336,1.336,0,0,0-.467-.194,1.248,1.248,0,0,0-.507,0,1.378,1.378,0,0,0-.244.074,1.317,1.317,0,0,0-.42.28A1.3,1.3,0,0,0,35.86,34.6a1.405,1.405,0,0,0,.254-.024,1.318,1.318,0,0,0,.242-.074,1.4,1.4,0,0,0,.225-.119,1.479,1.479,0,0,0,.2-.161,1.368,1.368,0,0,0,.161-.2,1.389,1.389,0,0,0,.119-.225,1.287,1.287,0,0,0,.073-.242,1.254,1.254,0,0,0,.026-.254,1.237,1.237,0,0,0-.026-.252,1.372,1.372,0,0,0-.073-.244A1.4,1.4,0,0,0,36.939,32.581Z" transform="translate(-28.306 -26.462)"/>
      <path id="Trazado_890559-2" data-name="Trazado 890559" d="M62.026,32.581a1.177,1.177,0,0,0-.161-.2,1.322,1.322,0,0,0-.42-.28,1.344,1.344,0,0,0-.244-.074,1.249,1.249,0,0,0-.507,0,1.32,1.32,0,0,0-.242.074,1.272,1.272,0,0,0-.583.477,1.374,1.374,0,0,0-.119.223,1.358,1.358,0,0,0-.1.5,1.313,1.313,0,0,0,.379.918,1.481,1.481,0,0,0,.2.161,1.4,1.4,0,0,0,.225.119,1.294,1.294,0,0,0,.242.074,1.39,1.39,0,0,0,.254.024,1.29,1.29,0,0,0,.719-.218,1.492,1.492,0,0,0,.2-.161,1.307,1.307,0,0,0,.38-.918,1.249,1.249,0,0,0-.026-.252,1.378,1.378,0,0,0-.074-.244A1.246,1.246,0,0,0,62.026,32.581Z" transform="translate(-49.051 -26.462)"/>
      <path id="Trazado_890560-2" data-name="Trazado 890560" d="M87.106,32.587a1.377,1.377,0,0,0-.161-.2,1.252,1.252,0,0,0-.2-.161,1.337,1.337,0,0,0-.467-.194,1.314,1.314,0,0,0-.507,0,1.382,1.382,0,0,0-.244.074,1.205,1.205,0,0,0-.223.119,1.184,1.184,0,0,0-.2.161,1.269,1.269,0,0,0-.162.2,1.38,1.38,0,0,0-.118.223,1.318,1.318,0,0,0-.1.5,1.266,1.266,0,0,0,.026.254,1.2,1.2,0,0,0,.074.242,1.282,1.282,0,0,0,.28.422,1.377,1.377,0,0,0,.2.161,1.325,1.325,0,0,0,.223.119,1.354,1.354,0,0,0,.244.074,1.372,1.372,0,0,0,.252.024,1.407,1.407,0,0,0,.254-.024,1.32,1.32,0,0,0,.242-.074,1.39,1.39,0,0,0,.225-.119,1.493,1.493,0,0,0,.2-.161,1.4,1.4,0,0,0,.161-.2,1.306,1.306,0,0,0,.119-.223,1.286,1.286,0,0,0,.073-.242,1.266,1.266,0,0,0,.026-.254,1.249,1.249,0,0,0-.026-.252,1.371,1.371,0,0,0-.073-.244A1.354,1.354,0,0,0,87.106,32.587Z" transform="translate(-69.786 -26.468)"/>
      <path id="Trazado_890561-2" data-name="Trazado 890561" d="M116.84,32.006a1.3,1.3,0,1,0,0,2.594h21.673a1.3,1.3,0,1,0,0-2.594Z" transform="translate(-95.264 -26.464)"/>
      <path id="Trazado_890562-2" data-name="Trazado 890562" d="M270.161,33.3a1.3,1.3,0,0,0,1.3,1.3h2.981a1.3,1.3,0,1,0,0-2.594h-2.981A1.3,1.3,0,0,0,270.161,33.3Z" transform="translate(-223.109 -26.464)"/>
      <path id="Trazado_890563-2" data-name="Trazado 890563" d="M343.508,125.62a1.3,1.3,0,0,0-1.3-1.3h-4.65a1.3,1.3,0,1,0,0,2.594h4.65A1.3,1.3,0,0,0,343.508,125.62Z" transform="translate(-277.766 -102.796)"/>
      <path id="Trazado_890564-2" data-name="Trazado 890564" d="M314.2,125.125a1.211,1.211,0,0,0-.119-.223,1.264,1.264,0,0,0-.358-.358,1.264,1.264,0,0,0-.223-.119,1.349,1.349,0,0,0-.244-.074,1.28,1.28,0,0,0-.507,0,1.316,1.316,0,0,0-.242.074,1.277,1.277,0,0,0-.225.119,1.25,1.25,0,0,0-.2.161,1.3,1.3,0,0,0,0,1.833,1.358,1.358,0,0,0,.2.163,1.411,1.411,0,0,0,.225.119,1.286,1.286,0,0,0,.242.073,1.267,1.267,0,0,0,.254.026,1.237,1.237,0,0,0,.252-.026,1.258,1.258,0,0,0,.467-.192,1.279,1.279,0,0,0,.2-.163,1.3,1.3,0,0,0,.38-.917,1.251,1.251,0,0,0-.026-.252A1.359,1.359,0,0,0,314.2,125.125Z" transform="translate(-257.459 -102.797)"/>
      <path id="Trazado_890565-2" data-name="Trazado 890565" d="M85.683,58.944h-6.3c-.005-11.358.267-11.571-.764-12.037l-7.326-3.3a1.3,1.3,0,1,0-1.066,2.365l4.7,2.12L59.993,54.823,45.055,48.09l14.938-6.733,4.714,2.125a1.3,1.3,0,1,0,1.066-2.365L61.29,39.1V29.11h6.3a3.192,3.192,0,0,0,3.188-3.188V19.727a3.192,3.192,0,0,0-3.188-3.189h-6.3V5.4a5.4,5.4,0,0,0-5.4-5.4H52.708a1.3,1.3,0,0,0,0,2.594h3.184a2.8,2.8,0,0,1,2.8,2.8v5.686H2.923V5.4a2.8,2.8,0,0,1,2.8-2.8H46.655a1.3,1.3,0,0,0,0-2.594H5.727a5.4,5.4,0,0,0-5.4,5.4V61.129a5.4,5.4,0,0,0,5.4,5.4h5.306a1.3,1.3,0,0,0,0-2.594H5.727a2.8,2.8,0,0,1-2.8-2.8V13.678H58.7v2.86H52.4a3.192,3.192,0,0,0-3.188,3.189v6.194h0A3.19,3.19,0,0,0,52.4,29.11h6.3V39.1c-18.684,8.422-17.5,7.824-17.783,8.153-.545.639-.207.335-.311,11.7H34.3a3.192,3.192,0,0,0-3.189,3.189v1.8H17.086a1.3,1.3,0,0,0,0,2.594H31.115v1.8A3.192,3.192,0,0,0,34.3,71.516h6.3v8.963a3.192,3.192,0,0,0,3.188,3.189H49.21v1.8A3.192,3.192,0,0,0,52.4,88.656H67.589a3.192,3.192,0,0,0,3.188-3.189v-1.8H76.2a3.192,3.192,0,0,0,3.188-3.189V71.516h6.3a3.192,3.192,0,0,0,3.188-3.189V62.133A3.193,3.193,0,0,0,85.683,58.944ZM52.4,26.516a.6.6,0,0,1-.594-.594V19.727a.6.6,0,0,1,.594-.594H67.589a.6.6,0,0,1,.594.594v6.195a.6.6,0,0,1-.594.594H52.4ZM43.2,50.1c9.678,4.337,13.694,6.231,15.5,6.993V61.36a2.576,2.576,0,0,1-2.573,2.573H52.683v-1.8a3.192,3.192,0,0,0-3.188-3.189H43.2ZM34.3,68.922a.6.6,0,0,1-.594-.594V62.133a.6.6,0,0,1,.594-.594H49.495a.6.6,0,0,1,.594.594v6.194a.6.6,0,0,1-.594.594H34.3ZM68.183,85.467a.6.6,0,0,1-.594.594H52.4a.6.6,0,0,1-.594-.594V79.272a.6.6,0,0,1,.594-.594H67.589a.6.6,0,0,1,.594.594v6.194Zm8.607-4.988a.6.6,0,0,1-.594.594H70.777v-1.8a3.192,3.192,0,0,0-3.188-3.188H52.4a3.192,3.192,0,0,0-3.188,3.188v1.8H43.79a.6.6,0,0,1-.594-.594V71.516h6.3a3.192,3.192,0,0,0,3.188-3.189v-1.8h3.439a5.174,5.174,0,0,0,5.168-5.168V57.085L76.79,50.1v8.847h-6.3A3.192,3.192,0,0,0,67.3,62.133v6.194a3.192,3.192,0,0,0,3.188,3.189h6.3Zm9.487-12.151a.6.6,0,0,1-.594.594H70.492a.6.6,0,0,1-.594-.594V62.133a.6.6,0,0,1,.594-.594H85.683a.6.6,0,0,1,.594.594Z" transform="translate(0)"/>
      <path id="Trazado_890566-2" data-name="Trazado 890566" d="M446.706,369.222h-4.65a1.3,1.3,0,0,0,0,2.594h4.65a1.3,1.3,0,0,0,0-2.594Z" transform="translate(-364.167 -305.289)"/>
      <path id="Trazado_890567-2" data-name="Trazado 890567" d="M418.69,370.029a1.187,1.187,0,0,0-.118-.223,1.205,1.205,0,0,0-.163-.2,1.271,1.271,0,0,0-.2-.163,1.2,1.2,0,0,0-.223-.118,1.22,1.22,0,0,0-.242-.074,1.309,1.309,0,0,0-1.171.354,1.2,1.2,0,0,0-.163.2,1.342,1.342,0,0,0-.192.467,1.226,1.226,0,0,0-.026.252,1.3,1.3,0,0,0,1.3,1.3,1.28,1.28,0,0,0,.254-.026,1.229,1.229,0,0,0,.242-.074,1.2,1.2,0,0,0,.223-.118,1.3,1.3,0,0,0,.578-1.079,1.25,1.25,0,0,0-.026-.252A1.2,1.2,0,0,0,418.69,370.029Z" transform="translate(-343.857 -305.295)"/>
      <path id="Trazado_890568-2" data-name="Trazado 890568" d="M342.211,468.207h-4.65a1.3,1.3,0,1,0,0,2.594h4.65a1.3,1.3,0,1,0,0-2.594Z" transform="translate(-277.766 -387.134)"/>
      <path id="Trazado_890569-2" data-name="Trazado 890569" d="M313.721,468.427a1.386,1.386,0,0,0-.223-.119,1.365,1.365,0,0,0-.244-.074,1.28,1.28,0,0,0-.749.074,1.4,1.4,0,0,0-.225.119,1.358,1.358,0,0,0-.2.161,1.3,1.3,0,0,0,0,1.835,1.243,1.243,0,0,0,.2.161,1.4,1.4,0,0,0,.225.119,1.293,1.293,0,0,0,.242.074,1.254,1.254,0,0,0,.254.026,1.238,1.238,0,0,0,.252-.026,1.362,1.362,0,0,0,.244-.074,1.378,1.378,0,0,0,.223-.119,1.176,1.176,0,0,0,.2-.161,1.3,1.3,0,0,0,0-1.835A1.278,1.278,0,0,0,313.721,468.427Z" transform="translate(-257.46 -387.135)"/>
      <path id="Trazado_890570-2" data-name="Trazado 890570" d="M237.716,369.222h-4.65a1.3,1.3,0,1,0,0,2.594h4.65a1.3,1.3,0,1,0,0-2.594Z" transform="translate(-191.365 -305.289)"/>
      <path id="Trazado_890571-2" data-name="Trazado 890571" d="M209.7,370.022a1.3,1.3,0,0,0-.119-.223,1.281,1.281,0,0,0-.161-.2,1.368,1.368,0,0,0-.2-.163,1.213,1.213,0,0,0-.225-.118,1.187,1.187,0,0,0-.242-.074,1.314,1.314,0,0,0-.973.192,1.354,1.354,0,0,0-.2.163,1.261,1.261,0,0,0-.161.2,1.292,1.292,0,0,0-.119.223,1.319,1.319,0,0,0-.074.244,1.24,1.24,0,0,0,0,.5,1.331,1.331,0,0,0,.074.244,1.306,1.306,0,0,0,.119.223,1.2,1.2,0,0,0,.161.2,1.3,1.3,0,0,0,1.835,0,1.212,1.212,0,0,0,.161-.2,1.309,1.309,0,0,0,.194-.467,1.236,1.236,0,0,0,.026-.252,1.251,1.251,0,0,0-.026-.252A1.345,1.345,0,0,0,209.7,370.022Z" transform="translate(-171.052 -305.288)"/>
      <path id="Trazado_890572-2" data-name="Trazado 890572" d="M44.462,118.83H42.2a1.3,1.3,0,1,0,0,2.594h2.267a1.3,1.3,0,0,0,0-2.594Z" transform="translate(-33.544 -98.254)"/>
      <path id="Trazado_890573-2" data-name="Trazado 890573" d="M44.462,154.786H42.2a1.3,1.3,0,0,0,0,2.594h2.267a1.3,1.3,0,0,0,0-2.594Z" transform="translate(-33.544 -127.984)"/>
      <path id="Trazado_890574-2" data-name="Trazado 890574" d="M44.462,190.742H42.2a1.3,1.3,0,1,0,0,2.594h2.267a1.3,1.3,0,0,0,0-2.594Z" transform="translate(-33.544 -157.714)"/>
      <path id="Trazado_890575-2" data-name="Trazado 890575" d="M242,118.331h-1.649a1.3,1.3,0,1,0,0,2.594H242a1.3,1.3,0,0,0,0-2.594Z" transform="translate(-197.39 -97.841)"/>
      <path id="Trazado_890576-2" data-name="Trazado 890576" d="M163.312,118.831H152.45a1.3,1.3,0,0,0,0,2.594h10.862a1.3,1.3,0,0,0,0-2.594Z" transform="translate(-124.708 -98.255)"/>
      <path id="Trazado_890577-2" data-name="Trazado 890577" d="M89.123,120.927h6.139a1.3,1.3,0,1,0,0-2.594H89.123a1.3,1.3,0,0,0,0,2.594Z" transform="translate(-72.346 -97.843)"/>
      <path id="Trazado_890578-2" data-name="Trazado 890578" d="M115.712,191.541a1.3,1.3,0,0,0,1.3,1.3h23.006a1.3,1.3,0,1,0,0-2.594H117.009A1.3,1.3,0,0,0,115.712,191.541Z" transform="translate(-95.404 -157.302)"/>
      <path id="Trazado_890579-2" data-name="Trazado 890579" d="M200.71,156.879a1.3,1.3,0,1,0,0-2.594h-3.031a1.3,1.3,0,0,0,0,2.594Z" transform="translate(-162.105 -127.57)"/>
      <path id="Trazado_890580-2" data-name="Trazado 890580" d="M89.123,156.882h13.86a1.3,1.3,0,0,0,0-2.594H89.123a1.3,1.3,0,0,0,0,2.594Z" transform="translate(-72.346 -127.572)"/>
      <path id="Trazado_890581-2" data-name="Trazado 890581" d="M244.462,154.287h-1.133a1.3,1.3,0,0,0,0,2.594h1.133a1.3,1.3,0,0,0,0-2.594Z" transform="translate(-199.85 -127.571)"/>
      <path id="Trazado_890582-2" data-name="Trazado 890582" d="M88.046,192.266a1.378,1.378,0,0,0,.162.2,1.2,1.2,0,0,0,.2.161,1.311,1.311,0,0,0,.223.119,1.334,1.334,0,0,0,.242.074,1.345,1.345,0,0,0,.509,0,1.36,1.36,0,0,0,.242-.074,1.318,1.318,0,0,0,.223-.119,1.286,1.286,0,0,0,.2-.161,1.307,1.307,0,0,0,.38-.918,1.249,1.249,0,0,0-.026-.252,1.371,1.371,0,0,0-.073-.244,1.31,1.31,0,0,0-.119-.223,1.278,1.278,0,0,0-.162-.2,1.177,1.177,0,0,0-.2-.161,1.211,1.211,0,0,0-.223-.119,1.336,1.336,0,0,0-.242-.074,1.311,1.311,0,0,0-1.171.355,1.278,1.278,0,0,0-.162.2,1.306,1.306,0,0,0-.119.223,1.344,1.344,0,0,0-.073.244,1.237,1.237,0,0,0-.026.252,1.279,1.279,0,0,0,.026.254,1.313,1.313,0,0,0,.073.242A1.39,1.39,0,0,0,88.046,192.266Z" transform="translate(-72.348 -157.307)"/>
      <path id="Trazado_890583-2" data-name="Trazado 890583" d="M44.462,298.611H42.2a1.3,1.3,0,1,0,0,2.594h2.267a1.3,1.3,0,0,0,0-2.594Z" transform="translate(-33.544 -246.905)"/>
      <path id="Trazado_890584-2" data-name="Trazado 890584" d="M44.462,262.654H42.2a1.3,1.3,0,0,0,0,2.594h2.267a1.3,1.3,0,0,0,0-2.594Z" transform="translate(-33.544 -217.174)"/>
      <path id="Trazado_890585-2" data-name="Trazado 890585" d="M44.462,226.7H42.2a1.3,1.3,0,1,0,0,2.594h2.267a1.3,1.3,0,0,0,0-2.594Z" transform="translate(-33.544 -187.444)"/>
      <path id="Trazado_890586-2" data-name="Trazado 890586" d="M196.411,299.11h-1.649a1.3,1.3,0,1,0,0,2.594h1.649a1.3,1.3,0,1,0,0-2.594Z" transform="translate(-159.693 -247.317)"/>
      <path id="Trazado_890587-2" data-name="Trazado 890587" d="M127.335,299.11a1.3,1.3,0,1,0,0,2.594h6.625a1.3,1.3,0,1,0,0-2.594Z" transform="translate(-103.942 -247.317)"/>
      <path id="Trazado_890588-2" data-name="Trazado 890588" d="M89.124,301.7H91.6a1.3,1.3,0,1,0,0-2.594H89.124a1.3,1.3,0,1,0,0,2.594Z" transform="translate(-72.347 -247.317)"/>
      <path id="Trazado_890589-2" data-name="Trazado 890589" d="M132.122,263.154H117.01a1.3,1.3,0,0,0,0,2.594h15.112a1.3,1.3,0,0,0,0-2.594Z" transform="translate(-95.405 -217.587)"/>
      <path id="Trazado_890590-2" data-name="Trazado 890590" d="M167.125,228.5a1.3,1.3,0,0,0-1.3-1.3H153.365a1.3,1.3,0,1,0,0,2.594h12.463A1.3,1.3,0,0,0,167.125,228.5Z" transform="translate(-125.465 -187.86)"/>
      <path id="Trazado_890591-2" data-name="Trazado 890591" d="M96.56,228.5a1.3,1.3,0,0,0-1.3-1.3H89.124a1.3,1.3,0,0,0,0,2.594h6.139A1.3,1.3,0,0,0,96.56,228.5Z" transform="translate(-72.347 -187.857)"/>
      <path id="Trazado_890592-2" data-name="Trazado 890592" d="M250.357,227.294a1.345,1.345,0,0,0-.244-.073,1.249,1.249,0,0,0-.507,0,1.307,1.307,0,0,0-.242.073,1.33,1.33,0,0,0-.225.119,1.377,1.377,0,0,0-.2.163,1.3,1.3,0,1,0,1.835,0,1.368,1.368,0,0,0-.2-.163A1.382,1.382,0,0,0,250.357,227.294Z" transform="translate(-205.248 -187.855)"/>
      <path id="Trazado_890593-2" data-name="Trazado 890593" d="M90.207,263.735a1.289,1.289,0,0,0-.162-.2,1.186,1.186,0,0,0-.2-.161,1.2,1.2,0,0,0-.223-.119,1.352,1.352,0,0,0-.242-.074,1.322,1.322,0,0,0-.508,0,1.361,1.361,0,0,0-.242.074,1.206,1.206,0,0,0-.223.119,1.133,1.133,0,0,0-.2.161,1.28,1.28,0,0,0-.162.2,1.294,1.294,0,0,0-.119.223,1.344,1.344,0,0,0-.073.244,1.235,1.235,0,0,0-.026.252,1.281,1.281,0,0,0,.026.254,1.264,1.264,0,0,0,.192.465,1.321,1.321,0,0,0,.36.36,1.3,1.3,0,0,0,.223.119,1.344,1.344,0,0,0,.242.073,1.268,1.268,0,0,0,.254.026,1.284,1.284,0,0,0,.254-.026,1.342,1.342,0,0,0,.242-.073,1.32,1.32,0,0,0,.223-.119,1.287,1.287,0,0,0,.2-.162,1.186,1.186,0,0,0,.162-.2,1.264,1.264,0,0,0,.192-.465,1.267,1.267,0,0,0,.026-.254,1.25,1.25,0,0,0-.026-.252,1.373,1.373,0,0,0-.073-.244A1.324,1.324,0,0,0,90.207,263.735Z" transform="translate(-72.351 -217.591)"/>
    </g>
  </g>
</svg>
