<svg xmlns="http://www.w3.org/2000/svg" xmlns:xlink="http://www.w3.org/1999/xlink" width="127" height="105" viewBox="0 0 127 105">
  <defs>
    <linearGradient id="linear-gradient" x1="0.5" x2="0.5" y2="1" gradientUnits="objectBoundingBox">
      <stop offset="0" stop-color="#7737f0"/>
      <stop offset="1" stop-color="#291155"/>
    </linearGradient>
  </defs>
  <g id="Grupo_1104949" data-name="Grupo 1104949" transform="translate(-1173 -2658)">
    <rect id="Rectángulo_402949" data-name="Rectángulo 402949" width="127" height="105" rx="5" transform="translate(1173 2658)" fill="url(#linear-gradient)"/>
    <g id="_x30_5_Defining" transform="translate(1139.62 2663.93)">
      <g id="Grupo_1104953" data-name="Grupo 1104953" transform="translate(73.38 6.009)">
        <path id="Trazado_890457" data-name="Trazado 890457" d="M125.643,107.946a22.48,22.48,0,0,1-7.437,18.5,10.425,10.425,0,0,0-3.385,7.785v.459H91.541v-.462a10.712,10.712,0,0,0-3.528-7.912,22.527,22.527,0,1,1,37.63-18.368Z" transform="translate(-79.475 -73.972)" fill="#f5a218"/>
        <path id="Trazado_890458" data-name="Trazado 890458" d="M157.315,382.773v6.341a2.555,2.555,0,0,1-2.555,2.555H130a2.555,2.555,0,0,1-2.555-2.555v-6.341A2.555,2.555,0,0,1,130,380.218H154.76A2.555,2.555,0,0,1,157.315,382.773Z" transform="translate(-118.676 -319.502)" fill="#fff"/>
        <path id="Trazado_890459" data-name="Trazado 890459" d="M175.783,450.8a7.774,7.774,0,0,1-7.774,7.774h-5.446a7.774,7.774,0,0,1-7.774-7.774Z" transform="translate(-141.58 -378.628)" fill="#0176fe"/>
        <g id="Grupo_1104952" data-name="Grupo 1104952" transform="translate(10.367 15.086)">
          <path id="Trazado_890460" data-name="Trazado 890460" d="M163.951,158.71a13.339,13.339,0,1,1-13.342-13.336A13.338,13.338,0,0,1,163.951,158.71Z" transform="translate(-137.273 -137.848)" fill="#fff"/>
          <path id="Trazado_890461" data-name="Trazado 890461" d="M181.8,180.848a9.052,9.052,0,1,1-9.054-9.05A9.051,9.051,0,0,1,181.8,180.848Z" transform="translate(-159.41 -159.984)" fill="#fff"/>
          <path id="Trazado_890462" data-name="Trazado 890462" d="M200.317,203.812a4.6,4.6,0,1,1-4.606-4.6A4.6,4.6,0,0,1,200.317,203.812Z" transform="translate(-182.373 -182.948)" fill="#fff"/>
          <path id="Trazado_890463" data-name="Trazado 890463" d="M310.1,102.2l-4.015,4.015a2.184,2.184,0,0,1-1.935.6l-1.6-.29-.29-1.6a2.184,2.184,0,0,1,.6-1.935l4.015-4.015.025,3.191Z" transform="translate(-275.465 -98.988)" fill="#fff"/>
        </g>
        <path id="Trazado_890464" data-name="Trazado 890464" d="M81.122,121.081a9.58,9.58,0,0,1,3.108,6.366,3.729,3.729,0,0,0-3.258,3.688v6.341a3.741,3.741,0,0,0,3.737,3.736h.786a8.962,8.962,0,0,0,8.868,7.774h5.446a8.962,8.962,0,0,0,8.869-7.774h.786a3.741,3.741,0,0,0,3.737-3.736v-6.341a3.729,3.729,0,0,0-3.257-3.688,9.173,9.173,0,0,1,2.952-6.234,23.632,23.632,0,0,0,3.49-3.905,1.181,1.181,0,1,0-1.928-1.367,21.309,21.309,0,0,1-3.14,3.513,11.55,11.55,0,0,0-3.75,7.945H86.606a11.954,11.954,0,0,0-3.892-8.064,21.349,21.349,0,0,1,15.9-37.076,21.1,21.1,0,0,1,11.336,4.318,4.224,4.224,0,0,0-.384,3.521L106.7,92.962a14.451,14.451,0,0,0-8.432-3.608v-2.4a1.181,1.181,0,0,0-2.363,0v2.4a14.524,14.524,0,0,0-13.28,13.3H80.2a1.181,1.181,0,1,0,0,2.363h2.422A14.528,14.528,0,0,0,95.9,118.276v2.438a1.181,1.181,0,0,0,2.363,0v-2.438a14.532,14.532,0,0,0,13.278-13.262h2.421a1.181,1.181,0,0,0,0-2.363h-2.419a14.436,14.436,0,0,0-3.2-7.991l2.891-2.891a4.26,4.26,0,0,0,3.407-.306,21.071,21.071,0,0,1,3.73,10.465,21.353,21.353,0,0,1-1.134,8.667,1.182,1.182,0,0,0,2.23.781,23.7,23.7,0,0,0,1.26-9.622,23.459,23.459,0,0,0-4.344-11.919L119.217,87a1.181,1.181,0,0,0-.826-2.017l-2.028-.016-.016-2.028a1.181,1.181,0,0,0-2.017-.826L111.6,84.849a23.656,23.656,0,0,0-38.216,18.7,23.77,23.77,0,0,0,7.742,17.531Zm18.687,25.543H94.363a6.6,6.6,0,0,1-6.486-5.411H106.3a6.6,6.6,0,0,1-6.487,5.411Zm9.655-16.863a1.375,1.375,0,0,1,1.374,1.374v3.744H93.709a1.181,1.181,0,0,0,0,2.363h17.128v.235a1.375,1.375,0,0,1-1.374,1.374H84.708a1.375,1.375,0,0,1-1.374-1.374v-4.01h18.848a1.181,1.181,0,1,0,0-2.363H83.338a1.373,1.373,0,0,1,1.371-1.342Zm-4.435-35.129-1.36,1.36a10.188,10.188,0,0,0-5.4-2.336V91.718A12.1,12.1,0,0,1,105.029,94.632Zm-7.945,12.606a3.423,3.423,0,1,1,3.424-3.424A3.427,3.427,0,0,1,97.084,107.238Zm3.419-8.08a5.756,5.756,0,0,0-2.236-1.006V96.044a7.833,7.833,0,0,1,3.723,1.627Zm-4.6-1.006a5.8,5.8,0,0,0-4.487,4.5H89.311A7.873,7.873,0,0,1,95.9,96.043Zm-4.478,6.862a5.8,5.8,0,0,0,4.478,4.466v2.108a7.875,7.875,0,0,1-6.588-6.574Zm6.841,4.465a5.8,5.8,0,0,0,4.477-4.465h2.11a7.877,7.877,0,0,1-6.587,6.573Zm4.486-6.828a5.739,5.739,0,0,0-.668-1.734L103.6,99.4a7.819,7.819,0,0,1,1.261,3.247ZM95.9,91.717v1.938a10.244,10.244,0,0,0-8.981,9H84.987A12.172,12.172,0,0,1,95.9,91.717Zm-10.915,13.3h1.94a10.245,10.245,0,0,0,8.975,8.962v1.938a12.176,12.176,0,0,1-10.916-10.9Zm13.278,10.9v-1.939a10.247,10.247,0,0,0,8.975-8.961h1.941A12.18,12.18,0,0,1,98.267,115.913Zm10.918-13.262h-1.937a10.161,10.161,0,0,0-1.963-4.933l1.373-1.373a12.078,12.078,0,0,1,2.527,6.306Zm4.825-16.5a1.181,1.181,0,0,0,1.172,1.172l.37,0-2.02,2.02c-.537.537-1.222.165-1.679.134-.032-.462-.4-1.143.134-1.679l2.02-2.02Z" transform="translate(-73.38 -67.864)"/>
        <path id="Trazado_890465" data-name="Trazado 890465" d="M318,12.546a1.181,1.181,0,0,0,1.181-1.181V7.19a1.181,1.181,0,1,0-2.363,0v4.174A1.181,1.181,0,0,0,318,12.546Z" transform="translate(-277.32 -6.009)"/>
        <path id="Trazado_890466" data-name="Trazado 890466" d="M376.474,42.387l2.951-2.952a1.181,1.181,0,1,0-1.671-1.671L374.8,40.717a1.181,1.181,0,0,0,1.671,1.671Z" transform="translate(-325.607 -32.323)"/>
        <path id="Trazado_890467" data-name="Trazado 890467" d="M398.334,114.43a1.181,1.181,0,0,0,1.181,1.181h4.173a1.181,1.181,0,0,0,0-2.363h-4.173A1.181,1.181,0,0,0,398.334,114.43Z" transform="translate(-345.61 -95.849)"/>
      </g>
    </g>
  </g>
</svg>
