<svg xmlns="http://www.w3.org/2000/svg" xmlns:xlink="http://www.w3.org/1999/xlink" width="112" height="113" viewBox="0 0 112 113">
  <defs>
    <filter id="Elipse_11879" x="0" y="2" width="112" height="111" filterUnits="userSpaceOnUse">
      <feOffset dy="3" input="SourceAlpha"/>
      <feGaussianBlur stdDeviation="3" result="blur"/>
      <feFlood flood-opacity="0.161"/>
      <feComposite operator="in" in2="blur"/>
      <feComposite in="SourceGraphic"/>
    </filter>
    <clipPath id="clip-path">
      <rect id="Rectángulo_405391" data-name="Rectángulo 405391" width="64.367" height="72.818" fill="#0b47db"/>
    </clipPath>
  </defs>
  <g id="Grupo_1105936" data-name="Grupo 1105936" transform="translate(-844 -1012)">
    <g id="Grupo_1104770" data-name="Grupo 1104770" transform="translate(513 84)">
      <path id="Trazado_883674" data-name="Trazado 883674" d="M54,0A54,54,0,1,1,0,54,54,54,0,0,1,54,0Z" transform="translate(333 928)" fill="#f0c518"/>
    </g>
    <g transform="matrix(1, 0, 0, 1, 844, 1012)" filter="url(#Elipse_11879)">
      <ellipse id="Elipse_11879-2" data-name="Elipse 11879" cx="47" cy="46.5" rx="47" ry="46.5" transform="translate(9 8)" fill="#fff"/>
    </g>
    <g id="Grupo_1105367" data-name="Grupo 1105367" transform="translate(867.816 1030.439)">
      <path id="Trazado_890894" data-name="Trazado 890894" d="M2.461,52.285.445,17.3,32.239.485,63.925,17.154l-1.667,35.02L32.292,72.3ZM32.239,0,0,17.045,2.045,52.523,32.292,72.817,62.677,52.41,64.367,16.9,32.339.052Z" fill="#0b47db"/>
      <g id="Grupo_1105366" data-name="Grupo 1105366" transform="translate(0 -0.001)">
        <g id="Grupo_1105365" data-name="Grupo 1105365" clip-path="url(#clip-path)">
          <path id="Trazado_890895" data-name="Trazado 890895" d="M120.964,117.295a.129.129,0,0,1-.129-.124L119.361,81.5l32.124-17.682a.129.129,0,0,1,.124.226l-31.984,17.6,1.468,35.516a.129.129,0,0,1-.123.134h-.005" transform="translate(-109.108 -58.318)" fill="#0b47db"/>
          <path id="Trazado_890896" data-name="Trazado 890896" d="M162.015,184.477h0a.129.129,0,0,1-.127-.131l.484-35.891-31.85-18.225a.129.129,0,1,1,.128-.224l31.982,18.3-.486,36.042a.129.129,0,0,1-.129.127" transform="translate(-119.248 -118.824)" fill="#0b47db"/>
          <path id="Trazado_890897" data-name="Trazado 890897" d="M285.537,117.733h0a.129.129,0,0,1-.125-.133l1.1-35.538L254.656,64.6a.129.129,0,0,1,.124-.226l31.995,17.539-1.109,35.7a.129.129,0,0,1-.129.125" transform="translate(-232.72 -58.83)" fill="#0b47db"/>
          <path id="Trazado_890898" data-name="Trazado 890898" d="M47.916,496.062l-30.7-19.885a.129.129,0,1,1,.14-.216l30.557,19.795,30.7-19.916a.129.129,0,0,1,.14.216Z" transform="translate(-15.686 -434.945)" fill="#0b47db"/>
          <path id="Trazado_890899" data-name="Trazado 890899" d="M40.654,358.977l-.068-.043L9.346,339.453a.129.129,0,1,1,.136-.219l31.171,19.439L71.984,339.1a.129.129,0,0,1,.137.219Z" transform="translate(-8.488 -309.955)" fill="#0b47db"/>
          <path id="Trazado_890900" data-name="Trazado 890900" d="M243.942,183.5a.129.129,0,0,1-.129-.126l-.862-36.032,32.132-18.443a.129.129,0,1,1,.128.224l-32,18.367.858,35.879a.129.129,0,0,1-.126.132Z" transform="translate(-222.081 -117.807)" fill="#0b47db"/>
          <path id="Trazado_890901" data-name="Trazado 890901" d="M371.571,251.693a.215.215,0,0,1-.215-.214l-.194-36.436,32.152-19.28a.215.215,0,0,1,.221.368l-31.942,19.154.193,36.191a.215.215,0,0,1-.214.216Z" transform="translate(-339.279 -178.919)" fill="#0b47db"/>
          <path id="Trazado_890902" data-name="Trazado 890902" d="M32.179,216.9a.214.214,0,0,1-.11-.03L.192,197.79a.215.215,0,0,1,.221-.369L32.289,216.5a.215.215,0,0,1-.11.4" transform="translate(-0.08 -180.435)" fill="#0b47db"/>
        </g>
      </g>
    </g>
  </g>
</svg>
