<svg xmlns="http://www.w3.org/2000/svg" xmlns:xlink="http://www.w3.org/1999/xlink" width="400" height="404" viewBox="0 0 400 404">
  <defs>
    <clipPath id="clip-path">
      <rect id="Rectángulo_403715" data-name="Rectángulo 403715" width="400" height="404" transform="translate(180 4011)" fill="#fff" stroke="#707070" stroke-width="1" opacity="0.62"/>
    </clipPath>
    <clipPath id="clip-path-2">
      <path id="Trazado_884563" data-name="Trazado 884563" d="M0,0H156.845V403.388H0Z" transform="translate(197 4011)" fill="#fff" stroke="#707070" stroke-width="1" opacity="0.36"/>
    </clipPath>
    <clipPath id="clip-path-3">
      <rect id="Rectángulo_403749" data-name="Rectángulo 403749" width="390.393" height="331.055" fill="none"/>
    </clipPath>
    <clipPath id="clip-path-4">
      <rect id="Rectángulo_403716" data-name="Rectángulo 403716" width="149.281" height="297.078" fill="none"/>
    </clipPath>
    <clipPath id="clip-path-5">
      <rect id="Rectángulo_403750" data-name="Rectángulo 403750" width="219.127" height="134.487" fill="none"/>
    </clipPath>
  </defs>
  <g id="Grupo_1105248" data-name="Grupo 1105248" transform="translate(-180 -2387)">
    <g id="Grupo_1102969" data-name="Grupo 1102969" transform="translate(197.707 2493.409)" opacity="0.48">
      <g id="Grupo_1101852" data-name="Grupo 1101852" opacity="0.41">
        <path id="Trazado_879220" data-name="Trazado 879220" d="M544.556,381.59c2.108-47.151-21.236-87.645-56.46-110.468a26.207,26.207,0,0,1-11.761-19.14c-.047-.426-.095-.853-.154-1.267-6.455-51.77-54.849-88.142-106.382-81.131-49.294,6.7-84.79,32.76-79.544,82.919.024.237.047.58.083,1.019a23.961,23.961,0,0,1-23.475,25.488c-2.866.071-5.744.249-8.646.557-58.817,6.147-101.479,58.994-95.213,118a107,107,0,0,0,34.205,67.7H503.777C527.086,442.965,543.194,412.029,544.556,381.59Z" transform="translate(-162.394 -168.719)" fill="#c5d9ff"/>
      </g>
      <circle id="Elipse_11637" data-name="Elipse 11637" cx="17.529" cy="17.529" r="17.529" transform="translate(23.386 52.635)" fill="#c5d9ff" opacity="0.31"/>
      <circle id="Elipse_11638" data-name="Elipse 11638" cx="11.133" cy="11.133" r="11.133" transform="translate(326.874 9.867)" fill="#c5d9ff" opacity="0.31"/>
      <path id="Trazado_879221" data-name="Trazado 879221" d="M486.04,235.01a7.58,7.58,0,1,1-7.58-7.58A7.579,7.579,0,0,1,486.04,235.01Z" transform="translate(-105.513 -157.894)" fill="#c5d9ff" opacity="0.31"/>
      <path id="Trazado_879222" data-name="Trazado 879222" d="M512.072,387.106a105.758,105.758,0,0,0-48.157-94.218,22.372,22.372,0,0,1-10.032-16.321c-.036-.355-.083-.722-.13-1.09-5.507-44.154-46.772-75.173-90.724-69.192-42.046,5.721-72.307,27.94-67.842,70.72.024.2.047.5.071.865A20.43,20.43,0,0,1,275.241,299.6q-3.66.089-7.379.474a91.443,91.443,0,0,0-52.03,158.365H477.3c19.874-19.021,33.613-45.409,34.774-71.359Z" transform="translate(-158.016 -161.929)" fill="#c5d9ff"/>
      <path id="Trazado_879223" data-name="Trazado 879223" d="M534.213,420.3H172.062a1.042,1.042,0,0,1,0-2.085H534.213a1.042,1.042,0,0,1,0,2.085Z" transform="translate(-160.804 -122.714)" fill="#243762"/>
    </g>
    <g id="Enmascarar_grupo_1098743" data-name="Enmascarar grupo 1098743" transform="translate(0 -1624)" clip-path="url(#clip-path)">
      <g id="_22917188086832_Convertido_" data-name="22917188086832 [Convertido]" transform="translate(191 4038.001)">
        <g id="Desk" transform="translate(10.785 375.942)">
          <path id="Trazado_884559" data-name="Trazado 884559" d="M365.331,439.772c0,.12-78.969.222-176.352.222s-176.369-.1-176.369-.222,78.952-.222,176.369-.222S365.331,439.653,365.331,439.772Z" transform="translate(-12.61 -439.55)" fill="#263238"/>
        </g>
        <g id="Character" transform="translate(14.217 52.354)">
          <g id="Grupo_1102841" data-name="Grupo 1102841" transform="translate(148.883 -74.953)" opacity="0.84">
            <path id="Trazado_884560" data-name="Trazado 884560" d="M41.709,55.032V59.15H27.97v.4H65.115V73.016H27.97v.415H41.709V86.893H27.97v.4H65.115v13.462H27.97v.4H41.709v13.462H27.97v.4H65.115v13.462H27.97v.415H41.709v13.462H27.97v.415H65.115v13.462H27.97v.415H41.709v13.462H27.97v.4H65.115v13.462H27.97v.415H41.709v13.462H27.97v.4H65.115v13.462H27.97v.4H41.709V225.6H27.97v.415H65.115v13.462H27.97v.415H41.709v13.462H27.97v.415H65.115v13.462H27.97v.415H41.709v13.462H27.97v.4H65.115v13.462H27.97v.415H41.709v13.462H27.97v.415H65.115v13.462H27.97v.415H41.709v13.462H27.97v.4H65.115v13.462H27.97v.4H41.709v13.462H27.97v.415H65.115v13.462H27.97v.415H41.709v13.462H27.97v.4H65.115v13.462H27.97v.415H41.709v13.462H27.97v.415H65.115v13.462H27.97v.4H41.709V447.58H27.97v.4H65.115v4.787h.4v-4.787h46.408v4.787h.4v-4.787h46.408v4.787h.4v-4.787h40.663c.369-.138.738-.265,1.107-.4H182.56V434.118h41.459c.161-.138.323-.277.484-.4H205.966V420.252h31.273c.1-.138.2-.277.3-.415h-8.167V406.374h16.265c.069-.138.127-.277.2-.415H205.966V392.5h44.77c.035-.138.081-.277.115-.4H229.372V378.631h23.787c0-.138.023-.277.035-.415h-.415V364.754h.358l-.035-.415H229.372V350.876H250.69a4.126,4.126,0,0,0-.115-.4h-44.62V337.01h39.591c-.069-.138-.127-.277-.2-.4H229.36V323.144h7.74l-.311-.415H205.966V309.267h17.846c-.162-.138-.335-.277-.508-.415H182.56V295.389h16.75l-1.177-.415H159.154v-6.91a4.306,4.306,0,0,1-.4-.185v7.083H112.342V281.5h36.776c-.15-.138-.288-.265-.427-.4H135.76V267.634h4.349l-.138-.415H112.354V253.757h26c0-.138.023-.277.035-.415h-2.63V239.88h6.829c.081-.138.15-.277.231-.415H112.354V226h44.632l.831-.415H135.771V212.125h46.4v9.69l.415-.069v-9.621h18.792c.138-.138.277-.277.415-.4H159.165V198.259h46.408v8.975l.415-.588v-8.386h4.222c.046-.138.092-.277.138-.4H182.583V184.393h29.508c0-.138-.012-.277-.023-.415h-6.079V170.515h2.284a4.5,4.5,0,0,0-.219-.4H182.583V156.65h13.07l-.658-.415H159.177v-6.068c-.138-.058-.277-.1-.4-.161v6.229H112.365V142.772H151.39l-.173-.415H135.771V128.895h17.211c.1-.138.208-.277.323-.415h-40.94V115.017h46.408v9.367c.138-.058.277-.115.4-.161v-9.206h23.556c.023-.138.035-.277.046-.4h-.2V111.66a8.588,8.588,0,0,0-.415-1.338v4.291h-46.4V104.208h-.4v10.405h-46.4V101.151h13.5c-.173-.138-.346-.265-.519-.4H65.565V87.285H96.607c.012-.138.035-.277.058-.4H88.971V73.419h44.666c.3-.127.577-.265.865-.415H112.388V59.542h25.725c-.092-.138-.173-.277-.265-.4h-2.053V56.993l-.4-.3v2.446h-46.4V55.02h-.415v4.118H42.17V55.02h-.415Zm148.88,60.009c-.023-.138-.035-.277-.046-.4H209.6a2.274,2.274,0,0,1-.046.4h-3.588v6.275c-.138.1-.277.208-.415.3V115.04H190.577ZM42.124,434.049H88.532v13.462H42.124V434.049Zm46.812,0h46.4v13.462h-46.4V434.049Zm46.812,0h46.4v13.462h-46.4V434.049ZM65.53,420.183h46.408v13.462H65.53V420.183Zm46.812,0H158.75v13.462H112.342V420.183Zm46.812,0h46.408v13.462H159.154V420.183ZM42.124,406.317H88.532v13.462H42.124V406.317Zm46.812,0h46.4v13.462h-46.4V406.317Zm46.812,0h46.4v13.462h-46.4V406.317Zm46.812,0h46.408v13.462H182.56V406.317ZM65.53,392.451h46.408v13.462H65.53V392.451Zm46.812,0H158.75v13.462H112.342V392.451Zm46.812,0h46.408v13.462H159.154V392.451ZM42.124,378.585H88.532v13.462H42.124V378.585Zm46.812,0h46.4v13.462h-46.4V378.585Zm46.812,0h46.4v13.462h-46.4V378.585Zm46.812,0h46.408v13.462H182.56V378.585ZM65.53,364.719h46.408v13.462H65.53V364.719Zm46.812,0H158.75v13.462H112.342V364.719Zm46.812,0h46.408v13.462H159.154V364.719Zm46.812,0h46.4v13.462H205.954V364.719h0ZM42.124,350.842H88.533V364.3H42.124V350.842Zm46.812,0h46.4V364.3h-46.4V350.842Zm46.812,0h46.4V364.3h-46.4V350.842Zm46.812,0h46.408V364.3H182.56V350.842ZM65.53,336.976h46.408v13.462H65.53V336.976Zm46.812,0H158.75v13.462H112.342V336.976Zm46.812,0h46.408v13.462H159.154V336.976ZM42.124,323.11H88.533v13.462H42.124V323.11Zm46.812,0h46.4v13.462h-46.4V323.11Zm46.812,0h46.4v13.462h-46.4V323.11Zm46.812,0h46.408v13.462H182.56V323.11ZM65.53,309.244h46.408v13.462H65.53V309.244Zm46.812,0H158.75v13.462H112.342V309.244Zm46.812,0h46.408v13.462H159.154V309.244ZM42.124,295.378H88.533V308.84H42.124V295.378Zm46.812,0h46.4V308.84h-46.4V295.378Zm46.812,0h46.4V308.84h-46.4V295.378ZM65.53,281.5h46.408v13.462H65.53V281.5ZM42.124,267.635H88.533V281.1H42.124V267.635Zm46.812,0h46.4V281.1h-46.4V267.635ZM65.53,253.769h46.408v13.462H65.53V253.769ZM42.124,239.9H88.533v13.462H42.124V239.9Zm46.812,0h46.4v13.462h-46.4V239.9ZM65.53,226.037h46.408V239.5H65.53V226.037ZM42.124,212.171H88.533v13.462H42.124V212.171Zm46.812,0h46.4v13.462h-46.4V212.171ZM65.53,198.305h46.408v13.462H65.53V198.305Zm46.812,0H158.75v13.462H112.342V198.305ZM42.124,184.439H88.533V197.9H42.124V184.439Zm46.812,0h46.4V197.9h-46.4V184.439Zm46.812,0h46.4V197.9h-46.4V184.439ZM65.53,170.573h46.408v13.462H65.53V170.573Zm46.812,0H158.75v13.462H112.342V170.573Zm46.812,0h46.408v13.462H159.154V170.573ZM42.124,156.707H88.533v13.462H42.124V156.707Zm46.812,0h46.4v13.462h-46.4V156.707Zm46.812,0h46.4v13.462h-46.4V156.707ZM65.53,142.841h46.408V156.3H65.53V142.841ZM42.124,128.975H88.533v13.462H42.124V128.975Zm46.812,0h46.4v13.462h-46.4V128.975ZM65.53,115.11h46.408v13.462H65.53V115.11ZM42.124,101.244H88.533v13.462H42.124V101.244Zm0-27.743H88.533V86.962H42.124V73.5ZM65.53,59.634h46.408V73.1H65.53Z" transform="translate(-27.97 -55.02)" fill="#73afcc" fill-rule="evenodd"/>
          </g>
        </g>
      </g>
      <g id="Enmascarar_grupo_1098742" data-name="Enmascarar grupo 1098742" clip-path="url(#clip-path-2)">
        <g id="_22917188086832_Convertido_2" data-name="22917188086832 [Convertido]" transform="translate(196.785 4015.401)">
          <g id="Desk-2" data-name="Desk" transform="translate(24.817 398.542)">
            <path id="Trazado_884561" data-name="Trazado 884561" d="M12.61,439.772c0,.12,78.969.222,176.352.222s176.369-.1,176.369-.222-78.952-.222-176.369-.222S12.61,439.653,12.61,439.772Z" transform="translate(-12.61 -439.55)" fill="#263238"/>
          </g>
          <g id="Character-2" data-name="Character" transform="translate(0 0)">
            <g id="Grupo_1102842" data-name="Grupo 1102842" opacity="0.84">
              <path id="Trazado_884562" data-name="Trazado 884562" d="M239.454,55.032V59.15h13.739v.4H216.048V73.016h37.145v.415H239.454V86.893h13.739v.4H216.048v13.462h37.145v.4H239.454v13.462h13.739v.4H216.048v13.462h37.145v.415H239.454v13.462h13.739v.415H216.048v13.462h37.145v.415H239.454v13.462h13.739v.4H216.048v13.462h37.145v.415H239.454v13.462h13.739v.4H216.048v13.462h37.145v.4H239.454V225.6h13.739v.415H216.048v13.462h37.145v.415H239.454v13.462h13.739v.415H216.048v13.462h37.145v.415H239.454v13.462h13.739v.4H216.048v13.462h37.145v.415H239.454v13.462h13.739v.415H216.048v13.462h37.145v.415H239.454v13.462h13.739v.4H216.048v13.462h37.145v.4H239.454v13.462h13.739v.415H216.048v13.462h37.145v.415H239.454v13.462h13.739v.4H216.048v13.462h37.145v.415H239.454v13.462h13.739v.415H216.048v13.462h37.145v.4H239.454V447.58h13.739v.4H216.048v4.787h-.4v-4.787H169.236v4.787h-.4v-4.787H122.424v4.787h-.4v-4.787H81.357c-.369-.138-.738-.265-1.107-.4H98.6V434.118H57.144c-.161-.138-.323-.277-.484-.4H75.2V420.252H43.924c-.1-.138-.2-.277-.3-.415h8.167V406.374H35.526c-.069-.138-.127-.277-.2-.415H75.2V392.5H30.427c-.035-.138-.081-.277-.115-.4H51.791V378.631H28c0-.138-.023-.277-.035-.415h.415V364.754h-.358l.035-.415H51.791V350.876H30.473a4.126,4.126,0,0,1,.115-.4h44.62V337.01H35.618c.069-.138.127-.277.2-.4H51.8V323.144h-7.74l.311-.415H75.2V309.267H57.351c.162-.138.335-.277.508-.415H98.6V295.389H81.853l1.177-.415h38.979v-6.91a4.306,4.306,0,0,0,.4-.185v7.083h46.408V281.5H132.045c.15-.138.288-.265.427-.4H145.4V267.634h-4.349l.138-.415h27.616V253.757h-26c0-.138-.023-.277-.035-.415h2.63V239.88h-6.829c-.081-.138-.15-.277-.231-.415h30.466V226H124.178l-.831-.415h22.045V212.125H99v9.69l-.415-.069v-9.621H79.788c-.138-.138-.277-.277-.415-.4H122V198.259H75.589v8.975l-.415-.588v-8.386H70.952c-.046-.138-.092-.277-.138-.4H98.58V184.393H69.072c0-.138.012-.277.023-.415h6.079V170.515H72.89a4.5,4.5,0,0,1,.219-.4H98.58V156.649H85.51l.658-.415h35.818v-6.068c.138-.058.277-.1.4-.161v6.229H168.8V142.772H129.773l.173-.415h15.446V128.895H128.181c-.1-.138-.208-.277-.323-.415H168.8V115.017H122.39v9.367c-.138-.058-.277-.115-.4-.161v-9.205H98.43c-.023-.138-.035-.277-.046-.4h.2V111.66A8.588,8.588,0,0,1,99,110.322v4.291h46.4V104.208h.4v10.405h46.4V101.151H178.7c.173-.138.346-.265.519-.4H215.6V87.285H184.556c-.012-.138-.035-.277-.058-.4h7.694V73.419H147.526c-.3-.127-.577-.265-.865-.415h22.114V59.542H143.05c.092-.138.173-.277.265-.4h2.053V56.993l.4-.3v2.446h46.4V55.02h.415v4.118h46.408V55.02h.415ZM90.574,115.04c.023-.138.035-.277.046-.4H71.563a2.274,2.274,0,0,0,.046.4H75.2v6.275c.138.1.277.208.415.3V115.04H90.586ZM239.039,434.048H192.631v13.462h46.408V434.048Zm-46.812,0h-46.4v13.462h46.4V434.048Zm-46.812,0h-46.4v13.462h46.4V434.048Zm70.218-13.866H169.225v13.462h46.408V420.183Zm-46.812,0H122.413v13.462h46.408V420.183Zm-46.812,0H75.6v13.462h46.408V420.183Zm117.03-13.866H192.63v13.462h46.408V406.317Zm-46.812,0h-46.4v13.462h46.4V406.317Zm-46.812,0h-46.4v13.462h46.4V406.317Zm-46.812,0H52.195v13.462H98.6V406.317Zm117.03-13.866H169.225v13.462h46.408V392.451Zm-46.812,0H122.413v13.462h46.408V392.451Zm-46.812,0H75.6v13.462h46.408V392.451Zm117.03-13.866H192.63v13.462h46.408V378.585Zm-46.812,0h-46.4v13.462h46.4V378.585Zm-46.812,0h-46.4v13.462h46.4V378.585Zm-46.812,0H52.195v13.462H98.6V378.585Zm117.03-13.866H169.225v13.462h46.408V364.719Zm-46.812,0H122.413v13.462h46.408V364.719Zm-46.812,0H75.6v13.462h46.408V364.719Zm-46.812,0H28.8v13.462H75.209V364.719h0Zm163.841-13.877H192.63V364.3h46.408V350.842Zm-46.812,0h-46.4V364.3h46.4V350.842Zm-46.812,0h-46.4V364.3h46.4V350.842Zm-46.812,0H52.195V364.3H98.6V350.842Zm117.03-13.866H169.225v13.462h46.408V336.976Zm-46.812,0H122.413v13.462h46.408V336.976Zm-46.812,0H75.6v13.462h46.408V336.976Zm117.03-13.866H192.63v13.462h46.408V323.11Zm-46.812,0h-46.4v13.462h46.4V323.11Zm-46.812,0h-46.4v13.462h46.4V323.11Zm-46.812,0H52.195v13.462H98.6V323.11Zm117.03-13.866H169.225v13.462h46.408V309.244Zm-46.812,0H122.413v13.462h46.408V309.244Zm-46.812,0H75.6v13.462h46.408V309.244Zm117.03-13.866H192.63V308.84h46.408V295.378Zm-46.812,0h-46.4V308.84h46.4V295.378Zm-46.812,0h-46.4V308.84h46.4V295.378ZM215.633,281.5H169.224v13.462h46.408V281.5Zm23.406-13.866H192.63V281.1h46.408V267.635Zm-46.812,0h-46.4V281.1h46.4V267.635Zm23.406-13.866H169.224v13.462h46.408V253.769ZM239.039,239.9H192.63v13.462h46.408V239.9Zm-46.812,0h-46.4v13.462h46.4V239.9Zm23.406-13.866H169.224V239.5h46.408V226.037Zm23.406-13.866H192.63v13.462h46.408V212.171Zm-46.812,0h-46.4v13.462h46.4V212.171Zm23.406-13.866H169.224v13.462h46.408V198.305Zm-46.812,0H122.413v13.462h46.408V198.305Zm70.218-13.866H192.63V197.9h46.408V184.439Zm-46.812,0h-46.4V197.9h46.4V184.439Zm-46.812,0h-46.4V197.9h46.4V184.439Zm70.218-13.866H169.224v13.462h46.408V170.573Zm-46.812,0H122.413v13.462h46.408V170.573Zm-46.812,0H75.6v13.462h46.408V170.573Zm117.03-13.866H192.63v13.462h46.408V156.707Zm-46.812,0h-46.4v13.462h46.4V156.707Zm-46.812,0h-46.4v13.462h46.4V156.707Zm70.218-13.866H169.224V156.3h46.408V142.841Zm23.406-13.866H192.63v13.462h46.408V128.975Zm-46.812,0h-46.4v13.462h46.4V128.975Zm23.406-13.866H169.224v13.462h46.408V115.11Zm23.406-13.866H192.63v13.462h46.408V101.244Zm0-27.743H192.63V86.962h46.408V73.5ZM215.633,59.634H169.224V73.1h46.408Z" transform="translate(-27.97 -55.02)" fill="#73afcc" fill-rule="evenodd"/>
            </g>
          </g>
        </g>
      </g>
      <g id="Grupo_1102844" data-name="Grupo 1102844" transform="translate(228.406 4031.227)">
        <g id="Grupo_1102884" data-name="Grupo 1102884" transform="translate(-27.787 53.712)">
          <path id="Trazado_884735" data-name="Trazado 884735" d="M171.984,440.064H33.9L1.978,225.361h138.08Z" transform="translate(-0.978 -111.446)"/>
          <rect id="Rectángulo_403733" data-name="Rectángulo 403733" width="2.022" height="217.063" transform="translate(0 114.064) rotate(-8.458)"/>
          <rect id="Rectángulo_403734" data-name="Rectángulo 403734" width="2.022" height="217.063" transform="translate(8.044 114.064) rotate(-8.458)" fill="#fff"/>
          <g id="Grupo_1102883" data-name="Grupo 1102883">
            <g id="Grupo_1102882" data-name="Grupo 1102882" clip-path="url(#clip-path-3)">
              <path id="Trazado_884736" data-name="Trazado 884736" d="M207.231,568.175h-86.2a41.875,41.875,0,1,1,0-83.75h86.2Z" transform="translate(-39.142 -239.558)" fill="#002cb3"/>
              <path id="Trazado_884737" data-name="Trazado 884737" d="M388.94,511.792H279.353l-7.307,69.917H388.94Z" transform="translate(-134.532 -253.091)"/>
              <path id="Trazado_884738" data-name="Trazado 884738" d="M504.653,546.461A34.649,34.649,0,1,1,470,511.792a34.659,34.659,0,0,1,34.649,34.669" transform="translate(-215.291 -253.091)"/>
              <path id="Trazado_884739" data-name="Trazado 884739" d="M491.927,609.812l5.1-29.3L428.714,568.62l-7.168,41.192Z" transform="translate(-208.463 -281.194)"/>
              <path id="Trazado_884740" data-name="Trazado 884740" d="M385.919,547.685a34.649,34.649,0,1,1-34.649-34.669,34.659,34.659,0,0,1,34.649,34.669" transform="translate(-156.575 -253.697)" fill="#002cb3"/>
              <path id="Trazado_884741" data-name="Trazado 884741" d="M391.913,610.738l-6.607-40.245-68.423,11.232,4.763,29.013Z" transform="translate(-156.705 -282.12)" fill="#002cb3"/>
              <path id="Trazado_884742" data-name="Trazado 884742" d="M270.206,513.016H160.619l-7.307,69.339H270.206Z" transform="translate(-75.816 -253.696)" fill="#002cb3"/>
              <rect id="Rectángulo_403735" data-name="Rectángulo 403735" width="2.022" height="32.653" transform="translate(157.811 294.76) rotate(-9.82)"/>
              <rect id="Rectángulo_403736" data-name="Rectángulo 403736" width="116.637" height="2.022" transform="translate(77.753 258.308)"/>
              <path id="Trazado_884743" data-name="Trazado 884743" d="M218.873,542.509H147.609a29.279,29.279,0,0,1-9.481-56.978l.655,1.913a27.257,27.257,0,0,0,8.827,53.043h71.265Z" transform="translate(-58.519 -240.105)"/>
              <path id="Trazado_884744" data-name="Trazado 884744" d="M276.49,203.953a11.8,11.8,0,0,1-1.91-.156,11.581,11.581,0,1,1,1.91.156m-.03-21.228a9.605,9.605,0,1,0,1.562.128,9.617,9.617,0,0,0-1.562-.128" transform="translate(-130.969 -89.361)"/>
              <path id="Trazado_884745" data-name="Trazado 884745" d="M239.685,103.636A32.238,32.238,0,1,1,213.1,66.6a32.238,32.238,0,0,1,26.582,37.04" transform="translate(-86.853 -32.72)"/>
              <rect id="Rectángulo_403737" data-name="Rectángulo 403737" width="48.186" height="27.831" transform="matrix(0.039, -0.999, 0.999, 0.039, 106.002, 137.667)" fill="#ffaf7b"/>
              <path id="Trazado_884746" data-name="Trazado 884746" d="M239.942,211.019l-26.534-33.924,27.811,1.081Z" transform="translate(-105.534 -87.577)"/>
              <path id="Trazado_884747" data-name="Trazado 884747" d="M250,106.313c1.821,16.763-2.925,40.524-25.437,39.649-20.142-.783-25.157-24.4-24.5-41.249s45.575-38.574,49.94,1.6" transform="translate(-98.906 -41.294)" fill="#ffaf7b"/>
              <path id="Trazado_884748" data-name="Trazado 884748" d="M279.73,147.77c1.082.042,1.909,1.393,1.846,3.016s-.992,2.905-2.074,2.864-1.909-1.393-1.846-3.016.992-2.906,2.074-2.864" transform="translate(-137.305 -73.075)"/>
              <path id="Trazado_884749" data-name="Trazado 884749" d="M282.117,139.307l-8.95-.347a5.88,5.88,0,0,1,8.95.347" transform="translate(-135.087 -67.779)"/>
              <path id="Trazado_884750" data-name="Trazado 884750" d="M244.421,146.4c1.082.042,1.908,1.393,1.845,3.017s-.991,2.905-2.074,2.864-1.909-1.393-1.846-3.016.992-2.906,2.074-2.864" transform="translate(-119.844 -72.396)"/>
              <path id="Trazado_884751" data-name="Trazado 884751" d="M246.807,137.935l-8.95-.348a5.88,5.88,0,0,1,8.95.348" transform="translate(-117.625 -67.1)"/>
              <path id="Trazado_884752" data-name="Trazado 884752" d="M264.967,161.345l-.366-1.989c2.8-.516,3.123-1.162,3.125-1.168-.034-.312-1.075-1.118-2.005-1.426a1.011,1.011,0,0,1-.688-1.053l.441-4.719,2.013.188-.372,3.983c1.129.556,2.73,1.681,2.626,3.182-.133,1.928-2.788,2.636-4.773,3" transform="translate(-130.85 -74.668)"/>
              <path id="Trazado_884753" data-name="Trazado 884753" d="M263.408,175.123c-.167,1.126-3.867,4.287-8.224-1.286" transform="translate(-126.194 -85.966)" fill="#ffaf7b"/>
              <path id="Trazado_884754" data-name="Trazado 884754" d="M258.584,173.97A30.79,30.79,0,0,1,247,171.7l.764-1.872a28.73,28.73,0,0,0,12.086,2.089l.092,2.02q-.68.03-1.362.031" transform="translate(-122.148 -83.985)"/>
              <path id="Trazado_884755" data-name="Trazado 884755" d="M188.042,145.589a7.773,7.773,0,1,0,8.069-7.465,7.772,7.772,0,0,0-8.069,7.465" transform="translate(-92.988 -68.302)" fill="#ffaf7b"/>
              <path id="Trazado_884756" data-name="Trazado 884756" d="M200.188,152.817c-2.255-1.464-2.8-3.32-1.755-6.021.541-1.4-1.032-2.238-1.1-2.273l.933-1.794a3.845,3.845,0,0,1,2.053,4.8c-.7,1.819-.475,2.659.97,3.6Z" transform="translate(-97.586 -70.582)"/>
              <path id="Trazado_884757" data-name="Trazado 884757" d="M190.369,86.215a32.774,32.774,0,0,1,20.047-11.666c11.141-1.67,24.822,8.493,24.822,8.493-13.093,16.517-32.082,25.67-53.073,27.57.658-8.462,2.8-17.848,8.2-24.4" transform="translate(-90.084 -36.774)"/>
              <path id="Trazado_884758" data-name="Trazado 884758" d="M179.093,30.31A26.076,26.076,0,1,1,157.592.35a26.075,26.075,0,0,1,21.5,29.96" transform="translate(-62.944 0)"/>
              <path id="Trazado_884759" data-name="Trazado 884759" d="M179.79,188.057a11.8,11.8,0,0,1-1.91-.157,11.572,11.572,0,1,1,1.91.157m-.03-21.228a9.61,9.61,0,1,0,1.563.128,9.616,9.616,0,0,0-1.563-.128" transform="translate(-83.148 -81.5)"/>
              <rect id="Rectángulo_403738" data-name="Rectángulo 403738" width="31.171" height="36.315" transform="matrix(0.036, -0.999, 0.999, 0.036, 100.874, 150.618)" fill="#fff"/>
              <rect id="Rectángulo_403739" data-name="Rectángulo 403739" width="11.674" height="2.022" transform="translate(104.704 131.402) rotate(-87.923)"/>
              <rect id="Rectángulo_403740" data-name="Rectángulo 403740" width="11.674" height="2.022" transform="translate(114.211 131.746) rotate(-87.923)"/>
              <rect id="Rectángulo_403741" data-name="Rectángulo 403741" width="11.674" height="2.022" transform="translate(123.718 132.09) rotate(-87.923)"/>
              <rect id="Rectángulo_403742" data-name="Rectángulo 403742" width="11.675" height="2.022" transform="translate(133.225 132.434) rotate(-87.923)"/>
              <path id="Trazado_884760" data-name="Trazado 884760" d="M352.465,300.962a21.037,21.037,0,1,1-22.273-19.723,21.037,21.037,0,0,1,22.273,19.723" transform="translate(-153.513 -139.059)" fill="#fff"/>
              <path id="Trazado_884761" data-name="Trazado 884761" d="M418.72,389.667l12.052-10.414-33.318-35.96L366.187,372.1l14.174,15.383a27.611,27.611,0,0,0,38.359,2.183" transform="translate(-181.087 -169.765)" fill="#ffaf7b"/>
              <rect id="Rectángulo_403743" data-name="Rectángulo 403743" width="42.515" height="40.912" transform="matrix(0.735, -0.678, 0.678, 0.735, 161.6, 176.83)" fill="#fff"/>
              <path id="Trazado_884762" data-name="Trazado 884762" d="M226.144,384.393l9.674-81.595-3.094-30.937-59.92-8.773-60.868,1.448.634,113.3Z" transform="translate(-55.354 -130.103)" fill="#fff"/>
              <rect id="Rectángulo_403744" data-name="Rectángulo 403744" width="89.555" height="2.022" transform="matrix(0.109, -0.994, 0.994, 0.109, 169.794, 254.181)"/>
              <rect id="Rectángulo_403745" data-name="Rectángulo 403745" width="2.022" height="84.323" transform="translate(56.014 163.417) rotate(-0.13)"/>
              <path id="Trazado_884763" data-name="Trazado 884763" d="M179.948,344.54l-31.422,34.094-37.22-41L145.15,306.6Z" transform="translate(-55.043 -151.619)" fill="#ffaf7b"/>
              <path id="Trazado_884764" data-name="Trazado 884764" d="M146.391,304.9l-36.452,33.017L78.107,300.5l34.895-32Z" transform="translate(-38.626 -132.775)" fill="#fff"/>
              <path id="Trazado_884765" data-name="Trazado 884765" d="M112.658,286.792a21.037,21.037,0,1,1-21.037-21.037,21.037,21.037,0,0,1,21.037,21.037" transform="translate(-34.905 -131.421)" fill="#fff"/>
              <path id="Trazado_884766" data-name="Trazado 884766" d="M141.1,338l-1.369-1.488L174.843,304.2l-32.12-35.7,1.5-1.352L177.015,303.6a1.011,1.011,0,0,1-.067,1.42Z" transform="translate(-69.098 -132.114)"/>
              <path id="Trazado_884767" data-name="Trazado 884767" d="M405.239,345.574h0a6.15,6.15,0,0,1-1.723,8.075L392.1,361.882,369.62,347.714l29.047-5.076a6.151,6.151,0,0,1,6.571,2.936" transform="translate(-182.784 -169.378)" fill="#ffaf7b"/>
              <path id="Trazado_884768" data-name="Trazado 884768" d="M361.322,384.772a19.957,19.957,0,1,0-3.012-28.062,19.957,19.957,0,0,0,3.012,28.062" transform="translate(-175.006 -172.725)" fill="#ffaf7b"/>
              <path id="Trazado_884769" data-name="Trazado 884769" d="M438.288,375.628h0c-1.354,2.275-4.628,2.83-7.327,1.24L413.2,366.4l-3.566-13.453,26.223,15.637c2.7,1.607,3.792,4.762,2.433,7.045" transform="translate(-202.571 -174.539)" fill="#ffaf7b"/>
              <path id="Trazado_884770" data-name="Trazado 884770" d="M407.076,421h0c-1.354,2.275-4.628,2.83-7.327,1.24l-13.8-8.109,4.881-8.428,13.808,8.251c2.7,1.607,3.792,4.762,2.433,7.045" transform="translate(-190.861 -200.629)" fill="#ffaf7b"/>
              <path id="Trazado_884771" data-name="Trazado 884771" d="M405.987,431.562a7.23,7.23,0,0,1-3.66-1.017l-10.484-6.139,1.022-1.744,10.486,6.14c2.177,1.281,4.813.866,5.879-.925s.169-4.322-2.012-5.619l1.034-1.738c3.139,1.868,4.358,5.632,2.716,8.391a5.675,5.675,0,0,1-4.98,2.651" transform="translate(-193.774 -207.956)"/>
              <path id="Trazado_884772" data-name="Trazado 884772" d="M423.88,410.631h0c-1.354,2.275-4.628,2.83-7.327,1.24L398.79,401.4l4.881-8.428,17.776,10.612c2.7,1.607,3.792,4.762,2.433,7.045" transform="translate(-197.21 -194.333)" fill="#ffaf7b"/>
              <path id="Trazado_884773" data-name="Trazado 884773" d="M419.683,413.2a7.226,7.226,0,0,1-3.66-1.017L398.506,401.86l1.027-1.741,17.516,10.322c2.175,1.279,4.811.865,5.877-.927a3.467,3.467,0,0,0,.237-2.924,5.069,5.069,0,0,0-2.249-2.695l-17.53-10.465,1.037-1.736,17.529,10.464a7.087,7.087,0,0,1,3.13,3.785,5.457,5.457,0,0,1-.415,4.6,5.676,5.676,0,0,1-4.981,2.652" transform="translate(-197.069 -193.701)"/>
              <path id="Trazado_884774" data-name="Trazado 884774" d="M433,376.646a7.228,7.228,0,0,1-3.66-1.017l-17.517-10.323,1.027-1.741,17.516,10.322c2.174,1.279,4.812.865,5.877-.927a3.469,3.469,0,0,0,.237-2.924,5.07,5.07,0,0,0-2.25-2.695l-27.085-17.1,1.079-1.71,27.062,17.087a7.066,7.066,0,0,1,3.109,3.772,5.456,5.456,0,0,1-.415,4.6A5.676,5.676,0,0,1,433,376.646" transform="translate(-201.344 -172.356)"/>
              <path id="Trazado_884775" data-name="Trazado 884775" d="M436.8,397.948h0c-1.354,2.276-4.628,2.83-7.327,1.24l-21.731-12.829,4.882-8.428L434.363,390.9c2.7,1.607,3.792,4.762,2.433,7.045" transform="translate(-201.635 -186.894)" fill="#ffaf7b"/>
              <path id="Trazado_884776" data-name="Trazado 884776" d="M432.544,400.483a7.228,7.228,0,0,1-3.66-1.017l-21.43-12.65,1.028-1.741,21.429,12.65c2.175,1.281,4.811.865,5.876-.927a3.467,3.467,0,0,0,.238-2.924,5.07,5.07,0,0,0-2.25-2.695l-21.441-12.792,1.036-1.736,21.44,12.791a7.09,7.09,0,0,1,3.131,3.786,5.456,5.456,0,0,1-.415,4.6,5.676,5.676,0,0,1-4.98,2.652" transform="translate(-201.494 -186.261)"/>
              <path id="Trazado_884777" data-name="Trazado 884777" d="M193.247,419.445a21.837,21.837,0,1,0-19.967-23.56,21.837,21.837,0,0,0,19.967,23.56" transform="translate(-85.654 -185.862)" fill="#ffaf7b"/>
              <path id="Trazado_884778" data-name="Trazado 884778" d="M292.161,353.336l6.679,32.889-81.892,21.79-8.692-42.8Z" transform="translate(-102.987 -174.732)" fill="#ffaf7b"/>
              <rect id="Rectángulo_403746" data-name="Rectángulo 403746" width="84.742" height="2.022" transform="translate(105.127 189.484) rotate(-8.061)"/>
              <path id="Trazado_884779" data-name="Trazado 884779" d="M460.524,420.13H380.644v-6.708l79.879-4.942Z" transform="translate(-188.236 -202.001)"/>
              <path id="Trazado_884780" data-name="Trazado 884780" d="M572.234,306.774H436.322l8.6-98.357H580.84Z" transform="translate(-215.77 -103.067)" fill="#ff443d"/>
              <path id="Trazado_884781" data-name="Trazado 884781" d="M564.581,351.368h-22.4l8.066-52.775Z" transform="translate(-268.117 -147.66)"/>
              <path id="Trazado_884782" data-name="Trazado 884782" d="M595.322,366.335H568.228L558.863,299.7h27.094Z" transform="translate(-276.369 -148.207)"/>
              <path id="Trazado_884783" data-name="Trazado 884783" d="M689.618,549.9l-9.393-107.36H663.039L675.072,549.9Z" transform="translate(-327.886 -218.845)"/>
              <path id="Trazado_884784" data-name="Trazado 884784" d="M283.425,549.9l12.033-107.36H278.272L268.88,549.9Z" transform="translate(-132.966 -218.845)"/>
              <rect id="Rectángulo_403747" data-name="Rectángulo 403747" width="283.142" height="13.338" transform="translate(107.252 214.803)" fill="#ff443d"/>
              <rect id="Rectángulo_403748" data-name="Rectángulo 403748" width="98.992" height="2.022" transform="matrix(0.081, -0.997, 0.997, 0.081, 227.367, 204.2)" fill="#fff"/>
            </g>
          </g>
        </g>
        <g id="Grupo_1102846" data-name="Grupo 1102846" transform="translate(-33.406 81.234)">
          <g id="Grupo_1102846-2" data-name="Grupo 1102846" transform="translate(3 -74)" clip-path="url(#clip-path-4)">
            <path id="Trazado_884596" data-name="Trazado 884596" d="M25.363,71.265s1.165.006,3.2.05,4.946.1,8.434.223,7.558.268,11.916.469l6.717.324,6.933.371,6.931.415,6.711.438L82.48,74l5.62.432c3.48.272,6.377.553,8.406.725,1.014.085,1.81.175,2.354.226l.833.082a.594.594,0,0,1-.068,1.185l-.836-.012c-.546-.011-1.347-.012-2.365-.041-2.035-.058-4.946-.1-8.434-.226l-5.632-.2L76.074,75.9l-6.717-.321-6.933-.368L55.492,74.8l-6.711-.434c-4.353-.292-8.414-.593-11.893-.876s-6.376-.557-8.405-.729S25.3,72.45,25.3,72.45a.594.594,0,0,1,.067-1.185" transform="translate(-11.168 -32.137)" fill="#00ffdf"/>
            <path id="Trazado_884597" data-name="Trazado 884597" d="M89.486,76.627s-.212-1.179-.551-3.248-.83-5.023-1.363-8.574-1.154-7.7-1.773-12.143c-.305-2.223-.62-4.521-.941-6.856s-.622-4.71-.935-7.084-.6-4.75-.892-7.089-.559-4.643-.829-6.871-.5-4.385-.74-6.429-.434-3.98-.629-5.766C80.448,9,80.182,6.011,79.97,3.927c-.094-1.044-.169-1.864-.22-2.423s-.075-.858-.075-.858A.594.594,0,0,1,80.853.494L81,1.342c.093.554.23,1.366.4,2.4.325,2.07.825,5.024,1.359,8.576l.856,5.736c.292,2.037.6,4.185.918,6.407s.623,4.521.944,6.856l.937,7.083c.3,2.375.6,4.75.895,7.089s.561,4.642.831,6.871c.53,4.458,1,8.622,1.369,12.195s.648,6.555.86,8.639.293,3.282.293,3.282a.594.594,0,0,1-1.178.152" transform="translate(-35.929 0)" fill="#00ffdf"/>
            <path id="Trazado_884598" data-name="Trazado 884598" d="M74.412,81.253s-.583.239-1.425.631c-.422.2-.921.407-1.443.674L69.9,83.37c-.562.27-1.115.559-1.627.842l-1.407.759-1.373.741-.015.008a.465.465,0,1,1-.443-.819l0,0,1.39-.737,1.425-.755c.518-.282,1.078-.569,1.648-.837l1.664-.807c.527-.264,1.042-.474,1.471-.673.865-.395,1.443-.626,1.443-.626l.009,0a.428.428,0,0,1,.321.793" transform="translate(-29.218 -36.27)" fill="#fcfefd"/>
            <path id="Trazado_884599" data-name="Trazado 884599" d="M25.817,109.445l-.625.558c-.39.359-.984.852-1.629,1.48l-1.06,1c-.374.358-.753.757-1.153,1.156s-.812.818-1.209,1.261l-1.218,1.329-1.17,1.37c-.395.444-.739.917-1.093,1.358s-.7.866-.993,1.294l-.852,1.185c-.535.729-.915,1.38-1.212,1.815l-.451.694-.016.024a.611.611,0,1,1-1.023-.666l0,0,.468-.707c.307-.444.7-1.107,1.254-1.848l.88-1.2c.3-.434.668-.858,1.023-1.312s.72-.926,1.125-1.376.8-.922,1.2-1.386l1.249-1.344c.407-.447.829-.867,1.238-1.272s.8-.8,1.181-1.167l1.09-1.018c.67-.641,1.254-1.118,1.651-1.478l.63-.552a.538.538,0,0,1,.713.805" transform="translate(-5.417 -48.931)" fill="#fcfefd"/>
            <path id="Trazado_884600" data-name="Trazado 884600" d="M1.514,168.758s-.02.3-.054.836c-.017.266-.038.589-.062.959s-.03.78-.032,1.225-.005.927-.009,1.437c.026.514.054,1.056.083,1.617s.087,1.138.151,1.725.109,1.184.224,1.774c.1.591.2,1.182.3,1.765l.377,1.693q.092.412.182.808l.217.764.4,1.4c.112.436.27.82.381,1.169s.222.648.307.9l.268.782.012.035a.7.7,0,1,1-1.32.452h0l-.273-.8-.314-.923c-.114-.359-.274-.752-.389-1.2l-.405-1.441-.22-.787-.186-.833c-.125-.566-.253-1.151-.384-1.745l-.3-1.823C.343,177.926.3,177.306.232,176.7s-.137-1.2-.152-1.783-.055-1.14-.081-1.672c0-.537.009-1.045.013-1.513s0-.9.037-1.267.047-.693.065-.959l.056-.836a.673.673,0,0,1,1.344.088" transform="translate(0 -75.778)" fill="#fcfefd"/>
            <path id="Trazado_884601" data-name="Trazado 884601" d="M26.066,231.668l.72.427c.232.147.5.28.814.434l.5.247.579.244c.4.184.853.322,1.325.49.482.139.988.3,1.527.407.269.054.541.119.82.168l.849.127c.285.048.578.059.87.091s.585.053.881.059c.589.035,1.18.028,1.763.02.583-.026,1.157-.044,1.712-.1,1.111-.091,2.144-.256,3.026-.411.443-.069.844-.167,1.2-.236s.668-.144.923-.206l.8-.191.02,0a.748.748,0,1,1,.345,1.456h0l-.828.194c-.264.063-.583.139-.954.21s-.785.17-1.246.242c-.917.159-1.993.328-3.16.421-.581.059-1.189.078-1.8.1-.617.007-1.244.013-1.872-.026-.314-.008-.628-.031-.94-.065s-.624-.049-.931-.1l-.913-.139c-.3-.054-.594-.124-.885-.183-.58-.118-1.13-.292-1.652-.445-.513-.183-1.006-.336-1.44-.536l-.629-.268-.561-.281c-.354-.178-.662-.334-.88-.474l-.72-.428a.723.723,0,0,1,.738-1.244" transform="translate(-11.262 -104.425)" fill="#fcfefd"/>
            <path id="Trazado_884602" data-name="Trazado 884602" d="M92.823,215.293l8.834-4.121,8.9-4.023a.8.8,0,0,1,.658,1.455h0l-.026.012-8.873,3.983-8.844,4.1a.774.774,0,0,1-.651-1.4Z" transform="translate(-41.655 -93.382)" fill="#fcfefd"/>
            <path id="Trazado_884606" data-name="Trazado 884606" d="M253.079,343l-.455.7a8.589,8.589,0,0,1-.6.823l-.4.508-.472.513a13.858,13.858,0,0,1-1.126,1.088c-.205.188-.441.35-.669.532a7.164,7.164,0,0,1-.724.518c-.255.162-.507.34-.776.494l-.825.451a17.188,17.188,0,0,1-1.746.767c-.593.24-1.2.412-1.8.594-.605.145-1.2.313-1.781.406l-.856.155-.823.109c-.535.082-1.042.105-1.51.15s-.9.046-1.276.068-.711.019-.983.02l-.857,0a.818.818,0,0,1-.006-1.637h.027l.819-.006c.261,0,.578,0,.939-.021s.772-.022,1.214-.068.925-.067,1.426-.145l.774-.1.8-.147c.546-.088,1.092-.246,1.652-.38.549-.169,1.112-.328,1.649-.549a15.533,15.533,0,0,0,1.579-.7l.738-.406c.24-.138.463-.3.69-.443a6.009,6.009,0,0,0,.642-.462c.2-.163.411-.305.591-.472a12.551,12.551,0,0,0,.992-.964l.416-.452.329-.426a6.81,6.81,0,0,0,.53-.734l.454-.7a.843.843,0,0,1,1.418.912Z" transform="translate(-105.787 -154.088)" fill="#fcfefd"/>
            <path id="Trazado_884607" data-name="Trazado 884607" d="M185.437,345.022l-2.894-.952-1.4-.461c-.5-.154-1.019-.367-1.56-.559L176.2,341.8l-3.337-1.339c-1.069-.418-2.051-.844-2.892-1.211l-2.807-1.214a.769.769,0,1,1,.611-1.412l.015.007,2.789,1.2c.835.363,1.811.782,2.872,1.194l3.31,1.319,3.335,1.218c.535.189,1.039.395,1.542.549l1.4.458,2.9.945a.794.794,0,0,1-.491,1.51Z" transform="translate(-75.171 -151.773)" fill="#fcfefd"/>
            <path id="Trazado_884608" data-name="Trazado 884608" d="M120.121,317.637l-.759-.354c-.483-.216-1.173-.566-2-.913l-1.337-.562c-.471-.208-.984-.393-1.513-.592s-1.071-.416-1.634-.6l-1.706-.564c-.571-.19-1.155-.338-1.722-.507l-.847-.243-.835-.2-1.581-.379-1.428-.283c-.882-.192-1.63-.274-2.148-.363l-.817-.126-.031,0a.72.72,0,0,1,.218-1.424l.839.127c.533.09,1.3.173,2.208.367l1.467.288,1.623.384.857.206.868.247c.583.171,1.182.323,1.767.515l1.748.574c.578.188,1.13.413,1.674.61s1.066.39,1.555.6l1.385.578c.858.358,1.529.7,2.019.915l.76.352a.745.745,0,0,1-.626,1.352Z" transform="translate(-45.614 -140.025)" fill="#fcfefd"/>
            <path id="Trazado_884609" data-name="Trazado 884609" d="M54.059,314.8l-.786.289-.9.332-.555.2c-.19.077-.38.169-.583.258l-1.307.585c-.468.2-.933.484-1.43.737a17.077,17.077,0,0,0-1.5.852L45.49,319l-1.434,1.055c-.486.332-.906.732-1.335,1.09s-.855.695-1.206,1.071l-1.026,1.017a10.576,10.576,0,0,0-.832.894l-.619.71-.539.619-.032.037a.671.671,0,0,1-1.013-.88l.558-.646.642-.741a11.569,11.569,0,0,1,.864-.933l1.066-1.062c.365-.391.819-.73,1.252-1.119s.885-.79,1.389-1.138l1.492-1.1,1.565-1c.508-.343,1.046-.613,1.559-.891s1-.563,1.493-.774l1.385-.623c.215-.094.421-.192.615-.272l.555-.205.9-.334.785-.29a.7.7,0,0,1,.484,1.3Z" transform="translate(-16.816 -141.349)" fill="#fcfefd"/>
            <path id="Trazado_884610" data-name="Trazado 884610" d="M26.6,366.44s.045.3.125.829c.04.263.087.583.143.95.03.182.05.383.094.581s.105.4.162.607l.361,1.369c.15.484.358.987.545,1.512l.295.8q.184.392.372.791c.26.528.486,1.082.78,1.6l.883,1.555c.284.517.634.986.935,1.462s.6.932.92,1.339L33.084,381c.536.727,1.047,1.285,1.374,1.7l.529.639.016.019a.536.536,0,0,1-.822.686l-.545-.647c-.338-.42-.861-.985-1.416-1.725l-.9-1.19c-.331-.415-.631-.888-.955-1.368s-.674-.966-.973-1.5l-.924-1.6c-.306-.538-.549-1.113-.821-1.659l-.393-.819q-.16-.422-.315-.832c-.2-.549-.419-1.067-.583-1.582l-.4-1.481c-.061-.23-.121-.45-.176-.659s-.068-.4-.1-.585c-.058-.367-.108-.687-.149-.95-.083-.527-.131-.827-.131-.827a.607.607,0,0,1,1.2-.189Z" transform="translate(-11.45 -165.013)" fill="#fcfefd"/>
            <path id="Trazado_884611" data-name="Trazado 884611" d="M68.681,420.9l1.293.884,1.326.906c.482.338,1,.68,1.531,1.009l1.543.981c.49.317.966.584,1.365.828.8.486,1.341.783,1.341.783a.428.428,0,0,1-.41.752s-.561-.3-1.37-.787c-.405-.243-.888-.51-1.387-.827l-1.571-.983c-.539-.331-1.068-.671-1.55-1l-1.333-.9-1.3-.875a.464.464,0,1,1,.519-.77Z" transform="translate(-30.644 -189.769)" fill="#fcfefd"/>
            <path id="Trazado_884612" data-name="Trazado 884612" d="M116.11,473.014l1.737-1.667a52.591,52.591,0,0,0,4.406-5.05,40.662,40.662,0,0,0,2.64-3.979,32.1,32.1,0,0,0,2.418-5.055,26.837,26.837,0,0,0-.3-20.47,29.861,29.861,0,0,0-4.2-6.958,34.036,34.036,0,0,0-14.067-10.256,34.58,34.58,0,0,0-8.97-2.221,32.133,32.133,0,0,0-4.7-.211c-.79,0-1.578.083-2.369.133-.786.1-1.579.17-2.361.322a34.289,34.289,0,0,0-9.133,2.91,39.318,39.318,0,0,0-8.115,5.305c-.614.534-1.246,1.047-1.826,1.62l-.888.838-.849.881-.435.452-.394.45-.782.9c-.489.64-1.018,1.251-1.464,1.921a29.545,29.545,0,0,0-4.257,8.527,29.909,29.909,0,0,0,.38,18.347,35.05,35.05,0,0,0,9.589,14.56,32.728,32.728,0,0,0,13.754,7.527,28.774,28.774,0,0,0,13.274.271,30.274,30.274,0,0,0,5.347-1.645,33.962,33.962,0,0,0,4.277-2.1,41.92,41.92,0,0,0,5.5-3.814c.6-.488,1.039-.892,1.345-1.151l.459-.4Zm.81.867-.467.412c-.312.267-.757.684-1.371,1.19a43.037,43.037,0,0,1-5.641,3.969,35.282,35.282,0,0,1-4.416,2.206,31.618,31.618,0,0,1-5.556,1.753,31.1,31.1,0,0,1-13.907-.138,34.36,34.36,0,0,1-14.578-7.637,35.814,35.814,0,0,1-11.71-19.911,32.752,32.752,0,0,1-.605-4.948,28.407,28.407,0,0,1,.2-5.054,28.891,28.891,0,0,1,1.056-5,31.95,31.95,0,0,1,4.531-9.246c.477-.723,1.035-1.383,1.558-2.073.571-.65,1.143-1.371,1.72-1.949l.887-.932.931-.893c.609-.607,1.273-1.157,1.92-1.727a40.514,40.514,0,0,1,8.673-5.6,36.7,36.7,0,0,1,9.8-3.045c.839-.156,1.688-.225,2.531-.326.847-.049,1.692-.131,2.537-.126a34.335,34.335,0,0,1,5.027.263,36.835,36.835,0,0,1,9.5,2.54,35.989,35.989,0,0,1,14.673,11.12,31.547,31.547,0,0,1,4.3,7.44,28.9,28.9,0,0,1,1.951,7.79,29.763,29.763,0,0,1-1.917,13.782,33.419,33.419,0,0,1-2.548,5.231,42.012,42.012,0,0,1-2.755,4.086,53.834,53.834,0,0,1-4.573,5.164l-1.749,1.654Z" transform="translate(-26.44 -187.052)" fill="#00a99c"/>
          </g>
        </g>
        <g id="Grupo_1102886" data-name="Grupo 1102886" transform="translate(93.272 -3.177)">
          <g id="Grupo_1102885" data-name="Grupo 1102885" clip-path="url(#clip-path-5)">
            <path id="Trazado_884785" data-name="Trazado 884785" d="M406.183,170.6H372.839a25.543,25.543,0,0,0-25.468,25.468h0a25.543,25.543,0,0,0,25.4,25.466v17.326l25.121-17.325h8.289a25.543,25.543,0,0,0,25.468-25.468h0A25.543,25.543,0,0,0,406.183,170.6" transform="translate(-212.525 -104.375)" fill="#fff"/>
            <path id="Trazado_884786" data-name="Trazado 884786" d="M503.064,232.445a6.533,6.533,0,1,1,6.532-6.532,6.532,6.532,0,0,1-6.532,6.532" transform="translate(-303.783 -134.219)" fill="#ff443d"/>
            <path id="Trazado_884787" data-name="Trazado 884787" d="M445.631,232.445a6.533,6.533,0,1,1,6.532-6.532,6.532,6.532,0,0,1-6.532,6.532" transform="translate(-268.645 -134.219)" fill="#ff443d"/>
            <path id="Trazado_884788" data-name="Trazado 884788" d="M388.2,232.445a6.533,6.533,0,1,1,6.532-6.532,6.532,6.532,0,0,1-6.532,6.532" transform="translate(-233.508 -134.219)" fill="#ff443d"/>
            <path id="Trazado_884789" data-name="Trazado 884789" d="M55.7,96.709a.775.775,0,0,1-.441-.137l-23.777-16.4H20.866A20.889,20.889,0,0,1,0,59.308V20.866A20.889,20.889,0,0,1,20.866,0H59.308A20.889,20.889,0,0,1,80.174,20.866V59.308A20.889,20.889,0,0,1,59.308,80.174H56.477V95.932a.777.777,0,0,1-.776.776M20.866,1.553A19.335,19.335,0,0,0,1.553,20.866V59.308A19.335,19.335,0,0,0,20.866,78.621H31.724a.775.775,0,0,1,.441.137l22.759,15.7V79.4a.776.776,0,0,1,.776-.776h3.607A19.335,19.335,0,0,0,78.621,59.308V20.866A19.335,19.335,0,0,0,59.308,1.553Z" transform="translate(34 12)" fill="#fff"/>
            <g id="bar-chart_1807335" transform="translate(44.296 21.816)">
              <path id="Trazado_890689" data-name="Trazado 890689" d="M181,0h10.578V30.089H181Zm0,0" transform="translate(-159.726)" fill="#64e1dc"/>
              <path id="Trazado_890690" data-name="Trazado 890690" d="M10.7,256v15.867H0v-14.1L1.939,256Zm0,0" transform="translate(0 -225.911)" fill="#fdbf00"/>
              <path id="Trazado_890691" data-name="Trazado 890691" d="M301,61h10.578V83.919H301Zm0,0" transform="translate(-265.622 -53.83)" fill="#64e1dc"/>
              <path id="Trazado_890692" data-name="Trazado 890692" d="M241,256h10.578v30.089H241Zm0,0" transform="translate(-212.674 -225.911)" fill="#fdbf00"/>
              <path id="Trazado_890693" data-name="Trazado 890693" d="M121,256h10.578v22.919H121Zm0,0" transform="translate(-106.778 -225.911)" fill="#fdbf00"/>
              <path id="Trazado_890694" data-name="Trazado 890694" d="M431.7,121v14.1l-3.22,1.763H421V121Zm0,0" transform="translate(-371.518 -106.778)" fill="#64e1dc"/>
              <path id="Trazado_890695" data-name="Trazado 890695" d="M46,256h5.289v15.867H46Zm0,0" transform="translate(-40.593 -225.911)" fill="#ff9100"/>
              <path id="Trazado_890696" data-name="Trazado 890696" d="M166,256h5.289v22.919H166Zm0,0" transform="translate(-146.489 -225.911)" fill="#ff9100"/>
              <g id="Grupo_1105249" data-name="Grupo 1105249" transform="translate(26.563)">
                <path id="Trazado_890697" data-name="Trazado 890697" d="M226,0h5.289V30.089H226Zm0,0" transform="translate(-226)" fill="#00c8c8"/>
                <path id="Trazado_890698" data-name="Trazado 890698" d="M346,61h5.289V83.919H346Zm0,0" transform="translate(-331.896 -53.83)" fill="#00c8c8"/>
                <path id="Trazado_890699" data-name="Trazado 890699" d="M471.407,121v14.1l-3.22,1.763H466V121Zm0,0" transform="translate(-437.792 -106.778)" fill="#00c8c8"/>
              </g>
              <path id="Trazado_890700" data-name="Trazado 890700" d="M17.968,4.406,12.459,0,6.949,4.406l2.2,2.755L10.7,5.925V15.985a5.3,5.3,0,0,1-5.289,5.289H0V24.8H5.407a8.826,8.826,0,0,0,8.815-8.815V5.925L15.764,7.16Zm0,0" fill="#b0c0d2"/>
              <path id="Trazado_890701" data-name="Trazado 890701" d="M0,241H60.178v3.526H0Zm0,0" transform="translate(0 -212.674)" fill="#727997"/>
              <path id="Trazado_890702" data-name="Trazado 890702" d="M371.686,301a8.826,8.826,0,0,0-8.815,8.815v10.059l-1.543-1.235-2.2,2.755,5.509,4.406,5.509-4.406-2.2-2.755-1.543,1.235V309.815a5.3,5.3,0,0,1,5.289-5.289h5.407V301Zm0,0" transform="translate(-316.915 -265.622)" fill="#b0c0d2"/>
              <path id="Trazado_890703" data-name="Trazado 890703" d="M286,256h5.289v30.089H286Zm0,0" transform="translate(-252.385 -225.911)" fill="#ff9100"/>
              <path id="Trazado_890704" data-name="Trazado 890704" d="M286,241h26.563v3.526H286Zm0,0" transform="translate(-252.385 -212.674)" fill="#b0c0d2"/>
            </g>
          </g>
        </g>
      </g>
    </g>
  </g>
</svg>
