<svg xmlns="http://www.w3.org/2000/svg" xmlns:xlink="http://www.w3.org/1999/xlink" width="295" height="180.666" viewBox="0 0 295 180.666">
  <defs>
    <filter id="Trazado_884790" x="71.211" y="0" width="137.415" height="137.415" filterUnits="userSpaceOnUse">
      <feOffset dy="1" input="SourceAlpha"/>
      <feGaussianBlur stdDeviation="5.5" result="blur"/>
      <feFlood flood-color="#fff" flood-opacity="0.902"/>
      <feComposite operator="in" in2="blur"/>
      <feComposite in="SourceGraphic"/>
    </filter>
  </defs>
  <g id="Grupo_1105699" data-name="Grupo 1105699" transform="translate(0 7.666)">
    <g id="Grupo_1102897" data-name="Grupo 1102897">
      <rect id="Rectángulo_400902" data-name="Rectángulo 400902" width="295" height="37" rx="11" transform="translate(0 113)" fill="#f0c518"/>
      <rect id="Rectángulo_400903" data-name="Rectángulo 400903" width="249" height="164" rx="11" transform="translate(23)" fill="#3a1d71"/>
      <g id="Grupo_1102898" data-name="Grupo 1102898" transform="translate(87.711 7.834)">
        <g transform="matrix(1, 0, 0, 1, -87.71, -15.5)" filter="url(#Trazado_884790)">
          <g id="Trazado_884790-2" data-name="Trazado 884790" transform="translate(87.71 15.5)" fill="none">
            <path d="M52.207,0a52.207,52.207,0,1,0,52.207,52.207A52.207,52.207,0,0,0,52.207,0Z" stroke="none"/>
            <path d="M 52.20735168457031 24.00000762939453 C 36.65377807617188 24.00000762939453 24.00000762939453 36.65377807617188 24.00000762939453 52.20735168457031 C 24.00000762939453 67.76092529296875 36.65377807617188 80.41469573974609 52.20735168457031 80.41469573974609 C 67.76092529296875 80.41469573974609 80.41469573974609 67.76092529296875 80.41469573974609 52.20735168457031 C 80.41469573974609 36.65377807617188 67.76092529296875 24.00000762939453 52.20735168457031 24.00000762939453 M 52.20735168457031 7.62939453125e-06 C 81.04069519042969 7.62939453125e-06 104.4146957397461 23.37400817871094 104.4146957397461 52.20735168457031 C 104.4146957397461 81.04065704345703 81.04069519042969 104.4146957397461 52.20735168457031 104.4146957397461 C 23.37404632568359 104.4146957397461 7.62939453125e-06 81.04065704345703 7.62939453125e-06 52.20735168457031 C 7.62939453125e-06 23.37400817871094 23.37404632568359 7.62939453125e-06 52.20735168457031 7.62939453125e-06 Z" stroke="none" fill="#fff"/>
          </g>
        </g>
      </g>
      <g id="programador_10_" data-name="programador (10)" transform="translate(57 13.325)">
        <g id="Grupo_1099575" data-name="Grupo 1099575">
          <g id="Grupo_1101537" data-name="Grupo 1101537" transform="translate(141.127 92.206)">
            <path id="Trazado_875239" data-name="Trazado 875239" d="M43.2,229.515a7.392,7.392,0,0,1,7.384,7.384v5.954a7.384,7.384,0,0,1-14.768,0V236.9A7.392,7.392,0,0,1,43.2,229.515Zm-2.7,13.338a2.7,2.7,0,0,0,5.4,0V236.9a2.7,2.7,0,0,0-5.4,0Z" transform="translate(-24.636 -229.515)"/>
            <path id="Trazado_875240" data-name="Trazado 875240" d="M106.281,250.237a2.341,2.341,0,0,1-2.341-2.341V231.856a2.341,2.341,0,1,1,4.683,0V247.9A2.342,2.342,0,0,1,106.281,250.237Z" transform="translate(-103.94 -229.515)"/>
            <path id="Trazado_875241" data-name="Trazado 875241" d="M7.384,311.416a7.392,7.392,0,0,1,7.384,7.384v5.954a7.384,7.384,0,1,1-14.767,0V318.8A7.392,7.392,0,0,1,7.384,311.416Zm-2.7,13.338a2.7,2.7,0,1,0,5.4,0V318.8a2.7,2.7,0,0,0-5.4,0v5.954Z" transform="translate(22.365 -285.847)"/>
            <path id="Trazado_875242" data-name="Trazado 875242" d="M70.463,311.416a2.341,2.341,0,0,1,2.341,2.341V329.8a2.341,2.341,0,1,1-4.683,0V313.757A2.341,2.341,0,0,1,70.463,311.416Z" transform="translate(-56.939 -285.847)"/>
            <path id="Trazado_875243" data-name="Trazado 875243" d="M2.341,250.237A2.341,2.341,0,0,1,0,247.9V231.856a2.341,2.341,0,1,1,4.683,0V247.9A2.341,2.341,0,0,1,2.341,250.237Z" transform="translate(32.45 -229.515)"/>
          </g>
          <g id="Grupo_1101538" data-name="Grupo 1101538" transform="translate(0 60.692)">
            <path id="Trazado_875239-2" data-name="Trazado 875239" d="M43.2,229.515a7.392,7.392,0,0,0-7.384,7.384v5.954a7.384,7.384,0,0,0,14.768,0V236.9A7.392,7.392,0,0,0,43.2,229.515Zm2.7,13.338a2.7,2.7,0,0,1-5.4,0V236.9a2.7,2.7,0,0,1,5.4,0Z" transform="translate(-24.637 -229.515)"/>
            <path id="Trazado_875240-2" data-name="Trazado 875240" d="M106.281,250.237a2.341,2.341,0,0,0,2.341-2.341V231.856a2.341,2.341,0,1,0-4.683,0V247.9A2.342,2.342,0,0,0,106.281,250.237Z" transform="translate(-71.49 -229.515)"/>
            <path id="Trazado_875241-2" data-name="Trazado 875241" d="M7.384,311.416A7.392,7.392,0,0,0,0,318.8v5.954a7.384,7.384,0,1,0,14.768,0V318.8A7.392,7.392,0,0,0,7.384,311.416Zm2.7,13.338a2.7,2.7,0,1,1-5.4,0V318.8a2.7,2.7,0,0,1,5.4,0v5.954Z" transform="translate(0 -285.847)"/>
            <path id="Trazado_875242-2" data-name="Trazado 875242" d="M70.463,311.416a2.341,2.341,0,0,0-2.341,2.341V329.8a2.341,2.341,0,0,0,4.683,0V313.757A2.341,2.341,0,0,0,70.463,311.416Z" transform="translate(-46.855 -285.847)"/>
            <path id="Trazado_875243-2" data-name="Trazado 875243" d="M2.341,250.237A2.341,2.341,0,0,0,4.683,247.9V231.856a2.341,2.341,0,1,0-4.683,0V247.9A2.341,2.341,0,0,0,2.341,250.237Z" transform="translate(0 -229.515)"/>
          </g>
          <g id="Web_Developer" data-name="Web Developer" transform="translate(28.46)">
            <path id="Trazado_878796" data-name="Trazado 878796" d="M12.634,55.889V19.317a3.7,3.7,0,0,1,3.7-3.7H53.914a3.7,3.7,0,0,1,3.664,3.7V67.063a3.68,3.68,0,0,1-3.7,3.68H4.875a1.84,1.84,0,0,1-1.376-3.1l8.289-9.367a3.68,3.68,0,0,0,.846-2.387Z" transform="translate(93.305 10.798)" fill="#619fff"/>
            <path id="Trazado_878797" data-name="Trazado 878797" d="M28.82,120.61h106.4l-5.9-38.644a23.624,23.624,0,0,0-18.236-19.48L82.269,56.07,52.958,62.585a23.608,23.608,0,0,0-18.236,19.5Z" transform="translate(-27.143 37.408)" fill="#ffab57"/>
            <path id="Trazado_878798" data-name="Trazado 878798" d="M54.73,67.338l9.6,17.64,9.914-17.64V49.98H54.73Z" transform="translate(-9.12 33.402)" fill="#ffbf9d"/>
            <path id="Trazado_878799" data-name="Trazado 878799" d="M42.245,42.12h68.187a6.9,6.9,0,1,0,0-13.777H42.245a6.9,6.9,0,0,0,0,13.777Z" transform="translate(-20.972 19.162)" fill="#ffbf9d"/>
            <path id="Trazado_878800" data-name="Trazado 878800" d="M72.714,82.444a30.5,30.5,0,0,0,30.5-30.5V37.964a30.5,30.5,0,1,0-61.009,0V51.94a30.5,30.5,0,0,0,30.5,30.5Z" transform="translate(-17.34 5.43)" fill="#fdb"/>
            <path id="Trazado_878801" data-name="Trazado 878801" d="M42.2,45.342V37.964a30.5,30.5,0,1,1,61.009,0v7.377Z" transform="translate(-17.314 5.43)" fill="#ffc9a2"/>
            <path id="Trazado_878803" data-name="Trazado 878803" d="M39.033,110.73H120.5l6.466-48.343a4.974,4.974,0,0,0-4.974-5.637H37.441a4.974,4.974,0,0,0-4.974,5.637Z" transform="translate(-24.906 37.855)" fill="#dbecff"/>
            <path id="Trazado_878804" data-name="Trazado 878804" d="M78.117,78.2a6.035,6.035,0,0,1-9.383-4.194l-1.044-7.891A2.984,2.984,0,0,1,70.657,62.8H89.125a3.316,3.316,0,0,1,2.023,6.068C86.108,72.567,82.66,75.136,78.117,78.2Z" transform="translate(-48.954 41.833)" fill="#fff"/>
            <path id="Trazado_878805" data-name="Trazado 878805" d="M54.861,62.75a2.984,2.984,0,0,1,2.968,3.316L54.082,94.15a2.984,2.984,0,0,1-2.968,2.6H45.279a6.151,6.151,0,0,1-5.62-8.671A254.142,254.142,0,0,1,50.567,65.088a4.974,4.974,0,0,1,4.294-2.338Z" transform="translate(33.156 41.802)" fill="#fff"/>
            <path id="Trazado_878806" data-name="Trazado 878806" d="M117.833,89.31H36.35v9.433h81.483Z" transform="translate(-22.24 59.275)" fill="#5955a1"/>
            <path id="Trazado_878807" data-name="Trazado 878807" d="M98.3,89.31H44.78v9.433H98.3Z" transform="translate(-16.677 59.275)" fill="#b8c4ff"/>
            <path id="Trazado_878808" data-name="Trazado 878808" d="M54.4,85.6a10.743,10.743,0,1,0,0-16.578,10.743,10.743,0,0,1,0,16.578Z" transform="translate(-6.302 44.315)" fill="#5955a1"/>
            <path id="Trazado_878809" data-name="Trazado 878809" d="M40.673,46.622h67.159V34.884a33.588,33.588,0,1,0-67.159,0Z" transform="translate(-19.401 0.884)" fill="#ff575a"/>
            <path id="Trazado_878810" data-name="Trazado 878810" d="M45.51,34.867H64.26v-7.46a9.383,9.383,0,0,0-18.75,0Z" transform="translate(16.148 12.638)" fill="#5955a1"/>
            <path id="Trazado_878811" data-name="Trazado 878811" d="M64.26,24.08H45.51v7.062H64.26Z" transform="translate(16.148 16.363)" fill="#ff7a5a"/>
            <rect id="Rectángulo_402723" data-name="Rectángulo 402723" width="11.008" height="7.062" rx="0.87" transform="translate(65.537 40.443)" fill="#ff985a"/>
            <path id="Trazado_878812" data-name="Trazado 878812" d="M77.906,21.62H61.99a5.57,5.57,0,0,0,0,11.141h45.624l-4.46-3.15A43.983,43.983,0,0,0,77.906,21.62Z" transform="translate(-45.294 14.745)" fill="#ff985a"/>
            <path id="Trazado_878813" data-name="Trazado 878813" d="M54.033,24.636a48.658,48.658,0,0,1,18.85,3.83,5.521,5.521,0,0,0,6.963-2.321A14.407,14.407,0,0,1,88.3,19.513a5.438,5.438,0,0,0,1.144-9.947,28.532,28.532,0,0,0-37.9,10.693,2.934,2.934,0,0,0,2.487,4.377Z" transform="translate(-21.172 4.634)" fill="#ff897d"/>
            <g id="Grupo_1101536" data-name="Grupo 1101536">
              <path id="Trazado_878814" data-name="Trazado 878814" d="M35.5,112.642l-1.658-12.5a6.631,6.631,0,0,1,6.631-7.51H71.74V87.112A32.212,32.212,0,0,1,51.481,62.625h-2.4a8.554,8.554,0,0,1-6.532-14.059,7.228,7.228,0,0,1,1.94-14.175h2.968A35.227,35.227,0,1,1,117.9,35.437l0,10.129a8.538,8.538,0,0,1-.647,17.059h-2.4A32.212,32.212,0,0,1,94.586,87.112v5.521h30.322a6.631,6.631,0,0,1,6.631,7.51l-1.658,12.434c1.658,3.6,1.31,3.316,7.676,44.878a1.658,1.658,0,0,1-1.658,1.907H29.465a1.658,1.658,0,0,1-1.658-1.907C34.074,116.257,33.693,116.721,35.5,112.642ZM49.078,59.31h1.94c-.149-1.525-.116-1.757-.116-10.461H48.995a5.239,5.239,0,1,0,0,10.461ZM44.485,37.758a3.913,3.913,0,1,0,0,7.825H84.871A42.01,42.01,0,0,0,60.4,37.758Zm62.07,4.029H91.1v3.747h15.451Zm-.1-3.316a7.742,7.742,0,0,0-15.269,0Zm8.123-3.034a31.912,31.912,0,1,0-63.815-1.045H60.4a45.193,45.193,0,0,1,26.194,8.289l1.194.829V40.128a11.041,11.041,0,0,1,22.083,0v5.4h4.708Zm2.669,23.873a5.239,5.239,0,1,0,0-10.461h-1.923c0,8.289,0,8.9-.1,10.461Zm-5.786,3.316c.663-3.316.547-4.974.547-13.777H54.333v8.206a28.847,28.847,0,0,0,57.163,5.57ZM91.27,88.189a32.544,32.544,0,0,1-16.214,0v4.443h2.487c6.83-1.509,7.311-1.658,0,0h10.61c-3.1-.7-4.857-1.111-4.974-1.111h.265c5.8,1.293,4.045,1.078,7.875,1.078Zm33.638,7.759H40.357a3.316,3.316,0,0,0-3.316,3.763c1.923,14.423-.348-2.47,6.25,46.9H121.94l6.267-46.934a3.316,3.316,0,0,0-3.3-3.73Zm3.747,25.5c-4.194,31.383-3.6,24.387-3.6,34.6h8.853Zm-6.913,28.482H111.065v6.117h10.677Zm-13.992,6.117v-6.117h-50.2v6.117Zm-53.515,0v-6.117H43.574v6.117Zm-13.976,0c0-10.3.58-3.316-3.6-34.632l-5.289,34.632Z" transform="translate(-27.789 0.315)"/>
              <path id="Trazado_878820" data-name="Trazado 878820" d="M54.073,87.57a1.658,1.658,0,0,1,0-2.586,9.1,9.1,0,0,0,0-14.092,1.658,1.658,0,0,1,0-2.57,12.4,12.4,0,1,1,0,19.248Zm3.68-17.706a12.45,12.45,0,0,1,0,16.164,9.085,9.085,0,1,0,0-16.164Z" transform="translate(-7.054 43.641)"/>
              <path id="Trazado_878821" data-name="Trazado 878821" d="M24.056,22.631a1.659,1.659,0,1,1,2.338,2.354l-2.735,2.752,2.735,2.752a1.658,1.658,0,0,1-1.16,2.818c-.912,0-.879-.182-5.106-4.41a1.658,1.658,0,0,1,0-2.338Z" transform="translate(96.406 15.093)"/>
              <path id="Trazado_878822" data-name="Trazado 878822" d="M11.067,32.827A1.658,1.658,0,0,1,8.73,30.489l2.752-2.752L8.73,24.985a1.659,1.659,0,0,1,2.338-2.354L15,26.56A1.658,1.658,0,0,1,15,28.9Z" transform="translate(126.719 15.093)"/>
              <path id="Trazado_878823" data-name="Trazado 878823" d="M19.962,31.165a1.658,1.658,0,0,1-1.177-.5l-4.741-4.741a1.658,1.658,0,0,1,2.338-2.338l4.808,4.659a1.658,1.658,0,0,1-1.227,2.918Z" transform="translate(111.458 15.777)"/>
              <path id="Trazado_878824" data-name="Trazado 878824" d="M2.866,67.273l8.289-9.383a1.989,1.989,0,0,0,.514-1.343V19.975a5.355,5.355,0,0,1,5.338-5.355H54.525a5.355,5.355,0,0,1,5.322,5.355V67.721a5.355,5.355,0,0,1-5.355,5.355H5.5a3.5,3.5,0,0,1-2.636-5.8Zm53.665.448V19.975a2.056,2.056,0,0,0-2.039-2.039H16.941a2.039,2.039,0,0,0-2.023,2.039V56.547a5.355,5.355,0,0,1-1.343,3.465c-8.72,9.947-8.289,9.4-8.289,9.566s-3.614.116,49.188.116a2.056,2.056,0,0,0,2.056-1.973Z" transform="translate(92.694 10.14)"/>
              <path id="Trazado_878825" data-name="Trazado 878825" d="M20.618,39.566h.564v-1.79c0-4.493,6.134-5.919,6.134-2.818a1.658,1.658,0,0,1-1.658,1.658,1.16,1.16,0,0,0-1.16,1.16V44.59a1.177,1.177,0,0,0,1.161,1.177,1.658,1.658,0,0,1,1.658,1.658c0,3.067-6.134,1.658-6.134-2.835V42.882h-.564a1.658,1.658,0,1,1,0-3.316Z" transform="translate(97.108 22.429)"/>
              <path id="Trazado_878826" data-name="Trazado 878826" d="M10.635,37.768a1.16,1.16,0,0,0-1.177-1.16A1.658,1.658,0,0,1,7.8,34.95c0-3.067,6.151-1.658,6.151,2.818v1.757h.564a1.658,1.658,0,1,1,0,3.316h-.564v1.741c0,4.509-6.151,5.919-6.151,2.835a1.658,1.658,0,0,1,1.658-1.658,1.177,1.177,0,0,0,1.177-1.177Z" transform="translate(126.753 22.437)"/>
              <path id="Trazado_878827" data-name="Trazado 878827" d="M15.937,35.711l6.134,6.134a1.658,1.658,0,0,1-2.338,2.338L13.6,38.065a1.659,1.659,0,1,1,2.338-2.354Z" transform="translate(111.653 23.698)"/>
            </g>
          </g>
        </g>
      </g>
    </g>
  </g>
</svg>
