<svg xmlns="http://www.w3.org/2000/svg" xmlns:xlink="http://www.w3.org/1999/xlink" width="610" height="263.414" viewBox="0 0 610 263.414">
  <defs>
    <clipPath id="clip-path">
      <rect id="Rectángulo_405185" data-name="Rectángulo 405185" width="263.155" height="224.643" fill="none"/>
    </clipPath>
    <clipPath id="clip-path-2">
      <rect id="Rectángulo_405186" data-name="Rectángulo 405186" width="277.863" height="224.8" fill="none"/>
    </clipPath>
    <filter id="Trazado_879415" x="529.006" y="187.414" width="76" height="76" filterUnits="userSpaceOnUse">
      <feOffset dy="1" input="SourceAlpha"/>
      <feGaussianBlur stdDeviation="5.5" result="blur"/>
      <feFlood flood-color="#fff" flood-opacity="0.902"/>
      <feComposite operator="in" in2="blur"/>
      <feComposite in="SourceGraphic"/>
    </filter>
    <linearGradient id="linear-gradient" x1="0.35" y1="0.567" x2="0.935" y2="0.152" gradientUnits="objectBoundingBox">
      <stop offset="0" stop-color="#f0c518"/>
      <stop offset="0.371" stop-color="#d1ae1f"/>
      <stop offset="1" stop-color="#78630c"/>
    </linearGradient>
    <clipPath id="clip-path-3">
      <rect id="Rectángulo_403033" data-name="Rectángulo 403033" width="61" height="119" fill="#fff" stroke="#707070" stroke-width="1"/>
    </clipPath>
    <filter id="Trazado_879416" x="-64.689" y="-4.135" width="128.488" height="128.488" filterUnits="userSpaceOnUse">
      <feOffset dy="1" input="SourceAlpha"/>
      <feGaussianBlur stdDeviation="5.5" result="blur-2"/>
      <feFlood flood-color="#fff" flood-opacity="0.902"/>
      <feComposite operator="in" in2="blur-2"/>
      <feComposite in="SourceGraphic"/>
    </filter>
  </defs>
  <g id="Grupo_1104880" data-name="Grupo 1104880" transform="translate(-810 -5109.056)">
    <g id="Grupo_1104874" data-name="Grupo 1104874" transform="translate(9.097 0.057)">
      <rect id="Rectángulo_405029" data-name="Rectángulo 405029" width="600.903" height="260" rx="10" transform="translate(810 5108.999)" fill="#0b47db"/>
      <g id="Grupo_1104871" data-name="Grupo 1104871" transform="translate(831.422 5144.714)">
        <g id="Grupo_1104870" data-name="Grupo 1104870" clip-path="url(#clip-path)">
          <path id="Trazado_890156" data-name="Trazado 890156" d="M178.672,57.676q.923,3.295-1.372,4.715a10.753,10.753,0,0,1-3.815,1.332q-4.773.9-9-5.936-.614-.99-1.414-2.556-4.866-9.524-2.409-16.371,2.277-6.3,11.524-12.033c.91-.564,1.837-1.107,2.769-1.63q8.173-4.549,15.117-4.3,8.254.3,13.052,7.631a32.971,32.971,0,0,1,3.507,6.415,36.291,36.291,0,0,1,1.612,7.247,15.189,15.189,0,0,1-1.312,6.482,25.711,25.711,0,0,1-2.819,5.223,43.689,43.689,0,0,0-2.915,4.512,16.5,16.5,0,0,0,2.357,3.521,8.506,8.506,0,0,1,1.349,2.6q1.338,4.243-1.077,6.164a5.457,5.457,0,0,1-.915.74q-3.169,1.962-5.059-.817-5.136-7.464-7.379-10.806c-.631-.921-.7-1.54-.2-1.848a19.245,19.245,0,0,0,6.534-9.974q.642-2.286-1.895-6.382a10.9,10.9,0,0,0-11.322-5.524,9.68,9.68,0,0,0-4.963,2.384,10.148,10.148,0,0,0-3.643,6.6,11.346,11.346,0,0,0,1.327,7.55,23.615,23.615,0,0,1,2.363,5.065m34.749,26.568a5.5,5.5,0,0,1-1.337,1.17q-2.917,1.807-7.136-1.677c-.543-.232-1.047-1.642-1.5-4.223a3.719,3.719,0,0,1,1.9-4.006,10.306,10.306,0,0,1,2.751-1.106q5.251-1.362,6.912,2.42,1.577,3.663-1.586,7.422" transform="translate(34.44 4.5)" fill="#cfc6f7"/>
          <path id="Trazado_890157" data-name="Trazado 890157" d="M45.951,59.777q2.14-2.084,4.19-.918a9.39,9.39,0,0,1,2.614,2.37q2.682,3.285-.792,9.381c-.335.59-.794,1.31-1.372,2.153q-5.271,7.71-11.549,8.688-5.785.89-14.045-3.814-1.218-.693-2.405-1.442-6.906-4.368-9.613-9.8a13.623,13.623,0,0,1,.4-13.2,28.8,28.8,0,0,1,3.459-5.37,31.9,31.9,0,0,1,4.884-4.264,13.311,13.311,0,0,1,5.518-1.7,22.586,22.586,0,0,1,5.183-.022,37.488,37.488,0,0,0,4.682.355,14.357,14.357,0,0,0,1.715-3.279,7.528,7.528,0,0,1,1.431-2.122Q42.943,34,45.429,35.043a4.533,4.533,0,0,1,.948.4q2.828,1.606,1.487,4.221-3.579,7.056-5.2,10.171-.667,1.305-1.333.927a16.782,16.782,0,0,0-10.379-.844q-2.022.461-4.106,4.118a9.523,9.523,0,0,0,.492,10.994,8.464,8.464,0,0,0,3.9,2.809,8.877,8.877,0,0,0,6.581.041A9.938,9.938,0,0,0,43.053,63.7a20.556,20.556,0,0,1,2.9-3.927m5.863-37.755a4.818,4.818,0,0,1,1.456.537q2.605,1.48,1.694,6.173.071.777-2.613,2.915a3.249,3.249,0,0,1-3.866.221,8.975,8.975,0,0,1-2-1.651q-3.24-3.46-1.033-6.312,2.151-2.74,6.358-1.884" transform="translate(2.47 4.701)" fill="#cfc6f7"/>
          <path id="Trazado_890158" data-name="Trazado 890158" d="M153.622,95.008a38.716,38.716,0,0,1-77.433,0V38.715a38.716,38.716,0,0,1,77.433,0Z" transform="translate(16.416)" fill="#292331"/>
          <path id="Trazado_890159" data-name="Trazado 890159" d="M94.482,10.039A68.69,68.69,0,0,1,79.28,41.7c-.459.53.31,1.307.773.773A69.752,69.752,0,0,0,95.536,10.33c.135-.689-.92-.983-1.054-.29" transform="translate(17.052 2.078)" fill="#3e3e54"/>
          <path id="Trazado_890160" data-name="Trazado 890160" d="M88.863,10.23A40.62,40.62,0,0,0,77.544,36.246c-.046.7,1.049.7,1.094,0A39.446,39.446,0,0,1,89.636,11c.493-.5-.28-1.279-.773-.773" transform="translate(16.708 2.169)" fill="#3e3e54"/>
          <path id="Trazado_890161" data-name="Trazado 890161" d="M80.717,32.086c-.1.689.958.987,1.055.29a28.367,28.367,0,0,1,8.054-16.5c.492-.5-.281-1.279-.774-.773a29.282,29.282,0,0,0-8.334,16.979" transform="translate(17.391 3.22)" fill="#3e3e54"/>
          <path id="Trazado_890162" data-name="Trazado 890162" d="M95.336,81.878c.118-4.665.024-9.334-.015-14-.036-4.519.628-9.01.51-13.517a.547.547,0,0,0-1.094,0c.118,4.507-.54,9-.51,13.517.03,4.666.1,9.332.015,14-.177,9.276-.67,18.548,1.038,27.724.129.693,1.183.4,1.055-.292-1.687-9.056-1.231-18.273-1-27.432" transform="translate(20.262 11.599)" fill="#3e3e54"/>
          <path id="Trazado_890163" data-name="Trazado 890163" d="M79.122,49.342a392.748,392.748,0,0,0,2.614,47.074c.085.69,1.179.7,1.094,0a392.749,392.749,0,0,1-2.614-47.074.547.547,0,0,0-1.094,0" transform="translate(17.048 10.518)" fill="#3e3e54"/>
          <path id="Trazado_890164" data-name="Trazado 890164" d="M85.978,53.644A235.228,235.228,0,0,0,85.8,104.2c.078.693,1.173.7,1.094,0a235.228,235.228,0,0,1,.175-50.56c.073-.7-1.022-.694-1.094,0" transform="translate(18.212 11.446)" fill="#3e3e54"/>
          <path id="Trazado_890165" data-name="Trazado 890165" d="M139,40.939c-9.137-2.832-16.793-8.415-24.133-14.38A85.586,85.586,0,0,1,96.784,6.321c-.383-.59-1.33-.043-.946.552a89.079,89.079,0,0,0,18.969,21.041c7.239,5.885,14.9,11.289,23.9,14.08.675.21.963-.847.29-1.055" transform="translate(20.631 1.307)" fill="#3e3e54"/>
          <path id="Trazado_890166" data-name="Trazado 890166" d="M119.557,5.062c6.807,3.417,12.18,8.28,15.513,15.19,4.011,8.315,5.5,18.8,5.138,27.925-.029.7,1.066.7,1.094,0A64.278,64.278,0,0,0,136.015,19.7c-3.233-7.075-9.05-12.14-15.906-15.582-.628-.316-1.183.628-.552.944" transform="translate(25.701 0.873)" fill="#3e3e54"/>
          <path id="Trazado_890167" data-name="Trazado 890167" d="M136.571,30.055c.638.288,1.195-.655.552-.944-11.605-5.24-20.369-14.377-27-25.085-.37-.6-1.316-.049-.944.553,6.723,10.853,15.629,20.163,27.394,25.476" transform="translate(23.506 0.812)" fill="#3e3e54"/>
          <path id="Trazado_890168" data-name="Trazado 890168" d="M119.218,25.778c6.07,5.139,13.348,8.138,20.949,10.2a.547.547,0,0,0,.29-1.055c-7.484-2.03-14.417-4.988-20.466-9.918-5.746-4.683-10.221-10.763-14.6-16.68-.414-.56-1.365-.016-.944.552,4.463,6.034,9.013,12.027,14.77,16.9" transform="translate(22.483 1.743)" fill="#3e3e54"/>
          <path id="Trazado_890169" data-name="Trazado 890169" d="M138.067,46.473c-.534,19-.96,38.59-8,56.517-.259.658.8.94,1.054.29,7.073-18.011,7.5-37.72,8.04-56.807a.547.547,0,0,0-1.094,0" transform="translate(28.017 9.899)" fill="#3e3e54"/>
          <path id="Trazado_890170" data-name="Trazado 890170" d="M131.35,51.205c-.881,16.209-1.765,32.517-5.733,48.323a.547.547,0,0,0,1.054.29c3.993-15.9,4.887-32.308,5.773-48.614.039-.7-1.056-.7-1.094,0" transform="translate(27.062 10.92)" fill="#3e3e54"/>
          <path id="Trazado_890171" data-name="Trazado 890171" d="M124.064,56.943c-1.311,12.928.349,26.128-3.468,38.735a.547.547,0,0,0,1.055.29c3.846-12.7,2.185-26,3.507-39.025.072-.7-1.023-.7-1.094,0" transform="translate(25.979 12.157)" fill="#3e3e54"/>
          <path id="Trazado_890172" data-name="Trazado 890172" d="M123.337,95.983a12.813,12.813,0,1,1-25.626,0V62.262a12.813,12.813,0,0,1,25.626,0Z" transform="translate(21.054 10.655)" fill="#f1bf9e"/>
          <path id="Trazado_890173" data-name="Trazado 890173" d="M110.524,49.449A12.814,12.814,0,0,0,97.711,62.262V75.545a32.455,32.455,0,0,0,25.626-.221V62.262a12.814,12.814,0,0,0-12.812-12.813" transform="translate(21.054 10.655)" fill="#d78c75"/>
          <path id="Trazado_890174" data-name="Trazado 890174" d="M84.357,204.355S64.384,96.526,71.417,89.3s33.208-11.916,45.1-11.916,38.064,4.689,45.1,11.916-12.941,115.056-12.941,115.056Z" transform="translate(15.065 16.673)" fill="#f1bf9e"/>
          <path id="Trazado_890175" data-name="Trazado 890175" d="M11.826,91.6c.472-1.079,15.44,5.724,18.227,11.98s-6.748,3.865-8.474-.637S10.67,94.244,11.826,91.6" transform="translate(2.526 19.713)" fill="#f1bf9e"/>
          <path id="Trazado_890176" data-name="Trazado 890176" d="M86.482,87.2c-5.89,2.935-30.128,78.612-31.5,82.553,0,0-17.119-53.131-18.913-58.5-1.528-4.577-3.8-9.289-12.925-9.736-10.1-.493-13.8,1-14.829-1.567S2.776,87.123,0,87.123c0,0,4.159,14.319,5.529,17.165s2,3.494,22.035,7.859c0,0,11.6,64.515,14.166,78.327s16.715,17.115,26.14,2.036,23.247-61.777,23.247-61.777S90.472,85.211,86.482,87.2" transform="translate(0 18.772)" fill="#f1bf9e"/>
          <path id="Trazado_890177" data-name="Trazado 890177" d="M74.856,87.2c-3.442,1.715-13.15,28.273-20.9,50.838,1.634,1.734,3.339,3.356,4.94,4.873a55.778,55.778,0,0,0,13.76,9.346c3.989-11.912,6.835-21.524,6.835-21.524S78.846,85.209,74.856,87.2" transform="translate(11.626 18.775)" fill="#d78c75"/>
          <path id="Trazado_890178" data-name="Trazado 890178" d="M208.018,91.6c-.472-1.079-15.44,5.724-18.227,11.98s6.748,3.865,8.474-.637,10.909-8.7,9.753-11.343" transform="translate(40.785 19.713)" fill="#f1bf9e"/>
          <path id="Trazado_890179" data-name="Trazado 890179" d="M146.176,87.2c5.89,2.935,30.128,78.612,31.5,82.553,0,0,17.119-53.131,18.913-58.5,1.528-4.577,3.8-9.289,12.925-9.736,10.1-.493,13.8,1,14.829-1.567s5.54-12.827,8.316-12.827c0,0-4.158,14.319-5.529,17.165s-2,3.494-22.035,7.859c0,0-11.6,64.515-14.166,78.327s-16.715,17.115-26.14,2.036-23.247-61.777-23.247-61.777.645-45.522,4.636-43.533" transform="translate(30.498 18.772)" fill="#f1bf9e"/>
          <path id="Trazado_890180" data-name="Trazado 890180" d="M166.991,137.79C159.256,115.278,149.6,88.906,146.176,87.2c-3.992-1.989-4.637,43.533-4.637,43.533s3.257,11,7.688,24.054a95.678,95.678,0,0,0,17.764-16.993" transform="translate(30.497 18.775)" fill="#d78c75"/>
          <path id="Trazado_890181" data-name="Trazado 890181" d="M145.354,49.114a7.366,7.366,0,1,1-3.536-9.8,7.366,7.366,0,0,1,3.536,9.8" transform="translate(28.295 8.32)" fill="#f1bf9e"/>
          <path id="Trazado_890182" data-name="Trazado 890182" d="M73.354,49.114a7.366,7.366,0,1,0,3.536-9.8,7.367,7.367,0,0,0-3.536,9.8" transform="translate(15.655 8.32)" fill="#f1bf9e"/>
          <path id="Trazado_890183" data-name="Trazado 890183" d="M143.252,47.376a4.385,4.385,0,0,0-4.925-5.567c-3.628.686-5.308,3.717-4.586,7.19a.533.533,0,0,0,.84.315,3.043,3.043,0,0,0,3.648-2.47c.215-1.625-.762-2.444-2.081-2.826a5.637,5.637,0,0,1,1.276-.828c2.577-1.219,5.662,1.036,4.778,3.871a.548.548,0,0,0,1.05.315m-6.156-.459c-.273,1.138-1.349,1.408-2.362,1.314a4.721,4.721,0,0,1,.6-3.3c1.147.185,2.083.644,1.762,1.981" transform="translate(28.782 8.993)" fill="#d78c75"/>
          <path id="Trazado_890184" data-name="Trazado 890184" d="M75.644,47.061c-.884-2.834,2.2-5.09,4.779-3.871a5.692,5.692,0,0,1,1.276.828c-1.32.383-2.3,1.2-2.081,2.827a3.044,3.044,0,0,0,3.648,2.47A.533.533,0,0,0,84.1,49c.722-3.471-.958-6.5-4.586-7.19a4.385,4.385,0,0,0-4.925,5.567.548.548,0,0,0,1.05-.315m6.869-2.126a4.722,4.722,0,0,1,.6,3.3c-1.014.094-2.089-.176-2.363-1.314-.32-1.337.616-1.8,1.762-1.981" transform="translate(16.032 8.993)" fill="#d78c75"/>
          <path id="Trazado_890185" data-name="Trazado 890185" d="M98.917,12.67C94.479,27.241,85.538,39.785,81.39,45.1V47.14a32.4,32.4,0,0,0,64.788.665C122.8,38.287,98.917,12.67,98.917,12.67" transform="translate(17.537 2.73)" fill="#f1bf9e"/>
          <path id="Trazado_890186" data-name="Trazado 890186" d="M120.734,36.741c-1.071,0-1.94,1.54-1.94,3.441s.869,3.441,1.94,3.441,1.941-1.54,1.941-3.441-.869-3.441-1.941-3.441" transform="translate(25.597 7.917)" fill="#292331"/>
          <path id="Trazado_890187" data-name="Trazado 890187" d="M98.086,36.741c-1.072,0-1.94,1.54-1.94,3.441s.868,3.441,1.94,3.441,1.94-1.54,1.94-3.441-.868-3.441-1.94-3.441" transform="translate(20.717 7.917)" fill="#292331"/>
          <path id="Trazado_890188" data-name="Trazado 890188" d="M133.052,44.938c-.817-1.939-3.835-2.515-6.741-1.29s-4.6,3.79-3.784,5.727,3.836,2.514,6.741,1.288,4.6-3.79,3.784-5.726" transform="translate(26.357 9.266)" fill="#dd7c76"/>
          <path id="Trazado_890189" data-name="Trazado 890189" d="M93.761,43.648c-2.907-1.225-5.924-.649-6.742,1.29s.878,4.5,3.784,5.726,5.924.648,6.741-1.288-.876-4.5-3.783-5.727" transform="translate(18.706 9.266)" fill="#dd7c76"/>
          <path id="Trazado_890190" data-name="Trazado 890190" d="M112.281,55.737a4.166,4.166,0,1,0,.509,5.608,3.991,3.991,0,0,0-.509-5.608" transform="translate(22.803 11.853)" fill="#ba4848"/>
          <path id="Trazado_890191" data-name="Trazado 890191" d="M125.861,32.431c-1.591-2.279-4.244-2.608-6.679-1.514-.642.289-.085,1.232.553.944a4.021,4.021,0,0,1,5.182,1.122c.4.574,1.349.028.944-.552" transform="translate(25.619 6.532)" fill="#292331"/>
          <path id="Trazado_890192" data-name="Trazado 890192" d="M100.2,30.917c-2.435-1.094-5.087-.766-6.678,1.514-.4.58.543,1.126.944.552a4.021,4.021,0,0,1,5.182-1.122c.637.287,1.195-.655.552-.944" transform="translate(20.13 6.532)" fill="#292331"/>
          <path id="Trazado_890193" data-name="Trazado 890193" d="M114.714,50.745c-1.725-.053-3.451-.067-5.177-.07-.171-6.31-.115-12.446-.252-18.756a.547.547,0,0,0-1.094,0c.14,6.491.085,12.81.264,19.3a.554.554,0,0,0,.548.547q2.365,0,4.728.053a8.112,8.112,0,0,1-4.727,3.265c-.688.159-.4,1.213.289,1.054a9.267,9.267,0,0,0,5.891-4.57.552.552,0,0,0-.472-.823" transform="translate(23.312 6.764)" fill="#d78c75"/>
          <path id="Trazado_890194" data-name="Trazado 890194" d="M121.137,207.97h31.449L163.2,148.392a38.517,38.517,0,0,0,26.023-15.568s-12.987-39.441-20.5-45.253-29.938-10.189-29.938-10.189,1.365,30.738-17.647,41.742C101,106.458,103.488,77.382,103.488,77.382S81.07,81.759,73.551,87.571s-20.506,45.253-20.506,45.253S59.4,146.11,76.879,148.392L87.5,207.97Z" transform="translate(11.43 16.673)" fill="#5e6db0"/>
          <path id="Trazado_890195" data-name="Trazado 890195" d="M60.769,137.148a32.9,32.9,0,0,0,14.446,5.389l10.618,59.576H128.8c-27.964-37.847-46.521-97.552-46.521-97.552Z" transform="translate(13.094 22.53)" fill="#4d5995"/>
        </g>
      </g>
      <g id="Grupo_1104873" data-name="Grupo 1104873" transform="translate(1105.481 5144.557)">
        <g id="Grupo_1104872" data-name="Grupo 1104872" clip-path="url(#clip-path-2)">
          <path id="Trazado_890196" data-name="Trazado 890196" d="M199.815,48.039q-2.483,2.2-4.691.8a10.407,10.407,0,0,1-2.773-2.764q-2.792-3.783,1.378-10.353.605-.954,1.634-2.313,6.25-8.266,13.26-9.012,6.459-.678,15.359,4.97c.875.555,1.739,1.133,2.59,1.725Q233.987,36.3,236.7,42.46q3.225,7.319-1.143,14.6a32.091,32.091,0,0,1-4.119,5.764,35.138,35.138,0,0,1-5.635,4.465,14.754,14.754,0,0,1-6.206,1.594,25.136,25.136,0,0,1-5.746-.252A40.958,40.958,0,0,0,208.687,68a15.751,15.751,0,0,0-2.078,3.541,8.294,8.294,0,0,1-1.7,2.275q-3.134,2.954-5.83,1.663a5.084,5.084,0,0,1-1.03-.488q-3.049-1.931-1.425-4.757,4.341-7.629,6.307-10.993.811-1.411,1.529-.957a18.631,18.631,0,0,0,11.456,1.487q2.265-.405,4.768-4.347a10.566,10.566,0,0,0,.039-12.206,9.4,9.4,0,0,0-4.176-3.321,9.849,9.849,0,0,0-7.293-.4,11.03,11.03,0,0,0-6.022,4.347,22.826,22.826,0,0,1-3.42,4.2m-8.5,41.524a5.361,5.361,0,0,1-1.585-.671q-2.809-1.781-1.549-6.93-.038-.865,3.05-3.093a3.6,3.6,0,0,1,4.3-.038,9.933,9.933,0,0,1,2.123,1.932q3.407,4,.808,7.048-2.527,2.921-7.144,1.751" transform="translate(39.791 5.153)" fill="#cfc6f7"/>
          <path id="Trazado_890197" data-name="Trazado 890197" d="M50.383,56.938q.064-4.328,3.358-5.228a13.629,13.629,0,0,1,5.108-.248q6.113.627,8.789,10.436.391,1.423.8,3.613,2.485,13.307-2.953,20.734Q60.454,93.079,47.17,96.709c-1.3.358-2.623.684-3.943.984q-11.552,2.585-19.892-.216-9.909-3.323-13.1-13.948a41.83,41.83,0,0,1-1.949-9.047,46.076,46.076,0,0,1,.646-9.374,19.3,19.3,0,0,1,3.919-7.394,32.708,32.708,0,0,1,5.295-5.329,53.453,53.453,0,0,0,5.163-4.428,20.788,20.788,0,0,0-1.594-5.12,10.8,10.8,0,0,1-.708-3.637q-.1-5.628,3.523-7.1a6.922,6.922,0,0,1,1.377-.566q4.548-1.242,5.847,2.808,3.554,10.9,5.072,15.762.654,2.023-.419,2.317A24.332,24.332,0,0,0,24.9,62.181q-1.6,2.543,0,8.43,2.51,9.18,11.757,10.771a12.282,12.282,0,0,0,6.879-1.113,12.86,12.86,0,0,0,6.794-6.7,14.39,14.39,0,0,0,1.1-9.638,29.93,29.93,0,0,1-1.046-7M17.748,12.212a7.113,7.113,0,0,1,2.043-.943q4.19-1.143,8.06,4.6c.574.482.679,2.369.3,5.666a4.7,4.7,0,0,1-3.74,4.183,13.038,13.038,0,0,1-3.735.353q-6.864-.235-7.52-5.418-.6-5.01,4.591-8.441" transform="translate(1.745 2.348)" fill="#cfc6f7"/>
          <path id="Trazado_890198" data-name="Trazado 890198" d="M210.841,93.487c-.47-1.076-15.395,5.707-18.173,11.944s6.728,3.854,8.449-.635,10.876-8.676,9.724-11.309" transform="translate(40.717 19.785)" fill="#d78c75"/>
          <path id="Trazado_890199" data-name="Trazado 890199" d="M149.469,87.881c5.873,2.927,30.038,78.381,31.4,82.311,0,0,16.548-53.994,18.336-59.347,1.525-4.563,3.793-9.262,12.888-9.708,10.067-.492,15.18.544,16.553-1.851,3.545-6.188,7.763-13.609,10.533-13.609,0,0-4.559,16.507-5.925,19.344s-2,3.483-21.972,7.835c0,0-12.556,67.907-15.12,81.679s-22.165,18.73-30.592-.965c-6.973-16.3-23.179-65.037-23.179-65.037s3.093-42.635,7.073-40.652" transform="translate(30.172 18.154)" fill="#f1bf9e"/>
          <path id="Trazado_890200" data-name="Trazado 890200" d="M170.6,139.064c-7.773-22.681-17.657-49.822-21.133-51.556-3.98-1.984-7.073,40.652-7.073,40.652s4.026,12.106,8.928,26.271a53.8,53.8,0,0,0,11.264-8.114c2.475-2.26,5.317-4.678,8.013-7.253" transform="translate(30.172 18.528)" fill="#d78c75"/>
          <path id="Trazado_890201" data-name="Trazado 890201" d="M14.7,93.487c.47-1.076,15.395,5.707,18.173,11.944s-6.728,3.854-8.449-.635S13.552,96.12,14.7,93.487" transform="translate(3.094 19.785)" fill="#d78c75"/>
          <path id="Trazado_890202" data-name="Trazado 890202" d="M89.714,87.881c-5.873,2.927-30.038,78.381-31.4,82.311,0,0-16.547-53.994-18.335-59.347-1.525-4.563-3.793-9.262-12.888-9.708-10.067-.492-15.18.544-16.553-1.851C6.989,93.1,2.769,85.677,0,85.677c0,0,4.559,16.507,5.925,19.344s2,3.483,21.972,7.835c0,0,12.556,67.907,15.12,81.679s22.165,18.73,30.59-.965c6.974-16.3,23.179-65.037,23.179-65.037S93.693,85.9,89.714,87.881" transform="translate(0 18.154)" fill="#f1bf9e"/>
          <path id="Trazado_890203" data-name="Trazado 890203" d="M56.59,139.064c7.773-22.681,17.657-49.822,21.133-51.556,3.98-1.984,7.073,40.652,7.073,40.652s-4.026,12.106-8.928,26.271A53.794,53.794,0,0,1,64.6,146.317c-2.475-2.26-5.317-4.678-8.013-7.253" transform="translate(11.991 18.528)" fill="#d78c75"/>
          <path id="Trazado_890204" data-name="Trazado 890204" d="M101.4,96.156a12.775,12.775,0,1,0,25.549,0V62.535a12.775,12.775,0,1,0-25.549,0Z" transform="translate(21.486 10.543)" fill="#f1bf9e"/>
          <path id="Trazado_890205" data-name="Trazado 890205" d="M114.177,49.759a12.775,12.775,0,0,1,12.775,12.776V75.778a32.349,32.349,0,0,1-25.549-.219V62.535a12.776,12.776,0,0,1,12.775-12.776" transform="translate(21.486 10.543)" fill="#d78c75"/>
          <path id="Trazado_890206" data-name="Trazado 890206" d="M152.127,204.289s19.914-107.51,12.9-114.716-33.111-11.881-44.962-11.881S82.115,82.365,75.1,89.573s12.9,114.716,12.9,114.716Z" transform="translate(15.597 16.462)" fill="#f1bf9e"/>
          <path id="Trazado_890207" data-name="Trazado 890207" d="M84.5,205.956l-3.442-57.462A38.407,38.407,0,0,1,55.11,132.97S68.059,93.645,75.556,87.851,105.4,77.692,105.4,77.692s4.4,15.82,17.6,15.82c16.19,0,17.6-15.82,17.6-15.82s22.353,4.363,29.849,10.159,20.446,45.119,20.446,45.119-6.339,13.247-23.763,15.524l-3.205,57.462Z" transform="translate(11.677 16.462)" fill="#b1dff9"/>
          <path id="Trazado_890208" data-name="Trazado 890208" d="M55.11,127.617A38.4,38.4,0,0,0,81.057,143.14L84.5,200.6h34.053S99.642,117.647,95.11,105.111c-3.9-10.791-40,22.506-40,22.506" transform="translate(11.677 21.816)" fill="#97cbf2"/>
          <path id="Trazado_890209" data-name="Trazado 890209" d="M117.994,98.8c18.166,0,33.93-10.042,40.969-15.324-.789-.33-1.6-.65-2.441-.959-7.325,5.256-22.087,14.1-38.528,14.1-14.434,0-29.636-9.571-36.778-14.727-.841.292-1.671.593-2.482.9A105.73,105.73,0,0,0,89.01,89.561c7.3,4.215,18.261,9.239,28.985,9.239" transform="translate(16.683 17.352)" fill="#5e6db0"/>
          <path id="Trazado_890210" data-name="Trazado 890210" d="M115.675,109.476a146.569,146.569,0,0,0,61.1-9.427c-.3-.671-.6-1.337-.9-1.986a145.9,145.9,0,0,1-58.543,9.324c-17.7-.848-35.518-5-48.751-16.546-.364.629-.728,1.281-1.1,1.973a58.129,58.129,0,0,0,16,9.988c10.217,4.261,21.2,5.987,32.193,6.674" transform="translate(14.298 19.248)" fill="#5e6db0"/>
          <path id="Trazado_890211" data-name="Trazado 890211" d="M84.113,121.091c8.086,1.817,16.535,2.362,24.781,2.9,10.768.7,21.581.932,32.367.617,8.263-.242,16.979-.534,24.966-2.873,4.589-1.342,9-3.7,13.2-5.937,1.705-.908,3.413-1.858,5.094-2.859-.253-.677-.513-1.363-.779-2.063-2.492,1.5-5.058,2.872-7.6,4.181a55.788,55.788,0,0,1-13.053,5.233c-8.941,2.024-18.416,2.147-27.54,2.252-10.708.121-21.435-.274-32.109-1.125-7.178-.573-14.928-.953-21.815-3.253-4.169-1.392-8.053-4.467-11.532-7.069-2.733-2.041-5.37-4.205-8.018-6.356q-.422,1.045-.834,2.082c4,3.238,7.983,6.5,12.27,9.364a31.281,31.281,0,0,0,10.605,4.911" transform="translate(12.975 22.192)" fill="#5e6db0"/>
          <path id="Trazado_890212" data-name="Trazado 890212" d="M184.944,127.877a161.442,161.442,0,0,1-19.9,4.7c-13.361,2.345-26.978,3.083-40.521,3.35-13.49.263-27.237-.344-40.135-4.629-9.71-3.226-18.582-8.481-26.96-14.317-.265.749-.51,1.443-.743,2.1A114.7,114.7,0,0,0,82.924,133.1c12.909,4.623,26.975,5.2,40.553,5.027a279.486,279.486,0,0,0,40.14-3.11,166.04,166.04,0,0,0,19.92-4.444c1.241-.356,2.472-.751,3.7-1.152a28.53,28.53,0,0,0,2.316-3.062c-1.534.525-3.068,1.04-4.612,1.52" transform="translate(12.01 24.787)" fill="#5e6db0"/>
          <path id="Trazado_890213" data-name="Trazado 890213" d="M117.412,147.035c-13.622.114-27.669-1.056-40.57-5.538l.141,2.356c12.336,4.116,25.644,5.315,38.641,5.369a245.333,245.333,0,0,0,30.7-1.708c5.246-.642,10.456-1.526,15.643-2.538l.125-2.255c-5.227,1.028-10.478,1.933-15.768,2.613a244.069,244.069,0,0,1-28.91,1.7" transform="translate(16.282 29.981)" fill="#5e6db0"/>
          <path id="Trazado_890214" data-name="Trazado 890214" d="M119.1,161.042c-10.724-.514-21.456-1.163-32.01-3.254-3.1-.612-6.281-1.291-9.4-2.18l.133,2.23c1.863.511,3.741.965,5.613,1.385,10.7,2.4,21.6,3.278,32.532,3.847,11.291.585,22.534.713,33.832.175,3.579-.17,7.2-.3,10.829-.485l.124-2.22c-3.313.165-6.621.3-9.893.471a314.713,314.713,0,0,1-31.758.032" transform="translate(16.461 32.971)" fill="#5e6db0"/>
          <path id="Trazado_890215" data-name="Trazado 890215" d="M91.492,172.581a107.119,107.119,0,0,1-12.857-1.152l.136,2.271a83.2,83.2,0,0,0,8.523.841c11.645.59,23.26.408,34.913.147,12.308-.274,24.99.238,37.412-.819l.125-2.229c-11.748,1.012-23.725.577-35.409.819-10.948.231-21.9.562-32.843.122" transform="translate(16.662 36.323)" fill="#5e6db0"/>
          <path id="Trazado_890216" data-name="Trazado 890216" d="M82.481,119.688A112.447,112.447,0,0,0,96.712,121.8l-.547-2.229a69.584,69.584,0,0,1-16.176-2.812,35.015,35.015,0,0,1-9.3-5.4l-1.745,1.366c.966.7,1.94,1.392,2.936,2.058a31.281,31.281,0,0,0,10.605,4.911" transform="translate(14.607 23.595)" fill="#3b4772"/>
          <path id="Trazado_890217" data-name="Trazado 890217" d="M83.895,130.846A99.147,99.147,0,0,1,60.768,119.12l-1.781,1.4a109.833,109.833,0,0,0,23.449,12.13A85.412,85.412,0,0,0,102.958,137l-.56-2.283a88.922,88.922,0,0,1-18.5-3.874" transform="translate(12.499 25.24)" fill="#3b4772"/>
          <path id="Trazado_890218" data-name="Trazado 890218" d="M76.907,142.578l.075,1.276a107.715,107.715,0,0,0,26.242,4.914l-.54-2.2A102.984,102.984,0,0,1,76.842,141.5Z" transform="translate(16.282 29.981)" fill="#3b4772"/>
          <path id="Trazado_890219" data-name="Trazado 890219" d="M77.688,155.607l.067,1.145.065,1.086c1.861.511,3.741.965,5.613,1.384a164.3,164.3,0,0,0,23.721,3.293l-.543-2.213a164.468,164.468,0,0,1-19.521-2.513c-3.1-.613-6.281-1.292-9.4-2.181" transform="translate(16.461 32.971)" fill="#3b4772"/>
          <path id="Trazado_890220" data-name="Trazado 890220" d="M91.492,172.581a107.119,107.119,0,0,1-12.857-1.152l.136,2.271a83.2,83.2,0,0,0,8.523.841c7.847.4,15.681.44,23.522.349l-.528-2.151c-6.265.09-12.531.093-18.8-.158" transform="translate(16.662 36.323)" fill="#3b4772"/>
          <path id="Trazado_890221" data-name="Trazado 890221" d="M85.489,48.939a32.307,32.307,0,1,0,64.614,0V37.779a32.307,32.307,0,1,0-64.614,0Z" transform="translate(18.114 1.159)" fill="#f1bf9e"/>
          <path id="Trazado_890222" data-name="Trazado 890222" d="M124.828,37.051c-1.068,0-1.934,1.538-1.934,3.431s.866,3.432,1.934,3.432,1.935-1.535,1.935-3.432-.868-3.431-1.935-3.431" transform="translate(26.04 7.851)" fill="#292331"/>
          <path id="Trazado_890223" data-name="Trazado 890223" d="M102.179,37.051c-1.069,0-1.934,1.538-1.934,3.431s.865,3.432,1.934,3.432,1.934-1.535,1.934-3.432-.865-3.431-1.934-3.431" transform="translate(21.241 7.851)" fill="#292331"/>
          <path id="Trazado_890224" data-name="Trazado 890224" d="M116.362,56.045a4.154,4.154,0,1,0,.508,5.592,3.979,3.979,0,0,0-.508-5.592" transform="translate(23.292 11.721)" fill="#ba4848"/>
          <path id="Trazado_890225" data-name="Trazado 890225" d="M129.941,32.734c-1.588-2.272-4.232-2.6-6.659-1.508-.641.287-.085,1.228.551.94A4.009,4.009,0,0,1,129,33.285c.4.572,1.344.029.942-.551" transform="translate(26.062 6.489)" fill="#2d2e43"/>
          <path id="Trazado_890226" data-name="Trazado 890226" d="M104.281,31.226c-2.427-1.091-5.072-.765-6.659,1.508-.4.58.544,1.123.942.551a4.011,4.011,0,0,1,5.167-1.119c.635.287,1.191-.653.55-.94" transform="translate(20.664 6.489)" fill="#2d2e43"/>
          <path id="Trazado_890227" data-name="Trazado 890227" d="M118.8,51c-1.72-.051-3.441-.067-5.161-.07-.172-6.288-.116-12.409-.252-18.7a.546.546,0,0,0-1.091,0c.141,6.473.086,12.771.264,19.244a.552.552,0,0,0,.545.545c1.573,0,3.144.016,4.715.053a8.08,8.08,0,0,1-4.714,3.254c-.685.16-.4,1.209.29,1.052a9.249,9.249,0,0,0,5.874-4.555A.553.553,0,0,0,118.8,51" transform="translate(23.793 6.717)" fill="#d78c75"/>
          <path id="Trazado_890228" data-name="Trazado 890228" d="M151.854,37.61h-3.748s-4.58,16.356-11.565,18.175-11.569-.313-18.554-.313-11.566,2.131-18.554.313S87.867,37.61,87.867,37.61H84.119c0,2.928-2.288,39.047,33.867,39.047s33.867-36.119,33.867-39.047M119.327,68.232c-4.677,0-8.469-2.18-8.469-4.868s3.792-4.867,8.469-4.867,8.469,2.181,8.469,4.867-3.792,4.868-8.469,4.868" transform="translate(17.818 7.969)" fill="#2d2e43"/>
          <path id="Trazado_890229" data-name="Trazado 890229" d="M152.43,54.518s-7-6.687-6.828-26.78c0,0-16.273.81-20.531-10.3-6.327,5.609-19.524,8.517-25.781,1.622,0,0-1.872,12.6-9.874,16.175,0,0,.5,16.816-3.155,17.261,0,0-1.437.348-2.73-4.837-1.58-6.335-2.269-20.562-1.115-25.547C84.6,12.655,92.773,8.5,96.737,10.032,98.9,3,114.478-4.789,125.789,3.727c10.5-2.077,20.983,4.154,23.406,16.334,7.03,4.955,6.719,21.467,4.239,30.895Z" transform="translate(17.341 0)" fill="#2d2e43"/>
          <path id="Trazado_890230" data-name="Trazado 890230" d="M77.452,49.393a7.345,7.345,0,1,0,3.525-9.771,7.344,7.344,0,0,0-3.525,9.771" transform="translate(16.263 8.248)" fill="#f1bf9e"/>
          <path id="Trazado_890231" data-name="Trazado 890231" d="M149.413,49.393a7.344,7.344,0,1,1-3.525-9.771,7.343,7.343,0,0,1,3.525,9.771" transform="translate(28.694 8.248)" fill="#f1bf9e"/>
          <path id="Trazado_890232" data-name="Trazado 890232" d="M79.74,47.356c-.881-2.826,2.194-5.075,4.764-3.86a5.654,5.654,0,0,1,1.274.824c-1.317.382-2.29,1.2-2.076,2.819A3.033,3.033,0,0,0,87.339,49.6a.532.532,0,0,0,.837-.313c.72-3.462-.956-6.485-4.572-7.17a4.372,4.372,0,0,0-4.911,5.55.547.547,0,0,0,1.047-.314m6.848-2.121a4.714,4.714,0,0,1,.6,3.287c-1.011.093-2.082-.176-2.355-1.31-.32-1.334.613-1.79,1.757-1.977" transform="translate(16.634 8.909)" fill="#d78c75"/>
          <path id="Trazado_890233" data-name="Trazado 890233" d="M147.323,47.669a4.372,4.372,0,0,0-4.911-5.549c-3.617.684-5.292,3.706-4.572,7.168a.532.532,0,0,0,.837.313,3.033,3.033,0,0,0,3.637-2.463c.214-1.618-.759-2.437-2.076-2.819a5.583,5.583,0,0,1,1.274-.823c2.57-1.217,5.645,1.033,4.764,3.859a.547.547,0,0,0,1.047.314m-6.138-.458c-.273,1.136-1.344,1.4-2.355,1.31a4.7,4.7,0,0,1,.6-3.285c1.144.185,2.077.641,1.757,1.975" transform="translate(29.172 8.909)" fill="#d78c75"/>
          <path id="Trazado_890234" data-name="Trazado 890234" d="M110.972,52.931a2.3,2.3,0,0,0-.675,1.529c-.016.351.53.351.547,0a1.716,1.716,0,0,1,.514-1.144c.24-.258-.144-.644-.385-.385" transform="translate(23.37 11.197)" fill="#4e4c6b"/>
          <path id="Trazado_890235" data-name="Trazado 890235" d="M108.768,53.563a6.857,6.857,0,0,0-.8,1.638.272.272,0,0,0,.525.145,6.4,6.4,0,0,1,.75-1.509.273.273,0,0,0-.471-.275" transform="translate(22.874 11.321)" fill="#4e4c6b"/>
          <path id="Trazado_890236" data-name="Trazado 890236" d="M103.457,54.145a13.681,13.681,0,0,0-2.787,7.943c-.015.351.531.349.545,0a13.185,13.185,0,0,1,2.713-7.668c.213-.279-.261-.55-.471-.275" transform="translate(21.331 11.448)" fill="#4e4c6b"/>
          <path id="Trazado_890237" data-name="Trazado 890237" d="M100.674,54.4a12.58,12.58,0,0,0-3.5,7.849c-.035.348.511.343.545,0a11.99,11.99,0,0,1,3.339-7.465c.251-.245-.133-.63-.385-.384" transform="translate(20.59 11.51)" fill="#4e4c6b"/>
          <path id="Trazado_890238" data-name="Trazado 890238" d="M96.9,53.666a14.846,14.846,0,0,0-2.979,9.186.273.273,0,0,0,.545,0,14.309,14.309,0,0,1,2.819-8.8c.224-.268-.16-.656-.385-.385" transform="translate(19.901 11.352)" fill="#4e4c6b"/>
          <path id="Trazado_890239" data-name="Trazado 890239" d="M93.855,52.38c-1.813,2.155-2.55,4.85-3.415,7.477-.11.333.417.476.526.144.831-2.527,1.529-5.161,3.275-7.236.224-.268-.159-.657-.385-.385" transform="translate(19.16 11.079)" fill="#4e4c6b"/>
          <path id="Trazado_890240" data-name="Trazado 890240" d="M92.452,50.784c.278-.208.006-.681-.275-.471a12.332,12.332,0,0,0-3.368,4.632c-.156.313.314.59.471.275a11.826,11.826,0,0,1,3.172-4.436" transform="translate(18.811 10.649)" fill="#4e4c6b"/>
          <path id="Trazado_890241" data-name="Trazado 890241" d="M90.588,48.332c.276-.211,0-.684-.275-.471a14.3,14.3,0,0,0-3.219,4.261.273.273,0,0,0,.47.275,13.69,13.69,0,0,1,3.024-4.065" transform="translate(18.445 10.13)" fill="#4e4c6b"/>
          <path id="Trazado_890242" data-name="Trazado 890242" d="M106.568,53.717a14.445,14.445,0,0,0-2.332,5.194c-.082.341.444.485.526.144a14.073,14.073,0,0,1,2.277-5.064c.207-.282-.267-.555-.471-.274" transform="translate(22.085 11.357)" fill="#4e4c6b"/>
          <path id="Trazado_890243" data-name="Trazado 890243" d="M113.758,53.377a1.726,1.726,0,0,1,.566,1.123c.033.349.577.325.544-.027a2.293,2.293,0,0,0-.742-1.5c-.252-.247-.62.155-.368.4" transform="translate(24.086 11.209)" fill="#4e4c6b"/>
          <path id="Trazado_890244" data-name="Trazado 890244" d="M115.931,53.8a6.507,6.507,0,0,1,.816,1.472.273.273,0,0,0,.52-.168,7.017,7.017,0,0,0-.877-1.6.273.273,0,0,0-.458.3" transform="translate(24.555 11.311)" fill="#4e4c6b"/>
          <path id="Trazado_890245" data-name="Trazado 890245" d="M121.611,54.128a13.2,13.2,0,0,1,3.055,7.537c.032.348.577.324.545-.025a13.675,13.675,0,0,0-3.142-7.807c-.224-.264-.685.027-.458.3" transform="translate(25.755 11.384)" fill="#4e4c6b"/>
          <path id="Trazado_890246" data-name="Trazado 890246" d="M124.975,53.956c-.262-.234-.631.168-.368.4a11.988,11.988,0,0,1,3.673,7.3c.051.345.6.324.544-.023a12.568,12.568,0,0,0-3.849-7.682" transform="translate(26.383 11.418)" fill="#4e4c6b"/>
          <path id="Trazado_890247" data-name="Trazado 890247" d="M128.247,53.46a14.305,14.305,0,0,1,3.214,8.663.272.272,0,0,0,.544-.024,14.83,14.83,0,0,0-3.391-9.041c-.239-.261-.6.144-.367.4" transform="translate(27.158 11.224)" fill="#4e4c6b"/>
          <path id="Trazado_890248" data-name="Trazado 890248" d="M131.312,52.032c1.837,1.995,2.654,4.6,3.6,7.081.125.328.645.162.52-.168-.983-2.584-1.843-5.243-3.751-7.315-.239-.261-.6.144-.367.4" transform="translate(27.807 10.922)" fill="#4e4c6b"/>
          <path id="Trazado_890249" data-name="Trazado 890249" d="M133.247,49.491c-.291-.2-.542.285-.253.48a11.81,11.81,0,0,1,3.369,4.29c.172.305.629.007.458-.3a12.285,12.285,0,0,0-3.574-4.473" transform="translate(28.153 10.476)" fill="#4e4c6b"/>
          <path id="Trazado_890250" data-name="Trazado 890250" d="M137.883,51.432a14.3,14.3,0,0,0-3.409-4.112c-.288-.2-.537.286-.253.484a13.7,13.7,0,0,1,3.2,3.924c.2.291.654,0,.458-.3" transform="translate(28.413 10.017)" fill="#4e4c6b"/>
          <path id="Trazado_890251" data-name="Trazado 890251" d="M118.405,53.843a14.056,14.056,0,0,1,2.5,4.958c.1.336.617.168.52-.171a14.4,14.4,0,0,0-2.564-5.08c-.217-.273-.679.021-.458.293" transform="translate(25.076 11.324)" fill="#4e4c6b"/>
          <path id="Trazado_890252" data-name="Trazado 890252" d="M122.976,60.663a10.832,10.832,0,0,1-3.636,7.981c-.271.225.118.61.385.385a11.378,11.378,0,0,0,3.8-8.367c.016-.351-.53-.349-.545,0" transform="translate(25.267 12.798)" fill="#4e4c6b"/>
          <path id="Trazado_890253" data-name="Trazado 890253" d="M120.309,62.612a21.881,21.881,0,0,1-3.793,6.791c-.239.259.147.646.384.387a22.609,22.609,0,0,0,3.935-7.033c.133-.326-.4-.467-.526-.145" transform="translate(24.672 13.228)" fill="#4e4c6b"/>
          <path id="Trazado_890254" data-name="Trazado 890254" d="M116.308,64.516a15.545,15.545,0,0,1-1.979,4.542c-.19.3.281.571.471.275a16.139,16.139,0,0,0,2.035-4.673.273.273,0,0,0-.527-.144" transform="translate(24.215 13.629)" fill="#4e4c6b"/>
          <path id="Trazado_890255" data-name="Trazado 890255" d="M103.558,60.663a11.378,11.378,0,0,0,3.8,8.367c.268.224.656-.16.385-.385a10.833,10.833,0,0,1-3.636-7.981c-.016-.349-.561-.351-.545,0" transform="translate(21.943 12.798)" fill="#4e4c6b"/>
          <path id="Trazado_890256" data-name="Trazado 890256" d="M106.268,62.757A22.623,22.623,0,0,0,110.2,69.79c.239.259.623-.127.385-.387a21.859,21.859,0,0,1-3.794-6.791c-.131-.321-.658-.182-.526.145" transform="translate(22.512 13.228)" fill="#4e4c6b"/>
          <path id="Trazado_890257" data-name="Trazado 890257" d="M109.945,64.66a16.052,16.052,0,0,0,2.035,4.672c.189.3.662.022.47-.274a15.56,15.56,0,0,1-1.979-4.542.273.273,0,0,0-.526.144" transform="translate(23.294 13.629)" fill="#4e4c6b"/>
          <path id="Trazado_890258" data-name="Trazado 890258" d="M118.777,12.3c-5.48,3.514-16.639,5.927-21.031-.645-.194-.29-.667-.018-.47.274,4.57,6.841,16.013,4.54,21.776.842.294-.19.022-.66-.275-.471" transform="translate(20.601 2.442)" fill="#4e4c6b"/>
          <path id="Trazado_890259" data-name="Trazado 890259" d="M120.99,5.587a21.883,21.883,0,0,1-8.7,5.218c-4.248,1.3-8.785,0-12.811-1.424-.331-.12-.474.41-.144.526,3.98,1.412,7.87,2.326,12.09,1.655,3.8-.6,7.208-3.024,9.95-5.59.258-.24-.128-.625-.385-.385" transform="translate(21.008 1.168)" fill="#4e4c6b"/>
          <path id="Trazado_890260" data-name="Trazado 890260" d="M99.914,6.594c4.777-3.022,11.511-4.61,16.02-.264.253.242.639-.142.385-.385-4.679-4.509-11.677-2.986-16.68.179-.3.188-.023.66.275.47" transform="translate(21.085 0.661)" fill="#4e4c6b"/>
          <path id="Trazado_890261" data-name="Trazado 890261" d="M138.073,22.479c-7.751,1.326-16.485-6.029-17.417-13.635-.041-.343-.588-.348-.544,0,.978,7.99,9.963,15.552,18.107,14.162.345-.059.2-.587-.145-.527" transform="translate(25.45 1.819)" fill="#4e4c6b"/>
          <path id="Trazado_890262" data-name="Trazado 890262" d="M132.466,16.871c.328.126.469-.4.145-.527A11.193,11.193,0,0,1,125,6.874c-.047-.348-.572-.2-.526.144.663,4.921,3.5,8.111,7.994,9.853" transform="translate(26.374 1.414)" fill="#4e4c6b"/>
          <path id="Trazado_890263" data-name="Trazado 890263" d="M129.5,9.941a14.149,14.149,0,0,1,4.954,5.029c.167.31.637.034.473-.275a14.789,14.789,0,0,0-5.153-5.226c-.3-.191-.567.28-.274.471" transform="translate(27.414 1.997)" fill="#4e4c6b"/>
          <path id="Trazado_890264" data-name="Trazado 890264" d="M137.979,21.06a.273.273,0,0,0-.526-.144c-2,6.657-.509,13.58,1.709,19.988.114.33.641.188.526-.144-2.186-6.316-3.684-13.131-1.709-19.7" transform="translate(28.926 4.391)" fill="#4e4c6b"/>
          <path id="Trazado_890265" data-name="Trazado 890265" d="M138.92,34.447c.747-3.611,1.168-7.19.075-10.772a.273.273,0,0,0-.527.144c1.071,3.507.657,6.953-.075,10.484-.07.343.456.487.527.144" transform="translate(29.322 4.976)" fill="#4e4c6b"/>
          <path id="Trazado_890266" data-name="Trazado 890266" d="M94.922,13.687c-.646,6.225-3.93,11.337-8.764,15.191-.275.221.114.6.385.387a22.686,22.686,0,0,0,8.924-15.578c.036-.349-.51-.344-.545,0" transform="translate(18.236 2.845)" fill="#4e4c6b"/>
          <path id="Trazado_890267" data-name="Trazado 890267" d="M84.486,25.446c-.387-5.816.826-12.2,7.082-14.007a.273.273,0,0,0-.144-.526c-6.5,1.875-7.892,8.39-7.483,14.533.023.349.568.351.545,0" transform="translate(17.772 2.31)" fill="#4e4c6b"/>
          <path id="Trazado_890268" data-name="Trazado 890268" d="M90.477,14.166a45.029,45.029,0,0,0-3.594,7.943c-.119.332.41.474.526.144a44.243,44.243,0,0,1,3.54-7.811.273.273,0,0,0-.471-.276" transform="translate(18.406 2.974)" fill="#4e4c6b"/>
          <path id="Trazado_890269" data-name="Trazado 890269" d="M86.525,29.816c.033-.349-.514-.347-.545,0a76.2,76.2,0,0,0,.074,10.48c.016.351.561.351.545,0a76.2,76.2,0,0,1-.074-10.48" transform="translate(18.184 6.262)" fill="#4e4c6b"/>
          <path id="Trazado_890270" data-name="Trazado 890270" d="M84.277,26.15c.057-.343-.468-.49-.527-.144-.728,4.375-.121,8.71.362,13.077.038.345.583.349.544,0-.476-4.312-1.1-8.612-.379-12.933" transform="translate(17.674 5.468)" fill="#4e4c6b"/>
        </g>
      </g>
    </g>
    <g id="Grupo_1104879" data-name="Grupo 1104879" transform="translate(6454 10860)">
      <g id="Grupo_1104875" data-name="Grupo 1104875" transform="translate(-2882 -3590.001)">
        <g id="Grupo_1101903" data-name="Grupo 1101903" transform="translate(-2959.384 -8779.029)">
          <g transform="matrix(1, 0, 0, 1, 197.38, 6618.09)" filter="url(#Trazado_879415)">
            <g id="Trazado_879415-2" data-name="Trazado 879415" transform="translate(545.51 202.91)" fill="none">
              <path d="M21.5,43A21.5,21.5,0,1,0,0,21.5,21.5,21.5,0,0,0,21.5,43Z" stroke="none"/>
              <path d="M 21.5 37 C 30.04673004150391 37 37 30.04673004150391 37 21.5 C 37 12.95327091217041 30.04673004150391 6 21.5 6 C 12.95327091217041 6 6 12.95327091217041 6 21.5 C 6 30.04673004150391 12.95327091217041 37 21.5 37 M 21.5 43 C 9.625882148742676 43 0 33.37411880493164 0 21.5 C 0 9.625882148742676 9.625882148742676 0 21.5 0 C 33.37411880493164 0 43 9.625882148742676 43 21.5 C 43 33.37411880493164 33.37411880493164 43 21.5 43 Z" stroke="none" fill="#fff"/>
            </g>
          </g>
          <circle id="Elipse_11694" data-name="Elipse 11694" cx="16" cy="16" r="16" transform="translate(764.39 6842.5)" fill="url(#linear-gradient)"/>
          <g id="Enmascarar_grupo_1098733" data-name="Enmascarar grupo 1098733" transform="translate(197.384 6622.029)" clip-path="url(#clip-path-3)">
            <g transform="matrix(1, 0, 0, 1, 0, -3.94)" filter="url(#Trazado_879416)">
              <g id="Trazado_879416-2" data-name="Trazado 879416" transform="translate(-48.19 11.36)" fill="none">
                <path d="M47.744,0A47.744,47.744,0,1,1,0,47.744,47.744,47.744,0,0,1,47.744,0Z" stroke="none"/>
                <path d="M 47.74413681030273 16 C 30.2403564453125 16 16 30.2403564453125 16 47.74413681030273 C 16 65.24791717529297 30.2403564453125 79.48827362060547 47.74413681030273 79.48827362060547 C 65.24791717529297 79.48827362060547 79.48827362060547 65.24791717529297 79.48827362060547 47.74413681030273 C 79.48827362060547 30.2403564453125 65.24791717529297 16 47.74413681030273 16 M 47.74413681030273 0 C 74.11249542236328 0 95.48827362060547 21.37577819824219 95.48827362060547 47.74413681030273 C 95.48827362060547 74.11249542236328 74.11249542236328 95.48827362060547 47.74413681030273 95.48827362060547 C 21.37577819824219 95.48827362060547 0 74.11249542236328 0 47.74413681030273 C 0 21.37577819824219 21.37577819824219 0 47.74413681030273 0 Z" stroke="none" fill="#f0c518"/>
              </g>
            </g>
          </g>
        </g>
      </g>
      <path id="Trazado_890271" data-name="Trazado 890271" d="M199.412,32.293h-.086c-2.179-.039-4.237-1.543-5.647-4.126-1.846-3.386-1.661-7.917.258-11.847a15.986,15.986,0,0,0-6.968.863c-5.032,1.864-7.458,5.982-6.49,11.017a.333.333,0,1,1-.654.125c-1.035-5.381,1.549-9.78,6.913-11.766a16.66,16.66,0,0,1,7.523-.865,15.555,15.555,0,0,1,2.06-2.926c4.012-4.488,9.732-5.67,15.692-3.241a.333.333,0,0,1-.251.617c-5.686-2.315-11.132-1.2-14.944,3.067a14.958,14.958,0,0,0-1.85,2.579c3.419.545,6.569,2.2,8.252,5.141,1.8,3.151,2.021,6.331.6,8.724a5.14,5.14,0,0,1-4.411,2.638M194.637,16.4c-1.926,3.787-2.151,8.183-.373,11.444,1.31,2.4,3.113,3.745,5.074,3.779a4.519,4.519,0,0,0,3.912-2.311c1.292-2.181,1.07-5.117-.609-8.054-1.615-2.826-4.686-4.383-8-4.858" transform="translate(-5561.22 -5557.764)" fill="#f2ac30"/>
      <path id="Trazado_890274" data-name="Trazado 890274" d="M199.412,8.289h-.086c-2.179.039-4.237,1.543-5.647,4.126-1.846,3.386-1.661,7.917.258,11.847a15.986,15.986,0,0,1-6.968-.863c-5.032-1.864-7.458-5.982-6.49-11.017a.333.333,0,1,0-.654-.125c-1.035,5.381,1.549,9.78,6.912,11.766a16.66,16.66,0,0,0,7.523.865,15.555,15.555,0,0,0,2.06,2.926c4.012,4.488,9.732,5.67,15.692,3.241a.333.333,0,0,0-.251-.617c-5.686,2.315-11.132,1.2-14.944-3.067a14.958,14.958,0,0,1-1.85-2.579c3.419-.545,6.569-2.2,8.252-5.141,1.8-3.151,2.021-6.331.6-8.724a5.14,5.14,0,0,0-4.411-2.638m-4.775,15.89c-1.926-3.786-2.151-8.183-.373-11.444,1.31-2.4,3.113-3.745,5.074-3.779a4.519,4.519,0,0,1,3.912,2.311c1.292,2.181,1.07,5.117-.609,8.054-1.615,2.826-4.686,4.383-8,4.858" transform="translate(-5633.601 -5742.764)" fill="#f2ac30"/>
      <path id="Trazado_890273" data-name="Trazado 890273" d="M192.409,32.293h.086c2.179-.039,4.237-1.543,5.647-4.126,1.846-3.386,1.661-7.917-.258-11.847a15.986,15.986,0,0,1,6.968.863c5.032,1.864,7.458,5.982,6.49,11.017a.333.333,0,1,0,.654.125c1.035-5.381-1.549-9.78-6.912-11.766a16.66,16.66,0,0,0-7.523-.865,15.555,15.555,0,0,0-2.06-2.926c-4.012-4.488-9.732-5.67-15.692-3.241a.333.333,0,0,0,.251.617c5.686-2.315,11.132-1.2,14.944,3.067a14.958,14.958,0,0,1,1.85,2.579c-3.419.545-6.569,2.2-8.252,5.141-1.8,3.151-2.021,6.331-.6,8.724a5.14,5.14,0,0,0,4.411,2.638m4.775-15.89c1.926,3.786,2.151,8.183.373,11.444-1.31,2.4-3.113,3.745-5.074,3.779a4.519,4.519,0,0,1-3.912-2.311c-1.292-2.181-1.07-5.117.609-8.054,1.615-2.826,4.686-4.383,8-4.858" transform="translate(-5298.601 -5733.764)" fill="#f2ac30"/>
      <path id="Trazado_890272" data-name="Trazado 890272" d="M13.977,180.1a9.443,9.443,0,0,1-4.155-1.037.333.333,0,1,1,.292-.6,7.488,7.488,0,0,0,9.042-1.259,11.094,11.094,0,0,0,2.154-2.98,7.626,7.626,0,0,1-5.5-4.146c-1.557-3.279-1.026-6-.009-7.458a3.315,3.315,0,0,1,3.023-1.557c1.469.136,2.782,1.323,3.7,3.344a12.047,12.047,0,0,1-.251,9.3,9.236,9.236,0,0,0,3.722-.332c3.043-.935,6.016-3.759,5.23-8.883a.333.333,0,0,1,.658-.1c.85,5.544-2.384,8.6-5.693,9.62a9.918,9.918,0,0,1-4.2.328,11.779,11.779,0,0,1-2.367,3.34,7.982,7.982,0,0,1-5.643,2.416m4.576-18.382a2.726,2.726,0,0,0-2.206,1.286c-.91,1.3-1.37,3.77.066,6.791a7.006,7.006,0,0,0,5.187,3.814,11.387,11.387,0,0,0,.316-8.924c-.812-1.794-1.933-2.844-3.153-2.956-.07-.007-.14-.01-.21-.01" transform="translate(-5642.634 -5809.246)" fill="#ffd4d4"/>
    </g>
  </g>
</svg>
