<svg xmlns="http://www.w3.org/2000/svg" width="64" height="64" viewBox="0 0 64 64">
  <g id="Grupo_1104740" data-name="Grupo 1104740" transform="translate(-303 -6365)">
    <circle id="Elipse_9672" data-name="Elipse 9672" cx="32" cy="32" r="32" transform="translate(303 6365)" fill="#f0c518"/>
    <g id="laptop_490440" transform="translate(315.046 6377.046)">
      <g id="Grupo_1104130" data-name="Grupo 1104130" transform="translate(0 0)">
        <g id="Grupo_1104129" data-name="Grupo 1104129" transform="translate(0 0)">
          <path id="Trazado_888186" data-name="Trazado 888186" d="M39.243,33.922h-1.33V5.321a.662.662,0,0,0-.195-.47L33.062.195A.662.662,0,0,0,32.592,0H17.959a.665.665,0,0,0-.665.665V9.312H5.321A3.329,3.329,0,0,0,2,12.638V33.922H.665A.665.665,0,0,0,0,34.587v2a3.329,3.329,0,0,0,3.326,3.326H36.583a3.329,3.329,0,0,0,3.326-3.326v-2A.665.665,0,0,0,39.243,33.922ZM33.257,2.271l2.385,2.385H33.257ZM18.624,13.3V1.33h13.3V5.321a.665.665,0,0,0,.665.665h3.991V26.605H18.624Zm-.665,14.633h15.3v3.326H6.651V13.968H17.294v13.3A.665.665,0,0,0,17.959,27.936ZM3.326,12.638a2,2,0,0,1,2-2H17.294v2H5.986a.665.665,0,0,0-.665.665V31.927a.665.665,0,0,0,.665.665H33.922a.665.665,0,0,0,.665-.665V27.936h2v5.986H25.275a.662.662,0,0,0-.47.195l-.47.47H15.574l-.47-.47a.662.662,0,0,0-.47-.195H3.326ZM38.578,36.583a2,2,0,0,1-2,2H3.326a2,2,0,0,1-2-2v-1.33H14.358l.47.47a.662.662,0,0,0,.47.195H24.61a.662.662,0,0,0,.47-.195l.47-.47H38.578Z" transform="translate(0 0)" fill="#12263f"/>
        </g>
      </g>
      <g id="Grupo_1104132" data-name="Grupo 1104132" transform="translate(8.146 16.264)">
        <g id="Grupo_1104131" data-name="Grupo 1104131" transform="translate(0 0)">
          <rect id="Rectángulo_404530" data-name="Rectángulo 404530" width="3" height="1" transform="translate(-0.192 -0.31)" fill="#12263f"/>
        </g>
      </g>
      <g id="Grupo_1104134" data-name="Grupo 1104134" transform="translate(12.574 16.264)">
        <g id="Grupo_1104133" data-name="Grupo 1104133" transform="translate(0 0)">
          <rect id="Rectángulo_404531" data-name="Rectángulo 404531" width="3" height="1" transform="translate(0.38 -0.31)" fill="#12263f"/>
        </g>
      </g>
      <g id="Grupo_1104136" data-name="Grupo 1104136" transform="translate(8.146 18.478)">
        <g id="Grupo_1104135" data-name="Grupo 1104135" transform="translate(0 0)">
          <rect id="Rectángulo_404532" data-name="Rectángulo 404532" width="8" height="1" transform="translate(-0.192 0.476)" fill="#12263f"/>
        </g>
      </g>
      <g id="Grupo_1104138" data-name="Grupo 1104138" transform="translate(8.146 21.43)">
        <g id="Grupo_1104137" data-name="Grupo 1104137" transform="translate(0 0)">
          <rect id="Rectángulo_404533" data-name="Rectángulo 404533" width="2" height="2" transform="translate(-0.192 -0.476)" fill="#12263f"/>
        </g>
      </g>
      <g id="Grupo_1104140" data-name="Grupo 1104140" transform="translate(11.098 21.43)">
        <g id="Grupo_1104139" data-name="Grupo 1104139" transform="translate(0 0)">
          <rect id="Rectángulo_404534" data-name="Rectángulo 404534" width="5" height="2" transform="translate(-0.144 -0.476)" fill="#12263f"/>
        </g>
      </g>
      <g id="Grupo_1104142" data-name="Grupo 1104142" transform="translate(8.146 23.644)">
        <g id="Grupo_1104141" data-name="Grupo 1104141" transform="translate(0 0)">
          <rect id="Rectángulo_404535" data-name="Rectángulo 404535" width="4" height="1" transform="translate(-0.192 0.31)" fill="#12263f"/>
        </g>
      </g>
      <g id="Grupo_1104144" data-name="Grupo 1104144" transform="translate(13.312 23.644)">
        <g id="Grupo_1104143" data-name="Grupo 1104143" transform="translate(0 0)">
          <rect id="Rectángulo_404536" data-name="Rectángulo 404536" width="3" height="1" transform="translate(-0.358 0.31)" fill="#12263f"/>
        </g>
      </g>
      <g id="Grupo_1104146" data-name="Grupo 1104146" transform="translate(8.146 26.596)">
        <g id="Grupo_1104145" data-name="Grupo 1104145" transform="translate(0 0)">
          <rect id="Rectángulo_404537" data-name="Rectángulo 404537" width="2" height="1" transform="translate(-0.192 0.358)" fill="#12263f"/>
        </g>
      </g>
      <g id="Grupo_1104148" data-name="Grupo 1104148" transform="translate(10.36 26.596)">
        <g id="Grupo_1104147" data-name="Grupo 1104147" transform="translate(0 0)">
          <rect id="Rectángulo_404538" data-name="Rectángulo 404538" width="6" height="1" transform="translate(-0.406 0.358)" fill="#12263f"/>
        </g>
      </g>
      <g id="Grupo_1104150" data-name="Grupo 1104150" transform="translate(19.954 5.321)">
        <g id="Grupo_1104149" data-name="Grupo 1104149">
          <path id="Trazado_888187" data-name="Trazado 888187" d="M244.656,64h-3.991a.665.665,0,0,0-.665.665v3.991a.665.665,0,0,0,.665.665h3.991a.665.665,0,0,0,.665-.665V64.665A.665.665,0,0,0,244.656,64Zm-.665,3.991H241.33V65.33h2.661Z" transform="translate(-240 -64)" fill="#12263f"/>
        </g>
      </g>
      <g id="Grupo_1104152" data-name="Grupo 1104152" transform="translate(19.954 11.972)">
        <g id="Grupo_1104151" data-name="Grupo 1104151">
          <path id="Trazado_888188" data-name="Trazado 888188" d="M244.656,144h-3.991a.665.665,0,0,0-.665.665v3.991a.665.665,0,0,0,.665.665h3.991a.665.665,0,0,0,.665-.665v-3.991A.665.665,0,0,0,244.656,144Zm-.665,3.991H241.33V145.33h2.661Z" transform="translate(-240 -144)" fill="#12263f"/>
        </g>
      </g>
      <g id="Grupo_1104154" data-name="Grupo 1104154" transform="translate(19.954 18.624)">
        <g id="Grupo_1104153" data-name="Grupo 1104153">
          <path id="Trazado_888189" data-name="Trazado 888189" d="M244.656,224h-3.991a.665.665,0,0,0-.665.665v3.991a.665.665,0,0,0,.665.665h3.991a.665.665,0,0,0,.665-.665v-3.991A.665.665,0,0,0,244.656,224Zm-.665,3.991H241.33V225.33h2.661Z" transform="translate(-240 -224)" fill="#12263f"/>
        </g>
      </g>
      <g id="Grupo_1104156" data-name="Grupo 1104156" transform="translate(26.135 6.181)">
        <g id="Grupo_1104155" data-name="Grupo 1104155">
          <path id="Trazado_888190" data-name="Trazado 888190" d="M318.335,74.344l-2.19,2.19-.86-.86-.94.94,1.33,1.33a.665.665,0,0,0,.94,0l2.661-2.661Z" transform="translate(-314.344 -74.344)" fill="#12263f"/>
        </g>
      </g>
      <g id="Grupo_1104158" data-name="Grupo 1104158" transform="translate(26.135 12.832)">
        <g id="Grupo_1104157" data-name="Grupo 1104157">
          <path id="Trazado_888191" data-name="Trazado 888191" d="M318.335,154.344l-2.19,2.19-.86-.86-.94.941,1.33,1.33a.665.665,0,0,0,.94,0l2.661-2.661Z" transform="translate(-314.344 -154.344)" fill="#12263f"/>
        </g>
      </g>
      <g id="Grupo_1104160" data-name="Grupo 1104160" transform="translate(26.135 19.484)">
        <g id="Grupo_1104159" data-name="Grupo 1104159">
          <path id="Trazado_888192" data-name="Trazado 888192" d="M318.335,234.344l-2.19,2.19-.86-.86-.94.941,1.33,1.33a.665.665,0,0,0,.94,0l2.661-2.661Z" transform="translate(-314.344 -234.344)" fill="#12263f"/>
        </g>
      </g>
      <g id="Grupo_1104162" data-name="Grupo 1104162" transform="translate(6.67 6.67)">
        <g id="Grupo_1104161" data-name="Grupo 1104161" transform="translate(0 0)">
          <rect id="Rectángulo_404539" data-name="Rectángulo 404539" width="1" height="1" transform="translate(0.284 0.284)" fill="#12263f"/>
        </g>
      </g>
      <g id="Grupo_1104164" data-name="Grupo 1104164" transform="translate(6.67 3.719)">
        <g id="Grupo_1104163" data-name="Grupo 1104163" transform="translate(0 0)">
          <rect id="Rectángulo_404540" data-name="Rectángulo 404540" width="1" height="1" transform="translate(0.284 0.236)" fill="#12263f"/>
        </g>
      </g>
      <g id="Grupo_1104166" data-name="Grupo 1104166" transform="translate(6.67 1.505)">
        <g id="Grupo_1104165" data-name="Grupo 1104165" transform="translate(0 0)">
          <rect id="Rectángulo_404541" data-name="Rectángulo 404541" width="1" height="1" transform="translate(0.284 0.449)" fill="#12263f"/>
        </g>
      </g>
      <g id="Grupo_1104168" data-name="Grupo 1104168" transform="translate(9.622 1.505)">
        <g id="Grupo_1104167" data-name="Grupo 1104167" transform="translate(0 0)">
          <rect id="Rectángulo_404542" data-name="Rectángulo 404542" height="1" transform="translate(0.332 0.449)" fill="#12263f"/>
        </g>
      </g>
      <g id="Grupo_1104170" data-name="Grupo 1104170" transform="translate(11.836 1.505)">
        <g id="Grupo_1104169" data-name="Grupo 1104169" transform="translate(0 0)">
          <rect id="Rectángulo_404543" data-name="Rectángulo 404543" width="1" height="1" transform="translate(0.118 0.449)" fill="#12263f"/>
        </g>
      </g>
      <g id="Grupo_1104172" data-name="Grupo 1104172" transform="translate(14.788 1.505)">
        <g id="Grupo_1104171" data-name="Grupo 1104171" transform="translate(0 0)">
          <rect id="Rectángulo_404544" data-name="Rectángulo 404544" width="1" height="1" transform="translate(0.166 0.449)" fill="#12263f"/>
        </g>
      </g>
    </g>
  </g>
</svg>
