<svg xmlns="http://www.w3.org/2000/svg" xmlns:xlink="http://www.w3.org/1999/xlink" width="119" height="147.5" viewBox="0 0 119 147.5">
  <defs>
    <filter id="Trazado_836181" x="0" y="0" width="119" height="119" filterUnits="userSpaceOnUse">
      <feOffset input="SourceAlpha"/>
      <feGaussianBlur stdDeviation="5.5" result="blur"/>
      <feFlood flood-color="#fff" flood-opacity="0.659"/>
      <feComposite operator="in" in2="blur"/>
      <feComposite in="SourceGraphic"/>
    </filter>
  </defs>
  <g id="Grupo_1105945" data-name="Grupo 1105945" transform="translate(-793.5 -741.5)">
    <g id="Grupo_1105247" data-name="Grupo 1105247" transform="translate(810 758)">
      <g transform="matrix(1, 0, 0, 1, -16.5, -16.5)" filter="url(#Trazado_836181)">
        <path id="Trazado_836181-2" data-name="Trazado 836181" d="M43,0A43,43,0,1,1,0,43,43,43,0,0,1,43,0Z" transform="translate(16.5 16.5)" fill="#4df5df"/>
      </g>
      <g id="vertical_4598303" transform="translate(15.832 10.294)">
        <g id="Grupo_1105255" data-name="Grupo 1105255" transform="translate(37.779 40.517)">
          <path id="Trazado_890705" data-name="Trazado 890705" d="M371.1,347.356v-7.477a.905.905,0,0,1,.905-.905h1.231a.905.905,0,0,0,.713-1.462l-4.83-6.186a.905.905,0,0,0-1.427,0l-4.83,6.186a.905.905,0,0,0,.713,1.462h1.374a.905.905,0,0,1,.905.905v7.477a.92.92,0,0,0,.92.92h3.4A.92.92,0,0,0,371.1,347.356Z" transform="translate(-362.665 -330.978)" fill="#f8e883"/>
        </g>
        <g id="Grupo_1105256" data-name="Grupo 1105256" transform="translate(41.706 40.517)">
          <path id="Trazado_890706" data-name="Trazado 890706" d="M407.711,337.512l-4.83-6.186a.905.905,0,0,0-1.427,0l-1.1,1.4,3.733,4.781a.905.905,0,0,1-.713,1.462h-1.231a.905.905,0,0,0-.905.905v7.477a.92.92,0,0,1-.812.913.95.95,0,0,0,.108.007h3.4a.92.92,0,0,0,.92-.92v-7.477a.905.905,0,0,1,.905-.9H407A.905.905,0,0,0,407.711,337.512Z" transform="translate(-400.358 -330.978)" fill="#ffd549"/>
        </g>
        <g id="Grupo_1105257" data-name="Grupo 1105257" transform="translate(0.783 12.023)">
          <path id="Trazado_890707" data-name="Trazado 890707" d="M35.855,92.734,25.76,60.318q-.047-.15-.106-.294a4.141,4.141,0,0,0-3.843-2.574h0a4.141,4.141,0,0,0-3.842,2.582q-.056.137-.1.279L7.676,92.725a3.541,3.541,0,1,0,6.756,2.123l1.224-3.895a1.018,1.018,0,0,1,.971-.713H26.913a1.018,1.018,0,0,1,.972.715l1.21,3.884a3.541,3.541,0,1,0,6.761-2.106ZM18.315,82.491l2.99-9.513a.514.514,0,0,1,.981,0l2.963,9.513a.514.514,0,0,1-.491.667H18.805A.514.514,0,0,1,18.315,82.491Z" transform="translate(-7.512 -57.449)" fill="#ea7b45"/>
        </g>
        <g id="Grupo_1105258" data-name="Grupo 1105258" transform="translate(12.819 12.023)">
          <path id="Trazado_890708" data-name="Trazado 890708" d="M139.363,92.734l-10.1-32.416q-.047-.15-.106-.294a4.141,4.141,0,0,0-3.843-2.574h0a4.148,4.148,0,0,0-2.258.669,4.147,4.147,0,0,1,1.58,1.906q.06.145.106.294l10.1,32.416a3.541,3.541,0,0,1-1.117,3.776,3.54,3.54,0,0,0,5.643-3.776Z" transform="translate(-123.056 -57.449)" fill="#e76833"/>
        </g>
        <g id="Grupo_1105261" data-name="Grupo 1105261" transform="translate(36.998 39.736)">
          <path id="Trazado_890711" data-name="Trazado 890711" d="M363.454,342.339h-3.4a1.7,1.7,0,0,1-1.7-1.7V333.16a.124.124,0,0,0-.124-.124h-1.374a1.686,1.686,0,0,1-1.329-2.724l4.83-6.186a1.686,1.686,0,0,1,2.658,0l4.83,6.186a1.686,1.686,0,0,1-1.329,2.724h-1.231a.124.124,0,0,0-.124.124v7.477A1.7,1.7,0,0,1,363.454,342.339Zm-1.774-17.3a.119.119,0,0,0-.1.048l-4.83,6.186a.124.124,0,0,0,.1.2h1.374a1.688,1.688,0,0,1,1.686,1.686v7.477a.139.139,0,0,0,.139.139h3.4a.139.139,0,0,0,.139-.139V333.16a1.688,1.688,0,0,1,1.686-1.686h1.231a.124.124,0,0,0,.1-.2l-4.83-6.186A.119.119,0,0,0,361.681,325.041Z" transform="translate(-355.162 -323.478)"/>
        </g>
        <g id="Grupo_1105262" data-name="Grupo 1105262" transform="translate(0 11.242)">
          <path id="Trazado_890712" data-name="Trazado 890712" d="M25.74,91.392a4.329,4.329,0,0,1-4.121-3.039l-1.21-3.884a.236.236,0,0,0-.226-.166H15.944a.781.781,0,0,1,0-1.563h4.239A1.791,1.791,0,0,1,21.9,84.005l1.21,3.883a2.759,2.759,0,1,0,5.269-1.641l-10.1-32.416c-.024-.078-.052-.155-.083-.229a3.374,3.374,0,0,0-6.244.006c-.029.071-.055.144-.078.217L1.692,86.24A2.759,2.759,0,1,0,6.957,87.9L8.181,84A1.792,1.792,0,0,1,9.9,82.74h2.921a.781.781,0,0,1,0,1.563H9.9a.236.236,0,0,0-.226.166L8.447,88.364a4.322,4.322,0,0,1-7.955.7,4.294,4.294,0,0,1-.291-3.3L10.389,53.357c.036-.114.077-.229.123-.34a4.937,4.937,0,0,1,9.135-.009c.048.117.092.238.13.36l10.1,32.416a4.328,4.328,0,0,1-4.132,5.609ZM18.029,77.222H12.076a1.3,1.3,0,0,1-1.236-1.684l2.99-9.513a1.29,1.29,0,0,1,1.236-.907h0a1.29,1.29,0,0,1,1.235.91l2.963,9.513a1.3,1.3,0,0,1-1.236,1.68Zm-6.443-1.449h0Zm.855-.113h5.225l-2.6-8.35Z" transform="translate(0 -49.949)"/>
        </g>
        <g id="Grupo_1105263" data-name="Grupo 1105263" transform="translate(31.825 32.546)">
          <path id="Trazado_890713" data-name="Trazado 890713" d="M326.237,256.019H306.289a.781.781,0,1,1,0-1.563h19.948a.781.781,0,1,1,0,1.563Z" transform="translate(-305.508 -254.456)"/>
        </g>
        <g id="Grupo_1105264" data-name="Grupo 1105264" transform="translate(0.001 57.109)">
          <path id="Trazado_890714" data-name="Trazado 890714" d="M29.243,491.82H.792a.781.781,0,0,1,0-1.563H29.243a.781.781,0,1,1,0,1.563Z" transform="translate(-0.011 -490.257)"/>
        </g>
        <g id="g1049" transform="translate(35.168 4.541)">
          <path id="path950" d="M160.816-23.7a2.565,2.565,0,0,0-2.565,2.565,2.565,2.565,0,0,0,2.565,2.565H163V-4.722h-2.18a2.565,2.565,0,0,0-2.565,2.565A2.565,2.565,0,0,0,160.816.409h9.491a2.565,2.565,0,0,0,2.565-2.565,2.565,2.565,0,0,0-2.565-2.565h-2.18V-21.139a2.565,2.565,0,0,0-2.565-2.565Z" transform="translate(-157.823 24.132)" fill="#91dafa"/>
          <path id="path1035" d="M200.659,69.975a.855.855,0,0,0-.825.634.959.959,0,0,1-.758.417h-2.44a.855.855,0,0,0,0,1.71h2.44a2.389,2.389,0,0,0,2.41-1.684.856.856,0,0,0-.827-1.077Z" transform="translate(-186.909 -48.468)" fill="#6ec2fc"/>
          <path id="path1039" d="M159.344-25.6a3,3,0,0,0-2.993,2.993,3,3,0,0,0,2.993,2.993H161.1v13h-1.759a3,3,0,0,0-2.951,2.993,3,3,0,0,0,2.951,2.993h9.5a3,3,0,0,0,2.993-2.993,3,3,0,0,0-2.993-2.993h-1.753v-15.99A3,3,0,0,0,164.09-25.6h-4.746Zm0,.855h4.746a2.131,2.131,0,0,1,2.138,2.138V-6.194a.428.428,0,0,0,.427.428h2.18a2.131,2.131,0,0,1,2.138,2.138,2.131,2.131,0,0,1-2.138,2.138H159.35a2.132,2.132,0,0,1-2.108-2.138,2.132,2.132,0,0,1,2.108-2.138h2.174a.428.428,0,0,0,.428-.427V-20.046a.428.428,0,0,0-.427-.428h-2.18a2.131,2.131,0,0,1-2.138-2.138A2.131,2.131,0,0,1,159.344-24.749Z" transform="translate(-156.351 25.604)"/>
          <path id="path1043" d="M163.555-21.726a4.825,4.825,0,0,0-1.555.134,2.219,2.219,0,0,0-1.212,1.141.428.428,0,0,0,.172.58.428.428,0,0,0,.579-.172c.268-.5.463-.647.731-.737a4.75,4.75,0,0,1,1.285-.09.428.428,0,0,0,.428-.428A.428.428,0,0,0,163.555-21.726Z" transform="translate(-159.749 22.6)" fill="#6ec2fc"/>
        </g>
      </g>
    </g>
    <rect id="Rectángulo_405323" data-name="Rectángulo 405323" width="30" height="30" rx="3" transform="translate(838 859)" fill="#f0c518"/>
    <path id="Trazado_891246" data-name="Trazado 891246" d="M8.75,10.3a5.762,5.762,0,0,1-.977,3.609,3.409,3.409,0,0,1-2.859,1.25A3.433,3.433,0,0,1,2.07,13.93a5.594,5.594,0,0,1-1.008-3.516V8.32A5.687,5.687,0,0,1,2.051,4.7,3.434,3.434,0,0,1,4.9,3.469,3.437,3.437,0,0,1,7.742,4.691,5.576,5.576,0,0,1,8.75,8.2Zm-2.258-2.3a4.165,4.165,0,0,0-.387-2.061A1.307,1.307,0,0,0,4.9,5.289,1.284,1.284,0,0,0,3.723,5.9a3.9,3.9,0,0,0-.4,1.92v2.768A4.372,4.372,0,0,0,3.7,12.659a1.29,1.29,0,0,0,1.215.676,1.268,1.268,0,0,0,1.2-.649A4.268,4.268,0,0,0,6.492,10.7ZM15.758,15H13.5V6.285l-2.7.832V5.3l4.711-1.687h.242Z" transform="translate(844 864)" fill="#12263f"/>
  </g>
</svg>
