<svg xmlns="http://www.w3.org/2000/svg" width="88.199" height="88.104" viewBox="0 0 88.199 88.104">
  <g id="datos_5_" data-name="datos (5)" transform="translate(0 -0.5)">
    <path id="Trazado_891080" data-name="Trazado 891080" d="M88.622,79.23H11.882a4.39,4.39,0,0,1-4.391-4.39V12.383a4.39,4.39,0,0,1,4.391-4.391H88.622a4.39,4.39,0,0,1,4.39,4.391V74.84A4.39,4.39,0,0,1,88.622,79.23Zm0,0" transform="translate(-6.202 -6.202)" fill="#ffd86e"/>
    <path id="Trazado_891081" data-name="Trazado 891081" d="M457.077,12.386V74.844a4.39,4.39,0,0,1-4.39,4.39h-5.363a4.39,4.39,0,0,0,4.39-4.39V12.386A4.39,4.39,0,0,0,447.324,8h5.363A4.39,4.39,0,0,1,457.077,12.386Zm0,0" transform="translate(-370.266 -6.205)" fill="#ffb509"/>
    <path id="Trazado_891082" data-name="Trazado 891082" d="M93.013,360.129H7.493v6.187a4.39,4.39,0,0,0,4.391,4.39H88.623a4.39,4.39,0,0,0,4.39-4.39Zm0,0" transform="translate(-6.203 -297.678)" fill="#838383"/>
    <path id="Trazado_891083" data-name="Trazado 891083" d="M457.077,360.129v6.187a4.39,4.39,0,0,1-4.39,4.39h-5.363a4.39,4.39,0,0,0,4.39-4.39v-6.187Zm0,0" transform="translate(-370.266 -297.678)" fill="#5a5a5a"/>
    <path id="Trazado_891084" data-name="Trazado 891084" d="M93.57,22.969H8.047V12.382a4.39,4.39,0,0,1,4.39-4.39H89.18a4.39,4.39,0,0,1,4.39,4.39Zm0,0" transform="translate(-6.661 -6.202)" fill="#acacac"/>
    <path id="Trazado_891085" data-name="Trazado 891085" d="M457.176,12.385V22.973h-5.461V12.385A4.389,4.389,0,0,0,447.324,8h5.461A4.39,4.39,0,0,1,457.176,12.385Zm0,0" transform="translate(-370.267 -6.205)" fill="#9c9c9c"/>
    <path id="Trazado_891086" data-name="Trazado 891086" d="M186.277,421.531H210.2v7.211H186.277Zm0,0" transform="translate(-154.188 -348.502)" fill="#5a5a5a"/>
    <path id="Trazado_891087" data-name="Trazado 891087" d="M176.569,470.464H137.142a.861.861,0,0,1-.861-.861v-2.789a3.425,3.425,0,0,1,3.424-3.424h34.3a3.424,3.424,0,0,1,3.424,3.424V469.6a.86.86,0,0,1-.861.861Zm0,0" transform="translate(-112.805 -383.151)" fill="#838383"/>
    <path id="Trazado_891088" data-name="Trazado 891088" d="M339.969,466.818v2.79a.861.861,0,0,1-.861.861h-3.038v-3.651a3.424,3.424,0,0,0-3.423-3.423h3.9A3.423,3.423,0,0,1,339.969,466.818Zm0,0" transform="translate(-275.345 -383.154)" fill="#5a5a5a"/>
    <path id="Trazado_891089" data-name="Trazado 891089" d="M295.477,275.613h27.951v5.3H295.477Zm0,0" transform="translate(-244.577 -227.721)" fill="#64dcfc"/>
    <path id="Trazado_891090" data-name="Trazado 891090" d="M295.477,357.273h27.951v5.3H295.477Zm0,0" transform="translate(-244.577 -295.314)" fill="#64dcfc"/>
    <path id="Trazado_891091" data-name="Trazado 891091" d="M438.551,275.613h3.3v5.3h-3.3Zm0,0" transform="translate(-363.004 -227.721)" fill="#00d1fc"/>
    <path id="Trazado_891092" data-name="Trazado 891092" d="M438.551,357.273h3.3v5.3h-3.3Zm0,0" transform="translate(-363.004 -295.314)" fill="#00d1fc"/>
    <g id="Grupo_1105726" data-name="Grupo 1105726" transform="translate(47.337 39.123)">
      <path id="Trazado_891093" data-name="Trazado 891093" d="M308.625,233.476h-32.58a1.248,1.248,0,0,1-1.248-1.248v-6.274a1.249,1.249,0,0,1,1.248-1.248h32.58a1.249,1.249,0,0,1,1.248,1.248v6.274A1.248,1.248,0,0,1,308.625,233.476Zm0,0" transform="translate(-274.797 -224.707)" fill="#0396fd"/>
      <path id="Trazado_891094" data-name="Trazado 891094" d="M308.625,315.136h-32.58a1.248,1.248,0,0,1-1.248-1.248v-6.274a1.249,1.249,0,0,1,1.248-1.248h32.58a1.249,1.249,0,0,1,1.248,1.248v6.274A1.248,1.248,0,0,1,308.625,315.136Zm0,0" transform="translate(-274.797 -292.3)" fill="#0396fd"/>
      <path id="Trazado_891095" data-name="Trazado 891095" d="M308.625,396.8h-32.58a1.248,1.248,0,0,1-1.248-1.248v-6.274a1.248,1.248,0,0,1,1.248-1.248h32.58a1.248,1.248,0,0,1,1.248,1.248v6.274A1.248,1.248,0,0,1,308.625,396.8Zm0,0" transform="translate(-274.797 -359.893)" fill="#0396fd"/>
    </g>
    <path id="Trazado_891096" data-name="Trazado 891096" d="M458.51,225.958v6.274a1.247,1.247,0,0,1-1.248,1.248h-2.895a1.247,1.247,0,0,0,1.248-1.248v-6.274a1.247,1.247,0,0,0-1.248-1.248h2.895A1.247,1.247,0,0,1,458.51,225.958Zm0,0" transform="translate(-376.096 -185.587)" fill="#0077f0"/>
    <path id="Trazado_891097" data-name="Trazado 891097" d="M458.51,307.614v6.274a1.246,1.246,0,0,1-1.248,1.248h-2.895a1.246,1.246,0,0,0,1.248-1.248v-6.274a1.247,1.247,0,0,0-1.248-1.248h2.895A1.247,1.247,0,0,1,458.51,307.614Zm0,0" transform="translate(-376.096 -253.177)" fill="#0077f0"/>
    <path id="Trazado_891098" data-name="Trazado 891098" d="M458.51,389.279v6.273a1.248,1.248,0,0,1-1.248,1.248h-2.895a1.248,1.248,0,0,0,1.248-1.248v-6.273a1.246,1.246,0,0,0-1.248-1.248h2.895A1.246,1.246,0,0,1,458.51,389.279Zm0,0" transform="translate(-376.096 -320.773)" fill="#0077f0"/>
    <path id="Trazado_891099" data-name="Trazado 891099" d="M45.76,39.251a2.5,2.5,0,1,1-2.5-2.5A2.5,2.5,0,0,1,45.76,39.251Zm0,0" transform="translate(-33.744 -30.009)" fill="#ff6b81"/>
    <path id="Trazado_891100" data-name="Trazado 891100" d="M101.745,39.251a2.5,2.5,0,1,1-2.5-2.5A2.5,2.5,0,0,1,101.745,39.251Zm0,0" transform="translate(-80.084 -30.009)" fill="#ffd86e"/>
    <path id="Trazado_891101" data-name="Trazado 891101" d="M157.732,39.251a2.5,2.5,0,1,1-2.5-2.5A2.5,2.5,0,0,1,157.732,39.251Zm0,0" transform="translate(-126.427 -30.009)" fill="#80e0dc"/>
    <path id="Trazado_891102" data-name="Trazado 891102" d="M49.484,39.256a2.5,2.5,0,0,1-4.218,1.805,2.495,2.495,0,0,0,1.664-4.3.573.573,0,0,1,.059,0,2.5,2.5,0,0,1,2.5,2.5Zm0,0" transform="translate(-37.468 -30.012)" fill="#ff435f"/>
    <path id="Trazado_891103" data-name="Trazado 891103" d="M105.466,39.256a2.5,2.5,0,0,1-4.22,1.805,2.495,2.495,0,0,0,1.666-4.3.528.528,0,0,1,.057,0,2.5,2.5,0,0,1,2.5,2.5Zm0,0" transform="translate(-83.805 -30.012)" fill="#ffb509"/>
    <path id="Trazado_891104" data-name="Trazado 891104" d="M161.454,39.256a2.5,2.5,0,0,1-4.22,1.805,2.495,2.495,0,0,0,1.664-4.3.573.573,0,0,1,.059,0,2.5,2.5,0,0,1,2.5,2.5Zm0,0" transform="translate(-130.148 -30.012)" fill="#00a8b0"/>
    <path id="Trazado_891105" data-name="Trazado 891105" d="M37.7,137.568a1.291,1.291,0,1,0,1.826-1.826l-3.134-3.134,3.134-3.134a1.291,1.291,0,1,0-1.826-1.826L33.652,131.7a1.291,1.291,0,0,0,0,1.826Zm0,0" transform="translate(-27.542 -104.933)"/>
    <path id="Trazado_891106" data-name="Trazado 891106" d="M116.443,132.6l-3.134,3.134a1.291,1.291,0,1,0,1.826,1.826l4.048-4.048a1.29,1.29,0,0,0,0-1.825l-4.048-4.048a1.291,1.291,0,0,0-1.825,1.826Zm0,0" transform="translate(-93.477 -104.929)"/>
    <path id="Trazado_891107" data-name="Trazado 891107" d="M77.236,137.852a1.291,1.291,0,0,0,1.674-.729l3.179-8.094a1.291,1.291,0,1,0-2.4-.944l-3.18,8.094A1.291,1.291,0,0,0,77.236,137.852Zm0,0" transform="translate(-63.254 -104.928)"/>
    <path id="Trazado_891108" data-name="Trazado 891108" d="M38.806,220.8h8.7a1.291,1.291,0,0,0,0-2.582h-8.7a1.291,1.291,0,0,0,0,2.582Zm0,0" transform="translate(-31.053 -180.21)"/>
    <path id="Trazado_891109" data-name="Trazado 891109" d="M132.091,218.215H116.8a1.291,1.291,0,0,0,0,2.582h15.289a1.291,1.291,0,1,0,0-2.582Zm0,0" transform="translate(-95.614 -180.21)"/>
    <path id="Trazado_891110" data-name="Trazado 891110" d="M38.806,252.4h3.7a1.291,1.291,0,0,0,0-2.582h-3.7a1.291,1.291,0,0,0,0,2.582Zm0,0" transform="translate(-31.053 -206.372)"/>
    <path id="Trazado_891111" data-name="Trazado 891111" d="M178.138,249.82a1.291,1.291,0,0,0,0,2.582h2.256a1.291,1.291,0,1,0,0-2.582Zm0,0" transform="translate(-146.384 -206.371)"/>
    <path id="Trazado_891112" data-name="Trazado 891112" d="M98.974,251.111a1.291,1.291,0,0,0-1.291-1.291H86.6a1.291,1.291,0,0,0,0,2.582h11.08A1.291,1.291,0,0,0,98.974,251.111Zm0,0" transform="translate(-70.616 -206.372)"/>
    <path id="Trazado_891113" data-name="Trazado 891113" d="M213.7,251.111a1.291,1.291,0,0,0,1.291,1.291h4.225a1.291,1.291,0,1,0,0-2.582h-4.225A1.291,1.291,0,0,0,213.7,251.111Zm0,0" transform="translate(-176.89 -206.372)"/>
    <path id="Trazado_891114" data-name="Trazado 891114" d="M166.69,151.86h4.457a1.291,1.291,0,1,0,0-2.582H166.69a1.291,1.291,0,1,0,0,2.582Zm0,0" transform="translate(-136.907 -123.149)"/>
    <path id="Trazado_891115" data-name="Trazado 891115" d="M221.537,151.86H248.73a1.291,1.291,0,0,0,0-2.582H221.537a1.291,1.291,0,1,0,0,2.582Zm0,0" transform="translate(-182.306 -123.149)"/>
    <path id="Trazado_891116" data-name="Trazado 891116" d="M302.49,182.246H291.474a1.291,1.291,0,0,0,0,2.582H302.49a1.291,1.291,0,0,0,0-2.582Zm0,0" transform="translate(-240.195 -150.438)"/>
    <path id="Trazado_891117" data-name="Trazado 891117" d="M249.3,182.246h-3.786a1.291,1.291,0,0,0,0,2.582H249.3a1.291,1.291,0,0,0,0-2.582Zm0,0" transform="translate(-202.155 -150.438)"/>
    <path id="Trazado_891118" data-name="Trazado 891118" d="M166.69,184.828h9.276a1.291,1.291,0,0,0,0-2.582H166.69a1.291,1.291,0,1,0,0,2.582Zm0,0" transform="translate(-136.907 -150.437)"/>
    <path id="Trazado_891119" data-name="Trazado 891119" d="M109.233,281.16h-8.7a1.291,1.291,0,1,0,0,2.581h8.7a1.291,1.291,0,1,0,0-2.581Zm0,0" transform="translate(-82.15 -232.312)"/>
    <path id="Trazado_891120" data-name="Trazado 891120" d="M45.487,281.16H38.806a1.291,1.291,0,0,0,0,2.581h6.681a1.291,1.291,0,0,0,0-2.581Zm0,0" transform="translate(-31.053 -232.312)"/>
    <path id="Trazado_891121" data-name="Trazado 891121" d="M187.939,281.16H176.58a1.291,1.291,0,0,0,0,2.581h11.359a1.291,1.291,0,1,0,0-2.581Zm0,0" transform="translate(-145.094 -232.312)"/>
    <path id="Trazado_891122" data-name="Trazado 891122" d="M301.849,242.668h-6.212a1.291,1.291,0,0,0,0,2.582h6.212a1.291,1.291,0,0,0,0-2.582Zm0,0" transform="translate(-243.642 -200.451)"/>
    <path id="Trazado_891123" data-name="Trazado 891123" d="M394.267,245.25h8.769a1.291,1.291,0,1,0,0-2.582h-8.769a1.291,1.291,0,0,0,0,2.582Zm0,0" transform="translate(-325.281 -200.451)"/>
    <path id="Trazado_891124" data-name="Trazado 891124" d="M359.156,242.668h-2.009a1.291,1.291,0,1,0,0,2.582h2.009a1.291,1.291,0,0,0,0-2.582Zm0,0" transform="translate(-294.555 -200.451)"/>
    <path id="Trazado_891125" data-name="Trazado 891125" d="M295.638,326.91h6.212a1.291,1.291,0,0,0,0-2.581h-6.212a1.291,1.291,0,1,0,0,2.581Zm0,0" transform="translate(-243.642 -268.044)"/>
    <path id="Trazado_891126" data-name="Trazado 891126" d="M394.267,326.91h8.769a1.291,1.291,0,1,0,0-2.581h-8.769a1.291,1.291,0,0,0,0,2.581Zm0,0" transform="translate(-325.281 -268.044)"/>
    <path id="Trazado_891127" data-name="Trazado 891127" d="M357.15,326.91h2.009a1.291,1.291,0,1,0,0-2.581H357.15a1.291,1.291,0,0,0,0,2.581Zm0,0" transform="translate(-294.558 -268.044)"/>
    <path id="Trazado_891128" data-name="Trazado 891128" d="M301.849,405.988h-6.212a1.291,1.291,0,1,0,0,2.581h6.212a1.291,1.291,0,1,0,0-2.581Zm0,0" transform="translate(-243.642 -335.637)"/>
    <path id="Trazado_891129" data-name="Trazado 891129" d="M403.036,405.988h-8.769a1.291,1.291,0,1,0,0,2.581h8.769a1.291,1.291,0,1,0,0-2.581Zm0,0" transform="translate(-325.281 -335.637)"/>
    <path id="Trazado_891130" data-name="Trazado 891130" d="M359.156,405.988h-2.009a1.291,1.291,0,1,0,0,2.581h2.009a1.291,1.291,0,1,0,0-2.581Zm0,0" transform="translate(-294.555 -335.637)"/>
    <path id="Trazado_891131" data-name="Trazado 891131" d="M82.518.5H5.681A5.688,5.688,0,0,0,0,6.181V68.639a5.688,5.688,0,0,0,5.681,5.681h4.858a1.291,1.291,0,1,0,0-2.581H5.681a3.1,3.1,0,0,1-3.1-3.1v-4.9H49.609v2.225H48.586a2.541,2.541,0,0,0-2.539,2.539v3.233H18.387a1.291,1.291,0,0,0,0,2.581H30.8v4.63H26.9a4.721,4.721,0,0,0-4.715,4.715v2.789A2.154,2.154,0,0,0,24.337,88.6H63.764a2.154,2.154,0,0,0,2.151-2.151V83.664A4.721,4.721,0,0,0,61.2,78.949H57.3V77.317H81.166A2.541,2.541,0,0,0,83.7,74.778v-.608a5.689,5.689,0,0,0,4.4-5.532l.1-62.458A5.686,5.686,0,0,0,82.518.5ZM48.629,60.669V54.481H81.123v6.187ZM52.19,51.9V49.184H77.56V51.9ZM77.56,63.25v2.717H52.19V63.25ZM33.379,74.319H46.047v.46a2.541,2.541,0,0,0,2.539,2.538h6.136v1.632H33.379ZM61.2,81.531a2.135,2.135,0,0,1,2.133,2.133v2.359H24.767V83.664A2.136,2.136,0,0,1,26.9,81.531Zm19.922-6.8H48.629V68.549H81.123Zm4.4-6.1A3.1,3.1,0,0,1,83.7,71.455V68.5a2.542,2.542,0,0,0-2.539-2.538H80.142V63.742h5.377Zm0-7.478H83.662c.026-.146.042-6.722.042-6.722A2.542,2.542,0,0,0,81.166,51.9H80.142V49.184h1.023A2.542,2.542,0,0,0,83.7,46.645V40.371a2.542,2.542,0,0,0-2.539-2.539H73.875a1.291,1.291,0,0,0,0,2.582h7.248V46.6H48.629V40.414H65.843a1.291,1.291,0,0,0,0-2.582H48.585a2.542,2.542,0,0,0-2.539,2.539v6.274a2.542,2.542,0,0,0,2.539,2.539h1.023V51.9H48.585a2.542,2.542,0,0,0-2.539,2.539s.016,6.576.042,6.722H2.581v-43.1H85.519Zm0-45.684H2.676v-9.3a3.1,3.1,0,0,1,3.1-3.1H82.42a3.1,3.1,0,0,1,3.1,3.1Zm0,0"/>
    <path id="Trazado_891132" data-name="Trazado 891132" d="M37.061,29.262A3.788,3.788,0,1,0,40.85,33.05,3.792,3.792,0,0,0,37.061,29.262Zm0,4.994a1.207,1.207,0,1,1,1.207-1.207A1.208,1.208,0,0,1,37.061,34.256Zm0,0" transform="translate(-27.542 -23.807)"/>
    <path id="Trazado_891133" data-name="Trazado 891133" d="M93.046,29.262a3.788,3.788,0,1,0,3.788,3.788A3.793,3.793,0,0,0,93.046,29.262Zm0,4.994a1.207,1.207,0,1,1,1.207-1.207A1.208,1.208,0,0,1,93.046,34.256Zm0,0" transform="translate(-73.882 -23.807)"/>
    <path id="Trazado_891134" data-name="Trazado 891134" d="M149.034,29.262a3.788,3.788,0,1,0,3.788,3.788A3.792,3.792,0,0,0,149.034,29.262Zm0,4.994a1.207,1.207,0,1,1,1.207-1.207A1.208,1.208,0,0,1,149.034,34.256Zm0,0" transform="translate(-120.225 -23.807)"/>
  </g>
</svg>
