<svg xmlns="http://www.w3.org/2000/svg" width="190" height="135" viewBox="0 0 190 135">
  <g id="Grupo_1101080" data-name="Grupo 1101080" transform="translate(-180 -642)">
    <rect id="Rect치ngulo_400902" data-name="Rect치ngulo 400902" width="190" height="37" rx="11" transform="translate(180 727)" fill="#f0c518"/>
    <rect id="Rect치ngulo_400903" data-name="Rect치ngulo 400903" width="144" height="135" rx="11" transform="translate(203 642)" fill="#3a1d71"/>
    <g id="programador_10_" data-name="programador (10)" transform="translate(210.936 648.875)">
      <g id="Grupo_1099574" data-name="Grupo 1099574" transform="translate(23.765 1.877)">
        <g id="Grupo_1099573" data-name="Grupo 1099573">
          <g id="Grupo_1099571" data-name="Grupo 1099571" transform="translate(10.876)">
            <path id="Trazado_875215" data-name="Trazado 875215" d="M200.271,34.758v8.388h-53.2V34.758A27.259,27.259,0,0,1,174.332,7.5c7.528,0,12.689,3.57,17.624,8.5S200.271,27.233,200.271,34.758Z" transform="translate(-144.911 -7.5)" fill="#3a1d71"/>
            <path id="Trazado_875216" data-name="Trazado 875216" d="M283.258,34.758v7.713l-2.806.57-3.109-5.382V35.882C277.343,13.744,256,7.5,256,7.5a27.256,27.256,0,0,1,27.258,27.258Z" transform="translate(-226.579 -7.5)" fill="#1f0a48"/>
            <path id="Trazado_875217" data-name="Trazado 875217" d="M232.8,274.346V255.782H209.559v18.565Z" transform="translate(-191.759 -193.651)" fill="#ffbf9d"/>
            <path id="Trazado_875218" data-name="Trazado 875218" d="M192.41,128.017H143.292a4.862,4.862,0,0,0-4.862,4.862A12.223,12.223,0,0,0,150.653,145.1h34.4a12.223,12.223,0,0,0,12.223-12.223A4.862,4.862,0,0,0,192.41,128.017Z" transform="translate(-138.43 -97.858)" fill="#ffbf9d"/>
            <path id="Trazado_875219" data-name="Trazado 875219" d="M208.793,124.321l-8.374,7.327a8.991,8.991,0,0,1-5.92,2.224h-4.885a8.99,8.99,0,0,1-5.92-2.224l-8.374-7.327a13.484,13.484,0,0,1-4.605-10.148V93.641a3.893,3.893,0,0,0,3.674-2.6l2.142-6.1a4.131,4.131,0,0,1,5.519-2.432l.009,0a25.493,25.493,0,0,0,20.008,0,4.131,4.131,0,0,1,5.52,2.432l2.141,6.1a3.893,3.893,0,0,0,3.674,2.6v20.532A13.482,13.482,0,0,1,208.793,124.321Z" transform="translate(-162.634 -63.482)" fill="#ffbf9d"/>
          </g>
          <g id="Grupo_1099572" data-name="Grupo 1099572" transform="translate(0 76.913)">
            <path id="Trazado_875220" data-name="Trazado 875220" d="M179.312,359.8l.33-39.786a4.443,4.443,0,0,0-4.443-4.443l-5.855-.716H109.081a4.443,4.443,0,0,0-4.443,4.443v40.5h74.674Z" transform="translate(-102.218 -314.853)" fill="#bed9fd"/>
            <path id="Trazado_875221" data-name="Trazado 875221" d="M172.925,478.789l-7.286-.53H96.812a1.845,1.845,0,0,0-1.845,1.845h0a4.722,4.722,0,0,0,4.722,4.722h64.828l5.782-.778c2.608,0,4.47-.807,4.47-3.414A1.844,1.844,0,0,0,172.925,478.789Z" transform="translate(-94.967 -437.368)" fill="#bed9fd"/>
            <path id="Trazado_875222" data-name="Trazado 875222" d="M367.127,314.854h-7.5a4.443,4.443,0,0,1,4.443,4.443v40.5h7.5V319.3A4.443,4.443,0,0,0,367.127,314.854Z" transform="translate(-293.394 -314.854)" fill="#97c3fc"/>
            <path id="Trazado_875223" data-name="Trazado 875223" d="M380.446,478.259h-8.079v4.895a1.672,1.672,0,0,1-1.672,1.672h6.874a4.722,4.722,0,0,0,4.722-4.722h0A1.845,1.845,0,0,0,380.446,478.259Z" transform="translate(-301.696 -437.368)" fill="#97c3fc"/>
          </g>
        </g>
      </g>
      <g id="Grupo_1099575" data-name="Grupo 1099575" transform="translate(0.002 0)">
        <path id="Trazado_875230" data-name="Trazado 875230" d="M193.1,363.558a1.877,1.877,0,0,0-2.654,0L184.1,369.9a1.877,1.877,0,0,0,0,2.654l6.343,6.343a1.877,1.877,0,0,0,2.655-2.654l-5.016-5.016,5.016-5.016A1.877,1.877,0,0,0,193.1,363.558Z" transform="translate(-137.622 -272.168)"/>
        <path id="Trazado_875231" data-name="Trazado 875231" d="M288.649,378.9a1.878,1.878,0,0,0,2.655,0l6.343-6.343a1.877,1.877,0,0,0,0-2.654l-6.343-6.343a1.877,1.877,0,1,0-2.654,2.654l5.016,5.016-5.016,5.016A1.877,1.877,0,0,0,288.649,378.9Z" transform="translate(-216.006 -272.168)"/>
        <path id="Trazado_875232" data-name="Trazado 875232" d="M238.978,376.339a1.878,1.878,0,0,0,1.765-1.24l5.7-15.8a1.877,1.877,0,0,0-3.531-1.275l-5.7,15.8a1.878,1.878,0,0,0,1.765,2.515Z" transform="translate(-177.769 -267.502)"/>
        <path id="Trazado_875233" data-name="Trazado 875233" d="M169.345,118.037V83.209a6.329,6.329,0,0,0-6.321-6.324h-19.95v-8.8l2.22-1.943a1.877,1.877,0,1,0-2.472-2.824L136.7,68.671a7.118,7.118,0,0,1-4.688,1.76h-4.89a7.117,7.117,0,0,1-4.687-1.76l-8.378-7.332A11.619,11.619,0,0,1,110.09,52.6V33.618a5.786,5.786,0,0,0,1.462-.751,5.723,5.723,0,0,0,2.108-2.8L115.8,23.96a2.258,2.258,0,0,1,3.082-1.3,27.515,27.515,0,0,0,21.43-.027,2.253,2.253,0,0,1,3.018,1.329l2.142,6.106a5.784,5.784,0,0,0,3.57,3.548V52.6a11.513,11.513,0,0,1-.992,4.7,1.877,1.877,0,1,0,3.432,1.521A15.246,15.246,0,0,0,152.8,52.6v-2.92a14.018,14.018,0,0,0,8.083-12.758,6.724,6.724,0,0,0-2.164-4.944V29.151A29.151,29.151,0,0,0,113.059,5.126a1.877,1.877,0,0,0,2.13,3.092,25.4,25.4,0,0,1,39.777,20.934v1.077a6.789,6.789,0,0,0-.824-.052h-3.223a2.022,2.022,0,0,1-1.9-1.351l-2.143-6.108a6.006,6.006,0,0,0-8.03-3.537,23.739,23.739,0,0,1-18.546,0,6.01,6.01,0,0,0-8.038,3.537l-2.146,6.109a2.014,2.014,0,0,1-1.9,1.349H105a6.789,6.789,0,0,0-.824.052V29.151a25.166,25.166,0,0,1,5.114-15.285,1.877,1.877,0,0,0-3-2.262,28.892,28.892,0,0,0-5.872,17.547v2.823a6.724,6.724,0,0,0-2.164,4.944,14.017,14.017,0,0,0,8.083,12.758V52.6a15.373,15.373,0,0,0,5.25,11.567l4.477,3.918v8.8h-6a1.877,1.877,0,1,0,0,3.754h52.959a2.572,2.572,0,0,1,2.568,2.57V117.8H151.813a1.877,1.877,0,1,0,0,3.754l16.2,0a2.851,2.851,0,0,1-2.848,2.822H93.971a2.848,2.848,0,0,1-2.848-2.818h51.93a1.877,1.877,0,0,0,0-3.754H93.546V83.209a2.572,2.572,0,0,1,2.568-2.57h5.193a1.877,1.877,0,1,0,0-3.754H96.114a6.329,6.329,0,0,0-6.321,6.324v34.831a3.726,3.726,0,0,0-2.422,3.484,6.6,6.6,0,0,0,6.6,6.6h71.194a6.609,6.609,0,0,0,6.6-6.6,3.713,3.713,0,0,0-2.422-3.486ZM157.13,36.918a10.286,10.286,0,0,1-4.329,8.428V33.93h1.34a2.992,2.992,0,0,1,2.989,2.989Zm-55.123,0A2.992,2.992,0,0,1,105,33.93h1.34V45.346A10.288,10.288,0,0,1,102.007,36.918Zm17.81,34.449.147.129a10.87,10.87,0,0,0,7.159,2.689h4.889a10.87,10.87,0,0,0,7.159-2.689l.147-.129v5.518h-19.5V71.367Z" transform="translate(-65.508 0)"/>
        <path id="Trazado_875234" data-name="Trazado 875234" d="M440.716,240.206v-4.772a5.919,5.919,0,0,0-11.837,0v4.772a5.919,5.919,0,0,0,11.837,0Zm-3.754,0a2.165,2.165,0,0,1-4.33,0v-4.772a2.165,2.165,0,0,1,4.33,0Z" transform="translate(-321.556 -172.08)" fill="#97c3fc"/>
        <path id="Trazado_875235" data-name="Trazado 875235" d="M394.937,246.125a1.877,1.877,0,0,0,1.877-1.877V231.392a1.877,1.877,0,1,0-3.754,0v12.856A1.877,1.877,0,0,0,394.937,246.125Z" transform="translate(-294.701 -172.08)" fill="#97c3fc"/>
        <path id="Trazado_875236" data-name="Trazado 875236" d="M470.616,311.416a5.925,5.925,0,0,0-5.918,5.919v4.772a5.919,5.919,0,1,0,11.837,0v-4.772A5.925,5.925,0,0,0,470.616,311.416Zm2.165,10.691a2.165,2.165,0,1,1-4.33,0v-4.772a2.165,2.165,0,0,1,4.33,0Z" transform="translate(-348.412 -233.486)" fill="#97c3fc"/>
        <path id="Trazado_875237" data-name="Trazado 875237" d="M430.755,311.416a1.877,1.877,0,0,0-1.877,1.877v12.856a1.877,1.877,0,1,0,3.754,0V313.293A1.877,1.877,0,0,0,430.755,311.416Z" transform="translate(-321.556 -233.486)" fill="#97c3fc"/>
        <path id="Trazado_875238" data-name="Trazado 875238" d="M498.877,229.515A1.877,1.877,0,0,0,497,231.392v12.856a1.877,1.877,0,0,0,3.754,0V231.392A1.877,1.877,0,0,0,498.877,229.515Z" transform="translate(-372.63 -172.08)" fill="#97c3fc"/>
        <path id="Trazado_875239" data-name="Trazado 875239" d="M41.738,229.515a5.925,5.925,0,0,0-5.919,5.919v4.772a5.919,5.919,0,0,0,11.837,0v-4.772A5.925,5.925,0,0,0,41.738,229.515ZM43.9,240.206a2.165,2.165,0,0,1-4.33,0v-4.772a2.165,2.165,0,0,1,4.33,0Z" transform="translate(-26.856 -172.08)" fill="#97c3fc"/>
        <path id="Trazado_875240" data-name="Trazado 875240" d="M105.817,246.125a1.877,1.877,0,0,0,1.877-1.877V231.392a1.877,1.877,0,0,0-3.754,0v12.856A1.877,1.877,0,0,0,105.817,246.125Z" transform="translate(-77.93 -172.08)" fill="#97c3fc"/>
        <path id="Trazado_875241" data-name="Trazado 875241" d="M5.919,311.416A5.925,5.925,0,0,0,0,317.334v4.772a5.919,5.919,0,1,0,11.837,0v-4.772A5.925,5.925,0,0,0,5.919,311.416Zm2.165,10.691a2.165,2.165,0,1,1-4.33,0v-4.772a2.165,2.165,0,0,1,4.33,0v4.772Z" transform="translate(0 -233.486)" fill="#97c3fc"/>
        <path id="Trazado_875242" data-name="Trazado 875242" d="M70,311.416a1.877,1.877,0,0,0-1.877,1.877v12.856a1.877,1.877,0,1,0,3.754,0V313.293A1.877,1.877,0,0,0,70,311.416Z" transform="translate(-51.075 -233.486)" fill="#97c3fc"/>
        <path id="Trazado_875243" data-name="Trazado 875243" d="M1.877,246.125a1.877,1.877,0,0,0,1.877-1.877V231.392a1.877,1.877,0,0,0-3.754,0v12.856A1.877,1.877,0,0,0,1.877,246.125Z" transform="translate(0 -172.08)" fill="#97c3fc"/>
      </g>
    </g>
  </g>
</svg>
