<svg xmlns="http://www.w3.org/2000/svg" width="70" height="70" viewBox="0 0 70 70">
  <g id="Grupo_1105314" data-name="Grupo 1105314" transform="translate(0 0)">
    <g id="Grupo_1095345" data-name="Grupo 1095345" transform="translate(0 0)">
      <path id="Trazado_875520" data-name="Trazado 875520" d="M35,0A35,35,0,1,1,0,35,35,35,0,0,1,35,0Z" fill="#8722e2"/>
    </g>
    <g id="assessment_16754636" transform="translate(9.406 -11.669)">
      <g id="Grupo_1105318" data-name="Grupo 1105318" transform="translate(7.649 26.987)">
        <g id="Grupo_1105315" data-name="Grupo 1105315" transform="translate(0 0.967)">
          <path id="Trazado_890842" data-name="Trazado 890842" d="M42.112,79.727a1.692,1.692,0,0,1,1.687,1.69v31.063a1.69,1.69,0,0,1-1.687,1.687h-26a1.692,1.692,0,0,1-1.689-1.687V81.417a1.694,1.694,0,0,1,1.689-1.69Z" transform="translate(-14.424 -76.77)" fill="#837683" fill-rule="evenodd"/>
          <path id="Trazado_890843" data-name="Trazado 890843" d="M311.07,79.727a1.692,1.692,0,0,1,1.687,1.69v31.063a1.69,1.69,0,0,1-1.687,1.687h-2.043V79.727Z" transform="translate(-283.382 -76.77)" fill="#685e68" fill-rule="evenodd"/>
          <path id="Trazado_890844" data-name="Trazado 890844" d="M65.332,106.722H42.18a.763.763,0,0,0-.762.762V135.7a.764.764,0,0,0,.762.764H65.332a.764.764,0,0,0,.764-.764V107.484A.764.764,0,0,0,65.332,106.722Z" transform="translate(-39.068 -101.415)" fill="#eceff1" fill-rule="evenodd"/>
          <path id="Trazado_890845" data-name="Trazado 890845" d="M309.645,106.722h-.618v29.742h.618a.764.764,0,0,0,.764-.764V107.484A.764.764,0,0,0,309.645,106.722Z" transform="translate(-283.382 -101.415)" fill="#d1d1d6" fill-rule="evenodd"/>
          <path id="Trazado_890846" data-name="Trazado 890846" d="M109.26,47.951h2.948a2.87,2.87,0,0,1,5.579,0h2.946a.764.764,0,0,1,.764.762v2.864a.764.764,0,0,1-.764.762H109.26a.763.763,0,0,1-.762-.762V48.713a.763.763,0,0,1,.762-.762Z" transform="translate(-100.309 -45.756)" fill="#e3a76f" fill-rule="evenodd"/>
          <path id="Trazado_890847" data-name="Trazado 890847" d="M120.733,70.974a.764.764,0,0,1,.764.762V74.6a.764.764,0,0,1-.764.762H109.26a.763.763,0,0,1-.762-.762h11.473a.765.765,0,0,0,.762-.764Z" transform="translate(-100.309 -68.779)" fill="#c48958" fill-rule="evenodd"/>
          <path id="Trazado_890848" data-name="Trazado 890848" d="M79.975,152.033H84.2a.554.554,0,0,1,.552.552v4.22a.552.552,0,0,1-.552.552h-4.22a.552.552,0,0,1-.552-.552v-4.22A.554.554,0,0,1,79.975,152.033Z" transform="translate(-73.765 -142.782)" fill="#8ac9fe" fill-rule="evenodd"/>
          <path id="Trazado_890849" data-name="Trazado 890849" d="M124,152.033h.892a.554.554,0,0,1,.552.552v4.22a.552.552,0,0,1-.552.552H124a.554.554,0,0,0,.552-.552v-4.22A.555.555,0,0,0,124,152.033Z" transform="translate(-114.461 -142.782)" fill="#60b7ff" fill-rule="evenodd"/>
          <path id="Trazado_890850" data-name="Trazado 890850" d="M79.975,248.315H84.2a.554.554,0,0,1,.552.552v4.223a.552.552,0,0,1-.552.55h-4.22a.552.552,0,0,1-.552-.55v-4.223A.554.554,0,0,1,79.975,248.315Z" transform="translate(-73.765 -230.682)" fill="#ffe177" fill-rule="evenodd"/>
          <path id="Trazado_890851" data-name="Trazado 890851" d="M124,248.315h.892a.554.554,0,0,1,.552.552v4.223a.552.552,0,0,1-.552.55H124a.553.553,0,0,0,.552-.55v-4.223A.555.555,0,0,0,124,248.315Z" transform="translate(-114.461 -230.682)" fill="#ffd064" fill-rule="evenodd"/>
          <path id="Trazado_890852" data-name="Trazado 890852" d="M79.975,344.6H84.2a.554.554,0,0,1,.552.552v4.223a.552.552,0,0,1-.552.55h-4.22a.552.552,0,0,1-.552-.55v-4.223A.554.554,0,0,1,79.975,344.6Z" transform="translate(-73.765 -318.582)" fill="#6cf5c2" fill-rule="evenodd"/>
          <path id="Trazado_890853" data-name="Trazado 890853" d="M124,344.6h.892a.554.554,0,0,1,.552.552v4.223a.552.552,0,0,1-.552.55H124a.553.553,0,0,0,.552-.55v-4.223A.555.555,0,0,0,124,344.6Z" transform="translate(-114.461 -318.582)" fill="#00e499" fill-rule="evenodd"/>
        </g>
        <g id="Grupo_1105316" data-name="Grupo 1105316" transform="translate(16.661 13.952)">
          <path id="Trazado_890854" data-name="Trazado 890854" d="M367.972,347.8a8.859,8.859,0,0,1-1.5,1.655l4.085,4,1.555-1.6Z" transform="translate(-352.486 -334.492)" fill="#a79ba7" fill-rule="evenodd"/>
          <path id="Trazado_890855" data-name="Trazado 890855" d="M379.373,347.492a1.027,1.027,0,0,1-.445.6l4.058,4.032.5-.545Z" transform="translate(-363.859 -334.211)" fill="#837683" fill-rule="evenodd"/>
          <path id="Trazado_890856" data-name="Trazado 890856" d="M407.347,389.769l1.755-1.81a.807.807,0,0,0-.016-1.138l-4.862-4.718a.807.807,0,0,0-1.138.018l-1.755,1.808a.808.808,0,0,0,.016,1.138l4.862,4.718A.808.808,0,0,0,407.347,389.769Z" transform="translate(-384.105 -365.603)" fill="#f1ba84" fill-rule="evenodd"/>
          <path id="Trazado_890857" data-name="Trazado 890857" d="M426.564,382.106l4.862,4.718a.807.807,0,0,1,.016,1.138l-1.755,1.81a.82.82,0,0,1-.217.158.808.808,0,0,0,.937-.158l1.755-1.81a.807.807,0,0,0-.016-1.138l-4.862-4.718a.809.809,0,0,0-.921-.142A.809.809,0,0,1,426.564,382.106Z" transform="translate(-407.165 -365.605)" fill="#e3a76f" fill-rule="evenodd"/>
          <path id="Trazado_890858" data-name="Trazado 890858" d="M214.675,194.921a8.853,8.853,0,1,1-8.853,8.853,8.852,8.852,0,0,1,8.853-8.853Z" transform="translate(-205.822 -194.921)" fill="#8ac9fe" fill-rule="evenodd"/>
          <path id="Trazado_890859" data-name="Trazado 890859" d="M303,194.921a8.853,8.853,0,1,1,0,17.705c-.145,0-.288,0-.43-.01a8.853,8.853,0,0,0,0-17.685C302.717,194.924,302.86,194.921,303,194.921Z" transform="translate(-294.152 -194.921)" fill="#60b7ff" fill-rule="evenodd"/>
          <path id="Trazado_890860" data-name="Trazado 890860" d="M235.874,218.142a6.831,6.831,0,1,1-6.831,6.831,6.832,6.832,0,0,1,6.831-6.831Z" transform="translate(-227.022 -216.121)" fill="#eceff1" fill-rule="evenodd"/>
          <path id="Trazado_890861" data-name="Trazado 890861" d="M235.874,218.142c.155,0,.308,0,.462.015a6.831,6.831,0,0,0,0,13.631c-.153.01-.307.016-.462.016a6.831,6.831,0,1,1,0-13.663Z" transform="translate(-227.022 -216.121)" fill="#d1d1d6" fill-rule="evenodd"/>
        </g>
        <g id="Grupo_1105317" data-name="Grupo 1105317" transform="translate(24.956 0)">
          <path id="Trazado_890862" data-name="Trazado 890862" d="M301.124,53.644l10.381-17.981a2.048,2.048,0,0,1,2.791-.749l.709.409a2.047,2.047,0,0,1,.747,2.792L305.371,56.1l-3.947,2.279a.2.2,0,0,1-.3-.173Z" transform="translate(-301.122 -34.642)" fill="#e3a76f" fill-rule="evenodd"/>
          <path id="Trazado_890863" data-name="Trazado 890863" d="M314.017,36.309a2.2,2.2,0,0,1,.262.127l.709.409a2.047,2.047,0,0,1,.747,2.792L305.353,57.618,301.406,59.9a.2.2,0,0,1-.3-.173l0-1.05,3.038-1.754,10.381-17.981A2.049,2.049,0,0,0,314.017,36.309Z" transform="translate(-301.105 -36.164)" fill="#c48958" fill-rule="evenodd"/>
          <path id="Trazado_890864" data-name="Trazado 890864" d="M301.124,257.493v-4.558l4.247,2.452-3.947,2.279A.2.2,0,0,1,301.124,257.493Z" transform="translate(-301.122 -233.933)" fill="#837683" fill-rule="evenodd"/>
          <path id="Trazado_890865" data-name="Trazado 890865" d="M301.107,275.88l0-1.05,3.038-1.754,1.21.7-3.947,2.279a.2.2,0,0,1-.3-.173Z" transform="translate(-301.105 -252.319)" fill="#685e68" fill-rule="evenodd"/>
          <path id="Trazado_890866" data-name="Trazado 890866" d="M410.525,37.149l.858-1.486a2.048,2.048,0,0,1,2.791-.749l.709.409a2.047,2.047,0,0,1,.747,2.792l-.858,1.486Z" transform="translate(-401 -34.642)" fill="#837683" fill-rule="evenodd"/>
          <path id="Trazado_890867" data-name="Trazado 890867" d="M445.76,36.309a2.2,2.2,0,0,1,.262.127l.709.409a2.047,2.047,0,0,1,.747,2.792l-.858,1.486-1.21-.7.858-1.486A2.049,2.049,0,0,0,445.76,36.309Z" transform="translate(-432.847 -36.164)" fill="#685e68" fill-rule="evenodd"/>
        </g>
      </g>
      <path id="Trazado_890868" data-name="Trazado 890868" d="M37.566,58.276v5.431a2.381,2.381,0,0,1-2.375,2.375H9.378A2.381,2.381,0,0,1,7,63.707V32.861a2.378,2.378,0,0,1,2.375-2.372h5.756v-.316a.7.7,0,0,1,.7-.7h3.183a3.546,3.546,0,0,1,6.545,0H28.74a.7.7,0,0,1,.7.7v.316h5.756a2.378,2.378,0,0,1,2.375,2.372v3.018l4.766-8.251a2.739,2.739,0,0,1,3.739-1l.709.407h0a2.746,2.746,0,0,1,1,3.743h0L40.367,43.619a9.555,9.555,0,0,1,.9,11.186L43.2,56.687a1.51,1.51,0,0,1,1.661.289h0L49.725,61.7a1.5,1.5,0,0,1,.031,2.123h0L48,65.626h0a1.507,1.507,0,0,1-2.12.035l0,0-4.859-4.718a1.5,1.5,0,0,1-.343-1.653l-1.858-1.8a9.554,9.554,0,0,1-1.25.791ZM15.133,31.882H9.378a.983.983,0,0,0-.982.979V63.707a.984.984,0,0,0,.982.982H35.192a.984.984,0,0,0,.982-.982V58.875a9.47,9.47,0,0,1-.941.265v3.911a.7.7,0,0,1-.7.7h-24.5a.7.7,0,0,1-.7-.7V33.519a.7.7,0,0,1,.7-.7h5.1Zm14.3,0v.941h5.1a.7.7,0,0,1,.7.7v6.4l.941-1.629V32.861a.983.983,0,0,0-.982-.979Zm0,2.334v.316a.7.7,0,0,1-.7.7H15.83a.7.7,0,0,1-.7-.7v-.316h-4.4v28.14H33.84V59.35q-.361.027-.73.028a9.606,9.606,0,0,1-1.682-.148.7.7,0,0,1-.115.009h-9.37a.7.7,0,0,1,0-1.393h5.978A9.6,9.6,0,0,1,26,56.2H21.943a.7.7,0,0,1,0-1.393h3.018A9.492,9.492,0,0,1,23.6,50.7H21.943a.7.7,0,1,1,0-1.393h1.631a9.545,9.545,0,0,1,.233-1.645H21.943a.7.7,0,1,1,0-1.393h2.3a9.581,9.581,0,0,1,3.55-4.376H21.943a.7.7,0,0,1,0-1.393h9.114a9.582,9.582,0,0,1,2.053-.221q.368,0,.73.028v-6.09ZM42,30.992l-8.491,14.7,3.041,1.755,8.49-14.7ZM31.952,45.6l1.077-1.864a6.089,6.089,0,1,0,5.435,3.18L37.4,48.748v0a.7.7,0,0,1-.255.255L32.9,51.456a.7.7,0,0,1-1.045-.6v-4.9a.7.7,0,0,1,.093-.348Zm1.862-3.224.367-.635a8.261,8.261,0,0,0-2.52.059.692.692,0,0,1-.348.093h-.1a8.172,8.172,0,0,0-5.821,5.285l-.008.025a8.149,8.149,0,0,0-.432,2.626q0,.08,0,.16h0a8.156,8.156,0,0,0,8.155,8,8.216,8.216,0,0,0,1.315-.105,8.122,8.122,0,0,0,3.984-1.85A8.206,8.206,0,0,0,39.794,54.5a8.162,8.162,0,0,0-.174-9.593l-.368.637a7.486,7.486,0,1,1-6.142-3.206q.356,0,.7.033ZM45.733,31.54l.844-1.462a1.35,1.35,0,0,0-.491-1.84l-.709-.406,0,0a1.344,1.344,0,0,0-1.836.493h0l-.845,1.462ZM40.441,55.948q-.27.323-.567.621l1.7,1.646.585-.6Zm-7.19-8.794v2.493L35.41,48.4ZM16.526,30.869v2.966H28.043V30.869H25.054a.7.7,0,0,1-.677-.533,2.153,2.153,0,0,0-4.185,0,.7.7,0,0,1-.677.533Zm5.758.214a.754.754,0,1,1,.755-.755A.756.756,0,0,1,22.285,31.083ZM47,64.657l1.755-1.807a.109.109,0,0,0,0-.153h0l-4.862-4.718a.109.109,0,0,0-.153,0h0l-1.755,1.808h0a.106.106,0,0,0,0,.149l0,0,4.86,4.719a.11.11,0,0,0,.153,0ZM13.807,53.666h4.221a1.249,1.249,0,0,1,1.247,1.247v4.221a1.249,1.249,0,0,1-1.247,1.247H13.807a1.249,1.249,0,0,1-1.247-1.247V54.913A1.249,1.249,0,0,1,13.807,53.666Zm.146,5.322h3.93v-3.93h-3.93Zm.35-1.58a.7.7,0,1,1,.983-.986l.379.378.835-1.032a.7.7,0,1,1,1.083.876l-1.321,1.632a.7.7,0,0,1-1.033.055Zm-.5-12.283h4.221a1.249,1.249,0,0,1,1.247,1.247v4.221a1.253,1.253,0,0,1-1.247,1.25H13.807a1.253,1.253,0,0,1-1.247-1.25V46.372a1.249,1.249,0,0,1,1.247-1.247Zm.146,1.393V50.45h3.93V46.518Zm.349,2.349a.7.7,0,0,1,.985-.985l.379.379L16.5,47.23a.7.7,0,1,1,1.083.876l-1.321,1.632a.7.7,0,0,1-1.034.054Zm7.641-10.013a.7.7,0,1,1,0-1.393h9.37a.7.7,0,1,1,0,1.393Zm-8.135-2.535h4.221a1.249,1.249,0,0,1,1.247,1.247v4.221a1.249,1.249,0,0,1-1.247,1.247H13.807a1.249,1.249,0,0,1-1.247-1.247V37.566A1.249,1.249,0,0,1,13.807,36.319Zm.146,1.393v3.93h3.93v-3.93Zm.349,2.349a.7.7,0,0,1,.985-.985l.379.379.834-1.031a.7.7,0,0,1,1.083.876l-1.321,1.632a.7.7,0,0,1-1.034.054Z" fill-rule="evenodd"/>
    </g>
  </g>
</svg>
