<svg xmlns="http://www.w3.org/2000/svg" xmlns:xlink="http://www.w3.org/1999/xlink" width="127" height="105" viewBox="0 0 127 105">
  <defs>
    <linearGradient id="linear-gradient" x1="0.5" x2="0.5" y2="1" gradientUnits="objectBoundingBox">
      <stop offset="0" stop-color="#7737f0"/>
      <stop offset="1" stop-color="#291155"/>
    </linearGradient>
  </defs>
  <g id="Grupo_1104888" data-name="Grupo 1104888" transform="translate(-1173 -5669)">
    <rect id="Rectángulo_402949" data-name="Rectángulo 402949" width="127" height="105" rx="5" transform="translate(1173 5669)" fill="url(#linear-gradient)"/>
    <g id="risk-analysis_11094156" transform="translate(1191.426 5676.429)">
      <g id="Grupo_1104887" data-name="Grupo 1104887" transform="translate(9.26 9.258)">
        <g id="Grupo_1104885" data-name="Grupo 1104885" transform="translate(0 0)">
          <g id="Grupo_1104884" data-name="Grupo 1104884">
            <path id="Trazado_890303" data-name="Trazado 890303" d="M56.454,21.59a28.8,28.8,0,0,1,8.431,3.5l5.479-2.433,6.457,6.457-2.433,5.477a28.8,28.8,0,0,1,3.5,8.434l5.59,2.152V54.3l-5.591,2.152a28.792,28.792,0,0,1-3.5,8.431l2.433,5.479-6.457,6.457L64.887,74.39a28.791,28.791,0,0,1-8.434,3.5L54.3,83.476H45.17l-2.152-5.591a28.8,28.8,0,0,1-8.431-3.5l-5.479,2.433L22.65,70.366l2.433-5.477a28.794,28.794,0,0,1-3.5-8.434L16,54.3V45.172l5.59-2.152a28.786,28.786,0,0,1,3.5-8.432L22.65,29.109l6.457-6.457,5.479,2.433a28.8,28.8,0,0,1,8.431-3.5L45.17,16H54.3Z" transform="translate(-15.997 -15.999)" fill="#ffe177" fill-rule="evenodd"/>
            <path id="Trazado_890304" data-name="Trazado 890304" d="M100.48,74.39,95,76.823l-.844-.844L99.294,73.7Q99.879,74.058,100.48,74.39Zm21.867-52.8a28.8,28.8,0,0,1,8.431,3.5l-1.557.692A37.978,37.978,0,0,0,119.6,21.59L117.452,16h2.743Zm8.433,52.8a28.792,28.792,0,0,1-8.434,3.5l-2.151,5.59h-2.743l2.151-5.59a37.967,37.967,0,0,0,9.619-4.188ZM94.157,23.5,95,22.652l5.479,2.433q-.6.331-1.186.692Zm40.2,0,1.9-.844,6.457,6.457-2.433,5.477a28.8,28.8,0,0,1,3.5,8.434l5.59,2.152V54.3l-5.591,2.152a28.792,28.792,0,0,1-3.5,8.431l2.433,5.479-6.457,6.457-1.9-.844,5.614-5.614-2.433-5.479a28.8,28.8,0,0,0,3.5-8.431l5.591-2.152V45.172l-5.59-2.152a28.789,28.789,0,0,0-3.5-8.434l2.433-5.477Z" transform="translate(-81.89 -15.999)" fill="#ffd064" fill-rule="evenodd"/>
            <circle id="Elipse_11889" data-name="Elipse 11889" cx="21.696" cy="21.696" r="21.696" transform="translate(3.053 33.738) rotate(-45)" fill="#eceff1"/>
            <path id="Trazado_890305" data-name="Trazado 890305" d="M114.424,92.729a21.7,21.7,0,0,0,0,43.392q.872,0,1.726-.068a21.7,21.7,0,0,1,0-43.256Q115.3,92.73,114.424,92.729Z" transform="translate(-80.685 -80.687)" fill="#d1d1d6" fill-rule="evenodd"/>
          </g>
          <path id="Trazado_890306" data-name="Trazado 890306" d="M215.4,156.678a2.9,2.9,0,1,1-2.9,2.9A2.9,2.9,0,0,1,215.4,156.678Zm0-5.174a2.263,2.263,0,0,1-2.261-2.181l-.572-15.838a2.263,2.263,0,0,1,2.261-2.344h1.144a2.263,2.263,0,0,1,2.261,2.344l-.572,15.838A2.263,2.263,0,0,1,215.4,151.5Z" transform="translate(-181.659 -113.069)" fill="#fe646f" fill-rule="evenodd"/>
          <path id="Trazado_890307" data-name="Trazado 890307" d="M226.753,156.678a2.9,2.9,0,1,1-.785,5.69,2.9,2.9,0,0,0,0-5.582A2.9,2.9,0,0,1,226.753,156.678Zm0-5.174a2.255,2.255,0,0,1-.785-.14,2.263,2.263,0,0,0,1.476-2.041l.572-15.838a2.265,2.265,0,0,0-2.048-2.335q.1-.009.213-.009h1.144a2.263,2.263,0,0,1,2.261,2.344l-.572,15.838A2.263,2.263,0,0,1,226.753,151.5Z" transform="translate(-193.014 -113.069)" fill="#fd4755" fill-rule="evenodd"/>
        </g>
        <g id="Grupo_1104886" data-name="Grupo 1104886" transform="translate(31.478 32.726)">
          <path id="Trazado_890308" data-name="Trazado 890308" d="M389.591,388.665a13.519,13.519,0,0,1-2.28,2.51l6.2,6.078,2.361-2.432Z" transform="translate(-360.513 -362.903)" fill="#a79ba7" fill-rule="evenodd"/>
          <path id="Trazado_890309" data-name="Trazado 890309" d="M398.48,388.4a1.558,1.558,0,0,1-.675.9l6.159,6.119.754-.827Z" transform="translate(-369.36 -362.679)" fill="#837683" fill-rule="evenodd"/>
          <path id="Trazado_890310" data-name="Trazado 890310" d="M425.944,429.321l2.664-2.745a1.225,1.225,0,0,0-.026-1.727l-7.378-7.16a1.225,1.225,0,0,0-1.727.026l-2.664,2.745a1.225,1.225,0,0,0,.026,1.727l7.378,7.16A1.225,1.225,0,0,0,425.944,429.321Z" transform="translate(-385.096 -387.083)" fill="#f1ba84" fill-rule="evenodd"/>
          <path id="Trazado_890311" data-name="Trazado 890311" d="M438.043,417.688l7.378,7.16a1.225,1.225,0,0,1,.026,1.727l-2.664,2.745a1.213,1.213,0,0,1-.331.242,1.226,1.226,0,0,0,1.422-.242l2.664-2.745a1.225,1.225,0,0,0-.026-1.727l-7.378-7.16a1.226,1.226,0,0,0-1.4-.216A1.2,1.2,0,0,1,438.043,417.688Z" transform="translate(-403.026 -387.082)" fill="#e3a76f" fill-rule="evenodd"/>
          <circle id="Elipse_11890" data-name="Elipse 11890" cx="13.436" cy="13.436" r="13.436" transform="translate(0 18.998) rotate(-45)" fill="#8ac9fe"/>
          <path id="Trazado_890312" data-name="Trazado 890312" d="M334.183,259.963a13.436,13.436,0,0,1,0,26.871q-.328,0-.652-.016a13.435,13.435,0,0,0,0-26.839Q333.855,259.964,334.183,259.963Z" transform="translate(-315.174 -254.4)" fill="#60b7ff" fill-rule="evenodd"/>
          <circle id="Elipse_11891" data-name="Elipse 11891" cx="8.728" cy="8.728" r="8.728" transform="translate(6.828 16.997) rotate(-35.804)" fill="#eceff1"/>
          <path id="Trazado_890313" data-name="Trazado 890313" d="M290.8,289.96c.2,0,.4.007.59.02a8.727,8.727,0,0,0,0,17.415c-.2.013-.392.02-.59.02a8.728,8.728,0,1,1,0-17.455Z" transform="translate(-271.795 -279.69)" fill="#d1d1d6" fill-rule="evenodd"/>
        </g>
      </g>
      <path id="Trazado_890314" data-name="Trazado 890314" d="M59.746,68.454a7.472,7.472,0,1,1,7.475-7.472A7.476,7.476,0,0,1,59.746,68.454Zm0-17.455a9.983,9.983,0,1,0,9.986,9.983A9.992,9.992,0,0,0,59.746,51ZM80.708,83.323l-7.327-7.111L76,73.516l7.327,7.111ZM47.566,60.982A12.18,12.18,0,1,0,59.746,48.8,12.2,12.2,0,0,0,47.566,60.982Zm-2.925-5.217A1.643,1.643,0,1,1,43,54.122,1.646,1.646,0,0,1,44.641,55.765Zm2.149-1.7a14.692,14.692,0,0,1,16.316-7.388A20.436,20.436,0,1,0,45.24,63.314a15.15,15.15,0,0,1-.185-2.332,15.459,15.459,0,0,1,.1-1.666,4.153,4.153,0,1,1,1.639-5.249ZM46.7,75.479l1.839-4.785c.022-.049.044-.1.067-.143a14.732,14.732,0,0,1-2.748-4.78A23.547,23.547,0,0,1,43,65.948,22.951,22.951,0,1,1,65.951,43a22.666,22.666,0,0,1-.443,4.474,14.65,14.65,0,0,1,4.217,2.739c.066-.261.14-.523.2-.785a1.258,1.258,0,0,1,.768-.881L75.479,46.7V39.293L70.7,37.451a1.25,1.25,0,0,1-.775-.881A27.436,27.436,0,0,0,66.578,28.5a1.258,1.258,0,0,1-.074-1.168l2.083-4.69-5.237-5.238-4.69,2.084a1.269,1.269,0,0,1-1.174-.078,27.4,27.4,0,0,0-8.058-3.343,1.231,1.231,0,0,1-.879-.77L46.7,10.513H39.294L37.455,15.3a1.27,1.27,0,0,1-.886.77,27.457,27.457,0,0,0-8.058,3.343,1.255,1.255,0,0,1-1.167.078l-4.69-2.083-5.244,5.238,2.083,4.691a1.258,1.258,0,0,1-.074,1.168,27.429,27.429,0,0,0-3.346,8.064,1.257,1.257,0,0,1-.768.88l-4.786,1.843V46.7L15.3,48.542a1.26,1.26,0,0,1,.768.881,27.42,27.42,0,0,0,3.346,8.066,1.261,1.261,0,0,1,.074,1.169l-2.083,4.688,5.244,5.239,4.69-2.084a1.258,1.258,0,0,1,1.167.078,27.437,27.437,0,0,0,8.058,3.343,1.271,1.271,0,0,1,.886.77l1.839,4.787H46.7ZM73.189,72.8l-.606.629-2.3-2.224q.31-.316.6-.648ZM85.1,78.849l-7.379-7.16a2.476,2.476,0,0,0-1.765-.7,2.429,2.429,0,0,0-.849.167L72.362,68.5a14.657,14.657,0,0,0-.68-16.073c.192-.585.369-1.178.524-1.774l4.978-1.917a1.252,1.252,0,0,0,.805-1.171V38.43a1.252,1.252,0,0,0-.805-1.171l-4.978-1.917a30.084,30.084,0,0,0-3.139-7.583l2.164-4.881a1.272,1.272,0,0,0-.258-1.4l-6.455-6.457a1.263,1.263,0,0,0-1.4-.259l-4.882,2.168a29.989,29.989,0,0,0-7.578-3.143l-1.92-4.982A1.249,1.249,0,0,0,47.566,8H38.429a1.249,1.249,0,0,0-1.167.8l-1.92,4.982a29.985,29.985,0,0,0-7.578,3.143l-4.882-2.168a1.249,1.249,0,0,0-1.4.259l-6.463,6.458a1.271,1.271,0,0,0-.258,1.4l2.171,4.881a29.813,29.813,0,0,0-3.146,7.582L8.811,37.259a1.253,1.253,0,0,0-.805,1.172v9.132a1.251,1.251,0,0,0,.805,1.171l4.978,1.917a29.811,29.811,0,0,0,3.146,7.583l-2.171,4.881a1.271,1.271,0,0,0,.258,1.4l6.463,6.456a1.251,1.251,0,0,0,1.4.261l4.882-2.169A29.965,29.965,0,0,0,35.342,72.2l1.92,4.982a1.249,1.249,0,0,0,1.167.8h9.137a1.25,1.25,0,0,0,1.167-.8l1.832-4.746a14.66,14.66,0,0,0,17.823.42L71,75.393a2.564,2.564,0,0,0-.14.857,2.489,2.489,0,0,0,.753,1.741l7.379,7.159a2.48,2.48,0,0,0,3.5-.053l2.666-2.745a2.491,2.491,0,0,0-.052-3.5Zm-41.1-33.383a1.009,1.009,0,0,1-2.016,0l-.569-15.839a.917.917,0,0,1,.281-.735.936.936,0,0,1,.724-.308H43.57a.935.935,0,0,1,.724.308.916.916,0,0,1,.281.735ZM43.57,26.073a3.517,3.517,0,0,1,3.516,3.645l-.569,15.838a3.518,3.518,0,0,1-7.032,0L38.91,29.718a3.517,3.517,0,0,1,3.516-3.645Z" transform="translate(0)" fill="#242222" fill-rule="evenodd"/>
    </g>
  </g>
</svg>
