<svg xmlns="http://www.w3.org/2000/svg" width="98.145" height="98.145" viewBox="0 0 98.145 98.145">
  <g id="Grupo_1104991" data-name="Grupo 1104991" transform="translate(-1170.928 -838)">
    <g id="Grupo_1104547" data-name="Grupo 1104547" transform="translate(1170.928 838)">
      <path id="Trazado_879588" data-name="Trazado 879588" d="M49.072,0A49.072,49.072,0,1,1,0,49.072,49.072,49.072,0,0,1,49.072,0Z" transform="translate(0 0)" fill="#f0c52c"/>
    </g>
    <g id="checked_352736" transform="translate(1184.621 851.627)">
      <g id="Grupo_1104548" data-name="Grupo 1104548" transform="translate(1.486 1.553)">
        <path id="Trazado_888998" data-name="Trazado 888998" d="M15.269,27.682h0A34.018,34.018,0,0,1,61.6,15.267h0A34.018,34.018,0,0,1,74.017,61.6h0A34.018,34.018,0,0,1,27.683,74.015h0A34.018,34.018,0,0,1,15.269,27.682Z" transform="translate(-10.75 -10.748)" fill="#aec4fa"/>
        <path id="Trazado_888999" data-name="Trazado 888999" d="M170.094,165.057h0a3.328,3.328,0,0,1,0,4.693L151.32,188.524h0l-.061.059h0l-.062.057h0l-.063.055h0l-.065.053h0L151,188.8h0l-.066.05-.068.048-.069.046h0l-.069.044-.07.043-.071.04h0l-.072.039h0l-.073.037h0l-.073.035-.074.033h0l-.075.031-.075.029h0l-.076.027h0l-.076.025h0l-.077.024-.077.022-.078.02h0l-.078.018-.078.016-.079.014h0l-.079.012-.079.01-.079.008h0l-.079.007h0l-.08,0h0l-.08,0h-.159l-.079,0h0l-.08,0h0l-.079-.007h0l-.079-.008-.079-.01-.079-.012h0l-.079-.014-.078-.016-.078-.018h0l-.077-.02-.077-.022-.077-.024h0l-.076-.025h0l-.076-.027h0l-.075-.029-.075-.031h0l-.074-.033-.073-.035h0l-.073-.037-.072-.039h0l-.071-.04-.07-.043-.07-.045-.068-.046-.068-.048-.067-.05-.065-.052-.065-.054-.064-.056-.062-.057-.061-.06-7.04-7.04a3.328,3.328,0,0,1,0-4.694h0a3.328,3.328,0,0,1,4.693,0l4.693,4.694L165.4,165.057a3.328,3.328,0,0,1,4.693,0Z" transform="translate(-120.948 -142.898)" fill="#00e588"/>
      </g>
      <g id="Grupo_1104549" data-name="Grupo 1104549" transform="translate(0.001 0.078)">
        <path id="Trazado_889000" data-name="Trazado 889000" d="M69.526,26.3A35.232,35.232,0,0,0,35.476.078,35.563,35.563,0,0,0,4.727,17.748,35.37,35.37,0,0,0,21.181,67.863h-.549a1.475,1.475,0,0,0,0,2.949H50.126a1.475,1.475,0,0,0,0-2.949h-.657A35.211,35.211,0,0,0,69.526,26.3Zm-6.05,25.372A32.6,32.6,0,0,1,35.3,67.863h-.035a32.425,32.425,0,1,1,28.212-16.2Z" transform="translate(-0.001 -0.078)" fill="#000003"/>
        <path id="Trazado_889001" data-name="Trazado 889001" d="M71.149,317.665A26.621,26.621,0,0,1,52.378,298.9a1.475,1.475,0,0,0-2.849.763,29.578,29.578,0,0,0,20.856,20.856,1.475,1.475,0,0,0,.763-2.849Z" transform="translate(-42.641 -256.658)" fill="#000003"/>
        <path id="Trazado_889002" data-name="Trazado 889002" d="M299.658,49.528a1.475,1.475,0,0,0-.763,2.849,26.619,26.619,0,0,1,18.77,18.77,1.475,1.475,0,1,0,2.849-.763A29.576,29.576,0,0,0,299.658,49.528Z" transform="translate(-256.647 -42.65)" fill="#000003"/>
        <path id="Trazado_889003" data-name="Trazado 889003" d="M232.849,447.577c-.368-.012-.74-.033-1.1-.06a1.475,1.475,0,0,0-.221,2.941c.4.03.817.053,1.226.066h.051a1.475,1.475,0,0,0,.049-2.949Z" transform="translate(-198.353 -385.679)" fill="#000003"/>
        <path id="Trazado_889004" data-name="Trazado 889004" d="M253.49,45.631c.367.013.74.033,1.106.06.037,0,.074,0,.111,0a1.475,1.475,0,0,0,.108-2.945c-.406-.03-.818-.053-1.224-.066a1.475,1.475,0,0,0-.1,2.948Z" transform="translate(-217.231 -36.795)" fill="#000003"/>
        <path id="Trazado_889005" data-name="Trazado 889005" d="M158.551,153.417a4.76,4.76,0,0,0-3.39,1.4L139.777,170.2l-3.651-3.651a4.794,4.794,0,0,0-6.779,6.779l7.05,7.05.061.06.032.031.062.057.028.025.064.056.026.022.065.054.026.021.065.052.035.027.067.05.032.024.068.048.028.019.068.046.029.019.07.045.032.02.07.043.036.021.071.04.028.016.072.039.031.016.073.037.036.017.073.035.032.015.074.033.034.015.075.031.029.012.075.029.036.014.076.028.037.013.076.025.032.011.077.024.036.011.077.022.025.007.077.02.047.011.078.018.026.005.078.016.043.008.043.008.072.013.079.012.027,0,.079.01.039,0,.079.008.027,0,.079.007.045,0,.08,0,.032,0,.079,0h.261l.08,0,.037,0,.08,0,.035,0,.079-.007.031,0,.079-.008.039,0,.079-.01.028,0,.079-.012.072-.013.043-.008.041-.008.078-.016.032-.007.078-.018.034-.008.078-.02.032-.009.077-.022.037-.011.077-.024.033-.01.076-.026.036-.013.076-.028.03-.011.075-.029.041-.017.075-.032.021-.009.074-.033.043-.02.073-.035.03-.015.073-.037.033-.017.072-.039.028-.016.071-.04.037-.022.07-.043.033-.021.069-.045.024-.016.069-.046.03-.021.068-.048.034-.025.066-.05.034-.026.065-.052.021-.017.065-.053.055-.048.04-.036.023-.02.062-.057.033-.032.061-.059.034-.034L161.941,161.6a4.79,4.79,0,0,0-3.391-8.179Zm1.3,6.093-18.783,18.782-.1.1-.251.178-.285.136-.356.094-.3.024h-.044l-.312-.033-.3-.085-.32-.158-.26-.2-7.107-7.1a1.844,1.844,0,0,1,2.608-2.608l4.693,4.694a1.475,1.475,0,0,0,2.086,0L157.247,156.9a1.844,1.844,0,0,1,2.608,2.608Z" transform="translate(-110.265 -132.226)" fill="#000003"/>
      </g>
    </g>
  </g>
</svg>
