<svg xmlns="http://www.w3.org/2000/svg" width="84.872" height="84.872" viewBox="0 0 84.872 84.872">
  <g id="Grupo_1103019" data-name="Grupo 1103019" transform="translate(-337.771 -6155.293)">
    <path id="Trazado_879586" data-name="Trazado 879586" d="M42.436,0A42.436,42.436,0,1,1,0,42.436,42.436,42.436,0,0,1,42.436,0Z" transform="translate(337.771 6155.293)" fill="#f0c52c"/>
    <g id="bar-graphic_1721619" transform="translate(354.367 6169.166)">
      <path id="Trazado_885169" data-name="Trazado 885169" d="M338.594,184.209h7.326V154.084a2.7,2.7,0,0,0-2.7-2.7h-1.925a2.7,2.7,0,0,0-2.7,2.7Zm0,0" transform="translate(-302.881 -135.416)" fill="#ffd4a3"/>
      <path id="Trazado_885170" data-name="Trazado 885170" d="M220.949,249.926h7.326V227.549a2.7,2.7,0,0,0-2.7-2.7h-1.925a2.7,2.7,0,0,0-2.7,2.7Zm0,0" transform="translate(-197.644 -201.132)" fill="#ffb39d"/>
      <path id="Trazado_885171" data-name="Trazado 885171" d="M103.3,316.836h7.326V302.349a2.7,2.7,0,0,0-2.7-2.7H106a2.7,2.7,0,0,0-2.7,2.7Zm0,0" transform="translate(-92.405 -268.043)" fill="#ff8a98"/>
      <path id="Trazado_885172" data-name="Trazado 885172" d="M343.82,151.45a2.718,2.718,0,0,0-.6-.068h-1.925a2.7,2.7,0,0,0-2.7,2.7v30.125h3.126V154.083A2.7,2.7,0,0,1,343.82,151.45Zm0,0" transform="translate(-302.881 -135.415)" fill="#ffbe73"/>
      <path id="Trazado_885173" data-name="Trazado 885173" d="M226.175,224.915a2.7,2.7,0,0,0-.6-.068h-1.925a2.7,2.7,0,0,0-2.7,2.7v22.377h3.126V227.548A2.7,2.7,0,0,1,226.175,224.915Zm0,0" transform="translate(-197.645 -201.132)" fill="#ff8f71"/>
      <path id="Trazado_885174" data-name="Trazado 885174" d="M108.527,299.716a2.72,2.72,0,0,0-.6-.068H106a2.7,2.7,0,0,0-2.7,2.7v14.487h3.126V302.349A2.7,2.7,0,0,1,108.527,299.716Zm0,0" transform="translate(-92.406 -268.043)" fill="#fd5c6f"/>
      <path id="Trazado_885175" data-name="Trazado 885175" d="M54.586,122.815H12.709V86.231a2.6,2.6,0,1,0-5.2,0v37.931a3.858,3.858,0,0,0,3.858,3.858H54.587a2.6,2.6,0,0,0,0-5.205Zm0,0" transform="translate(-6.713 -74.807)" fill="#6a829a"/>
      <path id="Trazado_885176" data-name="Trazado 885176" d="M105.349,87.848a1.767,1.767,0,0,0-1.337-.706l-6.11-.261a1.764,1.764,0,1,0-.151,3.525l1.313.056L84.8,101.565a1.764,1.764,0,1,0,2.168,2.784l14.022-10.916-.244.982a1.745,1.745,0,0,0,1.286,2.138,1.773,1.773,0,0,0,2.138-1.287l1.475-5.935a1.763,1.763,0,0,0-.3-1.482Zm0,0" transform="translate(-75.247 -77.716)" fill="#b0f0ef"/>
      <path id="Trazado_885177" data-name="Trazado 885177" d="M330.148,8.345l.8,1.624,1.792.26a1.515,1.515,0,0,1,.84,2.585l-1.3,1.264.306,1.785a1.515,1.515,0,0,1-2.2,1.6l-1.6-.843-1.6.843a1.515,1.515,0,0,1-2.2-1.6l.306-1.785L324,12.814a1.515,1.515,0,0,1,.84-2.585l1.792-.26.8-1.624A1.515,1.515,0,0,1,330.148,8.345Zm0,0" transform="translate(-289.413 -6.71)" fill="#f9ee80"/>
      <path id="Trazado_885178" data-name="Trazado 885178" d="M47.873,115.315H36.5V86.766a1.912,1.912,0,0,1,1.909-1.91h1.925a1.912,1.912,0,0,1,1.91,1.91v25.946a.791.791,0,0,0,1.582,0V86.766a3.5,3.5,0,0,0-3.492-3.492H38.414a3.5,3.5,0,0,0-3.491,3.492v28.548h-3.5v-20.8a3.5,3.5,0,0,0-3.491-3.491H26a3.5,3.5,0,0,0-3.492,3.491v20.8h-3.5V102.4a3.5,3.5,0,0,0-3.491-3.491H13.6A3.5,3.5,0,0,0,10.1,102.4v12.91H6.787V79.522a3.394,3.394,0,1,0-6.788,0v24.463a.791.791,0,0,0,1.582,0V79.522a1.812,1.812,0,1,1,3.623,0v36.584A.791.791,0,0,0,6,116.9H47.873a1.812,1.812,0,0,1,0,3.623H4.649a3.071,3.071,0,0,1-3.067-3.067V107.435a.791.791,0,0,0-1.582,0v10.018a4.655,4.655,0,0,0,4.65,4.649H47.873a3.394,3.394,0,0,0,0-6.788ZM24.1,94.515A1.912,1.912,0,0,1,26,92.606H27.93a1.911,1.911,0,0,1,1.909,1.909v20.8H24.1ZM11.686,102.4A1.912,1.912,0,0,1,13.6,100.5h1.925A1.912,1.912,0,0,1,17.43,102.4v12.91H11.686Zm0,0" transform="translate(0 -68.099)"/>
      <path id="Trazado_885179" data-name="Trazado 885179" d="M80.446,98.262l1.76-1.37a.791.791,0,0,0-.972-1.248l-1.76,1.37a.95.95,0,0,1-1.37-.175,1.029,1.029,0,0,1,.174-1.361l14.261-11.1a.791.791,0,0,0-.452-1.415L90.774,82.9a.973.973,0,0,1,.083-1.945l6.11.261a.973.973,0,0,1,.9,1.207L96.4,88.363a1,1,0,0,1-1.2.7.915.915,0,0,1-.684-1.173l.244-.982A.791.791,0,0,0,93.5,86.1l-9.553,7.437a.791.791,0,1,0,.972,1.248l8.012-6.238a2.283,2.283,0,0,0,1.932,2.07,2.527,2.527,0,0,0,3.071-1.869l1.475-5.935a2.555,2.555,0,0,0-2.37-3.17l-6.111-.262a2.556,2.556,0,0,0-.931,4.973L77.307,94.229a2.474,2.474,0,0,0-.443,3.591,2.43,2.43,0,0,0,3.582.442Zm0,0" transform="translate(-68.237 -71.004)"/>
      <path id="Trazado_885180" data-name="Trazado 885180" d="M317.734,7.645,317.5,9.019a2.306,2.306,0,0,0,3.346,2.431l1.235-.649,1.235.649a2.487,2.487,0,0,0,2.428-.176,2.269,2.269,0,0,0,.918-2.255l-.236-1.375,1-.974a2.306,2.306,0,0,0-1.278-3.934l-1.381-.2-.617-1.251a2.306,2.306,0,0,0-4.136,0l-.617,1.251-1.381.2a2.306,2.306,0,0,0-1.278,3.934ZM317.656,4.8a.712.712,0,0,1,.585-.493l1.792-.26a.79.79,0,0,0,.6-.433l.8-1.624a.724.724,0,0,1,1.3,0l.8,1.624a.792.792,0,0,0,.6.433l1.792.26a.724.724,0,0,1,.4,1.235l-1.3,1.264a.79.79,0,0,0-.227.7l.306,1.785a.724.724,0,0,1-1.051.763l-1.6-.843a.74.74,0,0,0-.736,0l-1.6.843a.724.724,0,0,1-1.051-.763l.306-1.785a.79.79,0,0,0-.227-.7l-1.3-1.264a.711.711,0,0,1-.183-.742Zm0,0" transform="translate(-282.703)"/>
    </g>
  </g>
</svg>
