<svg xmlns="http://www.w3.org/2000/svg" xmlns:xlink="http://www.w3.org/1999/xlink" width="119" height="147.5" viewBox="0 0 119 147.5">
  <defs>
    <filter id="Trazado_826199" x="0" y="0" width="119" height="119" filterUnits="userSpaceOnUse">
      <feOffset input="SourceAlpha"/>
      <feGaussianBlur stdDeviation="5.5" result="blur"/>
      <feFlood flood-color="#fff" flood-opacity="0.659"/>
      <feComposite operator="in" in2="blur"/>
      <feComposite in="SourceGraphic"/>
    </filter>
  </defs>
  <g id="Grupo_1105946" data-name="Grupo 1105946" transform="translate(-1108.5 -741.5)">
    <g id="Grupo_1105246" data-name="Grupo 1105246" transform="translate(1125 758)">
      <g transform="matrix(1, 0, 0, 1, -16.5, -16.5)" filter="url(#Trazado_826199)">
        <path id="Trazado_826199-2" data-name="Trazado 826199" d="M43,0A43,43,0,1,1,0,43,43,43,0,0,1,43,0Z" transform="translate(16.5 16.5)" fill="#4df5df"/>
      </g>
      <g id="Page-1" transform="translate(19.815 19.342)">
        <g id="_052---Change-Case" data-name="052---Change-Case">
          <g id="Icons" transform="translate(0.842 0.789)">
            <path id="Shape" d="M19.532,2.459A2.324,2.324,0,0,0,18.286,1.2a2.351,2.351,0,0,0-3.107,1.23L.2,37.123a2.358,2.358,0,0,0,1.23,3.107,2.332,2.332,0,0,0,.938.2A2.366,2.366,0,0,0,4.534,39l3.817-8.824H26.3a9.806,9.806,0,0,1,4.061-2.634ZM10.393,25.444l6.955-16.11L24.3,25.444Z" transform="translate(-0.002 -0.999)" fill="#f44335"/>
            <path id="Shape-2" data-name="Shape" d="M23.865,2.46a2.366,2.366,0,0,0-3.373-1.132A2.329,2.329,0,0,1,21.5,2.46L32.326,27.544a9.806,9.806,0,0,0-4.061,2.634h2.366a9.806,9.806,0,0,1,4.061-2.634Z" transform="translate(-4.335 -1.001)" fill="#c81e1e"/>
            <path id="Shape-3" data-name="Shape" d="M50.1,49.771a.614.614,0,0,1-.268-.039.779.779,0,0,1-.126-.355V35.971a1.971,1.971,0,0,0-3.943,0v.016a9.857,9.857,0,1,0,.473,15.361A4.07,4.07,0,0,0,50.1,53.713a1.971,1.971,0,1,0,0-3.943Zm-10.251,0a5.914,5.914,0,1,1,5.914-5.914A5.914,5.914,0,0,1,39.851,49.771Z" transform="translate(-6.34 -7.977)" fill="#ffdc00"/>
            <path id="Shape-4" data-name="Shape" d="M54.548,49.771a.614.614,0,0,1-.268-.039.779.779,0,0,1-.126-.355V35.971A1.962,1.962,0,0,0,51,34.4a1.96,1.96,0,0,1,.789,1.568V49.376a.779.779,0,0,0,.126.355.614.614,0,0,0,.268.039,1.966,1.966,0,0,1,.9,3.716,4.69,4.69,0,0,0,1.467.226,1.971,1.971,0,1,0,0-3.943Z" transform="translate(-10.786 -7.977)" fill="#fec108"/>
            <path id="Shape-5" data-name="Shape" d="M48.847,17.322V9.042A1.577,1.577,0,0,0,47.27,7.465H38.99a.394.394,0,0,1-.394-.394v-1.2a.394.394,0,0,0-.624-.321L33.526,8.721a.394.394,0,0,0,0,.642l4.447,3.176a.394.394,0,0,0,.624-.321v-1.2a.394.394,0,0,1,.394-.394h6.7v6.7a.394.394,0,0,1-.394.394h-1.2a.394.394,0,0,0-.321.624l3.176,4.447a.394.394,0,0,0,.642,0l3.176-4.447a.394.394,0,0,0-.321-.624h-1.2A.394.394,0,0,1,48.847,17.322Z" transform="translate(-7.056 -1.945)" fill="#02a9f4"/>
            <path id="Shape-6" data-name="Shape" d="M53.542,18.251h-1.2a.394.394,0,0,1-.394-.394V9.577A1.577,1.577,0,0,0,50.366,8H48a1.577,1.577,0,0,1,1.577,1.577v8.28a.394.394,0,0,0,.394.394h1.2a.394.394,0,0,1,.321.624l-2.314,3.24.862,1.206a.394.394,0,0,0,.642,0l3.176-4.447a.394.394,0,0,0-.321-.624Z" transform="translate(-10.151 -2.479)" fill="#0377bc"/>
          </g>
          <g id="Layer_11">
            <path id="Shape-7" data-name="Shape" d="M22.647,12.046a.789.789,0,0,0-1.448,0L14.241,28.153a.789.789,0,0,0,.724,1.1H28.878a.789.789,0,0,0,.724-1.1ZM16.166,27.68l5.756-13.332L27.679,27.68Z" transform="translate(-3.734 -3.234)"/>
            <path id="Shape-8" data-name="Shape" d="M45.933,42.82V29.781a2.76,2.76,0,0,0-5.214-1.257,10.482,10.482,0,0,0-8.136-1.142L22.035,2.945a3.086,3.086,0,0,0-1.656-1.681A3.138,3.138,0,0,0,16.231,2.9L1.249,37.6a3.154,3.154,0,1,0,5.784,2.5l3.611-8.35h15.8A10.635,10.635,0,0,0,41.461,46.327a4.9,4.9,0,0,0,4.078,1.985,2.76,2.76,0,0,0,.394-5.492ZM10.125,30.176a.789.789,0,0,0-.724.473L5.586,39.474a1.576,1.576,0,1,1-2.893-1.251l14.982-34.7a1.563,1.563,0,0,1,2.079-.815,1.538,1.538,0,0,1,.826.846l10.5,24.33a10.685,10.685,0,0,0-3.35,2.287ZM45.538,46.735a3.277,3.277,0,0,1-3.154-1.919.789.789,0,0,0-.547-.429.817.817,0,0,0-.162-.017.789.789,0,0,0-.512.188,9.068,9.068,0,1,1-.435-14.128.789.789,0,0,0,.826.066.8.8,0,0,0,.435-.714,1.183,1.183,0,0,1,2.366,0V43.236a1.513,1.513,0,0,0,.362.875.8.8,0,0,0,.264.169,1.537,1.537,0,0,0,.552.089,1.183,1.183,0,1,1,0,2.366Z" transform="translate(-0.934 -0.998)"/>
            <path id="Shape-9" data-name="Shape" d="M42.7,39a6.7,6.7,0,1,0,6.7,6.7A6.7,6.7,0,0,0,42.7,39Zm0,11.828A5.125,5.125,0,1,1,47.828,45.7,5.125,5.125,0,0,1,42.7,50.828Z" transform="translate(-8.349 -9.034)"/>
            <path id="Shape-10" data-name="Shape" d="M40.532,5.6a1.175,1.175,0,0,0-1.229.089L34.854,8.869a1.183,1.183,0,0,0,0,1.925L39.3,13.97a1.183,1.183,0,0,0,1.872-.963V12.2h5.52v5.52h-.811a1.183,1.183,0,0,0-.963,1.87L48.1,24.034a1.183,1.183,0,0,0,1.926,0L53.2,19.587a1.183,1.183,0,0,0-.963-1.871h-.811V9.831a2.366,2.366,0,0,0-2.366-2.366H41.173V6.654A1.183,1.183,0,0,0,40.532,5.6Zm8.526,3.44a.789.789,0,0,1,.789.789v8.28a1.183,1.183,0,0,0,1.183,1.183h.439l-2.411,3.374-2.411-3.374h.439A1.183,1.183,0,0,0,48.27,18.11v-6.7a.789.789,0,0,0-.789-.789h-6.7A1.183,1.183,0,0,0,39.6,11.8v.439L36.221,9.831,39.6,7.42v.439a1.183,1.183,0,0,0,1.183,1.183Z" transform="translate(-8.002 -1.944)"/>
          </g>
        </g>
      </g>
    </g>
    <rect id="Rectángulo_405324" data-name="Rectángulo 405324" width="30" height="30" rx="3" transform="translate(1153 859)" fill="#f0c518"/>
    <path id="Trazado_891247" data-name="Trazado 891247" d="M8.75,10.3a5.762,5.762,0,0,1-.977,3.609,3.409,3.409,0,0,1-2.859,1.25A3.433,3.433,0,0,1,2.07,13.93a5.594,5.594,0,0,1-1.008-3.516V8.32A5.687,5.687,0,0,1,2.051,4.7,3.434,3.434,0,0,1,4.9,3.469,3.437,3.437,0,0,1,7.742,4.691,5.576,5.576,0,0,1,8.75,8.2Zm-2.258-2.3a4.165,4.165,0,0,0-.387-2.061A1.307,1.307,0,0,0,4.9,5.289,1.284,1.284,0,0,0,3.723,5.9a3.9,3.9,0,0,0-.4,1.92v2.768A4.372,4.372,0,0,0,3.7,12.659a1.29,1.29,0,0,0,1.215.676,1.268,1.268,0,0,0,1.2-.649A4.268,4.268,0,0,0,6.492,10.7ZM18.07,15h-7.8V13.453l3.68-3.922a9.078,9.078,0,0,0,1.121-1.445,2.322,2.322,0,0,0,.363-1.172,1.738,1.738,0,0,0-.383-1.191,1.382,1.382,0,0,0-1.094-.434,1.49,1.49,0,0,0-1.207.527A2.089,2.089,0,0,0,12.313,7.2H10.047a3.729,3.729,0,0,1,.5-1.9,3.5,3.5,0,0,1,1.4-1.348A4.262,4.262,0,0,1,14,3.469a4.036,4.036,0,0,1,2.73.844A2.985,2.985,0,0,1,17.7,6.7a3.825,3.825,0,0,1-.437,1.719,9.551,9.551,0,0,1-1.5,2.039L13.18,13.18H18.07Z" transform="translate(1159 864)" fill="#12263f"/>
  </g>
</svg>
