<svg xmlns="http://www.w3.org/2000/svg" width="82.422" height="82.422" viewBox="0 0 82.422 82.422">
  <g id="Programmer-Coding-Avatar-Occupation-Woman" transform="translate(-2 -2)">
    <path id="Trazado_890869" data-name="Trazado 890869" d="M57.948,68.156H3V51.507A10.962,10.962,0,0,1,8.77,41.85c3.434,2.528,11.855,4.327,21.7,4.327s18.27-1.8,21.7-4.327a10.962,10.962,0,0,1,5.77,9.657Z" transform="translate(0.374 14.892)" fill="#ea348b"/>
    <path id="Trazado_890870" data-name="Trazado 890870" d="M48.672,45.021a9.341,9.341,0,0,1,1.937.824c-3.434,2.528-11.855,4.327-21.7,4.327s-18.27-1.8-21.7-4.327a9.341,9.341,0,0,1,1.937-.824L19.55,41.765a5.5,5.5,0,0,0,3.86-5.248V31.16H34.4v5.357a5.5,5.5,0,0,0,3.86,5.248Z" transform="translate(1.943 10.897)" fill="#ffc477"/>
    <path id="Trazado_890871" data-name="Trazado 890871" d="M56.2,31.848a5.469,5.469,0,0,1-3.7,5.165,5.4,5.4,0,0,1,.948,3.077,5.5,5.5,0,0,1-5.495,5.495,5.418,5.418,0,0,1-3.063-.934,5.482,5.482,0,0,1-9.3,1.813H24.605a5.482,5.482,0,0,1-9.3-1.813,5.418,5.418,0,0,1-3.063.934A5.5,5.5,0,0,1,6.747,40.09a5.4,5.4,0,0,1,.948-3.077,5.48,5.48,0,0,1,1.8-10.66,5.033,5.033,0,0,1,1.374.206V22.232a19.232,19.232,0,1,1,38.464,0v4.327a5.033,5.033,0,0,1,1.374-.206A5.5,5.5,0,0,1,56.2,31.848Z" transform="translate(0.748 0.374)" fill="#57565c"/>
    <path id="Trazado_890872" data-name="Trazado 890872" d="M29.99,31.16v5.495a13.66,13.66,0,0,1-10.99,0V31.16Z" transform="translate(6.353 10.897)" fill="#ffb655"/>
    <path id="Trazado_890873" data-name="Trazado 890873" d="M40.474,18.82v9.616a13.737,13.737,0,0,1-27.474,0V18.82a24.739,24.739,0,0,0,17.2-6.69c1.566,3.1,5.577,5.316,10.275,5.316Z" transform="translate(4.111 3.786)" fill="#ffc477"/>
    <path id="Trazado_890874" data-name="Trazado 890874" d="M70.716,47v2.747a2.756,2.756,0,0,1-2.747,2.747H37.747A2.756,2.756,0,0,1,35,49.747V47Z" transform="translate(12.332 16.816)" fill="#c6c5ca"/>
    <path id="Trazado_890875" data-name="Trazado 890875" d="M70.716,35.747V52.232H35V35.747A2.756,2.756,0,0,1,37.747,33H67.969A2.756,2.756,0,0,1,70.716,35.747Z" transform="translate(12.332 11.585)" fill="#5aaae7"/>
    <path id="Trazado_890876" data-name="Trazado 890876" d="M59.421,57.81a2.686,2.686,0,0,1,.81,1.937,2.756,2.756,0,0,1-2.747,2.747H43.747a2.747,2.747,0,1,1,0-5.495H57.484A2.686,2.686,0,0,1,59.421,57.81Z" transform="translate(14.574 20.553)" fill="#898890"/>
    <rect id="Rectángulo_405360" data-name="Rectángulo 405360" width="8" height="8" transform="translate(61 69.422)" fill="#acabb1"/>
    <rect id="Rectángulo_405361" data-name="Rectángulo 405361" width="8" height="3" transform="translate(61 69.422)" fill="#898890"/>
    <path id="Trazado_890877" data-name="Trazado 890877" d="M80.3,43.211H55a6.885,6.885,0,0,0,.577-2.747A6.731,6.731,0,0,0,55.121,38a6.853,6.853,0,0,0-3.668-12.652V22.605a20.605,20.605,0,1,0-41.211,0v2.747A6.853,6.853,0,0,0,6.574,38a6.731,6.731,0,0,0-.453,2.459,6.868,6.868,0,0,0,6.868,6.868,6.948,6.948,0,0,0,2.445-.44,6.868,6.868,0,0,0,5.8,3.187,7.022,7.022,0,0,0,2.006-.3,4.147,4.147,0,0,1-2.157,1.58L10.682,54.6a10.062,10.062,0,0,0-2.184.934A12.318,12.318,0,0,0,2,66.4V83.048a1.374,1.374,0,0,0,1.374,1.374H72.059a4.121,4.121,0,1,0,0-8.242H70.685V70.685H80.3a4.133,4.133,0,0,0,4.121-4.121V47.332A4.133,4.133,0,0,0,80.3,43.211Zm-31.6-20.605v4.327a1.393,1.393,0,0,0,.549,1.1,1.326,1.326,0,0,0,1.2.22,4.042,4.042,0,0,1,1-.151,4.133,4.133,0,0,1,4.121,4.121,4.077,4.077,0,0,1-2.775,3.86,1.422,1.422,0,0,0-.852.879,1.36,1.36,0,0,0,.179,1.209,4.058,4.058,0,0,1-.385,5.041H50.079a4.044,4.044,0,0,0-2.789,1.113,3.626,3.626,0,0,1-.865-.426,1.354,1.354,0,0,0-1.209-.179,1.422,1.422,0,0,0-.879.852,4.07,4.07,0,0,1-6.621,1.676V45.67a15.13,15.13,0,0,0,8.242-13.449V21.232a1.374,1.374,0,0,0-1.374-1.374,10.646,10.646,0,0,1-8.544-3.723c.206-.22.4-.426.577-.646a20.835,20.835,0,0,0,4.3-7.61,17.824,17.824,0,0,1,7.789,14.726ZM45.958,47.3v5.715l-5.344-1.662a4.147,4.147,0,0,1-2.157-1.58,7.022,7.022,0,0,0,2.006.3A6.849,6.849,0,0,0,45.958,47.3Zm-15.111-2.72A12.383,12.383,0,0,1,18.484,32.221v-8.27a26.424,26.424,0,0,0,15.537-5.934,13.006,13.006,0,0,0,9.19,4.533v9.671A12.383,12.383,0,0,1,30.848,44.585Zm-9.616,2.747a4.1,4.1,0,0,1-3.874-2.761,1.422,1.422,0,0,0-.879-.852,1.364,1.364,0,0,0-1.2.165,4.121,4.121,0,0,1-5.715-5.715,1.36,1.36,0,0,0,.179-1.209,1.422,1.422,0,0,0-.852-.879,4.077,4.077,0,0,1-2.775-3.86A4.133,4.133,0,0,1,10.242,28.1a4.042,4.042,0,0,1,1,.151,1.332,1.332,0,0,0,1.2-.22,1.393,1.393,0,0,0,.549-1.1V22.605A17.822,17.822,0,0,1,38.444,6.465a18.222,18.222,0,0,1-3.9,7.226,13.925,13.925,0,0,1-1.181,1.236,23.514,23.514,0,0,1-16.251,6.305,1.374,1.374,0,0,0-1.374,1.374v9.616A15.13,15.13,0,0,0,23.979,45.67v.577A4.1,4.1,0,0,1,21.232,47.332Zm.673,6.635a6.826,6.826,0,0,0,4.822-6.553v-.673a14.671,14.671,0,0,0,8.242,0v.673a6.826,6.826,0,0,0,4.822,6.553L45.958,55.9v2.1A61.937,61.937,0,0,1,30.848,59.7c-8.311,0-14.712-1.25-18.421-2.761ZM47.1,78.419A6.538,6.538,0,0,0,46,81.674H15.7a6.533,6.533,0,0,0-1.1-3.242,9.333,9.333,0,0,1-1.607-5,9.079,9.079,0,0,1,2.349-5.893l-1.951-1.951a11.983,11.983,0,0,0-3.146,7.844,12.164,12.164,0,0,0,2.088,6.553,3.647,3.647,0,0,1,.618,1.69h-8.2V66.4a9.571,9.571,0,0,1,4.382-8.022c4.135,2.486,12.473,4.066,21.718,4.066a66.424,66.424,0,0,0,15.111-1.593v5.715a4.121,4.121,0,0,0,2.019,3.53,8.822,8.822,0,0,1,.728,3.338A9.252,9.252,0,0,1,47.1,78.419Zm7.349,3.256h-5.7a3.539,3.539,0,0,1,.618-1.69,12.164,12.164,0,0,0,2.088-6.553,10.715,10.715,0,0,0-.371-2.747H59.7V76.18H58.322a4.094,4.094,0,0,0-3.874,5.495Zm17.611-2.747a1.374,1.374,0,1,1,0,2.747H58.322a1.374,1.374,0,0,1,0-2.747ZM62.443,76.18V70.685h5.495V76.18Zm19.232-9.616A1.374,1.374,0,0,1,80.3,67.937H50.079a1.374,1.374,0,0,1-1.374-1.374V65.19H81.674Zm0-4.121H48.706V47.332a1.374,1.374,0,0,1,1.374-1.374H80.3a1.374,1.374,0,0,1,1.374,1.374Z" transform="translate(0)"/>
    <path id="Trazado_890878" data-name="Trazado 890878" d="M44.524,46.478l1.942-1.942-3.15-3.15,3.15-3.15-1.942-1.942L40.4,40.414a1.374,1.374,0,0,0,0,1.942Z" transform="translate(14.201 12.815)"/>
    <path id="Trazado_890879" data-name="Trazado 890879" d="M53.235,46.478l4.121-4.121a1.374,1.374,0,0,0,0-1.942l-4.121-4.121-1.942,1.942,3.15,3.15-3.15,3.15Z" transform="translate(18.421 12.815)"/>
    <rect id="Rectángulo_405362" data-name="Rectángulo 405362" width="11.328" height="2.746" transform="translate(62.483 59.361) rotate(-75.95)"/>
    <circle id="Elipse_11916" data-name="Elipse 11916" cx="2.5" cy="2.5" r="2.5" transform="translate(23 25.422)"/>
    <circle id="Elipse_11917" data-name="Elipse 11917" cx="2.5" cy="2.5" r="2.5" transform="translate(34 25.422)"/>
    <path id="Trazado_890880" data-name="Trazado 890880" d="M29.169,28.074l-1.923-1.956a4.234,4.234,0,0,1-5.846,0l-1.923,1.956a6.878,6.878,0,0,0,9.7,0Z" transform="translate(6.531 9.013)"/>
  </g>
</svg>
