<svg xmlns="http://www.w3.org/2000/svg" xmlns:xlink="http://www.w3.org/1999/xlink" width="127" height="105" viewBox="0 0 127 105">
  <defs>
    <linearGradient id="linear-gradient" x1="0.5" x2="0.5" y2="1" gradientUnits="objectBoundingBox">
      <stop offset="0" stop-color="#7737f0"/>
      <stop offset="1" stop-color="#291155"/>
    </linearGradient>
  </defs>
  <g id="Grupo_1104494" data-name="Grupo 1104494" transform="translate(-1173 -2658)">
    <rect id="Rectángulo_402949" data-name="Rectángulo 402949" width="127" height="105" rx="5" transform="translate(1173 2658)" fill="url(#linear-gradient)"/>
    <g id="search_15722716" transform="translate(1184.301 2623.97)">
      <g id="Grupo_1104890" data-name="Grupo 1104890" transform="translate(9.822 51.287)">
        <path id="Trazado_890336" data-name="Trazado 890336" d="M24.113,74.586V55.665a4.636,4.636,0,0,1,1.117-3.047,3.743,3.743,0,0,1,2.824-1.331h13.17a3.575,3.575,0,0,1,1.551.344,3.925,3.925,0,0,1,1.275.985l8.734,10a2.115,2.115,0,0,0,.68.534,1.776,1.776,0,0,0,.77.164h36.4a3.744,3.744,0,0,1,2.824,1.331,4.637,4.637,0,0,1,1.117,3.048l0,42.407a.914.914,0,0,1-.914.914l-68.545.207a.918.918,0,0,1-1-.914v-3.231l-2.791,4.834,1.333.763A.917.917,0,0,1,23,113.923c-.245.428-2.963,5.1-2.953,5.111a5.477,5.477,0,1,1-9.485-5.48c.961-1.659,2.02-3.319,3.018-4.962a.918.918,0,0,1,1.276-.387l1.584.906,4.022-6.965a15.891,15.891,0,0,1,3.656-27.561Z" transform="translate(-9.822 -51.287)" fill-rule="evenodd"/>
        <path id="Trazado_890337" data-name="Trazado 890337" d="M302.552,184.718H272.116V211.7h30.436Zm-26.4,21.942a.918.918,0,1,1,0-1.835h22.355a.918.918,0,1,1,0,1.835Zm0-4.019a.918.918,0,1,1,0-1.835h6.691a.918.918,0,1,1,0,1.835Zm10.967,0a.918.918,0,1,1,0-1.835h11.388a.918.918,0,1,1,0,1.835Zm-10.967-4.019a.918.918,0,1,1,0-1.835h22.355a.918.918,0,1,1,0,1.835Zm0-4.019a.918.918,0,1,1,0-1.835h16.738a.918.918,0,1,1,0,1.835Zm21.015,0a.918.918,0,1,1,0-1.835h1.341a.918.918,0,1,1,0,1.835Zm-21.015-4.018a.918.918,0,0,1,0-1.835h2.923a.918.918,0,1,1,0,1.835Zm7.2,0a.918.918,0,0,1,0-1.835h15.156a.918.918,0,1,1,0,1.835Z" transform="translate(-226.962 -161.748)" fill="#bee0fc" fill-rule="evenodd"/>
        <path id="Trazado_890338" data-name="Trazado 890338" d="M85.884,218.954A10.571,10.571,0,1,0,78.41,231.9,10.571,10.571,0,0,0,85.884,218.954Zm-12.522,8.73a.916.916,0,1,1-.473-1.771l9.53-2.553a.916.916,0,0,1,.473,1.771Zm-4.6-3.416a.916.916,0,1,1-.473-1.771l9.53-2.553a.916.916,0,1,1,.473,1.771Zm1.966-5.612a.916.916,0,1,1-.473-1.771l9.53-2.553a.916.916,0,1,1,.473,1.771Z" transform="translate(-55.583 -183.602)" fill="#84b5cb" fill-rule="evenodd"/>
        <path id="Trazado_890339" data-name="Trazado 890339" d="M76.235,211.13a10.574,10.574,0,0,0-3.709,20.65q.267.013.538.014a10.577,10.577,0,0,0,9.826-6.661l-9.518,2.551a.916.916,0,1,1-.473-1.771l9.53-2.553a.916.916,0,0,1,.93.285A10.587,10.587,0,0,0,76.235,211.13Zm-7.463,13.137A.916.916,0,1,1,68.3,222.5l9.53-2.553a.916.916,0,1,1,.473,1.771Zm1.966-5.612a.916.916,0,1,1-.473-1.771l9.53-2.553a.916.916,0,0,1,.473,1.771Z" transform="translate(-55.592 -183.601)" fill="#bee0fc" fill-rule="evenodd"/>
        <path id="Trazado_890340" data-name="Trazado 890340" d="M103.514,113.573V118.2l66.794-.2v-41.5a2.8,2.8,0,0,0-.658-1.844,1.932,1.932,0,0,0-1.448-.7H131.8a3.578,3.578,0,0,1-1.551-.344,3.927,3.927,0,0,1-1.275-.986l-8.734-10a2.109,2.109,0,0,0-.68-.534,1.775,1.775,0,0,0-.77-.165h-13.17a1.932,1.932,0,0,0-1.448.7,2.8,2.8,0,0,0-.658,1.843V82.806a15.886,15.886,0,1,1,.234,30.826ZM131.62,81.238h32.271a.918.918,0,0,1,.918.918v28.813a.918.918,0,0,1-.918.918H131.62a.918.918,0,0,1-.918-.918V82.155a.918.918,0,0,1,.918-.918ZM106.684,67.086h13.363a.918.918,0,0,1,.918.918v5.52a.918.918,0,0,1-.918.918H106.684a.918.918,0,0,1-.918-.918V68A.918.918,0,0,1,106.684,67.086Z" transform="translate(-87.384 -60.103)" fill="#fee88a" fill-rule="evenodd"/>
      </g>
      <path id="Trazado_890341" data-name="Trazado 890341" d="M127.262,102.511H138.79V106.2H127.262Z" transform="translate(-97.223 -42.406)" fill="#d6857c"/>
      <g id="Grupo_1104891" data-name="Grupo 1104891" transform="translate(11.665 75.333)">
        <path id="Trazado_890342" data-name="Trazado 890342" d="M55.643,218.675a14.054,14.054,0,1,0,6.593-27.325,14.244,14.244,0,0,0-10.626,1.672,14.054,14.054,0,0,0,4.033,25.653ZM70.921,201.8a12.4,12.4,0,1,1-15.191-8.772A12.4,12.4,0,0,1,70.921,201.8Z" transform="translate(-40.693 -190.971)" fill="#f0c419" fill-rule="evenodd"/>
        <path id="Trazado_890343" data-name="Trazado 890343" d="M57.467,359.415l1.715.981,4.028-6.976a15.8,15.8,0,0,1-1.776-.877Z" transform="translate(-51.108 -324.729)" fill="#d5aa0f" fill-rule="evenodd"/>
        <path id="Trazado_890344" data-name="Trazado 890344" d="M29.815,397.3l-6.235-3.569-2.552,4.2a3.647,3.647,0,1,0,6.3,3.679Z" transform="translate(-20.529 -358.828)" fill="#916f0b" fill-rule="evenodd"/>
      </g>
    </g>
  </g>
</svg>
