<svg xmlns="http://www.w3.org/2000/svg" xmlns:xlink="http://www.w3.org/1999/xlink" width="119" height="147.5" viewBox="0 0 119 147.5">
  <defs>
    <filter id="Trazado_836181" x="0" y="0" width="119" height="119" filterUnits="userSpaceOnUse">
      <feOffset input="SourceAlpha"/>
      <feGaussianBlur stdDeviation="5.5" result="blur"/>
      <feFlood flood-color="#fff" flood-opacity="0.659"/>
      <feComposite operator="in" in2="blur"/>
      <feComposite in="SourceGraphic"/>
    </filter>
  </defs>
  <g id="Grupo_1105947" data-name="Grupo 1105947" transform="translate(-6098.5 10979.5)">
    <g id="Grupo_1105250" data-name="Grupo 1105250" transform="translate(4986 -15803)">
      <g transform="matrix(1, 0, 0, 1, 1112.5, 4823.5)" filter="url(#Trazado_836181)">
        <path id="Trazado_836181-2" data-name="Trazado 836181" d="M43,0A43,43,0,1,1,0,43,43,43,0,0,1,43,0Z" transform="translate(16.5 16.5)" fill="#4df5df"/>
      </g>
      <g id="vertical_4598303_1_" data-name="vertical_4598303 (1)" transform="translate(1152.068 4854.905)">
        <g id="Grupo_1105265" data-name="Grupo 1105265" transform="translate(31.07 34.518)">
          <path id="Trazado_890715" data-name="Trazado 890715" d="M369.6,344.447V338.3a.744.744,0,0,1,.744-.744h1.012a.744.744,0,0,0,.587-1.2l-3.972-5.087a.744.744,0,0,0-1.173,0l-3.972,5.087a.744.744,0,0,0,.587,1.2h1.13a.744.744,0,0,1,.744.744v6.149a.757.757,0,0,0,.757.757h2.8A.757.757,0,0,0,369.6,344.447Z" transform="translate(-362.665 -330.978)" fill="#f8e883"/>
        </g>
        <g id="Grupo_1105266" data-name="Grupo 1105266" transform="translate(34.299 34.518)">
          <path id="Trazado_890716" data-name="Trazado 890716" d="M406.406,336.351l-3.972-5.087a.744.744,0,0,0-1.173,0l-.9,1.155,3.07,3.932a.744.744,0,0,1-.587,1.2h-1.012a.744.744,0,0,0-.744.744v6.149a.757.757,0,0,1-.668.751.787.787,0,0,0,.089.006h2.8a.757.757,0,0,0,.757-.757V338.3a.744.744,0,0,1,.744-.744h1.012A.745.745,0,0,0,406.406,336.351Z" transform="translate(-400.358 -330.978)" fill="#ffd549"/>
        </g>
        <g id="Grupo_1105267" data-name="Grupo 1105267" transform="translate(0.644 11.085)">
          <path id="Trazado_890717" data-name="Trazado 890717" d="M30.822,86.467l-8.3-26.659q-.038-.123-.087-.242a3.406,3.406,0,0,0-3.161-2.117h0a3.406,3.406,0,0,0-3.16,2.124q-.046.113-.083.229L7.647,86.46A2.912,2.912,0,1,0,13.2,88.206L14.209,85a.837.837,0,0,1,.8-.586h8.459a.837.837,0,0,1,.8.588l.995,3.194a2.912,2.912,0,1,0,5.56-1.732ZM16.4,78.044l2.459-7.824a.423.423,0,0,1,.807,0L22.1,78.045a.423.423,0,0,1-.4.548H16.8A.423.423,0,0,1,16.4,78.044Z" transform="translate(-7.512 -57.449)" fill="#b7aee6"/>
        </g>
        <g id="Grupo_1105268" data-name="Grupo 1105268" transform="translate(10.542 11.085)">
          <path id="Trazado_890718" data-name="Trazado 890718" d="M136.467,86.467l-8.3-26.659q-.038-.123-.087-.242a3.406,3.406,0,0,0-3.161-2.117h0a3.411,3.411,0,0,0-1.857.55,3.41,3.41,0,0,1,1.3,1.567q.049.119.087.242l8.3,26.659a2.912,2.912,0,0,1-.919,3.106,2.912,2.912,0,0,0,4.64-3.106Z" transform="translate(-123.056 -57.449)" fill="#7668c3"/>
        </g>
        <g id="Grupo_1105269" data-name="Grupo 1105269" transform="translate(27.336 7.384)">
          <path id="Trazado_890719" data-name="Trazado 890719" d="M331.852,14.243a2.093,2.093,0,0,0-2.007,1.5,7.434,7.434,0,1,0,0,13.283,2.093,2.093,0,0,0,4.1-.592v-12.1A2.093,2.093,0,0,0,331.852,14.243ZM326.513,25a2.615,2.615,0,1,1,2.614-2.615A2.618,2.618,0,0,1,326.513,25Z" transform="translate(-319.079 -14.243)" fill="#f94374"/>
        </g>
        <g id="Grupo_1105270" data-name="Grupo 1105270" transform="translate(38.249 7.384)">
          <path id="Trazado_890720" data-name="Trazado 890720" d="M450.419,16.335a2.092,2.092,0,0,0-3.954-.955,2.082,2.082,0,0,1,.232.955v12.1a2.081,2.081,0,0,1-.232.956,2.092,2.092,0,0,0,3.954-.956Z" transform="translate(-446.465 -14.242)" fill="#d4335f"/>
        </g>
        <g id="Grupo_1105271" data-name="Grupo 1105271" transform="translate(30.427 33.876)">
          <path id="Trazado_890721" data-name="Trazado 890721" d="M361.982,338.989h-2.8a1.4,1.4,0,0,1-1.4-1.4v-6.149a.1.1,0,0,0-.1-.1h-1.13a1.387,1.387,0,0,1-1.093-2.24l3.972-5.087a1.387,1.387,0,0,1,2.186,0l3.972,5.087a1.387,1.387,0,0,1-1.093,2.24h-1.012a.1.1,0,0,0-.1.1v6.149A1.4,1.4,0,0,1,361.982,338.989Zm-1.459-14.226a.1.1,0,0,0-.08.039l-3.972,5.087a.1.1,0,0,0,.08.164h1.13a1.388,1.388,0,0,1,1.387,1.387v6.149a.114.114,0,0,0,.114.114h2.8a.114.114,0,0,0,.114-.114v-6.149a1.388,1.388,0,0,1,1.387-1.387h1.012a.1.1,0,0,0,.08-.164L360.6,324.8a.1.1,0,0,0-.08-.039Z" transform="translate(-355.162 -323.478)"/>
        </g>
        <g id="Grupo_1105272" data-name="Grupo 1105272" transform="translate(0 10.443)">
          <path id="Trazado_890722" data-name="Trazado 890722" d="M21.169,84.032a3.56,3.56,0,0,1-3.389-2.5l-.995-3.194A.194.194,0,0,0,16.6,78.2H13.112a.643.643,0,1,1,0-1.285H16.6a1.473,1.473,0,0,1,1.413,1.04l.995,3.194A2.269,2.269,0,1,0,23.34,79.8l-8.3-26.659c-.02-.064-.043-.127-.068-.189a2.775,2.775,0,0,0-5.135.005c-.024.058-.045.118-.064.179L1.391,79.8a2.269,2.269,0,1,0,4.33,1.361l1.007-3.2A1.474,1.474,0,0,1,8.14,76.917h2.4a.643.643,0,1,1,0,1.285H8.14a.194.194,0,0,0-.186.136l-1.007,3.2A3.554,3.554,0,0,1,.4,82.12a3.531,3.531,0,0,1-.24-2.71L8.544,52.752c.03-.094.064-.188.1-.28a4.06,4.06,0,0,1,7.513-.008c.04.1.076.2.107.3l8.3,26.659a3.56,3.56,0,0,1-3.4,4.613ZM14.827,72.378h-4.9a1.065,1.065,0,0,1-1.016-1.385l2.459-7.824a1.061,1.061,0,0,1,1.016-.746h0a1.061,1.061,0,0,1,1.016.748L15.844,71a1.065,1.065,0,0,1-1.017,1.382Zm-5.3-1.192h0Zm.7-.093h4.3L12.39,64.226Z" transform="translate(0 -49.949)"/>
        </g>
        <g id="Grupo_1105273" data-name="Grupo 1105273" transform="translate(26.173 27.963)">
          <path id="Trazado_890723" data-name="Trazado 890723" d="M322.556,255.741H306.151a.643.643,0,1,1,0-1.285h16.405a.643.643,0,1,1,0,1.285Z" transform="translate(-305.508 -254.456)"/>
        </g>
        <g id="Grupo_1105274" data-name="Grupo 1105274" transform="translate(0.001 48.164)">
          <path id="Trazado_890724" data-name="Trazado 890724" d="M24.052,491.542H.654a.643.643,0,1,1,0-1.285h23.4a.643.643,0,1,1,0,1.285Z" transform="translate(-0.011 -490.257)"/>
        </g>
        <g id="Grupo_1105275" data-name="Grupo 1105275" transform="translate(26.693 6.741)">
          <path id="Trazado_890725" data-name="Trazado 890725" d="M325,24.314a2.753,2.753,0,0,1-2.324-1.3,7.968,7.968,0,0,1-3.016.586,8.076,8.076,0,1,1,0-16.153h0a7.969,7.969,0,0,1,3.015.585A2.753,2.753,0,0,1,325,6.741h0a2.736,2.736,0,0,1,2.736,2.736v4.409a.643.643,0,0,1-1.285,0V9.477A1.451,1.451,0,0,0,325,8.026,1.458,1.458,0,0,0,323.6,9.067a.642.642,0,0,1-.905.393,6.7,6.7,0,0,0-3.043-.723h0a6.791,6.791,0,0,0,0,13.582h0A6.7,6.7,0,0,0,322.7,21.6a.642.642,0,0,1,.905.392,1.451,1.451,0,0,0,2.842-.41V16.456a.643.643,0,1,1,1.285,0v5.121A2.739,2.739,0,0,1,325,24.314Zm-5.341-5.529a3.26,3.26,0,1,1,2.3-.955,3.261,3.261,0,0,1-2.3.955Zm0-1.285a1.972,1.972,0,1,0-1.972-1.972A1.958,1.958,0,0,0,319.656,17.5Z" transform="translate(-311.58 -6.741)"/>
        </g>
      </g>
    </g>
    <rect id="Rectángulo_405326" data-name="Rectángulo 405326" width="30" height="30" rx="3" transform="translate(6143 -10862)" fill="#f0c518"/>
    <path id="Trazado_891248" data-name="Trazado 891248" d="M8.75,10.3a5.762,5.762,0,0,1-.977,3.609,3.409,3.409,0,0,1-2.859,1.25A3.433,3.433,0,0,1,2.07,13.93a5.594,5.594,0,0,1-1.008-3.516V8.32A5.687,5.687,0,0,1,2.051,4.7,3.434,3.434,0,0,1,4.9,3.469,3.437,3.437,0,0,1,7.742,4.691,5.576,5.576,0,0,1,8.75,8.2Zm-2.258-2.3a4.165,4.165,0,0,0-.387-2.061A1.307,1.307,0,0,0,4.9,5.289,1.284,1.284,0,0,0,3.723,5.9a3.9,3.9,0,0,0-.4,1.92v2.768A4.372,4.372,0,0,0,3.7,12.659a1.29,1.29,0,0,0,1.215.676,1.268,1.268,0,0,0,1.2-.649A4.268,4.268,0,0,0,6.492,10.7Zm6.078.318h1.2a1.7,1.7,0,0,0,1.273-.43,1.574,1.574,0,0,0,.414-1.141,1.392,1.392,0,0,0-.41-1.07,1.59,1.59,0,0,0-1.129-.383,1.666,1.666,0,0,0-1.086.355,1.137,1.137,0,0,0-.437.926H10.141a2.777,2.777,0,0,1,.48-1.6,3.2,3.2,0,0,1,1.344-1.105,4.485,4.485,0,0,1,1.9-.4,4.253,4.253,0,0,1,2.828.863,2.945,2.945,0,0,1,1.023,2.379,2.394,2.394,0,0,1-.477,1.438,3.1,3.1,0,0,1-1.25,1.008,2.826,2.826,0,0,1,1.434,1.031,2.8,2.8,0,0,1,.473,1.625,2.994,2.994,0,0,1-1.105,2.43,4.445,4.445,0,0,1-2.926.914,4.214,4.214,0,0,1-2.785-.9A2.934,2.934,0,0,1,10,11.883h2.258a1.308,1.308,0,0,0,.48,1.047,1.771,1.771,0,0,0,1.184.406,1.779,1.779,0,0,0,1.262-.426,1.47,1.47,0,0,0,.457-1.129q0-1.7-1.875-1.7h-1.2Z" transform="translate(6149 -10857)" fill="#12263f"/>
  </g>
</svg>
