<svg xmlns="http://www.w3.org/2000/svg" width="96" height="96" viewBox="0 0 96 96">
  <g id="project-plan_8980777" transform="translate(-0.5 -0.5)">
    <g id="XMLID_2438_" transform="translate(0.5 0.5)">
      <path id="Trazado_890113" data-name="Trazado 890113" d="M48,0A48,48,0,1,1,0,48,48,48,0,0,1,48,0Z" fill="#fbbd5e"/>
    </g>
    <g id="XMLID_2439_" transform="translate(52.25 48.5)">
      <ellipse id="Elipse_11888" data-name="Elipse 11888" cx="1.95" rx="1.95" fill="#fff"/>
    </g>
    <g id="XMLID_2656_" transform="translate(10.4 37.7)">
      <g id="XMLID_2657_" transform="translate(55.05)">
        <g id="XMLID_21888_">
          <g id="XMLID_21889_">
            <g id="XMLID_21890_">
              <g id="XMLID_21891_">
                <g id="XMLID_21892_">
                  <g id="XMLID_21893_">
                    <g id="XMLID_21894_">
                      <g id="XMLID_21895_">
                        <g id="XMLID_21896_">
                          <path id="Trazado_890081" data-name="Trazado 890081" d="M43.8,25.3h3v3h-3Z" transform="translate(-43.8 -25.3)" fill="#183651"/>
                        </g>
                      </g>
                    </g>
                  </g>
                </g>
              </g>
            </g>
          </g>
        </g>
        <g id="XMLID_21879_" transform="translate(9.15)">
          <g id="XMLID_21880_">
            <g id="XMLID_21881_">
              <g id="XMLID_21882_">
                <g id="XMLID_21883_">
                  <g id="XMLID_21884_">
                    <g id="XMLID_21885_">
                      <g id="XMLID_21886_">
                        <g id="XMLID_21887_">
                          <path id="Trazado_890082" data-name="Trazado 890082" d="M49.9,25.3h3v3h-3Z" transform="translate(-49.9 -25.3)" fill="#183651"/>
                        </g>
                      </g>
                    </g>
                  </g>
                </g>
              </g>
            </g>
          </g>
        </g>
        <g id="XMLID_21870_" transform="translate(18.15)">
          <g id="XMLID_21871_">
            <g id="XMLID_21872_">
              <g id="XMLID_21873_">
                <g id="XMLID_21874_">
                  <g id="XMLID_21875_">
                    <g id="XMLID_21876_">
                      <g id="XMLID_21877_">
                        <g id="XMLID_21878_">
                          <path id="Trazado_890083" data-name="Trazado 890083" d="M55.9,25.3h3v3h-3Z" transform="translate(-55.9 -25.3)" fill="#183651"/>
                        </g>
                      </g>
                    </g>
                  </g>
                </g>
              </g>
            </g>
          </g>
        </g>
      </g>
      <g id="XMLID_2658_" transform="translate(0 18.6)">
        <g id="XMLID_21860_">
          <g id="XMLID_21861_">
            <g id="XMLID_21862_">
              <g id="XMLID_21863_">
                <g id="XMLID_21864_">
                  <g id="XMLID_21865_">
                    <g id="XMLID_21866_">
                      <g id="XMLID_21867_">
                        <g id="XMLID_21868_">
                          <path id="Trazado_890084" data-name="Trazado 890084" d="M7.1,37.7h3v3h-3Z" transform="translate(-7.1 -37.7)" fill="#183651"/>
                        </g>
                      </g>
                    </g>
                  </g>
                </g>
              </g>
            </g>
          </g>
        </g>
        <g id="XMLID_21851_" transform="translate(9)">
          <g id="XMLID_21852_">
            <g id="XMLID_21853_">
              <g id="XMLID_21854_">
                <g id="XMLID_21855_">
                  <g id="XMLID_21856_">
                    <g id="XMLID_21857_">
                      <g id="XMLID_21858_">
                        <g id="XMLID_21859_">
                          <path id="Trazado_890085" data-name="Trazado 890085" d="M13.1,37.7h3v3h-3Z" transform="translate(-13.1 -37.7)" fill="#183651"/>
                        </g>
                      </g>
                    </g>
                  </g>
                </g>
              </g>
            </g>
          </g>
        </g>
        <g id="XMLID_21842_" transform="translate(18.15)">
          <g id="XMLID_21843_">
            <g id="XMLID_21844_">
              <g id="XMLID_21845_">
                <g id="XMLID_21846_">
                  <g id="XMLID_21847_">
                    <g id="XMLID_21848_">
                      <g id="XMLID_21849_">
                        <g id="XMLID_21850_">
                          <path id="Trazado_890086" data-name="Trazado 890086" d="M19.2,37.7h3v3h-3Z" transform="translate(-19.2 -37.7)" fill="#183651"/>
                        </g>
                      </g>
                    </g>
                  </g>
                </g>
              </g>
            </g>
          </g>
        </g>
      </g>
    </g>
    <g id="XMLID_18203_" transform="translate(26.3 3.05)">
      <path id="Trazado_890087" data-name="Trazado 890087" d="M19.8,12.1,17.7,10l2.7-2.85L17.7,4.3l2.1-2.1,4.95,4.95Z" transform="translate(-17.7 -2.2)" fill="#183651"/>
    </g>
    <g id="XMLID_3290_" transform="translate(21.8 6.5)">
      <path id="Trazado_890088" data-name="Trazado 890088" d="M14.7,4.5H24v3H14.7Z" transform="translate(-14.7 -4.5)" fill="#183651"/>
    </g>
    <g id="XMLID_3291_" transform="translate(1.55 0.5)">
      <g id="XMLID_18201_" transform="translate(35.55 80.85)">
        <path id="Trazado_890089" data-name="Trazado 890089" d="M25.9,55.4H45.7V67.55H25.9Z" transform="translate(-24.4 -53.9)" fill="#4fbf9f"/>
        <path id="Trazado_890090" data-name="Trazado 890090" d="M46.2,69.55H26.4a1.417,1.417,0,0,1-1.5-1.5V55.9a1.417,1.417,0,0,1,1.5-1.5H46.2a1.417,1.417,0,0,1,1.5,1.5V68.05A1.417,1.417,0,0,1,46.2,69.55Zm-18.3-3H44.7V57.4H27.9Z" transform="translate(-24.9 -54.4)" fill="#183651"/>
      </g>
      <g id="XMLID_18200_" transform="translate(35.55 60.6)">
        <path id="Trazado_890091" data-name="Trazado 890091" d="M25.9,41.9H45.7V54.05H25.9Z" transform="translate(-24.4 -40.4)" fill="#e0e4e8"/>
        <path id="Trazado_890092" data-name="Trazado 890092" d="M46.2,56.05H26.4a1.417,1.417,0,0,1-1.5-1.5V42.4a1.417,1.417,0,0,1,1.5-1.5H46.2a1.417,1.417,0,0,1,1.5,1.5V54.55A1.417,1.417,0,0,1,46.2,56.05Zm-18.3-3H44.7V43.9H27.9Z" transform="translate(-24.9 -40.9)" fill="#183651"/>
      </g>
      <g id="XMLID_18199_" transform="translate(35.55 40.35)">
        <path id="Trazado_890093" data-name="Trazado 890093" d="M25.9,28.5H45.7V40.65H25.9Z" transform="translate(-24.4 -26.85)" fill="#4fbf9f"/>
        <path id="Trazado_890094" data-name="Trazado 890094" d="M46.2,42.55H26.4a1.417,1.417,0,0,1-1.5-1.5V28.9a1.417,1.417,0,0,1,1.5-1.5H46.2a1.417,1.417,0,0,1,1.5,1.5V41.05A1.417,1.417,0,0,1,46.2,42.55Zm-18.3-3H44.7V30.4H27.9Z" transform="translate(-24.9 -27.4)" fill="#183651"/>
      </g>
      <g id="XMLID_18198_" transform="translate(35.55 20.25)">
        <path id="Trazado_890095" data-name="Trazado 890095" d="M25.9,15H45.7V27.15H25.9Z" transform="translate(-24.4 -13.5)" fill="#e0e4e8"/>
        <path id="Trazado_890096" data-name="Trazado 890096" d="M46.2,29.15H26.4a1.417,1.417,0,0,1-1.5-1.5V15.5A1.417,1.417,0,0,1,26.4,14H46.2a1.417,1.417,0,0,1,1.5,1.5V27.65A1.5,1.5,0,0,1,46.2,29.15Zm-18.3-3H44.7V17H27.9Z" transform="translate(-24.9 -14)" fill="#183651"/>
      </g>
      <g id="XMLID_18197_" transform="translate(35.55)">
        <path id="Trazado_890097" data-name="Trazado 890097" d="M25.9,1.5H45.7V13.65H25.9Z" transform="translate(-24.4)" fill="#4fbf9f"/>
        <path id="Trazado_890098" data-name="Trazado 890098" d="M46.2,15.65H26.4a1.417,1.417,0,0,1-1.5-1.5V2A1.417,1.417,0,0,1,26.4.5H46.2A1.417,1.417,0,0,1,47.7,2V14.15A1.5,1.5,0,0,1,46.2,15.65Zm-18.3-3H44.7V3.5H27.9Z" transform="translate(-24.9 -0.5)" fill="#183651"/>
      </g>
      <g id="XMLID_18196_" transform="translate(61.35 83.1)">
        <path id="Trazado_890099" data-name="Trazado 890099" d="M44.2,65.65l-2.1-2.1,2.7-2.7L42.1,58l2.1-2.1L49,60.85Z" transform="translate(-42.1 -55.9)" fill="#183651"/>
      </g>
      <g id="XMLID_3292_" transform="translate(56.85 86.55)">
        <path id="Trazado_890100" data-name="Trazado 890100" d="M39.1,58.2h9.3v3H39.1Z" transform="translate(-39.1 -58.2)" fill="#183651"/>
      </g>
      <g id="XMLID_3293_" transform="translate(0 66.75)">
        <g id="XMLID_18194_" transform="translate(25.8 15.6)">
          <path id="Trazado_890101" data-name="Trazado 890101" d="M20.65,65.3,18.4,63.2l2.85-2.85L18.4,57.5l2.25-2.1,4.8,4.95Z" transform="translate(-18.4 -55.4)" fill="#183651"/>
        </g>
        <g id="XMLID_3295_">
          <path id="Trazado_890102" data-name="Trazado 890102" d="M31.8,67.05H12.3A11.026,11.026,0,1,1,12.45,45h25.8v3H12.45a8.1,8.1,0,0,0,0,16.2h19.5v2.85Z" transform="translate(-1.2 -45)" fill="#183651"/>
        </g>
      </g>
      <g id="XMLID_3296_" transform="translate(0 26.25)">
        <g id="XMLID_18191_" transform="translate(25.8 15.75)">
          <path id="Trazado_890103" data-name="Trazado 890103" d="M20.65,38.25l-2.25-2.1,2.85-2.7L18.4,30.6l2.25-2.1,4.8,4.95Z" transform="translate(-18.4 -28.5)" fill="#183651"/>
        </g>
        <g id="XMLID_3297_">
          <path id="Trazado_890104" data-name="Trazado 890104" d="M31.8,40.2H12.3A11.075,11.075,0,0,1,1.2,29.1,11.2,11.2,0,0,1,12.45,18h25.8v3H12.45a8.1,8.1,0,1,0,0,16.2h19.5v3Z" transform="translate(-1.2 -18)" fill="#183651"/>
        </g>
      </g>
      <g id="XMLID_3298_" transform="translate(56.85 46.35)">
        <g id="XMLID_18188_" transform="translate(4.2 16.65)">
          <path id="Trazado_890105" data-name="Trazado 890105" d="M46.7,52.25,41.9,47.3l4.8-4.8,2.25,2.1L46.1,47.3l2.85,2.85Z" transform="translate(-41.9 -42.5)" fill="#183651"/>
        </g>
        <g id="XMLID_18187_">
          <path id="Trazado_890106" data-name="Trazado 890106" d="M64.9,54.35H45.4v-3H64.9a8.066,8.066,0,0,0,8.1-8.1V42.5a8.066,8.066,0,0,0-8.1-8.1H39.1v-3H64.9A11.075,11.075,0,0,1,76,42.5v.75A11.075,11.075,0,0,1,64.9,54.35Z" transform="translate(-39.1 -31.4)" fill="#183651"/>
        </g>
      </g>
      <g id="XMLID_3299_" transform="translate(56.85 6)">
        <g id="XMLID_18185_" transform="translate(4.2 16.5)">
          <path id="Trazado_890107" data-name="Trazado 890107" d="M46.7,25.4l-4.8-4.95,4.8-4.95,2.25,2.1L46.1,20.45l2.85,2.85Z" transform="translate(-41.9 -15.5)" fill="#183651"/>
        </g>
        <g id="XMLID_18184_">
          <path id="Trazado_890108" data-name="Trazado 890108" d="M64.9,27.45H45.4v-3H64.9a8.066,8.066,0,0,0,8.1-8.1V15.6a8.066,8.066,0,0,0-8.1-8.1H39.1v-3H64.9A11.075,11.075,0,0,1,76,15.6v.75A11.075,11.075,0,0,1,64.9,27.45Z" transform="translate(-39.1 -4.5)" fill="#183651"/>
        </g>
      </g>
    </g>
    <g id="XMLID_3300_" transform="translate(0.5 0.5)">
      <g id="XMLID_18181_" transform="translate(73.2 80.85)">
        <path id="Trazado_890109" data-name="Trazado 890109" d="M50.3,55.4H70.1V67.55H50.3Z" transform="translate(-48.8 -53.9)" fill="#f06151"/>
        <path id="Trazado_890110" data-name="Trazado 890110" d="M70.6,69.55H50.8a1.417,1.417,0,0,1-1.5-1.5V55.9a1.417,1.417,0,0,1,1.5-1.5H70.6a1.417,1.417,0,0,1,1.5,1.5V68.05A1.417,1.417,0,0,1,70.6,69.55Zm-18.3-3H69.1V57.4H52.3Z" transform="translate(-49.3 -54.4)" fill="#183651"/>
      </g>
      <g id="XMLID_18180_">
        <path id="Trazado_890111" data-name="Trazado 890111" d="M1.5,1.5H21.3V13.65H1.5Z" fill="#f06151"/>
        <path id="Trazado_890112" data-name="Trazado 890112" d="M21.8,15.65H2a1.417,1.417,0,0,1-1.5-1.5V2A1.417,1.417,0,0,1,2,.5H21.8A1.417,1.417,0,0,1,23.3,2V14.15A1.5,1.5,0,0,1,21.8,15.65Zm-18.3-3H20.3V3.5H3.5Z" transform="translate(-0.5 -0.5)" fill="#183651"/>
      </g>
    </g>
  </g>
</svg>
