<svg xmlns="http://www.w3.org/2000/svg" width="78" height="78" viewBox="0 0 78 78">
  <g id="Grupo_1102931" data-name="Grupo 1102931" transform="translate(0 0)">
    <g id="Grupo_1095345" data-name="Grupo 1095345" transform="translate(0 0)">
      <path id="Trazado_875520" data-name="Trazado 875520" d="M39,0A39,39,0,1,1,0,39,39,39,0,0,1,39,0Z" fill="#d6e1fd"/>
    </g>
    <g id="scientist_4829628" transform="translate(-50.191 10.265)">
      <g id="Grupo_1102933" data-name="Grupo 1102933" transform="translate(70.522 0.779)">
        <path id="Trazado_884917" data-name="Trazado 884917" d="M125.918,337.229h-3.055V336.3a.835.835,0,0,0-.835-.835H111.584a.835.835,0,0,0-.835.835v.931H107.89a5.431,5.431,0,0,0-5.431,5.431v10.453l.215-.6h5.237l.485.6h22.953V342.66A5.431,5.431,0,0,0,125.918,337.229Z" transform="translate(-99.825 -301.204)" fill="#ff9811"/>
        <path id="Trazado_884918" data-name="Trazado 884918" d="M77.407,319.258a.664.664,0,0,0-.168.443v7.321h1.8v-5.809a2.178,2.178,0,0,0-1.218-1.954Z" transform="translate(-77.239 -286.692)" fill="#ffb09e"/>
        <path id="Trazado_884919" data-name="Trazado 884919" d="M79.353,317.095a.666.666,0,0,0-.5.226,2.178,2.178,0,0,1,1.218,1.954v5.809h1.462v-5.809A2.18,2.18,0,0,0,79.353,317.095Z" transform="translate(-78.684 -284.755)" fill="#f89580"/>
        <path id="Trazado_884920" data-name="Trazado 884920" d="M106.126,278.988a2.132,2.132,0,0,0,1.194-1.913V262.106a.627.627,0,0,0-.627-.627h-1.552a.627.627,0,0,0-.627.627v14.969a2.13,2.13,0,0,0,1.194,1.913Z" transform="translate(-101.665 -234.948)" fill="#d5daf3"/>
        <path id="Trazado_884921" data-name="Trazado 884921" d="M111.94,24.41h14.088V7.5A14.088,14.088,0,0,0,111.94,21.588Z" transform="translate(-108.316 -7.496)" fill="#5a5a5a"/>
        <path id="Trazado_884922" data-name="Trazado 884922" d="M349.025,206.914H346.8v13.258a5.7,5.7,0,0,0,5.7,5.7h1.083a1.142,1.142,0,0,0,1.142-1.142V212.619A5.705,5.705,0,0,0,349.025,206.914Z" transform="translate(-318.646 -186.082)" fill="#5a5a5a"/>
        <path id="Trazado_884923" data-name="Trazado 884923" d="M360.4,206.914h-2.3a5.7,5.7,0,0,1,5.7,5.7v13.258h1.671a.627.627,0,0,0,.627-.627V212.619A5.705,5.705,0,0,0,360.4,206.914Z" transform="translate(-328.769 -186.082)" fill="#444"/>
        <path id="Trazado_884924" data-name="Trazado 884924" d="M100.288,165.882H94.316a4.158,4.158,0,0,1-4.158-4.158V161.7a4.158,4.158,0,0,1,4.158-4.158h5.972Z" transform="translate(-88.809 -141.866)" fill="#ffb09e"/>
        <path id="Trazado_884925" data-name="Trazado 884925" d="M308.367,157.542h5.972A4.158,4.158,0,0,1,318.5,161.7v.026a4.158,4.158,0,0,1-4.158,4.158h-5.972Z" transform="translate(-284.227 -141.867)" fill="#f89580"/>
        <path id="Trazado_884926" data-name="Trazado 884926" d="M282.654,336.3v.931h2.3V336.3a.835.835,0,0,0-.835-.835h-2.3A.835.835,0,0,1,282.654,336.3Z" transform="translate(-260.452 -301.204)" fill="#c8770d"/>
        <path id="Trazado_884927" data-name="Trazado 884927" d="M321.362,352.379h-2.3a5.431,5.431,0,0,1,5.431,5.431v10.453h2.3V357.81A5.431,5.431,0,0,0,321.362,352.379Z" transform="translate(-293.807 -316.354)" fill="#c8770d"/>
        <path id="Trazado_884928" data-name="Trazado 884928" d="M142.005,88.49A12.245,12.245,0,0,0,153.38,76.277v-4.34a11.72,11.72,0,1,0-23.419.013v4.34A12.171,12.171,0,0,0,142.005,88.49Z" transform="translate(-124.454 -54.276)" fill="#ffcebf"/>
        <path id="Trazado_884929" data-name="Trazado 884929" d="M237.444,59.462a12.245,12.245,0,0,1,11.209,12.2V76a12.245,12.245,0,0,1-11.375,12.213,12.254,12.254,0,0,0,13.364-12.2v-4.34A12.252,12.252,0,0,0,237.444,59.462Z" transform="translate(-220.563 -54.002)" fill="#ffb09e"/>
        <g id="Grupo_1102932" data-name="Grupo 1102932" transform="translate(8.453 25.144)">
          <path id="Trazado_884930" data-name="Trazado 884930" d="M303.4,249.822h-2.02a.813.813,0,0,1,0-1.626h2.02a.813.813,0,0,1,0,1.626Z" transform="translate(-285.695 -248.196)" fill="#fe8f83"/>
          <path id="Trazado_884931" data-name="Trazado 884931" d="M161,249.822h-2.02a.813.813,0,0,1,0-1.626H161a.813.813,0,1,1,0,1.626Z" transform="translate(-158.168 -248.196)" fill="#fe8f83"/>
        </g>
        <path id="Trazado_884932" data-name="Trazado 884932" d="M171.167,63.07a9.839,9.839,0,0,0,9.755,8.561h9.222C190.144,63.068,179.344,56.116,171.167,63.07Z" transform="translate(-161.357 -54.717)" fill="#ffb09e"/>
        <path id="Trazado_884933" data-name="Trazado 884933" d="M190.378,9.562v5.783a9.837,9.837,0,0,0,9.837,9.837h9.222v-2.7C209.437,12.641,199.4,5.4,190.378,9.562Z" transform="translate(-178.561 -8.268)" fill="#5a5a5a"/>
        <path id="Trazado_884934" data-name="Trazado 884934" d="M237.861,7.5a14.207,14.207,0,0,1,13.264,14.175v2.7H252.9a.522.522,0,0,0,.522-.522V21.671A14.247,14.247,0,0,0,237.861,7.5Z" transform="translate(-221.085 -7.46)" fill="#444"/>
        <path id="Trazado_884935" data-name="Trazado 884935" d="M118.392,261.48h-1.88a.627.627,0,0,1,.627.627v14.969a2.132,2.132,0,0,1-1.194,1.913,2.13,2.13,0,0,0,3.074-1.913V262.107A.626.626,0,0,0,118.392,261.48Z" transform="translate(-111.902 -234.949)" fill="#bec6ed"/>
        <path id="Trazado_884936" data-name="Trazado 884936" d="M95.986,410.3H90.867l-.409,9.834h5.937Z" transform="translate(-89.077 -368.226)" fill="#ffcebf"/>
        <path id="Trazado_884937" data-name="Trazado 884937" d="M139.264,410.3h-1.88l.409,9.834h1.88Z" transform="translate(-131.102 -368.226)" fill="#ffb09e"/>
        <path id="Trazado_884938" data-name="Trazado 884938" d="M84.071,352.472H79.119a1.88,1.88,0,0,0-1.88,1.88v6.205a1.88,1.88,0,0,0,1.88,1.88h5.192v-.017a1.879,1.879,0,0,0,1.642-1.863v-6.205A1.88,1.88,0,0,0,84.071,352.472Z" transform="translate(-77.239 -316.437)" fill="#ffcebf"/>
        <path id="Trazado_884939" data-name="Trazado 884939" d="M138.532,352.472h-1.88a1.88,1.88,0,0,1,1.88,1.88v6.205a1.879,1.879,0,0,1-1.642,1.863v.017h1.64a1.88,1.88,0,0,0,1.88-1.88v-6.205A1.88,1.88,0,0,0,138.532,352.472Z" transform="translate(-130.447 -316.437)" fill="#ffb09e"/>
      </g>
      <g id="Grupo_1102934" data-name="Grupo 1102934" transform="translate(69.739 0)">
        <path id="Trazado_884940" data-name="Trazado 884940" d="M221.275,254.48a.783.783,0,0,0-.783.783,1.84,1.84,0,0,1-3.653,0,.783.783,0,0,0-1.567,0,3.4,3.4,0,0,0,6.786,0A.783.783,0,0,0,221.275,254.48Z" transform="translate(-200.072 -227.901)"/>
        <path id="Trazado_884941" data-name="Trazado 884941" d="M298.42,193.054a.783.783,0,0,0,.783-.783V190.78a.783.783,0,0,0-.137-1.555h-.647a.783.783,0,0,0-.783.783v2.263A.783.783,0,0,0,298.42,193.054Z" transform="translate(-273.834 -169.461)"/>
        <path id="Trazado_884942" data-name="Trazado 884942" d="M178.115,189.225h-.647a.783.783,0,0,0-.137,1.555v1.491a.783.783,0,0,0,1.567,0v-2.263A.783.783,0,0,0,178.115,189.225Z" transform="translate(-165.515 -169.461)"/>
        <path id="Trazado_884943" data-name="Trazado 884943" d="M105.452,21.729a4.937,4.937,0,0,0-1.808-5.033V14.99A15,15,0,0,0,88.685,0h-.029a14.933,14.933,0,0,0-6.645,1.362l0,0a14.867,14.867,0,0,0-3.883,2.6A.783.783,0,0,0,79.19,5.115a13.327,13.327,0,0,1,2.366-1.753V7.288A13.049,13.049,0,0,0,75.53,15.7c-.2.02-.5.074-.6.1v-.923a13.26,13.26,0,0,1,2.057-7.109.783.783,0,1,0-1.323-.839,14.824,14.824,0,0,0-2.3,7.948v1.584a4.94,4.94,0,0,0-2.275,4.157v.026a4.948,4.948,0,0,0,4.451,4.916q.106.491.251.973H74a1.412,1.412,0,0,0-1.41,1.41v4.75a2.945,2.945,0,0,0-1.4-.351,1.454,1.454,0,0,0-1.452,1.452V44.9a2.667,2.667,0,0,0,1.6,2.442l-.221,5.314a.784.784,0,0,0,.783.816H95.821a.783.783,0,1,0,0-1.567H79.845l-.19-4.557a2.668,2.668,0,0,0,1.609-2.267c.011-.166.007.393.007-6.387a2.692,2.692,0,0,0-.241-1.106h.416a.783.783,0,0,0,.783-.783v-.931a.052.052,0,0,1,.052-.052H94.187a.052.052,0,0,1,.052.052V36.8a.783.783,0,0,0,.783.783h3.054a4.654,4.654,0,0,1,4.647,4.647V51.9H99.482a.783.783,0,0,0,0,1.567h4.026a.783.783,0,0,0,.783-.783V42.235a6.226,6.226,0,0,0-.064-.883c.546.014,1.388.007,3.006.006a1.412,1.412,0,0,0,1.409-1.41V27.316a6.508,6.508,0,0,0-3.191-5.587ZM88.126,34.254a11.427,11.427,0,0,1-9.7-5.6v-.717a1.418,1.418,0,0,0-.961-1.337,11.538,11.538,0,0,1-.648-3.766c0-.014,0-.028,0-.042V18.6c0-.373.012-.663.026-.915A11.466,11.466,0,0,1,81.63,9.113,10.645,10.645,0,0,0,89.356,18.1a1.962,1.962,0,0,0-.165.788v1.577H87.474V18.884A1.976,1.976,0,0,0,85.5,16.91H80.026a1.976,1.976,0,0,0-1.974,1.974V23.6a1.976,1.976,0,0,0,1.974,1.974H85.5A1.976,1.976,0,0,0,87.474,23.6V22.028H89.19V23.6a1.976,1.976,0,0,0,1.974,1.974h5.475A1.976,1.976,0,0,0,98.613,23.6V18.884a1.975,1.975,0,0,0-.043-.407h1.248c0,4.117.008,4.451-.026,5.064A11.46,11.46,0,0,1,88.126,34.254Zm8.92-15.37V23.6a.408.408,0,0,1-.407.407H91.164a.408.408,0,0,1-.407-.407V18.884a.408.408,0,0,1,.407-.407h5.475A.408.408,0,0,1,97.046,18.884ZM85.907,23.6a.408.408,0,0,1-.407.407H80.026a.408.408,0,0,1-.407-.407V18.884a.408.408,0,0,1,.407-.407H85.5a.408.408,0,0,1,.407.407Zm18.1-2.967a3.352,3.352,0,0,1-2.672,3.279c.052-.655.047-1.09.047-1.319.009-.847,0-2.036,0-4.122h.954a1.317,1.317,0,0,0,.718-.215,3.356,3.356,0,0,1,.954,2.351v.026ZM88.683,1.567A13.435,13.435,0,0,1,102.077,14.99v1.92h-9.9a9.069,9.069,0,0,1-8.912-7.453c-.186-1.037-.142-1.258-.142-6.874a13.418,13.418,0,0,1,5.533-1.017ZM75.3,23.931a3.38,3.38,0,0,1-2.64-3.294v-.026a3.378,3.378,0,0,1,1.867-3.018,3.321,3.321,0,0,1,.771-.275c-.049.608-.055.879-.05,3.412,0,2.293-.011,2.458.051,3.184,0,.005,0,.011,0,.016Zm-1.141,4.162h2.7V36.03h-2.7V28.093Zm-2.849,5.813A1.4,1.4,0,0,1,72.588,35.3v.732a2.824,2.824,0,0,0-1.282.236Zm0,4.787a1.1,1.1,0,0,1,1.1-1.1h6.205a1.1,1.1,0,0,1,1.1,1.1V44.9h0a1.1,1.1,0,0,1-1.1,1.1c-6.783,0-6.217.005-6.364-.013a1.1,1.1,0,0,1-.938-1.084V38.694ZM72.9,47.562h5.2c.07,1.681.122,2.932.181,4.343H72.72Zm7.762-11.69v.148H79.27c-.519,0-.727,0-.847,0V31.314a13.03,13.03,0,0,0,3.7,2.948,1.621,1.621,0,0,0-1.464,1.611Zm13.843-1.587a13.048,13.048,0,0,0,3.388-2.617v3.2a6.491,6.491,0,0,0,.1,1.152h-2.19v-.148A1.621,1.621,0,0,0,94.505,34.286Zm12.571,5.505c-2.245,0-2.868.014-3.3-.036a6.247,6.247,0,0,0-4.125-3.532,4.9,4.9,0,0,1-.189-1.354V29.611a12.872,12.872,0,0,0,1.633-4.067,4.892,4.892,0,0,0,3.768-2.337,4.936,4.936,0,0,1,2.215,4.109Z" transform="translate(-69.739 0)"/>
      </g>
    </g>
  </g>
</svg>
