<svg xmlns="http://www.w3.org/2000/svg" width="453.285" height="872.569" viewBox="0 0 453.285 872.569">
  <g id="Grupo_1105374" data-name="Grupo 1105374" transform="translate(-310.857 -3011.5)">
    <g id="Grupo_1105373" data-name="Grupo 1105373" transform="translate(-39.405)">
      <path id="Unión_8" data-name="Unión 8" d="M-1516,11744.6h6.264V11712h4.474v32.6H-1499l-8.5,7.2Z" transform="translate(2125 -8592.66)" fill="#3a1d71"/>
      <rect id="Rectángulo_405347" data-name="Rectángulo 405347" width="183" height="57" transform="translate(526 3072.4)" fill="#f0c518"/>
      <path id="Trazado_891257" data-name="Trazado 891257" d="M-37.094-10.5v2.047h1.578v1.117h-1.578v5.249a1.173,1.173,0,0,0,.211.763.888.888,0,0,0,.719.254,3.5,3.5,0,0,0,.688-.094V0a4.215,4.215,0,0,1-1.109.155A1.8,1.8,0,0,1-38.047-.43a2.517,2.517,0,0,1-.492-1.664V-7.336h-1.539V-8.453h1.539V-10.5ZM-28.609,0a3.036,3.036,0,0,1-.2-.891A3.225,3.225,0,0,1-31.219.156,2.984,2.984,0,0,1-33.27-.551a2.287,2.287,0,0,1-.8-1.793,2.39,2.39,0,0,1,1-2.051,4.733,4.733,0,0,1,2.824-.73h1.406v-.664A1.623,1.623,0,0,0-29.289-7a1.821,1.821,0,0,0-1.336-.449,2.108,2.108,0,0,0-1.3.391,1.151,1.151,0,0,0-.523.945H-33.9a2,2,0,0,1,.449-1.223,3.066,3.066,0,0,1,1.219-.934,4.1,4.1,0,0,1,1.691-.344,3.342,3.342,0,0,1,2.289.73,2.635,2.635,0,0,1,.859,2.012v3.891a4.757,4.757,0,0,0,.3,1.852V0Zm-2.4-1.1a2.54,2.54,0,0,0,1.289-.352,2.127,2.127,0,0,0,.883-.914V-4.1h-1.133q-2.656,0-2.656,1.555a1.316,1.316,0,0,0,.453,1.063A1.742,1.742,0,0,0-31.008-1.1Zm7.242-7.352.039.938a3.122,3.122,0,0,1,2.508-1.094A2.417,2.417,0,0,1-18.8-7.25a3.2,3.2,0,0,1,1.1-.984,3.242,3.242,0,0,1,1.6-.375q2.781,0,2.828,2.945V0h-1.445V-5.578a1.941,1.941,0,0,0-.414-1.355,1.823,1.823,0,0,0-1.391-.449,1.916,1.916,0,0,0-1.336.48,1.949,1.949,0,0,0-.617,1.293V0h-1.453V-5.539a1.613,1.613,0,0,0-1.8-1.844,1.934,1.934,0,0,0-1.945,1.211V0h-1.445V-8.453ZM-5.883,0a3.036,3.036,0,0,1-.2-.891A3.225,3.225,0,0,1-8.492.156a2.984,2.984,0,0,1-2.051-.707,2.287,2.287,0,0,1-.8-1.793,2.39,2.39,0,0,1,1-2.051,4.733,4.733,0,0,1,2.824-.73h1.406v-.664A1.623,1.623,0,0,0-6.562-7,1.821,1.821,0,0,0-7.9-7.445a2.107,2.107,0,0,0-1.3.391,1.151,1.151,0,0,0-.523.945h-1.453a2,2,0,0,1,.449-1.223A3.066,3.066,0,0,1-9.5-8.266a4.1,4.1,0,0,1,1.691-.344,3.342,3.342,0,0,1,2.289.73,2.635,2.635,0,0,1,.859,2.012v3.891a4.757,4.757,0,0,0,.3,1.852V0Zm-2.4-1.1a2.54,2.54,0,0,0,1.289-.352,2.127,2.127,0,0,0,.883-.914V-4.1H-7.242Q-9.9-4.1-9.9-2.547a1.316,1.316,0,0,0,.453,1.063A1.742,1.742,0,0,0-8.281-1.1Zm7.25-7.352.047,1.063A3.08,3.08,0,0,1,1.547-8.609q2.68,0,2.7,3.023V0H2.8V-5.594a1.946,1.946,0,0,0-.418-1.352,1.675,1.675,0,0,0-1.277-.437,2.086,2.086,0,0,0-1.234.375,2.546,2.546,0,0,0-.828.984V0H-2.4V-8.453Zm4.781-3.3a1.942,1.942,0,0,1-.48,1.367,1.561,1.561,0,0,1-1.2.523,1.76,1.76,0,0,1-.555-.078,2.993,2.993,0,0,1-.613-.32,2.656,2.656,0,0,0-.547-.293A1.338,1.338,0,0,0-.031-10.6a.717.717,0,0,0-.547.246A.892.892,0,0,0-.8-9.727l-.969-.055A2.039,2.039,0,0,1-1.3-11.164a1.516,1.516,0,0,1,1.2-.547,1.457,1.457,0,0,1,.492.078,3.587,3.587,0,0,1,.594.3,3.494,3.494,0,0,0,.574.3,1.319,1.319,0,0,0,.441.07.7.7,0,0,0,.559-.266.932.932,0,0,0,.223-.617ZM6.047-4.3a4.993,4.993,0,0,1,.488-2.234A3.643,3.643,0,0,1,7.895-8.07a3.7,3.7,0,0,1,1.988-.539,3.565,3.565,0,0,1,2.793,1.2,4.6,4.6,0,0,1,1.066,3.18v.1a5.036,5.036,0,0,1-.473,2.215A3.589,3.589,0,0,1,11.918-.391,3.743,3.743,0,0,1,9.9.156a3.556,3.556,0,0,1-2.785-1.2A4.575,4.575,0,0,1,6.047-4.2ZM7.5-4.133a3.616,3.616,0,0,0,.652,2.258A2.088,2.088,0,0,0,9.9-1.023a2.075,2.075,0,0,0,1.75-.863A3.955,3.955,0,0,0,12.3-4.3a3.61,3.61,0,0,0-.66-2.254,2.1,2.1,0,0,0-1.754-.863,2.075,2.075,0,0,0-1.727.852A3.925,3.925,0,0,0,7.5-4.133ZM26.125-6.359H19.609V-7.617h6.516Zm0,3.242H19.609v-1.25h6.516ZM32.773-5.7l.578-5.672H39.18v1.336h-4.6l-.344,3.1a3.671,3.671,0,0,1,1.9-.492A3.138,3.138,0,0,1,38.6-6.4a4.026,4.026,0,0,1,.914,2.777,3.886,3.886,0,0,1-.949,2.77A3.46,3.46,0,0,1,35.914.156,3.6,3.6,0,0,1,33.453-.68a3.337,3.337,0,0,1-1.086-2.312h1.367a2.3,2.3,0,0,0,.7,1.473,2.162,2.162,0,0,0,1.484.5A1.95,1.95,0,0,0,37.5-1.711a2.874,2.874,0,0,0,.574-1.9,2.638,2.638,0,0,0-.621-1.832A2.113,2.113,0,0,0,35.8-6.133a2.383,2.383,0,0,0-1.484.414l-.383.313Z" transform="translate(618 3110.894)" fill="#12263f"/>
      <path id="Unión_7" data-name="Unión 7" d="M-1516,11744.6h6.264V11712h4.474v32.6H-1499l-8.5,7.2Z" transform="translate(2125 -8672.5)" fill="#3a1d71"/>
      <path id="Unión_17" data-name="Unión 17" d="M-1516,11744.6h6.264V11712h4.474v32.6H-1499l-8.5,7.2Z" transform="translate(2125 -8420.41)" fill="#3a1d71"/>
      <path id="Unión_36" data-name="Unión 36" d="M-1516,11744.6h6.264V11712h4.474v32.6H-1499l-8.5,7.2Z" transform="translate(2125 -8284)" fill="#3a1d71"/>
      <rect id="Rectángulo_405224" data-name="Rectángulo 405224" width="94" height="35" rx="17.5" transform="translate(571 3011.5)" fill="#f0c518"/>
      <path id="Trazado_891256" data-name="Trazado 891256" d="M2.93,0H1.43V-11.375h1.5ZM6.813-8.453l.047,1.063A3.08,3.08,0,0,1,9.391-8.609q2.68,0,2.7,3.023V0H10.648V-5.594a1.946,1.946,0,0,0-.418-1.352,1.675,1.675,0,0,0-1.277-.437,2.086,2.086,0,0,0-1.234.375,2.546,2.546,0,0,0-.828.984V0H5.445V-8.453ZM15.844,0H14.4V-8.453h1.445ZM14.281-10.7a.863.863,0,0,1,.215-.594.807.807,0,0,1,.637-.242.819.819,0,0,1,.641.242.854.854,0,0,1,.219.594.826.826,0,0,1-.219.586.834.834,0,0,1-.641.234.821.821,0,0,1-.637-.234A.834.834,0,0,1,14.281-10.7Zm7.266,9.672A2.082,2.082,0,0,0,22.9-1.492a1.649,1.649,0,0,0,.641-1.172h1.367a2.621,2.621,0,0,1-.5,1.383,3.293,3.293,0,0,1-1.23,1.047,3.55,3.55,0,0,1-1.629.391A3.482,3.482,0,0,1,18.8-1a4.59,4.59,0,0,1-1.02-3.152v-.242a5.089,5.089,0,0,1,.453-2.2,3.451,3.451,0,0,1,1.3-1.492,3.7,3.7,0,0,1,2-.531,3.39,3.39,0,0,1,2.363.852,3.043,3.043,0,0,1,1,2.211H23.539a1.992,1.992,0,0,0-.621-1.348,1.932,1.932,0,0,0-1.379-.527,2.023,2.023,0,0,0-1.707.793,3.724,3.724,0,0,0-.605,2.293v.273a3.65,3.65,0,0,0,.6,2.25A2.033,2.033,0,0,0,21.547-1.023ZM28.1,0H26.656V-8.453H28.1ZM26.539-10.7a.863.863,0,0,1,.215-.594.807.807,0,0,1,.637-.242.819.819,0,0,1,.641.242.854.854,0,0,1,.219.594.826.826,0,0,1-.219.586.834.834,0,0,1-.641.234.821.821,0,0,1-.637-.234A.834.834,0,0,1,26.539-10.7ZM30.031-4.3a4.993,4.993,0,0,1,.488-2.234A3.643,3.643,0,0,1,31.879-8.07a3.7,3.7,0,0,1,1.988-.539,3.565,3.565,0,0,1,2.793,1.2,4.6,4.6,0,0,1,1.066,3.18v.1a5.036,5.036,0,0,1-.473,2.215A3.589,3.589,0,0,1,35.9-.391a3.743,3.743,0,0,1-2.02.547,3.556,3.556,0,0,1-2.785-1.2A4.575,4.575,0,0,1,30.031-4.2Zm1.453.172a3.616,3.616,0,0,0,.652,2.258,2.088,2.088,0,0,0,1.746.852,2.075,2.075,0,0,0,1.75-.863A3.955,3.955,0,0,0,36.281-4.3a3.61,3.61,0,0,0-.66-2.254,2.1,2.1,0,0,0-1.754-.863,2.075,2.075,0,0,0-1.727.852A3.925,3.925,0,0,0,31.484-4.133Z" transform="translate(599 3035.5)" fill="#12263f"/>
      <text id="para_i_1_hasta_numero" data-name="para i = 1 hasta numero" transform="translate(618.499 3195.483)" fill="#12263f" font-size="16" font-family="Roboto-Regular, Roboto"><tspan x="-83.582" y="0">para i = 1 hasta numero</tspan></text>
      <path id="Unión_19" data-name="Unión 19" d="M0,230.995H4.474V0H0Z" transform="translate(386.585 3406.915) rotate(-90)" fill="#3a1d71"/>
      <path id="Unión_31" data-name="Unión 31" d="M0,0H4.474V73.548H0Z" transform="translate(386.263 3193.221) rotate(-90)" fill="#3a1d71"/>
      <path id="Unión_41" data-name="Unión 41" d="M0,0H4.474V126.51H0Z" transform="translate(350.263 3499.965) rotate(-90)" fill="#3a1d71"/>
      <path id="Unión_42" data-name="Unión 42" d="M0,0H4.474V319.078H0Z" transform="translate(431.376 3727.474) rotate(-90)" fill="#3a1d71"/>
      <path id="Unión_34" data-name="Unión 34" d="M0,73.548H4.474V0H0Z" transform="translate(723.263 3193.221) rotate(-90)" fill="#3a1d71"/>
      <path id="Unión_37" data-name="Unión 37" d="M0,73.548H4.474V0H0Z" transform="translate(730 3500.264) rotate(-90)" fill="#3a1d71"/>
      <path id="Unión_44" data-name="Unión 44" d="M0,184.737H4.474V0H0Z" transform="translate(615.263 3804.009) rotate(-90)" fill="#3a1d71"/>
      <path id="Unión_35" data-name="Unión 35" d="M0,181.231H4.474V0H0Z" transform="translate(615.579 3432.236) rotate(-90)" fill="#3a1d71"/>
      <rect id="Rectángulo_405355" data-name="Rectángulo 405355" width="4.474" height="275.544" transform="translate(354.736 3773.571) rotate(180)" fill="#3a1d71"/>
      <rect id="Rectángulo_405412" data-name="Rectángulo 405412" width="4.474" height="218.168" transform="translate(390.736 3406.915) rotate(180)" fill="#3a1d71"/>
      <rect id="Rectángulo_405416" data-name="Rectángulo 405416" width="4.474" height="241.253" transform="translate(792.337 3188.747)" fill="#3a1d71"/>
      <rect id="Rectángulo_405420" data-name="Rectángulo 405420" width="4.474" height="308.217" transform="translate(799.074 3495.791)" fill="#3a1d71"/>
      <path id="Polígono_41" data-name="Polígono 41" d="M6.2,0l6.2,7.2H0Z" transform="translate(463.82 3184.787) rotate(90)" fill="#3a1d71"/>
      <path id="Polígono_46" data-name="Polígono 46" d="M6.2,0l6.2,7.2H0Z" transform="translate(466.82 3491.532) rotate(90)" fill="#3a1d71"/>
      <path id="Polígono_47" data-name="Polígono 47" d="M6.2,0l6.2,7.2H0Z" transform="translate(719.664 3607.496) rotate(-90)" fill="#3a1d71"/>
      <path id="Trazado_890908" data-name="Trazado 890908" d="M2585.617-8949v-54.813h121.328V-8949s1.878,6.794-28.454,6.794c-14.984,0-40.12-10.05-59.708-11.754C2599.339-8955.657,2585.617-8949,2585.617-8949Z" transform="translate(-2027.793 12252.309)" fill="#f0c518"/>
      <path id="Trazado_891259" data-name="Trazado 891259" d="M-37.024-10.254l-.22,2.622h-.813l.007-3.618h1.025Zm1.978,0-.22,2.622h-.813l.007-3.618h1.025ZM-31.509,0h-1.406V-10.664h1.406Zm3.64-7.925.044,1a2.888,2.888,0,0,1,2.373-1.143q2.512,0,2.534,2.834V0h-1.355V-5.244a1.824,1.824,0,0,0-.392-1.267,1.57,1.57,0,0,0-1.2-.41,1.956,1.956,0,0,0-1.157.352,2.387,2.387,0,0,0-.776.923V0H-29.15V-7.925Zm6.672,3.9a4.658,4.658,0,0,1,.857-2.948,2.741,2.741,0,0,1,2.271-1.095,2.726,2.726,0,0,1,2.263,1.025l.066-.879H-14.5V-.19a3.224,3.224,0,0,1-.912,2.424,3.365,3.365,0,0,1-2.45.886,4.076,4.076,0,0,1-1.677-.366,2.887,2.887,0,0,1-1.252-1l.7-.813a2.65,2.65,0,0,0,2.131,1.077,2.076,2.076,0,0,0,1.542-.557A2.128,2.128,0,0,0-15.864-.11V-.791a2.785,2.785,0,0,1-2.219.938A2.707,2.707,0,0,1-20.336-.974,4.9,4.9,0,0,1-21.2-4.028Zm1.362.154a3.553,3.553,0,0,0,.549,2.106A1.785,1.785,0,0,0-17.747-1a1.985,1.985,0,0,0,1.882-1.165V-5.786a2.008,2.008,0,0,0-1.868-1.135,1.8,1.8,0,0,0-1.545.769A3.87,3.87,0,0,0-19.834-3.875ZM-8.628-6.709a4.061,4.061,0,0,0-.667-.051A1.786,1.786,0,0,0-11.1-5.625V0h-1.355V-7.925h1.318l.022.916a2.11,2.11,0,0,1,1.89-1.062,1.384,1.384,0,0,1,.6.1ZM-4.233.146A3.463,3.463,0,0,1-6.855-.912,3.928,3.928,0,0,1-7.866-3.743v-.249A4.756,4.756,0,0,1-7.416-6.1a3.514,3.514,0,0,1,1.26-1.45A3.167,3.167,0,0,1-4.4-8.071,2.968,2.968,0,0,1-2-7.053a4.408,4.408,0,0,1,.857,2.915v.564H-6.511a2.817,2.817,0,0,0,.685,1.893A2.153,2.153,0,0,0-4.16-.959a2.36,2.36,0,0,0,1.216-.293,3.055,3.055,0,0,0,.872-.776l.828.645A3.328,3.328,0,0,1-4.233.146Zm-.168-7.1a1.807,1.807,0,0,0-1.377.6,2.9,2.9,0,0,0-.688,1.674H-2.5v-.1a2.581,2.581,0,0,0-.557-1.6A1.7,1.7,0,0,0-4.4-6.958ZM5.039-2.1a1,1,0,0,0-.414-.853,3.983,3.983,0,0,0-1.443-.524,6.822,6.822,0,0,1-1.633-.527,2.324,2.324,0,0,1-.894-.732A1.752,1.752,0,0,1,.366-5.75,2.056,2.056,0,0,1,1.19-7.4,3.218,3.218,0,0,1,3.3-8.071a3.311,3.311,0,0,1,2.186.7A2.21,2.21,0,0,1,6.321-5.6H4.958a1.223,1.223,0,0,0-.472-.959,1.77,1.77,0,0,0-1.19-.4,1.852,1.852,0,0,0-1.157.322,1.014,1.014,0,0,0-.417.842.822.822,0,0,0,.388.74,4.776,4.776,0,0,0,1.4.476,7.308,7.308,0,0,1,1.644.542,2.4,2.4,0,0,1,.934.758,1.864,1.864,0,0,1,.3,1.08,2.028,2.028,0,0,1-.85,1.7,3.564,3.564,0,0,1-2.2.641A3.991,3.991,0,0,1,1.655-.19,2.74,2.74,0,0,1,.509-1.132,2.268,2.268,0,0,1,.1-2.439H1.45A1.4,1.4,0,0,0,2-1.359a2.117,2.117,0,0,0,1.344.4,2.185,2.185,0,0,0,1.234-.311A.956.956,0,0,0,5.039-2.1ZM11.448.146A3.463,3.463,0,0,1,8.826-.912,3.928,3.928,0,0,1,7.815-3.743v-.249A4.756,4.756,0,0,1,8.265-6.1a3.514,3.514,0,0,1,1.26-1.45,3.167,3.167,0,0,1,1.754-.524,2.968,2.968,0,0,1,2.4,1.018,4.408,4.408,0,0,1,.857,2.915v.564H9.17a2.817,2.817,0,0,0,.685,1.893,2.153,2.153,0,0,0,1.666.721,2.36,2.36,0,0,0,1.216-.293,3.055,3.055,0,0,0,.872-.776l.828.645A3.328,3.328,0,0,1,11.448.146Zm-.168-7.1a1.807,1.807,0,0,0-1.377.6,2.9,2.9,0,0,0-.688,1.674h3.97v-.1a2.581,2.581,0,0,0-.557-1.6A1.7,1.7,0,0,0,11.279-6.958ZM24.712-.784a2.878,2.878,0,0,1-2.322.93A2.464,2.464,0,0,1,20.46-.59a3.186,3.186,0,0,1-.67-2.179V-7.925h1.355v5.12q0,1.8,1.465,1.8a2.028,2.028,0,0,0,2.065-1.157V-7.925H26.03V0H24.741ZM29.37-7.925l.044,1a2.888,2.888,0,0,1,2.373-1.143q2.512,0,2.534,2.834V0H32.966V-5.244a1.824,1.824,0,0,0-.392-1.267,1.57,1.57,0,0,0-1.2-.41,1.956,1.956,0,0,0-1.157.352,2.387,2.387,0,0,0-.776.923V0H28.088V-7.925Zm-77.659,16,.044,1a2.888,2.888,0,0,1,2.373-1.143q2.512,0,2.534,2.834V16h-1.355V10.756a1.824,1.824,0,0,0-.392-1.267,1.57,1.57,0,0,0-1.2-.41,1.956,1.956,0,0,0-1.157.352,2.387,2.387,0,0,0-.776.923V16H-49.57V8.075ZM-36.4,15.216a2.878,2.878,0,0,1-2.322.93,2.464,2.464,0,0,1-1.93-.736,3.186,3.186,0,0,1-.67-2.179V8.075h1.355v5.12q0,1.8,1.465,1.8a2.028,2.028,0,0,0,2.065-1.157V8.075h1.355V16h-1.289ZM-37.5,4.765h1.641l-1.963,2.153-1.091,0Zm5.75,3.311.037.879a2.927,2.927,0,0,1,2.351-1.025A2.266,2.266,0,0,1-27.1,9.2a3,3,0,0,1,1.029-.923,3.039,3.039,0,0,1,1.5-.352q2.607,0,2.651,2.761V16h-1.355V10.771A1.82,1.82,0,0,0-23.665,9.5a1.71,1.71,0,0,0-1.3-.421,1.8,1.8,0,0,0-1.252.45,1.827,1.827,0,0,0-.579,1.212V16h-1.362V10.807a1.512,1.512,0,0,0-1.692-1.729,1.813,1.813,0,0,0-1.824,1.135V16h-1.355V8.075Zm15.161,8.071a3.463,3.463,0,0,1-2.622-1.058,3.928,3.928,0,0,1-1.011-2.831v-.249a4.756,4.756,0,0,1,.45-2.106,3.514,3.514,0,0,1,1.26-1.45,3.167,3.167,0,0,1,1.754-.524,2.968,2.968,0,0,1,2.4,1.018,4.408,4.408,0,0,1,.857,2.915v.564h-5.369a2.817,2.817,0,0,0,.685,1.893,2.153,2.153,0,0,0,1.666.721,2.36,2.36,0,0,0,1.216-.293,3.055,3.055,0,0,0,.872-.776l.828.645A3.328,3.328,0,0,1-16.589,16.146Zm-.168-7.1a1.807,1.807,0,0,0-1.377.6,2.9,2.9,0,0,0-.688,1.674h3.97v-.1a2.581,2.581,0,0,0-.557-1.6A1.7,1.7,0,0,0-16.758,9.042Zm8.657.249a4.06,4.06,0,0,0-.667-.051,1.786,1.786,0,0,0-1.809,1.135V16h-1.355V8.075h1.318l.022.916A2.11,2.11,0,0,1-8.7,7.929a1.384,1.384,0,0,1,.6.1Zm.74,2.673A4.681,4.681,0,0,1-6.9,9.87,3.415,3.415,0,0,1-5.629,8.434a3.469,3.469,0,0,1,1.864-.505A3.342,3.342,0,0,1-1.146,9.049a4.311,4.311,0,0,1,1,2.981v.1A4.722,4.722,0,0,1-.59,14.2a3.365,3.365,0,0,1-1.267,1.432,3.509,3.509,0,0,1-1.893.513,3.334,3.334,0,0,1-2.611-1.121,4.29,4.29,0,0,1-1-2.966ZM-6,12.125a3.39,3.39,0,0,0,.612,2.117,1.957,1.957,0,0,0,1.637.8,1.945,1.945,0,0,0,1.641-.809A3.707,3.707,0,0,0-1.5,11.964,3.384,3.384,0,0,0-2.12,9.851a1.968,1.968,0,0,0-1.644-.809,1.946,1.946,0,0,0-1.619.8A3.68,3.68,0,0,0-6,12.125ZM8.555,16.146a3.463,3.463,0,0,1-2.622-1.058,3.928,3.928,0,0,1-1.011-2.831v-.249A4.756,4.756,0,0,1,5.372,9.9a3.514,3.514,0,0,1,1.26-1.45,3.167,3.167,0,0,1,1.754-.524,2.968,2.968,0,0,1,2.4,1.018,4.408,4.408,0,0,1,.857,2.915v.564H6.277a2.817,2.817,0,0,0,.685,1.893,2.153,2.153,0,0,0,1.666.721,2.36,2.36,0,0,0,1.216-.293,3.055,3.055,0,0,0,.872-.776l.828.645A3.328,3.328,0,0,1,8.555,16.146Zm-.168-7.1a1.807,1.807,0,0,0-1.377.6,2.9,2.9,0,0,0-.688,1.674h3.97v-.1a2.581,2.581,0,0,0-.557-1.6A1.7,1.7,0,0,0,8.386,9.042Zm6.108-.967.044,1a2.888,2.888,0,0,1,2.373-1.143q2.512,0,2.534,2.834V16H18.091V10.756A1.824,1.824,0,0,0,17.7,9.489a1.57,1.57,0,0,0-1.2-.41,1.956,1.956,0,0,0-1.157.352,2.387,2.387,0,0,0-.776.923V16H13.213V8.075Zm8.833-1.919V8.075h1.479V9.123H23.328v4.921a1.1,1.1,0,0,0,.2.715A.832.832,0,0,0,24.2,15a3.281,3.281,0,0,0,.645-.088V16a3.951,3.951,0,0,1-1.04.146,1.687,1.687,0,0,1-1.37-.549,2.36,2.36,0,0,1-.461-1.56V9.123H20.53V8.075h1.443V6.156Zm6.35,9.99a3.463,3.463,0,0,1-2.622-1.058,3.928,3.928,0,0,1-1.011-2.831v-.249A4.756,4.756,0,0,1,26.5,9.9a3.514,3.514,0,0,1,1.26-1.45,3.167,3.167,0,0,1,1.754-.524,2.968,2.968,0,0,1,2.4,1.018,4.408,4.408,0,0,1,.857,2.915v.564H27.4a2.817,2.817,0,0,0,.685,1.893,2.153,2.153,0,0,0,1.666.721,2.36,2.36,0,0,0,1.216-.293,3.055,3.055,0,0,0,.872-.776l.828.645A3.328,3.328,0,0,1,29.678,16.146Zm-.168-7.1a1.807,1.807,0,0,0-1.377.6,2.9,2.9,0,0,0-.688,1.674h3.97v-.1a2.581,2.581,0,0,0-.557-1.6A1.7,1.7,0,0,0,29.509,9.042Zm8.657.249A4.06,4.06,0,0,0,37.5,9.24a1.786,1.786,0,0,0-1.809,1.135V16H34.336V8.075h1.318l.022.916a2.11,2.11,0,0,1,1.89-1.062,1.384,1.384,0,0,1,.6.1Zm.74,2.673a4.681,4.681,0,0,1,.458-2.095,3.415,3.415,0,0,1,1.274-1.436A3.469,3.469,0,0,1,42.5,7.929a3.342,3.342,0,0,1,2.618,1.121,4.311,4.311,0,0,1,1,2.981v.1a4.722,4.722,0,0,1-.443,2.076,3.365,3.365,0,0,1-1.267,1.432,3.509,3.509,0,0,1-1.893.513,3.334,3.334,0,0,1-2.611-1.121,4.29,4.29,0,0,1-1-2.966Zm1.362.161a3.39,3.39,0,0,0,.612,2.117,2.072,2.072,0,0,0,3.278-.011,3.707,3.707,0,0,0,.608-2.267,3.384,3.384,0,0,0-.619-2.113A1.968,1.968,0,0,0,42.5,9.042a1.946,1.946,0,0,0-1.619.8A3.68,3.68,0,0,0,40.269,12.125Zm7.559-6.379-.22,2.622h-.813L46.8,4.75h1.025Zm1.978,0-.22,2.622h-.813l.007-3.618H49.8Z" transform="translate(618.824 3274.49)" fill="#12263f"/>
      <path id="Unión_32" data-name="Unión 32" d="M0,127.739H4.474V0H0Z" transform="translate(433.289 3603.773) rotate(-90)" fill="#3a1d71"/>
      <path id="Unión_43" data-name="Unión 43" d="M0,27.19H4.474V0H0Z" transform="translate(723.264 3603.773) rotate(-90)" fill="#3a1d71"/>
      <path id="Unión_40" data-name="Unión 40" d="M0,267.236H4.474V0H0Z" transform="translate(350.264 3774.808) rotate(-90)" fill="#3a1d71"/>
      <rect id="Rectángulo_405410" data-name="Rectángulo 405410" width="4.474" height="29.517" transform="translate(435.85 3628.816) rotate(180)" fill="#3a1d71"/>
      <path id="Polígono_42" data-name="Polígono 42" d="M6.2,0l6.2,7.2H0Z" transform="translate(439.809 3633.627) rotate(180)" fill="#3a1d71"/>
      <path id="Trazado_890910" data-name="Trazado 890910" d="M2346.072-9265.836l98.857-41.749-98.857-42.017-91.7,42.017Z" transform="translate(-1728.651 12909.238)" fill="#f0c518"/>
      <path id="Trazado_891262" data-name="Trazado 891262" d="M2.664,0H1.219V-12H2.664ZM6.547,0H5.1V-8.453H6.547ZM4.984-10.7a.863.863,0,0,1,.215-.594.807.807,0,0,1,.637-.242.819.819,0,0,1,.641.242A.854.854,0,0,1,6.7-10.7a.826.826,0,0,1-.219.586.834.834,0,0,1-.641.234.821.821,0,0,1-.637-.234A.834.834,0,0,1,4.984-10.7Zm8.8,8.453a1.064,1.064,0,0,0-.441-.91A4.249,4.249,0,0,0,11.8-3.711a7.277,7.277,0,0,1-1.742-.562,2.479,2.479,0,0,1-.953-.781A1.869,1.869,0,0,1,8.8-6.133a2.193,2.193,0,0,1,.879-1.758,3.432,3.432,0,0,1,2.246-.719,3.532,3.532,0,0,1,2.332.742,2.357,2.357,0,0,1,.895,1.9H13.7a1.3,1.3,0,0,0-.5-1.023,1.888,1.888,0,0,0-1.27-.43,1.976,1.976,0,0,0-1.234.344,1.082,1.082,0,0,0-.445.9.877.877,0,0,0,.414.789,5.1,5.1,0,0,0,1.5.508,7.8,7.8,0,0,1,1.754.578,2.558,2.558,0,0,1,1,.809,1.988,1.988,0,0,1,.324,1.152A2.163,2.163,0,0,1,14.32-.527a3.8,3.8,0,0,1-2.352.684,4.257,4.257,0,0,1-1.8-.359,2.922,2.922,0,0,1-1.223-1A2.42,2.42,0,0,1,8.508-2.6H9.953a1.5,1.5,0,0,0,.582,1.152,2.258,2.258,0,0,0,1.434.426,2.331,2.331,0,0,0,1.316-.332A1.02,1.02,0,0,0,13.781-2.242ZM19.07-10.5v2.047h1.578v1.117H19.07v5.249a1.173,1.173,0,0,0,.211.763A.888.888,0,0,0,20-1.07a3.5,3.5,0,0,0,.688-.094V0a4.215,4.215,0,0,1-1.109.155A1.8,1.8,0,0,1,18.117-.43a2.517,2.517,0,0,1-.492-1.664V-7.336H16.086V-8.453h1.539V-10.5ZM27.555,0a3.036,3.036,0,0,1-.2-.891A3.225,3.225,0,0,1,24.945.156a2.984,2.984,0,0,1-2.051-.707,2.287,2.287,0,0,1-.8-1.793,2.39,2.39,0,0,1,1-2.051,4.733,4.733,0,0,1,2.824-.73h1.406v-.664A1.623,1.623,0,0,0,26.875-7a1.821,1.821,0,0,0-1.336-.449,2.108,2.108,0,0,0-1.3.391,1.151,1.151,0,0,0-.523.945H22.266a2,2,0,0,1,.449-1.223,3.066,3.066,0,0,1,1.219-.934,4.1,4.1,0,0,1,1.691-.344,3.342,3.342,0,0,1,2.289.73,2.635,2.635,0,0,1,.859,2.012v3.891a4.757,4.757,0,0,0,.3,1.852V0Zm-2.4-1.1a2.54,2.54,0,0,0,1.289-.352,2.127,2.127,0,0,0,.883-.914V-4.1H26.2q-2.656,0-2.656,1.555a1.316,1.316,0,0,0,.453,1.063A1.742,1.742,0,0,0,25.156-1.1Zm8.875-10.711H32.539V1.25h1.492V2.438H31.086V-13h2.945ZM36.852,0H35.406V-8.453h1.445ZM35.289-10.7a.863.863,0,0,1,.215-.594.807.807,0,0,1,.637-.242.819.819,0,0,1,.641.242A.854.854,0,0,1,37-10.7a.826.826,0,0,1-.219.586.834.834,0,0,1-.641.234.821.821,0,0,1-.637-.234A.834.834,0,0,1,35.289-10.7ZM38.141-13h2.953V2.438H38.141V1.25h1.508V-11.812H38.141ZM52.484-5.078,47.32-7.1V-8.586l6.672,2.953v1.141L47.32-1.531v-1.5ZM64.289,0H62.836V-9.633l-2.914,1.07V-9.875l4.141-1.555h.227ZM75.656-4.852a6.61,6.61,0,0,1-.867,3.773A3.084,3.084,0,0,1,72.078.156a3.107,3.107,0,0,1-2.7-1.207,6.274,6.274,0,0,1-.906-3.605v-1.93a6.463,6.463,0,0,1,.867-3.727,3.108,3.108,0,0,1,2.719-1.219,3.136,3.136,0,0,1,2.7,1.176,6.237,6.237,0,0,1,.891,3.629ZM74.211-6.828A5.3,5.3,0,0,0,73.7-9.5a1.775,1.775,0,0,0-1.633-.84,1.751,1.751,0,0,0-1.617.836,5.171,5.171,0,0,0-.523,2.57v2.313A5.381,5.381,0,0,0,70.457-1.9a1.771,1.771,0,0,0,1.621.879,1.747,1.747,0,0,0,1.59-.828,5.186,5.186,0,0,0,.543-2.609Zm10.43,1.977a6.61,6.61,0,0,1-.867,3.773A3.084,3.084,0,0,1,81.063.156a3.107,3.107,0,0,1-2.7-1.207,6.274,6.274,0,0,1-.906-3.605v-1.93a6.463,6.463,0,0,1,.867-3.727,3.108,3.108,0,0,1,2.719-1.219,3.136,3.136,0,0,1,2.7,1.176,6.237,6.237,0,0,1,.891,3.629ZM83.2-6.828A5.3,5.3,0,0,0,82.68-9.5a1.775,1.775,0,0,0-1.633-.84,1.751,1.751,0,0,0-1.617.836,5.171,5.171,0,0,0-.523,2.57v2.313A5.381,5.381,0,0,0,79.441-1.9a1.771,1.771,0,0,0,1.621.879,1.747,1.747,0,0,0,1.59-.828A5.186,5.186,0,0,0,83.2-4.461Z" transform="translate(575 3608.02)" fill="#12263f"/>
      <path id="Unión_18" data-name="Unión 18" d="M-1516,11744.6h6.264V11712h4.474v32.6H-1499l-8.5,7.2Z" transform="translate(2125 -8193.164)" fill="#3a1d71"/>
      <rect id="Rectángulo_405428" data-name="Rectángulo 405428" width="4.474" height="47.334" transform="translate(615.263 3727.474)" fill="#3a1d71"/>
      <rect id="Rectángulo_405430" data-name="Rectángulo 405430" width="4.474" height="36.334" transform="translate(615.263 3800.655)" fill="#3a1d71"/>
      <rect id="Rectángulo_405406" data-name="Rectángulo 405406" width="94" height="35" rx="17.5" transform="translate(571 3849.069)" fill="#f0c518"/>
      <path id="Trazado_891264" data-name="Trazado 891264" d="M7.594-5.023H2.82V0H1.32V-11.375H8.367v1.227H2.82v3.9H7.594ZM11.508,0H10.063V-8.453h1.445ZM9.945-10.7a.863.863,0,0,1,.215-.594.807.807,0,0,1,.637-.242.819.819,0,0,1,.641.242.854.854,0,0,1,.219.594.826.826,0,0,1-.219.586.834.834,0,0,1-.641.234.821.821,0,0,1-.637-.234A.834.834,0,0,1,9.945-10.7Zm5.242,2.242.047,1.063a3.08,3.08,0,0,1,2.531-1.219q2.68,0,2.7,3.023V0H19.023V-5.594a1.946,1.946,0,0,0-.418-1.352,1.675,1.675,0,0,0-1.277-.437,2.086,2.086,0,0,0-1.234.375,2.546,2.546,0,0,0-.828.984V0H13.82V-8.453Z" transform="translate(606.999 3873.069)" fill="#12263f"/>
      <path id="Polígono_45" data-name="Polígono 45" d="M8.5,0,17,7.2H0Z" transform="translate(626 3842.608) rotate(180)" fill="#3a1d71"/>
      <rect id="Rectángulo_405422" data-name="Rectángulo 405422" width="4.474" height="62.006" transform="translate(431.288 3664.402)" fill="#3a1d71"/>
      <rect id="Rectángulo_405426" data-name="Rectángulo 405426" width="4.474" height="124.872" transform="translate(745.98 3599.299)" fill="#3a1d71"/>
      <path id="Trazado_890912" data-name="Trazado 890912" d="M1940.49-8962h230.226l32.505-24.619-32.505-24.836H1940.49l-29.628,24.836Z" transform="translate(-1444.042 12484.452)" fill="#f0c518"/>
      <path id="Trazado_891261" data-name="Trazado 891261" d="M-98.551-4.453V0h-1.5V-11.375h4.2a4.215,4.215,0,0,1,2.926.953A3.231,3.231,0,0,1-91.871-7.9a3.189,3.189,0,0,1-1.035,2.551,4.4,4.4,0,0,1-2.965.895Zm0-1.227h2.7a2.7,2.7,0,0,0,1.844-.567,2.075,2.075,0,0,0,.641-1.64,2.143,2.143,0,0,0-.641-1.628,2.525,2.525,0,0,0-1.758-.634h-2.781ZM-85.051,0a3.036,3.036,0,0,1-.2-.891A3.225,3.225,0,0,1-87.66.156a2.984,2.984,0,0,1-2.051-.707,2.288,2.288,0,0,1-.8-1.793,2.39,2.39,0,0,1,1-2.051,4.733,4.733,0,0,1,2.824-.73h1.406v-.664A1.623,1.623,0,0,0-85.73-7a1.821,1.821,0,0,0-1.336-.449,2.108,2.108,0,0,0-1.3.391,1.151,1.151,0,0,0-.523.945H-90.34a2,2,0,0,1,.449-1.223,3.066,3.066,0,0,1,1.219-.934,4.1,4.1,0,0,1,1.691-.344,3.342,3.342,0,0,1,2.289.73,2.635,2.635,0,0,1,.859,2.012v3.891a4.757,4.757,0,0,0,.3,1.852V0Zm-2.4-1.1a2.54,2.54,0,0,0,1.289-.352,2.127,2.127,0,0,0,.883-.914V-4.1H-86.41q-2.656,0-2.656,1.555a1.316,1.316,0,0,0,.453,1.063A1.742,1.742,0,0,0-87.449-1.1Zm9.969-6.055a4.331,4.331,0,0,0-.711-.055A1.9,1.9,0,0,0-80.121-6V0h-1.445V-8.453h1.406l.023.977a2.251,2.251,0,0,1,2.016-1.133,1.477,1.477,0,0,1,.641.109ZM-71.246,0a3.036,3.036,0,0,1-.2-.891A3.225,3.225,0,0,1-73.855.156a2.984,2.984,0,0,1-2.051-.707,2.288,2.288,0,0,1-.8-1.793,2.39,2.39,0,0,1,1-2.051,4.733,4.733,0,0,1,2.824-.73h1.406v-.664A1.623,1.623,0,0,0-71.926-7a1.821,1.821,0,0,0-1.336-.449,2.108,2.108,0,0,0-1.3.391,1.151,1.151,0,0,0-.523.945h-1.453a2,2,0,0,1,.449-1.223,3.066,3.066,0,0,1,1.219-.934,4.1,4.1,0,0,1,1.691-.344,3.342,3.342,0,0,1,2.289.73,2.635,2.635,0,0,1,.859,2.012v3.891a4.757,4.757,0,0,0,.3,1.852V0Zm-2.4-1.1a2.54,2.54,0,0,0,1.289-.352,2.127,2.127,0,0,0,.883-.914V-4.1h-1.133q-2.656,0-2.656,1.555a1.316,1.316,0,0,0,.453,1.063A1.742,1.742,0,0,0-73.645-1.1ZM-62.23,0h-1.445V-8.453h1.445Zm-1.562-10.7a.863.863,0,0,1,.215-.594.807.807,0,0,1,.637-.242.819.819,0,0,1,.641.242.854.854,0,0,1,.219.594.826.826,0,0,1-.219.586.834.834,0,0,1-.641.234.821.821,0,0,1-.637-.234A.834.834,0,0,1-63.793-10.7Zm7.484,6.4a4.952,4.952,0,0,1,.922-3.129,2.915,2.915,0,0,1,2.414-1.184,2.932,2.932,0,0,1,2.352,1.016V-12h1.445V0H-50.5l-.07-.906A2.943,2.943,0,0,1-52.988.156a2.887,2.887,0,0,1-2.395-1.2,5.008,5.008,0,0,1-.926-3.141Zm1.445.164a3.749,3.749,0,0,0,.594,2.25,1.92,1.92,0,0,0,1.641.813A2.108,2.108,0,0,0-50.621-2.3V-6.187a2.125,2.125,0,0,0-1.992-1.2,1.929,1.929,0,0,0-1.656.82A4.128,4.128,0,0,0-54.863-4.133ZM-43.426.156a3.693,3.693,0,0,1-2.8-1.129A4.19,4.19,0,0,1-47.3-3.992v-.266A5.073,5.073,0,0,1-46.82-6.5a3.748,3.748,0,0,1,1.344-1.547,3.378,3.378,0,0,1,1.871-.559,3.166,3.166,0,0,1,2.563,1.086,4.7,4.7,0,0,1,.914,3.109v.6h-5.727a3,3,0,0,0,.73,2.02,2.3,2.3,0,0,0,1.777.77,2.517,2.517,0,0,0,1.3-.312,3.259,3.259,0,0,0,.93-.828l.883.688A3.55,3.55,0,0,1-43.426.156Zm-.18-7.578a1.928,1.928,0,0,0-1.469.637A3.1,3.1,0,0,0-45.809-5h4.234v-.109a2.753,2.753,0,0,0-.594-1.707A1.815,1.815,0,0,0-43.605-7.422Zm10.07,5.18a1.064,1.064,0,0,0-.441-.91,4.249,4.249,0,0,0-1.539-.559,7.277,7.277,0,0,1-1.742-.562,2.479,2.479,0,0,1-.953-.781,1.869,1.869,0,0,1-.309-1.078,2.193,2.193,0,0,1,.879-1.758,3.432,3.432,0,0,1,2.246-.719,3.532,3.532,0,0,1,2.332.742,2.357,2.357,0,0,1,.895,1.9h-1.453a1.3,1.3,0,0,0-.5-1.023,1.888,1.888,0,0,0-1.27-.43,1.976,1.976,0,0,0-1.234.344,1.082,1.082,0,0,0-.445.9.877.877,0,0,0,.414.789,5.1,5.1,0,0,0,1.5.508A7.8,7.8,0,0,1-33.41-4.3a2.558,2.558,0,0,1,1,.809,1.988,1.988,0,0,1,.324,1.152A2.163,2.163,0,0,1-33-.527a3.8,3.8,0,0,1-2.352.684,4.257,4.257,0,0,1-1.8-.359,2.922,2.922,0,0,1-1.223-1A2.42,2.42,0,0,1-38.809-2.6h1.445a1.5,1.5,0,0,0,.582,1.152,2.258,2.258,0,0,0,1.434.426,2.331,2.331,0,0,0,1.316-.332A1.02,1.02,0,0,0-33.535-2.242ZM-30.559-4.3a4.952,4.952,0,0,1,.922-3.129,2.915,2.915,0,0,1,2.414-1.184,2.932,2.932,0,0,1,2.352,1.016V-12h1.445V0h-1.328l-.07-.906A2.943,2.943,0,0,1-27.238.156a2.887,2.887,0,0,1-2.395-1.2,5.008,5.008,0,0,1-.926-3.141Zm1.445.164a3.749,3.749,0,0,0,.594,2.25,1.92,1.92,0,0,0,1.641.813A2.108,2.108,0,0,0-24.871-2.3V-6.187a2.125,2.125,0,0,0-1.992-1.2,1.929,1.929,0,0,0-1.656.82A4.128,4.128,0,0,0-29.113-4.133ZM-17.676.156a3.693,3.693,0,0,1-2.8-1.129,4.19,4.19,0,0,1-1.078-3.02v-.266A5.073,5.073,0,0,1-21.07-6.5a3.748,3.748,0,0,1,1.344-1.547,3.378,3.378,0,0,1,1.871-.559,3.166,3.166,0,0,1,2.563,1.086,4.7,4.7,0,0,1,.914,3.109v.6h-5.727a3,3,0,0,0,.73,2.02,2.3,2.3,0,0,0,1.777.77,2.517,2.517,0,0,0,1.3-.312,3.259,3.259,0,0,0,.93-.828l.883.688A3.55,3.55,0,0,1-17.676.156Zm-.18-7.578a1.928,1.928,0,0,0-1.469.637A3.1,3.1,0,0,0-20.059-5h4.234v-.109a2.753,2.753,0,0,0-.594-1.707A1.815,1.815,0,0,0-17.855-7.422Zm16.094,2.57a6.61,6.61,0,0,1-.867,3.773A3.084,3.084,0,0,1-5.34.156a3.107,3.107,0,0,1-2.7-1.207,6.274,6.274,0,0,1-.906-3.605v-1.93a6.463,6.463,0,0,1,.867-3.727,3.108,3.108,0,0,1,2.719-1.219,3.136,3.136,0,0,1,2.7,1.176,6.237,6.237,0,0,1,.891,3.629ZM-3.207-6.828A5.3,5.3,0,0,0-3.723-9.5a1.775,1.775,0,0,0-1.633-.84,1.751,1.751,0,0,0-1.617.836A5.171,5.171,0,0,0-7.5-6.937v2.313A5.381,5.381,0,0,0-6.961-1.9a1.771,1.771,0,0,0,1.621.879,1.747,1.747,0,0,0,1.59-.828,5.186,5.186,0,0,0,.543-2.609Zm8.852-.6a3.073,3.073,0,0,1,2.5-1.18q2.68,0,2.7,3.023V0H9.4V-5.594a1.946,1.946,0,0,0-.418-1.352,1.675,1.675,0,0,0-1.277-.437,2.086,2.086,0,0,0-1.234.375,2.546,2.546,0,0,0-.828.984V0H4.2V-12H5.645ZM18.23,0a3.036,3.036,0,0,1-.2-.891A3.225,3.225,0,0,1,15.621.156,2.984,2.984,0,0,1,13.57-.551a2.287,2.287,0,0,1-.8-1.793,2.39,2.39,0,0,1,1-2.051,4.733,4.733,0,0,1,2.824-.73H18v-.664A1.623,1.623,0,0,0,17.551-7a1.821,1.821,0,0,0-1.336-.449,2.107,2.107,0,0,0-1.3.391,1.151,1.151,0,0,0-.523.945H12.941a2,2,0,0,1,.449-1.223,3.066,3.066,0,0,1,1.219-.934A4.1,4.1,0,0,1,16.3-8.609a3.342,3.342,0,0,1,2.289.73,2.635,2.635,0,0,1,.859,2.012v3.891a4.757,4.757,0,0,0,.3,1.852V0Zm-2.4-1.1a2.54,2.54,0,0,0,1.289-.352A2.127,2.127,0,0,0,18-2.367V-4.1H16.871q-2.656,0-2.656,1.555a1.316,1.316,0,0,0,.453,1.063A1.742,1.742,0,0,0,15.832-1.1Zm10.8-1.141a1.064,1.064,0,0,0-.441-.91,4.249,4.249,0,0,0-1.539-.559,7.277,7.277,0,0,1-1.742-.562,2.479,2.479,0,0,1-.953-.781,1.869,1.869,0,0,1-.309-1.078,2.193,2.193,0,0,1,.879-1.758,3.432,3.432,0,0,1,2.246-.719,3.532,3.532,0,0,1,2.332.742A2.357,2.357,0,0,1,28-5.969H26.551a1.3,1.3,0,0,0-.5-1.023,1.888,1.888,0,0,0-1.27-.43,1.976,1.976,0,0,0-1.234.344,1.082,1.082,0,0,0-.445.9.877.877,0,0,0,.414.789,5.1,5.1,0,0,0,1.5.508,7.8,7.8,0,0,1,1.754.578,2.558,2.558,0,0,1,1,.809,1.988,1.988,0,0,1,.324,1.152,2.163,2.163,0,0,1-.906,1.816,3.8,3.8,0,0,1-2.352.684,4.257,4.257,0,0,1-1.8-.359,2.922,2.922,0,0,1-1.223-1A2.42,2.42,0,0,1,21.363-2.6h1.445a1.5,1.5,0,0,0,.582,1.152,2.258,2.258,0,0,0,1.434.426,2.331,2.331,0,0,0,1.316-.332A1.02,1.02,0,0,0,26.637-2.242ZM31.926-10.5v2.047H33.5v1.117H31.926v5.249a1.173,1.173,0,0,0,.211.763.888.888,0,0,0,.719.254,3.5,3.5,0,0,0,.688-.094V0a4.215,4.215,0,0,1-1.109.155A1.8,1.8,0,0,1,30.973-.43a2.517,2.517,0,0,1-.492-1.664V-7.336H28.941V-8.453H30.48V-10.5ZM40.41,0a3.036,3.036,0,0,1-.2-.891A3.225,3.225,0,0,1,37.8.156,2.984,2.984,0,0,1,35.75-.551a2.287,2.287,0,0,1-.8-1.793,2.39,2.39,0,0,1,1-2.051,4.733,4.733,0,0,1,2.824-.73h1.406v-.664A1.623,1.623,0,0,0,39.73-7a1.821,1.821,0,0,0-1.336-.449,2.107,2.107,0,0,0-1.3.391,1.151,1.151,0,0,0-.523.945H35.121a2,2,0,0,1,.449-1.223,3.066,3.066,0,0,1,1.219-.934,4.1,4.1,0,0,1,1.691-.344,3.342,3.342,0,0,1,2.289.73,2.635,2.635,0,0,1,.859,2.012v3.891a4.757,4.757,0,0,0,.3,1.852V0Zm-2.4-1.1A2.54,2.54,0,0,0,39.3-1.453a2.127,2.127,0,0,0,.883-.914V-4.1H39.051q-2.656,0-2.656,1.555a1.316,1.316,0,0,0,.453,1.063A1.742,1.742,0,0,0,38.012-1.1Zm11.8-9.4v2.047h1.578v1.117H49.816v5.249a1.173,1.173,0,0,0,.211.763.888.888,0,0,0,.719.254,3.5,3.5,0,0,0,.688-.094V0a4.215,4.215,0,0,1-1.109.155A1.8,1.8,0,0,1,48.863-.43a2.517,2.517,0,0,1-.492-1.664V-7.336H46.832V-8.453h1.539V-10.5ZM58.3,0a3.036,3.036,0,0,1-.2-.891A3.225,3.225,0,0,1,55.691.156a2.984,2.984,0,0,1-2.051-.707,2.287,2.287,0,0,1-.8-1.793,2.39,2.39,0,0,1,1-2.051,4.733,4.733,0,0,1,2.824-.73h1.406v-.664A1.623,1.623,0,0,0,57.621-7a1.821,1.821,0,0,0-1.336-.449,2.107,2.107,0,0,0-1.3.391,1.151,1.151,0,0,0-.523.945H53.012a2,2,0,0,1,.449-1.223,3.066,3.066,0,0,1,1.219-.934,4.1,4.1,0,0,1,1.691-.344,3.342,3.342,0,0,1,2.289.73,2.635,2.635,0,0,1,.859,2.012v3.891a4.757,4.757,0,0,0,.3,1.852V0ZM55.9-1.1a2.54,2.54,0,0,0,1.289-.352,2.127,2.127,0,0,0,.883-.914V-4.1H56.941q-2.656,0-2.656,1.555a1.316,1.316,0,0,0,.453,1.063A1.742,1.742,0,0,0,55.9-1.1Zm7.242-7.352.039.938a3.122,3.122,0,0,1,2.508-1.094A2.417,2.417,0,0,1,68.105-7.25a3.2,3.2,0,0,1,1.1-.984,3.242,3.242,0,0,1,1.6-.375q2.781,0,2.828,2.945V0H72.184V-5.578a1.941,1.941,0,0,0-.414-1.355,1.823,1.823,0,0,0-1.391-.449,1.916,1.916,0,0,0-1.336.48,1.949,1.949,0,0,0-.617,1.293V0H66.973V-5.539a1.613,1.613,0,0,0-1.8-1.844,1.934,1.934,0,0,0-1.945,1.211V0H61.777V-8.453ZM81.027,0a3.036,3.036,0,0,1-.2-.891A3.225,3.225,0,0,1,78.418.156a2.984,2.984,0,0,1-2.051-.707,2.288,2.288,0,0,1-.8-1.793,2.39,2.39,0,0,1,1-2.051,4.733,4.733,0,0,1,2.824-.73H80.8v-.664A1.623,1.623,0,0,0,80.348-7a1.821,1.821,0,0,0-1.336-.449,2.108,2.108,0,0,0-1.3.391,1.151,1.151,0,0,0-.523.945H75.738a2,2,0,0,1,.449-1.223,3.066,3.066,0,0,1,1.219-.934A4.1,4.1,0,0,1,79.1-8.609a3.342,3.342,0,0,1,2.289.73,2.635,2.635,0,0,1,.859,2.012v3.891a4.757,4.757,0,0,0,.3,1.852V0Zm-2.4-1.1a2.54,2.54,0,0,0,1.289-.352,2.127,2.127,0,0,0,.883-.914V-4.1H79.668q-2.656,0-2.656,1.555a1.316,1.316,0,0,0,.453,1.063A1.742,1.742,0,0,0,78.629-1.1Zm7.25-7.352.047,1.063a3.08,3.08,0,0,1,2.531-1.219q2.68,0,2.7,3.023V0H89.715V-5.594A1.946,1.946,0,0,0,89.3-6.945a1.675,1.675,0,0,0-1.277-.437,2.086,2.086,0,0,0-1.234.375,2.546,2.546,0,0,0-.828.984V0H84.512V-8.453Zm4.781-3.3a1.942,1.942,0,0,1-.48,1.367,1.561,1.561,0,0,1-1.2.523,1.76,1.76,0,0,1-.555-.078,2.993,2.993,0,0,1-.613-.32,2.656,2.656,0,0,0-.547-.293,1.338,1.338,0,0,0-.387-.051.717.717,0,0,0-.547.246.892.892,0,0,0-.227.629l-.969-.055a2.039,2.039,0,0,1,.473-1.383,1.516,1.516,0,0,1,1.2-.547,1.457,1.457,0,0,1,.492.078,3.587,3.587,0,0,1,.594.3,3.494,3.494,0,0,0,.574.3,1.319,1.319,0,0,0,.441.07.7.7,0,0,0,.559-.266.932.932,0,0,0,.223-.617Zm2.3,7.445a4.993,4.993,0,0,1,.488-2.234A3.643,3.643,0,0,1,94.8-8.07a3.7,3.7,0,0,1,1.988-.539,3.565,3.565,0,0,1,2.793,1.2,4.6,4.6,0,0,1,1.066,3.18v.1a5.036,5.036,0,0,1-.473,2.215A3.589,3.589,0,0,1,98.828-.391a3.743,3.743,0,0,1-2.02.547,3.556,3.556,0,0,1-2.785-1.2A4.575,4.575,0,0,1,92.957-4.2Zm1.453.172a3.616,3.616,0,0,0,.652,2.258,2.088,2.088,0,0,0,1.746.852,2.075,2.075,0,0,0,1.75-.863A3.955,3.955,0,0,0,99.207-4.3a3.61,3.61,0,0,0-.66-2.254,2.1,2.1,0,0,0-1.754-.863,2.075,2.075,0,0,0-1.727.852A3.925,3.925,0,0,0,94.41-4.133Z" transform="translate(618 3504.228)" fill="#12263f"/>
      <path id="Unión_33" data-name="Unión 33" d="M-1516,11744.6h6.264V11712h4.474v32.6H-1499l-8.5,7.2Z" transform="translate(2125 -8505.66)" fill="#3a1d71"/>
      <path id="Trazado_890907" data-name="Trazado 890907" d="M1940.49-8962h230.226l32.505-24.619-32.505-24.836H1940.49l-29.628,24.836Z" transform="translate(-1444.042 12178.117)" fill="#f0c518"/>
      <path id="Trazado_891258" data-name="Trazado 891258" d="M-103.281-4.133a5.062,5.062,0,0,1-.883,3.109,2.829,2.829,0,0,1-2.391,1.18,3.1,3.1,0,0,1-2.422-.977V3.25h-1.445v-11.7h1.32l.07.938a2.977,2.977,0,0,1,2.453-1.094,2.882,2.882,0,0,1,2.41,1.148,5.117,5.117,0,0,1,.887,3.2Zm-1.445-.164a3.735,3.735,0,0,0-.609-2.258,1.963,1.963,0,0,0-1.672-.828,2.125,2.125,0,0,0-1.969,1.164V-2.18a2.129,2.129,0,0,0,1.984,1.156,1.954,1.954,0,0,0,1.652-.824A4.077,4.077,0,0,0-104.727-4.3Zm8.5,4.3a3.036,3.036,0,0,1-.2-.891A3.225,3.225,0,0,1-98.836.156a2.984,2.984,0,0,1-2.051-.707,2.288,2.288,0,0,1-.8-1.793,2.39,2.39,0,0,1,1-2.051,4.733,4.733,0,0,1,2.824-.73h1.406v-.664A1.623,1.623,0,0,0-96.906-7a1.821,1.821,0,0,0-1.336-.449,2.108,2.108,0,0,0-1.3.391,1.151,1.151,0,0,0-.523.945h-1.453a2,2,0,0,1,.449-1.223,3.066,3.066,0,0,1,1.219-.934,4.1,4.1,0,0,1,1.691-.344,3.342,3.342,0,0,1,2.289.73,2.635,2.635,0,0,1,.859,2.012v3.891a4.757,4.757,0,0,0,.3,1.852V0Zm-2.4-1.1a2.54,2.54,0,0,0,1.289-.352,2.127,2.127,0,0,0,.883-.914V-4.1h-1.133q-2.656,0-2.656,1.555a1.316,1.316,0,0,0,.453,1.063A1.742,1.742,0,0,0-98.625-1.1Zm9.969-6.055a4.331,4.331,0,0,0-.711-.055A1.9,1.9,0,0,0-91.3-6V0h-1.445V-8.453h1.406l.023.977A2.251,2.251,0,0,1-89.3-8.609a1.477,1.477,0,0,1,.641.109ZM-82.422,0a3.036,3.036,0,0,1-.2-.891A3.225,3.225,0,0,1-85.031.156a2.984,2.984,0,0,1-2.051-.707,2.288,2.288,0,0,1-.8-1.793,2.39,2.39,0,0,1,1-2.051,4.733,4.733,0,0,1,2.824-.73h1.406v-.664A1.623,1.623,0,0,0-83.1-7a1.821,1.821,0,0,0-1.336-.449,2.108,2.108,0,0,0-1.3.391,1.151,1.151,0,0,0-.523.945h-1.453a2,2,0,0,1,.449-1.223,3.066,3.066,0,0,1,1.219-.934,4.1,4.1,0,0,1,1.691-.344,3.342,3.342,0,0,1,2.289.73A2.635,2.635,0,0,1-81.2-5.867v3.891a4.757,4.757,0,0,0,.3,1.852V0Zm-2.4-1.1a2.54,2.54,0,0,0,1.289-.352,2.127,2.127,0,0,0,.883-.914V-4.1h-1.133q-2.656,0-2.656,1.555a1.316,1.316,0,0,0,.453,1.063A1.742,1.742,0,0,0-84.82-1.1ZM-73.406,0h-1.445V-8.453h1.445Zm-1.562-10.7a.863.863,0,0,1,.215-.594.807.807,0,0,1,.637-.242.819.819,0,0,1,.641.242.854.854,0,0,1,.219.594.826.826,0,0,1-.219.586.834.834,0,0,1-.641.234.821.821,0,0,1-.637-.234A.834.834,0,0,1-74.969-10.7Zm7.484,6.4a4.952,4.952,0,0,1,.922-3.129,2.915,2.915,0,0,1,2.414-1.184A2.932,2.932,0,0,1-61.8-7.594V-12h1.445V0H-61.68l-.07-.906A2.943,2.943,0,0,1-64.164.156a2.887,2.887,0,0,1-2.395-1.2,5.008,5.008,0,0,1-.926-3.141Zm1.445.164a3.749,3.749,0,0,0,.594,2.25A1.92,1.92,0,0,0-63.8-1.07,2.108,2.108,0,0,0-61.8-2.3V-6.187a2.125,2.125,0,0,0-1.992-1.2,1.929,1.929,0,0,0-1.656.82A4.128,4.128,0,0,0-66.039-4.133ZM-54.6.156A3.693,3.693,0,0,1-57.4-.973a4.19,4.19,0,0,1-1.078-3.02v-.266A5.073,5.073,0,0,1-58-6.5a3.748,3.748,0,0,1,1.344-1.547,3.378,3.378,0,0,1,1.871-.559,3.166,3.166,0,0,1,2.563,1.086A4.7,4.7,0,0,1-51.3-4.414v.6h-5.727a3,3,0,0,0,.73,2.02,2.3,2.3,0,0,0,1.777.77,2.517,2.517,0,0,0,1.3-.312,3.259,3.259,0,0,0,.93-.828l.883.688A3.55,3.55,0,0,1-54.6.156Zm-.18-7.578a1.928,1.928,0,0,0-1.469.637A3.1,3.1,0,0,0-56.984-5h4.234v-.109a2.753,2.753,0,0,0-.594-1.707A1.815,1.815,0,0,0-54.781-7.422Zm10.07,5.18a1.064,1.064,0,0,0-.441-.91,4.249,4.249,0,0,0-1.539-.559,7.277,7.277,0,0,1-1.742-.562,2.479,2.479,0,0,1-.953-.781A1.869,1.869,0,0,1-49.7-6.133a2.193,2.193,0,0,1,.879-1.758,3.432,3.432,0,0,1,2.246-.719,3.532,3.532,0,0,1,2.332.742,2.357,2.357,0,0,1,.895,1.9H-44.8a1.3,1.3,0,0,0-.5-1.023,1.888,1.888,0,0,0-1.27-.43,1.976,1.976,0,0,0-1.234.344,1.082,1.082,0,0,0-.445.9.877.877,0,0,0,.414.789,5.1,5.1,0,0,0,1.5.508,7.8,7.8,0,0,1,1.754.578,2.558,2.558,0,0,1,1,.809,1.988,1.988,0,0,1,.324,1.152,2.163,2.163,0,0,1-.906,1.816,3.8,3.8,0,0,1-2.352.684A4.257,4.257,0,0,1-48.32-.2a2.922,2.922,0,0,1-1.223-1A2.42,2.42,0,0,1-49.984-2.6h1.445a1.5,1.5,0,0,0,.582,1.152,2.258,2.258,0,0,0,1.434.426,2.331,2.331,0,0,0,1.316-.332A1.02,1.02,0,0,0-44.711-2.242ZM-41.734-4.3a4.952,4.952,0,0,1,.922-3.129A2.915,2.915,0,0,1-38.4-8.609a2.932,2.932,0,0,1,2.352,1.016V-12H-34.6V0H-35.93L-36-.906A2.943,2.943,0,0,1-38.414.156a2.887,2.887,0,0,1-2.395-1.2,5.008,5.008,0,0,1-.926-3.141Zm1.445.164a3.749,3.749,0,0,0,.594,2.25,1.92,1.92,0,0,0,1.641.813A2.108,2.108,0,0,0-36.047-2.3V-6.187a2.125,2.125,0,0,0-1.992-1.2,1.929,1.929,0,0,0-1.656.82A4.128,4.128,0,0,0-40.289-4.133ZM-28.852.156a3.693,3.693,0,0,1-2.8-1.129,4.19,4.19,0,0,1-1.078-3.02v-.266a5.073,5.073,0,0,1,.48-2.246A3.748,3.748,0,0,1-30.9-8.051a3.378,3.378,0,0,1,1.871-.559,3.166,3.166,0,0,1,2.563,1.086,4.7,4.7,0,0,1,.914,3.109v.6h-5.727a3,3,0,0,0,.73,2.02,2.3,2.3,0,0,0,1.777.77,2.517,2.517,0,0,0,1.3-.312,3.259,3.259,0,0,0,.93-.828l.883.688A3.55,3.55,0,0,1-28.852.156Zm-.18-7.578a1.928,1.928,0,0,0-1.469.637A3.1,3.1,0,0,0-31.234-5H-27v-.109a2.753,2.753,0,0,0-.594-1.707A1.815,1.815,0,0,0-29.031-7.422Zm16.094,2.57A6.61,6.61,0,0,1-13.8-1.078,3.084,3.084,0,0,1-16.516.156a3.107,3.107,0,0,1-2.7-1.207,6.274,6.274,0,0,1-.906-3.605v-1.93a6.463,6.463,0,0,1,.867-3.727,3.108,3.108,0,0,1,2.719-1.219,3.136,3.136,0,0,1,2.7,1.176,6.237,6.237,0,0,1,.891,3.629Zm-1.445-1.977A5.3,5.3,0,0,0-14.9-9.5a1.775,1.775,0,0,0-1.633-.84,1.751,1.751,0,0,0-1.617.836,5.171,5.171,0,0,0-.523,2.57v2.313A5.381,5.381,0,0,0-18.137-1.9a1.771,1.771,0,0,0,1.621.879,1.747,1.747,0,0,0,1.59-.828,5.186,5.186,0,0,0,.543-2.609Zm8.852-.6a3.073,3.073,0,0,1,2.5-1.18q2.68,0,2.7,3.023V0H-1.773V-5.594a1.946,1.946,0,0,0-.418-1.352,1.675,1.675,0,0,0-1.277-.437A2.086,2.086,0,0,0-4.7-7.008a2.546,2.546,0,0,0-.828.984V0H-6.977V-12h1.445ZM7.055,0a3.036,3.036,0,0,1-.2-.891A3.225,3.225,0,0,1,4.445.156,2.984,2.984,0,0,1,2.395-.551a2.287,2.287,0,0,1-.8-1.793,2.39,2.39,0,0,1,1-2.051,4.733,4.733,0,0,1,2.824-.73H6.828v-.664A1.623,1.623,0,0,0,6.375-7a1.821,1.821,0,0,0-1.336-.449,2.107,2.107,0,0,0-1.3.391,1.151,1.151,0,0,0-.523.945H1.766a2,2,0,0,1,.449-1.223,3.066,3.066,0,0,1,1.219-.934,4.1,4.1,0,0,1,1.691-.344,3.342,3.342,0,0,1,2.289.73,2.635,2.635,0,0,1,.859,2.012v3.891a4.757,4.757,0,0,0,.3,1.852V0Zm-2.4-1.1a2.54,2.54,0,0,0,1.289-.352,2.127,2.127,0,0,0,.883-.914V-4.1H5.7q-2.656,0-2.656,1.555a1.316,1.316,0,0,0,.453,1.063A1.742,1.742,0,0,0,4.656-1.1Zm10.8-1.141a1.064,1.064,0,0,0-.441-.91,4.249,4.249,0,0,0-1.539-.559,7.277,7.277,0,0,1-1.742-.562,2.479,2.479,0,0,1-.953-.781,1.869,1.869,0,0,1-.309-1.078,2.193,2.193,0,0,1,.879-1.758A3.432,3.432,0,0,1,13.6-8.609a3.532,3.532,0,0,1,2.332.742,2.357,2.357,0,0,1,.895,1.9H15.375a1.3,1.3,0,0,0-.5-1.023,1.888,1.888,0,0,0-1.27-.43,1.976,1.976,0,0,0-1.234.344,1.082,1.082,0,0,0-.445.9.877.877,0,0,0,.414.789,5.1,5.1,0,0,0,1.5.508,7.8,7.8,0,0,1,1.754.578,2.558,2.558,0,0,1,1,.809,1.988,1.988,0,0,1,.324,1.152A2.163,2.163,0,0,1,16-.527a3.8,3.8,0,0,1-2.352.684,4.257,4.257,0,0,1-1.8-.359,2.922,2.922,0,0,1-1.223-1A2.42,2.42,0,0,1,10.188-2.6h1.445a1.5,1.5,0,0,0,.582,1.152,2.258,2.258,0,0,0,1.434.426,2.331,2.331,0,0,0,1.316-.332A1.02,1.02,0,0,0,15.461-2.242ZM20.75-10.5v2.047h1.578v1.117H20.75v5.249a1.173,1.173,0,0,0,.211.763.888.888,0,0,0,.719.254,3.5,3.5,0,0,0,.688-.094V0a4.215,4.215,0,0,1-1.109.155A1.8,1.8,0,0,1,19.8-.43,2.517,2.517,0,0,1,19.3-2.094V-7.336H17.766V-8.453H19.3V-10.5ZM29.234,0a3.036,3.036,0,0,1-.2-.891A3.225,3.225,0,0,1,26.625.156a2.984,2.984,0,0,1-2.051-.707,2.287,2.287,0,0,1-.8-1.793,2.39,2.39,0,0,1,1-2.051,4.733,4.733,0,0,1,2.824-.73h1.406v-.664A1.623,1.623,0,0,0,28.555-7a1.821,1.821,0,0,0-1.336-.449,2.108,2.108,0,0,0-1.3.391,1.151,1.151,0,0,0-.523.945H23.945a2,2,0,0,1,.449-1.223,3.066,3.066,0,0,1,1.219-.934A4.1,4.1,0,0,1,27.3-8.609a3.342,3.342,0,0,1,2.289.73,2.635,2.635,0,0,1,.859,2.012v3.891a4.757,4.757,0,0,0,.3,1.852V0Zm-2.4-1.1a2.54,2.54,0,0,0,1.289-.352,2.127,2.127,0,0,0,.883-.914V-4.1H27.875q-2.656,0-2.656,1.555a1.316,1.316,0,0,0,.453,1.063A1.742,1.742,0,0,0,26.836-1.1Zm11.8-9.4v2.047h1.578v1.117H38.641v5.249a1.173,1.173,0,0,0,.211.763.888.888,0,0,0,.719.254,3.5,3.5,0,0,0,.688-.094V0a4.215,4.215,0,0,1-1.109.155A1.8,1.8,0,0,1,37.688-.43,2.517,2.517,0,0,1,37.2-2.094V-7.336H35.656V-8.453H37.2V-10.5ZM47.125,0a3.036,3.036,0,0,1-.2-.891A3.225,3.225,0,0,1,44.516.156a2.984,2.984,0,0,1-2.051-.707,2.287,2.287,0,0,1-.8-1.793,2.39,2.39,0,0,1,1-2.051,4.733,4.733,0,0,1,2.824-.73H46.9v-.664A1.623,1.623,0,0,0,46.445-7a1.821,1.821,0,0,0-1.336-.449,2.107,2.107,0,0,0-1.3.391,1.151,1.151,0,0,0-.523.945H41.836a2,2,0,0,1,.449-1.223A3.066,3.066,0,0,1,43.5-8.266,4.1,4.1,0,0,1,45.2-8.609a3.342,3.342,0,0,1,2.289.73,2.635,2.635,0,0,1,.859,2.012v3.891a4.757,4.757,0,0,0,.3,1.852V0Zm-2.4-1.1a2.54,2.54,0,0,0,1.289-.352,2.127,2.127,0,0,0,.883-.914V-4.1H45.766q-2.656,0-2.656,1.555a1.316,1.316,0,0,0,.453,1.063A1.742,1.742,0,0,0,44.727-1.1Zm7.242-7.352.039.938a3.122,3.122,0,0,1,2.508-1.094A2.417,2.417,0,0,1,56.93-7.25a3.2,3.2,0,0,1,1.1-.984,3.242,3.242,0,0,1,1.6-.375q2.781,0,2.828,2.945V0H61.008V-5.578a1.941,1.941,0,0,0-.414-1.355A1.823,1.823,0,0,0,59.2-7.383a1.917,1.917,0,0,0-1.336.48,1.949,1.949,0,0,0-.617,1.293V0H55.8V-5.539a1.613,1.613,0,0,0-1.8-1.844,1.934,1.934,0,0,0-1.945,1.211V0H50.6V-8.453ZM69.852,0a3.036,3.036,0,0,1-.2-.891A3.225,3.225,0,0,1,67.242.156a2.984,2.984,0,0,1-2.051-.707,2.288,2.288,0,0,1-.8-1.793,2.39,2.39,0,0,1,1-2.051,4.733,4.733,0,0,1,2.824-.73h1.406v-.664A1.623,1.623,0,0,0,69.172-7a1.821,1.821,0,0,0-1.336-.449,2.108,2.108,0,0,0-1.3.391,1.151,1.151,0,0,0-.523.945H64.563a2,2,0,0,1,.449-1.223,3.066,3.066,0,0,1,1.219-.934,4.1,4.1,0,0,1,1.691-.344,3.342,3.342,0,0,1,2.289.73,2.635,2.635,0,0,1,.859,2.012v3.891a4.757,4.757,0,0,0,.3,1.852V0Zm-2.4-1.1a2.54,2.54,0,0,0,1.289-.352,2.127,2.127,0,0,0,.883-.914V-4.1H68.492q-2.656,0-2.656,1.555a1.316,1.316,0,0,0,.453,1.063A1.742,1.742,0,0,0,67.453-1.1ZM74.7-8.453l.047,1.063a3.08,3.08,0,0,1,2.531-1.219q2.68,0,2.7,3.023V0H78.539V-5.594a1.946,1.946,0,0,0-.418-1.352,1.675,1.675,0,0,0-1.277-.437,2.086,2.086,0,0,0-1.234.375,2.546,2.546,0,0,0-.828.984V0H73.336V-8.453Zm4.781-3.3A1.942,1.942,0,0,1,79-10.383a1.561,1.561,0,0,1-1.2.523,1.76,1.76,0,0,1-.555-.078,2.993,2.993,0,0,1-.613-.32,2.656,2.656,0,0,0-.547-.293A1.338,1.338,0,0,0,75.7-10.6a.717.717,0,0,0-.547.246.892.892,0,0,0-.227.629l-.969-.055a2.039,2.039,0,0,1,.473-1.383,1.516,1.516,0,0,1,1.2-.547,1.457,1.457,0,0,1,.492.078,3.587,3.587,0,0,1,.594.3,3.494,3.494,0,0,0,.574.3,1.319,1.319,0,0,0,.441.07.7.7,0,0,0,.559-.266.932.932,0,0,0,.223-.617Zm2.3,7.445a4.993,4.993,0,0,1,.488-2.234A3.643,3.643,0,0,1,83.629-8.07a3.7,3.7,0,0,1,1.988-.539,3.565,3.565,0,0,1,2.793,1.2,4.6,4.6,0,0,1,1.066,3.18v.1A5.036,5.036,0,0,1,89-1.918,3.589,3.589,0,0,1,87.652-.391a3.743,3.743,0,0,1-2.02.547,3.556,3.556,0,0,1-2.785-1.2A4.575,4.575,0,0,1,81.781-4.2Zm1.453.172a3.616,3.616,0,0,0,.652,2.258,2.088,2.088,0,0,0,1.746.852,2.075,2.075,0,0,0,1.75-.863A3.955,3.955,0,0,0,88.031-4.3a3.61,3.61,0,0,0-.66-2.254,2.1,2.1,0,0,0-1.754-.863,2.075,2.075,0,0,0-1.727.852A3.925,3.925,0,0,0,83.234-4.133Zm15.023-.109H94.445v-1.18h3.813ZM108.227,0h-1.453V-9.633l-2.914,1.07V-9.875L108-11.43h.227Z" transform="translate(618 3197.893)" fill="#12263f"/>
      <rect id="Rectángulo_405414" data-name="Rectángulo 405414" width="4.474" height="35.085" transform="translate(615.263 3371.83)" fill="#3a1d71"/>
      <path id="Trazado_890909" data-name="Trazado 890909" d="M1873.729-10913.992h98.864l22.125-49.853H1892.774l-23.246,49.853Z" transform="translate(-1314.544 14297.482)" fill="#f0c518"/>
      <path id="Trazado_891260" data-name="Trazado 891260" d="M2.664,0H1.219V-12H2.664ZM6.547,0H5.1V-8.453H6.547ZM4.984-10.7a.863.863,0,0,1,.215-.594.807.807,0,0,1,.637-.242.819.819,0,0,1,.641.242A.854.854,0,0,1,6.7-10.7a.826.826,0,0,1-.219.586.834.834,0,0,1-.641.234.821.821,0,0,1-.637-.234A.834.834,0,0,1,4.984-10.7Zm8.8,8.453a1.064,1.064,0,0,0-.441-.91A4.249,4.249,0,0,0,11.8-3.711a7.277,7.277,0,0,1-1.742-.562,2.479,2.479,0,0,1-.953-.781A1.869,1.869,0,0,1,8.8-6.133a2.193,2.193,0,0,1,.879-1.758,3.432,3.432,0,0,1,2.246-.719,3.532,3.532,0,0,1,2.332.742,2.357,2.357,0,0,1,.895,1.9H13.7a1.3,1.3,0,0,0-.5-1.023,1.888,1.888,0,0,0-1.27-.43,1.976,1.976,0,0,0-1.234.344,1.082,1.082,0,0,0-.445.9.877.877,0,0,0,.414.789,5.1,5.1,0,0,0,1.5.508,7.8,7.8,0,0,1,1.754.578,2.558,2.558,0,0,1,1,.809,1.988,1.988,0,0,1,.324,1.152A2.163,2.163,0,0,1,14.32-.527a3.8,3.8,0,0,1-2.352.684,4.257,4.257,0,0,1-1.8-.359,2.922,2.922,0,0,1-1.223-1A2.42,2.42,0,0,1,8.508-2.6H9.953a1.5,1.5,0,0,0,.582,1.152,2.258,2.258,0,0,0,1.434.426,2.331,2.331,0,0,0,1.316-.332A1.02,1.02,0,0,0,13.781-2.242ZM19.07-10.5v2.047h1.578v1.117H19.07v5.249a1.173,1.173,0,0,0,.211.763A.888.888,0,0,0,20-1.07a3.5,3.5,0,0,0,.688-.094V0a4.215,4.215,0,0,1-1.109.155A1.8,1.8,0,0,1,18.117-.43a2.517,2.517,0,0,1-.492-1.664V-7.336H16.086V-8.453h1.539V-10.5ZM27.555,0a3.036,3.036,0,0,1-.2-.891A3.225,3.225,0,0,1,24.945.156a2.984,2.984,0,0,1-2.051-.707,2.287,2.287,0,0,1-.8-1.793,2.39,2.39,0,0,1,1-2.051,4.733,4.733,0,0,1,2.824-.73h1.406v-.664A1.623,1.623,0,0,0,26.875-7a1.821,1.821,0,0,0-1.336-.449,2.108,2.108,0,0,0-1.3.391,1.151,1.151,0,0,0-.523.945H22.266a2,2,0,0,1,.449-1.223,3.066,3.066,0,0,1,1.219-.934,4.1,4.1,0,0,1,1.691-.344,3.342,3.342,0,0,1,2.289.73,2.635,2.635,0,0,1,.859,2.012v3.891a4.757,4.757,0,0,0,.3,1.852V0Zm-2.4-1.1a2.54,2.54,0,0,0,1.289-.352,2.127,2.127,0,0,0,.883-.914V-4.1H26.2q-2.656,0-2.656,1.555a1.316,1.316,0,0,0,.453,1.063A1.742,1.742,0,0,0,25.156-1.1Zm8.875-10.711H32.539V1.25h1.492V2.438H31.086V-13h2.945ZM36.852,0H35.406V-8.453h1.445ZM35.289-10.7a.863.863,0,0,1,.215-.594.807.807,0,0,1,.637-.242.819.819,0,0,1,.641.242A.854.854,0,0,1,37-10.7a.826.826,0,0,1-.219.586.834.834,0,0,1-.641.234.821.821,0,0,1-.637-.234A.834.834,0,0,1,35.289-10.7ZM38.141-13h2.953V2.438H38.141V1.25h1.508V-11.812H38.141Z" transform="translate(594.579 3365.48)" fill="#12263f"/>
      <path id="Trazado_890911" data-name="Trazado 890911" d="M2585.617-8949v-43.813h121.328V-8949s1.878,6.794-28.454,6.794c-14.984,0-40.12-10.05-59.708-11.754C2599.339-8955.657,2585.617-8949,2585.617-8949Z" transform="translate(-2213.004 12629.221)" fill="#f0c518"/>
      <path id="Trazado_891263" data-name="Trazado 891263" d="M-17.336,0h-1.355V-11.25h1.355Zm3.64,0h-1.355V-7.925H-13.7Zm-1.465-10.027a.809.809,0,0,1,.2-.557.756.756,0,0,1,.6-.227.768.768,0,0,1,.6.227.8.8,0,0,1,.205.557.774.774,0,0,1-.205.549.782.782,0,0,1-.6.22.77.77,0,0,1-.6-.22A.782.782,0,0,1-15.161-10.027ZM-6.914-2.1a1,1,0,0,0-.414-.853,3.983,3.983,0,0,0-1.443-.524A6.822,6.822,0,0,1-10.4-4.006a2.324,2.324,0,0,1-.894-.732,1.752,1.752,0,0,1-.289-1.011A2.056,2.056,0,0,1-10.763-7.4a3.218,3.218,0,0,1,2.106-.674,3.311,3.311,0,0,1,2.186.7A2.21,2.21,0,0,1-5.632-5.6H-6.995a1.223,1.223,0,0,0-.472-.959,1.77,1.77,0,0,0-1.19-.4,1.852,1.852,0,0,0-1.157.322,1.014,1.014,0,0,0-.417.842.822.822,0,0,0,.388.74,4.776,4.776,0,0,0,1.4.476A7.308,7.308,0,0,1-6.8-4.036a2.4,2.4,0,0,1,.934.758,1.864,1.864,0,0,1,.3,1.08,2.028,2.028,0,0,1-.85,1.7,3.564,3.564,0,0,1-2.2.641A3.991,3.991,0,0,1-10.3-.19a2.74,2.74,0,0,1-1.146-.941,2.268,2.268,0,0,1-.414-1.307H-10.5a1.4,1.4,0,0,0,.546,1.08,2.117,2.117,0,0,0,1.344.4,2.185,2.185,0,0,0,1.234-.311A.956.956,0,0,0-6.914-2.1Zm4.958-7.742v1.919H-.476v1.047H-1.956v4.921a1.1,1.1,0,0,0,.2.715A.832.832,0,0,0-1.084-1a3.281,3.281,0,0,0,.645-.088V0a3.951,3.951,0,0,1-1.04.146A1.687,1.687,0,0,1-2.849-.4a2.36,2.36,0,0,1-.461-1.56V-6.877H-4.753V-7.925h1.443V-9.844ZM6,0a2.846,2.846,0,0,1-.19-.835A3.023,3.023,0,0,1,3.552.146,2.8,2.8,0,0,1,1.63-.516,2.145,2.145,0,0,1,.879-2.2,2.24,2.24,0,0,1,1.82-4.12,4.437,4.437,0,0,1,4.468-4.8H5.786v-.623a1.522,1.522,0,0,0-.425-1.132A1.707,1.707,0,0,0,4.109-6.98a1.976,1.976,0,0,0-1.216.366,1.079,1.079,0,0,0-.491.886H1.04a1.87,1.87,0,0,1,.421-1.146A2.874,2.874,0,0,1,2.6-7.749a3.844,3.844,0,0,1,1.586-.322,3.133,3.133,0,0,1,2.146.685A2.47,2.47,0,0,1,7.141-5.5v3.647A4.459,4.459,0,0,0,7.419-.117V0ZM3.75-1.033a2.381,2.381,0,0,0,1.208-.33,1.994,1.994,0,0,0,.828-.857V-3.845H4.724q-2.49,0-2.49,1.458a1.234,1.234,0,0,0,.425,1A1.633,1.633,0,0,0,3.75-1.033Zm8.32-10.042h-1.4V1.172h1.4V2.285H9.309V-12.187H12.07ZM14.714,0H13.359V-7.925h1.355ZM13.25-10.027a.809.809,0,0,1,.2-.557.756.756,0,0,1,.6-.227.768.768,0,0,1,.6.227.8.8,0,0,1,.205.557.774.774,0,0,1-.205.549.782.782,0,0,1-.6.22.77.77,0,0,1-.6-.22A.782.782,0,0,1,13.25-10.027Zm2.673-2.161h2.769V2.285H15.923V1.172h1.414V-11.074H15.923Z" transform="translate(433.613 3665.402)" fill="#12263f"/>
      <path id="Unión_38" data-name="Unión 38" d="M0,.421H4.474V0H0Z" transform="translate(615.579 3731.708) rotate(-90)" fill="#3a1d71"/>
    </g>
  </g>
</svg>
