<svg xmlns="http://www.w3.org/2000/svg" width="85" height="38" viewBox="0 0 85 38">
  <g id="Grupo_1105235" data-name="Grupo 1105235" transform="translate(-600 -5886.499)">
    <circle id="Elipse_9675" data-name="Elipse 9675" cx="3" cy="3" r="3" transform="translate(600 5886.499)" fill="#8722e2"/>
    <circle id="Elipse_9676" data-name="Elipse 9676" cx="3" cy="3" r="3" transform="translate(615 5886.499)" fill="#8722e2"/>
    <circle id="Elipse_9677" data-name="Elipse 9677" cx="3" cy="3" r="3" transform="translate(632 5886.499)" fill="#8722e2"/>
    <circle id="Elipse_9678" data-name="Elipse 9678" cx="3" cy="3" r="3" transform="translate(647 5886.499)" fill="#8722e2"/>
    <circle id="Elipse_9679" data-name="Elipse 9679" cx="3" cy="3" r="3" transform="translate(664 5886.499)" fill="#8722e2"/>
    <circle id="Elipse_9680" data-name="Elipse 9680" cx="3" cy="3" r="3" transform="translate(679 5886.499)" fill="#8722e2"/>
    <circle id="Elipse_9675-2" data-name="Elipse 9675" cx="3" cy="3" r="3" transform="translate(600 5902.499)" fill="#8722e2"/>
    <circle id="Elipse_9676-2" data-name="Elipse 9676" cx="3" cy="3" r="3" transform="translate(615 5902.499)" fill="#8722e2"/>
    <circle id="Elipse_9677-2" data-name="Elipse 9677" cx="3" cy="3" r="3" transform="translate(632 5902.499)" fill="#8722e2"/>
    <circle id="Elipse_9678-2" data-name="Elipse 9678" cx="3" cy="3" r="3" transform="translate(647 5902.499)" fill="#8722e2"/>
    <circle id="Elipse_9679-2" data-name="Elipse 9679" cx="3" cy="3" r="3" transform="translate(664 5902.499)" fill="#8722e2"/>
    <circle id="Elipse_9680-2" data-name="Elipse 9680" cx="3" cy="3" r="3" transform="translate(679 5902.499)" fill="#8722e2"/>
    <circle id="Elipse_9675-3" data-name="Elipse 9675" cx="3" cy="3" r="3" transform="translate(600 5918.499)" fill="#8722e2"/>
    <circle id="Elipse_9676-3" data-name="Elipse 9676" cx="3" cy="3" r="3" transform="translate(615 5918.499)" fill="#8722e2"/>
    <circle id="Elipse_9677-3" data-name="Elipse 9677" cx="3" cy="3" r="3" transform="translate(632 5918.499)" fill="#8722e2"/>
    <circle id="Elipse_9678-3" data-name="Elipse 9678" cx="3" cy="3" r="3" transform="translate(647 5918.499)" fill="#8722e2"/>
    <circle id="Elipse_9679-3" data-name="Elipse 9679" cx="3" cy="3" r="3" transform="translate(664 5918.499)" fill="#8722e2"/>
    <circle id="Elipse_9680-3" data-name="Elipse 9680" cx="3" cy="3" r="3" transform="translate(679 5918.499)" fill="#8722e2"/>
  </g>
</svg>
