<svg xmlns="http://www.w3.org/2000/svg" width="78" height="78" viewBox="0 0 78 78">
  <g id="Grupo_1105327" data-name="Grupo 1105327" transform="translate(-240.75 -5102)">
    <path id="Trazado_875520" data-name="Trazado 875520" d="M39,0A39,39,0,1,1,0,39,39,39,0,0,1,39,0Z" transform="translate(240.75 5102)" fill="#a854f3"/>
    <g id="Grupo_1100448" data-name="Grupo 1100448" transform="translate(260.495 5111.287)">
      <g id="Grupo_1100447" data-name="Grupo 1100447">
        <g id="Grupo_1100442" data-name="Grupo 1100442" transform="translate(1.047 20.948)">
          <path id="Trazado_876706" data-name="Trazado 876706" d="M139.447,193.842a5.046,5.046,0,0,1,.028.523,4.878,4.878,0,0,1-4.877,4.878H109.309a4.878,4.878,0,0,1-4.877-4.878,5.05,5.05,0,0,1,.027-.523c.029-.27.438-.534.51-.789.1-.349-.126-.682.041-.994a3.376,3.376,0,0,1,.347-5.515c.256-.158.536.077.832-.008s.608-.489.931-.489h0a3.376,3.376,0,0,1,3.153-3.3l23.137-.007a3.376,3.376,0,0,1,3.375,3.312h0c.3,0,.6.4.877.473.315.085.613-.145.885.023a3.376,3.376,0,0,1,.348,5.516c.145.27-.094.554,0,.851s.518.611.552.932Z" transform="translate(-103.744 -182.736)" fill="#bc7c63"/>
        </g>
        <g id="Grupo_1100445" data-name="Grupo 1100445" transform="translate(4.527)">
          <g id="Grupo_1100443" data-name="Grupo 1100443" transform="translate(10.961 28.452)">
            <path id="Trazado_876707" data-name="Trazado 876707" d="M224.518,255.91V245.486h7.535V255.91Z" transform="translate(-224.518 -245.486)" fill="#efb9af"/>
          </g>
          <path id="Trazado_876708" data-name="Trazado 876708" d="M171.254,17.813l.48,8.826H145.239V17.333A9.775,9.775,0,0,1,157.59,7.905c.245.067.49.66.735.748a.468.468,0,0,0,.323,0c.245-.088.49-.681.735-.748a9.359,9.359,0,0,1,2.591,0C167.155,7.905,171.254,12.224,171.254,17.813Z" transform="translate(-143.758 -7.552)" fill="#c68d7a"/>
          <path id="Trazado_876709" data-name="Trazado 876709" d="M275.872,17.332v6.591l-2.577-2.2V19.06c0-10.525-9.774-11.157-9.774-11.157a9.749,9.749,0,0,1,12.351,9.428Z" transform="translate(-247.896 -7.55)" fill="#bc7c63"/>
          <g id="Grupo_1100444" data-name="Grupo 1100444" transform="translate(13.832 0.354)">
            <path id="Trazado_876710" data-name="Trazado 876710" d="M250.321,10.507v6.985a.9.9,0,1,1-1.793,0V10.507q.368.1.735.233a.468.468,0,0,0,.323,0Q249.953,10.607,250.321,10.507Z" transform="translate(-248.528 -10.507)" fill="#bc7c63"/>
          </g>
          <path id="Trazado_876711" data-name="Trazado 876711" d="M156.985,133.51h-18.81a5.324,5.324,0,0,1-5.324-5.324,2.118,2.118,0,0,1,2.118-2.118h25.222a2.118,2.118,0,0,1,2.118,2.118A5.324,5.324,0,0,1,156.985,133.51Z" transform="translate(-132.851 -111.896)" fill="#efb9af"/>
          <path id="Trazado_876712" data-name="Trazado 876712" d="M177.456,77.371a6.836,6.836,0,0,0,4.685-1.851l3.6-3.37a7.548,7.548,0,0,0,2.388-5.509V59.149a1.893,1.893,0,0,1-1.788-1.271,11.087,11.087,0,0,0-5.748-6.391l-2.94-1.385a.477.477,0,0,0-.391,0l-2.94,1.385a11.086,11.086,0,0,0-5.748,6.391,1.893,1.893,0,0,1-1.788,1.271v7.492a7.548,7.548,0,0,0,2.388,5.509l3.6,3.37A6.835,6.835,0,0,0,177.456,77.371Z" transform="translate(-162.727 -44.977)" fill="#f3c6bd"/>
        </g>
        <g id="Grupo_1100446" data-name="Grupo 1100446" transform="translate(0 36.752)">
          <path id="Trazado_876713" data-name="Trazado 876713" d="M140.344,336.378l.158-19.011a2.123,2.123,0,0,0-2.123-2.123l-2.8-.342h-28.8a2.123,2.123,0,0,0-2.123,2.123v19.353h35.682Z" transform="translate(-103.506 -314.901)" fill="#f0c518"/>
          <path id="Trazado_876714" data-name="Trazado 876714" d="M132.243,478.56l-3.482-.253H95.873a.881.881,0,0,0-.881.881h0a2.256,2.256,0,0,0,2.256,2.256h30.978l2.763-.372c1.246,0,2.136-.385,2.136-1.631A.882.882,0,0,0,132.243,478.56Z" transform="translate(-94.992 -458.767)" fill="#f0c518"/>
          <path id="Trazado_876715" data-name="Trazado 876715" d="M363.234,314.9h-3.586a2.123,2.123,0,0,1,2.123,2.123v19.354h3.586V317.025A2.123,2.123,0,0,0,363.234,314.9Z" transform="translate(-328.001 -314.902)" fill="#dbb20d"/>
          <path id="Trazado_876716" data-name="Trazado 876716" d="M375.379,478.307h-3.861v2.339a.8.8,0,0,1-.8.8H374a2.256,2.256,0,0,0,2.256-2.256h0A.881.881,0,0,0,375.379,478.307Z" transform="translate(-337.748 -458.767)" fill="#dbb20d"/>
        </g>
      </g>
    </g>
    <g id="Grupo_1100449" data-name="Grupo 1100449" transform="translate(249.139 5110.384)">
      <path id="Trazado_876720" data-name="Trazado 876720" d="M234.921,223.391a3.994,3.994,0,0,1-3.615,0,.9.9,0,0,0-.814,1.6,5.792,5.792,0,0,0,5.243,0,.9.9,0,1,0-.814-1.6Z" transform="translate(-202.502 -196.593)"/>
      <path id="Trazado_876723" data-name="Trazado 876723" d="M434.559,234.673v-2.28a2.828,2.828,0,0,0-5.656,0v2.28a2.828,2.828,0,0,0,5.656,0Zm-1.794,0a1.035,1.035,0,0,1-2.069,0v-2.28a1.035,1.035,0,0,1,2.069,0Z" transform="translate(-377.619 -202.114)"/>
      <path id="Trazado_876724" data-name="Trazado 876724" d="M467.549,311.464a2.831,2.831,0,0,0-2.828,2.828v2.28a2.828,2.828,0,0,0,5.656,0v-2.28A2.831,2.831,0,0,0,467.549,311.464Zm1.034,5.109a1.035,1.035,0,0,1-2.069,0v-2.28a1.035,1.035,0,0,1,2.069,0Z" transform="translate(-409.154 -274.22)"/>
      <path id="Trazado_876725" data-name="Trazado 876725" d="M429.8,311.464a.9.9,0,0,0-.9.9V318.5a.9.9,0,0,0,1.794,0v-6.143A.9.9,0,0,0,429.8,311.464Z" transform="translate(-377.618 -274.22)"/>
      <path id="Trazado_876726" data-name="Trazado 876726" d="M497.921,229.563a.9.9,0,0,0-.9.9V236.6a.9.9,0,1,0,1.794,0V230.46A.9.9,0,0,0,497.921,229.563Z" transform="translate(-437.594 -202.113)"/>
      <path id="Trazado_876727" data-name="Trazado 876727" d="M38.671,229.563a2.831,2.831,0,0,0-2.828,2.828v2.28a2.828,2.828,0,0,0,5.656,0v-2.28A2.831,2.831,0,0,0,38.671,229.563Zm1.034,5.109a1.035,1.035,0,0,1-2.069,0v-2.28a1.035,1.035,0,0,1,2.069,0Z" transform="translate(-31.56 -202.113)"/>
      <path id="Trazado_876728" data-name="Trazado 876728" d="M2.853,311.464a2.831,2.831,0,0,0-2.828,2.828v2.28a2.828,2.828,0,0,0,5.656,0v-2.28A2.831,2.831,0,0,0,2.853,311.464Zm1.035,5.109a1.035,1.035,0,0,1-2.069,0v-2.28a1.035,1.035,0,0,1,2.069,0Z" transform="translate(-0.025 -274.22)"/>
      <path id="Trazado_876729" data-name="Trazado 876729" d="M69.043,311.464a.9.9,0,0,0-.9.9V318.5a.9.9,0,0,0,1.794,0v-6.143A.9.9,0,0,0,69.043,311.464Z" transform="translate(-60 -274.22)"/>
      <path id="Trazado_876730" data-name="Trazado 876730" d="M.921,237.5a.9.9,0,0,0,.9-.9V230.46a.9.9,0,1,0-1.794,0V236.6A.9.9,0,0,0,.921,237.5Z" transform="translate(-0.024 -202.113)"/>
      <path id="Trazado_876731" data-name="Trazado 876731" d="M188.139,363.32a.9.9,0,0,0-1.268,0l-3.031,3.031a.9.9,0,0,0,0,1.268l3.031,3.031a.9.9,0,0,0,1.268-1.268l-2.4-2.4,2.4-2.4A.9.9,0,0,0,188.139,363.32Z" transform="translate(-161.628 -319.644)"/>
      <path id="Trazado_876732" data-name="Trazado 876732" d="M288.386,370.65a.9.9,0,0,0,1.268,0l3.031-3.031a.9.9,0,0,0,0-1.268l-3.031-3.031a.9.9,0,0,0-1.268,1.268l2.4,2.4-2.4,2.4A.9.9,0,0,0,288.386,370.65Z" transform="translate(-253.673 -319.644)"/>
      <path id="Trazado_876733" data-name="Trazado 876733" d="M238.022,366.177a.9.9,0,0,0,.844-.593l2.726-7.549a.9.9,0,0,0-1.687-.609l-2.726,7.55a.9.9,0,0,0,.844,1.2Z" transform="translate(-208.773 -314.164)"/>
      <path id="Trazado_876734" data-name="Trazado 876734" d="M126.565,56.411V39.767a3.025,3.025,0,0,0-1.773-2.751,5.777,5.777,0,0,0,.8-5.616,4.275,4.275,0,0,0-2.389-7.044,4.3,4.3,0,0,0-1.88-2.713,6.24,6.24,0,0,0,1.87-4.44,3.017,3.017,0,0,0-1.482-2.6V10.691a10.6,10.6,0,0,0-1.8-5.945.9.9,0,1,0-1.487,1,8.81,8.81,0,0,1,1.5,4.943v3.5h-1.683a1,1,0,0,1-.94-.669,11.982,11.982,0,0,0-6.216-6.911l-2.623-1.235V2.192a8.779,8.779,0,0,1,7.214.924.9.9,0,0,0,.939-1.528A10.587,10.587,0,0,0,107.558.6,10.676,10.676,0,0,0,93.406,10.691v3.917a3.017,3.017,0,0,0-1.482,2.6,6.241,6.241,0,0,0,1.87,4.44,4.3,4.3,0,0,0-1.88,2.713A4.275,4.275,0,0,0,89.525,31.4a5.774,5.774,0,0,0,.8,5.616,3.025,3.025,0,0,0-1.773,2.751V48.28a.9.9,0,0,0,1.794,0V39.767a1.229,1.229,0,0,1,1.227-1.228h24.571a.9.9,0,1,0,0-1.794h-3.918V32.651a7.826,7.826,0,0,0,.634-.532l3.6-3.371a8.443,8.443,0,0,0,2.659-5.7q.258-.1.505-.212a2.483,2.483,0,0,1,1.061,4.252.9.9,0,1,0,1.2,1.331,4.284,4.284,0,0,0,1.3-2.212,2.479,2.479,0,0,1,.763,4.289l-.007.006a2.453,2.453,0,0,1-1.542.538.9.9,0,0,0,0,1.794,4.286,4.286,0,0,0,1.662-.338,3.976,3.976,0,0,1-1.545,4.253h-2.19a.9.9,0,1,0,0,1.794h3.217a1.229,1.229,0,0,1,1.227,1.228V56.3H90.345V52.465a.9.9,0,1,0-1.794,0v3.946a1.78,1.78,0,0,0-1.157,1.665,3.158,3.158,0,0,0,3.154,3.154h34.019a3.158,3.158,0,0,0,3.154-3.155,1.78,1.78,0,0,0-1.157-1.665Zm-7.433-35.343V15.981h1.044A1.224,1.224,0,0,1,121.4,17.2,4.453,4.453,0,0,1,119.132,21.069ZM94.94,15.981h1.044v5.088A4.453,4.453,0,0,1,93.718,17.2,1.224,1.224,0,0,1,94.94,15.981ZM91.93,26.2a4.284,4.284,0,0,0,1.3,2.212.9.9,0,0,0,1.2-1.331,2.483,2.483,0,0,1,1.061-4.252q.246.117.5.212a8.443,8.443,0,0,0,2.66,5.7l3.6,3.371a7.81,7.81,0,0,0,.634.532v4.1H92.6a3.976,3.976,0,0,1-1.545-4.253,4.286,4.286,0,0,0,1.662.338.9.9,0,0,0,0-1.794,2.453,2.453,0,0,1-1.542-.538l-.007-.006A2.479,2.479,0,0,1,91.93,26.2Zm18.5,10.542h-5.746V33.664a7.772,7.772,0,0,0,5.745,0v3.082Zm6.907-14.165a6.654,6.654,0,0,1-2.105,4.858l-3.6,3.371a5.957,5.957,0,0,1-8.149,0l-3.6-3.371a6.654,6.654,0,0,1-2.106-4.858V15.833a2.8,2.8,0,0,0,1.739-1.728,10.145,10.145,0,0,1,1.053-2.163.9.9,0,1,0-1.508-.97,11.937,11.937,0,0,0-1.238,2.545,1,1,0,0,1-.94.67H95.2v-3.5a8.882,8.882,0,0,1,11.461-8.5v3.18l-2.623,1.235a11.982,11.982,0,0,0-1.858,1.09.9.9,0,1,0,1.044,1.459,10.185,10.185,0,0,1,1.579-.926l2.756-1.3,2.755,1.3a10.189,10.189,0,0,1,5.286,5.877,2.8,2.8,0,0,0,1.739,1.727v6.747Zm7.229,36.856H90.549a1.362,1.362,0,0,1-1.361-1.346h36.74A1.362,1.362,0,0,1,124.568,59.436Z" transform="translate(-76.947 -0.001)"/>
    </g>
  </g>
</svg>
