<svg xmlns="http://www.w3.org/2000/svg" xmlns:xlink="http://www.w3.org/1999/xlink" width="119" height="147.5" viewBox="0 0 119 147.5">
  <defs>
    <filter id="Trazado_836181" x="0" y="0" width="119" height="119" filterUnits="userSpaceOnUse">
      <feOffset input="SourceAlpha"/>
      <feGaussianBlur stdDeviation="5.5" result="blur"/>
      <feFlood flood-color="#fff" flood-opacity="0.659"/>
      <feComposite operator="in" in2="blur"/>
      <feComposite in="SourceGraphic"/>
    </filter>
  </defs>
  <g id="Grupo_1105948" data-name="Grupo 1105948" transform="translate(-6422.5 10979.5)">
    <g id="Grupo_1105251" data-name="Grupo 1105251" transform="translate(5310 -15803)">
      <g transform="matrix(1, 0, 0, 1, 1112.5, 4823.5)" filter="url(#Trazado_836181)">
        <path id="Trazado_836181-2" data-name="Trazado 836181" d="M43,0A43,43,0,1,1,0,43,43,43,0,0,1,43,0Z" transform="translate(16.5 16.5)" fill="#4df5df"/>
      </g>
      <g id="Filled_outline" data-name="Filled outline" transform="translate(1128.849 4840.849)">
        <path id="Trazado_890726" data-name="Trazado 890726" d="M321.946,227.315v4.973H312v-4.973a1.657,1.657,0,0,0,1.658-1.658V224h6.631v1.658a1.655,1.655,0,0,0,1.658,1.658Z" transform="translate(-265.333 -186.451)" fill="#fdc8a2"/>
        <path id="Trazado_890727" data-name="Trazado 890727" d="M332.037,226.3a7.885,7.885,0,0,1-7.077.326,1.653,1.653,0,0,0,.315-.973V224h6.631v1.658A1.642,1.642,0,0,0,332.037,226.3Z" transform="translate(-276.95 -186.451)" fill="#fdbf92"/>
        <path id="Trazado_890728" data-name="Trazado 890728" d="M226.065,259.126,224,264.288h6.631v12.432H245.55V264.288h5.8v-3.315A4.973,4.973,0,0,0,246.379,256h-3.315l-.93,1.24a5.189,5.189,0,0,1-8.793-.793l-.223-.447h-2.435a4.973,4.973,0,0,0-4.618,3.126Z" transform="translate(-186.45 -215.135)" fill="#de5540"/>
        <path id="Trazado_890729" data-name="Trazado 890729" d="M182.631,348.432H176L180.973,336H187.6Z" transform="translate(-143.423 -286.847)" fill="#fdc8a2"/>
        <path id="Trazado_890730" data-name="Trazado 890730" d="M2.487,0H4.144V4.973H2.487A2.487,2.487,0,1,1,2.487,0Z" transform="translate(61.586 32.576) rotate(180)" fill="#fdb683"/>
        <path id="Trazado_890731" data-name="Trazado 890731" d="M258.487,128h1.658v4.973h-1.658a2.487,2.487,0,1,1,0-4.973Z" transform="translate(-215.135 -100.397)" fill="#fdb683"/>
        <path id="Trazado_890732" data-name="Trazado 890732" d="M284.973,64h5.8a4.973,4.973,0,0,1,4.973,4.973V74.36a7.874,7.874,0,1,1-15.748,0V68.973A4.973,4.973,0,0,1,284.973,64Z" transform="translate(-236.649 -43.027)" fill="#fdc8a2"/>
        <path id="Trazado_890733" data-name="Trazado 890733" d="M388.973,49.117l-1.828-.609A4.6,4.6,0,0,1,384,44.144V40a4.973,4.973,0,0,1,4.973,4.973Z" transform="translate(-329.874 -21.514)" fill="#7d4a38"/>
        <g id="Grupo_1105276" data-name="Grupo 1105276" transform="translate(41.694 16.829)">
          <path id="Trazado_890734" data-name="Trazado 890734" d="M276.432,25.658V29.8a19.731,19.731,0,0,1-10.95,3.315H264V30.631A6.631,6.631,0,0,1,270.631,24h3.12a3,3,0,0,1,2.683,1.658Z" transform="translate(-264 -24)" fill="#844e3a"/>
        </g>
        <path id="Trazado_890738" data-name="Trazado 890738" d="M24,456H72.072v3.315H24Z" transform="translate(-7.171 -394.414)" fill="#844e3a"/>
        <rect id="Rect치ngulo_405337" data-name="Rect치ngulo 405337" width="28" height="20" rx="10" transform="translate(17.151 35.151)" fill="#d5d5d3"/>
        <path id="Trazado_890739" data-name="Trazado 890739" d="M160,348.973h3.315L162.486,344H160Z" transform="translate(-129.081 -294.018)" fill="#cececc"/>
        <path id="Trazado_890740" data-name="Trazado 890740" d="M112,424h9.946v3.315H112Z" transform="translate(-86.054 -365.73)" fill="#d5d5d3"/>
        <path id="Trazado_890741" data-name="Trazado 890741" d="M88.288,355.6H80L84.973,344h5.8Z" transform="translate(-57.369 -294.018)" fill="#dfdfdd"/>
        <path id="Trazado_890742" data-name="Trazado 890742" d="M240,424h9.946v3.315H240Z" transform="translate(-200.793 -365.73)" fill="#d5d5d3"/>
        <path id="Trazado_890743" data-name="Trazado 890743" d="M310.09,336v6.631H299.315A3.315,3.315,0,0,0,296,345.946V347.6a.829.829,0,0,0,.829.829H310.09a5.8,5.8,0,0,0,5.8-5.8V336Z" transform="translate(-250.991 -286.847)" fill="#fdc8a2"/>
        <path id="Trazado_890744" data-name="Trazado 890744" d="M59.928,40.036H56.613a.827.827,0,0,1-.829-.829v-.465a8.731,8.731,0,0,0,3.905-5.39,3.315,3.315,0,0,0,.239-6.473v-3.42a5.809,5.809,0,0,0-5.316-5.78A3.8,3.8,0,0,0,51.444,16h-3.12a7.468,7.468,0,0,0-7.46,7.46v2.487a.829.829,0,0,0,.829.829h.829v.1a3.315,3.315,0,0,0,.236,6.472q.032.136.069.272l1.6-.435a7.063,7.063,0,0,1-.246-1.855V26.75a20.481,20.481,0,0,0,9.3-2.74,5.42,5.42,0,0,0,3.534,3.77l1.261.42v3.132a7.046,7.046,0,0,1-11.123,5.745l-.961,1.351A8.722,8.722,0,0,0,47.5,39.2v.01a.83.83,0,0,1-.829.829h-.829V37.549a3.319,3.319,0,0,0-3.315-3.315H19.315A3.319,3.319,0,0,0,16,37.549v2.486h1.658V37.549a1.66,1.66,0,0,1,1.658-1.658H42.523a1.66,1.66,0,0,1,1.658,1.658V52.468a1.66,1.66,0,0,1-1.658,1.658H33.365l.851-3.971a.829.829,0,0,0-.81-1H27.6a.829.829,0,0,0-.762.5l-1.916,4.471H19.315a1.66,1.66,0,0,1-1.658-1.658V41.694H16V52.468a3.319,3.319,0,0,0,3.315,3.315h4.9l-2.132,4.973H16.829a.829.829,0,0,0-.829.829V64.9a.829.829,0,0,0,.829.829H64.9a.829.829,0,0,0,.829-.829V61.586a.829.829,0,0,0-.829-.829H63.478a6.615,6.615,0,0,0,2.252-4.973v-.829H64.072v.829A4.979,4.979,0,0,1,59.1,60.757H45.838V59.1a2.489,2.489,0,0,1,2.487-2.487H59.1a.829.829,0,0,0,.829-.829v-5.8h4.144V53.3H65.73v-7.46a5.808,5.808,0,0,0-5.8-5.8Zm0-8.7V28.657a1.655,1.655,0,0,1,.344,2.6,1.679,1.679,0,0,1-.349.265c0-.065,0-.129,0-.194ZM41.694,30.09a1.65,1.65,0,0,1,.485-1.171,1.674,1.674,0,0,1,.344-.262v2.677c0,.064,0,.128,0,.192A1.658,1.658,0,0,1,41.694,30.09Zm11.6-7.909a18.849,18.849,0,0,1-10.121,2.936h-.654v-.923c7.1-.929,9.6-3.357,9.7-3.464l-1.167-1.177A8.015,8.015,0,0,1,49,20.794,23.242,23.242,0,0,1,42.6,22.51a5.757,5.757,0,0,1,.486-1.546,12.231,12.231,0,0,0,4.779-.908l-.737-1.485a9.371,9.371,0,0,1-2.757.645,5.779,5.779,0,0,1,3.952-1.559h3.12A2.157,2.157,0,0,1,53.3,18.7Zm4.236,4.027a3.766,3.766,0,0,1-2.578-3.577V19.4a4.152,4.152,0,0,1,3.315,4.061v2.994ZM49.088,39.771a8.71,8.71,0,0,0,5.06-.241,2.475,2.475,0,0,0,.707,1.437,2.508,2.508,0,0,0,.4.325l-.236.315a4.355,4.355,0,0,1-7.137-.232,2.5,2.5,0,0,0,1.2-1.6ZM44.18,59.1v1.658H40.036V59.1Zm-1.76-3.315h.1a3.309,3.309,0,0,0,.829-.1v1.763H41.758Zm-6.631,0h4.845l-.663,1.658h-.765a.829.829,0,0,0-.829.829v2.486H36.721V58.27a.829.829,0,0,0-.829-.829h-.765Zm-2.78,0H34l-.663,1.658h-.687ZM35.063,59.1v1.658H31.945L32.3,59.1ZM28.15,50.811h4.23l-2.131,9.946H23.887Zm35.922,11.6v1.658H17.658V62.414Zm0-14.09H59.928V45.838H58.27v9.117H48.324a4.14,4.14,0,0,0-3.315,1.66V54.657a3.3,3.3,0,0,0,.829-2.189V41.694h.317a6.018,6.018,0,0,0,10.191.908l.681-.908h2.9a4.149,4.149,0,0,1,4.144,4.144Zm-9.181-2.4.723,1.492a9.117,9.117,0,0,1-8.533-.31l.829-1.436a7.459,7.459,0,0,0,6.981.253Zm-9.053-16.66Zm9.946,0ZM27.6,40.036H24.288V38.378H27.6Zm4.973-1.658v1.658H29.261V38.378Zm4.973,0v1.658H34.234V38.378Zm4.973,1.658H39.207V38.378h3.315ZM22.631,38.378v1.658H19.315V38.378Z" transform="translate(0 0)"/>
      </g>
    </g>
    <rect id="Rect치ngulo_405328" data-name="Rect치ngulo 405328" width="30" height="30" rx="3" transform="translate(6467 -10862)" fill="#f0c518"/>
    <path id="Trazado_891249" data-name="Trazado 891249" d="M8.75,10.3a5.762,5.762,0,0,1-.977,3.609,3.409,3.409,0,0,1-2.859,1.25A3.433,3.433,0,0,1,2.07,13.93a5.594,5.594,0,0,1-1.008-3.516V8.32A5.687,5.687,0,0,1,2.051,4.7,3.434,3.434,0,0,1,4.9,3.469,3.437,3.437,0,0,1,7.742,4.691,5.576,5.576,0,0,1,8.75,8.2Zm-2.258-2.3a4.165,4.165,0,0,0-.387-2.061A1.307,1.307,0,0,0,4.9,5.289,1.284,1.284,0,0,0,3.723,5.9a3.9,3.9,0,0,0-.4,1.92v2.768A4.372,4.372,0,0,0,3.7,12.659a1.29,1.29,0,0,0,1.215.676,1.268,1.268,0,0,0,1.2-.649A4.268,4.268,0,0,0,6.492,10.7Zm10.461,2.724h1.289v1.82H16.953V15H14.7V12.539H10.031l-.1-1.422,4.742-7.492h2.281Zm-4.773,0H14.7V6.7l-.148.258Z" transform="translate(6473 -10857)" fill="#12263f"/>
  </g>
</svg>
