<svg xmlns="http://www.w3.org/2000/svg" width="432.152" height="660.558" viewBox="0 0 432.152 660.558">
  <g id="Grupo_1105396" data-name="Grupo 1105396" transform="translate(-325.965 -6268.041)">
    <path id="Unión_27" data-name="Unión 27" d="M-1516,11740.5h6.264V11712h4.474v28.5H-1499l-8.5,6.3Z" transform="translate(2045 -5415.959)" fill="#3a1d71"/>
    <path id="Unión_46" data-name="Unión 46" d="M-1516,11740.5h6.264V11712h4.474v28.5H-1499l-8.5,6.3Z" transform="translate(2045 -5257.652)" fill="#3a1d71"/>
    <rect id="Rectángulo_405381" data-name="Rectángulo 405381" width="94" height="35" rx="17.5" transform="translate(491 6268.041)" fill="#f0c518"/>
    <path id="Trazado_891246" data-name="Trazado 891246" d="M2.93,0H1.43V-11.375h1.5ZM6.813-8.453l.047,1.063A3.08,3.08,0,0,1,9.391-8.609q2.68,0,2.7,3.023V0H10.648V-5.594a1.946,1.946,0,0,0-.418-1.352,1.675,1.675,0,0,0-1.277-.437,2.086,2.086,0,0,0-1.234.375,2.546,2.546,0,0,0-.828.984V0H5.445V-8.453ZM15.844,0H14.4V-8.453h1.445ZM14.281-10.7a.863.863,0,0,1,.215-.594.807.807,0,0,1,.637-.242.819.819,0,0,1,.641.242.854.854,0,0,1,.219.594.826.826,0,0,1-.219.586.834.834,0,0,1-.641.234.821.821,0,0,1-.637-.234A.834.834,0,0,1,14.281-10.7Zm7.266,9.672A2.082,2.082,0,0,0,22.9-1.492a1.649,1.649,0,0,0,.641-1.172h1.367a2.621,2.621,0,0,1-.5,1.383,3.293,3.293,0,0,1-1.23,1.047,3.55,3.55,0,0,1-1.629.391A3.482,3.482,0,0,1,18.8-1a4.59,4.59,0,0,1-1.02-3.152v-.242a5.089,5.089,0,0,1,.453-2.2,3.451,3.451,0,0,1,1.3-1.492,3.7,3.7,0,0,1,2-.531,3.39,3.39,0,0,1,2.363.852,3.043,3.043,0,0,1,1,2.211H23.539a1.992,1.992,0,0,0-.621-1.348,1.932,1.932,0,0,0-1.379-.527,2.023,2.023,0,0,0-1.707.793,3.724,3.724,0,0,0-.605,2.293v.273a3.65,3.65,0,0,0,.6,2.25A2.033,2.033,0,0,0,21.547-1.023ZM28.1,0H26.656V-8.453H28.1ZM26.539-10.7a.863.863,0,0,1,.215-.594.807.807,0,0,1,.637-.242.819.819,0,0,1,.641.242.854.854,0,0,1,.219.594.826.826,0,0,1-.219.586.834.834,0,0,1-.641.234.821.821,0,0,1-.637-.234A.834.834,0,0,1,26.539-10.7ZM30.031-4.3a4.993,4.993,0,0,1,.488-2.234A3.643,3.643,0,0,1,31.879-8.07a3.7,3.7,0,0,1,1.988-.539,3.565,3.565,0,0,1,2.793,1.2,4.6,4.6,0,0,1,1.066,3.18v.1a5.036,5.036,0,0,1-.473,2.215A3.589,3.589,0,0,1,35.9-.391a3.743,3.743,0,0,1-2.02.547,3.556,3.556,0,0,1-2.785-1.2A4.575,4.575,0,0,1,30.031-4.2Zm1.453.172a3.616,3.616,0,0,0,.652,2.258,2.088,2.088,0,0,0,1.746.852,2.075,2.075,0,0,0,1.75-.863A3.955,3.955,0,0,0,36.281-4.3a3.61,3.61,0,0,0-.66-2.254,2.1,2.1,0,0,0-1.754-.863,2.075,2.075,0,0,0-1.727.852A3.925,3.925,0,0,0,31.484-4.133Z" transform="translate(519 6292.041)" fill="#12263f"/>
    <path id="Unión_24" data-name="Unión 24" d="M-1516,11744.6h6.264V11712h4.474v32.6H-1499l-8.5,7.2Z" transform="translate(2045 -5098.105)" fill="#3a1d71"/>
    <g id="Grupo_1105321" data-name="Grupo 1105321" transform="translate(-0.8 2658.43)">
      <rect id="Rectángulo_405353" data-name="Rectángulo 405353" width="94" height="35" rx="17.5" transform="translate(491 4235.169)" fill="#f0c518"/>
      <path id="Trazado_891256" data-name="Trazado 891256" d="M7.594-5.023H2.82V0H1.32V-11.375H8.367v1.227H2.82v3.9H7.594ZM11.508,0H10.063V-8.453h1.445ZM9.945-10.7a.863.863,0,0,1,.215-.594.807.807,0,0,1,.637-.242.819.819,0,0,1,.641.242.854.854,0,0,1,.219.594.826.826,0,0,1-.219.586.834.834,0,0,1-.641.234.821.821,0,0,1-.637-.234A.834.834,0,0,1,9.945-10.7Zm5.242,2.242.047,1.063a3.08,3.08,0,0,1,2.531-1.219q2.68,0,2.7,3.023V0H19.023V-5.594a1.946,1.946,0,0,0-.418-1.352,1.675,1.675,0,0,0-1.277-.437,2.086,2.086,0,0,0-1.234.375,2.546,2.546,0,0,0-.828.984V0H13.82V-8.453Z" transform="translate(527 4259.169)" fill="#12263f"/>
    </g>
    <path id="Unión_8" data-name="Unión 8" d="M-1516,11744.6h6.264V11719h4.474v25.6H-1499l-8.5,7.2Z" transform="translate(2044.503 -4861.203)" fill="#3a1d71"/>
    <path id="Trazado_890893" data-name="Trazado 890893" d="M2346.072-9265.836l98.857-41.749-98.857-42.017-91.7,42.017Z" transform="translate(-1809.15 16005.298)" fill="#f0c518"/>
    <path id="Trazado_891251" data-name="Trazado 891251" d="M2.461-8.453l.047,1.063A3.08,3.08,0,0,1,5.039-8.609q2.68,0,2.7,3.023V0H6.3V-5.594a1.946,1.946,0,0,0-.418-1.352A1.675,1.675,0,0,0,4.6-7.383a2.086,2.086,0,0,0-1.234.375,2.546,2.546,0,0,0-.828.984V0H1.094V-8.453ZM14.741-.836a3.07,3.07,0,0,1-2.477.992,2.628,2.628,0,0,1-2.059-.785,3.4,3.4,0,0,1-.715-2.324v-5.5h1.445v5.461q0,1.922,1.563,1.922A2.163,2.163,0,0,0,14.7-2.3V-8.453h1.445V0H14.772ZM13.569-11.984h1.75l-2.094,2.3-1.164,0ZM19.3-8.453l.039.938a3.122,3.122,0,0,1,2.508-1.094A2.417,2.417,0,0,1,24.263-7.25a3.2,3.2,0,0,1,1.1-.984,3.242,3.242,0,0,1,1.6-.375q2.781,0,2.828,2.945V0H28.341V-5.578a1.941,1.941,0,0,0-.414-1.355,1.823,1.823,0,0,0-1.391-.449A1.916,1.916,0,0,0,25.2-6.9a1.949,1.949,0,0,0-.617,1.293V0H23.13V-5.539a1.613,1.613,0,0,0-1.8-1.844A1.934,1.934,0,0,0,19.38-6.172V0H17.934V-8.453ZM35.073.156a3.693,3.693,0,0,1-2.8-1.129A4.19,4.19,0,0,1,31.2-3.992v-.266a5.073,5.073,0,0,1,.48-2.246,3.748,3.748,0,0,1,1.344-1.547,3.378,3.378,0,0,1,1.871-.559,3.166,3.166,0,0,1,2.563,1.086,4.7,4.7,0,0,1,.914,3.109v.6H32.644a3,3,0,0,0,.73,2.02,2.3,2.3,0,0,0,1.777.77,2.517,2.517,0,0,0,1.3-.312,3.259,3.259,0,0,0,.93-.828l.883.688A3.55,3.55,0,0,1,35.073.156Zm-.18-7.578a1.928,1.928,0,0,0-1.469.637A3.1,3.1,0,0,0,32.691-5h4.234v-.109a2.753,2.753,0,0,0-.594-1.707A1.815,1.815,0,0,0,34.894-7.422Zm8.834.266a4.331,4.331,0,0,0-.711-.055A1.9,1.9,0,0,0,41.088-6V0H39.642V-8.453h1.406l.023.977a2.251,2.251,0,0,1,2.016-1.133,1.477,1.477,0,0,1,.641.109ZM44.117-4.3a4.993,4.993,0,0,1,.488-2.234A3.643,3.643,0,0,1,45.965-8.07a3.7,3.7,0,0,1,1.988-.539,3.565,3.565,0,0,1,2.793,1.2,4.6,4.6,0,0,1,1.066,3.18v.1a5.036,5.036,0,0,1-.473,2.215A3.589,3.589,0,0,1,49.988-.391a3.743,3.743,0,0,1-2.02.547,3.556,3.556,0,0,1-2.785-1.2A4.575,4.575,0,0,1,44.117-4.2Zm1.453.172a3.616,3.616,0,0,0,.652,2.258,2.088,2.088,0,0,0,1.746.852,2.075,2.075,0,0,0,1.75-.863A3.955,3.955,0,0,0,50.367-4.3a3.61,3.61,0,0,0-.66-2.254,2.1,2.1,0,0,0-1.754-.863,2.075,2.075,0,0,0-1.727.852A3.925,3.925,0,0,0,45.57-4.133ZM57.827,0H56.373V-9.633l-2.914,1.07V-9.875L57.6-11.43h.227ZM70.487-5.078,65.323-7.1V-8.586L72-5.633v1.141L65.323-1.531v-1.5Zm7.77-3.375L78.3-7.391a3.08,3.08,0,0,1,2.531-1.219q2.68,0,2.7,3.023V0H82.094V-5.594a1.946,1.946,0,0,0-.418-1.352A1.675,1.675,0,0,0,80.4-7.383a2.086,2.086,0,0,0-1.234.375,2.546,2.546,0,0,0-.828.984V0H76.891V-8.453ZM90.537-.836a3.07,3.07,0,0,1-2.477.992A2.628,2.628,0,0,1,86-.629a3.4,3.4,0,0,1-.715-2.324v-5.5h1.445v5.461q0,1.922,1.563,1.922A2.163,2.163,0,0,0,90.5-2.3V-8.453h1.445V0H90.569ZM89.366-11.984h1.75l-2.094,2.3-1.164,0ZM95.1-8.453l.039.938a3.122,3.122,0,0,1,2.508-1.094,2.417,2.417,0,0,1,2.414,1.359,3.2,3.2,0,0,1,1.1-.984,3.242,3.242,0,0,1,1.6-.375q2.781,0,2.828,2.945V0h-1.445V-5.578a1.941,1.941,0,0,0-.414-1.355,1.823,1.823,0,0,0-1.391-.449A1.916,1.916,0,0,0,101-6.9a1.949,1.949,0,0,0-.617,1.293V0H98.927V-5.539a1.613,1.613,0,0,0-1.8-1.844,1.934,1.934,0,0,0-1.945,1.211V0H93.731V-8.453ZM110.87.156a3.693,3.693,0,0,1-2.8-1.129A4.19,4.19,0,0,1,107-3.992v-.266a5.073,5.073,0,0,1,.48-2.246,3.748,3.748,0,0,1,1.344-1.547,3.378,3.378,0,0,1,1.871-.559,3.166,3.166,0,0,1,2.563,1.086,4.7,4.7,0,0,1,.914,3.109v.6h-5.727a3,3,0,0,0,.73,2.02,2.3,2.3,0,0,0,1.777.77,2.517,2.517,0,0,0,1.3-.312,3.259,3.259,0,0,0,.93-.828l.883.688A3.55,3.55,0,0,1,110.87.156Zm-.18-7.578a1.928,1.928,0,0,0-1.469.637A3.1,3.1,0,0,0,108.487-5h4.234v-.109a2.753,2.753,0,0,0-.594-1.707A1.815,1.815,0,0,0,110.691-7.422Zm8.834.266a4.331,4.331,0,0,0-.711-.055A1.9,1.9,0,0,0,116.884-6V0h-1.445V-8.453h1.406l.023.977a2.251,2.251,0,0,1,2.016-1.133,1.477,1.477,0,0,1,.641.109Zm.389,2.852a4.993,4.993,0,0,1,.488-2.234,3.643,3.643,0,0,1,1.359-1.531,3.7,3.7,0,0,1,1.988-.539,3.565,3.565,0,0,1,2.793,1.2,4.6,4.6,0,0,1,1.066,3.18v.1a5.036,5.036,0,0,1-.473,2.215,3.589,3.589,0,0,1-1.352,1.527,3.743,3.743,0,0,1-2.02.547,3.556,3.556,0,0,1-2.785-1.2A4.575,4.575,0,0,1,119.914-4.2Zm1.453.172a3.616,3.616,0,0,0,.652,2.258,2.088,2.088,0,0,0,1.746.852,2.075,2.075,0,0,0,1.75-.863,3.955,3.955,0,0,0,.648-2.418,3.61,3.61,0,0,0-.66-2.254,2.1,2.1,0,0,0-1.754-.863,2.075,2.075,0,0,0-1.727.852A3.925,3.925,0,0,0,121.367-4.133ZM136.327,0h-7.453V-1.039l3.938-4.375a9.355,9.355,0,0,0,1.207-1.613,2.692,2.692,0,0,0,.332-1.285,2.041,2.041,0,0,0-.539-1.461,1.885,1.885,0,0,0-1.437-.57,2.232,2.232,0,0,0-1.676.613,2.343,2.343,0,0,0-.6,1.707h-1.445a3.355,3.355,0,0,1,1.012-2.539,3.751,3.751,0,0,1,2.707-.969,3.6,3.6,0,0,1,2.508.832,2.838,2.838,0,0,1,.922,2.215q0,1.68-2.141,4l-3.047,3.3h5.711Z" transform="translate(469 6703.079)" fill="#12263f"/>
    <path id="Trazado_891253" data-name="Trazado 891253" d="M10.266,0H7.922L3.359-7.484V0H1.016V-11.375H3.359l4.57,7.5v-7.5h2.336ZM21.656-5.43a6.867,6.867,0,0,1-.594,2.945,4.472,4.472,0,0,1-1.7,1.953,4.7,4.7,0,0,1-2.535.688A4.732,4.732,0,0,1,14.3-.523a4.515,4.515,0,0,1-1.719-1.941,6.67,6.67,0,0,1-.617-2.9V-5.93a6.831,6.831,0,0,1,.605-2.957,4.508,4.508,0,0,1,1.711-1.961,4.706,4.706,0,0,1,2.527-.684,4.706,4.706,0,0,1,2.527.684,4.508,4.508,0,0,1,1.711,1.961,6.811,6.811,0,0,1,.605,2.949Zm-2.375-.516a4.787,4.787,0,0,0-.641-2.719,2.088,2.088,0,0,0-1.828-.93,2.088,2.088,0,0,0-1.82.918,4.732,4.732,0,0,0-.648,2.691v.555a4.847,4.847,0,0,0,.641,2.7,2.082,2.082,0,0,0,1.844.961,2.064,2.064,0,0,0,1.813-.926,4.819,4.819,0,0,0,.641-2.7Z" transform="translate(676 6687.306)" fill="#12263f"/>
    <path id="Trazado_891252" data-name="Trazado 891252" d="M6.914-2.984A1.2,1.2,0,0,0,6.445-4a6.148,6.148,0,0,0-1.687-.75,11.963,11.963,0,0,1-1.93-.777A3.153,3.153,0,0,1,.891-8.352,2.747,2.747,0,0,1,1.41-10,3.389,3.389,0,0,1,2.9-11.125a5.616,5.616,0,0,1,2.184-.406,5.112,5.112,0,0,1,2.172.441,3.458,3.458,0,0,1,1.48,1.246,3.261,3.261,0,0,1,.527,1.828H6.922A1.534,1.534,0,0,0,6.43-9.23a2.023,2.023,0,0,0-1.383-.434A2.162,2.162,0,0,0,3.711-9.3a1.146,1.146,0,0,0-.477.957,1.1,1.1,0,0,0,.559.93,6.311,6.311,0,0,0,1.645.7A7.106,7.106,0,0,1,8.352-5.219,2.972,2.972,0,0,1,9.266-3,2.737,2.737,0,0,1,8.148-.684a4.891,4.891,0,0,1-3.008.84A5.808,5.808,0,0,1,2.75-.324,3.783,3.783,0,0,1,1.105-1.641,3.371,3.371,0,0,1,.539-3.578H2.891q0,1.883,2.25,1.883a2.189,2.189,0,0,0,1.3-.34A1.106,1.106,0,0,0,6.914-2.984ZM13.344,0H11V-11.375h2.344Z" transform="translate(389.546 6687.306)" fill="#12263f"/>
    <path id="Unión_19" data-name="Unión 19" d="M0,151.091H4.474V0H0Z" transform="translate(386.965 6857.8) rotate(-90)" fill="#3a1d71"/>
    <g id="Grupo_1105394" data-name="Grupo 1105394" transform="translate(386.64 6691.383)">
      <path id="Polígono_26" data-name="Polígono 26" d="M6.2,0l6.2,7.2H0Z" transform="translate(57.557) rotate(90)" fill="#3a1d71"/>
      <path id="Unión_22" data-name="Unión 22" d="M0,49.095H4.474V0H0Z" transform="translate(2.236 8.433) rotate(-90)" fill="#3a1d71"/>
      <rect id="Rectángulo_405452" data-name="Rectángulo 405452" width="4.474" height="162.457" transform="translate(4.474 166.417) rotate(180)" fill="#3a1d71"/>
    </g>
    <path id="Trazado_890921" data-name="Trazado 890921" d="M1873.729-10913.992h98.864l22.125-49.853H1892.774l-23.246,49.853Z" transform="translate(-1394.527 17377.459)" fill="#f0c518"/>
    <path id="Trazado_890923" data-name="Trazado 890923" d="M1873.729-10913.992h98.864l22.125-49.853H1892.774l-23.246,49.853Z" transform="translate(-1394.527 17537.006)" fill="#f0c518"/>
    <path id="Trazado_891248" data-name="Trazado 891248" d="M2.461-8.453l.047,1.063A3.08,3.08,0,0,1,5.039-8.609q2.68,0,2.7,3.023V0H6.3V-5.594a1.946,1.946,0,0,0-.418-1.352A1.675,1.675,0,0,0,4.6-7.383a2.086,2.086,0,0,0-1.234.375,2.546,2.546,0,0,0-.828.984V0H1.094V-8.453ZM15.141-.836a3.07,3.07,0,0,1-2.477.992,2.628,2.628,0,0,1-2.059-.785,3.4,3.4,0,0,1-.715-2.324v-5.5h1.445v5.461q0,1.922,1.563,1.922A2.163,2.163,0,0,0,15.1-2.3V-8.453h1.445V0H15.172ZM13.969-11.984h1.75l-2.094,2.3-1.164,0ZM20.1-8.453l.039.938a3.122,3.122,0,0,1,2.508-1.094A2.417,2.417,0,0,1,25.063-7.25a3.2,3.2,0,0,1,1.1-.984,3.242,3.242,0,0,1,1.6-.375q2.781,0,2.828,2.945V0H29.141V-5.578a1.941,1.941,0,0,0-.414-1.355,1.823,1.823,0,0,0-1.391-.449A1.916,1.916,0,0,0,26-6.9a1.949,1.949,0,0,0-.617,1.293V0H23.93V-5.539a1.613,1.613,0,0,0-1.8-1.844A1.934,1.934,0,0,0,20.18-6.172V0H18.734V-8.453ZM36.273.156a3.693,3.693,0,0,1-2.8-1.129A4.19,4.19,0,0,1,32.4-3.992v-.266a5.073,5.073,0,0,1,.48-2.246,3.748,3.748,0,0,1,1.344-1.547,3.378,3.378,0,0,1,1.871-.559,3.166,3.166,0,0,1,2.563,1.086,4.7,4.7,0,0,1,.914,3.109v.6H33.844a3,3,0,0,0,.73,2.02,2.3,2.3,0,0,0,1.777.77,2.517,2.517,0,0,0,1.3-.312,3.259,3.259,0,0,0,.93-.828l.883.688A3.55,3.55,0,0,1,36.273.156Zm-.18-7.578a1.928,1.928,0,0,0-1.469.637A3.1,3.1,0,0,0,33.891-5h4.234v-.109a2.753,2.753,0,0,0-.594-1.707A1.815,1.815,0,0,0,36.094-7.422Zm9.234.266a4.331,4.331,0,0,0-.711-.055A1.9,1.9,0,0,0,42.688-6V0H41.242V-8.453h1.406l.023.977a2.251,2.251,0,0,1,2.016-1.133,1.477,1.477,0,0,1,.641.109ZM46.117-4.3a4.993,4.993,0,0,1,.488-2.234A3.643,3.643,0,0,1,47.965-8.07a3.7,3.7,0,0,1,1.988-.539,3.565,3.565,0,0,1,2.793,1.2,4.6,4.6,0,0,1,1.066,3.18v.1a5.036,5.036,0,0,1-.473,2.215A3.589,3.589,0,0,1,51.988-.391a3.743,3.743,0,0,1-2.02.547,3.556,3.556,0,0,1-2.785-1.2A4.575,4.575,0,0,1,46.117-4.2Zm1.453.172a3.616,3.616,0,0,0,.652,2.258,2.088,2.088,0,0,0,1.746.852,2.075,2.075,0,0,0,1.75-.863A3.955,3.955,0,0,0,52.367-4.3a3.61,3.61,0,0,0-.66-2.254,2.1,2.1,0,0,0-1.754-.863,2.075,2.075,0,0,0-1.727.852A3.925,3.925,0,0,0,47.57-4.133ZM60.227,0H58.773V-9.633l-2.914,1.07V-9.875L60-11.43h.227Z" transform="translate(506 6445.459)" fill="#12263f"/>
    <path id="Trazado_891250" data-name="Trazado 891250" d="M2.461-8.453l.047,1.063A3.08,3.08,0,0,1,5.039-8.609q2.68,0,2.7,3.023V0H6.3V-5.594a1.946,1.946,0,0,0-.418-1.352A1.675,1.675,0,0,0,4.6-7.383a2.086,2.086,0,0,0-1.234.375,2.546,2.546,0,0,0-.828.984V0H1.094V-8.453ZM15.141-.836a3.07,3.07,0,0,1-2.477.992,2.628,2.628,0,0,1-2.059-.785,3.4,3.4,0,0,1-.715-2.324v-5.5h1.445v5.461q0,1.922,1.563,1.922A2.163,2.163,0,0,0,15.1-2.3V-8.453h1.445V0H15.172ZM13.969-11.984h1.75l-2.094,2.3-1.164,0ZM20.1-8.453l.039.938a3.122,3.122,0,0,1,2.508-1.094A2.417,2.417,0,0,1,25.063-7.25a3.2,3.2,0,0,1,1.1-.984,3.242,3.242,0,0,1,1.6-.375q2.781,0,2.828,2.945V0H29.141V-5.578a1.941,1.941,0,0,0-.414-1.355,1.823,1.823,0,0,0-1.391-.449A1.916,1.916,0,0,0,26-6.9a1.949,1.949,0,0,0-.617,1.293V0H23.93V-5.539a1.613,1.613,0,0,0-1.8-1.844A1.934,1.934,0,0,0,20.18-6.172V0H18.734V-8.453ZM36.273.156a3.693,3.693,0,0,1-2.8-1.129A4.19,4.19,0,0,1,32.4-3.992v-.266a5.073,5.073,0,0,1,.48-2.246,3.748,3.748,0,0,1,1.344-1.547,3.378,3.378,0,0,1,1.871-.559,3.166,3.166,0,0,1,2.563,1.086,4.7,4.7,0,0,1,.914,3.109v.6H33.844a3,3,0,0,0,.73,2.02,2.3,2.3,0,0,0,1.777.77,2.517,2.517,0,0,0,1.3-.312,3.259,3.259,0,0,0,.93-.828l.883.688A3.55,3.55,0,0,1,36.273.156Zm-.18-7.578a1.928,1.928,0,0,0-1.469.637A3.1,3.1,0,0,0,33.891-5h4.234v-.109a2.753,2.753,0,0,0-.594-1.707A1.815,1.815,0,0,0,36.094-7.422Zm9.234.266a4.331,4.331,0,0,0-.711-.055A1.9,1.9,0,0,0,42.688-6V0H41.242V-8.453h1.406l.023.977a2.251,2.251,0,0,1,2.016-1.133,1.477,1.477,0,0,1,.641.109ZM46.117-4.3a4.993,4.993,0,0,1,.488-2.234A3.643,3.643,0,0,1,47.965-8.07a3.7,3.7,0,0,1,1.988-.539,3.565,3.565,0,0,1,2.793,1.2,4.6,4.6,0,0,1,1.066,3.18v.1a5.036,5.036,0,0,1-.473,2.215A3.589,3.589,0,0,1,51.988-.391a3.743,3.743,0,0,1-2.02.547,3.556,3.556,0,0,1-2.785-1.2A4.575,4.575,0,0,1,46.117-4.2Zm1.453.172a3.616,3.616,0,0,0,.652,2.258,2.088,2.088,0,0,0,1.746.852,2.075,2.075,0,0,0,1.75-.863A3.955,3.955,0,0,0,52.367-4.3a3.61,3.61,0,0,0-.66-2.254,2.1,2.1,0,0,0-1.754-.863,2.075,2.075,0,0,0-1.727.852A3.925,3.925,0,0,0,47.57-4.133ZM66.891,0H59.438V-1.039l3.938-4.375a9.354,9.354,0,0,0,1.207-1.613,2.693,2.693,0,0,0,.332-1.285,2.041,2.041,0,0,0-.539-1.461,1.885,1.885,0,0,0-1.437-.57,2.232,2.232,0,0,0-1.676.613,2.343,2.343,0,0,0-.6,1.707H59.219a3.355,3.355,0,0,1,1.012-2.539,3.751,3.751,0,0,1,2.707-.969,3.6,3.6,0,0,1,2.508.832,2.838,2.838,0,0,1,.922,2.215q0,1.68-2.141,4L61.18-1.18h5.711Z" transform="translate(501.699 6605.006)" fill="#12263f"/>
    <path id="Unión_45" data-name="Unión 45" d="M-1516,11744.6h6.264V11712h4.474v32.6H-1499l-8.5,7.2Z" transform="translate(2045 -5326.623)" fill="#3a1d71"/>
    <path id="Unión_47" data-name="Unión 47" d="M-1516,11744.6h6.264V11712h4.474v32.6H-1499l-8.5,7.2Z" transform="translate(2045 -5167.076)" fill="#3a1d71"/>
    <path id="Trazado_890920" data-name="Trazado 890920" d="M2585.617-8949v-54.813h121.328V-8949s1.878,6.794-28.454,6.794c-14.984,0-40.12-10.05-59.708-11.754C2599.339-8955.657,2585.617-8949,2585.617-8949Z" transform="translate(-2111.094 15339.549)" fill="#f0c518"/>
    <path id="Trazado_890922" data-name="Trazado 890922" d="M2585.617-8949v-54.813h121.328V-8949s1.878,6.794-28.454,6.794c-14.984,0-40.12-10.05-59.708-11.754C2599.339-8955.657,2585.617-8949,2585.617-8949Z" transform="translate(-2111.094 15497.854)" fill="#f0c518"/>
    <path id="Trazado_890924" data-name="Trazado 890924" d="M2585.617-8949v-54.813h121.328V-8949s1.878,6.794-28.454,6.794c-14.984,0-40.12-10.05-59.708-11.754C2599.339-8955.657,2585.617-8949,2585.617-8949Z" transform="translate(-2259.652 15754.184)" fill="#f0c518"/>
    <path id="Trazado_891247" data-name="Trazado 891247" d="M-26.927-10.254l-.22,2.622h-.813l.007-3.618h1.025Zm1.978,0-.22,2.622h-.813l.007-3.618h1.025Zm8.057,5.325h-4.622V-1.15h5.369V0h-6.775V-10.664h6.7v1.15h-5.3v3.435h4.622Zm6.9,2.827a1,1,0,0,0-.414-.853,3.983,3.983,0,0,0-1.443-.524,6.822,6.822,0,0,1-1.633-.527,2.324,2.324,0,0,1-.894-.732,1.752,1.752,0,0,1-.289-1.011A2.056,2.056,0,0,1-13.843-7.4a3.218,3.218,0,0,1,2.106-.674,3.311,3.311,0,0,1,2.186.7A2.21,2.21,0,0,1-8.712-5.6h-1.362a1.223,1.223,0,0,0-.472-.959,1.77,1.77,0,0,0-1.19-.4,1.852,1.852,0,0,0-1.157.322,1.014,1.014,0,0,0-.417.842.822.822,0,0,0,.388.74,4.776,4.776,0,0,0,1.4.476,7.308,7.308,0,0,1,1.644.542,2.4,2.4,0,0,1,.934.758,1.864,1.864,0,0,1,.3,1.08,2.028,2.028,0,0,1-.85,1.7,3.564,3.564,0,0,1-2.2.641A3.991,3.991,0,0,1-13.378-.19a2.74,2.74,0,0,1-1.146-.941,2.268,2.268,0,0,1-.414-1.307h1.355a1.4,1.4,0,0,0,.546,1.08,2.117,2.117,0,0,0,1.344.4,2.185,2.185,0,0,0,1.234-.311A.956.956,0,0,0-9.994-2.1ZM-3.7-.959A1.952,1.952,0,0,0-2.428-1.4a1.546,1.546,0,0,0,.6-1.1H-.546a2.457,2.457,0,0,1-.469,1.3A3.087,3.087,0,0,1-2.168-.22,3.329,3.329,0,0,1-3.7.146,3.265,3.265,0,0,1-6.27-.934a4.3,4.3,0,0,1-.956-2.955v-.227A4.771,4.771,0,0,1-6.8-6.174a3.236,3.236,0,0,1,1.219-1.4,3.464,3.464,0,0,1,1.879-.5,3.178,3.178,0,0,1,2.216.8A2.853,2.853,0,0,1-.546-5.2H-1.827A1.867,1.867,0,0,0-2.41-6.464,1.811,1.811,0,0,0-3.7-6.958a1.9,1.9,0,0,0-1.6.743,3.491,3.491,0,0,0-.568,2.15v.256A3.422,3.422,0,0,0-5.306-1.7,1.906,1.906,0,0,0-3.7-.959Zm8.5-5.75a4.061,4.061,0,0,0-.667-.051A1.786,1.786,0,0,0,2.333-5.625V0H.978V-7.925H2.3l.022.916a2.11,2.11,0,0,1,1.89-1.062,1.384,1.384,0,0,1,.6.1ZM7.526,0H6.171V-7.925H7.526ZM6.061-10.027a.809.809,0,0,1,.2-.557.756.756,0,0,1,.6-.227.768.768,0,0,1,.6.227.8.8,0,0,1,.205.557.774.774,0,0,1-.205.549.782.782,0,0,1-.6.22.77.77,0,0,1-.6-.22A.782.782,0,0,1,6.061-10.027ZM16.4-3.875a4.712,4.712,0,0,1-.835,2.919,2.668,2.668,0,0,1-2.241,1.1A2.763,2.763,0,0,1,11-.916L10.939,0H9.694V-11.25h1.355v4.2a2.747,2.747,0,0,1,2.263-1.018A2.684,2.684,0,0,1,15.579-6.98,4.853,4.853,0,0,1,16.4-3.992Zm-1.355-.154a3.662,3.662,0,0,0-.535-2.139,1.77,1.77,0,0,0-1.538-.754,1.989,1.989,0,0,0-1.926,1.245v3.428A2.045,2.045,0,0,0,12.99-1a1.76,1.76,0,0,0,1.516-.754A3.894,3.894,0,0,0,15.048-4.028ZM23,0a2.846,2.846,0,0,1-.19-.835,3.023,3.023,0,0,1-2.256.981,2.8,2.8,0,0,1-1.923-.663A2.145,2.145,0,0,1,17.882-2.2a2.24,2.24,0,0,1,.941-1.923A4.437,4.437,0,0,1,21.471-4.8h1.318v-.623a1.522,1.522,0,0,0-.425-1.132,1.707,1.707,0,0,0-1.252-.421,1.976,1.976,0,0,0-1.216.366,1.079,1.079,0,0,0-.491.886H18.043a1.87,1.87,0,0,1,.421-1.146,2.874,2.874,0,0,1,1.143-.875,3.844,3.844,0,0,1,1.586-.322,3.133,3.133,0,0,1,2.146.685A2.47,2.47,0,0,1,24.144-5.5v3.647a4.459,4.459,0,0,0,.278,1.736V0ZM20.753-1.033a2.381,2.381,0,0,0,1.208-.33,1.994,1.994,0,0,0,.828-.857V-3.845H21.727q-2.49,0-2.49,1.458a1.234,1.234,0,0,0,.425,1A1.633,1.633,0,0,0,20.753-1.033ZM-31.674,15.216a2.878,2.878,0,0,1-2.322.93,2.464,2.464,0,0,1-1.93-.736,3.186,3.186,0,0,1-.67-2.179V8.075h1.355v5.12q0,1.8,1.465,1.8a2.028,2.028,0,0,0,2.065-1.157V8.075h1.355V16h-1.289Zm4.658-7.141.044,1A2.888,2.888,0,0,1-24.6,7.929q2.512,0,2.534,2.834V16h-1.355V10.756a1.824,1.824,0,0,0-.392-1.267,1.57,1.57,0,0,0-1.2-.41,1.956,1.956,0,0,0-1.157.352,2.387,2.387,0,0,0-.776.923V16H-28.3V8.075Zm11.99,0,.044,1a2.888,2.888,0,0,1,2.373-1.143q2.512,0,2.534,2.834V16h-1.355V10.756a1.824,1.824,0,0,0-.392-1.267,1.57,1.57,0,0,0-1.2-.41,1.956,1.956,0,0,0-1.157.352,2.387,2.387,0,0,0-.776.923V16h-1.355V8.075Zm11.887,7.141a2.878,2.878,0,0,1-2.322.93,2.464,2.464,0,0,1-1.93-.736,3.186,3.186,0,0,1-.67-2.179V8.075h1.355v5.12q0,1.8,1.465,1.8a2.028,2.028,0,0,0,2.065-1.157V8.075H-1.82V16H-3.109Zm-1.1-10.452H-2.6L-4.559,6.918l-1.091,0Zm5.75,3.311.037.879A2.927,2.927,0,0,1,3.9,7.929,2.266,2.266,0,0,1,6.163,9.2,3,3,0,0,1,7.192,8.28a3.039,3.039,0,0,1,1.5-.352q2.607,0,2.651,2.761V16H9.987V10.771A1.82,1.82,0,0,0,9.6,9.5a1.71,1.71,0,0,0-1.3-.421,1.8,1.8,0,0,0-1.252.45,1.827,1.827,0,0,0-.579,1.212V16H5.1V10.807A1.512,1.512,0,0,0,3.409,9.079a1.813,1.813,0,0,0-1.824,1.135V16H.231V8.075Zm15.161,8.071a3.463,3.463,0,0,1-2.622-1.058,3.928,3.928,0,0,1-1.011-2.831v-.249a4.756,4.756,0,0,1,.45-2.106,3.514,3.514,0,0,1,1.26-1.45,3.167,3.167,0,0,1,1.754-.524,2.968,2.968,0,0,1,2.4,1.018,4.408,4.408,0,0,1,.857,2.915v.564H14.4a2.817,2.817,0,0,0,.685,1.893,2.153,2.153,0,0,0,1.666.721,2.36,2.36,0,0,0,1.216-.293,3.055,3.055,0,0,0,.872-.776l.828.645A3.328,3.328,0,0,1,16.674,16.146Zm-.168-7.1a1.807,1.807,0,0,0-1.377.6,2.9,2.9,0,0,0-.688,1.674h3.97v-.1a2.581,2.581,0,0,0-.557-1.6A1.7,1.7,0,0,0,16.505,9.042Zm8.657.249A4.06,4.06,0,0,0,24.5,9.24a1.786,1.786,0,0,0-1.809,1.135V16H21.332V8.075H22.65l.022.916a2.11,2.11,0,0,1,1.89-1.062,1.384,1.384,0,0,1,.6.1Zm.74,2.673A4.681,4.681,0,0,1,26.36,9.87a3.415,3.415,0,0,1,1.274-1.436A3.469,3.469,0,0,1,29.5,7.929a3.342,3.342,0,0,1,2.618,1.121,4.311,4.311,0,0,1,1,2.981v.1a4.722,4.722,0,0,1-.443,2.076,3.365,3.365,0,0,1-1.267,1.432,3.509,3.509,0,0,1-1.893.513A3.334,3.334,0,0,1,26.9,15.026a4.29,4.29,0,0,1-1-2.966Zm1.362.161a3.39,3.39,0,0,0,.612,2.117,2.072,2.072,0,0,0,3.278-.011,3.707,3.707,0,0,0,.608-2.267,3.384,3.384,0,0,0-.619-2.113A1.968,1.968,0,0,0,29.5,9.042a1.946,1.946,0,0,0-1.619.8A3.68,3.68,0,0,0,27.264,12.125Zm7.559-6.379L34.6,8.368H33.79L33.8,4.75h1.025Zm1.978,0-.22,2.622h-.813l.007-3.618H36.8Z" transform="translate(535.523 6356.729)" fill="#12263f"/>
    <path id="Trazado_891254" data-name="Trazado 891254" d="M-27.466-7.925l.044,1a2.888,2.888,0,0,1,2.373-1.143q2.512,0,2.534,2.834V0H-23.87V-5.244a1.824,1.824,0,0,0-.392-1.267,1.57,1.57,0,0,0-1.2-.41,1.956,1.956,0,0,0-1.157.352,2.387,2.387,0,0,0-.776.923V0h-1.355V-7.925ZM-15.579-.784A2.878,2.878,0,0,1-17.9.146,2.464,2.464,0,0,1-19.83-.59a3.186,3.186,0,0,1-.67-2.179V-7.925h1.355v5.12q0,1.8,1.465,1.8a2.028,2.028,0,0,0,2.065-1.157V-7.925h1.355V0h-1.289Zm-1.1-10.452h1.641L-17-9.082l-1.091,0Zm5.75,3.311.037.879A2.927,2.927,0,0,1-8.54-8.071,2.266,2.266,0,0,1-6.277-6.8,3,3,0,0,1-5.248-7.72a3.039,3.039,0,0,1,1.5-.352q2.607,0,2.651,2.761V0H-2.454V-5.229A1.82,1.82,0,0,0-2.842-6.5a1.71,1.71,0,0,0-1.3-.421,1.8,1.8,0,0,0-1.252.45,1.827,1.827,0,0,0-.579,1.212V0H-7.339V-5.193A1.512,1.512,0,0,0-9.031-6.921a1.813,1.813,0,0,0-1.824,1.135V0h-1.355V-7.925ZM4.233.146A3.463,3.463,0,0,1,1.611-.912,3.928,3.928,0,0,1,.6-3.743v-.249A4.756,4.756,0,0,1,1.051-6.1a3.514,3.514,0,0,1,1.26-1.45,3.167,3.167,0,0,1,1.754-.524,2.968,2.968,0,0,1,2.4,1.018,4.408,4.408,0,0,1,.857,2.915v.564H1.956A2.817,2.817,0,0,0,2.64-1.681a2.153,2.153,0,0,0,1.666.721,2.36,2.36,0,0,0,1.216-.293,3.055,3.055,0,0,0,.872-.776l.828.645A3.328,3.328,0,0,1,4.233.146Zm-.168-7.1a1.807,1.807,0,0,0-1.377.6A2.9,2.9,0,0,0,2-4.687h3.97v-.1a2.581,2.581,0,0,0-.557-1.6A1.7,1.7,0,0,0,4.065-6.958Zm8.657.249a4.061,4.061,0,0,0-.667-.051,1.786,1.786,0,0,0-1.809,1.135V0H8.892V-7.925H10.21l.022.916a2.11,2.11,0,0,1,1.89-1.062,1.384,1.384,0,0,1,.6.1Zm.74,2.673A4.681,4.681,0,0,1,13.92-6.13a3.415,3.415,0,0,1,1.274-1.436,3.469,3.469,0,0,1,1.864-.505,3.342,3.342,0,0,1,2.618,1.121,4.311,4.311,0,0,1,1,2.981v.1A4.722,4.722,0,0,1,20.233-1.8,3.365,3.365,0,0,1,18.966-.366a3.509,3.509,0,0,1-1.893.513A3.334,3.334,0,0,1,14.462-.974a4.29,4.29,0,0,1-1-2.966Zm1.362.161a3.39,3.39,0,0,0,.612,2.117,1.957,1.957,0,0,0,1.637.8,1.945,1.945,0,0,0,1.641-.809,3.707,3.707,0,0,0,.608-2.267A3.384,3.384,0,0,0,18.7-6.149a1.968,1.968,0,0,0-1.644-.809,1.946,1.946,0,0,0-1.619.8A3.68,3.68,0,0,0,14.824-3.875ZM26.689,0H25.327V-9.031l-2.732,1v-1.23l3.882-1.458h.212Z" transform="translate(386.965 6780.591)" fill="#12263f"/>
    <path id="Unión_48" data-name="Unión 48" d="M0,0H4.474V160.116H0Z" transform="translate(537.002 6857.8) rotate(-90)" fill="#3a1d71"/>
    <g id="Grupo_1105395" data-name="Grupo 1105395" transform="translate(639.886 6691.383)">
      <path id="Polígono_26-2" data-name="Polígono 26" d="M6.2,0l6.2,7.2H0Z" transform="translate(0 12.392) rotate(-90)" fill="#3a1d71"/>
      <path id="Unión_22-2" data-name="Unión 22" d="M0,0H4.474V49.095H0Z" transform="translate(6.226 8.433) rotate(-90)" fill="#3a1d71"/>
      <rect id="Rectángulo_405452-2" data-name="Rectángulo 405452" width="4.474" height="162.457" transform="translate(53.083 3.96)" fill="#3a1d71"/>
    </g>
    <path id="Trazado_890925" data-name="Trazado 890925" d="M2585.617-8949v-54.813h121.328V-8949s1.878,6.794-28.454,6.794c-14.984,0-40.12-10.05-59.708-11.754C2599.339-8955.657,2585.617-8949,2585.617-8949Z" transform="translate(-1948.851 15754.184)" fill="#f0c518"/>
    <path id="Trazado_891255" data-name="Trazado 891255" d="M-29.323-7.925l.044,1a2.888,2.888,0,0,1,2.373-1.143q2.512,0,2.534,2.834V0h-1.355V-5.244a1.824,1.824,0,0,0-.392-1.267,1.57,1.57,0,0,0-1.2-.41,1.956,1.956,0,0,0-1.157.352,2.387,2.387,0,0,0-.776.923V0H-30.6V-7.925ZM-17.435-.784a2.878,2.878,0,0,1-2.322.93,2.464,2.464,0,0,1-1.93-.736,3.186,3.186,0,0,1-.67-2.179V-7.925H-21v5.12Q-21-1-19.537-1a2.028,2.028,0,0,0,2.065-1.157V-7.925h1.355V0h-1.289Zm-1.1-10.452h1.641l-1.963,2.153-1.091,0Zm5.75,3.311.037.879A2.927,2.927,0,0,1-10.4-8.071,2.266,2.266,0,0,1-8.134-6.8,3,3,0,0,1-7.1-7.72a3.039,3.039,0,0,1,1.5-.352Q-3-8.071-2.955-5.31V0H-4.31V-5.229A1.82,1.82,0,0,0-4.7-6.5,1.71,1.71,0,0,0-6-6.921a1.8,1.8,0,0,0-1.252.45,1.827,1.827,0,0,0-.579,1.212V0H-9.2V-5.193a1.512,1.512,0,0,0-1.692-1.729,1.813,1.813,0,0,0-1.824,1.135V0h-1.355V-7.925ZM2.377.146A3.463,3.463,0,0,1-.245-.912,3.928,3.928,0,0,1-1.256-3.743v-.249A4.756,4.756,0,0,1-.806-6.1a3.514,3.514,0,0,1,1.26-1.45,3.167,3.167,0,0,1,1.754-.524,2.968,2.968,0,0,1,2.4,1.018,4.408,4.408,0,0,1,.857,2.915v.564H.1A2.817,2.817,0,0,0,.784-1.681,2.153,2.153,0,0,0,2.45-.959a2.36,2.36,0,0,0,1.216-.293,3.055,3.055,0,0,0,.872-.776l.828.645A3.328,3.328,0,0,1,2.377.146Zm-.168-7.1a1.807,1.807,0,0,0-1.377.6A2.9,2.9,0,0,0,.143-4.687h3.97v-.1a2.581,2.581,0,0,0-.557-1.6A1.7,1.7,0,0,0,2.208-6.958Zm8.657.249A4.061,4.061,0,0,0,10.2-6.76,1.786,1.786,0,0,0,8.39-5.625V0H7.035V-7.925H8.353l.022.916a2.11,2.11,0,0,1,1.89-1.062,1.384,1.384,0,0,1,.6.1Zm.74,2.673a4.681,4.681,0,0,1,.458-2.095,3.415,3.415,0,0,1,1.274-1.436A3.469,3.469,0,0,1,15.2-8.071,3.342,3.342,0,0,1,17.82-6.951a4.311,4.311,0,0,1,1,2.981v.1A4.722,4.722,0,0,1,18.376-1.8,3.365,3.365,0,0,1,17.109-.366a3.509,3.509,0,0,1-1.893.513A3.334,3.334,0,0,1,12.6-.974a4.29,4.29,0,0,1-1-2.966Zm1.362.161a3.39,3.39,0,0,0,.612,2.117,1.957,1.957,0,0,0,1.637.8,1.945,1.945,0,0,0,1.641-.809,3.707,3.707,0,0,0,.608-2.267,3.384,3.384,0,0,0-.619-2.113A1.968,1.968,0,0,0,15.2-6.958a1.946,1.946,0,0,0-1.619.8A3.68,3.68,0,0,0,12.968-3.875ZM31.08,0H24.093V-.974l3.691-4.1a8.77,8.77,0,0,0,1.132-1.512,2.524,2.524,0,0,0,.311-1.2,1.913,1.913,0,0,0-.505-1.37A1.767,1.767,0,0,0,27.374-9.7a2.093,2.093,0,0,0-1.571.575,2.2,2.2,0,0,0-.56,1.6H23.888a3.145,3.145,0,0,1,.948-2.38,3.516,3.516,0,0,1,2.538-.908,3.379,3.379,0,0,1,2.351.78,2.661,2.661,0,0,1,.864,2.076q0,1.575-2.007,3.75l-2.856,3.1H31.08Z" transform="translate(697.767 6780.591)" fill="#12263f"/>
    <path id="Trazado_891249" data-name="Trazado 891249" d="M-26.927-10.254l-.22,2.622h-.813l.007-3.618h1.025Zm1.978,0-.22,2.622h-.813l.007-3.618h1.025Zm8.057,5.325h-4.622V-1.15h5.369V0h-6.775V-10.664h6.7v1.15h-5.3v3.435h4.622Zm6.9,2.827a1,1,0,0,0-.414-.853,3.983,3.983,0,0,0-1.443-.524,6.822,6.822,0,0,1-1.633-.527,2.324,2.324,0,0,1-.894-.732,1.752,1.752,0,0,1-.289-1.011A2.056,2.056,0,0,1-13.843-7.4a3.218,3.218,0,0,1,2.106-.674,3.311,3.311,0,0,1,2.186.7A2.21,2.21,0,0,1-8.712-5.6h-1.362a1.223,1.223,0,0,0-.472-.959,1.77,1.77,0,0,0-1.19-.4,1.852,1.852,0,0,0-1.157.322,1.014,1.014,0,0,0-.417.842.822.822,0,0,0,.388.74,4.776,4.776,0,0,0,1.4.476,7.308,7.308,0,0,1,1.644.542,2.4,2.4,0,0,1,.934.758,1.864,1.864,0,0,1,.3,1.08,2.028,2.028,0,0,1-.85,1.7,3.564,3.564,0,0,1-2.2.641A3.991,3.991,0,0,1-13.378-.19a2.74,2.74,0,0,1-1.146-.941,2.268,2.268,0,0,1-.414-1.307h1.355a1.4,1.4,0,0,0,.546,1.08,2.117,2.117,0,0,0,1.344.4,2.185,2.185,0,0,0,1.234-.311A.956.956,0,0,0-9.994-2.1ZM-3.7-.959A1.952,1.952,0,0,0-2.428-1.4a1.546,1.546,0,0,0,.6-1.1H-.546a2.457,2.457,0,0,1-.469,1.3A3.087,3.087,0,0,1-2.168-.22,3.329,3.329,0,0,1-3.7.146,3.265,3.265,0,0,1-6.27-.934a4.3,4.3,0,0,1-.956-2.955v-.227A4.771,4.771,0,0,1-6.8-6.174a3.236,3.236,0,0,1,1.219-1.4,3.464,3.464,0,0,1,1.879-.5,3.178,3.178,0,0,1,2.216.8A2.853,2.853,0,0,1-.546-5.2H-1.827A1.867,1.867,0,0,0-2.41-6.464,1.811,1.811,0,0,0-3.7-6.958a1.9,1.9,0,0,0-1.6.743,3.491,3.491,0,0,0-.568,2.15v.256A3.422,3.422,0,0,0-5.306-1.7,1.906,1.906,0,0,0-3.7-.959Zm8.5-5.75a4.061,4.061,0,0,0-.667-.051A1.786,1.786,0,0,0,2.333-5.625V0H.978V-7.925H2.3l.022.916a2.11,2.11,0,0,1,1.89-1.062,1.384,1.384,0,0,1,.6.1ZM7.526,0H6.171V-7.925H7.526ZM6.061-10.027a.809.809,0,0,1,.2-.557.756.756,0,0,1,.6-.227.768.768,0,0,1,.6.227.8.8,0,0,1,.205.557.774.774,0,0,1-.205.549.782.782,0,0,1-.6.22.77.77,0,0,1-.6-.22A.782.782,0,0,1,6.061-10.027ZM16.4-3.875a4.712,4.712,0,0,1-.835,2.919,2.668,2.668,0,0,1-2.241,1.1A2.763,2.763,0,0,1,11-.916L10.939,0H9.694V-11.25h1.355v4.2a2.747,2.747,0,0,1,2.263-1.018A2.684,2.684,0,0,1,15.579-6.98,4.853,4.853,0,0,1,16.4-3.992Zm-1.355-.154a3.662,3.662,0,0,0-.535-2.139,1.77,1.77,0,0,0-1.538-.754,1.989,1.989,0,0,0-1.926,1.245v3.428A2.045,2.045,0,0,0,12.99-1a1.76,1.76,0,0,0,1.516-.754A3.894,3.894,0,0,0,15.048-4.028ZM23,0a2.846,2.846,0,0,1-.19-.835,3.023,3.023,0,0,1-2.256.981,2.8,2.8,0,0,1-1.923-.663A2.145,2.145,0,0,1,17.882-2.2a2.24,2.24,0,0,1,.941-1.923A4.437,4.437,0,0,1,21.471-4.8h1.318v-.623a1.522,1.522,0,0,0-.425-1.132,1.707,1.707,0,0,0-1.252-.421,1.976,1.976,0,0,0-1.216.366,1.079,1.079,0,0,0-.491.886H18.043a1.87,1.87,0,0,1,.421-1.146,2.874,2.874,0,0,1,1.143-.875,3.844,3.844,0,0,1,1.586-.322,3.133,3.133,0,0,1,2.146.685A2.47,2.47,0,0,1,24.144-5.5v3.647a4.459,4.459,0,0,0,.278,1.736V0ZM20.753-1.033a2.381,2.381,0,0,0,1.208-.33,1.994,1.994,0,0,0,.828-.857V-3.845H21.727q-2.49,0-2.49,1.458a1.234,1.234,0,0,0,.425,1A1.633,1.633,0,0,0,20.753-1.033ZM-31.674,15.216a2.878,2.878,0,0,1-2.322.93,2.464,2.464,0,0,1-1.93-.736,3.186,3.186,0,0,1-.67-2.179V8.075h1.355v5.12q0,1.8,1.465,1.8a2.028,2.028,0,0,0,2.065-1.157V8.075h1.355V16h-1.289Zm4.658-7.141.044,1A2.888,2.888,0,0,1-24.6,7.929q2.512,0,2.534,2.834V16h-1.355V10.756a1.824,1.824,0,0,0-.392-1.267,1.57,1.57,0,0,0-1.2-.41,1.956,1.956,0,0,0-1.157.352,2.387,2.387,0,0,0-.776.923V16H-28.3V8.075Zm11.99,0,.044,1a2.888,2.888,0,0,1,2.373-1.143q2.512,0,2.534,2.834V16h-1.355V10.756a1.824,1.824,0,0,0-.392-1.267,1.57,1.57,0,0,0-1.2-.41,1.956,1.956,0,0,0-1.157.352,2.387,2.387,0,0,0-.776.923V16h-1.355V8.075Zm11.887,7.141a2.878,2.878,0,0,1-2.322.93,2.464,2.464,0,0,1-1.93-.736,3.186,3.186,0,0,1-.67-2.179V8.075h1.355v5.12q0,1.8,1.465,1.8a2.028,2.028,0,0,0,2.065-1.157V8.075H-1.82V16H-3.109Zm-1.1-10.452H-2.6L-4.559,6.918l-1.091,0Zm5.75,3.311.037.879A2.927,2.927,0,0,1,3.9,7.929,2.266,2.266,0,0,1,6.163,9.2,3,3,0,0,1,7.192,8.28a3.039,3.039,0,0,1,1.5-.352q2.607,0,2.651,2.761V16H9.987V10.771A1.82,1.82,0,0,0,9.6,9.5a1.71,1.71,0,0,0-1.3-.421,1.8,1.8,0,0,0-1.252.45,1.827,1.827,0,0,0-.579,1.212V16H5.1V10.807A1.512,1.512,0,0,0,3.409,9.079a1.813,1.813,0,0,0-1.824,1.135V16H.231V8.075Zm15.161,8.071a3.463,3.463,0,0,1-2.622-1.058,3.928,3.928,0,0,1-1.011-2.831v-.249a4.756,4.756,0,0,1,.45-2.106,3.514,3.514,0,0,1,1.26-1.45,3.167,3.167,0,0,1,1.754-.524,2.968,2.968,0,0,1,2.4,1.018,4.408,4.408,0,0,1,.857,2.915v.564H14.4a2.817,2.817,0,0,0,.685,1.893,2.153,2.153,0,0,0,1.666.721,2.36,2.36,0,0,0,1.216-.293,3.055,3.055,0,0,0,.872-.776l.828.645A3.328,3.328,0,0,1,16.674,16.146Zm-.168-7.1a1.807,1.807,0,0,0-1.377.6,2.9,2.9,0,0,0-.688,1.674h3.97v-.1a2.581,2.581,0,0,0-.557-1.6A1.7,1.7,0,0,0,16.505,9.042Zm8.657.249A4.06,4.06,0,0,0,24.5,9.24a1.786,1.786,0,0,0-1.809,1.135V16H21.332V8.075H22.65l.022.916a2.11,2.11,0,0,1,1.89-1.062,1.384,1.384,0,0,1,.6.1Zm.74,2.673A4.681,4.681,0,0,1,26.36,9.87a3.415,3.415,0,0,1,1.274-1.436A3.469,3.469,0,0,1,29.5,7.929a3.342,3.342,0,0,1,2.618,1.121,4.311,4.311,0,0,1,1,2.981v.1a4.722,4.722,0,0,1-.443,2.076,3.365,3.365,0,0,1-1.267,1.432,3.509,3.509,0,0,1-1.893.513A3.334,3.334,0,0,1,26.9,15.026a4.29,4.29,0,0,1-1-2.966Zm1.362.161a3.39,3.39,0,0,0,.612,2.117,2.072,2.072,0,0,0,3.278-.011,3.707,3.707,0,0,0,.608-2.267,3.384,3.384,0,0,0-.619-2.113A1.968,1.968,0,0,0,29.5,9.042a1.946,1.946,0,0,0-1.619.8A3.68,3.68,0,0,0,27.264,12.125Zm7.559-6.379L34.6,8.368H33.79L33.8,4.75h1.025Zm1.978,0-.22,2.622h-.813l.007-3.618H36.8Z" transform="translate(535.523 6517.729)" fill="#12263f"/>
  </g>
</svg>
