<svg xmlns="http://www.w3.org/2000/svg" xmlns:xlink="http://www.w3.org/1999/xlink" width="119" height="147.5" viewBox="0 0 119 147.5">
  <defs>
    <filter id="Trazado_836181" x="0" y="0" width="119" height="119" filterUnits="userSpaceOnUse">
      <feOffset input="SourceAlpha"/>
      <feGaussianBlur stdDeviation="5.5" result="blur"/>
      <feFlood flood-color="#fff" flood-opacity="0.659"/>
      <feComposite operator="in" in2="blur"/>
      <feComposite in="SourceGraphic"/>
    </filter>
  </defs>
  <g id="Grupo_1105950" data-name="Grupo 1105950" transform="translate(-6098.5 10666.5)">
    <g id="Grupo_1105252" data-name="Grupo 1105252" transform="translate(4986 -15490)">
      <g transform="matrix(1, 0, 0, 1, 1112.5, 4823.5)" filter="url(#Trazado_836181)">
        <path id="Trazado_836181-2" data-name="Trazado 836181" d="M43,0A43,43,0,1,1,0,43,43,43,0,0,1,43,0Z" transform="translate(16.5 16.5)" fill="#4df5df"/>
      </g>
      <g id="Layer_7" data-name="Layer 7" transform="translate(1151.137 4858.137)">
        <path id="Trazado_890745" data-name="Trazado 890745" d="M2,2H37.41V48.187H2Z" transform="translate(-0.23 -0.23)" fill="#c8cded"/>
        <path id="Trazado_890746" data-name="Trazado 890746" d="M2,2H34.331V45.108H2Z" transform="translate(-0.23 -0.23)" fill="#e2e7f6"/>
        <path id="Trazado_890747" data-name="Trazado 890747" d="M33.093,19.856V15.237l-1.9-.316a9.922,9.922,0,0,0-.967-2.341l1.118-1.565L28.078,7.749,26.513,8.867A9.922,9.922,0,0,0,24.172,7.9L23.856,6H19.237l-.316,1.9a9.922,9.922,0,0,0-2.341.967L15.015,7.749l-3.266,3.266,1.118,1.565a9.923,9.923,0,0,0-.967,2.341l-1.9.316v4.619l1.9.316a9.923,9.923,0,0,0,.967,2.341l-1.118,1.565,3.266,3.266,1.565-1.118a9.922,9.922,0,0,0,2.341.967l.316,1.9h4.619l.316-1.9a9.922,9.922,0,0,0,2.341-.967l1.565,1.118,3.266-3.266-1.118-1.565a9.922,9.922,0,0,0,.967-2.341Z" transform="translate(-2.072 -1.151)" fill="#3b5892"/>
        <path id="Trazado_890748" data-name="Trazado 890748" d="M23.158,24.079v3.079A6.158,6.158,0,0,1,17,21h3.079A3.079,3.079,0,0,0,23.158,24.079Z" transform="translate(-3.683 -4.604)" fill="#6bc13b"/>
        <path id="Trazado_890749" data-name="Trazado 890749" d="M23.158,13A6.158,6.158,0,0,0,17,19.158h3.079a3.079,3.079,0,0,1,3.079-3.079Z" transform="translate(-3.683 -2.763)" fill="#3279ea"/>
        <path id="Trazado_890750" data-name="Trazado 890750" d="M25,24.079A3.079,3.079,0,0,0,28.079,21h3.079A6.158,6.158,0,0,1,25,27.158Z" transform="translate(-5.525 -4.604)" fill="#d23f34"/>
        <path id="Trazado_890751" data-name="Trazado 890751" d="M28.079,19.158A3.079,3.079,0,0,0,25,16.079V13a6.158,6.158,0,0,1,6.158,6.158Z" transform="translate(-5.525 -2.763)" fill="#f9d266"/>
        <path id="Trazado_890752" data-name="Trazado 890752" d="M52.245,34.849,39.158,47.935,33,50.245l2.309-6.158L48.4,31Z" transform="translate(-7.367 -6.907)" fill="#3b5892"/>
        <path id="Trazado_890753" data-name="Trazado 890753" d="M44.162,36.5l-8.853,8.853L33,51.511,46.086,38.424Z" transform="translate(-7.367 -8.173)" fill="#4c6cb5"/>
        <path id="Trazado_890754" data-name="Trazado 890754" d="M56.849,33.928,53,30.079,55.282,27.8a2.722,2.722,0,1,1,3.849,3.849Z" transform="translate(-11.971 -5.986)" fill="#b5b5b5"/>
        <path id="Trazado_890755" data-name="Trazado 890755" d="M0,0H3.266V5.443H0Z" transform="translate(38.712 26.404) rotate(-45)" fill="#686868"/>
        <path id="Trazado_890756" data-name="Trazado 890756" d="M39.158,51.849,33,54.158,35.309,48h2.309v1.54h1.54Z" transform="translate(-7.367 -10.82)" fill="#fbe1ca"/>
        <path id="Trazado_890757" data-name="Trazado 890757" d="M37.479,52.981,33,54.661l1.68-4.479Z" transform="translate(-7.367 -11.323)" fill="#474747"/>
        <ellipse id="Elipse_11911" data-name="Elipse 11911" cx="3" cy="3.5" rx="3" ry="3.5" transform="translate(16.863 12.863)" fill="#f2f2f2"/>
        <circle id="Elipse_11912" data-name="Elipse 11912" cx="2.5" cy="2.5" r="2.5" transform="translate(4.863 30.863)" fill="#559b2d"/>
        <path id="Trazado_890758" data-name="Trazado 890758" d="M6,42.309a2.282,2.282,0,0,0,.343,1.2,2.282,2.282,0,0,0,1.2.343A2.309,2.309,0,0,0,9.849,41.54a2.282,2.282,0,0,0-.343-1.2A2.282,2.282,0,0,0,8.309,40,2.309,2.309,0,0,0,6,42.309Z" transform="translate(-1.151 -8.978)" fill="#6bc13b"/>
        <ellipse id="Elipse_11913" data-name="Elipse 11913" cx="2.5" cy="2" rx="2.5" ry="2" transform="translate(4.863 38.863)" fill="#559b2d"/>
        <g id="Grupo_1105277" data-name="Grupo 1105277" transform="translate(11.777 31.022)">
          <path id="Trazado_890759" data-name="Trazado 890759" d="M19,40h7.7v1.54H19Z" transform="translate(-15.921 -40)" fill="#c8cded"/>
          <path id="Trazado_890760" data-name="Trazado 890760" d="M15,44H30.4v1.54H15Z" transform="translate(-15 -40.921)" fill="#c8cded"/>
          <path id="Trazado_890761" data-name="Trazado 890761" d="M31,40h3.079v1.54H31Z" transform="translate(-18.683 -40)" fill="#c8cded"/>
          <path id="Trazado_890762" data-name="Trazado 890762" d="M19,50h7.7v1.54H19Z" transform="translate(-15.921 -42.302)" fill="#c8cded"/>
          <path id="Trazado_890763" data-name="Trazado 890763" d="M15,54H28.086v1.54H15Z" transform="translate(-15 -43.223)" fill="#c8cded"/>
          <path id="Trazado_890764" data-name="Trazado 890764" d="M31,50h2.309v1.54H31Z" transform="translate(-18.683 -42.302)" fill="#c8cded"/>
        </g>
        <path id="Trazado_890765" data-name="Trazado 890765" d="M6,52.309a2.282,2.282,0,0,0,.343,1.2,2.282,2.282,0,0,0,1.2.343A2.309,2.309,0,0,0,9.849,51.54a2.282,2.282,0,0,0-.343-1.2A2.282,2.282,0,0,0,8.309,50,2.309,2.309,0,0,0,6,52.309Z" transform="translate(-1.151 -11.281)" fill="#6bc13b"/>
        <path id="Trazado_890766" data-name="Trazado 890766" d="M9.644,20.385l1.425.238a10.574,10.574,0,0,0,.663,1.6L10.893,23.4a.77.77,0,0,0,.082.991l3.266,3.266a.77.77,0,0,0,.991.082l1.174-.838a10.716,10.716,0,0,0,1.6.662l.238,1.426a.77.77,0,0,0,.759.646h4.619a.77.77,0,0,0,.759-.643l.238-1.426a10.716,10.716,0,0,0,1.6-.662l1.171.838a.77.77,0,0,0,.991-.082l3.266-3.266a.77.77,0,0,0,.082-.991L30.9,22.227a10.574,10.574,0,0,0,.663-1.6l1.425-.238a.77.77,0,0,0,.647-.759V15.007a.77.77,0,0,0-.644-.759l-1.425-.242a10.574,10.574,0,0,0-.663-1.6l.838-1.167a.77.77,0,0,0-.082-.991L28.392,6.974a.77.77,0,0,0-.995-.082l-1.171.838a10.716,10.716,0,0,0-1.6-.662l-.238-1.426A.77.77,0,0,0,23.626,5H19.007a.77.77,0,0,0-.759.643L18.01,7.068a10.716,10.716,0,0,0-1.6.662l-1.171-.838a.77.77,0,0,0-.991.082l-3.266,3.266a.77.77,0,0,0-.082.991l.838,1.174a10.574,10.574,0,0,0-.663,1.6l-1.425.238A.77.77,0,0,0,9,15.007v4.619a.77.77,0,0,0,.644.759Zm.9-4.726L11.8,15.45a.77.77,0,0,0,.616-.557,9.152,9.152,0,0,1,.892-2.155.77.77,0,0,0-.042-.831l-.739-1.035,2.344-2.344,1.035.739a.77.77,0,0,0,.83.042,9.16,9.16,0,0,1,2.16-.892.77.77,0,0,0,.557-.616L19.66,6.54h3.31L23.18,7.8a.77.77,0,0,0,.557.616A9.161,9.161,0,0,1,25.9,9.3a.77.77,0,0,0,.83-.042l1.035-.739,2.344,2.344L29.367,11.9a.77.77,0,0,0-.042.831,9.152,9.152,0,0,1,.892,2.159.77.77,0,0,0,.616.557l1.26.21v3.315l-1.256.209a.77.77,0,0,0-.616.557,9.133,9.133,0,0,1-.892,2.159.77.77,0,0,0,.042.831l.739,1.035-2.344,2.344-1.035-.739a.77.77,0,0,0-.83-.042,9.161,9.161,0,0,1-2.16.892.77.77,0,0,0-.557.616l-.211,1.257h-3.31l-.21-1.256a.77.77,0,0,0-.557-.616,9.16,9.16,0,0,1-2.16-.892.77.77,0,0,0-.83.042l-1.035.739-2.344-2.344.739-1.035a.77.77,0,0,0,.042-.831,9.133,9.133,0,0,1-.892-2.155.77.77,0,0,0-.616-.557l-1.26-.214Z" transform="translate(-1.842 -0.921)"/>
        <path id="Trazado_890767" data-name="Trazado 890767" d="M22.928,25.856A6.928,6.928,0,1,0,16,18.928a6.928,6.928,0,0,0,6.928,6.928ZM17.6,19.7h1.555a3.861,3.861,0,0,0,3,3v1.555A5.388,5.388,0,0,1,17.6,19.7Zm5.327-3.079a2.309,2.309,0,1,1-2.309,2.309,2.309,2.309,0,0,1,2.309-2.309Zm.77,7.636V22.7a3.861,3.861,0,0,0,3-3h1.555A5.388,5.388,0,0,1,23.7,24.255Zm4.557-6.1H26.7a3.861,3.861,0,0,0-3-3V13.6a5.388,5.388,0,0,1,4.557,4.557Zm-6.1-4.557v1.555a3.861,3.861,0,0,0-3,3H17.6A5.388,5.388,0,0,1,22.158,13.6Z" transform="translate(-3.453 -2.532)"/>
        <path id="Trazado_890768" data-name="Trazado 890768" d="M48.727,23.736a3.491,3.491,0,0,0-5.96-2.469L37.95,26.084V1.77A.77.77,0,0,0,37.18,1H1.77A.77.77,0,0,0,1,1.77V47.957a.77.77,0,0,0,.77.77H37.18a.77.77,0,0,0,.77-.77v-12L47.7,26.205a3.47,3.47,0,0,0,1.022-2.469ZM27.614,40.249l1.108,1.108-1.771.665Zm2.694.515-2.1-2.1.269-.716h1.006v.77a.77.77,0,0,0,.77.77h.77V40.5Zm1.483-2.814h-.77v-.77a.77.77,0,0,0-.77-.77H29.8l8.918-8.919,2.76,2.76L32.561,39.17v-.451A.77.77,0,0,0,31.791,37.95ZM39.808,26.4l1.221-1.221,2.76,2.76-1.221,1.221Zm-3.4,20.784H2.54V2.54H36.41V27.624L27.4,36.636a.778.778,0,0,0-.177.274l-.678,1.81H24.093v1.54h1.872l-.577,1.54H11.777v1.54H24.869a.761.761,0,0,0,.764.77.79.79,0,0,0,.271-.048l6.158-2.309a.789.789,0,0,0,.273-.177L36.41,37.5Zm10.206-22.07-1.738,1.737-2.76-2.76,1.738-1.737a1.952,1.952,0,1,1,2.761,2.761Z"/>
        <path id="Trazado_890769" data-name="Trazado 890769" d="M8.079,39a3.079,3.079,0,1,0,3.079,3.079A3.079,3.079,0,0,0,8.079,39Zm0,4.619a1.54,1.54,0,1,1,1.54-1.54A1.54,1.54,0,0,1,8.079,43.619Z" transform="translate(-0.921 -8.748)"/>
        <path id="Trazado_890770" data-name="Trazado 890770" d="M8.079,49a3.079,3.079,0,1,0,3.079,3.079A3.079,3.079,0,0,0,8.079,49Zm0,4.619a1.54,1.54,0,1,1,1.54-1.54A1.54,1.54,0,0,1,8.079,53.619Z" transform="translate(-0.921 -11.05)"/>
        <path id="Trazado_890771" data-name="Trazado 890771" d="M19,40h7.7v1.54H19Z" transform="translate(-4.144 -8.978)"/>
        <path id="Trazado_890772" data-name="Trazado 890772" d="M15,44H30.4v1.54H15Z" transform="translate(-3.223 -9.899)"/>
        <path id="Trazado_890773" data-name="Trazado 890773" d="M31,40h3.079v1.54H31Z" transform="translate(-6.907 -8.978)"/>
        <path id="Trazado_890774" data-name="Trazado 890774" d="M19,50h7.7v1.54H19Z" transform="translate(-4.144 -11.281)"/>
      </g>
    </g>
    <rect id="Rectángulo_405332" data-name="Rectángulo 405332" width="30" height="30" rx="3" transform="translate(6143 -10549)" fill="#f0c518"/>
    <path id="Trazado_891250" data-name="Trazado 891250" d="M8.75,10.3a5.762,5.762,0,0,1-.977,3.609,3.409,3.409,0,0,1-2.859,1.25A3.433,3.433,0,0,1,2.07,13.93a5.594,5.594,0,0,1-1.008-3.516V8.32A5.687,5.687,0,0,1,2.051,4.7,3.434,3.434,0,0,1,4.9,3.469,3.437,3.437,0,0,1,7.742,4.691,5.576,5.576,0,0,1,8.75,8.2Zm-2.258-2.3a4.165,4.165,0,0,0-.387-2.061A1.307,1.307,0,0,0,4.9,5.289,1.284,1.284,0,0,0,3.723,5.9a3.9,3.9,0,0,0-.4,1.92v2.768A4.372,4.372,0,0,0,3.7,12.659a1.29,1.29,0,0,0,1.215.676,1.268,1.268,0,0,0,1.2-.649A4.268,4.268,0,0,0,6.492,10.7Zm4.117,1.411.656-5.781h6.375V5.508H13.117l-.281,2.445a3.58,3.58,0,0,1,1.711-.43,3.279,3.279,0,0,1,2.547,1.008,4.026,4.026,0,0,1,.922,2.82,4.124,4.124,0,0,1-.465,1.973,3.281,3.281,0,0,1-1.332,1.352,4.158,4.158,0,0,1-2.047.48,4.416,4.416,0,0,1-1.914-.418,3.4,3.4,0,0,1-1.395-1.176,3.2,3.2,0,0,1-.543-1.727h2.234a1.669,1.669,0,0,0,.5,1.105,1.573,1.573,0,0,0,1.113.395,1.388,1.388,0,0,0,1.18-.551,2.551,2.551,0,0,0,.414-1.559,2.11,2.11,0,0,0-.477-1.484,1.749,1.749,0,0,0-1.352-.516,1.954,1.954,0,0,0-1.3.422l-.219.2Z" transform="translate(6149 -10544)" fill="#12263f"/>
  </g>
</svg>
