<svg xmlns="http://www.w3.org/2000/svg" width="78" height="78" viewBox="0 0 78 78">
  <g id="Grupo_1105728" data-name="Grupo 1105728" transform="translate(0 -0.001)">
    <g id="Grupo_1095345" data-name="Grupo 1095345" transform="translate(0 0)">
      <path id="Trazado_875520" data-name="Trazado 875520" d="M39,0A39,39,0,1,1,0,39,39,39,0,0,1,39,0Z" fill="#f0c518"/>
    </g>
    <g id="Grupo_1100503" data-name="Grupo 1100503" transform="translate(9.156 9.859)">
      <g id="Grupo_1074076" data-name="Grupo 1074076" transform="translate(0 0)">
        <g id="programador_10_" data-name="programador (10)" transform="translate(0 0)">
          <g id="Grupo_1099575" data-name="Grupo 1099575" transform="translate(0 2)">
            <g id="Grupo_1099620" data-name="Grupo 1099620" transform="translate(47.911 20.009)">
              <path id="Trazado_875234" data-name="Trazado 875234" d="M433.96,234.1v-2.048a2.54,2.54,0,0,0-5.081,0V234.1a2.54,2.54,0,0,0,5.081,0Zm-1.611,0a.929.929,0,0,1-1.858,0v-2.048a.929.929,0,0,1,1.858,0Z" transform="translate(-425.032 -229.515)"/>
              <path id="Trazado_875235" data-name="Trazado 875235" d="M393.866,236.644a.805.805,0,0,0,.806-.806v-5.518a.806.806,0,1,0-1.611,0v5.518A.805.805,0,0,0,393.866,236.644Z" transform="translate(-393.06 -229.515)"/>
              <path id="Trazado_875236" data-name="Trazado 875236" d="M467.238,311.416a2.543,2.543,0,0,0-2.54,2.54V316a2.54,2.54,0,1,0,5.081,0v-2.048A2.543,2.543,0,0,0,467.238,311.416Zm.929,4.589a.929.929,0,1,1-1.858,0v-2.048a.929.929,0,0,1,1.858,0Z" transform="translate(-457.003 -302.619)"/>
              <path id="Trazado_875237" data-name="Trazado 875237" d="M429.684,311.416a.805.805,0,0,0-.806.806v5.518a.806.806,0,1,0,1.611,0v-5.518A.805.805,0,0,0,429.684,311.416Z" transform="translate(-425.031 -302.619)"/>
              <path id="Trazado_875238" data-name="Trazado 875238" d="M497.806,229.515a.805.805,0,0,0-.806.806v5.518a.806.806,0,1,0,1.611,0v-5.518A.805.805,0,0,0,497.806,229.515Z" transform="translate(-485.836 -229.515)"/>
            </g>
            <g id="Grupo_1099619" data-name="Grupo 1099619" transform="translate(-4 20.009)">
              <path id="Trazado_875239" data-name="Trazado 875239" d="M38.359,229.515a2.543,2.543,0,0,0-2.54,2.54V234.1a2.54,2.54,0,0,0,5.081,0v-2.048A2.543,2.543,0,0,0,38.359,229.515Zm.929,4.589a.929.929,0,0,1-1.858,0v-2.048a.929.929,0,0,1,1.858,0Z" transform="translate(-31.972 -229.515)"/>
              <path id="Trazado_875240" data-name="Trazado 875240" d="M104.746,236.644a.805.805,0,0,0,.806-.806v-5.518a.806.806,0,1,0-1.611,0v5.518A.806.806,0,0,0,104.746,236.644Z" transform="translate(-92.776 -229.515)"/>
              <path id="Trazado_875241" data-name="Trazado 875241" d="M2.54,311.416A2.543,2.543,0,0,0,0,313.956V316a2.54,2.54,0,1,0,5.081,0v-2.048A2.543,2.543,0,0,0,2.54,311.416ZM3.47,316a.929.929,0,1,1-1.858,0v-2.048a.929.929,0,0,1,1.858,0V316Z" transform="translate(0 -302.619)"/>
              <path id="Trazado_875242" data-name="Trazado 875242" d="M68.928,311.416a.805.805,0,0,0-.806.806v5.518a.806.806,0,0,0,1.611,0v-5.518A.805.805,0,0,0,68.928,311.416Z" transform="translate(-60.805 -302.619)"/>
              <path id="Trazado_875243" data-name="Trazado 875243" d="M.806,236.644a.805.805,0,0,0,.806-.806v-5.518a.806.806,0,1,0-1.611,0v5.518A.805.805,0,0,0,.806,236.644Z" transform="translate(0 -229.515)"/>
            </g>
            <g id="Fill_out_line" data-name="Fill out line" transform="translate(-37.829 -13.321)">
              <path id="Trazado_878215" data-name="Trazado 878215" d="M125.512,108.036H88c0-13.586,8.886-15.949,13.2-17.712h0c1.382-.565,2.295-1.067,2.295-1.859,0-3.262-5.708-3.262-5.708-8.97,0-8.155-1.631-15.494,8.97-15.494s8.97,7.339,8.97,15.494c0,5.708-5.708,5.708-5.708,8.97,0,.792.912,1.295,2.295,1.859C116.626,92.087,125.512,94.449,125.512,108.036Z" transform="translate(-37.371 -43.109)" fill="#f5a971"/>
              <path id="Trazado_878216" data-name="Trazado 878216" d="M205.779,312a8.954,8.954,0,0,0,10.045.176h1.919v18.58H204V312Z" transform="translate(-141.546 -265.829)" fill="#b1cdb4"/>
              <path id="Trazado_878217" data-name="Trazado 878217" d="M312.31,339.952H296c0-5.708,0-9.786.815-13.048a11.536,11.536,0,0,1,2.295-4.665C303.423,324,312.31,326.365,312.31,339.952Z" transform="translate(-224.168 -275.025)" fill="#f57a08"/>
              <path id="Trazado_878218" data-name="Trazado 878218" d="M104.31,339.952H88c0-13.586,8.886-15.949,13.2-17.712h0a11.535,11.535,0,0,1,2.295,4.665C104.31,330.167,104.31,334.244,104.31,339.952Z" transform="translate(-37.371 -275.025)" fill="#f57a08"/>
              <path id="Trazado_878219" data-name="Trazado 878219" d="M194.6,298.675a11.536,11.536,0,0,1,2.295,4.665,2.65,2.65,0,0,0-4.893,0v-3.262c0-4.077.815-4.077,2.446-4.077h2.314a2.487,2.487,0,0,1,.133.815C196.893,297.608,195.981,298.11,194.6,298.675Z" transform="translate(-130.769 -251.46)" fill="#f3b73f"/>
              <path id="Trazado_878220" data-name="Trazado 878220" d="M167.3,52.542c0-2.446,8.97-4.077,8.97-8.97,0-8.97.835-19.572-8.136-19.572a10.16,10.16,0,0,0-4.1.815h.019A9.9,9.9,0,0,0,159.985,24c-8.97,0-8.155,10.6-8.155,19.572,0,4.893,8.97,6.524,8.97,8.97Z" transform="translate(-94.677 -7.186)" fill="#084c4f"/>
              <path id="Trazado_878221" data-name="Trazado 878221" d="M201.145,79.494c0,5.708-5.708,5.708-5.708,8.97l-3.092,1.223-3.432-1.223c0-3.262-5.708-3.262-5.708-8.97,0-8.155-1.631-15.494,8.97-15.494S201.145,71.339,201.145,79.494Z" transform="translate(-122.789 -43.109)" fill="#f5a971"/>
              <path id="Trazado_878222" data-name="Trazado 878222" d="M306.294,298.675A11.536,11.536,0,0,0,304,303.339a2.65,2.65,0,0,1,4.893,0v-3.262c0-4.077-.815-4.077-2.446-4.077h-2.314a2.488,2.488,0,0,0-.133.815C304,297.608,304.912,298.11,306.294,298.675Z" transform="translate(-231.352 -251.46)" fill="#f3b73f"/>
              <path id="Trazado_878223" data-name="Trazado 878223" d="M63.049,360q-.011.39-.011.816v13.048H56.513L54.756,361.28Z" transform="translate(-7.515 -308.936)" fill="#f57a08"/>
              <path id="Trazado_878224" data-name="Trazado 878224" d="M67.44,218.6a12.893,12.893,0,0,0-.8,4.893,2.922,2.922,0,0,1-1.642,2.446,7.987,7.987,0,0,1-4.539.372l-.073-.372s-.431-1.727-.85-3.625a30.989,30.989,0,0,1-.781-4.53c0-1.613.8-3.225,2.392-3.261a2.1,2.1,0,0,1,1.685-.817,1.235,1.235,0,0,1,.708.2,2.01,2.01,0,0,1,.561-.174c-.157-1.735-.38-5.737.9-5.737,1.163,0,1.5,4.146,1.592,6.525h.039C68.256,214.524,67.44,218.6,67.44,218.6Z" transform="translate(-11.102 -172.43)" fill="#f5a971"/>
              <path id="Trazado_878225" data-name="Trazado 878225" d="M56.517,352.437a2.761,2.761,0,0,1-1.985-1.188c-.554-1.106.395-2.212,1.061-2.809.419,1.9.85,3.625.85,3.625Z" transform="translate(-7.165 -298.554)" fill="#ea5003"/>
              <path id="Trazado_878226" data-name="Trazado 878226" d="M176,66.25c4.077,0,3.262-4.077,6.524-4.077s3.262,1.631,3.262,1.631,0-1.631,3.262-1.631,2.446,4.077,6.524,4.077V58.333H176Z" transform="translate(-116.4 -38.02)" fill="#084c4f"/>
              <path id="Trazado_878227" data-name="Trazado 878227" d="M355.311,168.815l.309-.309a1.73,1.73,0,0,1,1.223-.507h0a1.73,1.73,0,0,1,1.73,1.73v.361a1.73,1.73,0,0,1-1.087,1.606l-2.707,1.083Z" transform="translate(-276.955 -136.507)" fill="#f5a971"/>
              <path id="Trazado_878228" data-name="Trazado 878228" d="M155.262,168.815l-.309-.309A1.73,1.73,0,0,0,153.73,168h0a1.73,1.73,0,0,0-1.73,1.73v.361a1.73,1.73,0,0,0,1.087,1.606l2.707,1.083Z" transform="translate(-94.847 -136.507)" fill="#f5a971"/>
              <path id="Trazado_878231" data-name="Trazado 878231" d="M164.815,428.408v6.524H164v-6.524a.408.408,0,1,1,.815,0Z" transform="translate(-105.623 -370.004)"/>
              <path id="Trazado_878232" data-name="Trazado 878232" d="M372.815,428.408v6.524H372v-6.524a.408.408,0,1,1,.815,0Z" transform="translate(-292.421 -370.004)"/>
              <path id="Trazado_878233" data-name="Trazado 878233" d="M220.274,58.2a.408.408,0,1,0,.257.774,3.886,3.886,0,0,1,3.661.717.408.408,0,0,0,.577-.577A4.637,4.637,0,0,0,220.274,58.2Z" transform="translate(-155.91 -37.694)"/>
              <path id="Trazado_878234" data-name="Trazado 878234" d="M220.408,36.815c1.615,0,3.01,0,3.713,1.406a.408.408,0,1,0,.729-.365C223.922,36,222.055,36,220.408,36a.408.408,0,1,0,0,.815Z" transform="translate(-155.915 -17.963)"/>
              <path id="Trazado_878235" data-name="Trazado 878235" d="M276.408,59.809a.406.406,0,0,0,.288-.119,3.885,3.885,0,0,1,3.661-.717.408.408,0,1,0,.257-.774,4.637,4.637,0,0,0-4.495.914.408.408,0,0,0,.288.7Z" transform="translate(-206.207 -37.694)"/>
              <path id="Trazado_878236" data-name="Trazado 878236" d="M276.225,38.4a.408.408,0,0,0,.547-.182c.7-1.406,2.1-1.406,3.713-1.406a.408.408,0,1,0,0-.815c-1.647,0-3.514,0-4.442,1.856A.408.408,0,0,0,276.225,38.4Z" transform="translate(-206.206 -17.963)"/>
              <path id="Trazado_878239" data-name="Trazado 878239" d="M51.66,42.755a1.707,1.707,0,0,0-.752-.868,1.7,1.7,0,0,1,.817-.2.821.821,0,0,1,.813.565,2.1,2.1,0,0,1-.286,2,.537.537,0,0,1-.47.212A2.984,2.984,0,0,0,51.66,42.755Zm1.631-.815a2.014,2.014,0,0,0-.12-.244.9.9,0,0,1,1.069.772,4.357,4.357,0,0,0-.3,1.343c-.016.146-.033.293-.053.434-.129.131-.419.388-.709.08a3.052,3.052,0,0,0,.11-2.385Zm.451-5.879c.073-.083.119-.083.149-.083.006,0,.655.042,1.021,3.71.063.626.112,1.317.147,2.057a1.3,1.3,0,0,0-.193.07,1.611,1.611,0,0,0-1.5-.944c-.041-.529-.069-1.037-.081-1.512-.061-2.443.3-3.121.456-3.3Zm-6.01,16.452a1.69,1.69,0,0,1,.462-1.8c.257,1.134.5,2.121.615,2.6a1.842,1.842,0,0,1-1.076-.8Zm5.977.633a7.517,7.517,0,0,1-4.008.39s-1.646-6.617-1.646-8.18c0-1.375.638-2.854,2.039-2.854a.818.818,0,0,1,.813.565,2.1,2.1,0,0,1-.286,2c-.194.194-.374.259-.533.193a.8.8,0,0,1-.4-.7.424.424,0,0,0-.354-.423.408.408,0,0,0-.462.4,1.6,1.6,0,0,0,.905,1.473,1.278,1.278,0,0,0,1.422-.369,1.867,1.867,0,0,0,.306-.413,1.238,1.238,0,0,0,1.171-.265,1.233,1.233,0,0,0,.749.318c-.714,1.035.067,2.629.1,2.7a.408.408,0,1,0,.73-.364c-.007-.014-.664-1.389-.077-1.976a2.836,2.836,0,0,0,.574-1.744c.133-1.2.3-1.4.76-1.4a.4.4,0,0,1,.308.137c.412.489.352,1.952.194,3.005a3.588,3.588,0,0,1-.168.66,11.647,11.647,0,0,0-.53,2.319,21.535,21.535,0,0,0-.2,2.44,2.487,2.487,0,0,1-1.406,2.082Zm12.822-7.79c0-1.607-1.178-2.5-2.425-3.44-1.539-1.163-3.284-2.482-3.284-5.53q0-.164,0-.328a.408.408,0,0,0-.256-.377l-2.174-.87a1.316,1.316,0,0,1-.831-1.228v-.361a1.322,1.322,0,0,1,2.257-.935l.234.234a.408.408,0,0,0,.7-.3c-.024-1.224-.03-2.514.065-3.718a4.625,4.625,0,0,0,2.809-2.252c.657-.946,1.176-1.693,2.5-1.693a3.671,3.671,0,0,1,2.518.651.935.935,0,0,1,.336.572.408.408,0,0,0,.815,0c0-.012.078-1.223,2.854-1.223,1.327,0,1.846.747,2.5,1.693a4.625,4.625,0,0,0,2.809,2.252c.095,1.2.088,2.494.065,3.718a.408.408,0,0,0,.7.3l.234-.234a1.321,1.321,0,0,1,2.255.893q0,.258,0,.516a1.315,1.315,0,0,1-.826,1.114l-2.174.87a.408.408,0,0,0-.256.377q0,.164,0,.328c0,3.048-1.744,4.367-3.284,5.53-1.247.943-2.425,1.833-2.425,3.44a1.6,1.6,0,0,0,.694,1.267,8.543,8.543,0,0,1-7.1,0A1.6,1.6,0,0,0,66.532,45.356Zm9.26-3.278a6.725,6.725,0,0,0,2.972-5.693v-.05l1.918-.767a2.154,2.154,0,0,0,.513-.293c0,.372,0,.744,0,1.11,0,2.621-2.987,4.324-5.4,5.693ZM60.426,19.009a6.6,6.6,0,0,1,4.883-1.788,9.643,9.643,0,0,1,3.818.736.612.612,0,0,0,.5,0,9.879,9.879,0,0,1,3.839-.738,6.592,6.592,0,0,1,4.877,1.785c2.508,2.526,2.851,7.419,2.871,12.54a2.134,2.134,0,0,0-2.358-.194c.008-.908,0-1.834-.066-2.726.124.008.252.012.385.012a.408.408,0,0,0,0-.815,3.623,3.623,0,0,1-3.351-2.034c-.665-.958-1.419-2.044-3.173-2.044-1.905,0-2.821.539-3.262,1.064-.44-.524-1.357-1.064-3.262-1.064-1.753,0-2.507,1.086-3.173,2.044A3.623,3.623,0,0,1,59.6,27.823a.408.408,0,0,0,0,.815c.133,0,.261,0,.385-.012-.062.891-.074,1.817-.066,2.726a2.136,2.136,0,0,0-2.376.208C57.566,26.434,57.913,21.539,60.426,19.009ZM57.561,36.386c0-.371,0-.748,0-1.125a2.153,2.153,0,0,0,.532.307l1.918.767v.05a6.753,6.753,0,0,0,3.022,5.732l-.047-.027C60.567,40.72,57.561,39.014,57.561,36.386Zm4.077,14.307V48.618c0-1.815.166-2.868.522-3.313.273-.341.707-.357,1.517-.357h2a2.142,2.142,0,0,1,.039.408c0,.5-.7.914-1.77,1.369-.305-.351-.581-.627-.8-.842a.408.408,0,1,0-.577.577,10.8,10.8,0,0,1,2.6,3.816,2.8,2.8,0,0,0-1.5-.435,2.943,2.943,0,0,0-2.039.851Zm7.747-1.259a10.5,10.5,0,0,1-4.114-.832,11.266,11.266,0,0,0-.793-1.217c.188-.082.369-.166.542-.254a9.36,9.36,0,0,0,8.728,0c.173.088.355.172.542.254A11.268,11.268,0,0,0,73.5,48.6a10.5,10.5,0,0,1-4.114.832Zm7.747,1.216a2.8,2.8,0,0,0-1.959-.808,2.921,2.921,0,0,0-1.6.486A10.8,10.8,0,0,1,76.2,46.46a.408.408,0,1,0-.577-.577c-.215.215-.491.491-.8.842-1.072-.456-1.77-.872-1.77-1.369a2.142,2.142,0,0,1,.039-.408h2c.809,0,1.244.016,1.516.357.356.445.522,1.5.522,3.313Zm8.1,1.985A17.571,17.571,0,0,0,78.341,47.7c-.061-1.694-.309-2.646-.831-3.238a2.7,2.7,0,0,0-2.13-.737c.316-.187.651-.377.994-.571,2.691-1.528,6.041-3.428,6.041-6.77,0-.692.005-1.411.01-2.1v-.013c.045-6.288.092-12.791-3.216-16.123A7.767,7.767,0,0,0,73.463,16a11.415,11.415,0,0,0-4.085.739A11.221,11.221,0,0,0,65.308,16a7.772,7.772,0,0,0-5.75,2.149c-3.318,3.34-3.273,9.859-3.229,16.163v.017c0,.679.009,1.38.009,2.058,0,3.341,3.35,5.242,6.041,6.77.343.194.679.385.995.571a2.686,2.686,0,0,0-2.112.737c-.522.592-.77,1.544-.831,3.238a21.388,21.388,0,0,0-4.021,2.236,13.974,13.974,0,0,1,.5-2.955,9.434,9.434,0,0,0,.433-2.308,4.059,4.059,0,0,0-.569-2.805,1.611,1.611,0,0,0-.5-.413c-.036-.675-.083-1.309-.141-1.891-.238-2.379-.69-4.811-2.239-4.811a1.4,1.4,0,0,0-1.066.5c-.574.649-.815,1.965-.761,4.139.009.354.025.724.05,1.106a2.3,2.3,0,0,0-.388-.033,2.883,2.883,0,0,0-2.074.846,2.942,2.942,0,0,0-2.07,1.352,4.9,4.9,0,0,0-.748,2.7,26.383,26.383,0,0,0,.7,4.261c-.1.1-.195.209-.282.314a2.972,2.972,0,0,0-.814,2.548l1.739,12.448H49.41L47.849,53.753a4.617,4.617,0,0,0,1.438.532h.005c3.542.617,5.292-.559,5.823-1.2v6.133a.408.408,0,0,0,.815,0V51.828a.6.6,0,0,0,.2-.114,18.2,18.2,0,0,1,4.69-2.849V51.88a.407.407,0,0,0,.313.4.377.377,0,0,0,.095.011.407.407,0,0,0,.364-.223,2.628,2.628,0,0,1,2.083-1.407,2.587,2.587,0,0,1,2.062,1.37c.792,3.206.792,7.277.792,12.9h.815c0-5.71,0-9.836-.828-13.147a13.28,13.28,0,0,0-.714-2.107,11.434,11.434,0,0,0,7.16,0,13.279,13.279,0,0,0-.714,2.107c-.828,3.311-.828,7.436-.828,13.147h.815c0-5.62,0-9.689.79-12.894a2.757,2.757,0,0,1,2.145-1.377,2.394,2.394,0,0,1,1.994,1.39.408.408,0,0,0,.78-.167V48.865a16.341,16.341,0,0,1,6.335,4.541c2.289,2.814,3.451,6.691,3.451,11.522h1.223C88.957,59.808,87.7,55.673,85.233,52.634Z" transform="translate(0 0)"/>
            </g>
          </g>
        </g>
      </g>
    </g>
  </g>
</svg>
