<svg xmlns="http://www.w3.org/2000/svg" width="84.872" height="84.872" viewBox="0 0 84.872 84.872">
  <g id="Grupo_1103442" data-name="Grupo 1103442" transform="translate(-757.564 -3562.293)">
    <g id="Grupo_1103438" data-name="Grupo 1103438">
      <g id="Grupo_1103435" data-name="Grupo 1103435" transform="translate(0 -2593)">
        <path id="Trazado_879587" data-name="Trazado 879587" d="M42.436,0A42.436,42.436,0,1,1,0,42.436,42.436,42.436,0,0,1,42.436,0Z" transform="translate(757.564 6155.293)" fill="#f0c52c"/>
      </g>
    </g>
    <g id="smartphone_12283708" transform="translate(770.769 3575.341)">
      <g id="Color" transform="translate(2.456 2.456)">
        <path id="Trazado_886060" data-name="Trazado 886060" d="M37.6,2H28.038a3.739,3.739,0,0,1-1.128,2.7,3.786,3.786,0,0,1-5.393,0A3.739,3.739,0,0,1,20.388,2H10.825A3.836,3.836,0,0,0,7,5.825v45.9a3.836,3.836,0,0,0,3.825,3.825H37.6a3.836,3.836,0,0,0,3.825-3.825V5.825A3.836,3.836,0,0,0,37.6,2ZM35.688,40.25H12.737V17.3h22.95Z" transform="translate(2.563 -2)" fill="#f2f2f2"/>
        <path id="Trazado_886061" data-name="Trazado 886061" d="M21.65,2a3.739,3.739,0,0,1-1.128,2.7,3.786,3.786,0,0,1-5.393,0A3.739,3.739,0,0,1,14,2Z" transform="translate(8.95 -2)" fill="#ffc943"/>
        <path id="Trazado_886062" data-name="Trazado 886062" d="M10,10V32.95H32.95V10ZM21.475,25.3A3.825,3.825,0,1,1,25.3,21.475,3.836,3.836,0,0,1,21.475,25.3Z" transform="translate(5.3 5.3)" fill="#f45151" fill-rule="evenodd"/>
        <circle id="Elipse_11729" data-name="Elipse 11729" cx="3.825" cy="3.825" r="3.825" transform="translate(22.95 22.95)" fill="#43b3ff"/>
        <circle id="Elipse_11730" data-name="Elipse 11730" cx="1.913" cy="1.913" r="1.913" transform="translate(0 34.425)" fill="#43b3ff"/>
        <circle id="Elipse_11731" data-name="Elipse 11731" cx="1.913" cy="1.913" r="1.913" transform="translate(0 24.863)" fill="#ffc943"/>
        <g id="Grupo_1103440" data-name="Grupo 1103440" transform="translate(0 15.3)">
          <circle id="Elipse_11732" data-name="Elipse 11732" cx="1.913" cy="1.913" r="1.913" fill="#43b3ff"/>
          <circle id="Elipse_11733" data-name="Elipse 11733" cx="1.913" cy="1.913" r="1.913" transform="translate(49.725 19.125)" fill="#43b3ff"/>
          <circle id="Elipse_11734" data-name="Elipse 11734" cx="1.913" cy="1.913" r="1.913" transform="translate(49.725)" fill="#43b3ff"/>
        </g>
        <circle id="Elipse_11735" data-name="Elipse 11735" cx="1.913" cy="1.913" r="1.913" transform="translate(49.725 24.863)" fill="#ffc943"/>
      </g>
      <g id="Outline" transform="translate(1.5 1.5)">
        <g id="Grupo_1103441" data-name="Grupo 1103441">
          <path id="Trazado_886063" data-name="Trazado 886063" d="M7.456,23.5a.956.956,0,0,0-.956.956v7.65a4.786,4.786,0,0,0,4.781,4.781h9.563a.956.956,0,1,0,0-1.912H11.281a2.872,2.872,0,0,1-2.869-2.869v-7.65A.956.956,0,0,0,7.456,23.5Z" transform="translate(3.063 18.575)"/>
          <path id="Trazado_886064" data-name="Trazado 886064" d="M28.019,36.888A4.786,4.786,0,0,0,32.8,32.106v-7.65a.956.956,0,1,0-1.913,0v7.65a2.872,2.872,0,0,1-2.869,2.869H18.456a.956.956,0,1,0,0,1.912Z" transform="translate(13.1 18.575)"/>
          <path id="Trazado_886065" data-name="Trazado 886065" d="M7.456,14.888a.956.956,0,0,0,.956-.956V6.281a2.872,2.872,0,0,1,2.869-2.869h8.7a4.781,4.781,0,0,0,9.369,0h8.7a2.872,2.872,0,0,1,2.869,2.869v7.65a.956.956,0,1,0,1.912,0V6.281A4.786,4.786,0,0,0,38.056,1.5H11.281A4.786,4.786,0,0,0,6.5,6.281v7.65A.956.956,0,0,0,7.456,14.888ZM27.373,3.413a2.868,2.868,0,0,1-5.409,0Z" transform="translate(3.063 -1.5)"/>
          <path id="Trazado_886066" data-name="Trazado 886066" d="M18.281,23.063A4.781,4.781,0,1,0,13.5,18.281,4.786,4.786,0,0,0,18.281,23.063Zm0-7.65a2.869,2.869,0,1,1-2.869,2.869A2.872,2.872,0,0,1,18.281,15.413Z" transform="translate(9.45 9.45)"/>
          <path id="Trazado_886067" data-name="Trazado 886067" d="M12.194,27.625a.956.956,0,0,0-.676.28L7.973,31.45H6.456a.956.956,0,0,0,0,1.913H8.369a.956.956,0,0,0,.676-.28l3.545-3.545h.56v4.781a.956.956,0,0,0,.956.956h4.781v.956a.956.956,0,0,0,1.913,0v-.956h3.825v.956a.956.956,0,1,0,1.912,0v-.956h3.825v.956a.956.956,0,0,0,1.913,0v-.956h4.781a.956.956,0,0,0,.956-.956V29.538h.56l3.545,3.545a.956.956,0,0,0,.676.28h1.913a.956.956,0,1,0,0-1.913H43.19l-3.545-3.545a.956.956,0,0,0-.676-.28h-.956V23.8h6.694a.956.956,0,0,0,0-1.913H38.013V18.063h.956a.956.956,0,0,0,.676-.28l3.545-3.545h1.517a.956.956,0,1,0,0-1.913H42.794a.956.956,0,0,0-.676.28L38.573,16.15h-.56V11.369a.956.956,0,0,0-.956-.956H32.275V9.456a.956.956,0,0,0-1.913,0v.956H26.538V9.456a.956.956,0,1,0-1.912,0v.956H20.8V9.456a.956.956,0,1,0-1.913,0v.956H14.106a.956.956,0,0,0-.956.956V14.8l-2.193-2.193a.956.956,0,0,0-.676-.28H6.456a.956.956,0,0,0,0,1.913H9.885L13.15,17.5v4.385H6.456a.956.956,0,1,0,0,1.913H13.15v3.825ZM15.063,23.8h2.869a.956.956,0,0,0,0-1.913H15.063V18.063h2.869a.956.956,0,0,0,0-1.913H15.063V12.325h3.825v.956a.956.956,0,1,0,1.913,0v-.956h3.825v.956a.956.956,0,1,0,1.912,0v-.956h3.825v.956a.956.956,0,0,0,1.913,0v-.956H36.1V16.15H33.231a.956.956,0,0,0,0,1.913H36.1v3.825H33.231a.956.956,0,0,0,0,1.913H36.1v3.825H33.231a.956.956,0,0,0,0,1.913H36.1v3.825H32.275v-.956a.956.956,0,0,0-1.913,0v.956H26.538v-.956a.956.956,0,1,0-1.912,0v.956H20.8v-.956a.956.956,0,0,0-1.913,0v.956H15.063V29.538h2.869a.956.956,0,0,0,0-1.913H15.063Z" transform="translate(2.15 4.888)"/>
          <path id="Trazado_886068" data-name="Trazado 886068" d="M4.369,15.238A2.869,2.869,0,1,0,1.5,12.369,2.872,2.872,0,0,0,4.369,15.238Zm0-3.825a.956.956,0,1,1-.956.956A.957.957,0,0,1,4.369,11.413Z" transform="translate(-1.5 5.8)"/>
          <path id="Trazado_886069" data-name="Trazado 886069" d="M4.369,20.238A2.869,2.869,0,1,0,1.5,17.369,2.872,2.872,0,0,0,4.369,20.238Zm0-3.825a.956.956,0,1,1-.956.956A.957.957,0,0,1,4.369,16.413Z" transform="translate(-1.5 10.363)"/>
          <path id="Trazado_886070" data-name="Trazado 886070" d="M4.369,25.238A2.869,2.869,0,1,0,1.5,22.369,2.872,2.872,0,0,0,4.369,25.238Zm0-3.825a.956.956,0,1,1-.956.956A.957.957,0,0,1,4.369,21.413Z" transform="translate(-1.5 14.925)"/>
          <path id="Trazado_886071" data-name="Trazado 886071" d="M30.369,15.238A2.869,2.869,0,1,0,27.5,12.369,2.872,2.872,0,0,0,30.369,15.238Zm0-3.825a.956.956,0,1,1-.956.956A.957.957,0,0,1,30.369,11.413Z" transform="translate(22.225 5.8)"/>
          <path id="Trazado_886072" data-name="Trazado 886072" d="M30.369,20.238A2.869,2.869,0,1,0,27.5,17.369,2.872,2.872,0,0,0,30.369,20.238Zm0-3.825a.956.956,0,1,1-.956.956A.957.957,0,0,1,30.369,16.413Z" transform="translate(22.225 10.363)"/>
          <path id="Trazado_886073" data-name="Trazado 886073" d="M30.369,25.238A2.869,2.869,0,1,0,27.5,22.369,2.872,2.872,0,0,0,30.369,25.238Zm0-3.825a.956.956,0,1,1-.956.956A.957.957,0,0,1,30.369,21.413Z" transform="translate(22.225 14.925)"/>
          <circle id="Elipse_11736" data-name="Elipse 11736" cx="1.101" cy="1.101" r="1.101" transform="translate(26.42 53.574)"/>
        </g>
      </g>
    </g>
  </g>
</svg>
