<svg xmlns="http://www.w3.org/2000/svg" width="73" height="77" viewBox="0 0 73 77">
  <g id="Grupo_1105735" data-name="Grupo 1105735" transform="translate(-205 -11410.068)">
    <rect id="Rectángulo_382263" data-name="Rectángulo 382263" width="73" height="77" rx="8" transform="translate(205 11410.068)" fill="#5b86f0"/>
    <g id="algoritmo-_" data-name="algoritmo-&apos;" transform="translate(214.197 11428.91)">
      <path id="Trazado_819834" data-name="Trazado 819834" d="M91.685,54.877H49.872a1.493,1.493,0,0,1-1.493-1.493V26.341a1.493,1.493,0,0,1,1.493-1.493H91.685a1.493,1.493,0,0,1,1.493,1.493V53.384A1.493,1.493,0,0,1,91.685,54.877Zm0,0" transform="translate(-43.22 -22.198)" fill="#bce8f1"/>
      <path id="Trazado_819835" data-name="Trazado 819835" d="M91.808,24.848H85.646V48.462a1.37,1.37,0,0,1-1.37,1.369h-35.9v3.676a1.369,1.369,0,0,0,1.369,1.369h42.06a1.369,1.369,0,0,0,1.369-1.369V26.217A1.37,1.37,0,0,0,91.808,24.848Zm0,0" transform="translate(-43.22 -22.198)" fill="#95dae8"/>
      <path id="Trazado_819836" data-name="Trazado 819836" d="M93.178,31.286V26.325A1.477,1.477,0,0,0,91.7,24.848H49.856a1.477,1.477,0,0,0-1.477,1.477v4.961Zm0,0" transform="translate(-43.22 -22.198)" fill="#f0feff"/>
      <path id="Trazado_819837" data-name="Trazado 819837" d="M403.879,24.848h-6.055v6.438h7.532V26.325A1.477,1.477,0,0,0,403.879,24.848Zm0,0" transform="translate(-355.398 -22.198)" fill="#def4f8"/>
      <path id="Trazado_819838" data-name="Trazado 819838" d="M79.465,41.168H30.949V10.552a3.13,3.13,0,0,1,3.13-3.13H76.335a3.13,3.13,0,0,1,3.13,3.13V41.168ZM35.645,35.983H74.77a.978.978,0,0,0,.978-.978V12.117a.978.978,0,0,0-.978-.978H35.645a.978.978,0,0,0-.978.978V35.006A.978.978,0,0,0,35.645,35.983Zm0,0" transform="translate(-27.649 -6.63)" fill="#607882"/>
      <path id="Trazado_819839" data-name="Trazado 819839" d="M76.956,8V37.228a.75.75,0,0,1-.75.75H30.949v3.706H79.465V11.068A3.131,3.131,0,0,0,76.956,8Zm0,0" transform="translate(-27.649 -7.147)" fill="#495959"/>
      <path id="Trazado_819840" data-name="Trazado 819840" d="M55.962,314.788H11.9a4.479,4.479,0,0,1-4.479-4.479v-.552a.514.514,0,0,1,.514-.514H59.927a.514.514,0,0,1,.514.514v.552A4.479,4.479,0,0,1,55.962,314.788Zm0,0" transform="translate(-6.63 -276.263)" fill="#607882"/>
      <path id="Trazado_819841" data-name="Trazado 819841" d="M68.862,309.242H64.074a4.433,4.433,0,0,1-4.41,4H17.418a4.42,4.42,0,0,0,3.366,1.551H64.939a4.432,4.432,0,0,0,4.432-4.432v-.6A.509.509,0,0,0,68.862,309.242Zm0,0" transform="translate(-15.56 -276.263)" fill="#495959"/>
      <g id="Grupo_1073022" data-name="Grupo 1073022" transform="translate(13.036 11.265)">
        <path id="Trazado_819842" data-name="Trazado 819842" d="M123.159,106.943h-.66c-.169,0-.261-.061-.261-.271,0-.189.1-.24.368-.292l.189-.041c.568-.123.41-.706.844-.706.164,0,.3.072.3.348v2.906c0,.266-.1.45-.389.45s-.389-.184-.389-.45Zm0,0" transform="translate(-122.238 -105.633)" fill="#607882"/>
        <path id="Trazado_819843" data-name="Trazado 819843" d="M155.022,105.633c.829,0,1.366.6,1.366,1.806,0,.905-.287,1.9-1.366,1.9s-1.366-.992-1.366-1.9C153.656,106.231,154.193,105.633,155.022,105.633Zm0,3.09c.394,0,.619-.322.619-1.238,0-.767-.169-1.238-.619-1.238s-.619.471-.619,1.238C154.4,108.4,154.628,108.723,155.022,108.723Zm0,0" transform="translate(-150.306 -105.633)" fill="#607882"/>
        <path id="Trazado_819844" data-name="Trazado 819844" d="M193.971,105.633c.829,0,1.366.6,1.366,1.806,0,.905-.287,1.9-1.366,1.9s-1.366-.992-1.366-1.9C192.605,106.231,193.142,105.633,193.971,105.633Zm0,3.09c.394,0,.619-.322.619-1.238,0-.767-.169-1.238-.619-1.238s-.619.471-.619,1.238C193.352,108.4,193.577,108.723,193.971,108.723Zm0,0" transform="translate(-185.101 -105.633)" fill="#607882"/>
        <path id="Trazado_819845" data-name="Trazado 819845" d="M230.175,106.943h-.66c-.169,0-.261-.061-.261-.271,0-.189.1-.24.368-.292l.19-.041c.568-.123.409-.706.844-.706.164,0,.3.072.3.348v2.906c0,.266-.1.45-.389.45s-.389-.184-.389-.45Zm0,0" transform="translate(-217.841 -105.633)" fill="#607882"/>
        <path id="Trazado_819846" data-name="Trazado 819846" d="M262.037,105.633c.829,0,1.366.6,1.366,1.806,0,.905-.286,1.9-1.366,1.9s-1.366-.992-1.366-1.9C260.672,106.231,261.209,105.633,262.037,105.633Zm0,3.09c.394,0,.619-.322.619-1.238,0-.767-.169-1.238-.619-1.238s-.619.471-.619,1.238C261.418,108.4,261.643,108.723,262.037,108.723Zm0,0" transform="translate(-245.909 -105.633)" fill="#607882"/>
        <path id="Trazado_819847" data-name="Trazado 819847" d="M298.237,106.943h-.66c-.169,0-.261-.061-.261-.271,0-.189.1-.24.368-.292l.19-.041c.567-.123.409-.706.844-.706.163,0,.3.072.3.348v2.906c0,.266-.1.45-.389.45s-.389-.184-.389-.45Zm0,0" transform="translate(-278.645 -105.633)" fill="#607882"/>
        <path id="Trazado_819848" data-name="Trazado 819848" d="M330.1,105.633c.829,0,1.366.6,1.366,1.806,0,.905-.287,1.9-1.366,1.9s-1.366-.992-1.366-1.9C328.734,106.231,329.271,105.633,330.1,105.633Zm0,3.09c.394,0,.619-.322.619-1.238,0-.767-.169-1.238-.619-1.238s-.619.471-.619,1.238C329.481,108.4,329.706,108.723,330.1,108.723Zm0,0" transform="translate(-306.712 -105.633)" fill="#607882"/>
        <path id="Trazado_819849" data-name="Trazado 819849" d="M369.049,105.633c.829,0,1.366.6,1.366,1.806,0,.905-.287,1.9-1.366,1.9s-1.366-.992-1.366-1.9C367.684,106.231,368.221,105.633,369.049,105.633Zm0,3.09c.394,0,.619-.322.619-1.238,0-.767-.169-1.238-.619-1.238s-.619.471-.619,1.238C368.431,108.4,368.656,108.723,369.049,108.723Zm0,0" transform="translate(-341.508 -105.633)" fill="#607882"/>
        <path id="Trazado_819850" data-name="Trazado 819850" d="M125.905,158.246c.829,0,1.366.6,1.366,1.805,0,.906-.286,1.9-1.366,1.9s-1.366-.992-1.366-1.9C124.539,158.845,125.076,158.246,125.905,158.246Zm0,3.09c.394,0,.619-.322.619-1.238,0-.767-.169-1.238-.619-1.238s-.619.471-.619,1.238C125.286,161.013,125.511,161.336,125.905,161.336Zm0,0" transform="translate(-124.294 -152.635)" fill="#607882"/>
        <path id="Trazado_819851" data-name="Trazado 819851" d="M162.108,159.555h-.66c-.169,0-.261-.061-.261-.271,0-.19.1-.241.368-.292l.189-.041c.568-.122.41-.706.844-.706.164,0,.3.072.3.348V161.5c0,.266-.1.45-.389.45s-.389-.184-.389-.45Zm0,0" transform="translate(-157.034 -152.635)" fill="#607882"/>
        <path id="Trazado_819852" data-name="Trazado 819852" d="M193.971,158.246c.829,0,1.366.6,1.366,1.805,0,.906-.287,1.9-1.366,1.9s-1.366-.992-1.366-1.9C192.605,158.845,193.142,158.246,193.971,158.246Zm0,3.09c.394,0,.619-.322.619-1.238,0-.767-.169-1.238-.619-1.238s-.619.471-.619,1.238C193.352,161.013,193.577,161.336,193.971,161.336Zm0,0" transform="translate(-185.101 -152.635)" fill="#607882"/>
        <path id="Trazado_819853" data-name="Trazado 819853" d="M230.175,159.555h-.66c-.169,0-.261-.061-.261-.271,0-.19.1-.241.368-.292l.19-.041c.568-.122.409-.706.844-.706.164,0,.3.072.3.348V161.5c0,.266-.1.45-.389.45s-.389-.184-.389-.45Zm0,0" transform="translate(-217.841 -152.635)" fill="#607882"/>
        <path id="Trazado_819854" data-name="Trazado 819854" d="M262.037,158.246c.829,0,1.366.6,1.366,1.805,0,.906-.286,1.9-1.366,1.9s-1.366-.992-1.366-1.9C260.672,158.845,261.209,158.246,262.037,158.246Zm0,3.09c.394,0,.619-.322.619-1.238,0-.767-.169-1.238-.619-1.238s-.619.471-.619,1.238C261.418,161.013,261.643,161.336,262.037,161.336Zm0,0" transform="translate(-245.909 -152.635)" fill="#607882"/>
        <path id="Trazado_819855" data-name="Trazado 819855" d="M300.983,158.246c.829,0,1.366.6,1.366,1.805,0,.906-.286,1.9-1.366,1.9s-1.366-.992-1.366-1.9C299.617,158.845,300.155,158.246,300.983,158.246Zm0,3.09c.394,0,.619-.322.619-1.238,0-.767-.169-1.238-.619-1.238s-.619.471-.619,1.238C300.364,161.013,300.589,161.336,300.983,161.336Zm0,0" transform="translate(-280.701 -152.635)" fill="#607882"/>
        <path id="Trazado_819856" data-name="Trazado 819856" d="M339.932,158.246c.829,0,1.366.6,1.366,1.805,0,.906-.286,1.9-1.366,1.9s-1.366-.992-1.366-1.9C338.566,158.845,339.1,158.246,339.932,158.246Zm0,3.09c.394,0,.619-.322.619-1.238,0-.767-.169-1.238-.619-1.238s-.619.471-.619,1.238C339.313,161.013,339.538,161.336,339.932,161.336Zm0,0" transform="translate(-315.496 -152.635)" fill="#607882"/>
        <path id="Trazado_819857" data-name="Trazado 819857" d="M376.135,159.555h-.66c-.169,0-.261-.061-.261-.271,0-.19.1-.241.368-.292l.189-.041c.568-.122.409-.706.844-.706.164,0,.3.072.3.348V161.5c0,.266-.1.45-.389.45s-.389-.184-.389-.45Zm0,0" transform="translate(-348.236 -152.635)" fill="#607882"/>
        <path id="Trazado_819858" data-name="Trazado 819858" d="M123.159,212.169h-.66c-.169,0-.261-.061-.261-.271,0-.19.1-.241.368-.292l.189-.041c.568-.122.41-.706.844-.706.164,0,.3.072.3.348v2.905c0,.266-.1.45-.389.45s-.389-.184-.389-.45Zm0,0" transform="translate(-122.238 -199.637)" fill="#607882"/>
        <path id="Trazado_819859" data-name="Trazado 819859" d="M155.022,210.859c.829,0,1.366.6,1.366,1.805,0,.906-.287,1.9-1.366,1.9s-1.366-.992-1.366-1.9C153.656,211.458,154.193,210.859,155.022,210.859Zm0,3.089c.394,0,.619-.322.619-1.238,0-.767-.169-1.238-.619-1.238s-.619.471-.619,1.238C154.4,213.627,154.628,213.949,155.022,213.949Zm0,0" transform="translate(-150.306 -199.637)" fill="#607882"/>
        <path id="Trazado_819860" data-name="Trazado 819860" d="M191.225,212.169h-.66c-.169,0-.261-.061-.261-.271,0-.19.1-.241.368-.292l.189-.041c.568-.122.409-.706.844-.706.164,0,.3.072.3.348v2.905c0,.266-.1.45-.389.45s-.389-.184-.389-.45Zm0,0" transform="translate(-183.046 -199.637)" fill="#607882"/>
        <path id="Trazado_819861" data-name="Trazado 819861" d="M223.088,210.859c.829,0,1.366.6,1.366,1.805,0,.906-.287,1.9-1.366,1.9s-1.366-.992-1.366-1.9C221.723,211.458,222.26,210.859,223.088,210.859Zm0,3.089c.394,0,.619-.322.619-1.238,0-.767-.169-1.238-.619-1.238s-.619.471-.619,1.238C222.469,213.627,222.695,213.949,223.088,213.949Zm0,0" transform="translate(-211.113 -199.637)" fill="#607882"/>
        <path id="Trazado_819862" data-name="Trazado 819862" d="M262.037,210.859c.829,0,1.366.6,1.366,1.805,0,.906-.286,1.9-1.366,1.9s-1.366-.992-1.366-1.9C260.672,211.458,261.209,210.859,262.037,210.859Zm0,3.089c.394,0,.619-.322.619-1.238,0-.767-.169-1.238-.619-1.238s-.619.471-.619,1.238C261.418,213.627,261.643,213.949,262.037,213.949Zm0,0" transform="translate(-245.909 -199.637)" fill="#607882"/>
        <path id="Trazado_819863" data-name="Trazado 819863" d="M298.237,212.169h-.66c-.169,0-.261-.061-.261-.271,0-.19.1-.241.368-.292l.19-.041c.567-.122.409-.706.844-.706.163,0,.3.072.3.348v2.905c0,.266-.1.45-.389.45s-.389-.184-.389-.45Zm0,0" transform="translate(-278.645 -199.637)" fill="#607882"/>
        <path id="Trazado_819864" data-name="Trazado 819864" d="M330.1,210.859c.829,0,1.366.6,1.366,1.805,0,.906-.287,1.9-1.366,1.9s-1.366-.992-1.366-1.9C328.734,211.458,329.271,210.859,330.1,210.859Zm0,3.089c.394,0,.619-.322.619-1.238,0-.767-.169-1.238-.619-1.238s-.619.471-.619,1.238C329.481,213.627,329.706,213.949,330.1,213.949Zm0,0" transform="translate(-306.712 -199.637)" fill="#607882"/>
        <path id="Trazado_819865" data-name="Trazado 819865" d="M369.049,210.859c.829,0,1.366.6,1.366,1.805,0,.906-.287,1.9-1.366,1.9s-1.366-.992-1.366-1.9C367.684,211.458,368.221,210.859,369.049,210.859Zm0,3.089c.394,0,.619-.322.619-1.238,0-.767-.169-1.238-.619-1.238s-.619.471-.619,1.238C368.431,213.627,368.656,213.949,369.049,213.949Zm0,0" transform="translate(-341.508 -199.637)" fill="#607882"/>
      </g>
      <path id="Trazado_819866" data-name="Trazado 819866" d="M99.278,61.279a1.772,1.772,0,0,0,1.77-1.77V36.621a1.772,1.772,0,0,0-1.77-1.77H60.152a1.772,1.772,0,0,0-1.77,1.77V59.51a1.771,1.771,0,0,0,1.77,1.77ZM59.966,59.51v-18.5H87.757a.792.792,0,0,0,0-1.583H59.966v-2.81a.187.187,0,0,1,.187-.187H99.278a.187.187,0,0,1,.187.187v2.81H91.523a.792.792,0,0,0,0,1.583h7.942v18.5a.187.187,0,0,1-.187.187H60.152A.187.187,0,0,1,59.966,59.51Zm0,0" transform="translate(-52.157 -31.135)"/>
      <path id="Trazado_819867" data-name="Trazado 819867" d="M53.3,32.188h-.694V3.921A3.926,3.926,0,0,0,48.687,0H6.431A3.9,3.9,0,0,0,3.1,1.857a.791.791,0,1,0,1.345.834A2.326,2.326,0,0,1,6.431,1.583H48.687a2.341,2.341,0,0,1,2.339,2.338V32.188H50.8a.791.791,0,0,0,0,1.583H53.02v.322a3.644,3.644,0,0,1-3.641,3.641H5.224a3.644,3.644,0,0,1-3.641-3.641v-.321l45.578.156h0a.792.792,0,0,0,0-1.583L4.092,32.2V5.841a.792.792,0,0,0-1.583,0V32.192l-1.209,0a1.3,1.3,0,0,0-1.3,1.3v.6a5.229,5.229,0,0,0,5.224,5.224H49.379A5.229,5.229,0,0,0,54.6,34.093v-.6A1.3,1.3,0,0,0,53.3,32.188Zm0,0"/>
      <path id="Trazado_819868" data-name="Trazado 819868" d="M122.5,106.943h.66v1.944c0,.266.1.45.389.45s.389-.184.389-.45v-2.906c0-.276-.133-.348-.3-.348-.434,0-.276.583-.844.706l-.189.041c-.266.051-.368.1-.368.292C122.238,106.881,122.33,106.943,122.5,106.943Zm0,0" transform="translate(-109.202 -94.368)"/>
      <path id="Trazado_819869" data-name="Trazado 819869" d="M155.022,109.336c1.079,0,1.366-.992,1.366-1.9,0-1.207-.537-1.805-1.366-1.805s-1.366.6-1.366,1.805C153.656,108.344,153.943,109.336,155.022,109.336Zm0-3.089c.45,0,.619.47.619,1.238,0,.916-.225,1.238-.619,1.238s-.619-.322-.619-1.238C154.4,106.717,154.572,106.247,155.022,106.247Zm0,0" transform="translate(-137.269 -94.368)"/>
      <path id="Trazado_819870" data-name="Trazado 819870" d="M193.971,109.336c1.079,0,1.366-.992,1.366-1.9,0-1.207-.537-1.805-1.366-1.805s-1.366.6-1.366,1.805C192.605,108.344,192.892,109.336,193.971,109.336Zm0-3.089c.45,0,.619.47.619,1.238,0,.916-.225,1.238-.619,1.238s-.619-.322-.619-1.238C193.352,106.717,193.521,106.247,193.971,106.247Zm0,0" transform="translate(-172.065 -94.368)"/>
      <path id="Trazado_819871" data-name="Trazado 819871" d="M229.515,106.943h.66v1.944c0,.266.1.45.389.45s.389-.184.389-.45v-2.906c0-.276-.133-.348-.3-.348-.435,0-.276.583-.844.706l-.189.041c-.266.051-.368.1-.368.292C229.254,106.881,229.346,106.943,229.515,106.943Zm0,0" transform="translate(-204.805 -94.368)"/>
      <path id="Trazado_819872" data-name="Trazado 819872" d="M262.037,109.336c1.079,0,1.366-.992,1.366-1.9,0-1.207-.537-1.805-1.366-1.805s-1.366.6-1.366,1.805C260.672,108.344,260.958,109.336,262.037,109.336Zm0-3.089c.45,0,.619.47.619,1.238,0,.916-.225,1.238-.619,1.238s-.619-.322-.619-1.238C261.418,106.717,261.588,106.247,262.037,106.247Zm0,0" transform="translate(-232.872 -94.368)"/>
      <path id="Trazado_819873" data-name="Trazado 819873" d="M297.577,106.943h.66v1.944c0,.266.1.45.389.45s.389-.184.389-.45v-2.906c0-.276-.133-.348-.3-.348-.435,0-.277.583-.844.706l-.19.041c-.266.051-.368.1-.368.292C297.316,106.881,297.408,106.943,297.577,106.943Zm0,0" transform="translate(-265.609 -94.368)"/>
      <path id="Trazado_819874" data-name="Trazado 819874" d="M330.1,109.336c1.079,0,1.366-.992,1.366-1.9,0-1.207-.537-1.805-1.366-1.805s-1.366.6-1.366,1.805C328.734,108.344,329.021,109.336,330.1,109.336Zm0-3.089c.45,0,.619.47.619,1.238,0,.916-.225,1.238-.619,1.238s-.619-.322-.619-1.238C329.481,106.717,329.65,106.247,330.1,106.247Zm0,0" transform="translate(-293.676 -94.368)"/>
      <path id="Trazado_819875" data-name="Trazado 819875" d="M369.049,109.336c1.079,0,1.366-.992,1.366-1.9,0-1.207-.537-1.805-1.366-1.805s-1.366.6-1.366,1.805C367.684,108.344,367.97,109.336,369.049,109.336Zm0-3.089c.45,0,.619.47.619,1.238,0,.916-.225,1.238-.619,1.238s-.619-.322-.619-1.238C368.431,106.717,368.6,106.247,369.049,106.247Zm0,0" transform="translate(-328.472 -94.368)"/>
      <path id="Trazado_819876" data-name="Trazado 819876" d="M124.539,160.052c0,.905.287,1.9,1.366,1.9s1.366-.992,1.366-1.9c0-1.207-.537-1.806-1.366-1.806S124.539,158.845,124.539,160.052Zm1.985.046c0,.916-.225,1.238-.619,1.238s-.619-.322-.619-1.238c0-.767.169-1.238.619-1.238S126.524,159.33,126.524,160.1Zm0,0" transform="translate(-111.258 -141.37)"/>
      <path id="Trazado_819877" data-name="Trazado 819877" d="M162.5,161.95c.287,0,.389-.184.389-.45v-2.906c0-.276-.133-.348-.3-.348-.435,0-.276.583-.844.706l-.189.041c-.266.051-.368.1-.368.292,0,.21.092.271.261.271h.66V161.5C162.108,161.765,162.211,161.95,162.5,161.95Zm0,0" transform="translate(-143.998 -141.37)"/>
      <path id="Trazado_819878" data-name="Trazado 819878" d="M193.971,161.95c1.079,0,1.366-.992,1.366-1.9,0-1.207-.537-1.806-1.366-1.806s-1.366.6-1.366,1.806C192.605,160.957,192.892,161.95,193.971,161.95Zm0-3.089c.45,0,.619.47.619,1.238,0,.916-.225,1.238-.619,1.238s-.619-.322-.619-1.238C193.352,159.33,193.521,158.86,193.971,158.86Zm0,0" transform="translate(-172.065 -141.37)"/>
      <path id="Trazado_819879" data-name="Trazado 819879" d="M229.515,159.556h.66V161.5c0,.266.1.45.389.45s.389-.184.389-.45v-2.906c0-.276-.133-.348-.3-.348-.435,0-.276.583-.844.706l-.189.041c-.266.051-.368.1-.368.292C229.254,159.494,229.346,159.556,229.515,159.556Zm0,0" transform="translate(-204.805 -141.37)"/>
      <path id="Trazado_819880" data-name="Trazado 819880" d="M262.037,161.95c1.079,0,1.366-.992,1.366-1.9,0-1.207-.537-1.806-1.366-1.806s-1.366.6-1.366,1.806C260.672,160.957,260.958,161.95,262.037,161.95Zm0-3.089c.45,0,.619.47.619,1.238,0,.916-.225,1.238-.619,1.238s-.619-.322-.619-1.238C261.418,159.33,261.588,158.86,262.037,158.86Zm0,0" transform="translate(-232.872 -141.37)"/>
      <path id="Trazado_819881" data-name="Trazado 819881" d="M299.617,160.052c0,.905.287,1.9,1.366,1.9s1.366-.992,1.366-1.9c0-1.207-.537-1.806-1.366-1.806S299.617,158.845,299.617,160.052Zm1.985.046c0,.916-.225,1.238-.619,1.238s-.619-.322-.619-1.238c0-.767.169-1.238.619-1.238S301.6,159.33,301.6,160.1Zm0,0" transform="translate(-267.664 -141.37)"/>
      <path id="Trazado_819882" data-name="Trazado 819882" d="M338.566,160.052c0,.905.287,1.9,1.366,1.9s1.366-.992,1.366-1.9c0-1.207-.537-1.806-1.366-1.806S338.566,158.845,338.566,160.052Zm1.985.046c0,.916-.225,1.238-.619,1.238s-.619-.322-.619-1.238c0-.767.169-1.238.619-1.238S340.551,159.33,340.551,160.1Zm0,0" transform="translate(-302.46 -141.37)"/>
      <path id="Trazado_819883" data-name="Trazado 819883" d="M376.524,161.95c.287,0,.389-.184.389-.45v-2.906c0-.276-.133-.348-.3-.348-.435,0-.276.583-.844.706l-.189.041c-.266.051-.368.1-.368.292,0,.21.092.271.261.271h.66V161.5C376.135,161.765,376.238,161.95,376.524,161.95Zm0,0" transform="translate(-335.2 -141.37)"/>
      <path id="Trazado_819884" data-name="Trazado 819884" d="M122.5,212.169h.66v1.944c0,.266.1.45.389.45s.389-.184.389-.45v-2.905c0-.276-.133-.348-.3-.348-.434,0-.276.583-.844.706l-.189.041c-.266.051-.368.1-.368.292C122.238,212.107,122.33,212.169,122.5,212.169Zm0,0" transform="translate(-109.202 -188.372)"/>
      <path id="Trazado_819885" data-name="Trazado 819885" d="M155.022,214.563c1.079,0,1.366-.992,1.366-1.9,0-1.207-.537-1.805-1.366-1.805s-1.366.6-1.366,1.805C153.656,213.571,153.943,214.563,155.022,214.563Zm0-3.09c.45,0,.619.471.619,1.238,0,.916-.225,1.238-.619,1.238s-.619-.322-.619-1.238C154.4,211.944,154.572,211.473,155.022,211.473Zm0,0" transform="translate(-137.269 -188.372)"/>
      <path id="Trazado_819886" data-name="Trazado 819886" d="M190.565,212.169h.66v1.944c0,.266.1.45.389.45s.389-.184.389-.45v-2.905c0-.276-.133-.348-.3-.348-.435,0-.276.583-.844.706l-.189.041c-.266.051-.368.1-.368.292C190.3,212.107,190.4,212.169,190.565,212.169Zm0,0" transform="translate(-170.01 -188.372)"/>
      <path id="Trazado_819887" data-name="Trazado 819887" d="M223.088,214.563c1.079,0,1.366-.992,1.366-1.9,0-1.207-.537-1.805-1.366-1.805s-1.366.6-1.366,1.805C221.723,213.571,222.009,214.563,223.088,214.563Zm0-3.09c.45,0,.619.471.619,1.238,0,.916-.225,1.238-.619,1.238s-.619-.322-.619-1.238C222.469,211.944,222.638,211.473,223.088,211.473Zm0,0" transform="translate(-198.077 -188.372)"/>
      <path id="Trazado_819888" data-name="Trazado 819888" d="M262.037,214.563c1.079,0,1.366-.992,1.366-1.9,0-1.207-.537-1.805-1.366-1.805s-1.366.6-1.366,1.805C260.672,213.571,260.958,214.563,262.037,214.563Zm0-3.09c.45,0,.619.471.619,1.238,0,.916-.225,1.238-.619,1.238s-.619-.322-.619-1.238C261.418,211.944,261.588,211.473,262.037,211.473Zm0,0" transform="translate(-232.872 -188.372)"/>
      <path id="Trazado_819889" data-name="Trazado 819889" d="M297.577,212.169h.66v1.944c0,.266.1.45.389.45s.389-.184.389-.45v-2.905c0-.276-.133-.348-.3-.348-.435,0-.277.583-.844.706l-.19.041c-.266.051-.368.1-.368.292C297.316,212.107,297.408,212.169,297.577,212.169Zm0,0" transform="translate(-265.609 -188.372)"/>
      <path id="Trazado_819890" data-name="Trazado 819890" d="M330.1,214.563c1.079,0,1.366-.992,1.366-1.9,0-1.207-.537-1.805-1.366-1.805s-1.366.6-1.366,1.805C328.734,213.571,329.021,214.563,330.1,214.563Zm0-3.09c.45,0,.619.471.619,1.238,0,.916-.225,1.238-.619,1.238s-.619-.322-.619-1.238C329.481,211.944,329.65,211.473,330.1,211.473Zm0,0" transform="translate(-293.676 -188.372)"/>
      <path id="Trazado_819891" data-name="Trazado 819891" d="M369.049,214.563c1.079,0,1.366-.992,1.366-1.9,0-1.207-.537-1.805-1.366-1.805s-1.366.6-1.366,1.805C367.684,213.571,367.97,214.563,369.049,214.563Zm0-3.09c.45,0,.619.471.619,1.238,0,.916-.225,1.238-.619,1.238s-.619-.322-.619-1.238C368.431,211.944,368.6,211.473,369.049,211.473Zm0,0" transform="translate(-328.472 -188.372)"/>
    </g>
  </g>
</svg>
