<svg xmlns="http://www.w3.org/2000/svg" width="326.43" height="601.933" viewBox="0 0 326.43 601.933">
  <g id="Grupo_1105945" data-name="Grupo 1105945" transform="translate(-378.381 -6897.5)">
    <rect id="Rectángulo_405368" data-name="Rectángulo 405368" width="4.474" height="151.062" transform="translate(704.811 7361.65) rotate(180)" fill="#3a1d71"/>
    <g id="Grupo_1105358" data-name="Grupo 1105358">
      <g id="Grupo_1105340" data-name="Grupo 1105340" transform="translate(-26.704 1522.687)">
        <path id="Unión_8" data-name="Unión 8" d="M-1516,11744.6h6.264V11712h4.474v32.6H-1499l-8.5,7.2Z" transform="translate(2073.303 -6013.634)" fill="#3a1d71"/>
        <g id="Grupo_1105320" data-name="Grupo 1105320" transform="translate(398.822 5799.975)">
          <path id="Unión_19" data-name="Unión 19" d="M0,166.193H4.474V0H0Z" transform="translate(166.499 39.2) rotate(-90)" fill="#3a1d71"/>
          <path id="Unión_20" data-name="Unión 20" d="M8.5,0,17,7.2H0Z" transform="translate(174.999 59.2) rotate(180)" fill="#3a1d71"/>
        </g>
        <g id="Grupo_1105321" data-name="Grupo 1105321" transform="translate(28 1706.577)">
          <rect id="Rectángulo_405353" data-name="Rectángulo 405353" width="94" height="35" rx="17.5" transform="translate(491 4235.169)" fill="#f0c518"/>
          <path id="Trazado_891263" data-name="Trazado 891263" d="M7.594-5.023H2.82V0H1.32V-11.375H8.367v1.227H2.82v3.9H7.594ZM11.508,0H10.063V-8.453h1.445ZM9.945-10.7a.863.863,0,0,1,.215-.594.807.807,0,0,1,.637-.242.819.819,0,0,1,.641.242.854.854,0,0,1,.219.594.826.826,0,0,1-.219.586.834.834,0,0,1-.641.234.821.821,0,0,1-.637-.234A.834.834,0,0,1,9.945-10.7Zm5.242,2.242.047,1.063a3.08,3.08,0,0,1,2.531-1.219q2.68,0,2.7,3.023V0H19.023V-5.594a1.946,1.946,0,0,0-.418-1.352,1.675,1.675,0,0,0-1.277-.437,2.086,2.086,0,0,0-1.234.375,2.546,2.546,0,0,0-.828.984V0H13.82V-8.453Z" transform="translate(527 4259.169)" fill="#12263f"/>
        </g>
        <rect id="Rectángulo_405358" data-name="Rectángulo 405358" width="4.474" height="18.888" transform="translate(563.264 5834.701)" fill="#3a1d71"/>
        <path id="Unión_21" data-name="Unión 21" d="M-1509.737,11712h4.474v135.871h-4.474Z" transform="translate(12443.516 7197.602) rotate(90)" fill="#3a1d71"/>
        <path id="Trazado_890881" data-name="Trazado 890881" d="M1980.49-8962h160.226l32.505-24.619-32.505-24.836H1980.49l-29.628,24.836Z" transform="translate(-1496.239 14677)" fill="#f0c518"/>
        <path id="Trazado_891260" data-name="Trazado 891260" d="M-75.348-4.133a5.062,5.062,0,0,1-.883,3.109A2.829,2.829,0,0,1-78.621.156,3.1,3.1,0,0,1-81.043-.82V3.25h-1.445v-11.7h1.32l.07.938a2.977,2.977,0,0,1,2.453-1.094,2.882,2.882,0,0,1,2.41,1.148,5.117,5.117,0,0,1,.887,3.2ZM-76.793-4.3A3.735,3.735,0,0,0-77.4-6.555a1.963,1.963,0,0,0-1.672-.828,2.125,2.125,0,0,0-1.969,1.164V-2.18a2.129,2.129,0,0,0,1.984,1.156,1.954,1.954,0,0,0,1.652-.824A4.077,4.077,0,0,0-76.793-4.3Zm8.5,4.3a3.036,3.036,0,0,1-.2-.891A3.225,3.225,0,0,1-70.9.156a2.984,2.984,0,0,1-2.051-.707,2.288,2.288,0,0,1-.8-1.793,2.39,2.39,0,0,1,1-2.051,4.733,4.733,0,0,1,2.824-.73h1.406v-.664A1.623,1.623,0,0,0-68.973-7a1.821,1.821,0,0,0-1.336-.449,2.108,2.108,0,0,0-1.3.391,1.151,1.151,0,0,0-.523.945h-1.453a2,2,0,0,1,.449-1.223,3.066,3.066,0,0,1,1.219-.934,4.1,4.1,0,0,1,1.691-.344,3.342,3.342,0,0,1,2.289.73,2.635,2.635,0,0,1,.859,2.012v3.891a4.757,4.757,0,0,0,.3,1.852V0Zm-2.4-1.1A2.54,2.54,0,0,0-69.4-1.453a2.127,2.127,0,0,0,.883-.914V-4.1h-1.133q-2.656,0-2.656,1.555a1.316,1.316,0,0,0,.453,1.063A1.742,1.742,0,0,0-70.691-1.1Zm9.969-6.055a4.331,4.331,0,0,0-.711-.055A1.9,1.9,0,0,0-63.363-6V0h-1.445V-8.453H-63.4l.023.977a2.251,2.251,0,0,1,2.016-1.133,1.477,1.477,0,0,1,.641.109ZM-54.488,0a3.036,3.036,0,0,1-.2-.891A3.225,3.225,0,0,1-57.1.156a2.984,2.984,0,0,1-2.051-.707,2.287,2.287,0,0,1-.8-1.793,2.39,2.39,0,0,1,1-2.051,4.733,4.733,0,0,1,2.824-.73h1.406v-.664A1.623,1.623,0,0,0-55.168-7,1.821,1.821,0,0,0-56.5-7.445a2.107,2.107,0,0,0-1.3.391,1.151,1.151,0,0,0-.523.945h-1.453a2,2,0,0,1,.449-1.223,3.066,3.066,0,0,1,1.219-.934,4.1,4.1,0,0,1,1.691-.344,3.342,3.342,0,0,1,2.289.73,2.635,2.635,0,0,1,.859,2.012v3.891a4.757,4.757,0,0,0,.3,1.852V0Zm-2.4-1.1A2.54,2.54,0,0,0-55.6-1.453a2.127,2.127,0,0,0,.883-.914V-4.1h-1.133Q-58.5-4.1-58.5-2.547a1.316,1.316,0,0,0,.453,1.063A1.742,1.742,0,0,0-56.887-1.1ZM-45.473,0h-1.445V-8.453h1.445Zm-1.562-10.7a.863.863,0,0,1,.215-.594.807.807,0,0,1,.637-.242.819.819,0,0,1,.641.242.854.854,0,0,1,.219.594.826.826,0,0,1-.219.586.834.834,0,0,1-.641.234.821.821,0,0,1-.637-.234A.834.834,0,0,1-47.035-10.7ZM-32.59-6.359h-6.516V-7.617h6.516Zm0,3.242h-6.516v-1.25h6.516ZM-21.855,0h-1.453V-9.633l-2.914,1.07V-9.875l4.141-1.555h.227Zm9.789-7.43a3.073,3.073,0,0,1,2.5-1.18q2.68,0,2.7,3.023V0H-8.309V-5.594a1.946,1.946,0,0,0-.418-1.352A1.675,1.675,0,0,0-10-7.383a2.086,2.086,0,0,0-1.234.375,2.546,2.546,0,0,0-.828.984V0h-1.445V-12h1.445ZM.52,0a3.036,3.036,0,0,1-.2-.891A3.225,3.225,0,0,1-2.09.156,2.984,2.984,0,0,1-4.141-.551a2.287,2.287,0,0,1-.8-1.793,2.39,2.39,0,0,1,1-2.051,4.733,4.733,0,0,1,2.824-.73H.293v-.664A1.623,1.623,0,0,0-.16-7,1.821,1.821,0,0,0-1.5-7.445a2.107,2.107,0,0,0-1.3.391,1.151,1.151,0,0,0-.523.945H-4.77A2,2,0,0,1-4.32-7.332,3.066,3.066,0,0,1-3.1-8.266,4.1,4.1,0,0,1-1.41-8.609a3.342,3.342,0,0,1,2.289.73,2.635,2.635,0,0,1,.859,2.012v3.891a4.757,4.757,0,0,0,.3,1.852V0Zm-2.4-1.1A2.54,2.54,0,0,0-.59-1.453a2.127,2.127,0,0,0,.883-.914V-4.1H-.84Q-3.5-4.1-3.5-2.547a1.316,1.316,0,0,0,.453,1.063A1.742,1.742,0,0,0-1.879-1.1Zm10.8-1.141a1.064,1.064,0,0,0-.441-.91,4.249,4.249,0,0,0-1.539-.559A7.277,7.277,0,0,1,5.2-4.273a2.479,2.479,0,0,1-.953-.781,1.869,1.869,0,0,1-.309-1.078A2.193,2.193,0,0,1,4.82-7.891a3.432,3.432,0,0,1,2.246-.719A3.532,3.532,0,0,1,9.4-7.867a2.357,2.357,0,0,1,.895,1.9H8.84a1.3,1.3,0,0,0-.5-1.023,1.888,1.888,0,0,0-1.27-.43,1.976,1.976,0,0,0-1.234.344,1.082,1.082,0,0,0-.445.9.877.877,0,0,0,.414.789,5.1,5.1,0,0,0,1.5.508A7.8,7.8,0,0,1,9.051-4.3a2.558,2.558,0,0,1,1,.809,1.988,1.988,0,0,1,.324,1.152A2.163,2.163,0,0,1,9.465-.527,3.8,3.8,0,0,1,7.113.156,4.257,4.257,0,0,1,5.316-.2a2.922,2.922,0,0,1-1.223-1A2.42,2.42,0,0,1,3.652-2.6H5.1A1.5,1.5,0,0,0,5.68-1.449a2.258,2.258,0,0,0,1.434.426A2.331,2.331,0,0,0,8.43-1.355,1.02,1.02,0,0,0,8.926-2.242ZM14.215-10.5v2.047h1.578v1.117H14.215v5.249a1.173,1.173,0,0,0,.211.763.888.888,0,0,0,.719.254,3.5,3.5,0,0,0,.688-.094V0a4.215,4.215,0,0,1-1.109.155A1.8,1.8,0,0,1,13.262-.43a2.517,2.517,0,0,1-.492-1.664V-7.336H11.23V-8.453H12.77V-10.5ZM22.7,0a3.036,3.036,0,0,1-.2-.891A3.225,3.225,0,0,1,20.09.156a2.984,2.984,0,0,1-2.051-.707,2.287,2.287,0,0,1-.8-1.793,2.39,2.39,0,0,1,1-2.051,4.733,4.733,0,0,1,2.824-.73h1.406v-.664A1.623,1.623,0,0,0,22.02-7a1.821,1.821,0,0,0-1.336-.449,2.108,2.108,0,0,0-1.3.391,1.151,1.151,0,0,0-.523.945H17.41a2,2,0,0,1,.449-1.223,3.066,3.066,0,0,1,1.219-.934,4.1,4.1,0,0,1,1.691-.344,3.342,3.342,0,0,1,2.289.73,2.635,2.635,0,0,1,.859,2.012v3.891a4.757,4.757,0,0,0,.3,1.852V0ZM20.3-1.1a2.54,2.54,0,0,0,1.289-.352,2.127,2.127,0,0,0,.883-.914V-4.1H21.34q-2.656,0-2.656,1.555a1.316,1.316,0,0,0,.453,1.063A1.742,1.742,0,0,0,20.3-1.1ZM31.512-8.453l.047,1.063A3.08,3.08,0,0,1,34.09-8.609q2.68,0,2.7,3.023V0H35.348V-5.594a1.946,1.946,0,0,0-.418-1.352,1.675,1.675,0,0,0-1.277-.437,2.086,2.086,0,0,0-1.234.375,2.546,2.546,0,0,0-.828.984V0H30.145V-8.453ZM44.191-.836a3.07,3.07,0,0,1-2.477.992,2.628,2.628,0,0,1-2.059-.785,3.4,3.4,0,0,1-.715-2.324v-5.5h1.445v5.461q0,1.922,1.563,1.922a2.163,2.163,0,0,0,2.2-1.234V-8.453H45.6V0H44.223Zm4.961-7.617.039.938A3.122,3.122,0,0,1,51.7-8.609,2.417,2.417,0,0,1,54.113-7.25a3.2,3.2,0,0,1,1.1-.984,3.242,3.242,0,0,1,1.6-.375q2.781,0,2.828,2.945V0H58.191V-5.578a1.941,1.941,0,0,0-.414-1.355,1.823,1.823,0,0,0-1.391-.449,1.917,1.917,0,0,0-1.336.48,1.949,1.949,0,0,0-.617,1.293V0H52.98V-5.539a1.613,1.613,0,0,0-1.8-1.844A1.934,1.934,0,0,0,49.23-6.172V0H47.785V-8.453ZM65.324.156a3.693,3.693,0,0,1-2.8-1.129,4.19,4.19,0,0,1-1.078-3.02v-.266A5.073,5.073,0,0,1,61.93-6.5a3.748,3.748,0,0,1,1.344-1.547,3.378,3.378,0,0,1,1.871-.559,3.166,3.166,0,0,1,2.563,1.086,4.7,4.7,0,0,1,.914,3.109v.6H62.895a3,3,0,0,0,.73,2.02,2.3,2.3,0,0,0,1.777.77,2.517,2.517,0,0,0,1.3-.312,3.259,3.259,0,0,0,.93-.828l.883.688A3.55,3.55,0,0,1,65.324.156Zm-.18-7.578a1.928,1.928,0,0,0-1.469.637A3.1,3.1,0,0,0,62.941-5h4.234v-.109a2.753,2.753,0,0,0-.594-1.707A1.815,1.815,0,0,0,65.145-7.422Zm9.234.266a4.331,4.331,0,0,0-.711-.055A1.9,1.9,0,0,0,71.738-6V0H70.293V-8.453H71.7l.023.977a2.251,2.251,0,0,1,2.016-1.133,1.477,1.477,0,0,1,.641.109ZM75.168-4.3a4.993,4.993,0,0,1,.488-2.234A3.643,3.643,0,0,1,77.016-8.07,3.7,3.7,0,0,1,79-8.609a3.565,3.565,0,0,1,2.793,1.2,4.6,4.6,0,0,1,1.066,3.18v.1a5.036,5.036,0,0,1-.473,2.215A3.589,3.589,0,0,1,81.039-.391a3.743,3.743,0,0,1-2.02.547,3.556,3.556,0,0,1-2.785-1.2A4.575,4.575,0,0,1,75.168-4.2Zm1.453.172a3.616,3.616,0,0,0,.652,2.258,2.088,2.088,0,0,0,1.746.852,2.075,2.075,0,0,0,1.75-.863A3.955,3.955,0,0,0,81.418-4.3a3.61,3.61,0,0,0-.66-2.254A2.1,2.1,0,0,0,79-7.422a2.075,2.075,0,0,0-1.727.852A3.925,3.925,0,0,0,76.621-4.133Z" transform="translate(566.303 5694.366)" fill="#12263f"/>
        <rect id="Rectángulo_405364" data-name="Rectángulo 405364" width="4.474" height="39.6" transform="translate(563.565 5774.193)" fill="#3a1d71"/>
        <path id="Unión_23" data-name="Unión 23" d="M-1516,11744.6h6.264V11712h4.474v32.6H-1499l-8.5,7.2Z" transform="translate(2073.303 -5810.055)" fill="#3a1d71"/>
        <g id="Grupo_1105319" data-name="Grupo 1105319" transform="translate(398.823 5745.372)">
          <path id="Unión_19-2" data-name="Unión 19" d="M0,160.415H4.474V0H0Z" transform="translate(6.262 68.421) rotate(-90)" fill="#3a1d71"/>
          <path id="Unión_22" data-name="Unión 22" d="M0,39.4H4.474V0H0Z" transform="translate(6.262 -53.8) rotate(-90)" fill="#3a1d71"/>
          <path id="Unión_20-2" data-name="Unión 20" d="M0,125.124l7.2-6.2V131.32Zm41.363,2.327V0h4.474V127.452Z" transform="translate(52.099 68.421) rotate(180)" fill="#3a1d71"/>
        </g>
        <rect id="Rectángulo_405370" data-name="Rectángulo 405370" width="151" height="36.877" transform="translate(488.704 5745.754)" fill="#f0c518"/>
        <path id="Trazado_891261" data-name="Trazado 891261" d="M-49.285-2.1a1,1,0,0,0-.414-.853,3.983,3.983,0,0,0-1.443-.524,6.822,6.822,0,0,1-1.633-.527,2.324,2.324,0,0,1-.894-.732,1.752,1.752,0,0,1-.289-1.011A2.056,2.056,0,0,1-53.134-7.4a3.218,3.218,0,0,1,2.106-.674,3.311,3.311,0,0,1,2.186.7A2.21,2.21,0,0,1-48-5.6h-1.362a1.223,1.223,0,0,0-.472-.959,1.77,1.77,0,0,0-1.19-.4,1.852,1.852,0,0,0-1.157.322,1.014,1.014,0,0,0-.417.842.822.822,0,0,0,.388.74,4.776,4.776,0,0,0,1.4.476,7.308,7.308,0,0,1,1.644.542,2.4,2.4,0,0,1,.934.758,1.864,1.864,0,0,1,.3,1.08,2.028,2.028,0,0,1-.85,1.7,3.564,3.564,0,0,1-2.2.641A3.991,3.991,0,0,1-52.668-.19a2.74,2.74,0,0,1-1.146-.941,2.268,2.268,0,0,1-.414-1.307h1.355a1.4,1.4,0,0,0,.546,1.08,2.117,2.117,0,0,0,1.344.4,2.185,2.185,0,0,0,1.234-.311A.956.956,0,0,0-49.285-2.1Zm8.013,1.318a2.878,2.878,0,0,1-2.322.93,2.464,2.464,0,0,1-1.93-.736,3.186,3.186,0,0,1-.67-2.179V-7.925h1.355v5.12q0,1.8,1.465,1.8a2.028,2.028,0,0,0,2.065-1.157V-7.925h1.355V0h-1.289Zm4.651-7.141.037.879a2.927,2.927,0,0,1,2.351-1.025A2.266,2.266,0,0,1-31.97-6.8a3,3,0,0,1,1.029-.923,3.039,3.039,0,0,1,1.5-.352q2.607,0,2.651,2.761V0h-1.355V-5.229A1.82,1.82,0,0,0-28.535-6.5a1.71,1.71,0,0,0-1.3-.421,1.8,1.8,0,0,0-1.252.45,1.827,1.827,0,0,0-.579,1.212V0h-1.362V-5.193a1.512,1.512,0,0,0-1.692-1.729,1.813,1.813,0,0,0-1.824,1.135V0H-37.9V-7.925ZM-19.856,0a2.846,2.846,0,0,1-.19-.835A3.023,3.023,0,0,1-22.3.146a2.8,2.8,0,0,1-1.923-.663A2.145,2.145,0,0,1-24.976-2.2a2.24,2.24,0,0,1,.941-1.923A4.437,4.437,0,0,1-21.387-4.8h1.318v-.623a1.522,1.522,0,0,0-.425-1.132,1.707,1.707,0,0,0-1.252-.421,1.976,1.976,0,0,0-1.216.366,1.079,1.079,0,0,0-.491.886h-1.362a1.87,1.87,0,0,1,.421-1.146,2.874,2.874,0,0,1,1.143-.875,3.844,3.844,0,0,1,1.586-.322,3.133,3.133,0,0,1,2.146.685A2.47,2.47,0,0,1-18.713-5.5v3.647a4.459,4.459,0,0,0,.278,1.736V0ZM-22.1-1.033a2.381,2.381,0,0,0,1.208-.33,1.994,1.994,0,0,0,.828-.857V-3.845H-21.13q-2.49,0-2.49,1.458a1.234,1.234,0,0,0,.425,1A1.633,1.633,0,0,0-22.1-1.033ZM-6.68-5.962h-6.108V-7.141H-6.68Zm0,3.04h-6.108V-4.094H-6.68ZM3.684-2.1a1,1,0,0,0-.414-.853,3.983,3.983,0,0,0-1.443-.524A6.822,6.822,0,0,1,.194-4.006,2.324,2.324,0,0,1-.7-4.739,1.752,1.752,0,0,1-.989-5.75,2.056,2.056,0,0,1-.165-7.4a3.218,3.218,0,0,1,2.106-.674,3.311,3.311,0,0,1,2.186.7A2.21,2.21,0,0,1,4.966-5.6H3.6a1.223,1.223,0,0,0-.472-.959,1.77,1.77,0,0,0-1.19-.4,1.852,1.852,0,0,0-1.157.322,1.014,1.014,0,0,0-.417.842.822.822,0,0,0,.388.74,4.776,4.776,0,0,0,1.4.476A7.308,7.308,0,0,1,3.8-4.036a2.4,2.4,0,0,1,.934.758,1.864,1.864,0,0,1,.3,1.08,2.028,2.028,0,0,1-.85,1.7,3.564,3.564,0,0,1-2.2.641A3.991,3.991,0,0,1,.3-.19,2.74,2.74,0,0,1-.846-1.132,2.268,2.268,0,0,1-1.26-2.439H.1a1.4,1.4,0,0,0,.546,1.08,2.117,2.117,0,0,0,1.344.4,2.185,2.185,0,0,0,1.234-.311A.956.956,0,0,0,3.684-2.1ZM11.7-.784a2.878,2.878,0,0,1-2.322.93A2.464,2.464,0,0,1,7.445-.59a3.186,3.186,0,0,1-.67-2.179V-7.925H8.13v5.12Q8.13-1,9.595-1A2.028,2.028,0,0,0,11.66-2.161V-7.925h1.355V0H11.726Zm4.651-7.141.037.879a2.927,2.927,0,0,1,2.351-1.025A2.266,2.266,0,0,1,21-6.8a3,3,0,0,1,1.029-.923,3.039,3.039,0,0,1,1.5-.352q2.607,0,2.651,2.761V0H24.822V-5.229A1.82,1.82,0,0,0,24.434-6.5a1.71,1.71,0,0,0-1.3-.421,1.8,1.8,0,0,0-1.252.45A1.827,1.827,0,0,0,21.3-5.259V0H19.937V-5.193a1.512,1.512,0,0,0-1.692-1.729,1.813,1.813,0,0,0-1.824,1.135V0H15.066V-7.925ZM33.113,0a2.846,2.846,0,0,1-.19-.835,3.023,3.023,0,0,1-2.256.981,2.8,2.8,0,0,1-1.923-.663A2.145,2.145,0,0,1,27.993-2.2a2.24,2.24,0,0,1,.941-1.923A4.437,4.437,0,0,1,31.582-4.8H32.9v-.623a1.522,1.522,0,0,0-.425-1.132,1.707,1.707,0,0,0-1.252-.421,1.976,1.976,0,0,0-1.216.366,1.079,1.079,0,0,0-.491.886H28.154a1.87,1.87,0,0,1,.421-1.146,2.874,2.874,0,0,1,1.143-.875A3.844,3.844,0,0,1,31.3-8.071a3.133,3.133,0,0,1,2.146.685A2.47,2.47,0,0,1,34.255-5.5v3.647a4.459,4.459,0,0,0,.278,1.736V0ZM30.864-1.033a2.381,2.381,0,0,0,1.208-.33,1.994,1.994,0,0,0,.828-.857V-3.845H31.838q-2.49,0-2.49,1.458a1.234,1.234,0,0,0,.425,1A1.633,1.633,0,0,0,30.864-1.033ZM43.975-5.72h2.974v1.282H43.975v3.369H42.612V-4.438H39.639V-5.72h2.974V-8.833h1.362ZM53.782,0H52.427V-7.925h1.355ZM52.317-10.027a.809.809,0,0,1,.2-.557.756.756,0,0,1,.6-.227.768.768,0,0,1,.6.227.8.8,0,0,1,.205.557.774.774,0,0,1-.205.549.782.782,0,0,1-.6.22.77.77,0,0,1-.6-.22A.782.782,0,0,1,52.317-10.027Z" transform="translate(566.127 5770.192)" fill="#12263f"/>
      </g>
      <path id="Unión_17" data-name="Unión 17" d="M-1516,11744.6h6.264V11712h4.474v32.6H-1499l-8.5,7.2Z" transform="translate(2045 -4574.41)" fill="#3a1d71"/>
      <path id="Trazado_890886" data-name="Trazado 890886" d="M2585.617-8949v-54.813h121.328V-8949s1.878,6.794-28.454,6.794c-14.984,0-40.12-10.05-59.708-11.754C2599.339-8955.657,2585.617-8949,2585.617-8949Z" transform="translate(-2111.094 16387.68)" fill="#f0c518"/>
      <path id="Trazado_891262" data-name="Trazado 891262" d="M-14.857-4.753A6.612,6.612,0,0,1-17.49-6.031,2.442,2.442,0,0,1-18.314-7.9a2.58,2.58,0,0,1,1.007-2.084,4,4,0,0,1,2.618-.824,4.369,4.369,0,0,1,1.959.425A3.222,3.222,0,0,1-11.4-9.214a3,3,0,0,1,.472,1.633h-1.414a1.95,1.95,0,0,0-.615-1.525,2.5,2.5,0,0,0-1.736-.555,2.561,2.561,0,0,0-1.622.459,1.53,1.53,0,0,0-.582,1.273,1.376,1.376,0,0,0,.553,1.1A5.424,5.424,0,0,0-14.458-6a8.734,8.734,0,0,1,2.08.825,3.157,3.157,0,0,1,1.113,1.051A2.683,2.683,0,0,1-10.9-2.71,2.492,2.492,0,0,1-11.913-.634a4.31,4.31,0,0,1-2.7.78,5.013,5.013,0,0,1-2.051-.421,3.451,3.451,0,0,1-1.469-1.154,2.815,2.815,0,0,1-.516-1.663h1.414a1.837,1.837,0,0,0,.714,1.527A3.007,3.007,0,0,0-14.615-1a2.764,2.764,0,0,0,1.707-.454A1.475,1.475,0,0,0-12.316-2.7a1.448,1.448,0,0,0-.549-1.212A6.333,6.333,0,0,0-14.857-4.753ZM-4.42-.784a2.878,2.878,0,0,1-2.322.93A2.464,2.464,0,0,1-8.672-.59a3.186,3.186,0,0,1-.67-2.179V-7.925h1.355v5.12q0,1.8,1.465,1.8A2.028,2.028,0,0,0-4.457-2.161V-7.925H-3.1V0H-4.391ZM.231-7.925l.037.879A2.927,2.927,0,0,1,2.618-8.071,2.266,2.266,0,0,1,4.882-6.8,3,3,0,0,1,5.911-7.72a3.039,3.039,0,0,1,1.5-.352q2.607,0,2.651,2.761V0H8.7V-5.229A1.82,1.82,0,0,0,8.317-6.5a1.71,1.71,0,0,0-1.3-.421,1.8,1.8,0,0,0-1.252.45,1.827,1.827,0,0,0-.579,1.212V0H3.82V-5.193A1.512,1.512,0,0,0,2.128-6.921,1.813,1.813,0,0,0,.3-5.786V0H-1.051V-7.925ZM17,0a2.846,2.846,0,0,1-.19-.835A3.023,3.023,0,0,1,14.55.146a2.8,2.8,0,0,1-1.923-.663A2.145,2.145,0,0,1,11.876-2.2a2.24,2.24,0,0,1,.941-1.923A4.437,4.437,0,0,1,15.465-4.8h1.318v-.623a1.522,1.522,0,0,0-.425-1.132,1.707,1.707,0,0,0-1.252-.421,1.976,1.976,0,0,0-1.216.366,1.079,1.079,0,0,0-.491.886H12.037a1.87,1.87,0,0,1,.421-1.146A2.874,2.874,0,0,1,13.6-7.749a3.844,3.844,0,0,1,1.586-.322,3.133,3.133,0,0,1,2.146.685A2.47,2.47,0,0,1,18.138-5.5v3.647a4.459,4.459,0,0,0,.278,1.736V0ZM14.747-1.033a2.381,2.381,0,0,0,1.208-.33,1.994,1.994,0,0,0,.828-.857V-3.845H15.721q-2.49,0-2.49,1.458a1.234,1.234,0,0,0,.425,1A1.633,1.633,0,0,0,14.747-1.033Z" transform="translate(535.523 7409.861)" fill="#12263f"/>
      <rect id="Rectángulo_405224" data-name="Rectángulo 405224" width="94" height="35" rx="17.5" transform="translate(491 6897.5)" fill="#f0c518"/>
      <path id="Trazado_891256" data-name="Trazado 891256" d="M2.93,0H1.43V-11.375h1.5ZM6.813-8.453l.047,1.063A3.08,3.08,0,0,1,9.391-8.609q2.68,0,2.7,3.023V0H10.648V-5.594a1.946,1.946,0,0,0-.418-1.352,1.675,1.675,0,0,0-1.277-.437,2.086,2.086,0,0,0-1.234.375,2.546,2.546,0,0,0-.828.984V0H5.445V-8.453ZM15.844,0H14.4V-8.453h1.445ZM14.281-10.7a.863.863,0,0,1,.215-.594.807.807,0,0,1,.637-.242.819.819,0,0,1,.641.242.854.854,0,0,1,.219.594.826.826,0,0,1-.219.586.834.834,0,0,1-.641.234.821.821,0,0,1-.637-.234A.834.834,0,0,1,14.281-10.7Zm7.266,9.672A2.082,2.082,0,0,0,22.9-1.492a1.649,1.649,0,0,0,.641-1.172h1.367a2.621,2.621,0,0,1-.5,1.383,3.293,3.293,0,0,1-1.23,1.047,3.55,3.55,0,0,1-1.629.391A3.482,3.482,0,0,1,18.8-1a4.59,4.59,0,0,1-1.02-3.152v-.242a5.089,5.089,0,0,1,.453-2.2,3.451,3.451,0,0,1,1.3-1.492,3.7,3.7,0,0,1,2-.531,3.39,3.39,0,0,1,2.363.852,3.043,3.043,0,0,1,1,2.211H23.539a1.992,1.992,0,0,0-.621-1.348,1.932,1.932,0,0,0-1.379-.527,2.023,2.023,0,0,0-1.707.793,3.724,3.724,0,0,0-.605,2.293v.273a3.65,3.65,0,0,0,.6,2.25A2.033,2.033,0,0,0,21.547-1.023ZM28.1,0H26.656V-8.453H28.1ZM26.539-10.7a.863.863,0,0,1,.215-.594.807.807,0,0,1,.637-.242.819.819,0,0,1,.641.242.854.854,0,0,1,.219.594.826.826,0,0,1-.219.586.834.834,0,0,1-.641.234.821.821,0,0,1-.637-.234A.834.834,0,0,1,26.539-10.7ZM30.031-4.3a4.993,4.993,0,0,1,.488-2.234A3.643,3.643,0,0,1,31.879-8.07a3.7,3.7,0,0,1,1.988-.539,3.565,3.565,0,0,1,2.793,1.2,4.6,4.6,0,0,1,1.066,3.18v.1a5.036,5.036,0,0,1-.473,2.215A3.589,3.589,0,0,1,35.9-.391a3.743,3.743,0,0,1-2.02.547,3.556,3.556,0,0,1-2.785-1.2A4.575,4.575,0,0,1,30.031-4.2Zm1.453.172a3.616,3.616,0,0,0,.652,2.258,2.088,2.088,0,0,0,1.746.852,2.075,2.075,0,0,0,1.75-.863A3.955,3.955,0,0,0,36.281-4.3a3.61,3.61,0,0,0-.66-2.254,2.1,2.1,0,0,0-1.754-.863,2.075,2.075,0,0,0-1.727.852A3.925,3.925,0,0,0,31.484-4.133Z" transform="translate(519 6921.5)" fill="#12263f"/>
      <path id="Trazado_890884" data-name="Trazado 890884" d="M1873.729-10913.992h98.864l22.125-49.853H1892.774l-23.246,49.853Z" transform="translate(-1394.527 18058.582)" fill="#f0c518"/>
      <path id="Trazado_891259" data-name="Trazado 891259" d="M2.461-8.453l.047,1.063A3.08,3.08,0,0,1,5.039-8.609q2.68,0,2.7,3.023V0H6.3V-5.594a1.946,1.946,0,0,0-.418-1.352A1.675,1.675,0,0,0,4.6-7.383a2.086,2.086,0,0,0-1.234.375,2.546,2.546,0,0,0-.828.984V0H1.094V-8.453ZM15.141-.836a3.07,3.07,0,0,1-2.477.992,2.628,2.628,0,0,1-2.059-.785,3.4,3.4,0,0,1-.715-2.324v-5.5h1.445v5.461q0,1.922,1.563,1.922A2.163,2.163,0,0,0,15.1-2.3V-8.453h1.445V0H15.172ZM20.1-8.453l.039.938a3.122,3.122,0,0,1,2.508-1.094A2.417,2.417,0,0,1,25.063-7.25a3.2,3.2,0,0,1,1.1-.984,3.242,3.242,0,0,1,1.6-.375q2.781,0,2.828,2.945V0H29.141V-5.578a1.941,1.941,0,0,0-.414-1.355,1.823,1.823,0,0,0-1.391-.449A1.916,1.916,0,0,0,26-6.9a1.949,1.949,0,0,0-.617,1.293V0H23.93V-5.539a1.613,1.613,0,0,0-1.8-1.844A1.934,1.934,0,0,0,20.18-6.172V0H18.734V-8.453ZM36.273.156a3.693,3.693,0,0,1-2.8-1.129A4.19,4.19,0,0,1,32.4-3.992v-.266a5.073,5.073,0,0,1,.48-2.246,3.748,3.748,0,0,1,1.344-1.547,3.378,3.378,0,0,1,1.871-.559,3.166,3.166,0,0,1,2.563,1.086,4.7,4.7,0,0,1,.914,3.109v.6H33.844a3,3,0,0,0,.73,2.02,2.3,2.3,0,0,0,1.777.77,2.517,2.517,0,0,0,1.3-.312,3.259,3.259,0,0,0,.93-.828l.883.688A3.55,3.55,0,0,1,36.273.156Zm-.18-7.578a1.928,1.928,0,0,0-1.469.637A3.1,3.1,0,0,0,33.891-5h4.234v-.109a2.753,2.753,0,0,0-.594-1.707A1.815,1.815,0,0,0,36.094-7.422Zm9.234.266a4.331,4.331,0,0,0-.711-.055A1.9,1.9,0,0,0,42.688-6V0H41.242V-8.453h1.406l.023.977a2.251,2.251,0,0,1,2.016-1.133,1.477,1.477,0,0,1,.641.109ZM46.117-4.3a4.993,4.993,0,0,1,.488-2.234A3.643,3.643,0,0,1,47.965-8.07a3.7,3.7,0,0,1,1.988-.539,3.565,3.565,0,0,1,2.793,1.2,4.6,4.6,0,0,1,1.066,3.18v.1a5.036,5.036,0,0,1-.473,2.215A3.589,3.589,0,0,1,51.988-.391a3.743,3.743,0,0,1-2.02.547,3.556,3.556,0,0,1-2.785-1.2A4.575,4.575,0,0,1,46.117-4.2Zm1.453.172a3.616,3.616,0,0,0,.652,2.258,2.088,2.088,0,0,0,1.746.852,2.075,2.075,0,0,0,1.75-.863A3.955,3.955,0,0,0,52.367-4.3a3.61,3.61,0,0,0-.66-2.254,2.1,2.1,0,0,0-1.754-.863,2.075,2.075,0,0,0-1.727.852A3.925,3.925,0,0,0,47.57-4.133Z" transform="translate(514.596 7126.581)" fill="#12263f"/>
      <path id="Unión_9" data-name="Unión 9" d="M-1516,11744.6h6.264V11712h4.474v32.6H-1499l-8.5,7.2Z" transform="translate(2045 -4645.5)" fill="#3a1d71"/>
      <path id="Trazado_890883" data-name="Trazado 890883" d="M2585.617-8949v-54.813h121.328V-8949s1.878,6.794-28.454,6.794c-14.984,0-40.12-10.05-59.708-11.754C2599.339-8955.657,2585.617-8949,2585.617-8949Z" transform="translate(-2111.094 16021.219)" fill="#f0c518"/>
      <path id="Trazado_891258" data-name="Trazado 891258" d="M-34.578-10.254l-.22,2.622h-.813l.007-3.618h1.025Zm1.978,0-.22,2.622h-.813l.007-3.618H-32.6Zm8.057,5.325h-4.622V-1.15H-23.8V0h-6.775V-10.664h6.7v1.15h-5.3v3.435h4.622Zm6.9,2.827a1,1,0,0,0-.414-.853A3.983,3.983,0,0,0-19.5-3.479a6.822,6.822,0,0,1-1.633-.527,2.324,2.324,0,0,1-.894-.732,1.752,1.752,0,0,1-.289-1.011A2.056,2.056,0,0,1-21.493-7.4a3.218,3.218,0,0,1,2.106-.674,3.311,3.311,0,0,1,2.186.7,2.21,2.21,0,0,1,.839,1.78h-1.362a1.223,1.223,0,0,0-.472-.959,1.77,1.77,0,0,0-1.19-.4,1.852,1.852,0,0,0-1.157.322,1.014,1.014,0,0,0-.417.842.822.822,0,0,0,.388.74,4.776,4.776,0,0,0,1.4.476,7.308,7.308,0,0,1,1.644.542,2.4,2.4,0,0,1,.934.758,1.864,1.864,0,0,1,.3,1.08,2.028,2.028,0,0,1-.85,1.7,3.564,3.564,0,0,1-2.2.641A3.991,3.991,0,0,1-21.028-.19a2.74,2.74,0,0,1-1.146-.941,2.268,2.268,0,0,1-.414-1.307h1.355a1.4,1.4,0,0,0,.546,1.08,2.117,2.117,0,0,0,1.344.4,2.185,2.185,0,0,0,1.234-.311A.956.956,0,0,0-17.644-2.1Zm6.3,1.143A1.952,1.952,0,0,0-10.078-1.4a1.546,1.546,0,0,0,.6-1.1H-8.2a2.457,2.457,0,0,1-.469,1.3A3.087,3.087,0,0,1-9.818-.22a3.329,3.329,0,0,1-1.527.366A3.265,3.265,0,0,1-13.92-.934a4.3,4.3,0,0,1-.956-2.955v-.227a4.771,4.771,0,0,1,.425-2.058,3.236,3.236,0,0,1,1.219-1.4,3.464,3.464,0,0,1,1.879-.5,3.178,3.178,0,0,1,2.216.8A2.853,2.853,0,0,1-8.2-5.2H-9.478a1.867,1.867,0,0,0-.582-1.263,1.811,1.811,0,0,0-1.293-.494,1.9,1.9,0,0,0-1.6.743,3.491,3.491,0,0,0-.568,2.15v.256A3.422,3.422,0,0,0-12.957-1.7,1.906,1.906,0,0,0-11.345-.959Zm8.5-5.75a4.061,4.061,0,0,0-.667-.051A1.786,1.786,0,0,0-5.317-5.625V0H-6.672V-7.925h1.318l.022.916a2.11,2.11,0,0,1,1.89-1.062,1.384,1.384,0,0,1,.6.1ZM-.125,0H-1.479V-7.925H-.125ZM-1.589-10.027a.809.809,0,0,1,.2-.557.756.756,0,0,1,.6-.227.768.768,0,0,1,.6.227.8.8,0,0,1,.205.557.774.774,0,0,1-.205.549.782.782,0,0,1-.6.22.77.77,0,0,1-.6-.22A.782.782,0,0,1-1.589-10.027ZM8.752-3.875A4.712,4.712,0,0,1,7.917-.956,2.668,2.668,0,0,1,5.676.146,2.763,2.763,0,0,1,3.354-.916L3.289,0H2.043V-11.25H3.4v4.2A2.747,2.747,0,0,1,5.662-8.071,2.684,2.684,0,0,1,7.928-6.98a4.853,4.853,0,0,1,.824,2.988ZM7.4-4.028a3.662,3.662,0,0,0-.535-2.139,1.77,1.77,0,0,0-1.538-.754A1.989,1.989,0,0,0,3.4-5.676v3.428A2.045,2.045,0,0,0,5.339-1a1.76,1.76,0,0,0,1.516-.754A3.894,3.894,0,0,0,7.4-4.028ZM15.352,0a2.846,2.846,0,0,1-.19-.835,3.023,3.023,0,0,1-2.256.981,2.8,2.8,0,0,1-1.923-.663A2.145,2.145,0,0,1,10.232-2.2a2.24,2.24,0,0,1,.941-1.923A4.437,4.437,0,0,1,13.821-4.8h1.318v-.623a1.522,1.522,0,0,0-.425-1.132,1.707,1.707,0,0,0-1.252-.421,1.976,1.976,0,0,0-1.216.366,1.079,1.079,0,0,0-.491.886H10.393a1.87,1.87,0,0,1,.421-1.146,2.874,2.874,0,0,1,1.143-.875,3.844,3.844,0,0,1,1.586-.322,3.133,3.133,0,0,1,2.146.685A2.47,2.47,0,0,1,16.494-5.5v3.647a4.459,4.459,0,0,0,.278,1.736V0ZM13.1-1.033a2.381,2.381,0,0,0,1.208-.33,1.994,1.994,0,0,0,.828-.857V-3.845H14.077q-2.49,0-2.49,1.458a1.234,1.234,0,0,0,.425,1A1.633,1.633,0,0,0,13.1-1.033ZM25.62.146A3.463,3.463,0,0,1,23-.912a3.928,3.928,0,0,1-1.011-2.831v-.249a4.756,4.756,0,0,1,.45-2.106,3.514,3.514,0,0,1,1.26-1.45,3.167,3.167,0,0,1,1.754-.524,2.968,2.968,0,0,1,2.4,1.018,4.408,4.408,0,0,1,.857,2.915v.564H23.342a2.817,2.817,0,0,0,.685,1.893,2.153,2.153,0,0,0,1.666.721,2.36,2.36,0,0,0,1.216-.293,3.055,3.055,0,0,0,.872-.776l.828.645A3.328,3.328,0,0,1,25.62.146Zm-.168-7.1a1.807,1.807,0,0,0-1.377.6,2.9,2.9,0,0,0-.688,1.674h3.97v-.1a2.581,2.581,0,0,0-.557-1.6A1.7,1.7,0,0,0,25.452-6.958ZM31.75,0H30.4V-11.25H31.75ZM-25.155,8.075l.044,1a2.888,2.888,0,0,1,2.373-1.143q2.512,0,2.534,2.834V16h-1.355V10.756a1.824,1.824,0,0,0-.392-1.267,1.57,1.57,0,0,0-1.2-.41,1.956,1.956,0,0,0-1.157.352,2.387,2.387,0,0,0-.776.923V16h-1.355V8.075Zm11.887,7.141a2.878,2.878,0,0,1-2.322.93,2.464,2.464,0,0,1-1.93-.736,3.186,3.186,0,0,1-.67-2.179V8.075h1.355v5.12q0,1.8,1.465,1.8A2.028,2.028,0,0,0-13.3,13.839V8.075h1.355V16h-1.289Zm-1.1-10.452h1.641l-1.963,2.153-1.091,0Zm5.75,3.311.037.879A2.927,2.927,0,0,1-6.229,7.929,2.266,2.266,0,0,1-3.966,9.2,3,3,0,0,1-2.937,8.28a3.039,3.039,0,0,1,1.5-.352q2.607,0,2.651,2.761V16H-.143V10.771A1.82,1.82,0,0,0-.531,9.5a1.71,1.71,0,0,0-1.3-.421,1.8,1.8,0,0,0-1.252.45,1.827,1.827,0,0,0-.579,1.212V16H-5.028V10.807A1.512,1.512,0,0,0-6.72,9.079a1.813,1.813,0,0,0-1.824,1.135V16H-9.9V8.075ZM6.544,16.146a3.463,3.463,0,0,1-2.622-1.058,3.928,3.928,0,0,1-1.011-2.831v-.249A4.756,4.756,0,0,1,3.362,9.9a3.514,3.514,0,0,1,1.26-1.45,3.167,3.167,0,0,1,1.754-.524,2.968,2.968,0,0,1,2.4,1.018,4.408,4.408,0,0,1,.857,2.915v.564H4.266a2.817,2.817,0,0,0,.685,1.893,2.153,2.153,0,0,0,1.666.721,2.36,2.36,0,0,0,1.216-.293,3.055,3.055,0,0,0,.872-.776l.828.645A3.328,3.328,0,0,1,6.544,16.146Zm-.168-7.1A1.807,1.807,0,0,0,5,9.639a2.9,2.9,0,0,0-.688,1.674H8.28v-.1a2.581,2.581,0,0,0-.557-1.6A1.7,1.7,0,0,0,6.376,9.042Zm8.657.249a4.06,4.06,0,0,0-.667-.051,1.786,1.786,0,0,0-1.809,1.135V16H11.2V8.075h1.318l.022.916a2.11,2.11,0,0,1,1.89-1.062,1.384,1.384,0,0,1,.6.1Zm.74,2.673A4.681,4.681,0,0,1,16.23,9.87,3.415,3.415,0,0,1,17.5,8.434a3.469,3.469,0,0,1,1.864-.505,3.342,3.342,0,0,1,2.618,1.121,4.311,4.311,0,0,1,1,2.981v.1a4.722,4.722,0,0,1-.443,2.076,3.365,3.365,0,0,1-1.267,1.432,3.509,3.509,0,0,1-1.893.513,3.334,3.334,0,0,1-2.611-1.121,4.29,4.29,0,0,1-1-2.966Zm1.362.161a3.39,3.39,0,0,0,.612,2.117,2.072,2.072,0,0,0,3.278-.011,3.707,3.707,0,0,0,.608-2.267,3.384,3.384,0,0,0-.619-2.113,1.968,1.968,0,0,0-1.644-.809,1.946,1.946,0,0,0-1.619.8A3.68,3.68,0,0,0,17.135,12.125Zm7.559-6.379-.22,2.622h-.813l.007-3.618h1.025Zm1.978,0-.22,2.622h-.813l.007-3.618h1.025Z" transform="translate(535.523 7043.4)" fill="#12263f"/>
      <path id="Unión_8-2" data-name="Unión 8" d="M-1516,11744.6h6.264V11712h4.474v32.6H-1499l-8.5,7.2Z" transform="translate(2045 -4730.66)" fill="#3a1d71"/>
      <rect id="Rectángulo_405347" data-name="Rectángulo 405347" width="151" height="36.877" transform="translate(462 6957.462)" fill="#f0c518"/>
      <path id="Trazado_891257" data-name="Trazado 891257" d="M-26.727-2.242a1.064,1.064,0,0,0-.441-.91,4.249,4.249,0,0,0-1.539-.559,7.277,7.277,0,0,1-1.742-.562,2.479,2.479,0,0,1-.953-.781,1.869,1.869,0,0,1-.309-1.078,2.193,2.193,0,0,1,.879-1.758,3.432,3.432,0,0,1,2.246-.719,3.532,3.532,0,0,1,2.332.742,2.357,2.357,0,0,1,.895,1.9h-1.453a1.3,1.3,0,0,0-.5-1.023,1.888,1.888,0,0,0-1.27-.43,1.976,1.976,0,0,0-1.234.344,1.082,1.082,0,0,0-.445.9.877.877,0,0,0,.414.789,5.1,5.1,0,0,0,1.5.508A7.8,7.8,0,0,1-26.6-4.3a2.558,2.558,0,0,1,1,.809,1.988,1.988,0,0,1,.324,1.152,2.163,2.163,0,0,1-.906,1.816,3.8,3.8,0,0,1-2.352.684,4.257,4.257,0,0,1-1.8-.359,2.922,2.922,0,0,1-1.223-1A2.42,2.42,0,0,1-32-2.6h1.445a1.5,1.5,0,0,0,.582,1.152,2.258,2.258,0,0,0,1.434.426,2.331,2.331,0,0,0,1.316-.332A1.02,1.02,0,0,0-26.727-2.242ZM-18.18-.836a3.07,3.07,0,0,1-2.477.992,2.628,2.628,0,0,1-2.059-.785,3.4,3.4,0,0,1-.715-2.324v-5.5h1.445v5.461q0,1.922,1.563,1.922a2.163,2.163,0,0,0,2.2-1.234V-8.453h1.445V0h-1.375Zm4.961-7.617.039.938a3.122,3.122,0,0,1,2.508-1.094A2.417,2.417,0,0,1-8.258-7.25a3.2,3.2,0,0,1,1.1-.984,3.242,3.242,0,0,1,1.6-.375q2.781,0,2.828,2.945V0H-4.18V-5.578a1.941,1.941,0,0,0-.414-1.355,1.823,1.823,0,0,0-1.391-.449A1.916,1.916,0,0,0-7.32-6.9a1.949,1.949,0,0,0-.617,1.293V0H-9.391V-5.539a1.613,1.613,0,0,0-1.8-1.844,1.934,1.934,0,0,0-1.945,1.211V0h-1.445V-8.453ZM4.664,0a3.036,3.036,0,0,1-.2-.891A3.225,3.225,0,0,1,2.055.156,2.984,2.984,0,0,1,0-.551,2.287,2.287,0,0,1-.8-2.344a2.39,2.39,0,0,1,1-2.051,4.733,4.733,0,0,1,2.824-.73H4.438v-.664A1.623,1.623,0,0,0,3.984-7a1.821,1.821,0,0,0-1.336-.449,2.107,2.107,0,0,0-1.3.391,1.151,1.151,0,0,0-.523.945H-.625A2,2,0,0,1-.176-7.332a3.066,3.066,0,0,1,1.219-.934,4.1,4.1,0,0,1,1.691-.344,3.342,3.342,0,0,1,2.289.73,2.635,2.635,0,0,1,.859,2.012v3.891a4.757,4.757,0,0,0,.3,1.852V0Zm-2.4-1.1a2.54,2.54,0,0,0,1.289-.352,2.127,2.127,0,0,0,.883-.914V-4.1H3.3Q.648-4.1.648-2.547A1.316,1.316,0,0,0,1.1-1.484,1.742,1.742,0,0,0,2.266-1.1ZM18.719-6.359H12.2V-7.617h6.516Zm0,3.242H12.2v-1.25h6.516ZM31.836-4.852a6.61,6.61,0,0,1-.867,3.773A3.084,3.084,0,0,1,28.258.156a3.107,3.107,0,0,1-2.7-1.207,6.274,6.274,0,0,1-.906-3.605v-1.93a6.463,6.463,0,0,1,.867-3.727,3.108,3.108,0,0,1,2.719-1.219,3.136,3.136,0,0,1,2.7,1.176,6.237,6.237,0,0,1,.891,3.629ZM30.391-6.828A5.3,5.3,0,0,0,29.875-9.5a1.775,1.775,0,0,0-1.633-.84,1.751,1.751,0,0,0-1.617.836,5.171,5.171,0,0,0-.523,2.57v2.313A5.381,5.381,0,0,0,26.637-1.9a1.771,1.771,0,0,0,1.621.879,1.747,1.747,0,0,0,1.59-.828,5.186,5.186,0,0,0,.543-2.609Z" transform="translate(538 6982.4)" fill="#12263f"/>
      <path id="Unión_7" data-name="Unión 7" d="M-1516,11740.5h6.264V11712h4.474v28.5H-1499l-8.5,6.3Z" transform="translate(2045 -4786.5)" fill="#3a1d71"/>
    </g>
  </g>
</svg>
