<svg xmlns="http://www.w3.org/2000/svg" width="80.006" height="77.587" viewBox="0 0 80.006 77.587">
  <g id="Layer_7" transform="translate(-5.967 -3.146)">
    <g id="Grupo_1105905" data-name="Grupo 1105905" transform="translate(4.046)">
      <g id="Grupo_1105775" data-name="Grupo 1105775" transform="translate(50.89 3.146)">
        <g id="Grupo_1105774" data-name="Grupo 1105774">
          <circle id="Elipse_11922" data-name="Elipse 11922" cx="10.975" cy="10.975" r="10.975" transform="translate(0 15.518) rotate(-45)" fill="#f98fa6"/>
        </g>
      </g>
      <g id="Grupo_1105777" data-name="Grupo 1105777" transform="translate(55.273 32.839)">
        <g id="Grupo_1105776" data-name="Grupo 1105776">
          <circle id="Elipse_11923" data-name="Elipse 11923" cx="10.975" cy="10.975" r="10.975" fill="#70d6f9"/>
        </g>
      </g>
      <g id="Grupo_1105779" data-name="Grupo 1105779" transform="translate(55.273 57.994)">
        <g id="Grupo_1105778" data-name="Grupo 1105778">
          <circle id="Elipse_11924" data-name="Elipse 11924" cx="10.975" cy="10.975" r="10.975" fill="#b598f9"/>
        </g>
      </g>
      <g id="Grupo_1105781" data-name="Grupo 1105781" transform="translate(61.051 12.976)">
        <g id="Grupo_1105780" data-name="Grupo 1105780">
          <path id="Trazado_891149" data-name="Trazado 891149" d="M208.195,41.147H198.117a.48.48,0,0,0-.48.48v2.194a.48.48,0,0,0,.48.48h10.078a.48.48,0,0,0,.48-.48V41.627A.48.48,0,0,0,208.195,41.147Z" transform="translate(-197.637 -41.147)" fill="#70d6f9"/>
        </g>
      </g>
      <g id="Grupo_1105783" data-name="Grupo 1105783" transform="translate(61.051 18.968)">
        <g id="Grupo_1105782" data-name="Grupo 1105782">
          <path id="Trazado_891150" data-name="Trazado 891150" d="M200.311,60.147h-2.194a.48.48,0,0,0-.48.48v4.4a.48.48,0,0,0,.48.48h2.194a.48.48,0,0,0,.48-.48v-4.4A.48.48,0,0,0,200.311,60.147Z" transform="translate(-197.637 -60.147)" fill="#f5c84c"/>
        </g>
      </g>
      <g id="Grupo_1105785" data-name="Grupo 1105785" transform="translate(60.887 62.504)">
        <g id="Grupo_1105784" data-name="Grupo 1105784">
          <path id="Trazado_891151" data-name="Trazado 891151" d="M207.1,198.2H197.85a.734.734,0,0,0-.734.734v11.461a.734.734,0,0,0,.734.734H207.1a.734.734,0,0,0,.734-.734V198.933A.734.734,0,0,0,207.1,198.2Z" transform="translate(-197.116 -198.199)" fill="#5290db"/>
        </g>
      </g>
      <g id="Grupo_1105787" data-name="Grupo 1105787" transform="translate(60.887 66.762)">
        <g id="Grupo_1105786" data-name="Grupo 1105786">
          <path id="Trazado_891152" data-name="Trazado 891152" d="M197.116,211.7h10.722v4.415H197.116Z" transform="translate(-197.116 -211.699)" fill="#3a70bf"/>
        </g>
      </g>
      <g id="Grupo_1105790" data-name="Grupo 1105790" transform="translate(54.654 6.896)">
        <g id="Grupo_1105789" data-name="Grupo 1105789">
          <g id="Grupo_1105788" data-name="Grupo 1105788">
            <path id="Trazado_891153" data-name="Trazado 891153" d="M189.115,21.866a11.763,11.763,0,1,0,11.763,11.763,11.777,11.777,0,0,0-11.763-11.763Zm0,21.95A10.186,10.186,0,1,1,199.3,33.629,10.2,10.2,0,0,1,189.115,43.816Z" transform="translate(-177.352 -21.866)"/>
          </g>
        </g>
      </g>
      <g id="Grupo_1105793" data-name="Grupo 1105793" transform="translate(54.485 32.051)">
        <g id="Grupo_1105792" data-name="Grupo 1105792">
          <g id="Grupo_1105791" data-name="Grupo 1105791">
            <path id="Trazado_891154" data-name="Trazado 891154" d="M188.578,101.632A11.763,11.763,0,1,0,200.342,113.4,11.777,11.777,0,0,0,188.578,101.632Zm0,21.95A10.186,10.186,0,1,1,198.765,113.4,10.2,10.2,0,0,1,188.578,123.582Z" transform="translate(-176.815 -101.632)"/>
          </g>
        </g>
      </g>
      <g id="Grupo_1105795" data-name="Grupo 1105795" transform="translate(66.419 20.86)">
        <g id="Grupo_1105794" data-name="Grupo 1105794">
          <path id="Trazado_891155" data-name="Trazado 891155" d="M219.849,66.146h-4.4a.788.788,0,1,0,0,1.577h4.4a.788.788,0,1,0,0-1.577Z" transform="translate(-214.66 -66.146)"/>
        </g>
      </g>
      <g id="Grupo_1105797" data-name="Grupo 1105797" transform="translate(66.419 18.179)">
        <g id="Grupo_1105796" data-name="Grupo 1105796">
          <path id="Trazado_891156" data-name="Trazado 891156" d="M219.849,57.646h-4.4a.788.788,0,1,0,0,1.577h4.4a.788.788,0,1,0,0-1.577Z" transform="translate(-214.66 -57.646)"/>
        </g>
      </g>
      <g id="Grupo_1105799" data-name="Grupo 1105799" transform="translate(66.419 23.54)">
        <g id="Grupo_1105798" data-name="Grupo 1105798">
          <path id="Trazado_891157" data-name="Trazado 891157" d="M219.849,74.646h-4.4a.788.788,0,1,0,0,1.577h4.4a.788.788,0,1,0,0-1.577Z" transform="translate(-214.66 -74.646)"/>
        </g>
      </g>
      <g id="Grupo_1105801" data-name="Grupo 1105801" transform="translate(68.875 40.368)">
        <g id="Grupo_1105800" data-name="Grupo 1105800">
          <path id="Trazado_891158" data-name="Trazado 891158" d="M226.413,130.857l-2.619-2.62a.788.788,0,0,0-1.115,1.115l2.062,2.062-2.062,2.062a.788.788,0,0,0,1.115,1.115l2.619-2.619A.788.788,0,0,0,226.413,130.857Z" transform="translate(-222.447 -128.006)"/>
        </g>
      </g>
      <g id="Grupo_1105803" data-name="Grupo 1105803" transform="translate(59.438 40.368)">
        <g id="Grupo_1105802" data-name="Grupo 1105802">
          <path id="Trazado_891159" data-name="Trazado 891159" d="M194.424,131.414l2.062-2.062a.788.788,0,0,0-1.115-1.115l-2.62,2.62a.789.789,0,0,0,0,1.115l2.62,2.619a.789.789,0,0,0,1.115-1.115Z" transform="translate(-192.521 -128.006)"/>
        </g>
      </g>
      <g id="Grupo_1105805" data-name="Grupo 1105805" transform="translate(64.54 39.812)">
        <g id="Grupo_1105804" data-name="Grupo 1105804">
          <path id="Trazado_891160" data-name="Trazado 891160" d="M211.561,126.275a.787.787,0,0,0-.978.536l-1.852,6.351a.788.788,0,1,0,1.514.442l1.852-6.351A.789.789,0,0,0,211.561,126.275Z" transform="translate(-208.699 -126.243)"/>
        </g>
      </g>
      <g id="Grupo_1105808" data-name="Grupo 1105808" transform="translate(54.485 57.206)">
        <g id="Grupo_1105807" data-name="Grupo 1105807">
          <g id="Grupo_1105806" data-name="Grupo 1105806">
            <path id="Trazado_891161" data-name="Trazado 891161" d="M188.578,181.4a11.763,11.763,0,1,0,11.763,11.763A11.777,11.777,0,0,0,188.578,181.4Zm0,21.95a10.186,10.186,0,1,1,10.186-10.186A10.2,10.2,0,0,1,188.578,203.348Z" transform="translate(-176.815 -181.398)"/>
          </g>
        </g>
      </g>
      <g id="Grupo_1105816" data-name="Grupo 1105816" transform="translate(60.456 65.973)">
        <g id="Grupo_1105815" data-name="Grupo 1105815">
          <path id="Trazado_891165" data-name="Trazado 891165" d="M206.591,209.2H196.538a.788.788,0,0,0,0,1.577h10.052a.788.788,0,0,0,0-1.577Z" transform="translate(-195.75 -209.199)"/>
        </g>
      </g>
      <g id="Grupo_1105818" data-name="Grupo 1105818" transform="translate(60.436 70.388)">
        <g id="Grupo_1105817" data-name="Grupo 1105817">
          <path id="Trazado_891166" data-name="Trazado 891166" d="M206.548,223.2H196.476a.788.788,0,1,0,0,1.577h10.072a.788.788,0,1,0,0-1.577Z" transform="translate(-195.688 -223.199)"/>
        </g>
      </g>
      <g id="Grupo_1105821" data-name="Grupo 1105821" transform="translate(60.263 12.187)">
        <g id="Grupo_1105820" data-name="Grupo 1105820">
          <g id="Grupo_1105819" data-name="Grupo 1105819">
            <path id="Trazado_891167" data-name="Trazado 891167" d="M206.484,38.646H196.406a1.27,1.27,0,0,0-1.268,1.268v2.194a1.27,1.27,0,0,0,1.268,1.268h10.078a1.27,1.27,0,0,0,1.268-1.268V39.914A1.27,1.27,0,0,0,206.484,38.646Zm-.308,3.154h-9.461V40.223h9.461Z" transform="translate(-195.138 -38.646)"/>
          </g>
        </g>
      </g>
      <g id="Grupo_1105824" data-name="Grupo 1105824" transform="translate(60.263 18.179)">
        <g id="Grupo_1105823" data-name="Grupo 1105823">
          <g id="Grupo_1105822" data-name="Grupo 1105822">
            <path id="Trazado_891168" data-name="Trazado 891168" d="M198.6,57.646h-2.194a1.27,1.27,0,0,0-1.268,1.268v4.4a1.27,1.27,0,0,0,1.268,1.268H198.6a1.27,1.27,0,0,0,1.268-1.268v-4.4A1.27,1.27,0,0,0,198.6,57.646Zm-.308,5.361h-1.577V59.223h1.577Z" transform="translate(-195.137 -57.646)"/>
          </g>
        </g>
      </g>
      <g id="Grupo_1105827" data-name="Grupo 1105827" transform="translate(60.098 61.716)">
        <g id="Grupo_1105826" data-name="Grupo 1105826">
          <g id="Grupo_1105825" data-name="Grupo 1105825">
            <path id="Trazado_891169" data-name="Trazado 891169" d="M205.392,195.7h-9.254a1.524,1.524,0,0,0-1.523,1.523v11.461a1.524,1.524,0,0,0,1.523,1.523h9.254a1.524,1.524,0,0,0,1.523-1.523V197.222A1.524,1.524,0,0,0,205.392,195.7Zm-.054,12.93h-9.145V197.276h9.145Z" transform="translate(-194.616 -195.699)"/>
          </g>
        </g>
      </g>
      <g id="Grupo_1105829" data-name="Grupo 1105829" transform="translate(42.422 50.187)">
        <g id="Grupo_1105828" data-name="Grupo 1105828">
          <path id="Trazado_891170" data-name="Trazado 891170" d="M145.182,163.8a4.492,4.492,0,0,0-3.388-4.106l-2.177-.55a1.382,1.382,0,0,1,.344.908V183.5a1.4,1.4,0,0,1-1.395,1.395h2.086a.985.985,0,0,1,.985.985,3.019,3.019,0,0,1-3.019,3.019H144.8a1.249,1.249,0,0,0,1.247-1.318Z" transform="translate(-138.566 -159.14)" fill="#3a70bf"/>
        </g>
      </g>
      <g id="Grupo_1105831" data-name="Grupo 1105831" transform="translate(2.71 50.187)">
        <g id="Grupo_1105830" data-name="Grupo 1105830">
          <path id="Trazado_891171" data-name="Trazado 891171" d="M17.051,185.879a.985.985,0,0,1,.985-.985h2.086a1.4,1.4,0,0,1-1.395-1.395V160.049a1.382,1.382,0,0,1,.344-.908l-2.177.55a4.491,4.491,0,0,0-3.388,4.106l-.865,23.784a1.248,1.248,0,0,0,1.247,1.318H20.07A3.019,3.019,0,0,1,17.051,185.879Z" transform="translate(-12.639 -159.141)" fill="#3a70bf"/>
        </g>
      </g>
      <g id="Grupo_1105833" data-name="Grupo 1105833" transform="translate(8.798 49.7)">
        <g id="Grupo_1105832" data-name="Grupo 1105832">
          <path id="Trazado_891172" data-name="Trazado 891172" d="M65.568,157.6H33.339a1.4,1.4,0,0,0-1.395,1.395v23.451a1.4,1.4,0,0,0,1.395,1.395H65.568a1.4,1.4,0,0,0,1.395-1.395V158.993A1.4,1.4,0,0,0,65.568,157.6Z" transform="translate(-31.944 -157.598)" fill="#edf4fc"/>
        </g>
      </g>
      <g id="Grupo_1105835" data-name="Grupo 1105835" transform="translate(7.121 75.941)">
        <g id="Grupo_1105834" data-name="Grupo 1105834" transform="translate(0)">
          <path id="Trazado_891173" data-name="Trazado 891173" d="M64.015,240.807h-36.4a.985.985,0,0,0-.985.985,3.019,3.019,0,0,0,3.019,3.019H61.981A3.019,3.019,0,0,0,65,241.792.984.984,0,0,0,64.015,240.807Z" transform="translate(-26.628 -240.807)" fill="#c7d7e5"/>
        </g>
      </g>
      <g id="Grupo_1105837" data-name="Grupo 1105837" transform="translate(37.232 22.701)">
        <g id="Grupo_1105836" data-name="Grupo 1105836">
          <path id="Trazado_891174" data-name="Trazado 891174" d="M122.84,71.985a4.57,4.57,0,0,0-.7.056v8.292c0,.247-.011.491-.028.734a4.571,4.571,0,1,0,.731-9.082Z" transform="translate(-122.109 -71.985)" fill="#f9d0b4"/>
        </g>
      </g>
      <g id="Grupo_1105839" data-name="Grupo 1105839" transform="translate(15.354 18.872)">
        <g id="Grupo_1105838" data-name="Grupo 1105838">
          <path id="Trazado_891175" data-name="Trazado 891175" d="M73.966,62.337a9.075,9.075,0,0,1-4-2.3.727.727,0,0,0-1.044.059c-1.668,1.947-7.583,7.854-16.192,5.4V72.02a10.953,10.953,0,0,0,21.906,0V63.171a.86.86,0,0,0-.674-.834Z" transform="translate(-52.734 -59.844)" fill="#f9d0b4"/>
        </g>
      </g>
      <g id="Grupo_1105841" data-name="Grupo 1105841" transform="translate(10.078 23.567)">
        <g id="Grupo_1105840" data-name="Grupo 1105840">
          <path id="Trazado_891176" data-name="Trazado 891176" d="M41.28,82.211V75.688a17.807,17.807,0,0,1-2.317-.841,1.393,1.393,0,0,0-1.515.26,4.559,4.559,0,0,0,3.859,7.839C41.291,82.7,41.28,82.458,41.28,82.211Z" transform="translate(-36.004 -74.729)" fill="#f9d0b4"/>
        </g>
      </g>
      <g id="Grupo_1105843" data-name="Grupo 1105843" transform="translate(11.413 6.473)">
        <g id="Grupo_1105842" data-name="Grupo 1105842">
          <path id="Trazado_891177" data-name="Trazado 891177" d="M55.131,20.526A14.938,14.938,0,0,0,40.237,35.42v2.692c.037-.038.071-.078.11-.114a1.393,1.393,0,0,1,1.515-.26,17.852,17.852,0,0,0,2.317.841c8.608,2.452,14.524-3.455,16.192-5.4a.727.727,0,0,1,1.044-.059,9.073,9.073,0,0,0,4,2.3.859.859,0,0,1,.674.834v.557A4.553,4.553,0,0,1,70.025,38.1V35.42A14.937,14.937,0,0,0,55.131,20.526Z" transform="translate(-40.237 -20.526)" fill="#5b5d60"/>
        </g>
      </g>
      <g id="Grupo_1105845" data-name="Grupo 1105845" transform="translate(31.517 29.708)">
        <g id="Grupo_1105844" data-name="Grupo 1105844">
          <path id="Trazado_891178" data-name="Trazado 891178" d="M114.117,102.481A8.1,8.1,0,0,0,114.3,94.2a4.517,4.517,0,0,1-4.6,2.076,10.991,10.991,0,0,1-5.716,8.891v3.322a3.04,3.04,0,0,0,1.452,2.587c.358.221-.1-.038,2.955,1.479a10.537,10.537,0,0,0,1.371.548c.083.026.167.049.25.072a7.585,7.585,0,0,0,3.955-2.985,6.268,6.268,0,0,0,.082-6.425A1.271,1.271,0,0,1,114.117,102.481Z" transform="translate(-103.985 -94.202)" fill="#5b5d60"/>
        </g>
      </g>
      <g id="Grupo_1105847" data-name="Grupo 1105847" transform="translate(9.725 29.707)">
        <g id="Grupo_1105846" data-name="Grupo 1105846" transform="translate(0)">
          <path id="Trazado_891179" data-name="Trazado 891179" d="M40.541,96.277a4.517,4.517,0,0,1-4.6-2.076,8.1,8.1,0,0,0,.181,8.279,1.27,1.27,0,0,1,.068,1.286,6.268,6.268,0,0,0,.082,6.425,7.585,7.585,0,0,0,3.955,2.985c.084-.024.167-.046.25-.072a10.51,10.51,0,0,0,1.371-.548c3.249-1.616,2.623-1.275,2.955-1.479a3.041,3.041,0,0,0,1.452-2.587v-3.322a10.99,10.99,0,0,1-5.716-8.891Z" transform="translate(-34.884 -94.201)" fill="#5b5d60"/>
        </g>
      </g>
      <g id="Grupo_1105849" data-name="Grupo 1105849" transform="translate(2.709 63.997)">
        <g id="Grupo_1105848" data-name="Grupo 1105848">
          <path id="Trazado_891180" data-name="Trazado 891180" d="M17.05,215.862a.985.985,0,0,1,.985-.985h2.086a1.4,1.4,0,0,1-1.395-1.395v-9.19l-5.554-1.359-.532,14.628a1.248,1.248,0,0,0,1.247,1.318h6.182a3.018,3.018,0,0,1-3.019-3.018Z" transform="translate(-12.638 -202.934)" fill="#f9d0b4"/>
        </g>
      </g>
      <g id="Grupo_1105851" data-name="Grupo 1105851" transform="translate(42.422 63.998)">
        <g id="Grupo_1105850" data-name="Grupo 1105850">
          <path id="Trazado_891181" data-name="Trazado 891181" d="M145.514,202.935l-5.554,1.359v9.19a1.4,1.4,0,0,1-1.395,1.395h2.086a.985.985,0,0,1,.985.985,3.019,3.019,0,0,1-3.019,3.019H144.8a1.249,1.249,0,0,0,1.247-1.318Z" transform="translate(-138.565 -202.935)" fill="#f9d0b4"/>
        </g>
      </g>
      <g id="Grupo_1105853" data-name="Grupo 1105853" transform="translate(12.04 46.129)">
        <g id="Grupo_1105852" data-name="Grupo 1105852">
          <path id="Trazado_891182" data-name="Trazado 891182" d="M50.4,146.273a3.027,3.027,0,0,1-.818.6l-2.708,1.335a9.557,9.557,0,0,1-1.7.641l-2.955,1H52.988Z" transform="translate(-42.225 -146.273)" fill="#5290db"/>
        </g>
      </g>
      <g id="Grupo_1105855" data-name="Grupo 1105855" transform="translate(29.812 46.129)">
        <g id="Grupo_1105854" data-name="Grupo 1105854">
          <path id="Trazado_891183" data-name="Trazado 891183" d="M106.386,148.848a9.574,9.574,0,0,1-1.7-.641l-2.708-1.335a3.027,3.027,0,0,1-.818-.6l-2.586,3.571h10.763Z" transform="translate(-98.578 -146.273)" fill="#5290db"/>
        </g>
      </g>
      <g id="Grupo_1105857" data-name="Grupo 1105857" transform="translate(20.217 40.675)">
        <g id="Grupo_1105856" data-name="Grupo 1105856">
          <path id="Trazado_891184" data-name="Trazado 891184" d="M79.453,132.3v-3.322a10.89,10.89,0,0,1-10.42,0V132.3a3.038,3.038,0,0,1-.881,2.132L70.739,138h7.009l2.586-3.571a3.039,3.039,0,0,1-.881-2.132Z" transform="translate(-68.153 -128.979)" fill="#f9d0b4"/>
        </g>
      </g>
      <g id="Grupo_1105859" data-name="Grupo 1105859" transform="translate(41.686 49.429)">
        <g id="Grupo_1105858" data-name="Grupo 1105858">
          <path id="Trazado_891185" data-name="Trazado 891185" d="M145.237,185.907l-.866-23.8a5.256,5.256,0,0,0-3.982-4.826l-2.055-.519a.788.788,0,1,0-.386,1.529l2.056.519a3.682,3.682,0,0,1,2.793,3.37l.866,23.8a.461.461,0,0,1-.459.486H137.02a.788.788,0,0,0,0,1.577H143.2a2.037,2.037,0,0,0,2.034-2.135Z" transform="translate(-136.232 -156.739)"/>
        </g>
      </g>
      <g id="Grupo_1105861" data-name="Grupo 1105861" transform="translate(1.921 49.42)">
        <g id="Grupo_1105860" data-name="Grupo 1105860">
          <path id="Trazado_891186" data-name="Trazado 891186" d="M18.357,186.445H12.174a.456.456,0,0,1-.334-.144.468.468,0,0,1-.125-.357l.865-23.769a3.687,3.687,0,0,1,2.794-3.385l2.091-.528a.788.788,0,1,0-.386-1.529l-2.091.528A5.261,5.261,0,0,0,11,162.1l-.865,23.769a2.037,2.037,0,0,0,2.034,2.15h6.182a.788.788,0,1,0,0-1.576Z" transform="translate(-10.137 -156.709)"/>
        </g>
      </g>
      <g id="Grupo_1105869" data-name="Grupo 1105869" transform="translate(23.277 63.072)">
        <g id="Grupo_1105868" data-name="Grupo 1105868">
          <path id="Trazado_891188" data-name="Trazado 891188" d="M83.046,200h-4.4a.788.788,0,1,0,0,1.577h4.4a.788.788,0,0,0,0-1.577Z" transform="translate(-77.856 -200)"/>
        </g>
      </g>
      <g id="Grupo_1105872" data-name="Grupo 1105872" transform="translate(8.01 48.912)">
        <g id="Grupo_1105871" data-name="Grupo 1105871">
          <g id="Grupo_1105870" data-name="Grupo 1105870">
            <path id="Trazado_891189" data-name="Trazado 891189" d="M63.856,155.1H31.627a2.186,2.186,0,0,0-2.183,2.183v23.451a2.186,2.186,0,0,0,2.183,2.183H63.856a2.186,2.186,0,0,0,2.183-2.183V157.281A2.186,2.186,0,0,0,63.856,155.1Zm.606,25.634a.607.607,0,0,1-.606.606H31.627a.607.607,0,0,1-.606-.606V157.281a.607.607,0,0,1,.606-.606H63.856a.607.607,0,0,1,.606.606Z" transform="translate(-29.444 -155.098)"/>
          </g>
        </g>
      </g>
      <g id="Grupo_1105875" data-name="Grupo 1105875" transform="translate(6.333 75.153)">
        <g id="Grupo_1105874" data-name="Grupo 1105874">
          <g id="Grupo_1105873" data-name="Grupo 1105873">
            <path id="Trazado_891190" data-name="Trazado 891190" d="M62.3,238.307H25.9a1.775,1.775,0,0,0-1.773,1.773,3.812,3.812,0,0,0,3.807,3.807H60.269a3.812,3.812,0,0,0,3.807-3.807A1.774,1.774,0,0,0,62.3,238.307Zm-2.034,4H27.935a2.233,2.233,0,0,1-2.23-2.23.2.2,0,0,1,.2-.2H62.3a.2.2,0,0,1,.2.2A2.233,2.233,0,0,1,60.269,242.31Z" transform="translate(-24.128 -238.307)"/>
          </g>
        </g>
      </g>
      <g id="Grupo_1105881" data-name="Grupo 1105881" transform="translate(36.734 21.913)">
        <g id="Grupo_1105880" data-name="Grupo 1105880">
          <path id="Trazado_891193" data-name="Trazado 891193" d="M121.758,69.485c-.163,0-.33.008-.5.024a.788.788,0,0,0,.15,1.57q.171-.017.347-.017a3.784,3.784,0,0,1,0,7.569,3.323,3.323,0,0,1-.357-.02.788.788,0,0,0-.168,1.568,4.9,4.9,0,0,0,.525.029,5.361,5.361,0,1,0,0-10.722Z" transform="translate(-120.529 -69.485)"/>
        </g>
      </g>
      <g id="Grupo_1105884" data-name="Grupo 1105884" transform="translate(14.566 18.084)">
        <g id="Grupo_1105883" data-name="Grupo 1105883">
          <g id="Grupo_1105882" data-name="Grupo 1105882">
            <path id="Trazado_891194" data-name="Trazado 891194" d="M72.432,59.857a8.442,8.442,0,0,1-3.645-2.116,1.537,1.537,0,0,0-1.121-.4,1.5,1.5,0,0,0-1.051.524c-1.541,1.8-7.2,7.485-15.377,5.157a.788.788,0,0,0-1,.758v6.523a11.741,11.741,0,1,0,23.483,0V61.459A1.642,1.642,0,0,0,72.432,59.857Zm-.293,10.451a10.165,10.165,0,1,1-20.329,0V64.8c8.458,1.854,14.27-3.9,15.959-5.851a9.925,9.925,0,0,0,4.307,2.447.074.074,0,0,1,.063.066Z" transform="translate(-50.233 -57.343)"/>
          </g>
        </g>
      </g>
      <g id="Grupo_1105886" data-name="Grupo 1105886" transform="translate(9.29 22.778)">
        <g id="Grupo_1105885" data-name="Grupo 1105885" transform="translate(0)">
          <path id="Trazado_891195" data-name="Trazado 891195" d="M39.784,73.218a17.132,17.132,0,0,1-2.214-.8,2.178,2.178,0,0,0-2.372.406,5.357,5.357,0,0,0,3.668,9.266c.149,0,.3-.007.442-.021a.788.788,0,0,0-.145-1.57c-.1.009-.2.014-.3.014a3.789,3.789,0,0,1-3.785-3.785,3.739,3.739,0,0,1,1.2-2.754.6.6,0,0,1,.657-.114,18.725,18.725,0,0,0,2.419.878.789.789,0,0,0,.432-1.517Z" transform="translate(-33.504 -72.228)"/>
        </g>
      </g>
      <g id="Grupo_1105888" data-name="Grupo 1105888" transform="translate(10.625 5.685)">
        <g id="Grupo_1105887" data-name="Grupo 1105887">
          <path id="Trazado_891196" data-name="Trazado 891196" d="M53.42,18.026A15.7,15.7,0,0,0,37.737,33.709v2.626a.788.788,0,1,0,1.577,0V33.709a14.106,14.106,0,1,1,28.212,0V36.23a.788.788,0,1,0,1.577,0V33.709A15.7,15.7,0,0,0,53.42,18.026Z" transform="translate(-37.737 -18.026)"/>
        </g>
      </g>
      <g id="Grupo_1105890" data-name="Grupo 1105890" transform="translate(36.878 29.039)">
        <g id="Grupo_1105889" data-name="Grupo 1105889">
          <path id="Trazado_891197" data-name="Trazado 891197" d="M126.421,101.453a8.9,8.9,0,0,0,.283-8.934.788.788,0,0,0-1.413.7,7.252,7.252,0,0,1-.2,7.386,2.066,2.066,0,0,0-.1,2.082,5.463,5.463,0,0,1-.053,5.631,6.747,6.747,0,0,1-3.446,2.623.788.788,0,1,0,.559,1.474,8.277,8.277,0,0,0,4.22-3.256,7.1,7.1,0,0,0,.11-7.218.481.481,0,0,1,.038-.489Z" transform="translate(-120.985 -92.08)"/>
        </g>
      </g>
      <g id="Grupo_1105892" data-name="Grupo 1105892" transform="translate(8.942 29.052)">
        <g id="Grupo_1105891" data-name="Grupo 1105891">
          <path id="Trazado_891198" data-name="Trazado 891198" d="M38.572,110.928a6.686,6.686,0,0,1-3.331-2.579,5.464,5.464,0,0,1-.053-5.632,2.065,2.065,0,0,0-.1-2.082,7.249,7.249,0,0,1-.206-7.373.788.788,0,0,0-1.414-.7,8.9,8.9,0,0,0,.29,8.919.481.481,0,0,1,.038.489,7.1,7.1,0,0,0,.11,7.219A8.22,8.22,0,0,0,38,112.4a.788.788,0,0,0,.577-1.468Z" transform="translate(-32.401 -92.124)"/>
        </g>
      </g>
      <g id="Grupo_1105894" data-name="Grupo 1105894" transform="translate(2.636 63.253)">
        <g id="Grupo_1105893" data-name="Grupo 1105893">
          <path id="Trazado_891199" data-name="Trazado 891199" d="M18.551,201.862,13.382,200.6a.788.788,0,1,0-.375,1.531l5.169,1.265a.788.788,0,0,0,.375-1.531Z" transform="translate(-12.406 -200.575)"/>
        </g>
      </g>
      <g id="Grupo_1105896" data-name="Grupo 1105896" transform="translate(43.222 63.27)">
        <g id="Grupo_1105895" data-name="Grupo 1105895">
          <path id="Trazado_891200" data-name="Trazado 891200" d="M147.767,201.23a.788.788,0,0,0-.953-.578l-5.11,1.25a.788.788,0,1,0,.375,1.531l5.11-1.25a.788.788,0,0,0,.578-.953Z" transform="translate(-141.103 -200.628)"/>
        </g>
      </g>
      <g id="Grupo_1105898" data-name="Grupo 1105898" transform="translate(11.341 45.341)">
        <g id="Grupo_1105897" data-name="Grupo 1105897">
          <path id="Trazado_891201" data-name="Trazado 891201" d="M51.956,147.46,49.522,144.1a.788.788,0,0,0-1.2-.09,2.247,2.247,0,0,1-.6.445l-2.708,1.335a8.835,8.835,0,0,1-1.556.588l-.043.013-2.866.966a.789.789,0,0,0,.5,1.495l2.845-.959a10.394,10.394,0,0,0,1.813-.688l2.708-1.335a3.588,3.588,0,0,0,.315-.175l1.95,2.693a.789.789,0,1,0,1.277-.925Z" transform="translate(-40.007 -143.773)"/>
        </g>
      </g>
      <g id="Grupo_1105900" data-name="Grupo 1105900" transform="translate(29.082 45.34)">
        <g id="Grupo_1105899" data-name="Grupo 1105899">
          <path id="Trazado_891202" data-name="Trazado 891202" d="M107.946,147.364l-2.892-.975-.043-.013a8.832,8.832,0,0,1-1.556-.588l-2.708-1.336a2.245,2.245,0,0,1-.6-.445.788.788,0,0,0-1.2.091l-2.527,3.49a.788.788,0,1,0,1.277.925l2.043-2.822q.154.1.315.175l2.708,1.335a10.354,10.354,0,0,0,1.813.688l2.871.968a.788.788,0,1,0,.5-1.494Z" transform="translate(-96.266 -143.773)"/>
        </g>
      </g>
      <g id="Grupo_1105902" data-name="Grupo 1105902" transform="translate(19.428 40.071)">
        <g id="Grupo_1105901" data-name="Grupo 1105901">
          <path id="Trazado_891203" data-name="Trazado 891203" d="M67.322,127.063a.788.788,0,0,0-.788.788v3.138a2.242,2.242,0,0,1-.654,1.579A.788.788,0,1,0,67,133.674a3.809,3.809,0,0,0,1.108-2.685v-3.138A.788.788,0,0,0,67.322,127.063Z" transform="translate(-65.653 -127.063)"/>
        </g>
      </g>
      <g id="Grupo_1105904" data-name="Grupo 1105904" transform="translate(30.729 40.09)">
        <g id="Grupo_1105903" data-name="Grupo 1105903">
          <path id="Trazado_891204" data-name="Trazado 891204" d="M103.717,132.61a2.242,2.242,0,0,1-.654-1.579v-3.118a.788.788,0,1,0-1.577,0v3.118a3.809,3.809,0,0,0,1.107,2.685.788.788,0,1,0,1.124-1.106Z" transform="translate(-101.486 -127.125)"/>
        </g>
      </g>
    </g>
  </g>
</svg>
