<svg xmlns="http://www.w3.org/2000/svg" width="84.872" height="84.872" viewBox="0 0 84.872 84.872">
  <g id="Grupo_1103439" data-name="Grupo 1103439" transform="translate(-757.564 -3562.293)">
    <g id="Grupo_1103435" data-name="Grupo 1103435" transform="translate(0 -2593)">
      <path id="Trazado_879587" data-name="Trazado 879587" d="M42.436,0A42.436,42.436,0,1,1,0,42.436,42.436,42.436,0,0,1,42.436,0Z" transform="translate(757.564 6155.293)" fill="#f0c52c"/>
    </g>
    <g id="cpu" transform="translate(768.004 3570.729)">
      <path id="Trazado_886043" data-name="Trazado 886043" d="M61,21A10,10,0,0,1,51,31H10c-4.42,0-7-3.58-7-8,0-3.74,1.53-7.13,5-8,.37-3.51,5-6,7-6a10.6,10.6,0,0,1,5,1c2.7-3.93,6.87-7,12-7a15.552,15.552,0,0,1,13,7,8.589,8.589,0,0,1,4-1,6,6,0,0,1,6,6,6,6,0,0,1,6,6Z" fill="#ffdaaa"/>
      <path id="Trazado_886044" data-name="Trazado 886044" d="M61,21A10,10,0,0,1,51,31H10a6.775,6.775,0,0,1-3.34-.83A58.826,58.826,0,0,0,38,22,57.626,57.626,0,0,0,52.22,9.94,5.984,5.984,0,0,1,55,15a6,6,0,0,1,6,6Z" fill="#ffb655"/>
      <circle id="Elipse_11724" data-name="Elipse 11724" cx="2" cy="2" r="2" transform="translate(56 49)" fill="#ffde55"/>
      <circle id="Elipse_11725" data-name="Elipse 11725" cx="2" cy="2" r="2" transform="translate(56 57)" fill="#ffde55"/>
      <path id="Trazado_886045" data-name="Trazado 886045" d="M22,29H42V49H22Z" fill="#c6c5ca"/>
      <path id="Trazado_886046" data-name="Trazado 886046" d="M39,29h3V49H39Z" fill="#898890"/>
      <circle id="Elipse_11726" data-name="Elipse 11726" cx="2" cy="2" r="2" transform="translate(34 33)" fill="#ffde55"/>
      <path id="Trazado_886047" data-name="Trazado 886047" d="M27,13c0-2.59,2.41-4,5-4s5,1.41,5,4c0,4-3,4-3,6H30C30,17,27,17,27,13Z" fill="#ffde55"/>
      <path id="Trazado_886048" data-name="Trazado 886048" d="M37,13c0,4-3,4-3,6H31c0-2,3-2,3-6,0-2.08-1.55-3.4-3.5-3.83A6.218,6.218,0,0,1,32,9C34.59,9,37,10.41,37,13Z" fill="#ebbf00"/>
      <circle id="Elipse_11727" data-name="Elipse 11727" cx="2" cy="2" r="2" transform="translate(3 49)" fill="#ffde55"/>
      <circle id="Elipse_11728" data-name="Elipse 11728" cx="2" cy="2" r="2" transform="translate(3 57)" fill="#ffde55"/>
      <path id="Trazado_886049" data-name="Trazado 886049" d="M43,36h5V34H43V32h8A11.007,11.007,0,0,0,62,21a7.011,7.011,0,0,0-6.06-6.94A7.011,7.011,0,0,0,49,8a9.078,9.078,0,0,0-3.64.74A16.519,16.519,0,0,0,32,2c-4.67,0-9.13,2.46-12.35,6.77A11.9,11.9,0,0,0,15,8c-2.41,0-7.01,2.53-7.88,6.22C3.9,15.34,2,18.57,2,23c0,5.3,3.29,9,8,9H21v2H16v2h5v2H2v2H21v2H13a3.009,3.009,0,0,0-3,3v4a1,1,0,0,1-1,1H7.82a3,3,0,1,0,0,2H9a3.009,3.009,0,0,0,3-3V45a1,1,0,0,1,1-1h8v2H18a3.009,3.009,0,0,0-3,3v8a1,1,0,0,1-1,1H7.82a3,3,0,1,0,0,2H14a3.009,3.009,0,0,0,3-3V49a1,1,0,0,1,1-1h3v1a1,1,0,0,0,1,1h1v9a1,1,0,0,1-1,1H19v2h3a3.009,3.009,0,0,0,3-3V50h2v6h2V50h2V62h2V50h2v9a3.009,3.009,0,0,0,3,3h7V60H38a1,1,0,0,1-1-1V50h2v1a3.009,3.009,0,0,0,3,3h3V52H42a1,1,0,0,1-1-1V50h1a1,1,0,0,0,1-1V48h2a1,1,0,0,1,1,1v8a3.009,3.009,0,0,0,3,3h6.18a3,3,0,1,0,0-2H49a1,1,0,0,1-1-1V49a3.009,3.009,0,0,0-3-3H43V44h7a1,1,0,0,1,1,1v4a3.009,3.009,0,0,0,3,3h1.18a3,3,0,1,0,0-2H54a1,1,0,0,1-1-1V45a3.009,3.009,0,0,0-3-3H43V40H62V38H43ZM5,52a1,1,0,1,1,1-1A1,1,0,0,1,5,52Zm0,8a1,1,0,1,1,1-1A1,1,0,0,1,5,60Zm53-2a1,1,0,1,1-1,1A1,1,0,0,1,58,58Zm0-8a1,1,0,1,1-1,1A1,1,0,0,1,58,50ZM41,48H23V30H41Zm1-20H41V25a1,1,0,0,1,1-1h6V22H42a3.009,3.009,0,0,0-3,3v3H25V27a3.009,3.009,0,0,0-3-3H10v2H22a1,1,0,0,1,1,1v1H22a1,1,0,0,0-1,1v1H10c-4.14,0-6-3.52-6-7,0-3.74,1.59-6.36,4.24-7.03a.973.973,0,0,0,.46-.27l.01.01a3.368,3.368,0,0,1,2.95-.8,3.32,3.32,0,0,1,2.45,1.54,3.481,3.481,0,0,1-1.56,4.66l.9,1.78a5.472,5.472,0,0,0,2.44-7.34,5.186,5.186,0,0,0-3.91-2.61,5.763,5.763,0,0,0-2.03.01A8.165,8.165,0,0,1,15,10a9.608,9.608,0,0,1,4.33.8l.29.13a1,1,0,0,0,1.2-.36C22.51,8.11,26.2,4,32,4a14.649,14.649,0,0,1,12.16,6.54,1,1,0,0,0,1.27.36A7.589,7.589,0,0,1,49,10a5,5,0,0,1,5,5c0,.02.01.04.01.06H54a2.7,2.7,0,0,1-5.12,1.47l-1.76.94a4.849,4.849,0,0,0,4.23,2.59,3.985,3.985,0,0,0,.84-.08,4.74,4.74,0,0,0,3.73-3.89A5.01,5.01,0,0,1,60,21a9.014,9.014,0,0,1-9,9H43V29a1,1,0,0,0-1-1Z"/>
      <path id="Trazado_886050" data-name="Trazado 886050" d="M50,22h2v2H50Z"/>
      <path id="Trazado_886051" data-name="Trazado 886051" d="M6,24H8v2H6Z"/>
      <path id="Trazado_886052" data-name="Trazado 886052" d="M50,34h2v2H50Z"/>
      <path id="Trazado_886053" data-name="Trazado 886053" d="M12,34h2v2H12Z"/>
      <path id="Trazado_886054" data-name="Trazado 886054" d="M36,32a3,3,0,0,0-2.816,2H29v2h4.184A3,3,0,0,0,35,37.816V46h2V37.816A2.993,2.993,0,0,0,36,32Zm0,4a1,1,0,1,1,1-1A1,1,0,0,1,36,36Z"/>
      <path id="Trazado_886055" data-name="Trazado 886055" d="M25,34h2v2H25Z"/>
      <path id="Trazado_886056" data-name="Trazado 886056" d="M27,58h2v2H27Z"/>
      <path id="Trazado_886057" data-name="Trazado 886057" d="M32,8c-2.98,0-6,1.72-6,5a5.929,5.929,0,0,0,2.2,4.85c.59.56.8.79.8,1.15a1,1,0,0,0,1,1h4a1,1,0,0,0,1-1c0-.36.21-.59.8-1.15A5.929,5.929,0,0,0,38,13C38,9.72,34.98,8,32,8Zm2.43,8.39A4.593,4.593,0,0,0,33.18,18H30.82a4.593,4.593,0,0,0-1.25-1.61A3.98,3.98,0,0,1,28,13c0-2.06,2.07-3,4-3s4,.94,4,3A3.98,3.98,0,0,1,34.43,16.39Z"/>
      <path id="Trazado_886058" data-name="Trazado 886058" d="M29,21h6v2H29Z"/>
      <path id="Trazado_886059" data-name="Trazado 886059" d="M29,24h6v2H29Z"/>
    </g>
  </g>
</svg>
