<svg xmlns="http://www.w3.org/2000/svg" xmlns:xlink="http://www.w3.org/1999/xlink" width="397" height="294.125" viewBox="0 0 397 294.125">
  <defs>
    <clipPath id="clip-path">
      <rect id="Rectángulo_405209" data-name="Rectángulo 405209" width="245.28" height="279.256" fill="none"/>
    </clipPath>
    <clipPath id="clip-path-3">
      <rect id="Rectángulo_405188" data-name="Rectángulo 405188" width="34.601" height="118.091" fill="none"/>
    </clipPath>
    <clipPath id="clip-path-4">
      <rect id="Rectángulo_405189" data-name="Rectángulo 405189" width="55.787" height="34.45" fill="none"/>
    </clipPath>
    <clipPath id="clip-path-5">
      <rect id="Rectángulo_405190" data-name="Rectángulo 405190" width="40.497" height="33.534" fill="none"/>
    </clipPath>
    <clipPath id="clip-path-6">
      <rect id="Rectángulo_405191" data-name="Rectángulo 405191" width="13.09" height="10.619" fill="none"/>
    </clipPath>
    <clipPath id="clip-path-7">
      <rect id="Rectángulo_405192" data-name="Rectángulo 405192" width="8.078" height="10.368" fill="none"/>
    </clipPath>
    <clipPath id="clip-path-8">
      <rect id="Rectángulo_405193" data-name="Rectángulo 405193" width="6.942" height="7.756" fill="none"/>
    </clipPath>
    <clipPath id="clip-path-9">
      <rect id="Rectángulo_405194" data-name="Rectángulo 405194" width="6.048" height="8.187" fill="none"/>
    </clipPath>
    <clipPath id="clip-path-10">
      <rect id="Rectángulo_405195" data-name="Rectángulo 405195" width="23.99" height="26.435" fill="none"/>
    </clipPath>
    <clipPath id="clip-path-11">
      <rect id="Rectángulo_405196" data-name="Rectángulo 405196" width="14.441" height="15.774" fill="none"/>
    </clipPath>
    <clipPath id="clip-path-12">
      <rect id="Rectángulo_405197" data-name="Rectángulo 405197" width="13.042" height="13.389" fill="none"/>
    </clipPath>
    <clipPath id="clip-path-13">
      <rect id="Rectángulo_405198" data-name="Rectángulo 405198" width="6.821" height="9.239" fill="none"/>
    </clipPath>
    <clipPath id="clip-path-16">
      <rect id="Rectángulo_405205" data-name="Rectángulo 405205" width="8.802" height="6.671" fill="none"/>
    </clipPath>
    <clipPath id="clip-path-17">
      <rect id="Rectángulo_405206" data-name="Rectángulo 405206" width="8.803" height="6.671" fill="none"/>
    </clipPath>
    <clipPath id="clip-path-18">
      <rect id="Rectángulo_405207" data-name="Rectángulo 405207" width="61.76" height="17.043" fill="none"/>
    </clipPath>
  </defs>
  <g id="Grupo_1104947" data-name="Grupo 1104947" transform="translate(-180 -6585)">
    <path id="Rectángulo_405055" data-name="Rectángulo 405055" d="M10,0H397a0,0,0,0,1,0,0V294a0,0,0,0,1,0,0H10A10,10,0,0,1,0,284V10A10,10,0,0,1,10,0Z" transform="translate(180 6585)" fill="#aec4fa"/>
    <g id="Grupo_1104946" data-name="Grupo 1104946" transform="translate(285 6599.868)">
      <g id="Grupo_1104945" data-name="Grupo 1104945" clip-path="url(#clip-path)">
        <g id="Grupo_1104944" data-name="Grupo 1104944">
          <g id="Grupo_1104943" data-name="Grupo 1104943" clip-path="url(#clip-path)">
            <path id="Trazado_890346" data-name="Trazado 890346" d="M40.955,82.886s-1.171,35.64,0,44.813c0,0,9.444-.241,13.549.241l1.282-7.242v7s32.379-1.69,36.669-1.449l.4-10.225,2.117,10.466,12.393,2.655a253.268,253.268,0,0,0,.967-48.989Z" transform="translate(-11.819 -23.43)" fill="#512810"/>
            <path id="Trazado_890347" data-name="Trazado 890347" d="M48.4,88.772c-.989,4.641-3.466,34.4-4.04,41.4a112.534,112.534,0,0,1,11.293.282l1.283-7.242v7s32.379-1.69,36.669-1.449l.4-10.225L96.12,129.01l8.4,1.8c1.3-12.4-.338-42.037-.338-42.037Z" transform="translate(-12.966 -25.948)" fill="#3f1d0d"/>
            <path id="Trazado_890348" data-name="Trazado 890348" d="M139.106,207.842S151.113,244,152.8,247.331l8.182-4.493S153.066,206.522,149.324,197c0,0-7.513-26-15.843-25.209Z" transform="translate(-39.017 -50.21)" fill="#d87843"/>
            <path id="Trazado_890349" data-name="Trazado 890349" d="M25.16,207.186s-12.006,36.156-13.693,39.489l-8.181-4.493s7.917-36.316,11.659-45.835c0,0,8.289-25.835,17.408-26.817Z" transform="translate(-0.961 -49.554)" fill="#d87843"/>
            <path id="Trazado_890350" data-name="Trazado 890350" d="M72.94,380.175c.081-1.111.161-2.188.244-3.224h1.983c.083,1.035.163,2.112.243,3.224h29.406c.921-13.187,1.5-21.466,1.5-21.466.323-4.33.528-8.988.447-13.454H42.146s.892,14.043,2.2,34.92Z" transform="translate(-12.319 -100.919)" fill="#5e94b9"/>
            <path id="Trazado_890351" data-name="Trazado 890351" d="M106.414,357.25c0-.022,0-.045,0-.065.21-3.139.344-6.4.354-9.625L54.8,345.254H42.146s.423,6.716,1.12,17.735Z" transform="translate(-12.319 -100.918)" fill="#48748f"/>
            <path id="Trazado_890352" data-name="Trazado 890352" d="M106,166.276c-8.082-3.371-14.077-6.763-26.913-9.778H67.032c-12.833,3.016-20.35,6.288-28.433,9.659,0,0-4.6,19.514-4.407,37.219,0,0-.192,15.277,10.3,21.138l-6.405,70.4h69.936l-5.032-70.193c11.707-5.25,10.64-22.388,10.64-22.388A227.364,227.364,0,0,0,106,166.276" transform="translate(-9.993 -45.745)" fill="#eeaeb9"/>
            <g id="Grupo_1104897" data-name="Grupo 1104897" transform="translate(69.066 131.083)" opacity="0.5">
              <g id="Grupo_1104896" data-name="Grupo 1104896">
                <g id="Grupo_1104895" data-name="Grupo 1104895" clip-path="url(#clip-path-3)">
                  <path id="Trazado_890353" data-name="Trazado 890353" d="M132.169,210.734a215.979,215.979,0,0,0-4.767-25.509c1.243,7.523,6.149,47.425-29.809,45.413,0,0,8.4,7.182,14.087,8.41,0,0,3.872,48.111-2.021,64.267h16.9l-5.032-70.192c11.707-5.251,10.64-22.389,10.64-22.389" transform="translate(-97.592 -185.224)" fill="#cc8091"/>
                </g>
              </g>
            </g>
            <path id="Trazado_890354" data-name="Trazado 890354" d="M71.406,106.848S73.33,128.254,70,145.2c0,0,6.746,6.54,12.983,8.027,0,0,10.5-3.568,14.07-8.919,0,0-5.349-13.141-3.011-37.461Z" transform="translate(-20.46 -31.232)" fill="#d87843"/>
            <path id="Trazado_890355" data-name="Trazado 890355" d="M96.134,145.835a85.842,85.842,0,0,1-1.909-15H72.6c-.036,2.7-.137,5.577-.335,8.5,4.969,2.948,14.474,7.557,23.866,6.491" transform="translate(-21.124 -38.245)" fill="#c66833"/>
            <path id="Trazado_890356" data-name="Trazado 890356" d="M105.894,27.844H48.27s.6,55.409,6.1,66.281c5.444,10.753,16.726,15.628,22.709,15.467,6.085.161,17.266-4.714,22.707-15.467,5.5-10.872,6.1-66.281,6.1-66.281" transform="translate(-14.109 -8.139)" fill="#f09e67"/>
            <g id="Grupo_1104900" data-name="Grupo 1104900" transform="translate(35.432 21.472)" opacity="0.4">
              <g id="Grupo_1104899" data-name="Grupo 1104899">
                <g id="Grupo_1104898" data-name="Grupo 1104898" clip-path="url(#clip-path-4)">
                  <path id="Trazado_890357" data-name="Trazado 890357" d="M50.248,64.377l2.66-10.325,1.675,2.676s35.646-2.066,46.347-.827v-4.5l4.044,13.384.879-15.954-3.338-18.5H52.908s-3.689,21.491-2.66,34.037" transform="translate(-50.066 -30.34)" fill="#c56a55"/>
                </g>
              </g>
            </g>
            <path id="Trazado_890358" data-name="Trazado 890358" d="M128.084,73.111s3.393-6.347,5.848-4.594.589,21.983-6.719,20.109.87-15.515.87-15.515" transform="translate(-36.297 -19.938)" fill="#f09e67"/>
            <path id="Trazado_890359" data-name="Trazado 890359" d="M45.723,73.111s-3.393-6.347-5.848-4.594-.59,21.983,6.719,20.109-.87-15.515-.87-15.515" transform="translate(-11.357 -19.938)" fill="#f09e67"/>
            <path id="Trazado_890360" data-name="Trazado 890360" d="M93.2,99.994a16.272,16.272,0,0,0,1.817-1.074,12.96,12.96,0,0,0,1.609-1.283A7.75,7.75,0,0,0,98.771,94.4l.272.778c-.319-.186-.594-.38-.881-.582s-.56-.41-.833-.626a13.352,13.352,0,0,1-1.553-1.413,9.684,9.684,0,0,1-1.321-1.694,5.468,5.468,0,0,1-.778-2.118l-.018-.146.032-.095c.338-1.006.693-2,1.1-2.979.2-.49.419-.975.649-1.455.12-.238.243-.476.374-.708a2.343,2.343,0,0,1,.488-.639,2.378,2.378,0,0,0-.275.728c-.07.251-.13.506-.188.762l-.345,1.533-.679,3.064.014-.241a4.522,4.522,0,0,0,.735,1.589,11.039,11.039,0,0,0,1.207,1.44c.453.45.936.88,1.431,1.3q.375.311.765.6l.78.561.454.326-.181.453a7.4,7.4,0,0,1-1.163,1.988A8.5,8.5,0,0,1,97.2,98.343a9.975,9.975,0,0,1-1.926,1.051,9.082,9.082,0,0,1-2.072.6" transform="translate(-27.242 -24.18)" fill="#c9654f"/>
            <g id="Grupo_1104903" data-name="Grupo 1104903" transform="translate(48.816 67.923)" opacity="0.4">
              <g id="Grupo_1104902" data-name="Grupo 1104902">
                <g id="Grupo_1104901" data-name="Grupo 1104901" clip-path="url(#clip-path-5)">
                  <path id="Trazado_890361" data-name="Trazado 890361" d="M94.344,121.638c-9.209,7.286-18.622,5.594-25.365,2.469,5.019,3.75,10.549,5.5,14.157,5.4,6.085.161,17.266-4.715,22.707-15.467,1.584-3.128,2.76-9.942,3.633-18.063C105,115.135,94.344,121.638,94.344,121.638" transform="translate(-68.979 -95.977)" fill="#c56a55"/>
                </g>
              </g>
            </g>
            <path id="Trazado_890362" data-name="Trazado 890362" d="M62.127,68.126s7.974-1.732,11.13-1.374A1.767,1.767,0,0,0,71.5,64.471c-2.332-.265-8.277.725-9.377,3.655" transform="translate(-18.16 -18.833)" fill="#301b15"/>
            <path id="Trazado_890363" data-name="Trazado 890363" d="M112.876,68.126s-7.974-1.732-11.126-1.374a1.765,1.765,0,0,1,1.752-2.282c2.332-.265,8.278.725,9.374,3.655" transform="translate(-29.723 -18.833)" fill="#301b15"/>
            <path id="Trazado_890364" data-name="Trazado 890364" d="M72.08,80.953c0,2.365-1.059,4.282-2.365,4.282s-2.369-1.917-2.369-4.282,1.06-4.281,2.369-4.281,2.365,1.917,2.365,4.281" transform="translate(-19.685 -22.411)" fill="#301b15"/>
            <path id="Trazado_890365" data-name="Trazado 890365" d="M64.735,81.093s3-8,7.8-3.4c0,0-5.1-10.189-7.8,3.4" transform="translate(-18.922 -21.637)" fill="#301b15"/>
            <path id="Trazado_890366" data-name="Trazado 890366" d="M103.883,80.953c0,2.365,1.062,4.282,2.369,4.282s2.364-1.917,2.364-4.282-1.059-4.281-2.364-4.281-2.369,1.917-2.369,4.281" transform="translate(-30.365 -22.411)" fill="#301b15"/>
            <path id="Trazado_890367" data-name="Trazado 890367" d="M109.969,81.093s-3.006-8-7.8-3.4c0,0,5.106-10.189,7.8,3.4" transform="translate(-29.865 -21.637)" fill="#301b15"/>
            <path id="Trazado_890368" data-name="Trazado 890368" d="M77.791,111.076s9.385,5.775,17.206,0c0,0-8.642,19.566-17.206,0" transform="translate(-22.738 -32.468)" fill="#fff"/>
            <path id="Trazado_890369" data-name="Trazado 890369" d="M77.783,110.406c1.449.493,2.875.931,4.312,1.271.357.092.72.157,1.078.235s.719.14,1.081.2.719.118,1.082.159.723.1,1.086.139a15.005,15.005,0,0,0,2.2.144,8.483,8.483,0,0,0,1.112-.068,7.3,7.3,0,0,0,1.093-.223,8.219,8.219,0,0,0,1.058-.355,9.228,9.228,0,0,0,1-.5,8.963,8.963,0,0,0,.928-.615c.305-.208.577-.463.861-.694l1.339-1.091-.638,1.652a22.333,22.333,0,0,1-1.408,2.971,20.44,20.44,0,0,1-1.865,2.733,12.821,12.821,0,0,1-2.449,2.367,6.414,6.414,0,0,1-3.386,1.235,5.644,5.644,0,0,1-3.461-1.1,10.122,10.122,0,0,1-2.366-2.459,18.424,18.424,0,0,1-1.616-2.866c-.234-.49-.429-1-.622-1.5s-.367-1.016-.527-1.531l-.045-.149Zm.243.379c.477.807.952,1.611,1.466,2.381.289.443.593.874.9,1.294s.643.822.973,1.215a10.152,10.152,0,0,0,2.239,1.973,4.409,4.409,0,0,0,2.58.71,5.319,5.319,0,0,0,2.558-.957,11.326,11.326,0,0,0,2.245-1.984,23.534,23.534,0,0,0,1.887-2.465c.584-.861,1.154-1.761,1.647-2.669l.7.561c-.348.188-.674.4-1.029.571s-.7.342-1.061.49c-.348.173-.722.284-1.074.442-.368.119-.727.262-1.1.372s-.741.22-1.114.329c-.377.084-.751.214-1.136.281-.383.088-.771.144-1.161.207s-.785.09-1.18.1a11,11,0,0,1-1.183-.027,11.793,11.793,0,0,1-1.171-.164c-.385-.08-.769-.166-1.147-.268s-.751-.226-1.118-.357a14.127,14.127,0,0,1-2.13-.961,11.228,11.228,0,0,1-1.6-1.074" transform="translate(-22.691 -31.863)" fill="#d74984"/>
            <path id="Trazado_890370" data-name="Trazado 890370" d="M62.18,313.578c-1.12-1.647-5.83-5.365-5.83-5.365,4.722,2.526,4.691,1.593,4.691,1.593.631-1-2.947-2.887-2.947-2.887-2.858-2.045-6.392-4.679-6.392-4.679-2.087-3.014-6.43-3.858-8.582-4.093L11.674,272.436c-3.984-4.813-8.63-4.831-8.63-4.831s-5.289,9.385-1.922,12.5c4.156,3.836,32.427,19.475,38.058,22.576l-.036.062c-.263,4.359,2.024,5.641,2.708,6.638s2.1,3.258,2.73,4.151a.977.977,0,0,0,1.63.21c.367-.315-.181-1.531-.631-2.486a29.061,29.061,0,0,1-1.156-2.863,16.638,16.638,0,0,1,2.941,1.461c1.208,1,8.666,8.668,8.666,8.668a4.773,4.773,0,0,0,2.632,1.126c.682-.63-.992-2.526-.992-2.526L54.063,312.6l6.227,5.956c1.994.894.361-1.986.361-1.986-.829-1.794-4.423-5.323-4.423-5.323l5.383,4c1.682.263.568-1.674.568-1.674" transform="translate(0 -78.222)" fill="#f09e67"/>
            <path id="Trazado_890371" data-name="Trazado 890371" d="M87.968,313.578c1.12-1.647,5.829-5.365,5.829-5.365-4.722,2.526-4.693,1.593-4.693,1.593-.63-1,2.95-2.887,2.95-2.887,2.858-2.045,6.389-4.679,6.389-4.679,2.09-3.014,6.432-3.858,8.584-4.093l31.445-25.711c3.984-4.813,8.632-4.831,8.632-4.831s5.288,9.385,1.919,12.5c-4.154,3.836-32.423,19.475-38.055,22.576l.035.062c.261,4.359-2.024,5.641-2.709,6.638s-2.1,3.258-2.732,4.151a.975.975,0,0,1-1.628.21c-.367-.315.18-1.531.631-2.486a29.062,29.062,0,0,0,1.156-2.863,16.511,16.511,0,0,0-2.94,1.461c-1.209,1-8.667,8.668-8.667,8.668a4.771,4.771,0,0,1-2.631,1.126c-.683-.63.991-2.526.991-2.526l3.609-4.512-6.226,5.956c-2,.894-.361-1.986-.361-1.986.828-1.794,4.422-5.323,4.422-5.323l-5.385,4c-1.681.263-.565-1.674-.565-1.674" transform="translate(-25.607 -78.222)" fill="#f09e67"/>
            <path id="Trazado_890372" data-name="Trazado 890372" d="M64.079,82.54s-1.771-.474-1.952-1.8c0,0,2.1.353,2.708,0Z" transform="translate(-18.16 -23.601)" fill="#301b15"/>
            <path id="Trazado_890373" data-name="Trazado 890373" d="M112.784,82.882s1.771-.476,1.953-1.8c0,0-2.1.353-2.708,0Z" transform="translate(-32.747 -23.701)" fill="#301b15"/>
            <path id="Trazado_890374" data-name="Trazado 890374" d="M47.648,55.508s4.173-24.1,5.141-29.953V40.532s25.16.079,46.105-.545a104.917,104.917,0,0,0-1.208-14.431s4.307,22.813,4.688,30.365c0,0,3.76-7.521,6.657-7.649,0,0,5.391-43.873-13.843-42.25,0,0-6.565-5.716-20.211-6.007C58.519-.334,38.682,4.749,41.426,48.284c0,0,3.952,1.258,6.221,7.224" transform="translate(-12.034 0)" fill="#512810"/>
            <path id="Trazado_890375" data-name="Trazado 890375" d="M111.263,30.789c-.582-6.217-1.955-12.4-4.838-16.4-6.726,2.449-19.59,5.734-32.413,1.359a39.368,39.368,0,0,0-23.825-.856A29.2,29.2,0,0,0,47.721,19.1,26.218,26.218,0,0,1,72.08,21.057a69.229,69.229,0,0,0,27.741,9.929c-.071-.494-.142-.994-.221-1.5,0,0,.1.551.282,1.507a39.422,39.422,0,0,0,11.381-.205" transform="translate(-13.949 -3.93)" fill="#673920"/>
            <path id="Trazado_890376" data-name="Trazado 890376" d="M142.111,225.951a25.939,25.939,0,1,1-25.938,25.939,25.939,25.939,0,0,1,25.938-25.939" transform="translate(-33.958 -66.046)" fill="#fff"/>
            <path id="Trazado_890377" data-name="Trazado 890377" d="M164.435,253.289a10.8,10.8,0,0,0-19.743-6.061,10.8,10.8,0,0,0-19.678,7.242c.868,11.279,19.678,22.98,19.678,22.98s18.131-11.292,19.6-22.38a10.994,10.994,0,0,0,.147-1.781" transform="translate(-36.523 -70.879)" fill="#990012"/>
            <path id="Trazado_890378" data-name="Trazado 890378" d="M144.692,277.455s13.553-8.441,18.169-17.893c-5.656,5.144-13.925,9.972-16.917,10.2-4.541.345-14.463-7.831-17.342-14.281-2.814-6.3,6.248-12.69,6.664-12.979a10.8,10.8,0,0,0-10.317,10.792,10.681,10.681,0,0,0,.065,1.18c.868,11.28,19.678,22.981,19.678,22.981" transform="translate(-36.523 -70.884)" fill="#730712"/>
            <path id="Trazado_890379" data-name="Trazado 890379" d="M165.152,243.566a10.807,10.807,0,0,0-13.652,3.662,10.869,10.869,0,0,0-3.26-3.129c1.352,2.054,3.52,5.475,3.756,6.654a14.641,14.641,0,0,1,13.157-7.188" transform="translate(-43.331 -70.879)" fill="#730712"/>
            <g id="Grupo_1104906" data-name="Grupo 1104906" transform="translate(113.365 174.132)" opacity="0.5">
              <g id="Grupo_1104905" data-name="Grupo 1104905">
                <g id="Grupo_1104904" data-name="Grupo 1104904" clip-path="url(#clip-path-6)">
                  <path id="Trazado_890380" data-name="Trazado 890380" d="M160.188,247.663s5.3-3.094,9.315-.7a7.525,7.525,0,0,1,3.659,7.715c-.285,1.037-3.553,6.589-12.974-7.013" transform="translate(-160.188 -246.054)" fill="#c33743"/>
                </g>
              </g>
            </g>
            <g id="Grupo_1104909" data-name="Grupo 1104909" transform="translate(99.335 172.847)" opacity="0.5">
              <g id="Grupo_1104908" data-name="Grupo 1104908">
                <g id="Grupo_1104907" data-name="Grupo 1104907" clip-path="url(#clip-path-7)">
                  <path id="Trazado_890381" data-name="Trazado 890381" d="M140.364,244.241s7.458-.345,8.047,7.831-7.587-5.873-8.047-7.831" transform="translate(-140.364 -244.239)" fill="#c33743"/>
                </g>
              </g>
            </g>
            <path id="Trazado_890382" data-name="Trazado 890382" d="M144.692,280.572a75.659,75.659,0,0,0,9.109-6.908c-2.569.947-6.311,2.554-6.311,2.554-16.123-3.685-20.615-16.978-22.045-23.053a10.808,10.808,0,0,0-.5,3.246,10.681,10.681,0,0,0,.065,1.18c.868,11.28,19.678,22.981,19.678,22.981" transform="translate(-36.523 -74.001)" fill="#5a0811"/>
            <g id="Grupo_1104912" data-name="Grupo 1104912" transform="translate(118.454 174.692)" opacity="0.5">
              <g id="Grupo_1104911" data-name="Grupo 1104911">
                <g id="Grupo_1104910" data-name="Grupo 1104910" clip-path="url(#clip-path-8)">
                  <path id="Trazado_890383" data-name="Trazado 890383" d="M167.379,246.846s7.485,1.037,6.91,7.256c0,0-1.153,3.34-6.91-7.256" transform="translate(-167.379 -246.846)" fill="#cb5f6b"/>
                </g>
              </g>
            </g>
            <g id="Grupo_1104915" data-name="Grupo 1104915" transform="translate(100.775 173.31)" opacity="0.5">
              <g id="Grupo_1104914" data-name="Grupo 1104914">
                <g id="Grupo_1104913" data-name="Grupo 1104913" clip-path="url(#clip-path-9)">
                  <path id="Trazado_890384" data-name="Trazado 890384" d="M142.4,244.893s6.162,1.5,6.047,7.774c0,0-.544,1.5-1.913-1.209a64.854,64.854,0,0,0-4.134-6.565" transform="translate(-142.398 -244.893)" fill="#cb5f6b"/>
                </g>
              </g>
            </g>
            <path id="Trazado_890385" data-name="Trazado 890385" d="M159.082,105.146a40.905,40.905,0,1,1-40.9,40.906,40.905,40.905,0,0,1,40.9-40.906" transform="translate(-34.543 -30.734)" fill="#fff"/>
            <path id="Trazado_890386" data-name="Trazado 890386" d="M190.495,149.93c-2.107-10.64-14.16-14.855-18.431-12.655s-6.557,3.083-6.557,3.083v-.11s-2.293-.883-6.56-3.083-16.321,2.017-18.431,12.655c-2.811,14.19,11.454,31.935,14.473,32.436,0,0,4.27,2.972,10.514-.3v.111c6.25,3.265,10.518.294,10.518.294,3.02-.5,17.283-18.247,14.473-32.435" transform="translate(-40.967 -39.928)" fill="#819e30"/>
            <path id="Trazado_890387" data-name="Trazado 890387" d="M145.726,144.231c0-2.593,6.34-5.621,11.67-1.858s8.111,3.011,8.111,3.011c7.218-7.323,17.651-5.919,17.727-5.909-4.109-2.679-8.818-3.412-11.17-2.2-4.267,2.2-6.558,3.083-6.558,3.083v-.11s-2.292-.882-6.56-3.083-16.32,2.016-18.429,12.655c-2.812,14.189,11.454,31.934,14.472,32.435,0,0,4.27,2.972,10.515-.294v.11c6.25,3.266,10.517.294,10.517.294,1.582-.262,6.241-5.251,9.922-11.977-33.322,18.853-40.218-23.68-40.218-26.157" transform="translate(-40.967 -39.928)" fill="#728927"/>
            <g id="Grupo_1104918" data-name="Grupo 1104918" transform="translate(125.306 100.894)" opacity="0.7">
              <g id="Grupo_1104917" data-name="Grupo 1104917">
                <g id="Grupo_1104916" data-name="Grupo 1104916" clip-path="url(#clip-path-10)">
                  <path id="Trazado_890388" data-name="Trazado 890388" d="M178.414,147.844s10.866-6.108,14.7-5.181,10.087,9.653,7.2,16.712-4.02,12.536-10.583,7.926-16.259-16.957-11.318-19.457" transform="translate(-177.062 -142.566)" fill="#abc35a"/>
                </g>
              </g>
            </g>
            <g id="Grupo_1104921" data-name="Grupo 1104921" transform="translate(132.807 102.322)" opacity="0.3">
              <g id="Grupo_1104920" data-name="Grupo 1104920">
                <g id="Grupo_1104919" data-name="Grupo 1104919" clip-path="url(#clip-path-11)">
                  <path id="Trazado_890389" data-name="Trazado 890389" d="M188.428,146.852s5.765-3.6,8.214-1.729,7.06,7.926,4.9,13.976-17.435-11.67-13.113-12.247" transform="translate(-187.661 -144.584)" fill="#fff"/>
                </g>
              </g>
            </g>
            <path id="Trazado_890390" data-name="Trazado 890390" d="M169.93,182.946c-3.821-3.628-4.424-1.657-4.424-1.657-16.2,2.826-21.552-24.428-22.874-33.5a15.5,15.5,0,0,0-2.117,5.3c-2.811,14.19,11.455,31.935,14.473,32.436,0,0,4.27,2.972,10.515-.294v.11c6.25,3.265,10.517.294,10.517.294a6.824,6.824,0,0,0,2.673-1.941c-3.287.94-6.762,1.151-8.764-.749" transform="translate(-40.967 -43.198)" fill="#697a21"/>
            <path id="Trazado_890391" data-name="Trazado 890391" d="M162.114,139.117c3.244,1.44,5.622,4.106,7.42,3.132,1.411-.759,6.61-4.185,10.013-5.538a6.17,6.17,0,0,0-2.834.564c-4.267,2.2-6.558,3.083-6.558,3.083v-.11s-2.292-.882-6.56-3.083c-1.674-.863-4.543-.739-7.542.372a24.6,24.6,0,0,1,6.061,1.58" transform="translate(-45.615 -39.928)" fill="#697a21"/>
            <path id="Trazado_890392" data-name="Trazado 890392" d="M172.42,136.811s.486.372,2.107,0c0,0,.554-7.972-3.226-13.88a2.843,2.843,0,0,0-2.916,1.153,16.286,16.286,0,0,1,4.035,12.727" transform="translate(-49.219 -35.917)" fill="#804c34"/>
            <path id="Trazado_890393" data-name="Trazado 890393" d="M173.428,135.969c.434-6.338-3.531-11.453-3.531-11.453a4.469,4.469,0,0,0,1.757-1.01c-.113-.193-.23-.386-.352-.575a2.842,2.842,0,0,0-2.916,1.153,16.286,16.286,0,0,1,4.035,12.727s.486.372,2.107,0c0,0,.021-.307.025-.841Z" transform="translate(-49.22 -35.917)" fill="#5c3323"/>
            <path id="Trazado_890394" data-name="Trazado 890394" d="M81.765,269.937a20.749,20.749,0,1,1-20.748,20.749,20.748,20.748,0,0,1,20.748-20.749" transform="translate(-17.835 -78.903)" fill="#fff"/>
            <path id="Trazado_890395" data-name="Trazado 890395" d="M72.85,283.652a6.467,6.467,0,0,0,3.713,5.3s6.682,1.173,8.218,3.115l.875-.8s-6.509-9.925-12.805-7.619" transform="translate(-21.294 -82.811)" fill="#730712"/>
            <path id="Trazado_890396" data-name="Trazado 890396" d="M73.128,283.734s2.011,3.2,3.133,3.614,7.242,2.58,8.565,4.218l.576.1-.386-1.712-6.174-5.737s-4.857-.9-5.715-.487" transform="translate(-21.375 -82.905)" fill="#5a0811"/>
            <path id="Trazado_890397" data-name="Trazado 890397" d="M85.2,289.669s-6.655-8.476-12.3-7.729c0,0-.644-.231,1.241-1.351s1.794-1.052,1.819-1.391.71-2.594,1.482-2.769,6.766,6.454,8.393,13.387Z" transform="translate(-21.278 -80.8)" fill="#990012"/>
            <g id="Grupo_1104924" data-name="Grupo 1104924" transform="translate(51.517 195.628)" opacity="0.5">
              <g id="Grupo_1104923" data-name="Grupo 1104923">
                <g id="Grupo_1104922" data-name="Grupo 1104922" clip-path="url(#clip-path-12)">
                  <path id="Trazado_890398" data-name="Trazado 890398" d="M85.837,289.817a20.1,20.1,0,0,0-.74-2.424c-.329.734-.768.148-.768.148-2.5-3.192-9.421-6.215-9.524-6.393s.774-.8,2.013-.762,5.116,3.875,5.116,3.875c-.029-.694-2.853-3.621-4.136-5.047a2.581,2.581,0,0,1-.328-2.787.11.11,0,0,0-.027,0c-.772.173-1.457,2.429-1.482,2.768s.067.272-1.819,1.391-1.242,1.351-1.242,1.351c5.645-.747,12.3,7.729,12.3,7.729Z" transform="translate(-72.795 -276.428)" fill="#730712"/>
                </g>
              </g>
            </g>
            <g id="Grupo_1104927" data-name="Grupo 1104927" transform="translate(56.375 195.843)" opacity="0.4">
              <g id="Grupo_1104926" data-name="Grupo 1104926">
                <g id="Grupo_1104925" data-name="Grupo 1104925" clip-path="url(#clip-path-13)">
                  <path id="Trazado_890399" data-name="Trazado 890399" d="M79.927,276.732a2.032,2.032,0,0,0,.118,2.2,73.979,73.979,0,0,0,6.435,7.044c-2.035-4.526-5.264-8.315-6.553-9.239" transform="translate(-79.66 -276.732)" fill="#b31f2d"/>
                </g>
              </g>
            </g>
            <path id="Trazado_890400" data-name="Trazado 890400" d="M76.712,283a2.572,2.572,0,0,1,1.51-.34c.9.067,4.415,3.3,4.587,3.708,0,0-5.1-3.146-6.1-3.367" transform="translate(-22.423 -82.619)" fill="#b31f2d"/>
            <path id="Trazado_890401" data-name="Trazado 890401" d="M103.866,283.652a6.467,6.467,0,0,1-3.713,5.3s-6.682,1.173-8.218,3.115l-.875-.8s6.509-9.925,12.806-7.619" transform="translate(-26.617 -82.811)" fill="#730712"/>
            <path id="Trazado_890402" data-name="Trazado 890402" d="M103.806,283.734s-2.011,3.2-3.133,3.614-7.242,2.58-8.565,4.218l-.576.1.386-1.712,6.173-5.737s4.858-.9,5.715-.487" transform="translate(-26.755 -82.905)" fill="#5a0811"/>
            <path id="Trazado_890403" data-name="Trazado 890403" d="M91.416,289.669s6.655-8.476,12.3-7.729c0,0,.645-.231-1.242-1.351s-1.794-1.052-1.819-1.391-.71-2.594-1.482-2.769-6.765,6.454-8.393,13.387Z" transform="translate(-26.535 -80.8)" fill="#990012"/>
            <g id="Grupo_1104930" data-name="Grupo 1104930" transform="translate(64.245 195.628)" opacity="0.5">
              <g id="Grupo_1104929" data-name="Grupo 1104929">
                <g id="Grupo_1104928" data-name="Grupo 1104928" clip-path="url(#clip-path-12)">
                  <path id="Trazado_890404" data-name="Trazado 890404" d="M90.781,289.817a20.227,20.227,0,0,1,.74-2.424c.329.734.769.148.769.148,2.5-3.192,9.419-6.215,9.523-6.393s-.774-.8-2.013-.762-5.117,3.875-5.117,3.875c.028-.694,2.853-3.621,4.135-5.047a2.581,2.581,0,0,0,.328-2.787.1.1,0,0,1,.026,0c.772.173,1.458,2.429,1.482,2.768s-.067.272,1.819,1.391,1.242,1.351,1.242,1.351c-5.646-.747-12.3,7.729-12.3,7.729Z" transform="translate(-90.781 -276.428)" fill="#730712"/>
                </g>
              </g>
            </g>
            <g id="Grupo_1104933" data-name="Grupo 1104933" transform="translate(65.607 195.843)" opacity="0.4">
              <g id="Grupo_1104932" data-name="Grupo 1104932">
                <g id="Grupo_1104931" data-name="Grupo 1104931" clip-path="url(#clip-path-13)">
                  <path id="Trazado_890405" data-name="Trazado 890405" d="M99.259,276.732a2.033,2.033,0,0,1-.117,2.2,74.086,74.086,0,0,1-6.436,7.044c2.036-4.526,5.264-8.315,6.553-9.239" transform="translate(-92.706 -276.732)" fill="#b31f2d"/>
                </g>
              </g>
            </g>
            <path id="Trazado_890406" data-name="Trazado 890406" d="M102.775,283a2.574,2.574,0,0,0-1.511-.34c-.9.067-4.414,3.3-4.585,3.708,0,0,5.1-3.146,6.1-3.367" transform="translate(-28.259 -82.619)" fill="#b31f2d"/>
            <path id="Trazado_890407" data-name="Trazado 890407" d="M89.232,294.411a1.5,1.5,0,0,1,.735-2.051l.512.144s.988-.5,1.313.791a1.423,1.423,0,0,1-.325,1.116Z" transform="translate(-26.036 -85.457)" fill="#990012"/>
            <path id="Trazado_890408" data-name="Trazado 890408" d="M89.232,294.411h2.235a1.423,1.423,0,0,0,.325-1.116,1.6,1.6,0,0,0-.232-.537,3.59,3.59,0,0,0-.279.627c-.155.541-1.677.392-1.677.392-.459-.446.363-1.417.363-1.417a1.5,1.5,0,0,0-.735,2.051" transform="translate(-26.036 -85.457)" fill="#730712"/>
            <path id="Trazado_890409" data-name="Trazado 890409" d="M95.579,315.657H77.7l-.683-15.563H96.572Z" transform="translate(-22.511 -87.718)" fill="#dc7d8a"/>
            <path id="Trazado_890410" data-name="Trazado 890410" d="M77.7,315.657H95.58l.2-3.135c-15.121,1.234-16.344-9.038-16.282-9.531.051-.4,12.227-.559,16.928-.605l.146-2.292H77.015Z" transform="translate(-22.512 -87.718)" fill="#cc6979"/>
            <path id="Trazado_890411" data-name="Trazado 890411" d="M77.892,320.089H95.774l.093-1.469a56.259,56.259,0,0,1-18.188-3.364Z" transform="translate(-22.706 -92.15)" fill="#b75267"/>
            <path id="Trazado_890412" data-name="Trazado 890412" d="M77.1,301.978l19.394-.6.081-1.288H77.015Z" transform="translate(-22.512 -87.718)" fill="#b75267"/>
            <rect id="Rectángulo_405201" data-name="Rectángulo 405201" width="3.229" height="15.741" transform="translate(62.7 212.198)" fill="#990012"/>
            <rect id="Rectángulo_405202" data-name="Rectángulo 405202" width="3.229" height="15.741" transform="translate(62.7 212.198)" fill="#990012"/>
            <path id="Trazado_890413" data-name="Trazado 890413" d="M88.6,315.386v4.741h3.229v-3.565a14.274,14.274,0,0,1-3.229-1.176" transform="translate(-25.897 -92.188)" fill="#730712"/>
            <path id="Trazado_890414" data-name="Trazado 890414" d="M91.825,300.094H88.6v2.49c1.026-.03,2.123-.057,3.229-.08Z" transform="translate(-25.897 -87.718)" fill="#730712"/>
            <path id="Trazado_890415" data-name="Trazado 890415" d="M88.6,301.728l3.229-.1v-1.535H88.6Z" transform="translate(-25.897 -87.718)" fill="#5a0811"/>
            <rect id="Rectángulo_405203" data-name="Rectángulo 405203" width="21.776" height="4.376" transform="translate(53.466 208.666)" fill="#dc7d8a"/>
            <path id="Trazado_890416" data-name="Trazado 890416" d="M75.549,296.5V299.7l.038,0H97.325v-1.4c-6.339.211-18.112-1.313-21.776-1.815" transform="translate(-22.083 -86.666)" fill="#cc6979"/>
            <path id="Trazado_890417" data-name="Trazado 890417" d="M97.325,299.554c-6.676.372-18.167-.776-21.776-1.165v1.873H97.325Z" transform="translate(-22.083 -87.22)" fill="#b75267"/>
            <rect id="Rectángulo_405204" data-name="Rectángulo 405204" width="3.535" height="4.376" transform="translate(62.546 208.666)" fill="#990012"/>
            <path id="Trazado_890418" data-name="Trazado 890418" d="M88.379,298.039v2.121h3.535v-1.786c-1.188-.1-2.379-.217-3.535-.335" transform="translate(-25.833 -87.117)" fill="#730712"/>
            <path id="Trazado_890419" data-name="Trazado 890419" d="M97.325,299.554c-6.676.372-18.167-.776-21.776-1.165v1.873H97.325Z" transform="translate(-22.083 -87.22)" fill="#b75267"/>
            <path id="Trazado_890420" data-name="Trazado 890420" d="M88.379,299.55V300.6h3.535v-.826c-1.192-.064-2.381-.142-3.535-.226" transform="translate(-25.833 -87.559)" fill="#5a0811"/>
            <path id="Trazado_890421" data-name="Trazado 890421" d="M85.693,292.953a5.851,5.851,0,0,0-5.553.866S77.1,296.831,76.7,297.11s2.716,1.49,3.048,2.887c0,0,.536-.161,1.979-3.544,1.26-2.957,2.106-2.844,3.739-2.456a1.4,1.4,0,0,1,.23-1.044" transform="translate(-22.408 -85.531)" fill="#990012"/>
            <g id="Grupo_1104936" data-name="Grupo 1104936" transform="translate(54.252 207.795)" opacity="0.5">
              <g id="Grupo_1104935" data-name="Grupo 1104935">
                <g id="Grupo_1104934" data-name="Grupo 1104934" clip-path="url(#clip-path-16)">
                  <path id="Trazado_890422" data-name="Trazado 890422" d="M85.463,294.292a1.6,1.6,0,0,1,0-.476c-2.71-1.213-5.243,3.626-5.717,3.838s-1.313-.311-1.5-.657c-.11-.2.619-1.337,1.238-2.236-.916.9-2.5,2.448-2.787,2.645-.407.279,2.715,1.49,3.048,2.887,0,0,.536-.161,1.978-3.544,1.26-2.957,2.106-2.844,3.74-2.456" transform="translate(-76.66 -293.621)" fill="#730712"/>
                </g>
              </g>
            </g>
            <path id="Trazado_890423" data-name="Trazado 890423" d="M85.463,294.417c-.006-.047-.013-.1-.016-.148-3.214-1.4-5.7,4.347-5.7,4.347-1.258.262-2.009-.961-2.345-1.713-.338.319-.6.557-.7.627-.407.279,2.715,1.49,3.048,2.887,0,0,.536-.161,1.978-3.544,1.26-2.958,2.106-2.844,3.74-2.456" transform="translate(-22.408 -85.951)" fill="#730712"/>
            <path id="Trazado_890424" data-name="Trazado 890424" d="M92.672,292.953a5.85,5.85,0,0,1,5.553.866s3.037,3.011,3.444,3.291S98.953,298.6,98.619,300c0,0-.535-.161-1.978-3.544-1.26-2.957-2.106-2.844-3.739-2.456a1.4,1.4,0,0,0-.23-1.044" transform="translate(-27.088 -85.531)" fill="#990012"/>
            <g id="Grupo_1104939" data-name="Grupo 1104939" transform="translate(65.813 207.795)" opacity="0.5">
              <g id="Grupo_1104938" data-name="Grupo 1104938">
                <g id="Grupo_1104937" data-name="Grupo 1104937" clip-path="url(#clip-path-17)">
                  <path id="Trazado_890425" data-name="Trazado 890425" d="M93,294.292a1.6,1.6,0,0,0,0-.476c2.71-1.213,5.243,3.626,5.717,3.838s1.313-.311,1.5-.657c.11-.2-.619-1.337-1.238-2.236.917.9,2.5,2.448,2.788,2.645.407.279-2.715,1.49-3.048,2.887,0,0-.536-.161-1.978-3.544-1.26-2.957-2.106-2.844-3.74-2.456" transform="translate(-92.996 -293.621)" fill="#730712"/>
                </g>
              </g>
            </g>
            <path id="Trazado_890426" data-name="Trazado 890426" d="M93,294.417c.007-.047.012-.1.016-.148,3.214-1.4,5.7,4.347,5.7,4.347,1.258.262,2.009-.961,2.345-1.713.339.319.6.557.7.627.407.279-2.715,1.49-3.048,2.887,0,0-.536-.161-1.978-3.544-1.26-2.958-2.106-2.844-3.74-2.456" transform="translate(-27.183 -85.951)" fill="#730712"/>
            <path id="Trazado_890427" data-name="Trazado 890427" d="M307.888,60.652A46.848,46.848,0,1,1,261.04,13.805a46.848,46.848,0,0,1,46.848,46.847" transform="translate(-62.609 -4.035)" fill="#fff"/>
            <path id="Trazado_890428" data-name="Trazado 890428" d="M238.709,100.869s-2.455,5.292-.382,9.437c0,0,27.138,7.333,57.431-.318a17.127,17.127,0,0,0-.578-9.09c-1.677-5.147-56.471-.029-56.471-.029" transform="translate(-69.42 -28.822)" fill="#db772d"/>
            <path id="Trazado_890429" data-name="Trazado 890429" d="M295.781,110.075a17.127,17.127,0,0,0-.578-9.09c-.308-.948-2.421-1.546-5.655-1.9L269.662,98.9c-11.98.451-24.606,1.5-29.16,1.9a20.252,20.252,0,0,0-2.092.968,15.573,15.573,0,0,0-.834,3.657c6.3,1.7,29.062.625,30.538.7,1.715.091,6.467-1.917,6.285,2.992-.159,4.386-30.346-.084-36.775-1.086a7.757,7.757,0,0,0,.727,2.362s27.137,7.333,57.43-.318" transform="translate(-69.444 -28.909)" fill="#be6125"/>
            <path id="Trazado_890430" data-name="Trazado 890430" d="M238,91.646s-2.551,4.144,0,6.933a27.936,27.936,0,0,0,7.89.878c4.3-.16,42.887.159,48.945-1.2,0,0,6.934-3.985,2.792-12.356l-9.408-3.963Z" transform="translate(-69.237 -23.952)" fill="#bb591d"/>
            <g id="Grupo_1104942" data-name="Grupo 1104942" transform="translate(167.95 58.478)" opacity="0.5">
              <g id="Grupo_1104941" data-name="Grupo 1104941">
                <g id="Grupo_1104940" data-name="Grupo 1104940" clip-path="url(#clip-path-18)">
                  <path id="Trazado_890431" data-name="Trazado 890431" d="M297.76,86.107l-7.686-3.236c-1.4-.081-2.828-.161-4.249-.238l-13.013,2.514a15.335,15.335,0,0,0,2.75,4.442c1.267.957,3.093,3.509,2.874,4.571s-3.927,2.669-9.066,2.681c-4.125.01-24.256.468-32.051.648a4.182,4.182,0,0,0,.814,1.294,27.916,27.916,0,0,0,7.89.877c4.3-.16,42.886.16,48.945-1.2,0,0,6.934-3.984,2.792-12.356" transform="translate(-237.319 -82.632)" fill="#83431f"/>
                </g>
              </g>
            </g>
            <path id="Trazado_890432" data-name="Trazado 890432" d="M297.629,85.905l-9.409-3.963L238,91.646a8.083,8.083,0,0,0-1.1,4.445,5.633,5.633,0,0,0,3.413-.778c3.43-1.834,3.19-.719,3.827,0s4.306,4.167,5.9,1.325,2.951-4.594,4.306-4.275,2.629,5.58,4.224,3.747,3.267-5.3,4.784-5.4,9.967,4.9,10.842,3.518,1.434-4.893,3.5-4.1,4.226,1.474,5.582.577,1.959-1.175,3.49,0a6.2,6.2,0,0,0,6.551.173c1.916-1.309,3.055-1.868,3.6-.672s-1.127,5.5-3.917,5.58c-2.548.073-39.089,1.344-44.479,3.629,9.883-.071,40.93.047,46.313-1.159,0,0,6.934-3.984,2.792-12.356" transform="translate(-69.238 -23.952)" fill="#83431f"/>
            <path id="Trazado_890433" data-name="Trazado 890433" d="M236.95,85.777a34.608,34.608,0,0,1-2.008,3.827c-.861,1.277-1.019,2.551,1.451,2.87s5.819-2.95,7.175-.878,3.108,4.783,5.021,2.154,3.35-6.233,5.5-4.671,3.907,5.068,5.581,2.2,1.195-4.543,3.27-4.224,7.492,5.088,9.006,2.025.25-5.362,2.754-4.57,2.108,3.627,5.137,2.049,4.161-2.614,4.99-1.1,3.6,3.587,4.686,1.833,2.123-3.41,4.435-2.942,4.819,4.582,6,2.207.565-3.73,1.508-3.809,1.73-1.887-1.508-3.566-31.435-3.406-31.435-3.406Z" transform="translate(-68.506 -22.15)" fill="#498a1e"/>
            <path id="Trazado_890434" data-name="Trazado 890434" d="M243.743,75.9s-11.69,8.875-7.757,11.32,17.217-1.275,20.193-8.4-5.366-9.638-12.436-2.924" transform="translate(-68.743 -21.038)" fill="#b42325"/>
            <path id="Trazado_890435" data-name="Trazado 890435" d="M256.179,80.817c.11-.265.2-.523.286-.776-.75-1.157-1.666-1.871-2.466-.448-1.7,3.03-3.009,5.776-11.108,7.814-5.562,1.4-6.808-.294-6.984-1.683-.88,1.464-1.094,2.761.079,3.488,3.931,2.445,17.217-1.274,20.193-8.4" transform="translate(-68.742 -23.034)" fill="#8a1418"/>
            <path id="Trazado_890436" data-name="Trazado 890436" d="M270.625,73.264s-12.526,7.654-8.858,10.482,17.258.464,20.935-6.32-4.369-10.129-12.077-4.162" transform="translate(-76.318 -20.509)" fill="#b42325"/>
            <path id="Trazado_890437" data-name="Trazado 890437" d="M282.7,79.546c.137-.253.256-.5.362-.742-.628-1.227-1.467-2.03-2.405-.694-2,2.843-3.576,5.444-11.838,6.655-5.676.832-6.746-.979-6.782-2.377-1.02,1.367-1.364,2.637-.272,3.478,3.665,2.829,17.258.464,20.935-6.32" transform="translate(-76.318 -22.629)" fill="#8a1418"/>
            <path id="Trazado_890438" data-name="Trazado 890438" d="M300.578,70.467s13.854,4.856,10.862,8.392-16.779,4.076-21.8-1.788,2.144-10.819,10.934-6.6" transform="translate(-84.178 -20.138)" fill="#b42325"/>
            <path id="Trazado_890439" data-name="Trazado 890439" d="M290.117,79.491c-.189-.219-.357-.435-.51-.65.357-1.33,1.009-2.294,2.207-1.183,2.548,2.362,4.639,4.572,12.969,4.023,5.726-.376,6.392-2.369,6.134-3.747,1.284,1.124,1.886,2.294,1,3.346-2.991,3.534-16.779,4.076-21.8-1.788" transform="translate(-84.653 -22.557)" fill="#8a1418"/>
            <path id="Trazado_890440" data-name="Trazado 890440" d="M308.012,68.44s13.852,4.856,10.859,8.39-16.776,4.076-21.8-1.786,2.148-10.821,10.94-6.6" transform="translate(-86.35 -19.545)" fill="#b42325"/>
            <path id="Trazado_890441" data-name="Trazado 890441" d="M297.548,77.464q-.276-.328-.507-.651c.355-1.33,1.011-2.292,2.207-1.182,2.548,2.36,4.64,4.571,12.968,4.022,5.727-.377,6.391-2.369,6.134-3.747,1.284,1.124,1.889,2.294,1,3.345-2.99,3.534-16.777,4.075-21.8-1.787" transform="translate(-86.826 -21.965)" fill="#8a1418"/>
            <path id="Trazado_890442" data-name="Trazado 890442" d="M234.963,69.75s-3.43,2.444-1.275,4.837-.624,2.071-.711,2.31-1.919,2.632.391,2.95,4.3-3.587,6.216-2.311,2.949,3.827,5.106,1.594.954-5.388,5.179-4.249,7.073,3.133,8.24,1.221.051-4.427,2.921-3.609,3.746,5.681,5.977,3.687,1.356-5.1,3.826-4.7,2.312,3.016,4.626,1.945,1.514-4.337,3.745-2.583,1.6,6.458,3.906,5.9,4.226-4.825,5.66-4.245,4.783,4.4,6.059,3.049,1.361-3.906,1.916-4.065,2.786.717,2.548-.8-4.235-4.494-4.235-4.494L279.046,60.4Z" transform="translate(-67.874 -17.654)" fill="#7eaa25"/>
            <path id="Trazado_890443" data-name="Trazado 890443" d="M261.215,71.007s11.223,1.592,16.128-1.616c0,0,14.064,6.283,20.973.159a27.885,27.885,0,0,0-2.94-2.562l-5.557-2.009-19.59-1.841-34.948,7.414s-3.43,2.444-1.275,4.837a5.2,5.2,0,0,1,.454.566c2.427.016,7.377-.159,9.962-1.73,3.509-2.132,3.4-1.748,3.4-.93s5.694,1.551,13.39-2.287" transform="translate(-68.193 -18.455)" fill="#658421"/>
            <path id="Trazado_890444" data-name="Trazado 890444" d="M239.021,60.127S227.328,69,231.262,71.447s17.218-1.276,20.193-8.4-5.364-9.637-12.434-2.924" transform="translate(-67.362 -16.429)" fill="#8d7b0a"/>
            <path id="Trazado_890445" data-name="Trazado 890445" d="M251.455,65.048c.113-.264.205-.524.285-.774-.747-1.157-1.663-1.872-2.462-.449-1.7,3.029-3.011,5.777-11.107,7.812-5.564,1.4-6.81-.292-6.986-1.681-.879,1.464-1.092,2.761.078,3.488,3.933,2.444,17.218-1.276,20.193-8.4" transform="translate(-67.362 -18.425)" fill="#76660f"/>
            <path id="Trazado_890446" data-name="Trazado 890446" d="M261.641,57.071s-9.853,10.88-5.538,12.557S272.79,65.2,274.4,57.653s-7.051-8.483-12.762-.582" transform="translate(-74.54 -15.07)" fill="#8d7b0a"/>
            <path id="Trazado_890447" data-name="Trazado 890447" d="M274.4,59.44c.059-.282.1-.552.137-.814-.948-1-1.982-1.534-2.5.013-1.114,3.291-1.895,6.231-9.475,9.727-5.212,2.4-6.745.966-7.178-.368-.592,1.6-.563,2.917.721,3.417,4.314,1.678,16.687-4.427,18.3-11.975" transform="translate(-74.54 -16.857)" fill="#76660f"/>
            <path id="Trazado_890448" data-name="Trazado 890448" d="M279.966,57.206s-13.7,5.284-10.6,8.724,16.9,3.553,21.733-2.464-2.482-10.747-11.137-6.26" transform="translate(-78.604 -16.202)" fill="#8d7b0a"/>
            <path id="Trazado_890449" data-name="Trazado 890449" d="M291.1,65.836c.179-.224.338-.446.488-.666-.4-1.318-1.079-2.259-2.241-1.113-2.477,2.439-4.5,4.714-12.841,4.423-5.733-.2-6.458-2.17-6.246-3.555-1.248,1.163-1.816,2.35-.892,3.375,3.1,3.44,16.9,3.552,21.733-2.464" transform="translate(-78.604 -18.573)" fill="#76660f"/>
            <path id="Trazado_890450" data-name="Trazado 890450" d="M302.547,57.98s13.7,5.284,10.6,8.724-16.9,3.553-21.731-2.464,2.477-10.747,11.134-6.26" transform="translate(-84.73 -16.429)" fill="#8d7b0a"/>
            <path id="Trazado_890451" data-name="Trazado 890451" d="M291.848,66.612c-.181-.223-.342-.445-.491-.665.4-1.318,1.081-2.26,2.244-1.113,2.473,2.438,4.495,4.713,12.839,4.423,5.734-.2,6.458-2.171,6.246-3.556,1.247,1.163,1.814,2.352.892,3.375-3.1,3.441-16.9,3.553-21.731-2.464" transform="translate(-85.164 -18.8)" fill="#76660f"/>
            <path id="Trazado_890452" data-name="Trazado 890452" d="M236.31,59.83s-2.551-3.83,0-6.38,23.077-10.078,35.872-8.4c13.337,1.754,20.535,3.7,24.2,8.079,0,0,.35,4.3-.924,6.056,0,0-34.436,5.9-59.147.641" transform="translate(-68.742 -13.098)" fill="#db772d"/>
            <path id="Trazado_890453" data-name="Trazado 890453" d="M287.389,49.242c-5.276,14.739-40.893,8.412-51.6,6.146-1.628,2.5.52,5.737.52,5.737,24.713,5.262,59.147-.641,59.147-.641,1.275-1.752.925-6.056.925-6.056-1.914-2.287-4.79-3.906-8.994-5.185" transform="translate(-68.744 -14.394)" fill="#be6125"/>
            <path id="Trazado_890454" data-name="Trazado 890454" d="M294.851,54.374c-8.93,10.862-46.014,7.33-59.543,5.634a7.9,7.9,0,0,0,1.04,2.617c24.711,5.262,59.147-.641,59.147-.641,1.274-1.753.924-6.056.924-6.056a12.064,12.064,0,0,0-1.569-1.553" transform="translate(-68.781 -15.894)" fill="#a2501f"/>
            <path id="Trazado_890455" data-name="Trazado 890455" d="M273,96.817s-3.4,2.231-1.914,2.763,7.654,1.488,7.441,0S273,96.817,273,96.817" transform="translate(-79.129 -28.3)" fill="#cc723e"/>
            <path id="Trazado_890456" data-name="Trazado 890456" d="M295.9,112.194a15.841,15.841,0,0,0,.142-6.042c-16.179,12.277-49.617,6.727-58.068,5.07a7.013,7.013,0,0,0,.5,1.291s27.137,7.333,57.43-.318" transform="translate(-69.559 -31.028)" fill="#a2501f"/>
          </g>
        </g>
      </g>
    </g>
  </g>
</svg>
